<?xml version="1.0" encoding="UTF-8"?>
<svg id="_图层_2" xmlns="http://www.w3.org/2000/svg" version="1.1" viewBox="0 0 324.3 320.8">
  <!-- Generator: Adobe Illustrator 29.5.0, SVG Export Plug-In . SVG Version: 2.1.0 Build 137)  -->
  <defs>
    <style>
      .st0 {
        fill: #363636;
      }
    </style>
  </defs>
  <path class="st0" d="M234.5,250.1c-1.4,8.4,5.5,9.5,12.2,10.6,6.6,1.1,25.1.4,29.1,4.1s2.2,6.4.7,9.9c-5.1,11.9-15.5,25.8-21.5,37.8-1.8,2.8-9.1,6.6-12.1,6.8s-7.5-2.2-10.8-2.7c-6.9-1.1-16.6-3.1-23.3-3.6-6.3-.5-19,1.3-24-.2s-3-4.5-1.7-6.8l20.5-32.5-3.2-12.6c-12.1,3.2-24.3,6.3-36.6,8.7-16.5,3.3-40.7,8.3-57.1,6.5-23.6-2.7-33.4-31.6-39.3-50.9-25.5-3.8-43.8-25.4-32.6-51.3,5-11.6,16.4-21.4,29.6-20.7s23.2,5.2,21,12.8c-3,5.6-8.5-1.1-13.1-2.7-13-4.7-23-.3-29.1,11.7-9.8,19.2,1.2,36.6,20.9,41.3s15.7,1.1,17,2.7c2.9,3.6-1.8,7-5.5,6.8,6.1,15.4,11.6,37.7,30.3,42,11.8,2.7,36.9-2.4,49.6-4.7,42.1-7.7,89-22.8,129.9-36.1,10-3.3,25.5-6.5,28.3-18.4s-3.4-32.9-6.6-44.2c-1.4-5-6.7-16.1-7.1-19.9-.6-6.2,3.2-6.6,6.4-1.9,7.6,11.3,17.5,50.5,15.9,63.8s-8.9,18.5-19.2,23l-68.6,20.7ZM262.2,269.7c-8.8-.4-23.2-.8-30.8-5.6-4.2-2.7-3.4-7.5-5.6-11.4l-18,6.2c3.5,10.3,6,15.8-1.3,25.2l27,2.3,28.7-16.7ZM264.9,277.8c-4.9,4-26.8,12.6-29.2,17.1-.4.7-.6,1.3-.3,2l11.1,12.3,2-1.4,16.3-29.9ZM233.5,308.3c-2.7-5-7-8.1-6.7-14.4l-25-2.7-8.7,13.1c14-.8,26.7,3.5,40.4,4Z"/>
  <path class="st0" d="M181.5,157.6c-.6.6-1.3,10-6.3,14.8-6.8,6.6-33.2,12.7-42.6,12-20.7-1.7-31.1-20.2-26.3-39.6,2.1-8.3,5.5-11.3,12.9-14.9s13.5-5.8,14.9-5.4,2.7,2.9,2.5,4.8c-.8,5.8-17.8,5.5-21.7,15.1-5.4,13.1,1.2,29.7,16.1,31.8s32.4-3.9,38.4-9.6,4.6-17.9,1.7-25.1c-5.4-13.8-22.6-7.1-27.4-11.2s-1-6.1,2.3-6.7c6.4-1.2,19.1,1.3,24.6,5s9.1,13.6,10.8,21.9c8.8-10.9,23-7.2,26.2,6.1,11.2,4.2,27,4.1,38.2-.6,13-5.5,9.4-23.6,5.2-34.3s-7.4-16.8-18-16.2-27.2,6.8-33,10.1c-9.2,5.2-5.3,17.2-9.3,18.6-9.3,3.1-4.7-14.6-2-19,4.9-7.7,26.3-14,35.2-16,11.8-2.6,18.7-3.6,27,6.5,10.2,12.5,18.2,42.5,4,54.1-9.7,8-36.8,11-47.9,4.4-2.4,2.4-11,11.7-14.4,7s12.4-8.9,5.4-17.1c-5.7-6.6-9.5,2.3-11.2,3.1s-5,.1-5.4.5Z"/>
  <path class="st0" d="M181.1,227.2c-9.1,9.8-25.6,4.5-28.2-8.4s0-6-.3-6.4-9.4-1.7-4.4-6.8,24.4-3.4,28.7-6.3c8.9-3.4,18.3-5.5,27.4-8.5,4.9-1.6,15.8-8.8,19.3-4.1s-6.5,6.5-8.9,7.4c-10.5,4-20.9,8.1-31.6,11.5-1.5,1.1-.4,1,0,1.8,1.8,3.6,3.1,4.2,2.7,9s-2.8,8.7-4.8,10.9ZM168,209.6l-9,2.2c2.7,4.6.8,11,7.7,12.1s12.3-4,11.2-11.6c-5.5,1.4-3.4,11.4-11.1,8.8s1.8-10.9,1.2-11.5Z"/>
  <path class="st0" d="M232.4,78.7c3.7-.5,7.1,2.8,4.2,6.1s-15.1,5.7-19.5,7.5c-8.3,3.3-23.5,11.4-31.1,12.8-2.7.5-7.9,1.4-8.9-2l.3-3c1.2-2.3,6.6-2.6,9-3.5,7.6-3,15-6.8,22.6-9.7s18.4-7.5,23.4-8.1Z"/>
  <path class="st0" d="M30.4,137.1c2.8-.6,6,.4,5.5,3.7s-10.3,10.2-12.9,13.2-7.1,9.4-9.3,14.1-4.3,18-10,15.2,4-21,6.5-25,16.1-20.2,20.2-21.1Z"/>
  <path class="st0" d="M95.5,124.6c1-1,8.9-4.9,10.8-5.8,6.2-2.8,29.7-11.6,35.1-10.6s1.8.4,2.2,1.5c.7,2.8-.3,4.8-2.9,5.9-9.4,2.5-18.8,5.4-27.8,9-3.4,1.4-11.8,6.5-13.9,6.8-4.2.6-6.3-4-3.6-6.8Z"/>
  <path class="st0" d="M120.2,15.9c4.2-1.2,15.7,7.2,19.1,10.2s12.9,13.1,13.9,16.6,1,6.2-2.7,6.9c-4.2-1.1-5.4-5.8-8.1-8.7s-7.1-7.7-10.3-10.3-14.8-7.7-14.4-11.6c.2-1.4,1.2-2.7,2.5-3Z"/>
  <path class="st0" d="M187.4,1.6c1,0,3,.8,3.5,1.6,2.5,4.2-6.1,10.7-8.5,13.9s-4.9,6.6-6.1,9.1c-2.1,4.4-2.9,17.7-8.9,14.9s.7-16,2.9-20S183.5,1.9,187.4,1.6Z"/>
  <path class="st0" d="M64.8,183.6c-4-1.6-13.7.6-15.7-3.6-3.3-6.6,8.7-5.8,12.5-5.3s14.3,4.9,15.3,7.1c3.1,6.3-4.3,5.7-5.4,7.2-2,2.6-.2,12.7-7.9,10.7-4.3-1.5,1.8-15.4,1.2-16Z"/>
  <path class="st0" d="M273.7,58.6c-2.5,2.5-8.6-.5-11.9-.7s-6.9-.3-9.9,0-9.8,2.7-11.5,2.5c-3.6-.3-4.5-4.6-2-7,5-4.9,34.6-5,36.3,1.6.2,1.1-.2,2.8-1,3.6Z"/>
  <path class="st0" d="M94.2,39.3c4.2-.6,9.8-.5,14.1-.3s13,1,14,2.2c3.3,4-2.3,6.7-6,6.9s-4.7-.9-7.1-1c-4.3,0-19.1,1.4-21.2-1.2-3.5-4.3,3-6.1,6.2-6.5Z"/>
  <path class="st0" d="M20.5,179.2c7.7-2.2,4.6,9.9,4.7,12.9s2.5,11.7.1,14.4l-3.2,1.3c-1.6,0-3.2-2.1-3.6-3.5s-1.3-9.5-1.3-11.3c0-3,.6-13,3.4-13.7Z"/>
  <path class="st0" d="M48.4,88.7c5.2,5.2-7.9,8.3-11.5,10.1s-14.1,10.5-12.6,1c.7-4.6,19.4-15.6,24-11Z"/>
  <path class="st0" d="M293.4,83.2c2.9-.7,6,.5,5.6,3.8s-15.4,12.2-18.5,14.9c-13.1-2.5,9.4-17.8,12.8-18.7Z"/>
  <path class="st0" d="M291.6,114.7c4.3,4.2-7.7,11.6-11.7,10.4-8.6-2.5,7-15,11.7-10.4Z"/>
  <path class="st0" d="M150.7,153.7c-5.3,5.3-12.1-8-6.1-11,6.6-3.3,8.8,8.3,6.1,11Z"/>
  <path class="st0" d="M154.8,19.6c7.2-6,9.2,14.2.4,11.3s-2.7-9.4-.4-11.3Z"/>
  <path class="st0" d="M222.5,129.9c1.8,1.8,2,9.4-1.3,10.4-9.5,2.8-6-17.8,1.3-10.4Z"/>
  <path class="st0" d="M199.1,16.8c8.8-2.7,4,11.1-1.9,10.6s-2.4-9.3,1.9-10.6Z"/>
  <path class="st0" d="M34.8,119.1c7.5-.7,2.7,11.3-3.5,10.5-5.6-2.4-.4-10.1,3.5-10.5Z"/>
  <path class="st0" d="M291.6,128.1c8.2-2.5,8.7,8.3.8,7s-4.3-5.9-.8-7Z"/>
  <path class="st0" d="M239.5,21.3c7.7-2.3,7.7,7.4.7,7.1s-3.9-6.1-.7-7.1Z"/>
  <path class="st0" d="M59.1,66.1c5.1-1.4,7.7,7.5.7,7.1s-3.7-6.3-.7-7.1Z"/>
</svg>