<?xml version="1.0" encoding="UTF-8"?>
<svg id="_图层_2" xmlns="http://www.w3.org/2000/svg" version="1.1" viewBox="0 0 486.5 522.3">
  <!-- Generator: Adobe Illustrator 29.5.0, SVG Export Plug-In . SVG Version: 2.1.0 Build 137)  -->
  <defs>
    <style>
      .st0 {
        fill: #363636;
      }
    </style>
  </defs>
  <path class="st0" d="M155.6,383.8c.9,0,1.9,0,2.8,0,1.8,0,3.7,0,5.5,0,1.1,0,2.2,0,3.4,0,1.6,0,3.3,0,4.9,0,1.2,0,2.4,0,3.6-.1,1.6,0,3.1,0,4.7-.2,1.2,0,2.5-.1,3.7-.2,1.5,0,3-.1,4.6-.2,1.3,0,2.5-.2,3.8-.2,1.5,0,3-.2,4.5-.3,1.3,0,2.6-.2,3.8-.3,1.5-.1,3-.2,4.4-.4,1.3-.1,2.6-.2,3.9-.3,1,0,2.1-.2,3.1-.3,1.5-.1,3,.4,4,1.5.3.3.6.6.8,1,.2.2.3.4.5.6.3.4.7.9,1,1.4,0,.1.2.2.2.3.4.6.8,1.2,1.1,1.8.1.2.2.4.3.6.2.4.5.9.7,1.3.1.2.3.5.4.7.2.4.4.8.6,1.2.1.3.2.5.4.8.2.4.3.8.5,1.1.1.3.2.6.4.9.2.4.3.8.4,1.1.1.3.2.6.3.9.1.4.3.8.4,1.1.1.3.2.6.3.9.1.4.2.8.3,1.2,0,.3.2.6.3.9.1.4.2.8.3,1.2,0,.3.2.6.2.9,0,.4.2.8.3,1.2,0,.3.1.6.2.9,0,.4.2.8.2,1.2,0,.3.1.6.2.9,0,.4.2.8.2,1.3,0,.3,0,.5.1.8,0,.5.1.9.2,1.4,0,.2,0,.5.1.7,0,.7.2,1.3.3,2,.7,5.3-2.2,13.9,6.5,11.6,3.6-2.5.7-19-.3-23.2-.5-2.2-1.2-4.4-1.9-6.6,0-.2-.1-.4-.2-.6-.1-.3-.2-.6-.3-.9-.1-.3-.2-.6-.3-.9-.1-.3-.2-.6-.4-.9-.1-.3-.2-.6-.4-.9-.1-.2-.2-.5-.3-.7-.1-.3-.3-.7-.5-1-.1-.2-.2-.4-.3-.7-.2-.4-.3-.7-.5-1.1-.1-.2-.3-.5-.4-.7-.2-.3-.3-.7-.5-1-.1-.2-.3-.5-.4-.7-.2-.3-.4-.7-.6-1-.2-.3-.3-.5-.5-.8-.2-.3-.4-.6-.5-.9-.2-.2-.3-.5-.5-.7-.2-.3-.4-.6-.6-.8-.2-.2-.3-.4-.5-.7-.2-.3-.4-.6-.6-.8-.2-.2-.4-.4-.5-.6-.2-.3-.4-.5-.7-.8-.2-.2-.4-.4-.6-.6-.2-.2-.5-.5-.7-.7-.2-.2-.4-.4-.6-.6-.2-.2-.5-.5-.7-.7,0,0,0,0,0,0,0,0,0,0,0,0,0,0,0,0,0,0-1.5-1.3-3.4-2-5.3-2-4.1,0-8.8.5-13.1.8-24.3,1.8-47.4,2.9-72,.9-9.4-.7-26.1-5-33.5-11.8-.5-.6-1.1-1.1-1.6-1.7-21.8-23.4-20.1-76.5-26.1-107.1-.7-3.2-4.9-24.9-11.3-17.6-2.4,2.7,2.4,14.1,3.3,18.3,7.1,34.5,2.8,90.1,32.3,113.9h.2c16.2,13.2,34.4,14.3,54.7,15.1,2.8.1,5.5.2,8.3.2Z"/>
  <path class="st0" d="M479.9,454.7c-19.8-98-36.8-196.9-58.3-294.5-10.2-46.5-30.1-115.3-74.2-140C322.1,6,281.3-.8,252.5,1.8c-33.7,3.1-72.3,17.1-86.7,49.9l-24.8-2.3c-42,.2-110.6,33.1-127.5,73.2-18.5,44-11,108.7-7,155.9,3,35.3,6.7,70.9,10.9,106.1,5.3,44.9,11.8,89.8,19.6,134.3,2.9,3.9,7.4,8.7,7.2-2.7s-5.4-30.8-7.1-43.3c-9-64.2-17-128.8-22.6-193.4C10.2,230.7-1.7,138.6,36.9,102.2c35.3-33.3,92.7-53.5,140.4-39.6,2.8.8,6.2,3.8,9.3,3,8.4-6.7-6.8-10.9-12-11.6,5-18.2,26.3-30.4,43-36.6,37.4-13.8,94.2-9,128.6,11.3,38.7,22.9,58.2,90.6,67.5,132.3,21.7,97.6,37.2,196.8,58.3,294.5,1.2,5.3,3.8,18.9,5.7,23.1.4,1,1.5,2.5,2.6,2.8l3-.3c.7-.5,1.3-1.1,1.6-2,1.2-4.2-3.9-19-5-24.4Z"/>
  <path class="st0" d="M105,257.4c39.9,13,92.4,1.2,93.2-48.6,4.3,2.7,6.3-.7,10.8-2.2s8.4-2.5,14.2-.8c5.8,1.7,10.8,9.9,17.2,5.7,5.4,21.9,31.3,44,54.3,42.2,49-3.8,64.9-55,46.3-95.6-4.3-9.4-16.1-23.7-27.4-24-3.9,0-3.8,2.4-6.3,2.8-2.5.4-7.8-1.6-10.8-1.8-29.8-2.2-54.8,25.3-58,53.5h.2c-.6,5.2.4,11.3,0,16.6-4.3-1.6-3.1-3.4-12-6.5s-21.7-1.8-28.1,5.6c-.9-.7-1.1-1.3-1.3-2.3-4.7-21.3-13.7-36.7-35.1-45-5.9-2.3-19.8-3.8-23.6-5.8-1.6-.8,1.7-2.7-4.4-4.8-6.1-2.1-14.9.2-20.8,2.3-50.2,17.9-64.4,90.5-8.4,108.7ZM295.8,143.1c4.4.3,16.9,4.8,19.3,3.2.6-.4.7-1.9,1-2.1h0c3.9-2.4,14.8,11.1,16.5,14.2,10.9,20.1,19.4,50.8-6.8,73.4-26.2,22.6-60.6,15.5-75.3-15.6-14.5-30.4,9.4-75.3,45.2-73.1ZM123.8,154c1.5-.2,5.4-.5,6.5,0h0c.6.3-2.9.4,2.9,3,5.8,2.6,14.9,2.9,21.6,5.4,50.6,18.9,45.9,86.8-9.5,91.3-23.2,1.9-50.5-2.5-63.2-24-17.6-29.9,9.7-71.8,41.8-75.8Z"/>
  <path class="st0" d="M313.2,422.5c-1,.5-1-2-3.1,2.3-2.1,4.3,3.9,13.7-3.3,23.7-15.9,22-84.1,23.6-100.2,1.5-1.1-1.4-4.5-3.1-1.4-5.9,3.1-2.8,26.5-5.3,24.9-14-.4-1.7-2.1-2.6-3.8-2.6s-12.7,5.7-16.4,6.9c-21.6,6.8-44.8,8.9-66.8,14.2-23.5,5.7-44.8,13.8-40.2,42.1.6,3.7,1.5,15.5,7.2,14.1,5.7-1.4.3-6.3-.3-22-.6-15.7,18.5-22.1,31.1-25.5,18.3-5,37.7-6.8,56.2-10.9h0c2.5,18.2,30,25.1,45.5,27,27.6,3.3,81.1-5.6,75.9-43.6-.3-2.5-2.1-8-5.4-7.3Z"/>
  <path class="st0" d="M313,365.8c19.6-3.9,30.3-4.9,48.5-15.4,45.8-26.5,14.8-97.9,13.5-139.9-.5-2.9-1.9-6.1-5.4-5.1h.1c-3.1,1.4-2.5,4.7-2.4,7.6,1.2,29.9,23,99,1.8,122.4-4.7,5.1-16.6,10.9-23.1,13.8-15.9,7.1-38.5,11.8-55.9,15.2-14.1,2.8-20.7-2.6-22.6,16.1-1,9.7.7,27.3,5.2,36,2.2,4.3,6.9,3.8,7.3-1,.4-4.8-4-13.2-4.6-18.9-.3-3.6-.4-20.5,1.8-22.5,12.1-2.1,23.8-5.9,35.8-8.3Z"/>
  <path class="st0" d="M259.8,308c5.6-2.5,10.6-6.2,15.9-9.3,3.2-1.9,6.8-1.5,8.7-6.6,0-.5-1.2-.4-1.4-.8-1.1-2-1.1-4.6-4.2-4.1-2,.3-13.7,9-17.1,10.8-19.2,10.4-47.6,15.9-69.4,14.2-10.6-.8-24.9-7.4-34.9-4.2-9.3,3.1-19.7,2.3-12.2,24.3s48.6,10.8,45.6-11.9c22.8,1.2,48.2-2.8,69-12.4ZM153.5,331.2c-6-9.5,8.8-22.2,17.5-13.5-7,1.2-7,12.5.6,9.3,2.1-.9,5.4-12.4,10.7-4.8,5.3,7.6-20.7,21.8-28.8,9Z"/>
  <path class="st0" d="M372.4,403.5h0c-17.2,1.1-40.4,5.5-57.6,9-11.5,2.4-22.9,5.4-34,9.2-3.9,11.5,6.7,5.5,12.2,4.1,23.4-5.9,55.4-12.6,79.3-14.3,30.4-2.1,34.3,29.9,37.6,53,.9,3.5,5.3,4.2,7,.7s-1.3-16.2-2.3-20.7c-5-23.1-15.3-42.8-42.2-41Z"/>
  <path class="st0" d="M76.8,156.5c7.4-1.1,16.2-6,23.4-8.2,17.4-5.4,35.3-6.3,53.3-8.8,2.1-.5,3.2-2.7,3-4.8-.8-3.4-8.2-2.5-11.1-2.4-25,1.2-48.9,8.6-72.2,16.9-2.3.9-3.7,4.4-1.8,6.3h0c1.3,1.3-2,2.1,5.4,1Z"/>
  <path class="st0" d="M233.3,250.1h.2c5.3,2.7,6.5,0,8.2-4.5,2.1-6,2-10.5-1.7-15.9-14.4-21-56.1-1.8-41.5,22.6.8,1.4,2.4,5.1,6,6.6,3.6,1.5,6.7.7,6.3-3.6-.3-2.9-6.9.2-7.3-12.7-.4-12.9,23-19.1,29.7-9,4.2,6.3-1.2,10,0,16.5Z"/>
  <path class="st0" d="M293.2,109.2c-8.2,1.2-17.7,3.5-25.6,5.9-10.5,3.1-19.6,8.1-29.9,11.5-1.7.9-3.9-1-1.7,5.2,2.2,6.2,11.5-1.2,22.4-5.3,10.9-4.1,22.5-7.1,34-9.2,5.3-1,14.2-.8,18.4-2.3,2.8-1.1,3.2-5.1,1.3-6.8v.2c-2.1-1.9-10.7-.4-18.9.8Z"/>
  <path class="st0" d="M87.4,41c8.5-1.9,18.8-1.7,27.5-1.4,4.6.1,22.9,3.4,26.1,1,3.2-2.4,1.3-6.5-2.8-7.2-11.9-1.9-29.1-3.2-44.2-3.1h0c-3.9.4-17.7,0-20,8.2s4.8,4.4,13.3,2.5Z"/>
  <path class="st0" d="M351.5,191.9c-2.9,2-3.3,6.3,1.8,7.1,5.1.8,31.5-9.7,35.5-14,5.3-5.6,4-16.5,0-22.5l-3-.3h0c-6.1,4.2,1.1,11.8-2.8,17.1-4.4,6-24.3,9.8-31.5,12.6Z"/>
  <path class="st0" d="M128.2,18.1c6.5.5,19.5,6.4,23.6,8.8,4.1,2.4,9.2,10.8,15,9,5.8-1.8,6-1.8-2.5-9.8s-32.8-17.2-42.1-15.9-6.2.6-6.2,4.7,8.3,2.9,12.2,3.2Z"/>
  <path class="st0" d="M64,217.3c-3.4-4.6-20.3-1.2-25-6.1s6.1-12-.3-19.1c-6.4-7.1-10.8,10-9.3,17.4,1.5,7.4,11,12.8,17.9,13.7,4.3.6,10.7,0,15.3,0s4.8-1.3,1.4-5.9Z"/>
  <path class="st0" d="M347.2,123.4c-5.7,1.6,1.5,13.8,2.7,17.7,2.5,8.1,4.1,21.8,6.5,27.7,2.4,5.9,7.9,4.3,7.9-.8s-3.9-19.2-5.6-24.9c-1.3-4.6-5.5-21.4-11.5-19.7Z"/>
  <path class="st0" d="M60.3,170.7c0-2.3-1.6-5.4-4.2-5.7l-2.4.6c-3,2-3.3,29.9-1.6,33.9,1.7,4,6.4,3.9,7.3.8,1.1-4,0-21.4,0-27s.9-.3.9-2.6Z"/>
  <path class="st0" d="M129.9,205.1c.9.9,3.1,1.4,4.3.7,3.9-3.3,3.9-10.2-.6-13l-3,.3c-2.8,1.4-2.3,10.2-.7,11.9h0Z"/>
  <path class="st0" d="M290.4,195.3l2.6-.7c2.2-1.9,1.6-6.6.2-8.9h0s-3.4-.7-3.4-.7c-3.6,1.8-2.8,8.5.6,10.3Z"/>
</svg>