<?xml version="1.0" encoding="UTF-8"?>
<svg id="_图层_2" xmlns="http://www.w3.org/2000/svg" version="1.1" viewBox="0 0 317.2 290.3">
  <!-- Generator: Adobe Illustrator 29.5.0, SVG Export Plug-In . SVG Version: 2.1.0 Build 137)  -->
  <defs>
    <style>
      .st0 {
        fill: #363636;
      }
    </style>
  </defs>
  <path class="st0" d="M276.8,171c.2,2.5,2.5-4.6,4.5,6.3,2,10.9,2.7,34.5,1.8,45.7-4.6,58.2-59.7,51.3-103.6,54.3-26.2,1.8-56.3,6.9-82.1-.5-13.4-3.9-18.2-9.8-22-22.9-1.4-4.7-5.1-21.8-4.1-26.5s9.9-2.8,9.1-9.9c-.8-7.1-.2-3.6-11.4,1.3-11.2,4.9-24.4,7.6-35.3.5-15.9-10.4-18.3-38.6-5.1-52.1h-.2c3.5-3.6,9.5-6.3,14.6-6.5,5.5-.2,10.5,2.7,15.8,3.4,5.4-4.2,2-7.3-3.1-9.1-37.7-13-55.7,35.7-34.6,63.4,10.1,13.4,26.5,15.4,42,11.4,2,14.9,3.1,31,13,43.1,18.8,23.2,75.6,14.4,102.3,12.6,23-1.5,46.2-1.1,68.7-6.7,20.1-5,34-17,39.5-37.3,0,0,5.1-17,3.1-53.7,0-2.1-.2-4-.4-5.8.4-1.4,5.2-1.7,4.6-5.5-.6-3.8-16.7-15-17.1-5.5Z"/>
  <path class="st0" d="M257.2,137.6c-7.9-8.4-35.3-7.2-46.1-5.7-3.9.6-17.9,2.9-17.4,8.3.5,6.7,8.2,1.5,16.6,0s35.1-3,41.1,3.3c2.9,3,2.6,12.1,1.6,16-3.8,15.5-31.1,24.5-44.5,17.9-8.9-4.3-11.8-14.6-12.4-23.6-.1-2.7,6-8.1-2.3-10.2-8.3-2.1-4.4,19.2-3.9,23.2-5.9-3.6-14.8-.2-19,3s-10.7,11.8-4.6,15.7c5.2.3-2.4,2.3,8.3-8.4s27,3.8,13.4,14.3c-5.9,4.5-11.4,2.3-17.7,5.2-3.7,8.3,5.2,7.5,13.3,5.7,8.1-1.8,17.3-10.7,17.9-19.3h0c24.5,12.9,64.5-3.9,59.9-35.3-.4-2.6,3.7-1.7-4.2-10.1Z"/>
  <path class="st0" d="M179.5,225.3c5,.3,26.4.7,29.2-1.4.9-.7,1.4-1.7,1.6-2.8,0-2,4.3-2.5-2.9-3.9-7.2-1.4-19.8.4-27.9,0-10.6-.6-21.5-2.7-32.9-4.8-11.4-2.1-26.6-8.3-35.7-1.9-9.1,6.4-16.6,24.7-8.2,34,14.5,16.2,44.8-5.9,42.2-24.7h0c11,2.5,23.2,4.9,34.5,5.5ZM136.9,223.4c0,6.6-8.3,14.3-14,16.9-27,12.1-14.8-37.7,7.7-22.8-3.3,2.8-15.7,12.6-14.8,16.7l2,2.5c6.3,2.1,12.4-12.1,19.1-13.3h0Z"/>
  <path class="st0" d="M124.1,134h0c-9.1.8-44.9,5.6-45.6,17.4,0,1.9-.7,2.3,3.7,12.6.7,1.7,1.6,3.7,2.7,6,14.7,31.4,56.6,29.9,69.7-1.9,2.2-5.3,8.1-14.6,5.2-25.4-2.9-10.8-27-9.4-35.7-8.7ZM151.7,144.4c-.6,22.9-14.6,45.7-40.7,38.9-11.1-2.9-15.5-8.6-19.8-18.8-5-12-6.3-14.1,6.9-18,7.5-2.3,18.1-3.9,26-4.5,4.6-.4,25.5-1.2,27.6,2.4Z"/>
  <path class="st0" d="M34,73.6c5.5.1,6.9-9.5,10.9-14.3s13.4-9,18.3-10.4c4.9-1.4,12.6,1.1,9-7.6h0c14.3,4.8,33.8,6.7,43.1-7.8.2-2-1.2-3.7-3.2-4-3-.3,4.5-.3-10.6,5.6-15.1,5.9-25.1-3.2-38.3-5.2-5.2-.8-8.1-.6-5.5,5.5l10.8,4.9c-14,.5-28.4,8.8-34.6,21.5-1.6,3.3-6.1,11.8,0,11.8Z"/>
  <path class="st0" d="M162,38.2c1.2.7,3.4.2,4.3-.7,1.4-1.5,1-6.9,1.7-9.5,2.6-10,14-20.7,24.8-18.8,5.3.9,11.4,7.6,17,9,5.6,1.4,25.6,2.9,28.4-6.3,2.8-9.2-10.6-2.4-14.2-1.6C206.2,14.3,202.9,0,188.5.9c-9.9.7-21.2,9.9-25.5,18.5-2,4.1-6.6,16.2-1,18.8Z"/>
  <path class="st0" d="M304.7,98.3c-10.9-9.3-9.4-12.6-14.2-24.4-3-7.4-9.1-16.7-18.3-15.4h0c-4.2.6-13.1,5.6-9.2,10.6,3.9,3.4,1-1.5,10-2.7s10.2,13,13.7,21.3,11.4,16.8,19.3,21.1c2.6,1.4,5.1,3.5,7.8,1.2,4.4-5.1-5.8-9-9-11.7Z"/>
  <path class="st0" d="M39.1,150.3c8.4,4.4,7.1-12,.1-13.2h0c1.2-5.8,4-9.1,3.4-15.5-.3-3.1-1.7-11.3-6.8-8.9-5.1,2.4-.6,7.4-1.1,12.4s-7.5,13.9-11.3,16.6c-3.8,2.7-11.8,3.3-9,9s16.2-3.7,18.8-6.9c5,.3-2.6,2.1,5.8,6.5Z"/>
  <path class="st0" d="M37.5,205.9c.6,1.8,2.8,2.3,5.6,1.3,2.8-1,3.4-20.4,7.7-23.7,2.1-1.4-.9-.7,4.4,3.7,5.3,4.4,8.5-3.8,2.3-9.5-6.2-5.7-23.7-10.3-27.4-.4,1.8,6,8.9,1.5,13.4,2.2h.2c-3.7,8.4-7.2,17.1-6.2,26.4Z"/>
  <path class="st0" d="M294.8,111.7c-7-5.6-15.1-22-23.9-22.8-8.8-.8-17.6,11.4-9.7,12.6,5.2.8,6.7-5.7,11-3.9,4.3,1.8,10.4,13.9,15.1,18.1,3,2.8,15.4,11.5,19,7.9h0c0,0,1.1-3,1.1-3-.2-3.1-5.5-3.3-12.5-8.9Z"/>
  <path class="st0" d="M87.9,120.4c11.2-.3,30.3-1.9,41.2-3.8,2.2-.4,7.1,1.1,8.5-3.2,1.4-4.3-1.7-5.5-5.4-5.5h-.1c0,0-47.8,4.4-47.8,4.4-2.5.4-3.5,2.6-3.2,4.9.5,3-4.4,3.5,6.8,3.2Z"/>
  <path class="st0" d="M15.4,99.7c2.8-3.7,14.3-11.7,9.1-16.9s-3.7-1.5-4.8-.3C10.4,92.8,1,103,1.3,118c0,3.9.9,17.6,7.2,14.4,4-4.1.7-10.4.9-16.2.2-5.8,2.5-11.9,6-16.5Z"/>
  <path class="st0" d="M112.3,22.3c4.1,0,4.8-4.6,6.9-6.7h0c4.5-4.5,9.4-6.2,17.6-2.5,8.2,3.7,3.5,7.2,4.7,11.4,1.9,6.7,13.1-.7,6.9-11.3-6.2-10.6-23.7-12.3-33.1-4.6-3.6,2.9-10.4,11.6-3,13.7Z"/>
  <path class="st0" d="M219,104.9c-2.5.3-5.6.4-8.9,0-3.3-.4-12.5-5.7-11.3,2.3,1.3,8.7,24.7,5.1,30.5,3.6,3-.8,17.6-4.7,11.4-10.1h0c-2.8-2.5-16.9,3.7-21.8,4.2Z"/>
  <path class="st0" d="M280.7,135.6c2.3.6,9.2,8.2,13.6,9,4.4.8,8-3,4.8-6.2h-.1c-.9-1,.1,1.6-6.3-3.1s-12.4-13.3-20.2-3.7c-.6,7.5,5.9,3.4,8.2,4Z"/>
  <path class="st0" d="M183.5,45.3c-5.7-2.8-20.5,14.6-20.7,19.8,0,2.4.7,4.5,3.4,4.7,3.4.3,8.4-10.1,10.6-12.4,2.2-2.3,6.3-4.3,7.4-5.6h0c1.7-1.9,1.7-5.1-.6-6.5Z"/>
  <path class="st0" d="M44.5,87.4c-6.2-4.3-22,15.4-20.6,20.5.9,2.8,4.9,3.2,6.8,1.3h0c1.4-1.4,4.4-7.8,6.5-10.1,2.1-2.3,13.4-7.4,7.2-11.7Z"/>
  <path class="st0" d="M228.4,30.1c0,7.1,13.2,6.1,18.2,3.8,1.9-1,7.9-4.9,8.6-7.6s-1.7-5.2-4.6-4.6h0c-3.1.7-6.2,5.5-10.3,6-4.1.5-12-4.7-12,2.4Z"/>
  <path class="st0" d="M255.3,48c6.2,4.3,30.4-1,23.1-8.3-2.7-2.6-7.1,1-11.1,1.5s-8.4-.4-12.4.2c-2.5.9-5.8,2.3.4,6.6Z"/>
  <path class="st0" d="M287.9,148.2c-5.4-1.2-9.3,4-6.3,6.8,1.1,1,1.4-.4,5.1,1.6,3.7,2,9.2,11.4,14.3,4.2,1.5-3.1-7.7-11.4-13.1-12.6Z"/>
  <path class="st0" d="M182.6,67.8c1.5.3,9.4-6,9.8-7.4.7-3.7-1.9-5.4-5.5-4.6-4.3.9-12,10.4-4.3,12Z"/>
  <path class="st0" d="M222.3,151.8c-1.8,3.3-1,6.8,2.3,8.7,6.9,2,6.3-11.9-2.3-8.7Z"/>
  <path class="st0" d="M130,164c.9,1,3.2,1.3,4.5,1,4.5-1.2,2.3-11.1-2-12-5.2-1.1-4.9,8.7-2.6,11h0Z"/>
</svg>