<?xml version="1.0" encoding="UTF-8"?>
<svg id="_图层_2" xmlns="http://www.w3.org/2000/svg" version="1.1" viewBox="0 0 486.5 522.3">
  <!-- Generator: Adobe Illustrator 29.5.0, SVG Export Plug-In . SVG Version: 2.1.0 Build 137)  -->
  <defs>
    <style>
      .st0 {
        fill: #363636;
      }
    </style>
  </defs>
  <path class="st0" d="M174.6,54c5.1.7,20.4,4.9,12,11.6-3.1.8-6.5-2.2-9.3-3-47.7-13.9-105.1,6.3-140.4,39.6C-1.7,138.6,10.2,230.7,14.5,279.5c5.6,64.6,13.6,129.2,22.6,193.4,1.7,12.5,6.9,31.9,7.1,43.3s-4.3,6.6-7.2,2.7c-7.8-44.5-14.3-89.4-19.6-134.3-4.2-35.2-7.9-70.8-10.9-106.1-4-47.2-11.5-111.9,7-155.9,16.9-40.1,85.5-73,127.5-73.2l24.8,2.3C180.2,18.9,218.8,4.9,252.5,1.8c28.8-2.6,69.6,4.2,94.9,18.4,44.1,24.7,64,93.5,74.2,140,21.5,97.6,38.5,196.5,58.3,294.5,1.1,5.4,6.2,20.2,5,24.4-.3.9-.9,1.5-1.6,2l-3,.3c-1.1-.3-2.2-1.8-2.6-2.8-1.9-4.2-4.5-17.8-5.7-23.1-21.1-97.7-36.6-196.9-58.3-294.5-9.3-41.7-28.8-109.4-67.5-132.3-34.4-20.3-91.2-25.1-128.6-11.3-16.7,6.2-38,18.4-43,36.7Z"/>
  <path class="st0" d="M238.5,188.6c3.2-28.2,28.2-55.7,58-53.5,3,.2,8.3,2.2,10.8,1.8s2.4-2.9,6.3-2.8c11.3.3,23.1,14.6,27.4,24,18.6,40.6,2.7,91.8-46.3,95.6-23,1.8-48.9-20.3-54.3-42.2-6.4,4.2-11.4-4-17.2-5.7s-9.7-.7-14.2.8-6.5,4.9-10.8,2.2c-.8,49.8-53.3,61.6-93.2,48.6-56-18.2-41.8-90.8,8.4-108.7,5.9-2.1,14.7-4.4,20.8-2.3s2.8,4,4.4,4.8c3.8,2,17.7,3.5,23.6,5.8,21.4,8.3,30.4,23.7,35.1,45,.2,1,.4,1.6,1.3,2.3,6.4-7.4,19.2-8.7,28.1-5.6s7.7,4.9,12,6.5c.4-5.3-.6-11.4,0-16.6ZM316.1,144.2c-.3.2-.4,1.7-1,2.1-2.4,1.6-14.9-2.9-19.3-3.2-35.8-2.2-59.7,42.7-45.2,73.1,14.7,31.1,49.1,38.2,75.3,15.6s17.7-53.3,6.8-73.4c-1.7-3.1-12.6-16.6-16.5-14.2ZM130.3,154.1c-1.1-.6-5-.3-6.5-.1-32.1,4-59.4,45.9-41.8,75.8,12.7,21.5,40,25.9,63.2,24,55.4-4.5,60.1-72.4,9.5-91.3-6.7-2.5-15.8-2.8-21.6-5.4s-2.3-2.7-2.9-3Z"/>
  <path class="st0" d="M197.1,446.4c-18.5,4.1-37.9,5.9-56.2,10.9-12.6,3.4-31.7,9.8-31.1,25.5s6,20.6.3,22-6.6-10.4-7.2-14.1c-4.6-28.3,16.7-36.4,40.2-42.1,22-5.3,45.2-7.4,66.8-14.2,3.7-1.2,14.7-6.9,16.4-6.9s3.4.9,3.8,2.6c1.6,8.7-21.8,11.2-24.9,14s.3,4.5,1.4,5.9c16.1,22.1,84.3,20.5,100.2-1.5,7.2-10,1.2-19.4,3.3-23.7s2.1-1.8,3.1-2.3c3.3-.7,5.1,4.8,5.4,7.3,5.2,38-48.3,46.9-75.9,43.6-15.5-1.9-43-8.8-45.5-27Z"/>
  <path class="st0" d="M92.4,368.5c-29.5-23.8-25.2-79.4-32.3-113.9-.9-4.2-5.7-15.6-3.3-18.3,6.4-7.3,10.6,14.4,11.3,17.6,6,30.6,4.3,83.7,26.1,107.1s24.9,12.7,35.1,13.5c24.6,2,47.7.9,72-.9,5.3-.4,10.7.2,16-.8,8.9,6.5,14,17.9,16.6,28.5,1,4.2,3.9,20.7.3,23.2-8.7,2.3-5.8-6.3-6.5-11.6-1.4-11-4.7-24.1-13.1-31.9-22.3,2.2-44.8,3.5-67.3,2.6-20.3-.8-38.5-1.9-54.7-15Z"/>
  <path class="st0" d="M369.6,205.4c3.5-1,4.9,2.2,5.4,5.1,1.3,42,32.3,113.4-13.5,139.9-18.2,10.5-28.9,11.5-48.5,15.4-12,2.4-23.7,6.2-35.8,8.3-2.2,2-2.1,18.9-1.8,22.5.6,5.7,5,14.1,4.6,18.9s-5.1,5.3-7.3,1c-4.5-8.7-6.2-26.3-5.2-36,1.9-18.7,8.5-13.3,22.6-16.1,17.4-3.4,40-8.1,55.9-15.2,6.5-2.9,18.4-8.7,23.1-13.8,21.2-23.4-.6-92.5-1.8-122.4-.1-2.9-.7-6.2,2.4-7.5Z"/>
  <path class="st0" d="M283,291.3c.2.4,1.5.3,1.4.8-1.9,5.1-5.5,4.7-8.7,6.6-5.3,3.1-10.3,6.8-15.9,9.3-20.8,9.6-46.2,13.6-69,12.4,3,22.7-38.1,33.9-45.6,11.9s2.9-21.2,12.2-24.3c10-3.2,24.3,3.4,34.9,4.2,21.8,1.7,50.2-3.8,69.4-14.2,3.4-1.8,15.1-10.5,17.1-10.8,3.1-.5,3.1,2.1,4.2,4.1ZM171,317.7c-8.7-8.7-23.5,4-17.5,13.5,8.1,12.8,34.1-1.4,28.8-9s-8.6,3.9-10.7,4.8c-7.6,3.2-7.6-8.1-.6-9.3Z"/>
  <path class="st0" d="M372.4,403.5c26.9-1.8,37.2,17.9,42.2,41,1,4.5,4,17.2,2.3,20.7s-6.1,2.8-7-.7c-3.3-23.1-7.2-55.1-37.6-53-23.9,1.7-55.9,8.4-79.3,14.3-5.5,1.4-16.1,7.4-12.2-4.1,11.1-3.8,22.5-6.8,34-9.2,17.2-3.5,40.4-7.9,57.6-9Z"/>
  <path class="st0" d="M71.4,155.5c-1.9-1.9-.5-5.4,1.8-6.3,23.3-8.3,47.2-15.7,72.2-16.9,2.9-.1,10.3-1,11.1,2.4.2,2.1-.9,4.3-3,4.8-18,2.5-35.9,3.4-53.3,8.8-7.2,2.2-16,7.1-23.4,8.2s-4.1.3-5.4-.9Z"/>
  <path class="st0" d="M233.3,250.1c-1.3-6.5,4.1-10.2-.1-16.5-6.7-10.1-30.1-3.9-29.7,9s7,9.8,7.3,12.7c.4,4.3-2.7,5.1-6.3,3.6s-5.2-5.2-6-6.6c-14.6-24.4,27.1-43.6,41.5-22.6,3.7,5.4,3.8,9.9,1.7,15.9-1.7,4.6-2.9,7.2-8.2,4.6Z"/>
  <path class="st0" d="M312.1,108.2c1.9,1.7,1.5,5.7-1.3,6.8-4.2,1.5-13.1,1.3-18.4,2.3-11.5,2.1-23.1,5.1-34,9.2s-20.2,11.5-22.4,5.3,0-4.3,1.7-5.2c10.3-3.4,19.4-8.4,29.9-11.5,7.9-2.4,17.4-4.7,25.6-5.9s16.8-2.7,19-.8Z"/>
  <path class="st0" d="M93.5,31.8c11.9-1.2,32.8-.3,44.7,1.6,4.1.7,6,4.8,2.8,7.2s-21.5-.9-26.1-1c-8.7-.3-19-.5-27.5,1.4s-16.2,7.1-13.3-2.5,15.6-6.3,19.5-6.7Z"/>
  <path class="st0" d="M385.8,162.2l3,.3c4,6,5.3,16.9,0,22.5-4,4.3-30.4,14.8-35.5,14s-4.7-5.1-1.8-7.1c7.2-2.8,27.1-6.6,31.5-12.6,3.9-5.3-3.3-12.9,2.8-17Z"/>
  <path class="st0" d="M122.2,10.2c11.6-1.7,33.6,7.9,42.1,15.9s8.3,8,2.5,9.8-10.9-6.6-15-9-17.1-8.3-23.6-8.8c-3.9-.3-12.2,2.5-12.2-3.2s3.1-4.3,6.2-4.7Z"/>
  <path class="st0" d="M47.3,223.2c-6.9-.9-16.4-6.3-17.9-13.7s2.9-24.5,9.3-17.4-4.4,14.2.3,19.1,21.6,1.5,25,6.1-.4,5.9-1.4,5.9c-4.6,0-11,.6-15.3,0Z"/>
  <path class="st0" d="M347.2,123.4c6-1.7,10.2,15.1,11.5,19.7,1.7,5.7,5.6,19.7,5.6,24.9,0,5.1-5.5,6.7-7.9.8s-4-19.6-6.5-27.7c-1.2-3.9-8.4-16.1-2.7-17.7Z"/>
  <path class="st0" d="M59.4,200.3c-.9,3.1-5.6,3.2-7.3-.8s-1.4-31.9,1.6-33.9l2.4-.6c2.6.3,4.2,3.4,4.2,5.7s-.9,2.3-.9,2.6c0,5.6,1.1,23,0,27Z"/>
  <path class="st0" d="M129.9,205c-1.6-1.7-2.1-10.5.7-11.9l3-.3c4.5,2.8,4.5,9.7.6,13-1.2.7-3.4.2-4.3-.7Z"/>
  <path class="st0" d="M293.2,185.7c1.4,2.3,2,7-.2,8.9l-2.6.7c-3.4-1.8-4.2-8.5-.6-10.3l3.4.7Z"/>
  <path class="st0" d="M174.6,54c5.1.7,20.4,4.9,12,11.6-3.1.8-6.5-2.2-9.3-3-47.7-13.9-105.1,6.3-140.4,39.6C-1.7,138.6,10.2,230.7,14.5,279.5c5.6,64.6,13.6,129.2,22.6,193.4,1.7,12.5,6.9,31.9,7.1,43.3s-4.3,6.6-7.2,2.7c-7.8-44.5-14.3-89.4-19.6-134.3-4.2-35.2-7.9-70.8-10.9-106.1-4-47.2-11.5-111.9,7-155.9,16.9-40.1,85.5-73,127.5-73.2l24.8,2.3C180.2,18.9,218.8,4.9,252.5,1.8c28.8-2.6,69.6,4.2,94.9,18.4,44.1,24.7,64,93.5,74.2,140,21.5,97.6,38.5,196.5,58.3,294.5,1.1,5.4,6.2,20.2,5,24.4-.3.9-.9,1.5-1.6,2l-3,.3c-1.1-.3-2.2-1.8-2.6-2.8-1.9-4.2-4.5-17.8-5.7-23.1-21.1-97.7-36.6-196.9-58.3-294.5-9.3-41.7-28.8-109.4-67.5-132.3-34.4-20.3-91.2-25.1-128.6-11.3-16.7,6.2-38,18.4-43,36.7Z"/>
  <path class="st0" d="M238.5,188.6c3.2-28.2,28.2-55.7,58-53.5,3,.2,8.3,2.2,10.8,1.8s2.4-2.9,6.3-2.8c11.3.3,23.1,14.6,27.4,24,18.6,40.6,2.7,91.8-46.3,95.6-23,1.8-48.9-20.3-54.3-42.2-6.4,4.2-11.4-4-17.2-5.7s-9.7-.7-14.2.8-6.5,4.9-10.8,2.2c-.8,49.8-53.3,61.6-93.2,48.6-56-18.2-41.8-90.8,8.4-108.7,5.9-2.1,14.7-4.4,20.8-2.3s2.8,4,4.4,4.8c3.8,2,17.7,3.5,23.6,5.8,21.4,8.3,30.4,23.7,35.1,45,.2,1,.4,1.6,1.3,2.3,6.4-7.4,19.2-8.7,28.1-5.6s7.7,4.9,12,6.5c.4-5.3-.6-11.4,0-16.6ZM316.1,144.2c-.3.2-.4,1.7-1,2.1-2.4,1.6-14.9-2.9-19.3-3.2-35.8-2.2-59.7,42.7-45.2,73.1,14.7,31.1,49.1,38.2,75.3,15.6s17.7-53.3,6.8-73.4c-1.7-3.1-12.6-16.6-16.5-14.2ZM130.3,154.1c-1.1-.6-5-.3-6.5-.1-32.1,4-59.4,45.9-41.8,75.8,12.7,21.5,40,25.9,63.2,24,55.4-4.5,60.1-72.4,9.5-91.3-6.7-2.5-15.8-2.8-21.6-5.4s-2.3-2.7-2.9-3Z"/>
  <path class="st0" d="M197.1,446.4c-18.5,4.1-37.9,5.9-56.2,10.9-12.6,3.4-31.7,9.8-31.1,25.5s6,20.6.3,22-6.6-10.4-7.2-14.1c-4.6-28.3,16.7-36.4,40.2-42.1,22-5.3,45.2-7.4,66.8-14.2,3.7-1.2,14.7-6.9,16.4-6.9s3.4.9,3.8,2.6c1.6,8.7-21.8,11.2-24.9,14s.3,4.5,1.4,5.9c16.1,22.1,84.3,20.5,100.2-1.5,7.2-10,1.2-19.4,3.3-23.7s2.1-1.8,3.1-2.3c3.3-.7,5.1,4.8,5.4,7.3,5.2,38-48.3,46.9-75.9,43.6-15.5-1.9-43-8.8-45.5-27Z"/>
  <path class="st0" d="M92.4,368.5c-29.5-23.8-25.2-79.4-32.3-113.9-.9-4.2-5.7-15.6-3.3-18.3,6.4-7.3,10.6,14.4,11.3,17.6,6,30.6,4.3,83.7,26.1,107.1s24.9,12.7,35.1,13.5c24.6,2,47.7.9,72-.9,5.3-.4,10.7.2,16-.8,8.9,6.5,14,17.9,16.6,28.5,1,4.2,3.9,20.7.3,23.2-8.7,2.3-5.8-6.3-6.5-11.6-1.4-11-4.7-24.1-13.1-31.9-22.3,2.2-44.8,3.5-67.3,2.6-20.3-.8-38.5-1.9-54.7-15Z"/>
  <path class="st0" d="M369.6,205.4c3.5-1,4.9,2.2,5.4,5.1,1.3,42,32.3,113.4-13.5,139.9-18.2,10.5-28.9,11.5-48.5,15.4-12,2.4-23.7,6.2-35.8,8.3-2.2,2-2.1,18.9-1.8,22.5.6,5.7,5,14.1,4.6,18.9s-5.1,5.3-7.3,1c-4.5-8.7-6.2-26.3-5.2-36,1.9-18.7,8.5-13.3,22.6-16.1,17.4-3.4,40-8.1,55.9-15.2,6.5-2.9,18.4-8.7,23.1-13.8,21.2-23.4-.6-92.5-1.8-122.4-.1-2.9-.7-6.2,2.4-7.5Z"/>
  <path class="st0" d="M283,291.3c.2.4,1.5.3,1.4.8-1.9,5.1-5.5,4.7-8.7,6.6-5.3,3.1-10.3,6.8-15.9,9.3-20.8,9.6-46.2,13.6-69,12.4,3,22.7-38.1,33.9-45.6,11.9s2.9-21.2,12.2-24.3c10-3.2,24.3,3.4,34.9,4.2,21.8,1.7,50.2-3.8,69.4-14.2,3.4-1.8,15.1-10.5,17.1-10.8,3.1-.5,3.1,2.1,4.2,4.1ZM171,317.7c-8.7-8.7-23.5,4-17.5,13.5,8.1,12.8,34.1-1.4,28.8-9s-8.6,3.9-10.7,4.8c-7.6,3.2-7.6-8.1-.6-9.3Z"/>
  <path class="st0" d="M372.4,403.5c26.9-1.8,37.2,17.9,42.2,41,1,4.5,4,17.2,2.3,20.7s-6.1,2.8-7-.7c-3.3-23.1-7.2-55.1-37.6-53-23.9,1.7-55.9,8.4-79.3,14.3-5.5,1.4-16.1,7.4-12.2-4.1,11.1-3.8,22.5-6.8,34-9.2,17.2-3.5,40.4-7.9,57.6-9Z"/>
  <path class="st0" d="M71.4,155.5c-1.9-1.9-.5-5.4,1.8-6.3,23.3-8.3,47.2-15.7,72.2-16.9,2.9-.1,10.3-1,11.1,2.4.2,2.1-.9,4.3-3,4.8-18,2.5-35.9,3.4-53.3,8.8-7.2,2.2-16,7.1-23.4,8.2s-4.1.3-5.4-.9Z"/>
  <path class="st0" d="M233.3,250.1c-1.3-6.5,4.1-10.2-.1-16.5-6.7-10.1-30.1-3.9-29.7,9s7,9.8,7.3,12.7c.4,4.3-2.7,5.1-6.3,3.6s-5.2-5.2-6-6.6c-14.6-24.4,27.1-43.6,41.5-22.6,3.7,5.4,3.8,9.9,1.7,15.9-1.7,4.6-2.9,7.2-8.2,4.6Z"/>
  <path class="st0" d="M312.1,108.2c1.9,1.7,1.5,5.7-1.3,6.8-4.2,1.5-13.1,1.3-18.4,2.3-11.5,2.1-23.1,5.1-34,9.2s-20.2,11.5-22.4,5.3,0-4.3,1.7-5.2c10.3-3.4,19.4-8.4,29.9-11.5,7.9-2.4,17.4-4.7,25.6-5.9s16.8-2.7,19-.8Z"/>
  <path class="st0" d="M93.5,31.8c11.9-1.2,32.8-.3,44.7,1.6,4.1.7,6,4.8,2.8,7.2s-21.5-.9-26.1-1c-8.7-.3-19-.5-27.5,1.4s-16.2,7.1-13.3-2.5,15.6-6.3,19.5-6.7Z"/>
  <path class="st0" d="M385.8,162.2l3,.3c4,6,5.3,16.9,0,22.5-4,4.3-30.4,14.8-35.5,14s-4.7-5.1-1.8-7.1c7.2-2.8,27.1-6.6,31.5-12.6,3.9-5.3-3.3-12.9,2.8-17Z"/>
  <path class="st0" d="M122.2,10.2c11.6-1.7,33.6,7.9,42.1,15.9s8.3,8,2.5,9.8-10.9-6.6-15-9-17.1-8.3-23.6-8.8c-3.9-.3-12.2,2.5-12.2-3.2s3.1-4.3,6.2-4.7Z"/>
  <path class="st0" d="M47.3,223.2c-6.9-.9-16.4-6.3-17.9-13.7s2.9-24.5,9.3-17.4-4.4,14.2.3,19.1,21.6,1.5,25,6.1-.4,5.9-1.4,5.9c-4.6,0-11,.6-15.3,0Z"/>
  <path class="st0" d="M347.2,123.4c6-1.7,10.2,15.1,11.5,19.7,1.7,5.7,5.6,19.7,5.6,24.9,0,5.1-5.5,6.7-7.9.8s-4-19.6-6.5-27.7c-1.2-3.9-8.4-16.1-2.7-17.7Z"/>
  <path class="st0" d="M59.4,200.3c-.9,3.1-5.6,3.2-7.3-.8s-1.4-31.9,1.6-33.9l2.4-.6c2.6.3,4.2,3.4,4.2,5.7s-.9,2.3-.9,2.6c0,5.6,1.1,23,0,27Z"/>
  <path class="st0" d="M129.9,205c-1.6-1.7-2.1-10.5.7-11.9l3-.3c4.5,2.8,4.5,9.7.6,13-1.2.7-3.4.2-4.3-.7Z"/>
  <path class="st0" d="M293.2,185.7c1.4,2.3,2,7-.2,8.9l-2.6.7c-3.4-1.8-4.2-8.5-.6-10.3l3.4.7Z"/>
</svg>