<?xml version="1.0" encoding="UTF-8"?>
<svg id="_图层_2" xmlns="http://www.w3.org/2000/svg" version="1.1" viewBox="0 0 501.7 264.3">
  <!-- Generator: Adobe Illustrator 29.5.0, SVG Export Plug-In . SVG Version: 2.1.0 Build 137)  -->
  <defs>
    <style>
      .st0 {
        fill: #363636;
      }
    </style>
  </defs>
  <path class="st0" d="M406.6,23.7c9.6-.2,18.2-2.8,27.7-.3,15.8,4.1,22,21.4,25.7,35.5l12.1-1.3c1.8-8.1,4.2-14.5,13.8-14s16.1,16.8,5,22c8.2,10,13.6,27.9,3.1,38.1-14.4,14.1-38.8,12.9-57.1,18.4-1.4,1.2-.7,4.6-1.3,6.8-5,16.3-22.1,32.3-39.9,31.5-6.6,23.2-36.9,22-55.8,29.5l7.8,6.1c7.6-6.4,10.3-10.1,21.3-8.8,23.4,2.9,3.9,24.6-4.9,32.7s-9.1,7.8-11.4,8.3c-16.1,3.7-32.8-18.4-38.5-31.3l-15.7,4.1,11.6,5.4c9.1,5.6,10,17-2.3,18.3-7.4.8-33.1-6.3-39.6-10.5s-3-3.4-5.2-4.8c-15.3,1.3-29.7,9.7-44.9,10.8-4.8.4-11.4,1.6-12-4.3s8.6-3.3,12-3.8c22.9-3.3,51.4-13.2,74.5-18.9,4-1,12.3-1.5,15.2-2.8s.1-3.6-.2-5.7c-1-5.2,3.8-7.6,7.1-3.4,5.9,7.6,9.7,19.5,16.3,27.7,4,4.9,13.8,14.8,20.6,11.7s12.4-12.1,13.9-13.9,7.7-9.7,6.7-10.8c-4.6-.7-8.5-2.4-12.9.1-5.6,3.2-5.8,14.4-10.2,15-6.6.8-3.4-5.3-4.2-7s-9.4-6.6-11.3-8.5c-3-3-15.9-19.8-8.3-21.9,4.9-1.4,6.6,6.5,8.5,9.6h1.1c5-1.3,9.9-3.4,14.9-4.8,12.7-3.6,29.2-4.9,36.8-16.6-23.3,1.9-54.5-.5-65.8-24.5-7.3-15.7-3.6-28.8,1.1-44.6-26.5,6.2-53.5,11.1-80,17.5-18.3,4.4-36.1,10.4-54.2,14.9s-78.3,14-93.4,24.3c-8,5.4-4.1,10.3-17.1,8.7s-23-13.9-30.2-22.8-14.9-24-20.7-27.7c-11.5-7.3-19.2,3.9-15,15.9,8.9,25.6,37.7,36.8,62.3,40.9s6.9-.7,10,2.1c.7,6.3-.3,12.8.2,19.1,1.2,14.8,10.1,44.6,27.6,46.9s47.2-6.8,48.7-8.7c-2.7-3.9-3.4-11.4,3-10.6,2.6.7,7.3,16.2,9,19.8s9.3,18.9,12,20.3,1.3.8,2.4.7c6.1,0,30.5-11.9,34.4-16.7s-1.1-8.4-6.8-6.8c-6.8,1.8-10.4,10.7-14.4,12.6-7.4,3.4-4.2-7-4.9-8.5s-8.2-9.2-10.2-12.3-8-12-4-14.7c6.8-3.8,6.9,7.9,10.2,9.5s8.1-2.5,10.9.8-1.8,5.6-4.6,5.9c3.8,9.8,7.1,2.2,12.9-.2,10-4.2,21.6.3,20.3,12.2-.9,8.2-17.7,17-24.8,20.2-6.3,2.8-17.3,7.9-23.6,5-12.2-5.6-12.4-18.9-19.1-29l-11.6,1.7c3.1,4.5,10,8.3,9.6,14.7-1,17.5-36.7,3.9-43.8-4.4s-.7-2.7-1-3c-.8-.6-12.7-1.4-18.6-6.1-15-11.8-22.9-43.8-21.7-62.2-24.4-3.4-51-12.7-65.4-33.8s-14.2-28.6-.6-38c20.8-14.4,34.3,18.4,44.5,30.9,4.5,5.5,12.2,14.5,18.9,17.1,11.7,4.5,10.6-2,18.2-6.9,16.4-10.6,70.3-18.3,92.1-23.7,15.5-3.8,30.6-9.3,46.1-13.2,31.3-7.8,63.2-13.1,94.4-21.2,6.4-18.9,13.9-36.1,24.2-53.2,5.2-8.5,10.1-18,19-23.2s20.4-9.5,22-1-5.3,3.8-8.2,4c-14.3,1.1-26.2,23.7-32.3,35.1s-25.9,60-24,77.2c3.8,34.7,50.7,34.3,76.3,28.8,16.2-3.4,26.5-17,26.9-33.2.5-17.7-19-75.8-28.6-91.7-1.9-3.1-9.9-11.5-10.1-13.3s1.9-4.5,3.3-4.7c3-.6,13.2,11.4,13.9,15ZM432.5,31h-19.3c-.4,0-2.5.8-2.1,2.1,1.3,5,5.7,12,7.7,17.4,7.6,20.4,12.8,41.8,17.8,63,13.8-3.5,29.4-4.1,42.6-9.5s14.2-10.8,11.1-22.7c-3.6-13.5-8.9-16.9-23.1-15.4-4.4.4-15.6,5-18.7,8s-6.5,11.4-11.7,10.7c-8.6-1.3.9-9.3,1-10.3s-4-9-4.6-11.3c-3.2-10.9-5.4-21.3-.7-32.1ZM446,44.5c1.1-1-4.8-8.8-7.2-7.2-3.3,3.7,2.3,29,5,29.6l8.2-4.9c-.7-1.2-1.2-6.2-1.7-6.6s-3.3,0-5.2-1.5-4.7-6.6-3.3-8.5l4.1-.8ZM487.3,61.5c6.3-13-8.6-12.8-6.2-4.2.6,2.1,4.4,3.2,6.2,4.2ZM289.6,202.4c-.3-.2-6.4,1.6-7.4,2s-2,1.9-3.1,2.3c-2.3.7-6.4-1.2-5.7,2,11.5,3.1,22.5,9,35,9-1.9-9.9-13.5-5.8-20.5-8.2-.7-2.8,0-4.9,1.7-7ZM142.1,236.7l-17.7,2.9c7.2,6.7,18.3,9.3,27.8,9.4.2-6.1-7.4-7.7-10.1-12.3Z"/>
  <path class="st0" d="M334.8,129.9c3.4-3.4,9.3,3.3,13,5,14.9,6.7,41.6,5.8,56.6-.5,3.9-1.6,9.4-7.9,12.5-5.6,6.1,4.6-4.5,10.8-8.3,12.5-17.9,8.1-48.6,9-66.2,0s-11.8-7.1-7.6-11.3Z"/>
</svg>