<?xml version="1.0" encoding="UTF-8"?>
<svg id="_图层_2-2" data-name="图层 2" xmlns="http://www.w3.org/2000/svg" xmlns:xlink="http://www.w3.org/1999/xlink" viewBox="0 0 729.46 398.5">
  <defs>
    <style>
      .cls-1 {
        fill: none;
      }

      .cls-2 {
        font-family: FZLTTHJW--GB1-0, FZLanTingHeiS-H-GB;
        font-size: 32.3px;
        letter-spacing: .08em;
      }

      .cls-3 {
        font-size: 14.07px;
      }

      .cls-3, .cls-4 {
        font-family: CourierNewPS-BoldMT, 'Courier New';
        font-weight: 700;
      }

      .cls-5 {
        font-family: FZZH-RSTJW--GB1-0, FZZH-RSTJW;
        font-size: 23.23px;
      }

      .cls-6 {
        fill: gray;
      }

      .cls-7 {
        fill: #fff;
      }

      .cls-4 {
        font-size: 21.24px;
      }

      .cls-8 {
        fill: #f2ff00;
      }

      .cls-9 {
        clip-path: url(#clippath);
      }
    </style>
    <clipPath id="clippath">
      <rect class="cls-1" x="32.77" y="36.02" width="216.79" height="273.03" rx="11" ry="11"/>
    </clipPath>
  </defs>
  <g>
    <path class="cls-7" d="M19.44,3h690.59c9.07,0,16.43,7.36,16.43,16.43v359.63c0,9.07-7.36,16.43-16.43,16.43H19.44c-9.07,0-16.44-7.36-16.44-16.44V19.44C3,10.36,10.36,3,19.44,3Z"/>
    <path d="M710.02,6c7.41,0,13.44,6.03,13.44,13.44v359.63c0,7.41-6.03,13.44-13.44,13.44H19.44c-7.41,0-13.44-6.03-13.44-13.44V19.44c0-7.41,6.03-13.44,13.44-13.44h690.59M710.02,0H19.44C8.7,0,0,8.7,0,19.44v359.63C0,389.8,8.7,398.5,19.44,398.5h690.59c10.73,0,19.44-8.7,19.44-19.44V19.44C729.46,8.7,720.76,0,710.02,0h0Z"/>
  </g>
  <g class="cls-9">
    <g>
      <path d="M214.38,189.49l-117.99,17.59c-2.11.3-4.07-1.14-4.4-3.25l-2.12-13.49c-.54-3.42-4.95-4.49-6.99-1.69l-35.93,49.3c-1.27,1.74-.88,4.17.85,5.44l49.3,35.93c2.8,2.04,6.67-.32,6.14-3.75l-2.1-13.39c-.34-2.14,1.14-4.15,3.29-4.45l117.25-17.48c2.13-.31,3.6-2.28,3.3-4.41l-6.2-43.05c-.31-2.13-2.28-3.6-4.41-3.3Z"/>
      <g>
        <path class="cls-6" d="M119.97,218.91c4.13,11.63,13.32,13.63,17.94,8.01,4.62-5.62.85-15.24.85-15.24,0,0,33.34-7.61,40.41,0,7.07,7.61.46,20.21.46,20.21,0,0,7.83,8.88,19.35,1.4,5.24-3.4,7.24-14.76,0-32.05l-72.51-2.39-6.51,20.04h0Z"/>
        <g>
          <g>
            <path class="cls-7" d="M108.95,107.79c4.83,7.11,10.54,13.59,16.92,19.35.35.32.48.68.48,1.03,3.15-1.49,6.37-2.77,9.65-3.88-.29-.25-.46-.62-.42-1.13.71-9.28,1.37-18.67.21-27.94-.5-4.03-1.42-8.04-2.81-11.85-.7-1.9-1.52-3.77-2.51-5.54-1.02-1.82-2.09-2.69-4.25-2.54-7.58.52-15.8,4.12-19.93,10.73-1.97,3.15-3.08,6.95-2.56,10.68.56,4.12,2.95,7.74,5.24,11.09h-.02Z"/>
            <path class="cls-7" d="M192.33,187.81c11.49-13.86,25.18-36.06,12.03-53.21-5.33-6.95-13.74-11.17-22.23-12.79-11.39-2.15-23.11-.05-34.27,2.35-9.19,1.98-18.2,5.21-26.31,10.02-9.99,5.94-18.72,14.91-20.32,26.87-.88,6.67.05,14.54,3.77,20.26,4.78,7.38,13.29,11.76,21.53,14.07.09.03.17.06.26.09.5.24,1.08.31,1.65.33,1.35.05,2.69.09,4.03.14,1.99.07,1.99,3.16,0,3.09l-15.74-.57c-1.02-.04-2.42-.33-3.36.16-.82.43-1.26,1.62-1.59,2.41-.94,2.15-1.64,4.45-1.98,6.77-1.02,6.88,2.12,15.47,9.78,16.82,3.06.53,6.31-.78,8.31-3.11,2.43-2.82,1.55-6.07,1.17-9.42-.42-3.69.84-6.85,4.45-8.26,1.84-.72,3.89-.96,5.83-1.28,2.27-.37,4.56-.69,6.85-.95,9.12-1.04,18.33-1.11,27.47-.27.51.05,1.1.25,1.34.76,3.27,7.14,4.93,14.92,4.78,22.74-.04,2.09,1.55,3.86,3.64,3.96,3.13.15,6.26-.24,8.82-2.19,6.51-4.96,5.77-14.28,3.55-21.16-1.24-3.87-2.91-7.51-4.65-11.15-.94-1.98-.66-4.31.74-5.99.14-.17.29-.35.43-.52v.02Z"/>
            <path class="cls-7" d="M214.42,78.52c-.78-3.66-3.22-7.12-6.83-8.44-3.6-1.32-7.31,0-10.22,2.25-3.14,2.45-5.44,5.8-7.36,9.24-2.08,3.71-3.67,7.67-4.79,11.78-2.22,8.14-2.5,16.76-.73,25.01.06.29.04.56-.03.79,2.15.49,4.27,1.13,6.35,1.95.38.15.75.31,1.12.47,4.25-5.84,8.23-11.87,12.19-17.92,2.59-3.96,5.35-7.88,7.64-12.03,2.19-3.96,3.62-8.59,2.65-13.14v.02Z"/>
          </g>
          <path d="M135.7,148.35c-.28,5.24.27,10.5,1.57,15.59.49,1.92,3.48,1.11,2.97-.82-1.24-4.83-1.73-9.78-1.46-14.76.1-1.99-2.98-1.98-3.09,0h0Z"/>
          <path d="M170.78,146.26c-.45,5.38-.04,10.8,1.16,16.07.44,1.93,3.42,1.12,2.97-.82-1.14-5-1.48-10.13-1.05-15.25.07-.83-.76-1.54-1.54-1.54-.9,0-1.47.71-1.54,1.54h0Z"/>
          <path d="M137.24,180.6c15.49,1.79,31.42-3.4,43.01-13.8,1.48-1.33-.71-3.51-2.18-2.18-11.03,9.89-26.14,14.59-40.83,12.89-1.97-.23-1.95,2.86,0,3.09h0Z"/>
          <path d="M167.98,177.13c2.52,2.39,5.35,4.88,8.93,5.32,3.31.41,6.59-1.37,8.17-4.3s1.05-6.5-1.13-9.06c-2.18-2.56-6.41-4.03-8.99-1.44-1.3,1.31-1.76,3.4-1.2,5.14.6,1.85,2.07,3.29,3.82,4.09.76.34,1.66.22,2.11-.56.39-.66.21-1.77-.56-2.11-1.55-.71-3.48-2.57-2.07-4.31.6-.73,1.72-.51,2.51-.23.9.33,1.71.96,2.28,1.71,1.23,1.62,1.45,3.73.39,5.49s-3.07,2.82-5.13,2.52c-2.76-.4-5.02-2.6-6.95-4.43-1.44-1.37-3.62.81-2.18,2.18h0v-.02Z"/>
          <g>
            <path d="M126.91,193.96c-7.81-2.29-15.87-6.23-20.5-13.22-3.57-5.39-4.5-12.84-3.7-19.18,1.38-11.1,9.28-19.58,18.43-25.28,7.39-4.6,15.64-7.81,24.07-9.89,16.72-4.12,36.79-7.37,51.79,3.33,8.85,6.31,12.54,16.5,10.5,27.11-2.14,11.19-9.17,20.56-15.86,29.48-2.39,3.18,2.97,6.26,5.33,3.12,11.94-15.91,25.49-38.42,11.19-57.34-13.32-17.62-37.1-17.17-56.67-13.35-22.01,4.3-50.34,15.27-54.63,40.37-1.35,7.9-.42,17.29,3.86,24.21,5.4,8.7,14.99,13.78,24.55,16.58,3.82,1.12,5.45-4.84,1.65-5.96h0Z"/>
            <path d="M132.43,194.48c-6.08-.22-13.33-1.63-19.31-.48-4.65.9-6.34,6.18-7.34,10.23-2.45,9.87,1.18,22.5,12.36,24.89,9.32,2,16.87-5.71,15.83-14.76-.11-.96-.73-2.69-.41-3.7.95-3.03,3.97-3.02,6.37-3.43,3.85-.65,7.72-1.1,11.6-1.38,7.38-.53,14.75-.41,22.12.23l-2.66-1.53c2.03,4.61,3.43,9.5,3.94,14.51.33,3.16-.3,6.7,1.19,9.64,2.6,5.13,8.84,5.6,13.84,4.21,16.45-4.57,12.17-24.53,7.46-35.99-1.49-3.62-7.46-2.04-5.96,1.65,3.43,8.33,9.43,26.98-4.96,28.76-6.43.79-5.09-6.48-5.73-10.93-.75-5.24-2.34-10.13-4.45-14.96-.45-1.02-1.66-1.44-2.66-1.53-10.4-.91-20.79-.69-31.14.73-7.37,1.02-15.69,2.07-15.04,11.37.32,4.59,1.19,9.45-4.6,11.02-5.29,1.42-10-3.37-11.28-8.12-.79-2.95-.55-6.08.14-9.02.8-3.4,1.15-5.57,4.64-5.79,5.25-.33,10.79.38,16.05.58,3.97.14,3.97-6.03,0-6.17h0Z"/>
            <path d="M126.92,126.1c-7.27-6.65-14.23-14.24-19.13-22.85-5.5-9.7-.93-19.57,8.97-23.92,1.94-.85,3.96-1.48,6.05-1.91,3.62-.75,5.3-.37,7.22,3.11,2.28,4.14,3.37,9.31,4.04,13.94,1.38,9.51.63,19.22-.09,28.74-.3,3.96,5.87,3.94,6.17,0,.97-12.84,1.87-26.22-2-38.7-1.4-4.51-3.47-11.43-8.31-13.31-4.58-1.77-11.32.65-15.48,2.45-9.79,4.25-17.49,14.42-14.92,25.49,1.38,5.93,5.34,11.12,8.95,15.88,4.24,5.59,8.98,10.71,14.16,15.44,2.93,2.67,7.3-1.68,4.36-4.36h0Z"/>
            <path d="M185.94,118.03c-1.82-9.02-1.32-18.26,1.57-27.01,2.33-7.04,7.45-18.55,15.83-19.71,5.7-.79,9.59,4.48,9.78,9.71.17,4.75-2.07,8.94-4.5,12.87-5.04,8.16-10.48,16.09-15.87,24.02-2.24,3.29,3.11,6.39,5.33,3.12,3.97-5.84,7.89-11.72,11.75-17.64,3.38-5.2,7.42-10.49,8.84-16.65,2.19-9.44-2.69-21.32-13.62-21.73-10.94-.41-17.77,10.63-21.51,19.21-4.89,11.22-5.98,23.48-3.57,35.44.78,3.89,6.74,2.24,5.96-1.65h.01Z"/>
          </g>
        </g>
      </g>
    </g>
  </g>
  <polygon class="cls-8" points="313.61 226.68 259.19 226.68 340.82 197.07 395.24 197.07 313.61 226.68"/>
  <polygon class="cls-8" points="313.61 330.27 259.19 330.27 340.82 300.66 395.24 300.66 313.61 330.27"/>
  <polygon class="cls-8" points="313.61 162.04 259.19 162.04 340.82 132.43 395.24 132.43 313.61 162.04"/>
  <polygon class="cls-8" points="438 82.28 299.86 82.28 507.07 34.96 645.21 34.96 438 82.28"/>
  <text class="cls-4" transform="translate(302.18 153.9)"><tspan x="0" y="0">NAME</tspan></text>
  <text class="cls-4" transform="translate(302.18 216.53)"><tspan x="0" y="0">TYPE</tspan></text>
  <text class="cls-3" transform="translate(166.16 351.33)"><tspan x="0" y="0">NO.8888810</tspan></text>
  <text class="cls-5" transform="translate(399.46 151.59)"><tspan x="0" y="0">Chef</tspan></text>
  <text class="cls-2" transform="translate(286.16 67.36)"><tspan x="0" y="0">CHARACTER CARD</tspan></text>
  <text class="cls-4" transform="translate(301.97 321.14)"><tspan x="0" y="0">BUFF</tspan></text>
  <text class="cls-5" transform="translate(398.67 211.2)"><tspan x="0" y="0" xml:space="preserve"> ISFJ。耐心细致，擅长把零</tspan><tspan x="0" y="27.88">散材料组合成有用道具，重视</tspan><tspan x="0" y="55.76">手感、顺序和细节。</tspan></text>
  <text class="cls-5" transform="translate(398.67 321.52)"><tspan x="0" y="0">道具组合成功率 +25%，制作</tspan><tspan x="0" y="27.88">类任务稳定度 +20%。</tspan></text>
  <path d="M242.1,310.07H40.22c-4.67,0-8.47-3.8-8.47-8.47V43.48c0-4.67,3.8-8.47,8.47-8.47h201.89c4.67,0,8.47,3.8,8.47,8.47v258.12c0,4.67-3.8,8.47-8.47,8.47h-.01ZM40.22,37.04c-3.54,0-6.43,2.89-6.43,6.43v258.12c0,3.54,2.89,6.43,6.43,6.43h201.89c3.54,0,6.43-2.89,6.43-6.43V43.48c0-3.54-2.89-6.43-6.43-6.43,0,0-201.89,0-201.89,0Z"/>
  <g>
    <rect x="32.77" y="336.14" width="3.72" height="21.71"/>
    <rect x="51.91" y="336.14" width="3.72" height="21.71"/>
    <rect x="71.04" y="336.14" width="3.72" height="21.71"/>
    <rect x="90.18" y="336.14" width="3.72" height="21.71"/>
    <rect x="109.33" y="336.14" width="3.72" height="21.71"/>
    <rect x="134.86" y="336.14" width="3.72" height="21.71"/>
    <rect x="147.6" y="336.14" width="3.72" height="21.71"/>
    <rect x="38.62" y="336.14" width="6.91" height="21.71"/>
    <rect x="57.75" y="336.14" width="6.91" height="21.71"/>
    <rect x="76.89" y="336.14" width="6.91" height="21.71"/>
    <rect x="96.03" y="336.14" width="6.91" height="21.71"/>
    <rect x="119.09" y="336.14" width="4.83" height="21.71"/>
    <rect x="47.65" y="336.14" width="2.13" height="21.71"/>
    <rect x="66.79" y="336.14" width="2.13" height="21.71"/>
    <rect x="85.93" y="336.14" width="2.13" height="21.71"/>
    <rect x="105.06" y="336.14" width="2.13" height="21.71"/>
    <rect x="125.53" y="336.14" width=".81" height="21.71"/>
    <rect x="143.35" y="336.14" width="2.13" height="21.71"/>
  </g>
</svg>