<?xml version="1.0" encoding="UTF-8"?>
<svg xmlns="http://www.w3.org/2000/svg" xmlns:xlink="http://www.w3.org/1999/xlink" viewBox="0 0 1920 1080">
  <defs>
    <style>
      .cls-1 {
        fill: #070707;
      }

      .cls-2 {
        fill: url(#_未命名的渐变_29-5);
      }

      .cls-3 {
        fill: url(#_未命名的渐变_29-6);
      }

      .cls-4 {
        fill: url(#_未命名的渐变_29-3);
      }

      .cls-5 {
        fill: url(#_未命名的渐变_29-4);
      }

      .cls-6 {
        fill: url(#_未命名的渐变_29-9);
      }

      .cls-7 {
        fill: url(#_未命名的渐变_29-7);
      }

      .cls-8 {
        fill: url(#_未命名的渐变_29-8);
      }

      .cls-9 {
        fill: url(#_未命名的渐变_29-2);
      }

      .cls-10 {
        fill: #c9bb00;
      }

      .cls-11 {
        fill: #f5f5f1;
      }

      .cls-12 {
        fill: url(#_未命名的渐变_179);
      }

      .cls-13 {
        fill: #abafb7;
      }

      .cls-14 {
        fill: #231815;
      }

      .cls-15 {
        fill: #a71f2a;
      }

      .cls-16 {
        fill: #fff;
      }

      .cls-17 {
        fill: #ecefef;
      }

      .cls-18 {
        fill: #d0d2d2;
      }

      .cls-19 {
        fill: #a31a00;
      }

      .cls-20 {
        fill: url(#_未命名的渐变_13);
      }

      .cls-21 {
        fill: url(#_未命名的渐变_29);
      }

      .cls-22 {
        fill: url(#_未命名的渐变_29-15);
      }

      .cls-23 {
        fill: url(#_未命名的渐变_29-14);
      }

      .cls-24 {
        fill: url(#_未命名的渐变_29-12);
      }

      .cls-25 {
        fill: url(#_未命名的渐变_29-11);
      }

      .cls-26 {
        fill: url(#_未命名的渐变_29-13);
      }

      .cls-27 {
        fill: url(#_未命名的渐变_29-10);
      }

      .cls-28 {
        fill: #7e8182;
      }

      .cls-29 {
        fill: #74a900;
      }
    </style>
    <linearGradient id="_未命名的渐变_13" data-name="未命名的渐变 13" x1="959.97" y1="504.12" x2="959.97" y2="1126.38" gradientUnits="userSpaceOnUse">
      <stop offset=".18" stop-color="#000" stop-opacity="0"/>
      <stop offset=".5" stop-color="#000" stop-opacity=".4"/>
      <stop offset=".62" stop-color="#000" stop-opacity="0"/>
    </linearGradient>
    <linearGradient id="_未命名的渐变_29" data-name="未命名的渐变 29" x1="707" y1="1013.07" x2="1274.12" y2="926.88" gradientUnits="userSpaceOnUse">
      <stop offset="0" stop-color="#ecefef"/>
      <stop offset=".5" stop-color="#abafb7"/>
      <stop offset="1" stop-color="#ecefef"/>
    </linearGradient>
    <linearGradient id="_未命名的渐变_29-2" data-name="未命名的渐变 29" x1="707.86" y1="1018.7" x2="1274.97" y2="932.52" xlink:href="#_未命名的渐变_29"/>
    <linearGradient id="_未命名的渐变_29-3" data-name="未命名的渐变 29" x1="708.24" y1="1021.22" x2="1275.35" y2="935.04" xlink:href="#_未命名的渐变_29"/>
    <linearGradient id="_未命名的渐变_29-4" data-name="未命名的渐变 29" x1="709.23" y1="1027.75" x2="1276.35" y2="941.56" xlink:href="#_未命名的渐变_29"/>
    <linearGradient id="_未命名的渐变_29-5" data-name="未命名的渐变 29" x1="710.06" y1="1033.24" x2="1277.18" y2="947.06" xlink:href="#_未命名的渐变_29"/>
    <linearGradient id="_未命名的渐变_29-6" data-name="未命名的渐变 29" x1="711.51" y1="1042.77" x2="1278.63" y2="956.58" xlink:href="#_未命名的渐变_29"/>
    <linearGradient id="_未命名的渐变_29-7" data-name="未命名的渐变 29" x1="712.53" y1="1049.46" x2="1279.65" y2="963.27" xlink:href="#_未命名的渐变_29"/>
    <linearGradient id="_未命名的渐变_29-8" data-name="未命名的渐变 29" x1="713.32" y1="1054.67" x2="1280.44" y2="968.48" xlink:href="#_未命名的渐变_29"/>
    <linearGradient id="_未命名的渐变_29-9" data-name="未命名的渐变 29" x1="714.27" y1="1060.88" x2="1281.38" y2="974.7" xlink:href="#_未命名的渐变_29"/>
    <linearGradient id="_未命名的渐变_29-10" data-name="未命名的渐变 29" x1="715.26" y1="1067.43" x2="1282.38" y2="981.24" xlink:href="#_未命名的渐变_29"/>
    <linearGradient id="_未命名的渐变_29-11" data-name="未命名的渐变 29" x1="715.87" y1="1071.45" x2="1282.99" y2="985.26" xlink:href="#_未命名的渐变_29"/>
    <linearGradient id="_未命名的渐变_29-12" data-name="未命名的渐变 29" x1="716.78" y1="1077.43" x2="1283.9" y2="991.24" xlink:href="#_未命名的渐变_29"/>
    <linearGradient id="_未命名的渐变_29-13" data-name="未命名的渐变 29" x1="717.38" y1="1081.38" x2="1284.5" y2="995.19" xlink:href="#_未命名的渐变_29"/>
    <linearGradient id="_未命名的渐变_29-14" data-name="未命名的渐变 29" x1="718.17" y1="1086.56" x2="1285.28" y2="1000.37" xlink:href="#_未命名的渐变_29"/>
    <linearGradient id="_未命名的渐变_29-15" data-name="未命名的渐变 29" x1="719.07" y1="1092.51" x2="1286.19" y2="1006.33" xlink:href="#_未命名的渐变_29"/>
    <linearGradient id="_未命名的渐变_179" data-name="未命名的渐变 179" x1="960" y1="944.25" x2="960" y2="865.7" gradientUnits="userSpaceOnUse">
      <stop offset=".36" stop-color="#070707"/>
      <stop offset=".45" stop-color="#040404" stop-opacity=".61"/>
      <stop offset=".74" stop-color="#000" stop-opacity="0"/>
    </linearGradient>
  </defs>
  <g id="_图层_3" data-name="图层 3">
    <g>
      <g>
        <rect class="cls-28" y="938.86" width="1920" height="141.14"/>
        <path class="cls-11" d="M1912.85,930.85l-90.77-109.94c-10.4-12.67-17.11-27.95-19.39-44.19l-82.97-734.82c-2.82-20.47-20.58-35.85-41.27-35.85H241.54c-20.69,0-38.34,15.38-41.27,35.85l-82.97,734.92c-2.27,16.25-8.99,31.52-19.39,44.08L7.15,930.85c-4.22,5.09-5.09,11.81-2.27,17.76,2.82,6.07,8.45,9.64,15.16,9.64h1879.92c6.61,0,12.24-3.57,15.16-9.64,2.82-5.96,1.95-12.67-2.27-17.76ZM1691.99,669.05H232.01V39.19h1459.98v629.86Z"/>
        <path class="cls-16" d="M1678.46,9.3c19.06,0,35.31,14.19,38.02,33.04l82.97,734.82h0v.11c2.38,16.79,9.32,32.6,20.15,45.71l90.77,109.94c3.36,4.12,4.12,9.42,1.84,14.3-2.27,4.87-6.82,7.69-12.13,7.69H20.04c-5.31,0-9.86-2.92-12.13-7.69-2.27-4.87-1.62-10.18,1.84-14.3l90.77-109.94c10.83-13.11,17.76-28.92,20.15-45.71h0v-.11L203.53,42.33c2.71-18.85,18.96-33.04,38.02-33.04h1436.91ZM1678.46,2.8H241.54c-22.42,0-41.38,16.46-44.41,38.67l-82.97,734.92c-2.17,15.6-8.67,30.33-18.74,42.46L4.66,928.79c-10.72,13-1.52,32.71,15.38,32.71h1879.92c16.9,0,26.1-19.71,15.38-32.71l-90.77-109.94c-10.07-12.13-16.57-26.86-18.74-42.46l-82.97-734.92c-3.14-22.2-22.1-38.67-44.41-38.67h0Z"/>
        <g>
          <path class="cls-13" d="M1770.85,703.6l-26.21-245.77v-.22l-26.32-247.29v-.22l-14.08-170.06c-1.3-10.18-9.97-17.76-20.15-17.76H236.78c-10.18,0-18.85,7.58-20.15,17.76l-9.75,127.92-35.2,326.57-22.53,209.05c-.76,5.42.87,10.61,3.79,14.73,3.68,4.98,9.64,8.23,16.36,8.23h1581.4c4.77,0,9.1-1.62,12.46-4.33,5.42-4.22,8.67-11.16,7.69-18.63h0ZM232.01,669.05V39.19h1459.98v629.86H232.01Z"/>
          <path class="cls-17" d="M1763.16,722.23c-3.47,2.71-7.8,4.33-12.46,4.33H169.3c-6.72,0-12.67-3.25-16.36-8.23l2.71-1.73,76.25-47.44h1459.98l69.43,51.78,1.73,1.3h.11Z"/>
          <path class="cls-18" d="M176.56,457.62c-10.72,77.88-19.61,158.68-27.73,237l-.65,6.28c-.22,1.95-.54,4.66-.43,6.61,0,10.83,8.99,20.47,19.82,21.23,40.84,0,120.56-.97,161.39-2.27-40.73-1.41-120.23-1.84-160.96-2.49-8.77-.76-15.92-9.21-15.06-18.09,8.88-82,17.66-166.16,23.72-248.37h0l-.11.11Z"/>
          <path class="cls-18" d="M1744.64,457.62c10.72,77.88,19.61,158.68,27.73,237l.65,6.28c.22,1.95.54,4.66.43,6.61,0,10.83-8.99,20.47-19.82,21.23-40.84,0-101.71-.97-142.54-2.27,40.73-1.41,101.38-1.84,142.11-2.49,8.77-.76,15.92-9.21,15.06-18.09-8.88-82-17.66-166.16-23.72-248.37h0l.11.11Z"/>
          <path class="cls-18" d="M1548.26,22.29c35.74-.65,75.82-.87,111.67-.97h23.29c8.99,0,17.66,6.07,20.47,14.73.87,2.27,1.08,4.66,1.41,7.04l1.95,18.52c3.79,35.53,7.91,113.19,11.16,148.83-5.31-41.92-10.51-125.11-15.27-167.13-.33-9.1-6.5-17.22-15.49-19.28-2.49-.76-6.39-.54-8.99-.54h-18.63c-35.74,0-75.82-.32-111.67-.97h0l.11-.22Z"/>
          <path class="cls-18" d="M1548.26,22.29c-35.74-.65-1252.56-.87-1288.3-.97h-23.29c-8.99,0-17.66,6.07-20.47,14.73-.87,2.27-1.08,4.66-1.41,7.04l-1.95,18.52c-3.79,35.53-7.91,113.19-11.16,148.83,5.31-41.92,10.51-125.11,15.27-167.13.32-9.1,6.5-17.22,15.49-19.28,2.49-.76,6.39-.54,8.99-.54h18.63c35.74,0,75.82-.32,111.67-.97h1176.73l-.22-.22Z"/>
          <path class="cls-18" d="M259.96,22.29c324.73-3.57,793.3-3.57,1117.92-.43l177.96.43-177.96.43c-324.62,3.14-793.19,3.14-1117.92-.43h0Z"/>
        </g>
        <path class="cls-18" d="M1880.68,939.84H39.32c-6.28,0-9.64-7.26-5.74-12.13l78.53-95.1c12.56-15.27,20.69-33.69,23.5-53.29v-.43l1.3-23.5c.43-7.58,6.72-13.65,14.41-13.65h1617.36c7.69,0,13.97,5.96,14.41,13.65l1.3,23.5v.43c2.71,19.61,10.83,38.02,23.4,53.29l78.53,95.1c4.01,4.87.54,12.13-5.74,12.13h.11Z"/>
        <path class="cls-20" d="M1880.68,939.84H39.32c-6.28,0-9.64-7.26-5.74-12.13l78.53-95.1c12.56-15.27,20.69-33.69,23.5-53.29v-.43l1.3-23.5c.43-7.58,6.72-13.65,14.41-13.65h1617.36c7.69,0,13.97,5.96,14.41,13.65l1.3,23.5v.43c2.71,19.61,10.83,38.02,23.4,53.29l78.53,95.1c4.01,4.87.54,12.13-5.74,12.13h.11Z"/>
        <path class="cls-1" d="M1783.37,901.71h-374.67c-4.12,0-6.39-4.66-3.9-7.91l22.96-29.9c.97-1.19,2.38-1.95,3.9-1.95h327.66c1.52,0,2.92.65,3.9,1.84l24.05,29.9c2.6,3.25.32,8.02-3.9,8.02h0Z"/>
        <g>
          <g>
            <path d="M893.17,1037.48l.06-.02v-.04l.06-.02v-.04l.06-.02v-.04l.06-.02v-.04l.06-.02v-.04l.06-.02v-.04l.06-.02v-.04l.06-.02v-.04l.06-.02v-.04l.06-.02v-.04l.06-.02v-.04l.06-.02v-.04l.06-.02v-.04l.06-.02v-.04l.06-.02v-.04l.06-.02v-.04l.06-.02v-.04l.06-.02v-.04l.06-.02v-.04l.06-.02v-.04l.06-.02v-.04l.06-.02v-.04l.06-.02v-.04l.06-.02v-.04l.06-.02v-.04l.06-.02v-.04l.06-.02v-.04l.06-.02v-.04l.06-.02v-.04l.06-.02v-.04l.06-.02v-.04l.06-.02v-.04l.06-.02v-.04l.06-.02v-.04l.06-.02v-.04l.06-.02v-.04l.06-.02v-.04l.06-.02v-.04l.06-.02v-.04l.06-.02v-.04l.06-.02v-.04l.06-.02v-.04l.06-.02v-21.86h-14.49v.06h-.06v.06h-.06v.06h-.06v.06h-.06v.06h-.06v.06h-.06v.06h-.06v.06h-.06v.06h-.06v.06h-.06v.06h-.06v.06h-.06v.06h-.06v.06h-.06v.06h-.06v.06h-.06v.06h-.06v.06h-.06v.06h-.06v.06h-.06v.06h-.06v.06h-.06v.06h-.06v.06h-.06v.06h-.06v.06h-.06v.06h-.06v.06h-.06v.06h-.06v.06h-.06v.06h-.06v.06h-.06v.06h-.06v.06h-.06v.06h-.06v.06h-.06v.06h-.06v.06h-.06v.06h-.06v.06h-.06v.06h-.06v.06h-.06v.06h-.06v.06h-.06v.06h-.06v.06h-.06v.06h-.06v6.29h7.47v8.68c-.44.03-.87.05-1.32.05-4.55,0-8.44-1.44-11.66-4.33-3.22-2.89-4.83-6.37-4.83-10.45,0-3.05.9-5.76,2.7-8.14,3.05-2.42,6.64-3.65,10.79-3.65,2.23,0,4.38.39,6.44,1.18l.03-.07s.02,0,.03,0l.03-.07s.02,0,.03,0l.03-.07s.02,0,.03,0l.03-.07s.02,0,.03,0l.03-.07s.02,0,.03,0l.03-.07s.02,0,.03,0l.03-.07s.02,0,.03,0l.03-.07s.02,0,.03,0l.03-.07s.02,0,.03,0l.03-.07s.02,0,.03,0l.03-.07s.02,0,.03,0l.03-.07s.02,0,.03,0l.03-.07s.02,0,.03,0l.03-.07s.02,0,.03,0l.03-.07s.02,0,.03,0l.03-.07s.02,0,.03,0l.03-.07s.02,0,.03,0l.03-.07s.02,0,.03,0l.03-.07s.02,0,.03,0l.03-.07s.02,0,.03,0l.03-.07s.02,0,.03,0l.03-.07s.02,0,.03,0l.03-.07s.02,0,.03,0l.03-.07s.02,0,.03,0l.03-.07s.02,0,.03,0l.03-.07s.02,0,.03,0l.03-.07s.02,0,.03,0l.03-.07s.02,0,.03,0l.03-.07s.02,0,.03,0l.03-.07s.02,0,.03,0l.03-.07s.02,0,.03,0l.03-.07s.02,0,.03,0l.03-.07s.02,0,.03,0l.03-.07s.02,0,.03,0l.03-.07s.02,0,.03,0l.03-.07s.02,0,.03,0l.03-.07s.02,0,.03,0l.03-.07s.02,0,.03,0l.03-.07s.02,0,.03,0l.03-.07s.02,0,.03,0l.03-.07s.02,0,.03,0l.03-.07s.02,0,.03,0l.03-.07s.02,0,.03,0l.03-.07s.02,0,.03,0l.03-.07s.02,0,.03,0l.03-.07s.02,0,.03,0l.03-.07s.02,0,.03,0l2.7-5.8c-2.9-1.1-5.95-1.65-9.14-1.65-6.48,0-12.02,2.06-16.61,6.18-.31.27-.6.55-.88.83-.02.02-.04.04-.06.07-.02.02-.04.04-.06.06-.02.02-.04.04-.06.06-.02.02-.04.04-.06.06-.02.02-.04.04-.06.06-.02.02-.04.04-.06.06-.02.02-.04.04-.06.06-.02.02-.04.04-.06.06-.02.02-.04.04-.06.07-.02.02-.04.04-.06.06-.02.02-.04.04-.06.06-.02.02-.04.04-.06.06-.02.02-.04.04-.06.06-.02.02-.04.04-.06.06-.02.02-.04.04-.06.06-.02.02-.04.04-.06.06-.02.02-.04.04-.06.06-.02.02-.04.04-.06.06-.02.02-.04.04-.06.06-.02.02-.04.04-.06.07-.02.02-.04.04-.06.06-.02.02-.04.04-.06.07-.02.02-.04.04-.06.06-.02.02-.04.04-.06.06-.02.02-.04.04-.06.06-.02.02-.04.04-.06.06-.02.02-.04.04-.06.06-.02.02-.04.04-.06.07-.02.02-.04.04-.06.06-.02.02-.04.04-.06.07-.02.02-.04.04-.06.06-.02.02-.04.04-.06.06-.02.02-.04.04-.06.06-.02.02-.04.04-.06.06-.02.02-.04.04-.06.06-.02.02-.04.04-.06.06-.02.02-.04.04-.06.06-.02.02-.04.04-.06.07-.02.02-.04.04-.06.06-.02.02-.04.04-.06.06-.02.02-.04.04-.06.07-.02.02-.04.04-.06.06-.02.02-.04.04-.06.07-.02.02-.04.04-.06.06-.02.02-.04.04-.06.06-.02.02-.04.04-.06.06-4.05,3.96-6.07,8.67-6.07,14.13,0,5.81,2.3,10.78,6.89,14.9,4.59,4.12,10.13,6.18,16.61,6.18,3.2,0,6.27-.56,9.21-1.67l2.13-.81v-.04l.06-.02v-.04l.06-.02v-.04l.06-.02v-.04l.06-.02v-.04Z"/>
            <polygon points="715.75 995.51 707.64 995.51 707.6 995.58 707.58 995.58 707.53 995.64 707.51 995.64 707.47 995.71 707.45 995.71 707.41 995.77 707.39 995.77 707.34 995.84 707.32 995.84 707.28 995.9 707.26 995.9 707.22 995.96 707.19 995.96 707.15 996.03 707.13 996.03 707.09 996.09 707.07 996.09 707.02 996.16 707 996.16 706.96 996.22 706.94 996.22 706.9 996.29 706.87 996.29 706.83 996.35 706.81 996.35 706.77 996.41 706.75 996.41 706.71 996.48 706.68 996.48 706.64 996.54 706.62 996.54 706.58 996.61 706.56 996.61 706.51 996.67 706.49 996.67 706.45 996.74 706.43 996.74 706.39 996.8 706.36 996.8 706.32 996.86 706.3 996.86 706.26 996.93 706.24 996.93 706.19 996.99 706.17 996.99 706.13 997.06 706.11 997.06 706.07 997.12 706.05 997.12 706 997.19 705.98 997.19 705.94 997.25 705.92 997.25 705.88 997.31 705.85 997.31 705.81 997.38 705.79 997.38 705.75 997.44 705.73 997.44 705.68 997.51 705.66 997.51 705.62 997.57 705.6 997.57 705.56 997.64 705.54 997.64 705.49 997.7 705.47 997.7 705.43 997.76 705.41 997.76 705.37 997.83 705.34 997.83 705.3 997.89 705.28 997.89 705.24 997.96 705.22 997.96 705.17 998.02 705.15 998.02 705.11 998.09 705.09 998.09 705.05 998.15 705.02 998.15 704.98 998.21 704.96 998.21 704.92 998.28 704.9 998.28 704.85 998.34 704.83 998.34 704.79 998.41 704.77 998.41 704.73 998.47 704.71 998.47 704.66 998.54 704.64 998.54 687.07 1025.3 687.07 995.51 680.05 995.51 680.05 995.58 679.98 995.58 679.98 995.64 679.92 995.64 679.92 995.71 679.86 995.71 679.86 995.77 679.79 995.77 679.79 995.84 679.73 995.84 679.73 995.9 679.66 995.9 679.66 995.96 679.6 995.96 679.6 996.03 679.54 996.03 679.54 996.09 679.47 996.09 679.47 996.16 679.41 996.16 679.41 996.22 679.35 996.22 679.35 996.29 679.28 996.29 679.28 996.35 679.22 996.35 679.22 996.41 679.15 996.41 679.15 996.48 679.09 996.48 679.09 996.54 679.03 996.54 679.03 996.61 678.96 996.61 678.96 996.67 678.9 996.67 678.9 996.74 678.84 996.74 678.84 996.8 678.77 996.8 678.77 996.86 678.71 996.86 678.71 996.93 678.64 996.93 678.64 996.99 678.58 996.99 678.58 997.06 678.52 997.06 678.52 997.12 678.45 997.12 678.45 997.19 678.39 997.19 678.39 997.25 678.32 997.25 678.32 997.31 678.26 997.31 678.26 997.38 678.2 997.38 678.2 997.44 678.13 997.44 678.13 997.51 678.07 997.51 678.07 997.57 678.01 997.57 678.01 997.64 677.94 997.64 677.94 997.7 677.88 997.7 677.88 997.76 677.81 997.76 677.81 997.83 677.75 997.83 677.75 997.89 677.69 997.89 677.69 997.96 677.62 997.96 677.62 998.02 677.56 998.02 677.56 998.09 677.5 998.09 677.5 998.15 677.43 998.15 677.43 998.21 677.37 998.21 677.37 998.28 677.3 998.28 677.3 998.34 677.24 998.34 677.24 998.41 677.18 998.41 677.18 998.47 677.11 998.47 677.11 998.54 677.05 998.54 677.05 1039.85 685.61 1039.85 685.66 1039.79 685.68 1039.79 685.72 1039.72 685.74 1039.72 685.78 1039.66 685.8 1039.66 685.85 1039.59 685.87 1039.59 685.91 1039.53 685.93 1039.53 685.97 1039.47 686 1039.47 686.04 1039.4 686.06 1039.4 686.1 1039.34 686.12 1039.34 686.17 1039.27 686.19 1039.27 686.23 1039.21 686.25 1039.21 686.29 1039.14 686.31 1039.14 686.36 1039.08 686.38 1039.08 686.42 1039.02 686.44 1039.02 686.48 1038.95 686.51 1038.95 686.55 1038.89 686.57 1038.89 686.61 1038.82 686.63 1038.82 686.68 1038.76 686.7 1038.76 686.74 1038.69 686.76 1038.69 686.8 1038.63 686.83 1038.63 686.87 1038.57 686.89 1038.57 686.93 1038.5 686.95 1038.5 686.99 1038.44 687.02 1038.44 687.06 1038.37 687.08 1038.37 687.12 1038.31 687.14 1038.31 687.19 1038.24 687.21 1038.24 687.25 1038.18 687.27 1038.18 687.31 1038.12 687.34 1038.12 687.38 1038.05 687.4 1038.05 687.44 1037.99 687.46 1037.99 687.51 1037.92 687.53 1037.92 687.57 1037.86 687.59 1037.86 687.63 1037.79 687.65 1037.79 687.7 1037.73 687.72 1037.73 687.76 1037.67 687.78 1037.67 687.82 1037.6 687.85 1037.6 687.89 1037.54 687.91 1037.54 687.95 1037.47 687.97 1037.47 688.02 1037.41 688.04 1037.41 688.08 1037.34 688.1 1037.34 688.14 1037.28 688.17 1037.28 688.21 1037.22 688.23 1037.22 688.27 1037.15 688.29 1037.15 688.33 1037.09 688.36 1037.09 688.4 1037.02 688.42 1037.02 688.46 1036.96 688.48 1036.96 688.53 1036.89 688.55 1036.89 688.59 1036.83 688.61 1036.83 715.75 995.51"/>
            <polygon points="718.75 995.64 718.69 995.64 718.69 995.7 718.62 995.7 718.62 995.76 718.56 995.76 718.56 995.83 718.49 995.83 718.49 995.89 718.43 995.89 718.43 995.96 718.37 995.96 718.37 996.02 718.3 996.02 718.3 996.09 718.24 996.09 718.24 996.15 718.18 996.15 718.18 996.21 718.11 996.21 718.11 996.28 718.05 996.28 718.05 996.34 717.98 996.34 717.98 996.41 717.92 996.41 717.92 996.47 717.86 996.47 717.86 996.54 717.79 996.54 717.79 996.6 717.73 996.6 717.73 996.66 717.67 996.66 717.67 996.73 717.6 996.73 717.6 996.79 717.54 996.79 717.54 996.86 717.47 996.86 717.47 996.92 717.41 996.92 717.41 996.99 717.35 996.99 717.35 997.05 717.28 997.05 717.28 997.11 717.22 997.11 717.22 997.18 717.15 997.18 717.15 997.24 717.09 997.24 717.09 997.31 717.03 997.31 717.03 997.37 716.96 997.37 716.96 997.44 716.9 997.44 716.9 997.5 716.84 997.5 716.84 997.56 716.77 997.56 716.77 997.63 716.71 997.63 716.71 997.69 716.64 997.69 716.64 997.76 716.58 997.76 716.58 997.82 716.52 997.82 716.52 997.89 716.45 997.89 716.45 997.95 716.39 997.95 716.39 998.01 716.33 998.01 716.33 998.08 716.26 998.08 716.26 998.14 716.2 998.14 716.2 998.21 716.13 998.21 716.13 998.27 716.07 998.27 716.07 998.34 716.01 998.34 716.01 998.4 715.94 998.4 715.94 998.46 715.88 998.46 715.88 998.53 715.82 998.53 715.82 998.59 715.75 998.59 715.75 1039.85 722.74 1039.85 722.74 1039.79 722.8 1039.79 722.8 1039.72 722.87 1039.72 722.87 1039.66 722.93 1039.66 722.93 1039.59 722.99 1039.59 722.99 1039.53 723.06 1039.53 723.06 1039.47 723.12 1039.47 723.12 1039.4 723.18 1039.4 723.18 1039.34 723.25 1039.34 723.25 1039.27 723.31 1039.27 723.31 1039.21 723.38 1039.21 723.38 1039.14 723.44 1039.14 723.44 1039.08 723.5 1039.08 723.5 1039.02 723.57 1039.02 723.57 1038.95 723.63 1038.95 723.63 1038.89 723.7 1038.89 723.7 1038.82 723.76 1038.82 723.76 1038.76 723.82 1038.76 723.82 1038.69 723.89 1038.69 723.89 1038.63 723.95 1038.63 723.95 1038.57 724.01 1038.57 724.01 1038.5 724.08 1038.5 724.08 1038.44 724.14 1038.44 724.14 1038.37 724.21 1038.37 724.21 1038.31 724.27 1038.31 724.27 1038.24 724.33 1038.24 724.33 1038.18 724.4 1038.18 724.4 1038.12 724.46 1038.12 724.46 1038.05 724.52 1038.05 724.52 1037.99 724.59 1037.99 724.59 1037.92 724.65 1037.92 724.65 1037.86 724.72 1037.86 724.72 1037.79 724.78 1037.79 724.78 1037.73 724.84 1037.73 724.84 1037.67 724.91 1037.67 724.91 1037.6 724.97 1037.6 724.97 1037.54 725.04 1037.54 725.04 1037.47 725.1 1037.47 725.1 1037.41 725.16 1037.41 725.16 1037.34 725.23 1037.34 725.23 1037.28 725.29 1037.28 725.29 1037.22 725.35 1037.22 725.35 1037.15 725.42 1037.15 725.42 1037.09 725.48 1037.09 725.48 1037.02 725.55 1037.02 725.55 1036.96 725.61 1036.96 725.61 1036.89 725.67 1036.89 725.67 1036.83 725.74 1036.83 725.74 995.57 718.75 995.57 718.75 995.64"/>
            <path d="M760.32,1001.58c-4.51-4.04-9.94-6.06-16.29-6.06h-12.11v.06h-.06v.06h-.06v.06h-.06v.06h-.06v.06h-.06v.06h-.06v.06h-.06v.06h-.06v.06h-.06v.06h-.06v.06h-.06v.06h-.06v.06h-.06v.06h-.06v.06h-.06v.06h-.06v.06h-.06v.06h-.06v.06h-.06v.06h-.06v.06h-.06v.06h-.06v.06h-.06v.06h-.06v.06h-.06v.06h-.06v.06h-.06v.06h-.06v.06h-.06v.06h-.06v.06h-.06v.06h-.06v.06h-.06v.06h-.06v.06h-.06v.06h-.06v.06h-.06v.06h-.06v.06h-.06v.06h-.06v.06h-.06v.06h-.06v.06h-.06v.06h-.06v.06h-.06v.06h-.06v.06h-.06v41.31h12.11c6.35,0,11.78-2.02,16.29-6.06.3-.27.58-.54.86-.82.02-.02.04-.04.06-.06s.04-.04.06-.06c.02-.02.04-.04.06-.06.02-.02.04-.04.06-.06.02-.02.04-.04.06-.07.02-.02.04-.04.06-.06.02-.02.04-.04.06-.07.02-.02.04-.04.06-.06.02-.02.04-.04.06-.06.02-.02.04-.04.06-.07.02-.02.04-.04.06-.06.02-.02.04-.04.06-.06.02-.02.04-.04.06-.06.02-.02.04-.04.06-.06.02-.02.04-.04.06-.06.02-.02.04-.04.06-.06.02-.02.04-.04.06-.06.02-.02.04-.04.06-.07.02-.02.04-.04.06-.06.02-.02.04-.04.06-.07.02-.02.04-.04.06-.06.02-.02.04-.04.06-.06.02-.02.04-.04.06-.06.02-.02.04-.04.06-.06.02-.02.04-.04.06-.06.02-.02.04-.04.06-.07.02-.02.04-.04.06-.06.02-.02.04-.04.06-.07.02-.02.04-.04.06-.06.02-.02.04-.04.06-.06.02-.02.04-.04.06-.06.02-.02.04-.04.06-.06.02-.02.04-.04.06-.06s.04-.04.06-.06c.02-.02.04-.04.06-.06.02-.02.04-.04.06-.06.02-.02.04-.04.06-.06.02-.02.04-.04.06-.06.02-.02.04-.04.06-.07.02-.02.04-.04.06-.06.02-.02.04-.04.06-.06.02-.02.04-.04.06-.06.02-.02.04-.04.06-.06.02-.02.04-.04.06-.06.02-.02.04-.04.06-.06.02-.02.04-.04.06-.06,3.95-3.89,5.93-8.5,5.93-13.83,0-5.7-2.24-10.57-6.73-14.61ZM744.03,1030.59h-5.15v-25.82h2.15c4.42,0,8.21,1.41,11.37,4.24,3.13,2.81,4.7,6.21,4.7,10.19,0,2.94-.87,5.57-2.59,7.87-2.97,2.33-6.46,3.51-10.47,3.51Z"/>
            <polygon points="778.54 1022.27 788.3 1022.27 788.3 1022.2 788.36 1022.2 788.36 1022.14 788.42 1022.14 788.42 1022.08 788.49 1022.08 788.49 1022.01 788.55 1022.01 788.55 1021.95 788.62 1021.95 788.62 1021.88 788.68 1021.88 788.68 1021.82 788.74 1021.82 788.74 1021.75 788.81 1021.75 788.81 1021.69 788.87 1021.69 788.87 1021.63 788.93 1021.63 788.93 1021.56 789 1021.56 789 1021.5 789.06 1021.5 789.06 1021.43 789.13 1021.43 789.13 1021.37 789.19 1021.37 789.19 1021.3 789.25 1021.3 789.25 1021.24 789.32 1021.24 789.32 1021.18 789.38 1021.18 789.38 1021.11 789.44 1021.11 789.44 1021.05 789.51 1021.05 789.51 1020.98 789.57 1020.98 789.57 1020.92 789.64 1020.92 789.64 1020.85 789.7 1020.85 789.7 1020.79 789.76 1020.79 789.76 1020.73 789.83 1020.73 789.83 1020.66 789.89 1020.66 789.89 1020.6 789.96 1020.6 789.96 1020.53 790.02 1020.53 790.02 1020.47 790.08 1020.47 790.08 1020.4 790.15 1020.4 790.15 1020.34 790.21 1020.34 790.21 1020.28 790.27 1020.28 790.27 1020.21 790.34 1020.21 790.34 1020.15 790.4 1020.15 790.4 1020.08 790.47 1020.08 790.47 1020.02 790.53 1020.02 790.53 1019.95 790.59 1019.95 790.59 1019.89 790.66 1019.89 790.66 1019.83 790.72 1019.83 790.72 1019.76 790.78 1019.76 790.78 1019.7 790.85 1019.7 790.85 1019.63 790.91 1019.63 790.91 1019.57 790.98 1019.57 790.98 1019.5 791.04 1019.5 791.04 1019.44 791.1 1019.44 791.1 1019.38 791.17 1019.38 791.17 1019.31 791.23 1019.31 791.23 1019.25 791.29 1019.25 791.29 1012.98 778.54 1012.98 778.54 1004.8 792.06 1004.8 792.06 1004.74 792.13 1004.74 792.13 1004.67 792.19 1004.67 792.19 1004.61 792.25 1004.61 792.25 1004.54 792.32 1004.54 792.32 1004.48 792.38 1004.48 792.38 1004.42 792.45 1004.42 792.45 1004.35 792.51 1004.35 792.51 1004.29 792.57 1004.29 792.57 1004.22 792.64 1004.22 792.64 1004.16 792.7 1004.16 792.7 1004.09 792.76 1004.09 792.76 1004.03 792.83 1004.03 792.83 1003.97 792.89 1003.97 792.89 1003.9 792.96 1003.9 792.96 1003.84 793.02 1003.84 793.02 1003.77 793.08 1003.77 793.08 1003.71 793.15 1003.71 793.15 1003.64 793.21 1003.64 793.21 1003.58 793.28 1003.58 793.28 1003.52 793.34 1003.52 793.34 1003.45 793.4 1003.45 793.4 1003.39 793.47 1003.39 793.47 1003.32 793.53 1003.32 793.53 1003.26 793.59 1003.26 793.59 1003.19 793.66 1003.19 793.66 1003.13 793.72 1003.13 793.72 1003.07 793.79 1003.07 793.79 1003 793.85 1003 793.85 1002.94 793.91 1002.94 793.91 1002.87 793.98 1002.87 793.98 1002.81 794.04 1002.81 794.04 1002.74 794.1 1002.74 794.1 1002.68 794.17 1002.68 794.17 1002.62 794.23 1002.62 794.23 1002.55 794.3 1002.55 794.3 1002.49 794.36 1002.49 794.36 1002.42 794.42 1002.42 794.42 1002.36 794.49 1002.36 794.49 1002.29 794.55 1002.29 794.55 1002.23 794.62 1002.23 794.62 1002.17 794.68 1002.17 794.68 1002.1 794.74 1002.1 794.74 1002.04 794.81 1002.04 794.81 1001.97 794.87 1001.97 794.87 1001.91 794.93 1001.91 794.93 1001.84 795 1001.84 795 1001.78 795.06 1001.78 795.06 995.51 771.56 995.51 771.56 995.58 771.49 995.58 771.49 995.64 771.43 995.64 771.43 995.71 771.37 995.71 771.37 995.77 771.3 995.77 771.3 995.84 771.24 995.84 771.24 995.9 771.17 995.9 771.17 995.96 771.11 995.96 771.11 996.03 771.05 996.03 771.05 996.09 770.98 996.09 770.98 996.16 770.92 996.16 770.92 996.22 770.86 996.22 770.86 996.29 770.79 996.29 770.79 996.35 770.73 996.35 770.73 996.41 770.66 996.41 770.66 996.48 770.6 996.48 770.6 996.54 770.54 996.54 770.54 996.61 770.47 996.61 770.47 996.67 770.41 996.67 770.41 996.74 770.35 996.74 770.35 996.8 770.28 996.8 770.28 996.86 770.22 996.86 770.22 996.93 770.15 996.93 770.15 996.99 770.09 996.99 770.09 997.06 770.03 997.06 770.03 997.12 769.96 997.12 769.96 997.19 769.9 997.19 769.9 997.25 769.84 997.25 769.84 997.31 769.77 997.31 769.77 997.38 769.71 997.38 769.71 997.44 769.64 997.44 769.64 997.51 769.58 997.51 769.58 997.57 769.52 997.57 769.52 997.64 769.45 997.64 769.45 997.7 769.39 997.7 769.39 997.76 769.32 997.76 769.32 997.83 769.26 997.83 769.26 997.89 769.2 997.89 769.2 997.96 769.13 997.96 769.13 998.02 769.07 998.02 769.07 998.09 769.01 998.09 769.01 998.15 768.94 998.15 768.94 998.21 768.88 998.21 768.88 998.28 768.81 998.28 768.81 998.34 768.75 998.34 768.75 998.41 768.69 998.41 768.69 998.47 768.62 998.47 768.62 998.54 768.56 998.54 768.56 1039.85 792.06 1039.85 792.06 1039.79 792.13 1039.79 792.13 1039.72 792.19 1039.72 792.19 1039.66 792.25 1039.66 792.25 1039.59 792.32 1039.59 792.32 1039.53 792.38 1039.53 792.38 1039.47 792.45 1039.47 792.45 1039.4 792.51 1039.4 792.51 1039.34 792.57 1039.34 792.57 1039.27 792.64 1039.27 792.64 1039.21 792.7 1039.21 792.7 1039.14 792.76 1039.14 792.76 1039.08 792.83 1039.08 792.83 1039.02 792.89 1039.02 792.89 1038.95 792.96 1038.95 792.96 1038.89 793.02 1038.89 793.02 1038.82 793.08 1038.82 793.08 1038.76 793.15 1038.76 793.15 1038.69 793.21 1038.69 793.21 1038.63 793.28 1038.63 793.28 1038.57 793.34 1038.57 793.34 1038.5 793.4 1038.5 793.4 1038.44 793.47 1038.44 793.47 1038.37 793.53 1038.37 793.53 1038.31 793.59 1038.31 793.59 1038.24 793.66 1038.24 793.66 1038.18 793.72 1038.18 793.72 1038.12 793.79 1038.12 793.79 1038.05 793.85 1038.05 793.85 1037.99 793.91 1037.99 793.91 1037.92 793.98 1037.92 793.98 1037.86 794.04 1037.86 794.04 1037.79 794.1 1037.79 794.1 1037.73 794.17 1037.73 794.17 1037.67 794.23 1037.67 794.23 1037.6 794.3 1037.6 794.3 1037.54 794.36 1037.54 794.36 1037.47 794.42 1037.47 794.42 1037.41 794.49 1037.41 794.49 1037.34 794.55 1037.34 794.55 1037.28 794.62 1037.28 794.62 1037.22 794.68 1037.22 794.68 1037.15 794.74 1037.15 794.74 1037.09 794.81 1037.09 794.81 1037.02 794.87 1037.02 794.87 1036.96 794.93 1036.96 794.93 1036.89 795 1036.89 795 1036.83 795.06 1036.83 795.06 1030.56 778.54 1030.56 778.54 1022.27"/>
            <path d="M837.02,1001.26c-4.59-4.12-10.13-6.18-16.61-6.18s-12.02,2.06-16.61,6.18c-.31.27-.6.55-.88.83-.02.02-.04.04-.06.07-.02.02-.04.04-.06.06-.02.02-.04.04-.06.06-.02.02-.04.04-.06.06-.02.02-.04.04-.06.06-.02.02-.04.04-.06.06-.02.02-.04.04-.06.06-.02.02-.04.04-.06.06-.02.02-.04.04-.06.07-.02.02-.04.04-.06.06-.02.02-.04.04-.06.06-.02.02-.04.04-.06.06-.02.02-.04.04-.06.06-.02.02-.04.04-.06.06-.02.02-.04.04-.06.06-.02.02-.04.04-.06.06-.02.02-.04.04-.06.06-.02.02-.04.04-.06.06-.02.02-.04.04-.06.06-.02.02-.04.04-.06.07-.02.02-.04.04-.06.06-.02.02-.04.04-.06.07-.02.02-.04.04-.06.06-.02.02-.04.04-.06.06-.02.02-.04.04-.06.06-.02.02-.04.04-.06.06-.02.02-.04.04-.06.06-.02.02-.04.04-.06.07-.02.02-.04.04-.06.06-.02.02-.04.04-.06.07-.02.02-.04.04-.06.06-.02.02-.04.04-.06.06-.02.02-.04.04-.06.06-.02.02-.04.04-.06.06-.02.02-.04.04-.06.06-.02.02-.04.04-.06.06-.02.02-.04.04-.06.06-.02.02-.04.04-.06.07-.02.02-.04.04-.06.06-.02.02-.04.04-.06.06-.02.02-.04.04-.06.07-.02.02-.04.04-.06.06-.02.02-.04.04-.06.07-.02.02-.04.04-.06.06-.02.02-.04.04-.06.06-.02.02-.04.04-.06.06-4.05,3.96-6.07,8.67-6.07,14.13,0,5.81,2.3,10.78,6.89,14.9,4.59,4.12,10.13,6.18,16.61,6.18s12.02-2.06,16.61-6.18c.31-.27.6-.55.88-.83.02-.02.04-.04.06-.06.02-.02.04-.04.06-.06.02-.02.04-.04.06-.06.02-.02.04-.04.06-.06.02-.02.04-.04.06-.07.02-.02.04-.04.06-.06.02-.02.04-.04.06-.07.02-.02.04-.04.06-.06.02-.02.04-.04.06-.06.02-.02.04-.04.06-.07.02-.02.04-.04.06-.06.02-.02.04-.04.06-.06.02-.02.04-.04.06-.06.02-.02.04-.04.06-.06.02-.02.04-.04.06-.06.02-.02.04-.04.06-.06.02-.02.04-.04.06-.06.02-.02.04-.04.06-.07.02-.02.04-.04.06-.06.02-.02.04-.04.06-.07.02-.02.04-.04.06-.06.02-.02.04-.04.06-.06.02-.02.04-.04.06-.06.02-.02.04-.04.06-.06.02-.02.04-.04.06-.06.02-.02.04-.04.06-.07.02-.02.04-.04.06-.06.02-.02.04-.04.06-.07.02-.02.04-.04.06-.06.02-.02.04-.04.06-.06.02-.02.04-.04.06-.06.02-.02.04-.04.06-.06.02-.02.04-.04.06-.06.02-.02.04-.04.06-.06.02-.02.04-.04.06-.06.02-.02.04-.04.06-.06.02-.02.04-.04.06-.06.02-.02.04-.04.06-.06.02-.02.04-.04.06-.07.02-.02.04-.04.06-.06.02-.02.04-.04.06-.06.02-.02.04-.04.06-.06.02-.02.04-.04.06-.06.02-.02.04-.04.06-.06.02-.02.04-.04.06-.06.02-.02.04-.04.06-.06,4.05-3.96,6.07-8.67,6.07-14.13,0-5.81-2.3-10.78-6.89-14.9ZM808.75,1026.61c-3.22-2.89-4.83-6.37-4.83-10.45,0-3.04.9-5.75,2.69-8.13,3.05-2.41,6.64-3.63,10.8-3.63,4.55,0,8.44,1.44,11.66,4.33,3.22,2.89,4.83,6.37,4.83,10.45,0,3.04-.9,5.75-2.69,8.13-3.05,2.41-6.64,3.63-10.8,3.63-4.55,0-8.44-1.44-11.66-4.33Z"/>
            <path d="M925.29,995.58h-.02l-.05.06h-.02l-.05.06h-.02l-.05.06h-.02l-.05.06h-.02l-.05.06h-.02l-.05.06h-.02l-.05.06h-.02l-.05.06h-.02l-.05.06h-.02l-.05.06h-.02l-.05.06h-.02l-.05.06h-.02l-.05.06h-.02l-.05.06h-.02l-.05.06h-.02l-.05.06h-.02l-.05.06h-.02l-.05.06h-.02l-.05.06h-.02l-.05.06h-.02l-.05.06h-.02l-.05.06h-.02l-.05.06h-.02l-.05.06h-.02l-.05.06h-.02l-.05.06h-.02l-.05.06h-.02l-.05.06h-.02l-.05.06h-.02l-.05.06h-.02l-.05.06h-.02l-.05.06h-.02l-.05.06h-.02l-.05.06h-.02l-.05.06h-.02l-.05.06h-.02l-.05.06h-.02l-.05.06h-.02l-.05.06h-.02l-.05.06h-.02l-.05.06h-.02l-.05.06h-.02l-.05.06h-.02l-.05.06h-.02l-.05.06h-.02l-.05.06h-.02l-29.14,41.31h8.27l.05-.06h.02l.05-.06h.02l.05-.06h.02l.05-.06h.02l.05-.06h.02l.05-.06h.02l.05-.06h.02l.05-.06h.02l.05-.06h.02l.05-.06h.02l.05-.06h.02l.05-.06h.02l.05-.06h.02l.05-.06h.02l.05-.06h.02l.05-.06h.02l.05-.06h.02l.05-.06h.02l.05-.06h.02l.05-.06h.02l.05-.06h.02l.05-.06h.02l.05-.06h.02l.05-.06h.02l.05-.06h.02l.05-.06h.02l.05-.06h.02l.05-.06h.02l.05-.06h.02l.05-.06h.02l.05-.06h.02l.05-.06h.02l.05-.06h.02l.05-.06h.02l.05-.06h.02l.05-.06h.02l.05-.06h.02l.05-.06h.02l.05-.06h.02l.05-.06h.02l.05-.06h.02l.05-.06h.02l.05-.06h.02l.05-.06h.02l.05-.06h.02l.05-.06h.02l.05-.06h.02l4.67-6.62h14.78v9.64h7.02v-.06h.06v-.06h.06v-.06h.06v-.06h.06v-.06h.06v-.06h.06v-.06h.06v-.06h.06v-.06h.06v-.06h.06v-.06h.06v-.06h.06v-.06h.06v-.06h.06v-.06h.06v-.06h.06v-.06h.06v-.06h.06v-.06h.06v-.06h.06v-.06h.06v-.06h.06v-.06h.06v-.06h.06v-.06h.06v-.06h.06v-.06h.06v-.06h.06v-.06h.06v-.06h.06v-.06h.06v-.06h.06v-.06h.06v-.06h.06v-.06h.06v-.06h.06v-.06h.06v-.06h.06v-.06h.06v-.06h.06v-.06h.06v-.06h.06v-.06h.06v-.06h.06v-.06h.06v-.06h.06v-.06h.06v-41.31h-8.6l-.05.06ZM923.92,1020.92h-8.24l8.24-11.66v11.66Z"/>
            <polygon points="980.82 995.58 980.79 995.58 980.75 995.64 980.72 995.64 980.69 995.71 980.66 995.71 980.63 995.77 980.59 995.77 980.56 995.84 980.53 995.84 980.5 995.9 980.47 995.9 980.44 995.96 980.4 995.96 980.37 996.03 980.34 996.03 980.31 996.09 980.28 996.09 980.24 996.16 980.21 996.16 980.18 996.22 980.15 996.22 980.12 996.29 980.08 996.29 980.05 996.35 980.02 996.35 979.99 996.41 979.96 996.41 979.93 996.48 979.89 996.48 979.86 996.54 979.83 996.54 979.8 996.61 979.77 996.61 979.73 996.67 979.7 996.67 979.67 996.74 979.64 996.74 979.61 996.8 979.57 996.8 979.54 996.86 979.51 996.86 979.48 996.93 979.45 996.93 979.42 996.99 979.38 996.99 979.35 997.06 979.32 997.06 979.29 997.12 979.25 997.12 979.22 997.19 979.19 997.19 979.16 997.25 979.13 997.25 979.1 997.31 979.06 997.31 979.03 997.38 979 997.38 978.97 997.44 978.94 997.44 978.9 997.51 978.87 997.51 978.84 997.57 978.81 997.57 978.78 997.64 978.74 997.64 978.71 997.7 978.68 997.7 978.65 997.76 978.62 997.76 978.59 997.83 978.55 997.83 978.52 997.89 978.49 997.89 978.46 997.96 978.43 997.96 978.39 998.02 978.36 998.02 978.33 998.09 978.3 998.09 978.27 998.15 978.23 998.15 978.2 998.21 978.17 998.21 978.14 998.28 978.11 998.28 978.08 998.34 978.04 998.34 978.01 998.41 977.98 998.41 977.95 998.47 977.92 998.47 977.88 998.54 977.85 998.54 963.67 1027.66 948.2 995.51 940.89 995.51 940.89 995.58 940.83 995.58 940.83 995.64 940.76 995.64 940.76 995.71 940.7 995.71 940.7 995.77 940.64 995.77 940.64 995.84 940.57 995.84 940.57 995.9 940.51 995.9 940.51 995.96 940.45 995.96 940.45 996.03 940.38 996.03 940.38 996.09 940.32 996.09 940.32 996.16 940.25 996.16 940.25 996.22 940.19 996.22 940.19 996.29 940.13 996.29 940.13 996.35 940.06 996.35 940.06 996.41 940 996.41 940 996.48 939.94 996.48 939.94 996.54 939.87 996.54 939.87 996.61 939.81 996.61 939.81 996.67 939.74 996.67 939.74 996.74 939.68 996.74 939.68 996.8 939.62 996.8 939.62 996.86 939.55 996.86 939.55 996.93 939.49 996.93 939.49 996.99 939.42 996.99 939.42 997.06 939.36 997.06 939.36 997.12 939.3 997.12 939.3 997.19 939.23 997.19 939.23 997.25 939.17 997.25 939.17 997.31 939.11 997.31 939.11 997.38 939.04 997.38 939.04 997.44 938.98 997.44 938.98 997.51 938.91 997.51 938.91 997.57 938.85 997.57 938.85 997.64 938.79 997.64 938.79 997.7 938.72 997.7 938.72 997.76 938.66 997.76 938.66 997.83 938.6 997.83 938.6 997.89 938.53 997.89 938.53 997.96 938.47 997.96 938.47 998.02 938.4 998.02 938.4 998.09 938.34 998.09 938.34 998.15 938.28 998.15 938.28 998.21 938.21 998.21 938.21 998.28 938.15 998.28 938.15 998.34 938.09 998.34 938.09 998.41 938.02 998.41 938.02 998.47 937.96 998.47 937.96 998.54 937.89 998.54 937.89 1039.85 944.88 1039.85 944.88 1039.79 944.94 1039.79 944.94 1039.72 945.01 1039.72 945.01 1039.66 945.07 1039.66 945.07 1039.59 945.14 1039.59 945.14 1039.53 945.2 1039.53 945.2 1039.47 945.26 1039.47 945.26 1039.4 945.33 1039.4 945.33 1039.34 945.39 1039.34 945.39 1039.27 945.45 1039.27 945.45 1039.21 945.52 1039.21 945.52 1039.14 945.58 1039.14 945.58 1039.08 945.65 1039.08 945.65 1039.02 945.71 1039.02 945.71 1038.95 945.77 1038.95 945.77 1038.89 945.84 1038.89 945.84 1038.82 945.9 1038.82 945.9 1038.76 945.97 1038.76 945.97 1038.69 946.03 1038.69 946.03 1038.63 946.09 1038.63 946.09 1038.57 946.16 1038.57 946.16 1038.5 946.22 1038.5 946.22 1038.44 946.28 1038.44 946.28 1038.37 946.35 1038.37 946.35 1038.31 946.41 1038.31 946.41 1038.24 946.48 1038.24 946.48 1038.18 946.54 1038.18 946.54 1038.12 946.6 1038.12 946.6 1038.05 946.67 1038.05 946.67 1037.99 946.73 1037.99 946.73 1037.92 946.79 1037.92 946.79 1037.86 946.86 1037.86 946.86 1037.79 946.92 1037.79 946.92 1037.73 946.99 1037.73 946.99 1037.67 947.05 1037.67 947.05 1037.6 947.11 1037.6 947.11 1037.54 947.18 1037.54 947.18 1037.47 947.24 1037.47 947.24 1037.41 947.31 1037.41 947.31 1037.34 947.37 1037.34 947.37 1037.28 947.43 1037.28 947.43 1037.22 947.5 1037.22 947.5 1037.15 947.56 1037.15 947.56 1037.09 947.62 1037.09 947.62 1037.02 947.69 1037.02 947.69 1036.96 947.75 1036.96 947.75 1036.89 947.82 1036.89 947.82 1036.83 947.88 1036.83 947.88 1019.99 957.47 1039.85 965.36 1039.85 965.39 1039.79 965.42 1039.79 965.45 1039.72 965.49 1039.72 965.52 1039.66 965.55 1039.66 965.58 1039.59 965.61 1039.59 965.65 1039.53 965.68 1039.53 965.71 1039.47 965.74 1039.47 965.77 1039.4 965.81 1039.4 965.84 1039.34 965.87 1039.34 965.9 1039.27 965.93 1039.27 965.96 1039.21 966 1039.21 966.03 1039.14 966.06 1039.14 966.09 1039.08 966.12 1039.08 966.16 1039.02 966.19 1039.02 966.22 1038.95 966.25 1038.95 966.28 1038.89 966.32 1038.89 966.35 1038.82 966.38 1038.82 966.41 1038.76 966.44 1038.76 966.47 1038.69 966.51 1038.69 966.54 1038.63 966.57 1038.63 966.6 1038.57 966.63 1038.57 966.67 1038.5 966.7 1038.5 966.73 1038.44 966.76 1038.44 966.79 1038.37 966.83 1038.37 966.86 1038.31 966.89 1038.31 966.92 1038.24 966.95 1038.24 966.99 1038.18 967.02 1038.18 967.05 1038.12 967.08 1038.12 967.11 1038.05 967.15 1038.05 967.18 1037.99 967.21 1037.99 967.24 1037.92 967.27 1037.92 967.3 1037.86 967.34 1037.86 967.37 1037.79 967.4 1037.79 967.43 1037.73 967.46 1037.73 967.5 1037.67 967.53 1037.67 967.56 1037.6 967.59 1037.6 967.62 1037.54 967.66 1037.54 967.69 1037.47 967.72 1037.47 967.75 1037.41 967.78 1037.41 967.81 1037.34 967.85 1037.34 967.88 1037.28 967.91 1037.28 967.94 1037.22 967.97 1037.22 968.01 1037.15 968.04 1037.15 968.07 1037.09 968.1 1037.09 968.13 1037.02 968.17 1037.02 968.2 1036.96 968.23 1036.96 968.26 1036.89 968.29 1036.89 968.32 1036.83 968.36 1036.83 978.17 1016.73 978.17 1039.85 985.16 1039.85 985.16 1039.79 985.22 1039.79 985.22 1039.72 985.29 1039.72 985.29 1039.66 985.35 1039.66 985.35 1039.59 985.42 1039.59 985.42 1039.53 985.48 1039.53 985.48 1039.47 985.54 1039.47 985.54 1039.4 985.61 1039.4 985.61 1039.34 985.67 1039.34 985.67 1039.27 985.73 1039.27 985.73 1039.21 985.8 1039.21 985.8 1039.14 985.86 1039.14 985.86 1039.08 985.93 1039.08 985.93 1039.02 985.99 1039.02 985.99 1038.95 986.05 1038.95 986.05 1038.89 986.12 1038.89 986.12 1038.82 986.18 1038.82 986.18 1038.76 986.24 1038.76 986.24 1038.69 986.31 1038.69 986.31 1038.63 986.37 1038.63 986.37 1038.57 986.44 1038.57 986.44 1038.5 986.5 1038.5 986.5 1038.44 986.56 1038.44 986.56 1038.37 986.63 1038.37 986.63 1038.31 986.69 1038.31 986.69 1038.24 986.76 1038.24 986.76 1038.18 986.82 1038.18 986.82 1038.12 986.88 1038.12 986.88 1038.05 986.95 1038.05 986.95 1037.99 987.01 1037.99 987.01 1037.92 987.07 1037.92 987.07 1037.86 987.14 1037.86 987.14 1037.79 987.2 1037.79 987.2 1037.73 987.27 1037.73 987.27 1037.67 987.33 1037.67 987.33 1037.6 987.39 1037.6 987.39 1037.54 987.46 1037.54 987.46 1037.47 987.52 1037.47 987.52 1037.41 987.58 1037.41 987.58 1037.34 987.65 1037.34 987.65 1037.28 987.71 1037.28 987.71 1037.22 987.78 1037.22 987.78 1037.15 987.84 1037.15 987.84 1037.09 987.9 1037.09 987.9 1037.02 987.97 1037.02 987.97 1036.96 988.03 1036.96 988.03 1036.89 988.1 1036.89 988.1 1036.83 988.16 1036.83 988.16 995.51 980.85 995.51 980.82 995.58"/>
            <polygon points="994.63 995.58 994.57 995.58 994.57 995.64 994.5 995.64 994.5 995.71 994.44 995.71 994.44 995.77 994.38 995.77 994.38 995.84 994.31 995.84 994.31 995.9 994.25 995.9 994.25 995.96 994.19 995.96 994.19 996.03 994.12 996.03 994.12 996.09 994.06 996.09 994.06 996.16 993.99 996.16 993.99 996.22 993.93 996.22 993.93 996.29 993.87 996.29 993.87 996.35 993.8 996.35 993.8 996.41 993.74 996.41 993.74 996.48 993.68 996.48 993.68 996.54 993.61 996.54 993.61 996.61 993.55 996.61 993.55 996.67 993.48 996.67 993.48 996.74 993.42 996.74 993.42 996.8 993.36 996.8 993.36 996.86 993.29 996.86 993.29 996.93 993.23 996.93 993.23 996.99 993.16 996.99 993.16 997.06 993.1 997.06 993.1 997.12 993.04 997.12 993.04 997.19 992.97 997.19 992.97 997.25 992.91 997.25 992.91 997.31 992.85 997.31 992.85 997.38 992.78 997.38 992.78 997.44 992.72 997.44 992.72 997.51 992.65 997.51 992.65 997.57 992.59 997.57 992.59 997.64 992.53 997.64 992.53 997.7 992.46 997.7 992.46 997.76 992.4 997.76 992.4 997.83 992.34 997.83 992.34 997.89 992.27 997.89 992.27 997.96 992.21 997.96 992.21 998.02 992.14 998.02 992.14 998.09 992.08 998.09 992.08 998.15 992.02 998.15 992.02 998.21 991.95 998.21 991.95 998.28 991.89 998.28 991.89 998.34 991.82 998.34 991.82 998.41 991.76 998.41 991.76 998.47 991.7 998.47 991.7 998.54 991.63 998.54 991.63 1039.85 1015.14 1039.85 1015.14 1039.79 1015.2 1039.79 1015.2 1039.72 1015.27 1039.72 1015.27 1039.66 1015.33 1039.66 1015.33 1039.59 1015.39 1039.59 1015.39 1039.53 1015.46 1039.53 1015.46 1039.47 1015.52 1039.47 1015.52 1039.4 1015.58 1039.4 1015.58 1039.34 1015.65 1039.34 1015.65 1039.27 1015.71 1039.27 1015.71 1039.21 1015.78 1039.21 1015.78 1039.14 1015.84 1039.14 1015.84 1039.08 1015.9 1039.08 1015.9 1039.02 1015.97 1039.02 1015.97 1038.95 1016.03 1038.95 1016.03 1038.89 1016.09 1038.89 1016.09 1038.82 1016.16 1038.82 1016.16 1038.76 1016.22 1038.76 1016.22 1038.69 1016.29 1038.69 1016.29 1038.63 1016.35 1038.63 1016.35 1038.57 1016.41 1038.57 1016.41 1038.5 1016.48 1038.5 1016.48 1038.44 1016.54 1038.44 1016.54 1038.37 1016.61 1038.37 1016.61 1038.31 1016.67 1038.31 1016.67 1038.24 1016.73 1038.24 1016.73 1038.18 1016.8 1038.18 1016.8 1038.12 1016.86 1038.12 1016.86 1038.05 1016.92 1038.05 1016.92 1037.99 1016.99 1037.99 1016.99 1037.92 1017.05 1037.92 1017.05 1037.86 1017.12 1037.86 1017.12 1037.79 1017.18 1037.79 1017.18 1037.73 1017.24 1037.73 1017.24 1037.67 1017.31 1037.67 1017.31 1037.6 1017.37 1037.6 1017.37 1037.54 1017.43 1037.54 1017.43 1037.47 1017.5 1037.47 1017.5 1037.41 1017.56 1037.41 1017.56 1037.34 1017.63 1037.34 1017.63 1037.28 1017.69 1037.28 1017.69 1037.22 1017.75 1037.22 1017.75 1037.15 1017.82 1037.15 1017.82 1037.09 1017.88 1037.09 1017.88 1037.02 1017.95 1037.02 1017.95 1036.96 1018.01 1036.96 1018.01 1036.89 1018.07 1036.89 1018.07 1036.83 1018.14 1036.83 1018.14 1030.56 1001.62 1030.56 1001.62 1022.27 1011.37 1022.27 1011.37 1022.2 1011.43 1022.2 1011.43 1022.14 1011.5 1022.14 1011.5 1022.08 1011.56 1022.08 1011.56 1022.01 1011.63 1022.01 1011.63 1021.95 1011.69 1021.95 1011.69 1021.88 1011.75 1021.88 1011.75 1021.82 1011.82 1021.82 1011.82 1021.75 1011.88 1021.75 1011.88 1021.69 1011.95 1021.69 1011.95 1021.63 1012.01 1021.63 1012.01 1021.56 1012.07 1021.56 1012.07 1021.5 1012.14 1021.5 1012.14 1021.43 1012.2 1021.43 1012.2 1021.37 1012.26 1021.37 1012.26 1021.3 1012.33 1021.3 1012.33 1021.24 1012.39 1021.24 1012.39 1021.18 1012.46 1021.18 1012.46 1021.11 1012.52 1021.11 1012.52 1021.05 1012.58 1021.05 1012.58 1020.98 1012.65 1020.98 1012.65 1020.92 1012.71 1020.92 1012.71 1020.85 1012.77 1020.85 1012.77 1020.79 1012.84 1020.79 1012.84 1020.73 1012.9 1020.73 1012.9 1020.66 1012.97 1020.66 1012.97 1020.6 1013.03 1020.6 1013.03 1020.53 1013.09 1020.53 1013.09 1020.47 1013.16 1020.47 1013.16 1020.4 1013.22 1020.4 1013.22 1020.34 1013.28 1020.34 1013.28 1020.28 1013.35 1020.28 1013.35 1020.21 1013.41 1020.21 1013.41 1020.15 1013.48 1020.15 1013.48 1020.08 1013.54 1020.08 1013.54 1020.02 1013.6 1020.02 1013.6 1019.95 1013.67 1019.95 1013.67 1019.89 1013.73 1019.89 1013.73 1019.83 1013.8 1019.83 1013.8 1019.76 1013.86 1019.76 1013.86 1019.7 1013.92 1019.7 1013.92 1019.63 1013.99 1019.63 1013.99 1019.57 1014.05 1019.57 1014.05 1019.5 1014.11 1019.5 1014.11 1019.44 1014.18 1019.44 1014.18 1019.38 1014.24 1019.38 1014.24 1019.31 1014.31 1019.31 1014.31 1019.25 1014.37 1019.25 1014.37 1012.98 1001.62 1012.98 1001.62 1004.8 1015.14 1004.8 1015.14 1004.74 1015.2 1004.74 1015.2 1004.67 1015.27 1004.67 1015.27 1004.61 1015.33 1004.61 1015.33 1004.54 1015.39 1004.54 1015.39 1004.48 1015.46 1004.48 1015.46 1004.42 1015.52 1004.42 1015.52 1004.35 1015.58 1004.35 1015.58 1004.29 1015.65 1004.29 1015.65 1004.22 1015.71 1004.22 1015.71 1004.16 1015.78 1004.16 1015.78 1004.09 1015.84 1004.09 1015.84 1004.03 1015.9 1004.03 1015.9 1003.97 1015.97 1003.97 1015.97 1003.9 1016.03 1003.9 1016.03 1003.84 1016.09 1003.84 1016.09 1003.77 1016.16 1003.77 1016.16 1003.71 1016.22 1003.71 1016.22 1003.64 1016.29 1003.64 1016.29 1003.58 1016.35 1003.58 1016.35 1003.52 1016.41 1003.52 1016.41 1003.45 1016.48 1003.45 1016.48 1003.39 1016.54 1003.39 1016.54 1003.32 1016.61 1003.32 1016.61 1003.26 1016.67 1003.26 1016.67 1003.19 1016.73 1003.19 1016.73 1003.13 1016.8 1003.13 1016.8 1003.07 1016.86 1003.07 1016.86 1003 1016.92 1003 1016.92 1002.94 1016.99 1002.94 1016.99 1002.87 1017.05 1002.87 1017.05 1002.81 1017.12 1002.81 1017.12 1002.74 1017.18 1002.74 1017.18 1002.68 1017.24 1002.68 1017.24 1002.62 1017.31 1002.62 1017.31 1002.55 1017.37 1002.55 1017.37 1002.49 1017.43 1002.49 1017.43 1002.42 1017.5 1002.42 1017.5 1002.36 1017.56 1002.36 1017.56 1002.29 1017.63 1002.29 1017.63 1002.23 1017.69 1002.23 1017.69 1002.17 1017.75 1002.17 1017.75 1002.1 1017.82 1002.1 1017.82 1002.04 1017.88 1002.04 1017.88 1001.97 1017.95 1001.97 1017.95 1001.91 1018.01 1001.91 1018.01 1001.84 1018.07 1001.84 1018.07 1001.78 1018.14 1001.78 1018.14 995.51 994.63 995.51 994.63 995.58"/>
            <path d="M1051.72,1013.1c-6.29-1.58-9.37-3.67-9.24-6.27.03-.56.12-1.08.28-1.55.12-.05.23-.11.36-.16,1.48-.56,3.27-.8,5.38-.72,2.98.12,5.31.98,6.99,2.6l5.12-4.27s0,0,0,0l.07-.06s0,0,0,0l.07-.06s0,0,0,0l.07-.06s0,0,0,0l.07-.06s0,0,0,0l.07-.06s0,0,0,0l.07-.06s0,0,0,0l.07-.06s0,0,0,0l.07-.06s0,0,0,0l.07-.06s0,0,0,0l.07-.06s0,0,0,0l.07-.06s0,0,0,0l.07-.06s0,0,0,0l.07-.06s0,0,0,0l.07-.06s0,0,0,0l.07-.06s0,0,0,0l.07-.06s0,0,0,0l.07-.06s0,0,0,0l.07-.06s0,0,0,0l.07-.06s0,0,0,0l.07-.06s0,0,0,0l.07-.06s0,0,0,0l.07-.06s0,0,0,0l.07-.06s0,0,0,0l.07-.06s0,0,0,0l.07-.06s0,0,0,0l.07-.06s0,0,0,0l.07-.06s0,0,0,0l.07-.06s0,0,0,0l.07-.06s0,0,0,0l.07-.06s0,0,0,0l.07-.06s0,0,0,0l.07-.06s0,0,0,0l.07-.06s0,0,0,0l.07-.06s0,0,0,0l.07-.06s0,0,0,0l.07-.06s0,0,0,0l.07-.06s0,0,0,0l.07-.06s0,0,0,0l.07-.06s0,0,0,0l.07-.06s0,0,0,0l.07-.06s0,0,0,0l.07-.06s0,0,0,0l.07-.06s0,0,0,0l.07-.06s0,0,0,0l.07-.06s0,0,0,0l.07-.06s0,0,0,0l.07-.06c-2.96-2.87-6.89-4.4-11.78-4.59-4.04-.17-7.49.53-10.37,2.11-1,.55-1.87,1.17-2.62,1.87-.02.02-.04.04-.06.06-.02.02-.04.04-.06.06-.02.02-.04.04-.06.06-.02.02-.04.04-.06.06-.02.02-.04.04-.06.06-.02.02-.04.04-.06.06-.02.02-.04.04-.06.06-.02.02-.04.04-.06.06-.02.02-.04.04-.06.06-.02.02-.04.04-.06.06-.02.02-.04.04-.06.06-.02.02-.04.04-.06.06-.02.02-.04.04-.06.06-.02.02-.04.04-.06.06-.02.02-.04.04-.06.06-.02.02-.04.04-.06.06-.02.02-.04.04-.06.06-.02.02-.04.04-.06.06-.02.02-.04.04-.06.06-.02.02-.04.04-.06.06-.02.02-.04.04-.06.06-.02.02-.04.04-.06.06-.02.02-.04.04-.06.06-.02.02-.04.04-.06.06-.02.02-.04.04-.06.06-.02.02-.04.04-.06.06-.02.02-.04.04-.06.06-.02.02-.04.04-.06.06-.02.02-.04.04-.06.06-.02.02-.04.04-.06.06-.02.02-.04.04-.06.06-.02.02-.04.04-.06.06-.02.02-.04.04-.06.06-.02.02-.04.04-.06.06-.02.02-.04.04-.06.06-.02.02-.04.04-.06.06-.02.02-.04.04-.06.06-.02.02-.04.04-.06.06-.02.02-.04.04-.06.06-.02.02-.04.04-.06.06-.02.02-.04.04-.06.06-.02.02-.04.04-.06.06-.02.02-.04.04-.06.06-.02.02-.04.04-.06.06-.02.02-.04.04-.06.06-2.17,1.94-3.32,4.47-3.47,7.59-.3,5.93,4.48,10.13,14.33,12.62,6.29,1.58,9.37,3.69,9.24,6.32-.03.43-.13.85-.29,1.26-1.59.86-3.5,1.26-5.72,1.18-1.74-.08-3.35-.45-4.83-1.13-1.67-.79-2.78-1.82-3.32-3.09l-6.57,2.16s.01.02.02.04l-.08.03s.01.02.02.04l-.08.03s.01.02.02.04l-.08.03s.01.02.02.04l-.08.03s.01.02.02.04l-.08.03s.01.02.02.04l-.08.03s.01.02.02.04l-.08.03s.01.02.02.04l-.08.03s.01.02.02.04l-.08.03s.01.02.02.04l-.08.03s.01.02.02.04l-.08.03s.01.02.02.04l-.08.03s.01.02.02.04l-.08.03s.01.02.02.04l-.08.03s.01.02.02.04l-.08.03s.01.02.02.04l-.08.03s.01.02.02.04l-.08.03s.01.02.02.04l-.08.03s.01.02.02.04l-.08.03s.01.02.02.04l-.08.03s.01.02.02.04l-.08.03s.01.02.02.04l-.08.03s.01.02.02.04l-.08.03s.01.02.02.04l-.08.03s.01.02.02.04l-.08.03s.01.02.02.04l-.08.03s.01.02.02.04l-.08.03s.01.02.02.04l-.08.03s.01.02.02.04l-.08.03s.01.02.02.04l-.08.03s.01.02.02.04l-.08.03s.01.02.02.04l-.08.03s.01.02.02.04l-.08.03s.01.02.02.04l-.08.03s.01.02.02.04l-.08.03s.01.02.02.04l-.08.03s.01.02.02.04l-.08.03s.01.02.02.04l-.08.03s.01.02.02.04l-.08.03s.01.02.02.04l-.08.03s.01.02.02.04l-.08.03s.01.02.02.04l-.08.03s.01.02.02.04l-.08.03s.01.02.02.04l-.08.03s.01.02.02.04l-.08.03s.01.02.02.04l-.08.03s.01.02.02.04l-.08.03c1.05,2.56,3.04,4.6,5.96,6.12,2.58,1.35,5.39,2.08,8.44,2.19.28.02.57.03.87.03,4.08,0,7.58-1.05,10.5-3.15.42-.3.81-.62,1.17-.94.35-.31.68-.62.99-.94.02-.02.04-.04.06-.06.02-.02.04-.04.06-.06.02-.02.04-.04.06-.06.02-.02.04-.04.06-.06.02-.02.04-.04.06-.06.02-.02.04-.04.06-.06.02-.02.04-.04.06-.06.02-.02.04-.04.06-.06.02-.02.04-.04.06-.06.02-.02.04-.04.06-.06.02-.02.04-.04.06-.06.02-.02.04-.04.06-.06.02-.02.04-.04.06-.06.02-.02.04-.04.06-.06.02-.02.04-.04.06-.06.02-.02.04-.04.06-.06.02-.02.04-.04.06-.06.02-.02.04-.04.06-.06.02-.02.04-.04.06-.06.02-.02.04-.04.06-.06.02-.02.04-.04.06-.06.02-.02.04-.04.06-.06.02-.02.04-.04.06-.06.02-.02.04-.04.06-.06.02-.02.04-.04.06-.06.02-.02.04-.04.06-.06.02-.02.04-.04.06-.06.02-.02.04-.04.06-.06.02-.02.04-.04.06-.06.02-.02.04-.04.06-.06.02-.02.04-.04.06-.06.02-.02.04-.04.06-.06.02-.02.04-.04.06-.06.02-.02.04-.04.06-.06.02-.02.04-.04.06-.06.02-.02.04-.04.06-.06.02-.02.04-.04.06-.06.02-.02.04-.04.06-.06.02-.02.04-.04.06-.06.02-.02.04-.04.06-.06.02-.02.04-.04.06-.06.02-.02.04-.04.06-.06.02-.02.04-.04.06-.06.02-.02.04-.04.06-.06.03-.03.06-.06.09-.1,1.8-1.89,2.77-4.07,2.9-6.53.11-2.33-.65-4.46-2.29-6.38-2.36-2.77-6.38-4.87-12.04-6.29Z"/>
            <polygon points="1094.13 995.51 1094.09 995.58 1094.06 995.58 1094.02 995.64 1094 995.64 1093.96 995.71 1093.94 995.71 1093.89 995.77 1093.87 995.77 1093.83 995.84 1093.81 995.84 1093.77 995.9 1093.74 995.9 1093.7 995.96 1093.68 995.96 1093.64 996.03 1093.62 996.03 1093.57 996.09 1093.55 996.09 1093.51 996.16 1093.49 996.16 1093.45 996.22 1093.43 996.22 1093.38 996.29 1093.36 996.29 1093.32 996.35 1093.3 996.35 1093.26 996.41 1093.23 996.41 1093.19 996.48 1093.17 996.48 1093.13 996.54 1093.11 996.54 1093.06 996.61 1093.04 996.61 1093 996.67 1092.98 996.67 1092.94 996.74 1092.92 996.74 1092.87 996.8 1092.85 996.8 1092.81 996.86 1092.79 996.86 1092.75 996.93 1092.72 996.93 1092.68 996.99 1092.66 996.99 1092.62 997.06 1092.6 997.06 1092.55 997.12 1092.53 997.12 1092.49 997.19 1092.47 997.19 1092.43 997.25 1092.41 997.25 1092.36 997.31 1092.34 997.31 1092.3 997.38 1092.28 997.38 1092.24 997.44 1092.21 997.44 1092.17 997.51 1092.15 997.51 1092.11 997.57 1092.09 997.57 1092.04 997.64 1092.02 997.64 1091.98 997.7 1091.96 997.7 1091.92 997.76 1091.89 997.76 1091.85 997.83 1091.83 997.83 1091.79 997.89 1091.77 997.89 1091.72 997.96 1091.7 997.96 1091.66 998.02 1091.64 998.02 1091.6 998.09 1091.58 998.09 1091.53 998.15 1091.51 998.15 1091.47 998.21 1091.45 998.21 1091.41 998.28 1091.38 998.28 1091.34 998.34 1091.32 998.34 1091.28 998.41 1091.26 998.41 1091.21 998.47 1091.19 998.47 1091.15 998.54 1091.13 998.54 1083.87 1009.58 1074.62 995.51 1066.5 995.51 1066.54 995.58 1066.44 995.58 1066.48 995.64 1066.37 995.64 1066.42 995.71 1066.31 995.71 1066.35 995.77 1066.25 995.77 1066.29 995.84 1066.18 995.84 1066.23 995.9 1066.12 995.9 1066.16 995.96 1066.06 995.96 1066.1 996.03 1065.99 996.03 1066.03 996.09 1065.93 996.09 1065.97 996.16 1065.86 996.16 1065.91 996.22 1065.8 996.22 1065.84 996.29 1065.74 996.29 1065.78 996.35 1065.67 996.35 1065.71 996.41 1065.61 996.41 1065.65 996.48 1065.54 996.48 1065.59 996.54 1065.48 996.54 1065.52 996.61 1065.42 996.61 1065.46 996.67 1065.35 996.67 1065.4 996.74 1065.29 996.74 1065.33 996.8 1065.23 996.8 1065.27 996.86 1065.16 996.86 1065.2 996.93 1065.1 996.93 1065.14 996.99 1065.03 996.99 1065.08 997.06 1064.97 997.06 1065.01 997.12 1064.91 997.12 1064.95 997.19 1064.84 997.19 1064.89 997.25 1064.78 997.25 1064.82 997.31 1064.72 997.31 1064.76 997.38 1064.65 997.38 1064.69 997.44 1064.59 997.44 1064.63 997.51 1064.52 997.51 1064.57 997.57 1064.46 997.57 1064.5 997.64 1064.4 997.64 1064.44 997.7 1064.33 997.7 1064.37 997.76 1064.27 997.76 1064.31 997.83 1064.21 997.83 1064.25 997.89 1064.14 997.89 1064.18 997.96 1064.08 997.96 1064.12 998.02 1064.01 998.02 1064.06 998.09 1063.95 998.09 1063.99 998.15 1063.89 998.15 1063.93 998.21 1063.82 998.21 1063.86 998.28 1063.76 998.28 1063.8 998.34 1063.69 998.34 1063.74 998.41 1063.63 998.41 1063.67 998.47 1063.57 998.47 1063.61 998.54 1063.5 998.54 1077.86 1020.42 1077.86 1039.85 1084.88 1039.85 1084.88 1039.79 1084.95 1039.79 1084.95 1039.72 1085.01 1039.72 1085.01 1039.66 1085.07 1039.66 1085.07 1039.59 1085.14 1039.59 1085.14 1039.53 1085.2 1039.53 1085.2 1039.47 1085.27 1039.47 1085.27 1039.4 1085.33 1039.4 1085.33 1039.34 1085.39 1039.34 1085.39 1039.27 1085.46 1039.27 1085.46 1039.21 1085.52 1039.21 1085.52 1039.14 1085.58 1039.14 1085.58 1039.08 1085.65 1039.08 1085.65 1039.02 1085.71 1039.02 1085.71 1038.95 1085.78 1038.95 1085.78 1038.89 1085.84 1038.89 1085.84 1038.82 1085.9 1038.82 1085.9 1038.76 1085.97 1038.76 1085.97 1038.69 1086.03 1038.69 1086.03 1038.63 1086.09 1038.63 1086.09 1038.57 1086.16 1038.57 1086.16 1038.5 1086.22 1038.5 1086.22 1038.44 1086.29 1038.44 1086.29 1038.37 1086.35 1038.37 1086.35 1038.31 1086.41 1038.31 1086.41 1038.24 1086.48 1038.24 1086.48 1038.18 1086.54 1038.18 1086.54 1038.12 1086.61 1038.12 1086.61 1038.05 1086.67 1038.05 1086.67 1037.99 1086.73 1037.99 1086.73 1037.92 1086.8 1037.92 1086.8 1037.86 1086.86 1037.86 1086.86 1037.79 1086.92 1037.79 1086.92 1037.73 1086.99 1037.73 1086.99 1037.67 1087.05 1037.67 1087.05 1037.6 1087.12 1037.6 1087.12 1037.54 1087.18 1037.54 1087.18 1037.47 1087.24 1037.47 1087.24 1037.41 1087.31 1037.41 1087.31 1037.34 1087.37 1037.34 1087.37 1037.28 1087.43 1037.28 1087.43 1037.22 1087.5 1037.22 1087.5 1037.15 1087.56 1037.15 1087.56 1037.09 1087.63 1037.09 1087.63 1037.02 1087.69 1037.02 1087.69 1036.96 1087.75 1036.96 1087.75 1036.89 1087.82 1036.89 1087.82 1036.83 1087.88 1036.83 1087.88 1017.4 1102.24 995.51 1094.13 995.51"/>
            <path d="M1119.02,1013.1c-6.29-1.58-9.37-3.67-9.24-6.27.03-.56.12-1.08.28-1.55.12-.05.23-.11.36-.16,1.48-.56,3.27-.8,5.38-.72,2.98.12,5.31.98,6.99,2.6l5.12-4.27s0,0,0,0l.07-.06s0,0,0,0l.07-.06s0,0,0,0l.07-.06s0,0,0,0l.07-.06s0,0,0,0l.07-.06s0,0,0,0l.07-.06s0,0,0,0l.07-.06s0,0,0,0l.07-.06s0,0,0,0l.07-.06s0,0,0,0l.07-.06s0,0,0,0l.07-.06s0,0,0,0l.07-.06s0,0,0,0l.07-.06s0,0,0,0l.07-.06s0,0,0,0l.07-.06s0,0,0,0l.07-.06s0,0,0,0l.07-.06s0,0,0,0l.07-.06s0,0,0,0l.07-.06s0,0,0,0l.07-.06s0,0,0,0l.07-.06s0,0,0,0l.07-.06s0,0,0,0l.07-.06s0,0,0,0l.07-.06s0,0,0,0l.07-.06s0,0,0,0l.07-.06s0,0,0,0l.07-.06s0,0,0,0l.07-.06s0,0,0,0l.07-.06s0,0,0,0l.07-.06s0,0,0,0l.07-.06s0,0,0,0l.07-.06s0,0,0,0l.07-.06s0,0,0,0l.07-.06s0,0,0,0l.07-.06s0,0,0,0l.07-.06s0,0,0,0l.07-.06s0,0,0,0l.07-.06s0,0,0,0l.07-.06s0,0,0,0l.07-.06s0,0,0,0l.07-.06s0,0,0,0l.07-.06s0,0,0,0l.07-.06s0,0,0,0l.07-.06s0,0,0,0l.07-.06s0,0,0,0l.07-.06s0,0,0,0l.07-.06c-2.96-2.87-6.89-4.4-11.78-4.59-4.04-.17-7.49.53-10.37,2.11-1,.55-1.87,1.17-2.62,1.87-.02.02-.04.04-.06.06-.02.02-.04.04-.06.06-.02.02-.04.04-.06.06-.02.02-.04.04-.06.06-.02.02-.04.04-.06.06-.02.02-.04.04-.06.06-.02.02-.04.04-.06.06-.02.02-.04.04-.06.06-.02.02-.04.04-.06.06-.02.02-.04.04-.06.06-.02.02-.04.04-.06.06-.02.02-.04.04-.06.06-.02.02-.04.04-.06.06-.02.02-.04.04-.06.06-.02.02-.04.04-.06.06-.02.02-.04.04-.06.06-.02.02-.04.04-.06.06-.02.02-.04.04-.06.06-.02.02-.04.04-.06.06-.02.02-.04.04-.06.06-.02.02-.04.04-.06.06-.02.02-.04.04-.06.06-.02.02-.04.04-.06.06-.02.02-.04.04-.06.06-.02.02-.04.04-.06.06-.02.02-.04.04-.06.06-.02.02-.04.04-.06.06-.02.02-.04.04-.06.06-.02.02-.04.04-.06.06-.02.02-.04.04-.06.06-.02.02-.04.04-.06.06-.02.02-.04.04-.06.06-.02.02-.04.04-.06.06-.02.02-.04.04-.06.06-.02.02-.04.04-.06.06-.02.02-.04.04-.06.06-.02.02-.04.04-.06.06-.02.02-.04.04-.06.06-.02.02-.04.04-.06.06-.02.02-.04.04-.06.06-.02.02-.04.04-.06.06-.02.02-.04.04-.06.06-.02.02-.04.04-.06.06-.02.02-.04.04-.06.06-.02.02-.04.04-.06.06-2.17,1.94-3.32,4.47-3.47,7.59-.3,5.93,4.48,10.13,14.33,12.62,6.29,1.58,9.37,3.69,9.24,6.32-.03.43-.13.85-.29,1.26-1.59.86-3.5,1.26-5.72,1.18-1.74-.08-3.35-.45-4.83-1.13-1.67-.79-2.78-1.82-3.32-3.09l-6.57,2.16s.01.02.02.04l-.08.03s.01.02.02.04l-.08.03s.01.02.02.04l-.08.03s.01.02.02.04l-.08.03s.01.02.02.04l-.08.03s.01.02.02.04l-.08.03s.01.02.02.04l-.08.03s.01.02.02.04l-.08.03s.01.02.02.04l-.08.03s.01.02.02.04l-.08.03s.01.02.02.04l-.08.03s.01.02.02.04l-.08.03s.01.02.02.04l-.08.03s.01.02.02.04l-.08.03s.01.02.02.04l-.08.03s.01.02.02.04l-.08.03s.01.02.02.04l-.08.03s.01.02.02.04l-.08.03s.01.02.02.04l-.08.03s.01.02.02.04l-.08.03s.01.02.02.04l-.08.03s.01.02.02.04l-.08.03s.01.02.02.04l-.08.03s.01.02.02.04l-.08.03s.01.02.02.04l-.08.03s.01.02.02.04l-.08.03s.01.02.02.04l-.08.03s.01.02.02.04l-.08.03s.01.02.02.04l-.08.03s.01.02.02.04l-.08.03s.01.02.02.04l-.08.03s.01.02.02.04l-.08.03s.01.02.02.04l-.08.03s.01.02.02.04l-.08.03s.01.02.02.04l-.08.03s.01.02.02.04l-.08.03s.01.02.02.04l-.08.03s.01.02.02.04l-.08.03s.01.02.02.04l-.08.03s.01.02.02.04l-.08.03s.01.02.02.04l-.08.03s.01.02.02.04l-.08.03s.01.02.02.04l-.08.03s.01.02.02.04l-.08.03s.01.02.02.04l-.08.03s.01.02.02.04l-.08.03s.01.02.02.04l-.08.03c1.05,2.56,3.04,4.6,5.96,6.12,2.58,1.35,5.39,2.08,8.44,2.19.28.02.57.03.87.03,4.08,0,7.58-1.05,10.5-3.15.42-.3.81-.62,1.17-.94.35-.31.68-.62.99-.94.02-.02.04-.04.06-.06.02-.02.04-.04.06-.06.02-.02.04-.04.06-.06.02-.02.04-.04.06-.06.02-.02.04-.04.06-.06.02-.02.04-.04.06-.06.02-.02.04-.04.06-.06.02-.02.04-.04.06-.06.02-.02.04-.04.06-.06.02-.02.04-.04.06-.06.02-.02.04-.04.06-.06.02-.02.04-.04.06-.06.02-.02.04-.04.06-.06.02-.02.04-.04.06-.06.02-.02.04-.04.06-.06.02-.02.04-.04.06-.06.02-.02.04-.04.06-.06.02-.02.04-.04.06-.06.02-.02.04-.04.06-.06.02-.02.04-.04.06-.06.02-.02.04-.04.06-.06.02-.02.04-.04.06-.06.02-.02.04-.04.06-.06.02-.02.04-.04.06-.06.02-.02.04-.04.06-.06.02-.02.04-.04.06-.06.02-.02.04-.04.06-.06.02-.02.04-.04.06-.06.02-.02.04-.04.06-.06.02-.02.04-.04.06-.06.02-.02.04-.04.06-.06.02-.02.04-.04.06-.06.02-.02.04-.04.06-.06.02-.02.04-.04.06-.06.02-.02.04-.04.06-.06.02-.02.04-.04.06-.06.02-.02.04-.04.06-.06.02-.02.04-.04.06-.06.02-.02.04-.04.06-.06.02-.02.04-.04.06-.06.02-.02.04-.04.06-.06.02-.02.04-.04.06-.06.02-.02.04-.04.06-.06.02-.02.04-.04.06-.06.03-.03.06-.06.09-.1,1.8-1.89,2.77-4.07,2.9-6.53.11-2.33-.65-4.46-2.29-6.38-2.36-2.77-6.38-4.87-12.04-6.29Z"/>
            <polygon points="1135.99 995.58 1135.92 995.58 1135.92 995.64 1135.86 995.64 1135.86 995.71 1135.8 995.71 1135.8 995.77 1135.73 995.77 1135.73 995.84 1135.67 995.84 1135.67 995.9 1135.6 995.9 1135.6 995.96 1135.54 995.96 1135.54 996.03 1135.48 996.03 1135.48 996.09 1135.41 996.09 1135.41 996.16 1135.35 996.16 1135.35 996.22 1135.29 996.22 1135.29 996.29 1135.22 996.29 1135.22 996.35 1135.16 996.35 1135.16 996.41 1135.09 996.41 1135.09 996.48 1135.03 996.48 1135.03 996.54 1134.97 996.54 1134.97 996.61 1134.9 996.61 1134.9 996.67 1134.84 996.67 1134.84 996.74 1134.77 996.74 1134.77 996.8 1134.71 996.8 1134.71 996.86 1134.65 996.86 1134.65 996.93 1134.58 996.93 1134.58 996.99 1134.52 996.99 1134.52 997.06 1134.46 997.06 1134.46 997.12 1134.39 997.12 1134.39 997.19 1134.33 997.19 1134.33 997.25 1134.26 997.25 1134.26 997.31 1134.2 997.31 1134.2 997.38 1134.14 997.38 1134.14 997.44 1134.07 997.44 1134.07 997.51 1134.01 997.51 1134.01 997.57 1133.95 997.57 1133.95 997.64 1133.88 997.64 1133.88 997.7 1133.82 997.7 1133.82 997.76 1133.75 997.76 1133.75 997.83 1133.69 997.83 1133.69 997.89 1133.63 997.89 1133.63 997.96 1133.56 997.96 1133.56 998.02 1133.5 998.02 1133.5 998.09 1133.44 998.09 1133.44 998.15 1133.37 998.15 1133.37 998.21 1133.31 998.21 1133.31 998.28 1133.24 998.28 1133.24 998.34 1133.18 998.34 1133.18 998.41 1133.12 998.41 1133.12 998.47 1133.05 998.47 1133.05 998.54 1132.99 998.54 1132.99 1004.8 1142.74 1004.8 1142.74 1039.85 1149.76 1039.85 1149.76 1039.79 1149.83 1039.79 1149.83 1039.72 1149.89 1039.72 1149.89 1039.66 1149.96 1039.66 1149.96 1039.59 1150.02 1039.59 1150.02 1039.53 1150.08 1039.53 1150.08 1039.47 1150.15 1039.47 1150.15 1039.4 1150.21 1039.4 1150.21 1039.34 1150.27 1039.34 1150.27 1039.27 1150.34 1039.27 1150.34 1039.21 1150.4 1039.21 1150.4 1039.14 1150.47 1039.14 1150.47 1039.08 1150.53 1039.08 1150.53 1039.02 1150.59 1039.02 1150.59 1038.95 1150.66 1038.95 1150.66 1038.89 1150.72 1038.89 1150.72 1038.82 1150.78 1038.82 1150.78 1038.76 1150.85 1038.76 1150.85 1038.69 1150.91 1038.69 1150.91 1038.63 1150.98 1038.63 1150.98 1038.57 1151.04 1038.57 1151.04 1038.5 1151.1 1038.5 1151.1 1038.44 1151.17 1038.44 1151.17 1038.37 1151.23 1038.37 1151.23 1038.31 1151.29 1038.31 1151.29 1038.24 1151.36 1038.24 1151.36 1038.18 1151.42 1038.18 1151.42 1038.12 1151.49 1038.12 1151.49 1038.05 1151.55 1038.05 1151.55 1037.99 1151.61 1037.99 1151.61 1037.92 1151.68 1037.92 1151.68 1037.86 1151.74 1037.86 1151.74 1037.79 1151.81 1037.79 1151.81 1037.73 1151.87 1037.73 1151.87 1037.67 1151.93 1037.67 1151.93 1037.6 1152 1037.6 1152 1037.54 1152.06 1037.54 1152.06 1037.47 1152.12 1037.47 1152.12 1037.41 1152.19 1037.41 1152.19 1037.34 1152.25 1037.34 1152.25 1037.28 1152.32 1037.28 1152.32 1037.22 1152.38 1037.22 1152.38 1037.15 1152.44 1037.15 1152.44 1037.09 1152.51 1037.09 1152.51 1037.02 1152.57 1037.02 1152.57 1036.96 1152.63 1036.96 1152.63 1036.89 1152.7 1036.89 1152.7 1036.83 1152.76 1036.83 1152.76 1004.8 1159.52 1004.8 1159.52 1004.74 1159.58 1004.74 1159.58 1004.67 1159.65 1004.67 1159.65 1004.61 1159.71 1004.61 1159.71 1004.54 1159.77 1004.54 1159.77 1004.48 1159.84 1004.48 1159.84 1004.42 1159.9 1004.42 1159.9 1004.35 1159.97 1004.35 1159.97 1004.29 1160.03 1004.29 1160.03 1004.22 1160.09 1004.22 1160.09 1004.16 1160.16 1004.16 1160.16 1004.09 1160.22 1004.09 1160.22 1004.03 1160.29 1004.03 1160.29 1003.97 1160.35 1003.97 1160.35 1003.9 1160.41 1003.9 1160.41 1003.84 1160.48 1003.84 1160.48 1003.77 1160.54 1003.77 1160.54 1003.71 1160.6 1003.71 1160.6 1003.64 1160.67 1003.64 1160.67 1003.58 1160.73 1003.58 1160.73 1003.52 1160.8 1003.52 1160.8 1003.45 1160.86 1003.45 1160.86 1003.39 1160.92 1003.39 1160.92 1003.32 1160.99 1003.32 1160.99 1003.26 1161.05 1003.26 1161.05 1003.19 1161.11 1003.19 1161.11 1003.13 1161.18 1003.13 1161.18 1003.07 1161.24 1003.07 1161.24 1003 1161.31 1003 1161.31 1002.94 1161.37 1002.94 1161.37 1002.87 1161.43 1002.87 1161.43 1002.81 1161.5 1002.81 1161.5 1002.74 1161.56 1002.74 1161.56 1002.68 1161.62 1002.68 1161.62 1002.62 1161.69 1002.62 1161.69 1002.55 1161.75 1002.55 1161.75 1002.49 1161.82 1002.49 1161.82 1002.42 1161.88 1002.42 1161.88 1002.36 1161.94 1002.36 1161.94 1002.29 1162.01 1002.29 1162.01 1002.23 1162.07 1002.23 1162.07 1002.17 1162.14 1002.17 1162.14 1002.1 1162.2 1002.1 1162.2 1002.04 1162.26 1002.04 1162.26 1001.97 1162.33 1001.97 1162.33 1001.91 1162.39 1001.91 1162.39 1001.84 1162.45 1001.84 1162.45 1001.78 1162.52 1001.78 1162.52 995.51 1135.99 995.51 1135.99 995.58"/>
            <polygon points="1167.48 995.58 1167.41 995.58 1167.41 995.64 1167.35 995.64 1167.35 995.71 1167.29 995.71 1167.29 995.77 1167.22 995.77 1167.22 995.84 1167.16 995.84 1167.16 995.9 1167.1 995.9 1167.1 995.96 1167.03 995.96 1167.03 996.03 1166.97 996.03 1166.97 996.09 1166.9 996.09 1166.9 996.16 1166.84 996.16 1166.84 996.22 1166.78 996.22 1166.78 996.29 1166.71 996.29 1166.71 996.35 1166.65 996.35 1166.65 996.41 1166.59 996.41 1166.59 996.48 1166.52 996.48 1166.52 996.54 1166.46 996.54 1166.46 996.61 1166.39 996.61 1166.39 996.67 1166.33 996.67 1166.33 996.74 1166.27 996.74 1166.27 996.8 1166.2 996.8 1166.2 996.86 1166.14 996.86 1166.14 996.93 1166.07 996.93 1166.07 996.99 1166.01 996.99 1166.01 997.06 1165.95 997.06 1165.95 997.12 1165.88 997.12 1165.88 997.19 1165.82 997.19 1165.82 997.25 1165.76 997.25 1165.76 997.31 1165.69 997.31 1165.69 997.38 1165.63 997.38 1165.63 997.44 1165.56 997.44 1165.56 997.51 1165.5 997.51 1165.5 997.57 1165.44 997.57 1165.44 997.64 1165.37 997.64 1165.37 997.7 1165.31 997.7 1165.31 997.76 1165.25 997.76 1165.25 997.83 1165.18 997.83 1165.18 997.89 1165.12 997.89 1165.12 997.96 1165.05 997.96 1165.05 998.02 1164.99 998.02 1164.99 998.09 1164.93 998.09 1164.93 998.15 1164.86 998.15 1164.86 998.21 1164.8 998.21 1164.8 998.28 1164.74 998.28 1164.74 998.34 1164.67 998.34 1164.67 998.41 1164.61 998.41 1164.61 998.47 1164.54 998.47 1164.54 998.54 1164.48 998.54 1164.48 1039.85 1187.98 1039.85 1187.98 1039.79 1188.05 1039.79 1188.05 1039.72 1188.11 1039.72 1188.11 1039.66 1188.18 1039.66 1188.18 1039.59 1188.24 1039.59 1188.24 1039.53 1188.3 1039.53 1188.3 1039.47 1188.37 1039.47 1188.37 1039.4 1188.43 1039.4 1188.43 1039.34 1188.49 1039.34 1188.49 1039.27 1188.56 1039.27 1188.56 1039.21 1188.62 1039.21 1188.62 1039.14 1188.69 1039.14 1188.69 1039.08 1188.75 1039.08 1188.75 1039.02 1188.81 1039.02 1188.81 1038.95 1188.88 1038.95 1188.88 1038.89 1188.94 1038.89 1188.94 1038.82 1189 1038.82 1189 1038.76 1189.07 1038.76 1189.07 1038.69 1189.13 1038.69 1189.13 1038.63 1189.2 1038.63 1189.2 1038.57 1189.26 1038.57 1189.26 1038.5 1189.32 1038.5 1189.32 1038.44 1189.39 1038.44 1189.39 1038.37 1189.45 1038.37 1189.45 1038.31 1189.52 1038.31 1189.52 1038.24 1189.58 1038.24 1189.58 1038.18 1189.64 1038.18 1189.64 1038.12 1189.71 1038.12 1189.71 1038.05 1189.77 1038.05 1189.77 1037.99 1189.83 1037.99 1189.83 1037.92 1189.9 1037.92 1189.9 1037.86 1189.96 1037.86 1189.96 1037.79 1190.03 1037.79 1190.03 1037.73 1190.09 1037.73 1190.09 1037.67 1190.15 1037.67 1190.15 1037.6 1190.22 1037.6 1190.22 1037.54 1190.28 1037.54 1190.28 1037.47 1190.34 1037.47 1190.34 1037.41 1190.41 1037.41 1190.41 1037.34 1190.47 1037.34 1190.47 1037.28 1190.54 1037.28 1190.54 1037.22 1190.6 1037.22 1190.6 1037.15 1190.66 1037.15 1190.66 1037.09 1190.73 1037.09 1190.73 1037.02 1190.79 1037.02 1190.79 1036.96 1190.86 1036.96 1190.86 1036.89 1190.92 1036.89 1190.92 1036.83 1190.98 1036.83 1190.98 1030.56 1174.47 1030.56 1174.47 1022.27 1184.22 1022.27 1184.22 1022.2 1184.28 1022.2 1184.28 1022.14 1184.34 1022.14 1184.34 1022.08 1184.41 1022.08 1184.41 1022.01 1184.47 1022.01 1184.47 1021.95 1184.54 1021.95 1184.54 1021.88 1184.6 1021.88 1184.6 1021.82 1184.66 1021.82 1184.66 1021.75 1184.73 1021.75 1184.73 1021.69 1184.79 1021.69 1184.79 1021.63 1184.86 1021.63 1184.86 1021.56 1184.92 1021.56 1184.92 1021.5 1184.98 1021.5 1184.98 1021.43 1185.05 1021.43 1185.05 1021.37 1185.11 1021.37 1185.11 1021.3 1185.17 1021.3 1185.17 1021.24 1185.24 1021.24 1185.24 1021.18 1185.3 1021.18 1185.3 1021.11 1185.37 1021.11 1185.37 1021.05 1185.43 1021.05 1185.43 1020.98 1185.49 1020.98 1185.49 1020.92 1185.56 1020.92 1185.56 1020.85 1185.62 1020.85 1185.62 1020.79 1185.68 1020.79 1185.68 1020.73 1185.75 1020.73 1185.75 1020.66 1185.81 1020.66 1185.81 1020.6 1185.88 1020.6 1185.88 1020.53 1185.94 1020.53 1185.94 1020.47 1186 1020.47 1186 1020.4 1186.07 1020.4 1186.07 1020.34 1186.13 1020.34 1186.13 1020.28 1186.19 1020.28 1186.19 1020.21 1186.26 1020.21 1186.26 1020.15 1186.32 1020.15 1186.32 1020.08 1186.39 1020.08 1186.39 1020.02 1186.45 1020.02 1186.45 1019.95 1186.51 1019.95 1186.51 1019.89 1186.58 1019.89 1186.58 1019.83 1186.64 1019.83 1186.64 1019.76 1186.71 1019.76 1186.71 1019.7 1186.77 1019.7 1186.77 1019.63 1186.83 1019.63 1186.83 1019.57 1186.9 1019.57 1186.9 1019.5 1186.96 1019.5 1186.96 1019.44 1187.02 1019.44 1187.02 1019.38 1187.09 1019.38 1187.09 1019.31 1187.15 1019.31 1187.15 1019.25 1187.22 1019.25 1187.22 1012.98 1174.47 1012.98 1174.47 1004.8 1187.98 1004.8 1187.98 1004.74 1188.05 1004.74 1188.05 1004.67 1188.11 1004.67 1188.11 1004.61 1188.18 1004.61 1188.18 1004.54 1188.24 1004.54 1188.24 1004.48 1188.3 1004.48 1188.3 1004.42 1188.37 1004.42 1188.37 1004.35 1188.43 1004.35 1188.43 1004.29 1188.49 1004.29 1188.49 1004.22 1188.56 1004.22 1188.56 1004.16 1188.62 1004.16 1188.62 1004.09 1188.69 1004.09 1188.69 1004.03 1188.75 1004.03 1188.75 1003.97 1188.81 1003.97 1188.81 1003.9 1188.88 1003.9 1188.88 1003.84 1188.94 1003.84 1188.94 1003.77 1189 1003.77 1189 1003.71 1189.07 1003.71 1189.07 1003.64 1189.13 1003.64 1189.13 1003.58 1189.2 1003.58 1189.2 1003.52 1189.26 1003.52 1189.26 1003.45 1189.32 1003.45 1189.32 1003.39 1189.39 1003.39 1189.39 1003.32 1189.45 1003.32 1189.45 1003.26 1189.52 1003.26 1189.52 1003.19 1189.58 1003.19 1189.58 1003.13 1189.64 1003.13 1189.64 1003.07 1189.71 1003.07 1189.71 1003 1189.77 1003 1189.77 1002.94 1189.83 1002.94 1189.83 1002.87 1189.9 1002.87 1189.9 1002.81 1189.96 1002.81 1189.96 1002.74 1190.03 1002.74 1190.03 1002.68 1190.09 1002.68 1190.09 1002.62 1190.15 1002.62 1190.15 1002.55 1190.22 1002.55 1190.22 1002.49 1190.28 1002.49 1190.28 1002.42 1190.34 1002.42 1190.34 1002.36 1190.41 1002.36 1190.41 1002.29 1190.47 1002.29 1190.47 1002.23 1190.54 1002.23 1190.54 1002.17 1190.6 1002.17 1190.6 1002.1 1190.66 1002.1 1190.66 1002.04 1190.73 1002.04 1190.73 1001.97 1190.79 1001.97 1190.79 1001.91 1190.86 1001.91 1190.86 1001.84 1190.92 1001.84 1190.92 1001.78 1190.98 1001.78 1190.98 995.51 1167.48 995.51 1167.48 995.58"/>
            <polygon points="1242.95 995.51 1235.64 995.51 1235.61 995.58 1235.58 995.58 1235.55 995.64 1235.51 995.64 1235.48 995.71 1235.45 995.71 1235.42 995.77 1235.39 995.77 1235.36 995.84 1235.32 995.84 1235.29 995.9 1235.26 995.9 1235.23 995.96 1235.2 995.96 1235.16 996.03 1235.13 996.03 1235.1 996.09 1235.07 996.09 1235.04 996.16 1235 996.16 1234.97 996.22 1234.94 996.22 1234.91 996.29 1234.88 996.29 1234.85 996.35 1234.81 996.35 1234.78 996.41 1234.75 996.41 1234.72 996.48 1234.69 996.48 1234.65 996.54 1234.62 996.54 1234.59 996.61 1234.56 996.61 1234.53 996.67 1234.49 996.67 1234.46 996.74 1234.43 996.74 1234.4 996.8 1234.37 996.8 1234.34 996.86 1234.3 996.86 1234.27 996.93 1234.24 996.93 1234.21 996.99 1234.17 996.99 1234.14 997.06 1234.11 997.06 1234.08 997.12 1234.05 997.12 1234.02 997.19 1233.98 997.19 1233.95 997.25 1233.92 997.25 1233.89 997.31 1233.86 997.31 1233.82 997.38 1233.79 997.38 1233.76 997.44 1233.73 997.44 1233.7 997.51 1233.66 997.51 1233.63 997.57 1233.6 997.57 1233.57 997.64 1233.54 997.64 1233.51 997.7 1233.47 997.7 1233.44 997.76 1233.41 997.76 1233.38 997.83 1233.35 997.83 1233.31 997.89 1233.28 997.89 1233.25 997.96 1233.22 997.96 1233.19 998.02 1233.15 998.02 1233.12 998.09 1233.09 998.09 1233.06 998.15 1233.03 998.15 1233 998.21 1232.96 998.21 1232.93 998.28 1232.9 998.28 1232.87 998.34 1232.84 998.34 1232.8 998.41 1232.77 998.41 1232.74 998.47 1232.71 998.47 1232.68 998.54 1232.64 998.54 1218.46 1027.66 1202.99 995.51 1195.68 995.51 1195.68 995.58 1195.62 995.58 1195.62 995.64 1195.56 995.64 1195.56 995.71 1195.49 995.71 1195.49 995.77 1195.43 995.77 1195.43 995.84 1195.37 995.84 1195.37 995.9 1195.3 995.9 1195.3 995.96 1195.24 995.96 1195.24 996.03 1195.17 996.03 1195.17 996.09 1195.11 996.09 1195.11 996.16 1195.05 996.16 1195.05 996.22 1194.98 996.22 1194.98 996.29 1194.92 996.29 1194.92 996.35 1194.86 996.35 1194.86 996.41 1194.79 996.41 1194.79 996.48 1194.73 996.48 1194.73 996.54 1194.66 996.54 1194.66 996.61 1194.6 996.61 1194.6 996.67 1194.54 996.67 1194.54 996.74 1194.47 996.74 1194.47 996.8 1194.41 996.8 1194.41 996.86 1194.34 996.86 1194.34 996.93 1194.28 996.93 1194.28 996.99 1194.22 996.99 1194.22 997.06 1194.15 997.06 1194.15 997.12 1194.09 997.12 1194.09 997.19 1194.03 997.19 1194.03 997.25 1193.96 997.25 1193.96 997.31 1193.9 997.31 1193.9 997.38 1193.83 997.38 1193.83 997.44 1193.77 997.44 1193.77 997.51 1193.71 997.51 1193.71 997.57 1193.64 997.57 1193.64 997.64 1193.58 997.64 1193.58 997.7 1193.52 997.7 1193.52 997.76 1193.45 997.76 1193.45 997.83 1193.39 997.83 1193.39 997.89 1193.32 997.89 1193.32 997.96 1193.26 997.96 1193.26 998.02 1193.2 998.02 1193.2 998.09 1193.13 998.09 1193.13 998.15 1193.07 998.15 1193.07 998.21 1193.01 998.21 1193.01 998.28 1192.94 998.28 1192.94 998.34 1192.88 998.34 1192.88 998.41 1192.81 998.41 1192.81 998.47 1192.75 998.47 1192.75 998.54 1192.69 998.54 1192.69 1039.85 1199.67 1039.85 1199.67 1039.79 1199.74 1039.79 1199.74 1039.72 1199.8 1039.72 1199.8 1039.66 1199.86 1039.66 1199.86 1039.59 1199.93 1039.59 1199.93 1039.53 1199.99 1039.53 1199.99 1039.47 1200.06 1039.47 1200.06 1039.4 1200.12 1039.4 1200.12 1039.34 1200.18 1039.34 1200.18 1039.27 1200.25 1039.27 1200.25 1039.21 1200.31 1039.21 1200.31 1039.14 1200.37 1039.14 1200.37 1039.08 1200.44 1039.08 1200.44 1039.02 1200.5 1039.02 1200.5 1038.95 1200.57 1038.95 1200.57 1038.89 1200.63 1038.89 1200.63 1038.82 1200.69 1038.82 1200.69 1038.76 1200.76 1038.76 1200.76 1038.69 1200.82 1038.69 1200.82 1038.63 1200.89 1038.63 1200.89 1038.57 1200.95 1038.57 1200.95 1038.5 1201.01 1038.5 1201.01 1038.44 1201.08 1038.44 1201.08 1038.37 1201.14 1038.37 1201.14 1038.31 1201.2 1038.31 1201.2 1038.24 1201.27 1038.24 1201.27 1038.18 1201.33 1038.18 1201.33 1038.12 1201.4 1038.12 1201.4 1038.05 1201.46 1038.05 1201.46 1037.99 1201.52 1037.99 1201.52 1037.92 1201.59 1037.92 1201.59 1037.86 1201.65 1037.86 1201.65 1037.79 1201.71 1037.79 1201.71 1037.73 1201.78 1037.73 1201.78 1037.67 1201.84 1037.67 1201.84 1037.6 1201.91 1037.6 1201.91 1037.54 1201.97 1037.54 1201.97 1037.47 1202.03 1037.47 1202.03 1037.41 1202.1 1037.41 1202.1 1037.34 1202.16 1037.34 1202.16 1037.28 1202.23 1037.28 1202.23 1037.22 1202.29 1037.22 1202.29 1037.15 1202.35 1037.15 1202.35 1037.09 1202.42 1037.09 1202.42 1037.02 1202.48 1037.02 1202.48 1036.96 1202.54 1036.96 1202.54 1036.89 1202.61 1036.89 1202.61 1036.83 1202.67 1036.83 1202.67 1019.99 1212.26 1039.85 1220.15 1039.85 1220.18 1039.79 1220.21 1039.79 1220.25 1039.72 1220.28 1039.72 1220.31 1039.66 1220.34 1039.66 1220.37 1039.59 1220.41 1039.59 1220.44 1039.53 1220.47 1039.53 1220.5 1039.47 1220.53 1039.47 1220.57 1039.4 1220.6 1039.4 1220.63 1039.34 1220.66 1039.34 1220.69 1039.27 1220.73 1039.27 1220.76 1039.21 1220.79 1039.21 1220.82 1039.14 1220.85 1039.14 1220.88 1039.08 1220.92 1039.08 1220.95 1039.02 1220.98 1039.02 1221.01 1038.95 1221.04 1038.95 1221.08 1038.89 1221.11 1038.89 1221.14 1038.82 1221.17 1038.82 1221.2 1038.76 1221.24 1038.76 1221.27 1038.69 1221.3 1038.69 1221.33 1038.63 1221.36 1038.63 1221.39 1038.57 1221.43 1038.57 1221.46 1038.5 1221.49 1038.5 1221.52 1038.44 1221.55 1038.44 1221.59 1038.37 1221.62 1038.37 1221.65 1038.31 1221.68 1038.31 1221.71 1038.24 1221.75 1038.24 1221.78 1038.18 1221.81 1038.18 1221.84 1038.12 1221.87 1038.12 1221.91 1038.05 1221.94 1038.05 1221.97 1037.99 1222 1037.99 1222.03 1037.92 1222.07 1037.92 1222.1 1037.86 1222.13 1037.86 1222.16 1037.79 1222.19 1037.79 1222.22 1037.73 1222.26 1037.73 1222.29 1037.67 1222.32 1037.67 1222.35 1037.6 1222.38 1037.6 1222.42 1037.54 1222.45 1037.54 1222.48 1037.47 1222.51 1037.47 1222.54 1037.41 1222.58 1037.41 1222.61 1037.34 1222.64 1037.34 1222.67 1037.28 1222.7 1037.28 1222.73 1037.22 1222.77 1037.22 1222.8 1037.15 1222.83 1037.15 1222.86 1037.09 1222.89 1037.09 1222.93 1037.02 1222.96 1037.02 1222.99 1036.96 1223.02 1036.96 1223.05 1036.89 1223.09 1036.89 1223.12 1036.83 1223.15 1036.83 1232.97 1016.73 1232.97 1039.85 1239.95 1039.85 1239.95 1039.79 1240.02 1039.79 1240.02 1039.72 1240.08 1039.72 1240.08 1039.66 1240.14 1039.66 1240.14 1039.59 1240.21 1039.59 1240.21 1039.53 1240.27 1039.53 1240.27 1039.47 1240.34 1039.47 1240.34 1039.4 1240.4 1039.4 1240.4 1039.34 1240.46 1039.34 1240.46 1039.27 1240.53 1039.27 1240.53 1039.21 1240.59 1039.21 1240.59 1039.14 1240.65 1039.14 1240.65 1039.08 1240.72 1039.08 1240.72 1039.02 1240.78 1039.02 1240.78 1038.95 1240.85 1038.95 1240.85 1038.89 1240.91 1038.89 1240.91 1038.82 1240.97 1038.82 1240.97 1038.76 1241.04 1038.76 1241.04 1038.69 1241.1 1038.69 1241.1 1038.63 1241.16 1038.63 1241.16 1038.57 1241.23 1038.57 1241.23 1038.5 1241.29 1038.5 1241.29 1038.44 1241.36 1038.44 1241.36 1038.37 1241.42 1038.37 1241.42 1038.31 1241.48 1038.31 1241.48 1038.24 1241.55 1038.24 1241.55 1038.18 1241.61 1038.18 1241.61 1038.12 1241.68 1038.12 1241.68 1038.05 1241.74 1038.05 1241.74 1037.99 1241.8 1037.99 1241.8 1037.92 1241.87 1037.92 1241.87 1037.86 1241.93 1037.86 1241.93 1037.79 1241.99 1037.79 1241.99 1037.73 1242.06 1037.73 1242.06 1037.67 1242.12 1037.67 1242.12 1037.6 1242.19 1037.6 1242.19 1037.54 1242.25 1037.54 1242.25 1037.47 1242.31 1037.47 1242.31 1037.41 1242.38 1037.41 1242.38 1037.34 1242.44 1037.34 1242.44 1037.28 1242.5 1037.28 1242.5 1037.22 1242.57 1037.22 1242.57 1037.15 1242.63 1037.15 1242.63 1037.09 1242.7 1037.09 1242.7 1037.02 1242.76 1037.02 1242.76 1036.96 1242.82 1036.96 1242.82 1036.89 1242.89 1036.89 1242.89 1036.83 1242.95 1036.83 1242.95 995.51"/>
          </g>
          <g>
            <polygon class="cls-21" points="680.71 1036.38 680.71 996.63 686.16 996.63 686.16 1029.79 707.94 996.63 714.19 996.63 688.07 1036.38 680.71 1036.38"/>
            <rect class="cls-9" x="719.41" y="996.69" width="5.42" height="39.69"/>
            <path class="cls-4" d="M732.58,1036.38v-39.75h11.32c6.13,0,11.43,1.97,15.77,5.86,4.29,3.87,6.47,8.59,6.47,14.03s-2.18,10.13-6.47,14c-4.34,3.89-9.64,5.86-15.77,5.86h-11.32ZM737.97,1031.71h5.93c4.6,0,8.6-1.5,11.89-4.44,3.29-2.95,4.96-6.57,4.96-10.74s-1.67-7.82-4.96-10.77c-3.29-2.95-7.29-4.44-11.89-4.44h-5.93v30.41Z"/>
            <polygon class="cls-5" points="772.22 1036.38 772.22 996.63 794.16 996.63 794.16 1001.33 777.64 1001.33 777.64 1014.1 790.39 1014.1 790.39 1018.8 777.64 1018.8 777.64 1031.68 794.16 1031.68 794.16 1036.38 772.22 1036.38"/>
            <path class="cls-2" d="M820.28,1036.79c-6.25,0-11.67-2.01-16.09-5.98-4.4-3.95-6.63-8.76-6.63-14.32s2.23-10.37,6.63-14.32c4.42-3.97,9.84-5.98,16.09-5.98s11.67,2.01,16.09,5.98c4.4,3.95,6.63,8.76,6.63,14.32s-2.23,10.37-6.63,14.32c-4.42,3.97-9.84,5.98-16.09,5.98ZM820.28,1000.93c-4.73,0-8.83,1.52-12.18,4.53-3.38,3.03-5.09,6.74-5.09,11.03s1.71,8,5.09,11.03c3.35,3.01,7.45,4.53,12.18,4.53s8.82-1.52,12.18-4.53c3.38-3.03,5.09-6.74,5.09-11.03s-1.71-8.01-5.09-11.03c-3.35-3.01-7.45-4.53-12.18-4.53Z"/>
            <path class="cls-3" d="M884.46,1036.79c-6.25,0-11.67-2.01-16.09-5.98-4.4-3.95-6.63-8.76-6.63-14.32s2.23-10.37,6.63-14.32c4.42-3.97,9.84-5.98,16.09-5.98,2.8,0,5.51.44,8.07,1.31l-2.04,4.38c-1.93-.66-3.96-.99-6.03-.99-4.73,0-8.83,1.54-12.18,4.56-3.38,3.03-5.09,6.74-5.09,11.03s1.71,8.01,5.09,11.03c3.35,3.01,7.45,4.53,12.18,4.53,1.54,0,3.05-.17,4.49-.51l.6-.14v-12.66h-7.47v-4.73h12.93v20.54l-1.62.62c-2.84,1.08-5.84,1.62-8.93,1.62Z"/>
            <path class="cls-7" d="M927.58,1036.38v-9.64h-16.84l-6.79,9.64h-6.36l28.04-39.75h7.41v39.75h-5.46ZM914.05,1022.04h13.53v-19.15l-13.53,19.15Z"/>
            <polygon class="cls-8" points="981.83 1036.38 981.83 1010.92 980.35 1010.58 967.75 1036.38 960.84 1036.38 948.46 1010.75 946.98 1011.09 946.98 1036.38 941.55 1036.38 941.55 996.63 947.59 996.63 964.31 1031.37 981.22 996.63 987.26 996.63 987.26 1036.38 981.83 1036.38"/>
            <polygon class="cls-6" points="995.29 1036.38 995.29 996.63 1017.23 996.63 1017.23 1001.33 1000.72 1001.33 1000.72 1014.1 1013.47 1014.1 1013.47 1018.8 1000.72 1018.8 1000.72 1031.68 1017.23 1031.68 1017.23 1036.38 995.29 1036.38"/>
            <path class="cls-27" d="M1050.47,1036.79c-.28,0-.55,0-.82-.03-2.94-.11-5.67-.82-8.13-2.11-2.44-1.27-4.2-2.94-5.24-4.96l5.1-1.68c.68,1.15,1.81,2.11,3.38,2.84,1.57.72,3.3,1.12,5.13,1.2.2,0,.4.01.59.01,2.59,0,4.8-.64,6.56-1.92,1.67-1.22,2.57-2.66,2.67-4.28.15-3.1-3.06-5.43-9.83-7.13-9.39-2.37-14.02-6.34-13.74-11.82.18-3.9,2-6.74,5.55-8.68,2.47-1.35,5.43-2.04,8.81-2.04.38,0,.76,0,1.15.03,4.33.17,7.9,1.44,10.63,3.78l-3.91,3.27c-1.76-1.45-4.1-2.24-6.97-2.35-.26,0-.52-.01-.78-.01-1.87,0-3.52.26-4.91.79-2.63,1-4.02,2.83-4.14,5.43-.15,3.05,3.07,5.36,9.83,7.06,5.48,1.38,9.39,3.41,11.64,6.04,1.51,1.78,2.2,3.69,2.1,5.84-.16,3.05-1.68,5.57-4.64,7.72-2.77,1.99-6.15,3-10.04,3Z"/>
            <polygon class="cls-25" points="1081.52 1036.38 1081.52 1017.5 1067.83 996.63 1074.07 996.63 1084.25 1012.11 1094.43 996.63 1100.67 996.63 1086.98 1017.5 1086.98 1036.38 1081.52 1036.38"/>
            <path class="cls-24" d="M1117.77,1036.79c-.28,0-.55,0-.82-.03-2.94-.11-5.67-.82-8.13-2.11-2.44-1.27-4.2-2.94-5.24-4.96l5.1-1.68c.68,1.15,1.81,2.11,3.38,2.84,1.57.72,3.3,1.12,5.13,1.2.2,0,.4.01.59.01,2.59,0,4.8-.64,6.56-1.92,1.67-1.22,2.57-2.66,2.67-4.28.15-3.1-3.06-5.43-9.83-7.13-9.39-2.37-14.02-6.34-13.74-11.82.18-3.9,2-6.74,5.55-8.68,2.47-1.35,5.43-2.04,8.81-2.04.38,0,.76,0,1.15.03,4.33.17,7.9,1.44,10.63,3.78l-3.91,3.27c-1.76-1.45-4.1-2.24-6.97-2.35-.26,0-.52-.01-.78-.01-1.87,0-3.52.26-4.91.79-2.63,1-4.02,2.83-4.14,5.43-.15,3.05,3.07,5.36,9.83,7.06,5.48,1.38,9.39,3.41,11.64,6.04,1.51,1.78,2.2,3.69,2.1,5.84-.16,3.05-1.68,5.57-4.64,7.72-2.77,1.99-6.15,3-10.04,3Z"/>
            <polygon class="cls-26" points="1146.4 1036.38 1146.4 1001.33 1136.65 1001.33 1136.65 996.63 1161.62 996.63 1161.62 1001.33 1151.86 1001.33 1151.86 1036.38 1146.4 1036.38"/>
            <polygon class="cls-23" points="1168.14 1036.38 1168.14 996.63 1190.08 996.63 1190.08 1001.33 1173.56 1001.33 1173.56 1014.1 1186.31 1014.1 1186.31 1018.8 1173.56 1018.8 1173.56 1031.68 1190.08 1031.68 1190.08 1036.38 1168.14 1036.38"/>
            <polygon class="cls-22" points="1236.63 1036.38 1236.63 1010.92 1235.14 1010.58 1222.54 1036.38 1215.63 1036.38 1203.26 1010.75 1201.77 1011.09 1201.77 1036.38 1196.35 1036.38 1196.35 996.63 1202.38 996.63 1219.1 1031.37 1236.01 996.63 1242.05 996.63 1242.05 1036.38 1236.63 1036.38"/>
          </g>
        </g>
      </g>
      <g>
        <g>
          <ellipse class="cls-13" cx="311.6" cy="693.43" rx="56.65" ry="9.86" transform="translate(-22.82 10.71) rotate(-1.9)"/>
          <g>
            <ellipse class="cls-1" cx="323.6" cy="689.52" rx="48.31" ry="11.48"/>
            <rect class="cls-1" x="275.29" y="666.45" width="96.62" height="23.07"/>
            <ellipse class="cls-19" cx="323.6" cy="666.45" rx="48.31" ry="11.48"/>
          </g>
        </g>
        <g>
          <ellipse class="cls-13" cx="455.37" cy="693.54" rx="56.65" ry="9.86" transform="translate(-22.74 15.48) rotate(-1.9)"/>
          <g>
            <ellipse class="cls-1" cx="467.34" cy="689.52" rx="48.31" ry="11.48"/>
            <rect class="cls-1" x="419.03" y="666.45" width="96.62" height="23.07"/>
            <ellipse class="cls-29" cx="467.34" cy="666.45" rx="48.31" ry="11.48"/>
          </g>
        </g>
        <g>
          <ellipse class="cls-13" cx="599.13" cy="693.65" rx="56.65" ry="9.86" transform="translate(-22.67 20.25) rotate(-1.9)"/>
          <g>
            <ellipse class="cls-1" cx="611.07" cy="689.52" rx="48.31" ry="11.48"/>
            <rect class="cls-1" x="562.77" y="666.45" width="96.62" height="23.07"/>
            <ellipse class="cls-10" cx="611.07" cy="666.45" rx="48.31" ry="11.48"/>
          </g>
        </g>
      </g>
    </g>
    <g>
      <g>
        <path class="cls-11" d="M163.67,772.33h5.42l4.77,14.95c1.08,3.36,1.84,6.17,2.92,9.42h.22c1.19-3.36,1.84-6.17,2.92-9.42l4.77-14.95h5.2l-10.07,28.92h-5.96l-10.07-28.92h-.11Z"/>
        <path class="cls-11" d="M196.49,772.87c0-1.62,1.3-2.71,3.14-2.71s3.14,1.08,3.14,2.71-1.3,2.71-3.14,2.71-3.14-1.08-3.14-2.71ZM197.14,779.59h5.09v21.66h-5.09v-21.66Z"/>
        <path class="cls-11" d="M211.55,790.42c0-7.04,5.42-11.37,11.05-11.37s9.86,4.12,9.86,10.18,0,1.73-.22,2.27h-15.6c.43,4.12,3.25,6.61,7.47,6.61s4.01-.54,5.74-1.62l1.73,2.92c-2.17,1.3-4.98,2.27-8.12,2.27-6.61,0-11.81-4.22-11.81-11.37l-.11.11ZM228.01,788.47c0-3.68-1.84-5.85-5.42-5.85s-5.74,2.06-6.17,5.85h11.59Z"/>
        <path class="cls-11" d="M238.84,779.59h5.09l3.25,11.7c.43,2.06.87,4.12,1.3,6.17h.22c.54-2.06.97-4.12,1.52-6.17l3.36-11.7h4.66l3.47,11.7c.54,2.06,1.08,4.12,1.62,6.17h.22c.43-2.06.87-4.12,1.41-6.17l3.14-11.7h4.77l-6.28,21.66h-6.07l-3.03-10.61c-.54-2.06-.97-4.01-1.52-6.28h-.22c-.43,2.27-.87,4.22-1.52,6.28l-3.03,10.61h-5.85l-6.5-21.66h0Z"/>
        <path class="cls-11" d="M295.06,772.33h9.75c7.15,0,12.35,2.17,12.35,8.77s-5.09,9.21-12.13,9.21h-4.87v10.94h-5.09v-28.92h0ZM304.59,786.63c5.09,0,7.58-1.73,7.58-5.52s-2.6-5.09-7.8-5.09h-4.22v10.61h4.44Z"/>
        <path class="cls-11" d="M326.47,779.59h4.12l.43,3.9h.11c1.73-2.82,4.22-4.44,6.82-4.44s1.95.11,2.71.43l-.87,3.9c-.87-.22-1.41-.32-2.49-.32-1.95,0-4.33,1.19-5.85,4.66v13.43h-5.09v-21.66l.11.11Z"/>
        <path class="cls-11" d="M345.64,790.42c0-7.15,5.42-11.37,11.37-11.37s11.37,4.12,11.37,11.37-5.42,11.37-11.37,11.37-11.37-4.12-11.37-11.37ZM363.08,790.42c0-4.55-2.38-7.58-6.17-7.58s-6.17,3.03-6.17,7.58,2.38,7.58,6.17,7.58,6.17-3.03,6.17-7.58Z"/>
        <path class="cls-11" d="M371.86,810.02l.97-3.36c.65.22,1.41.32,2.17.32,2.27,0,2.82-1.52,2.82-4.01v-23.29h5.09v23.29c0,4.55-1.95,7.69-7.26,7.69s-2.82-.22-3.68-.54l-.11-.11ZM377.16,772.87c0-1.62,1.3-2.71,3.14-2.71s3.14,1.08,3.14,2.71-1.3,2.71-3.14,2.71-3.14-1.08-3.14-2.71Z"/>
        <path class="cls-11" d="M392.22,790.42c0-7.04,5.42-11.37,11.05-11.37s9.86,4.12,9.86,10.18,0,1.73-.22,2.27h-15.6c.43,4.12,3.25,6.61,7.47,6.61s4.01-.54,5.74-1.62l1.73,2.92c-2.17,1.3-4.98,2.27-8.12,2.27-6.61,0-11.81-4.22-11.81-11.37l-.11.11ZM408.68,788.47c0-3.68-1.84-5.85-5.42-5.85s-5.74,2.06-6.17,5.85h11.59Z"/>
        <path class="cls-11" d="M420.49,790.42c0-7.15,5.52-11.37,11.91-11.37s5.31,1.08,7.04,2.49l-2.49,2.92c-1.3-1.08-2.71-1.73-4.33-1.73-4.12,0-6.93,3.03-6.93,7.58s2.82,7.58,6.82,7.58,3.79-.87,5.2-1.95l2.06,3.03c-2.27,1.73-5.09,2.71-7.8,2.71-6.5,0-11.48-4.12-11.48-11.37v.11Z"/>
        <path class="cls-11" d="M448.54,794.21v-10.94h-3.47v-3.36l3.79-.22.54-5.96h4.22v5.96h6.28v3.68h-6.28v10.94c0,2.6.97,3.9,3.57,3.9s1.84-.22,2.6-.54l.87,3.36c-1.3.43-2.92.76-4.77.76-5.42,0-7.37-3.03-7.37-7.58Z"/>
      </g>
      <g>
        <polygon class="cls-14" points="182.95 805.58 170.71 805.58 157.61 768 172.23 768 176.89 782.62 181.55 768 196.06 768 182.95 805.58"/>
        <path class="cls-14" d="M206.46,805.58h-13.76v-29.9c-.32-.87-.54-1.84-.54-2.82,0-4.01,3.25-7.04,7.47-7.04s7.47,3.03,7.47,7.04-.22,2.06-.65,2.92v29.79h0ZM199.63,771.24c-.32,0-1.19.76-1.19,1.62s.76,1.62,1.19,1.62,1.19-.76,1.19-1.62-.76-1.52-1.19-1.62Z"/>
        <path class="cls-14" d="M223.36,806.12c-9.32,0-16.14-6.61-16.14-15.71s7.8-15.71,15.38-15.71,14.19,5.85,14.19,14.51-.11,2.38-.32,3.36l-.87,3.25h-1.19l3.03,4.98-3.68,2.27c-3.14,1.95-6.72,2.92-10.4,2.92v.11Z"/>
        <polygon class="cls-14" points="269.82 805.58 257.26 805.58 255.85 800.71 254.44 805.58 242.09 805.58 233 775.25 247.18 775.25 248.7 780.78 250.33 775.25 261.48 775.25 263.22 780.88 264.62 775.25 278.49 775.25 269.82 805.58"/>
        <path class="cls-14" d="M304.48,805.58h-13.76v-37.59h14.08c4.98,0,16.68,1.3,16.68,13.11s-6.28,13.54-16.46,13.54h-.54v10.94h0ZM304.48,782.29h0c2.38,0,3.14-.54,3.14-.54v-.65c0-.43,0-.22,0-.32-.32-.11-1.19-.43-3.25-.43v1.95h.11Z"/>
        <path class="cls-14" d="M335.9,805.58h-13.76v-30.33h12.35c1.08-.32,2.27-.54,3.47-.54,1.73,0,3.03.22,4.33.76l3.36,1.41-2.71,11.91-4.33-1.19c-.54-.11-.76-.22-1.3-.22s-.87.32-1.52,1.41v16.79h.11Z"/>
        <path class="cls-14" d="M357.02,806.12c-8.99,0-15.71-6.72-15.71-15.71s6.72-15.71,15.71-15.71,15.71,6.72,15.71,15.71-6.72,15.71-15.71,15.71ZM357.02,787.17c-1.52,0-1.84,1.84-1.84,3.25s.32,3.25,1.84,3.25,1.84-1.73,1.84-3.25-.22-3.25-1.84-3.25Z"/>
        <path class="cls-14" d="M375.54,814.9c-1.95,0-3.68-.32-5.2-.87l-3.79-1.41,3.14-11.48,3.68,1.08v-26.54c-.43-.87-.65-1.84-.65-2.92,0-4.01,3.25-7.04,7.47-7.04s7.47,3.03,7.47,7.04-.22,1.95-.54,2.82v27.19c0,7.47-4.33,12.02-11.59,12.02v.11ZM373.37,803.96,380.31,771.24c-.32,0-1.19.76-1.19,1.62s.76,1.62,1.19,1.62,1.19-.76,1.19-1.62-.76-1.52-1.19-1.62Z"/>
        <path class="cls-14" d="M404.03,806.12c-9.32,0-16.14-6.61-16.14-15.71s7.8-15.71,15.38-15.71,14.19,5.85,14.19,14.51-.11,2.38-.32,3.36l-.87,3.25h-1.19l3.03,4.98-3.68,2.27c-3.14,1.95-6.72,2.92-10.4,2.92v.11Z"/>
        <path class="cls-14" d="M432.08,806.12c-9.32,0-15.81-6.39-15.81-15.71s6.82-15.71,16.25-15.71,6.93,1.19,9.75,3.47l3.47,2.82-8.02,9.53-3.25-2.6c-.97-.76-1.41-.76-1.62-.76-2.27,0-2.6,2.06-2.6,3.25s.43,3.25,2.49,3.25,2.06-.65,2.6-1.08l3.57-2.82,7.04,10.18-3.25,2.49c-2.92,2.38-6.72,3.57-10.51,3.57l-.11.11Z"/>
        <path class="cls-14" d="M455.8,806.12c-7.26,0-11.7-4.44-11.7-11.91v-6.61h-3.47v-11.81l4.12-.22.54-6.28h12.46v5.96h6.28v12.35h-6.28v6.07h.22l4.44-1.62,3.25,12.02-4.12,1.19c-1.62.43-3.68.97-5.96.97l.22-.11Z"/>
      </g>
      <g>
        <path class="cls-11" d="M163.67,772.33h5.42l4.77,14.95c1.08,3.36,1.84,6.17,2.92,9.42h.22c1.19-3.36,1.84-6.17,2.92-9.42l4.77-14.95h5.2l-10.07,28.92h-5.96l-10.07-28.92h-.11Z"/>
        <path class="cls-11" d="M196.49,772.87c0-1.62,1.3-2.71,3.14-2.71s3.14,1.08,3.14,2.71-1.3,2.71-3.14,2.71-3.14-1.08-3.14-2.71ZM197.14,779.59h5.09v21.66h-5.09v-21.66Z"/>
        <path class="cls-11" d="M211.55,790.42c0-7.04,5.42-11.37,11.05-11.37s9.86,4.12,9.86,10.18,0,1.73-.22,2.27h-15.6c.43,4.12,3.25,6.61,7.47,6.61s4.01-.54,5.74-1.62l1.73,2.92c-2.17,1.3-4.98,2.27-8.12,2.27-6.61,0-11.81-4.22-11.81-11.37l-.11.11ZM228.01,788.47c0-3.68-1.84-5.85-5.42-5.85s-5.74,2.06-6.17,5.85h11.59Z"/>
        <path class="cls-11" d="M238.84,779.59h5.09l3.25,11.7c.43,2.06.87,4.12,1.3,6.17h.22c.54-2.06.97-4.12,1.52-6.17l3.36-11.7h4.66l3.47,11.7c.54,2.06,1.08,4.12,1.62,6.17h.22c.43-2.06.87-4.12,1.41-6.17l3.14-11.7h4.77l-6.28,21.66h-6.07l-3.03-10.61c-.54-2.06-.97-4.01-1.52-6.28h-.22c-.43,2.27-.87,4.22-1.52,6.28l-3.03,10.61h-5.85l-6.5-21.66h0Z"/>
        <path class="cls-11" d="M295.06,772.33h9.75c7.15,0,12.35,2.17,12.35,8.77s-5.09,9.21-12.13,9.21h-4.87v10.94h-5.09v-28.92h0ZM304.59,786.63c5.09,0,7.58-1.73,7.58-5.52s-2.6-5.09-7.8-5.09h-4.22v10.61h4.44Z"/>
        <path class="cls-11" d="M326.47,779.59h4.12l.43,3.9h.11c1.73-2.82,4.22-4.44,6.82-4.44s1.95.11,2.71.43l-.87,3.9c-.87-.22-1.41-.32-2.49-.32-1.95,0-4.33,1.19-5.85,4.66v13.43h-5.09v-21.66l.11.11Z"/>
        <path class="cls-11" d="M345.64,790.42c0-7.15,5.42-11.37,11.37-11.37s11.37,4.12,11.37,11.37-5.42,11.37-11.37,11.37-11.37-4.12-11.37-11.37ZM363.08,790.42c0-4.55-2.38-7.58-6.17-7.58s-6.17,3.03-6.17,7.58,2.38,7.58,6.17,7.58,6.17-3.03,6.17-7.58Z"/>
        <path class="cls-11" d="M371.86,810.02l.97-3.36c.65.22,1.41.32,2.17.32,2.27,0,2.82-1.52,2.82-4.01v-23.29h5.09v23.29c0,4.55-1.95,7.69-7.26,7.69s-2.82-.22-3.68-.54l-.11-.11ZM377.16,772.87c0-1.62,1.3-2.71,3.14-2.71s3.14,1.08,3.14,2.71-1.3,2.71-3.14,2.71-3.14-1.08-3.14-2.71Z"/>
        <path class="cls-11" d="M392.22,790.42c0-7.04,5.42-11.37,11.05-11.37s9.86,4.12,9.86,10.18,0,1.73-.22,2.27h-15.6c.43,4.12,3.25,6.61,7.47,6.61s4.01-.54,5.74-1.62l1.73,2.92c-2.17,1.3-4.98,2.27-8.12,2.27-6.61,0-11.81-4.22-11.81-11.37l-.11.11ZM408.68,788.47c0-3.68-1.84-5.85-5.42-5.85s-5.74,2.06-6.17,5.85h11.59Z"/>
        <path class="cls-11" d="M420.49,790.42c0-7.15,5.52-11.37,11.91-11.37s5.31,1.08,7.04,2.49l-2.49,2.92c-1.3-1.08-2.71-1.73-4.33-1.73-4.12,0-6.93,3.03-6.93,7.58s2.82,7.58,6.82,7.58,3.79-.87,5.2-1.95l2.06,3.03c-2.27,1.73-5.09,2.71-7.8,2.71-6.5,0-11.48-4.12-11.48-11.37v.11Z"/>
        <path class="cls-11" d="M448.54,794.21v-10.94h-3.47v-3.36l3.79-.22.54-5.96h4.22v5.96h6.28v3.68h-6.28v10.94c0,2.6.97,3.9,3.57,3.9s1.84-.22,2.6-.54l.87,3.36c-1.3.43-2.92.76-4.77.76-5.42,0-7.37-3.03-7.37-7.58Z"/>
      </g>
    </g>
  </g>
  <g id="_图层_13" data-name="图层 13">
    <path d="M1143.47,916.28h-366.86c-5,0-8.62-4.79-7.25-9.6l10.06-35.31c1.59-5.57,6.68-9.41,12.47-9.41h336.57c5.83,0,10.94,3.89,12.49,9.5l9.77,35.28c1.33,4.8-2.28,9.54-7.26,9.54Z"/>
    <rect class="cls-12" x="778.12" y="877.05" width="363.76" height="39.72"/>
  </g>
  <g id="_图层_11" data-name="图层 11">
    <g>
      <rect class="cls-1" x="1515.95" y="791.29" width="22.73" height="96.12" transform="translate(-213.24 751.87) rotate(-25.91)"/>
      <circle class="cls-15" cx="1491.54" cy="765.72" r="62.4"/>
      <circle class="cls-16" cx="1508.68" cy="737.42" r="9.17"/>
    </g>
  </g>
</svg>