<?xml version="1.0" encoding="UTF-8"?>
<svg id="_图层_1" data-name="图层 1" xmlns="http://www.w3.org/2000/svg" viewBox="0 0 960 540">
  <defs>
    <style>
      .cls-1 {
        fill: #363636;
      }
    </style>
  </defs>
  <path class="cls-1" d="M959.13,472.24c0-3.1.72-4.6-.32-8.14-3.12-10.6-25.18-32.4-33.15-42.35-13.43-16.8-17.07-23.43-20.86-45.14-.43-2.44-.24-9.96-2.5-10.54-3.63-.94-2.33,6.85-2.09,8.63.86,6.29,2.88,15.21,4.68,21.32,5.63,19.23,28.52,40.07,41.24,55.76,4.27,5.27,12.25,14.86,7.94,21.91-3.61,5.89-14.27,3.23-19.64,5.36H25.86c-5.53-2.11-17.89.7-20.24-6.76-2.12-6.72,2.51-12.7,6.33-17.73,13.03-17.13,37.43-37.99,43.45-58.55,1.76-6.02,3.73-14.7,4.61-20.89.22-1.59.81-4.94.62-6.32-.25-1.83-1.84-3.79-3.51-2.06-1.24,1.29-1.2,7.39-1.64,9.86-4.34,24.92-9.82,31.83-25.36,50.64-7.63,9.24-29.37,30.19-29.5,41.54-.01,1.19.54,2.27.54,3.45-.01,21.92-.02,40.55-.02,40.55,0,3.55,2.6,27.22,31.34,27.22h895.35c17.42,0,31.32-10.04,31.32-29.45,0,0-.01-17.07-.02-38.32ZM12.62,481.79c2.86.58,6.31.57,9.26,1.24h916.54c5.74-.94,11.34-.98,16.47-4.03l.13,30.68c.06,14.52-11.69,26.32-26.21,26.32H31.36c-14.48,0-26.21-11.74-26.21-26.21v-30.79c2.61.88,4.67,2.21,7.47,2.78Z"/>
  <path class="cls-1" d="M95.4,359.23h769.5c9.42-.2,17.47-10.11,20.26-18.45,2.75-8.21,1.1-17.04.98-25.51-9.87-85.97-19.38-172-28.99-258.01-.98-8.75-1.27-17.74-2.51-26.49-1.43-10.12-3.57-21.58-16.22-21.78l-718.38.16c-3.82.46-7.08,2-9.39,5.11-6.05,8.14-6.31,32.29-7.5,43-9.61,86.01-19.12,172.04-28.99,258.01-.08,8.26-1.75,17.13.85,25.14,2.75,8.48,10.81,18.59,20.4,18.82ZM78.13,320.24c9.79-91.37,20.45-182.65,30.52-273.98.9-8.13.18-26.57,7.54-31.46,3.24-2.15,5.84-.76,9.36-1.64l707.38-.17c6.1.96,11-.88,14.5,5.5,3.81,6.93,3.35,19.82,4.23,27.77,10.07,91.33,20.73,182.62,30.52,273.98.68,14.27-.71,31.06-17.25,34.79H95.88c-16.95-3.14-18.43-20.48-17.75-34.79Z"/>
  <path class="cls-1" d="M66.51,375.62c-2.47,8.78-1.01,18.94-4.45,27.55-12.14,18.28-26.43,34.87-39.9,52.1-2.22,2.84-6.7,7.2-4.54,11.01,2.1,3.69,12.08,2.52,15.8,2.74,297.71-.87,595.74-.87,893.46,0,5.15-.34,17.93,1.85,16.15-6.66-14.93-19.63-30.76-38.79-44.79-59.2-3.44-8.61-1.98-18.77-4.45-27.55-.98-3.49-2.53-6.44-6.43-7.07l-814.84.07c-3.66.82-5.08,3.7-6.01,6.99ZM885.83,372.53c3.83.21,4.24,5.22,4.75,8.3,1.38,8.42.81,17.3,4.14,25.36,7.96,9.51,14.69,19.95,22.23,29.77,7.23,9.41,15.26,18.23,22.19,27.81-2.86,1.83-6.73.73-9.71.72-299.51-.59-599.03.14-898.55,0-1.44,0-2.65.55-3.95.54-1.44-.01-3.65-.77-5.29-.76-.79-.42.26-1.89.6-2.43,4.97-7.95,14.98-17.89,21.12-25.88,7.62-9.91,14.45-20.43,22.41-30.09,2.67-6.74,2.5-13.99,3.45-21.05.46-3.4.75-11.66,4.83-12.21,270.52.62,541.29.77,811.8-.08Z"/>
  <path class="cls-1" d="M63.12,359.73L100.29,24.4c2.07-11.8,6.88-19.04,19.59-20.41h720.54c12.09.88,18.4,9.38,19.66,20.84l37.1,334.9c.17,1.94,2.24,3.77,3.85,2.15.47-.47.6-1.4.58-2.06-13.57-108.66-22.59-217.95-36.45-326.57-2.01-15.71-3.22-29.47-21.73-33.27H116.88c-18.51,3.8-19.73,17.57-21.73,33.27-13.87,108.61-22.88,217.91-36.45,326.57-.06,3.46,3.73,3.65,4.43-.09Z"/>
  <path class="cls-1" d="M372.64,516.01v1.5h7.5c.34-2.26-3.23-1.23-3.5-1.5l.47-2.78c1.3-.91,5.02.94,6.42-2.11,1.14-2.49-.36-5.62-3.13-6.11-2.23-.39-5.39.29-7.75,0v1.5s2.01.29,2.01.29v9.21s-2.01,0-2.01,0ZM377.11,506.73c2.49-1.25,6.19,1.89,3.91,4.17-.85.85-3.21.59-4.38.62l.47-4.79Z"/>
  <path class="cls-1" d="M508.64,516.01v1.5h7.5c.34-2.26-3.23-1.23-3.5-1.5l.47-2.78c1.3-.91,5.02.94,6.42-2.11,1.14-2.49-.36-5.62-3.13-6.11-2.23-.39-5.39.29-7.75,0v1.5s2.01.29,2.01.29v9.21s-2.01,0-2.01,0ZM513.11,506.73c2.49-1.25,6.19,1.89,3.91,4.17-.85.85-3.21.59-4.38.62l.47-4.79Z"/>
  <path class="cls-1" d="M550.19,509.82c.41.46,3.45,6.75,3.37,7.32-.35,2.38-2.12,3.35-4.42,2.87v1.5h7l-1.45-2.17c2.46-3.35,3.31-7.76,6.44-10.58-1.21-1.38-3.37-.56-4.99-.75-.61,1.54,1.11,1.29,1.02,2.21-.08.77-.86,2.06-1.28,2.8-.31.56.04,1.22-.98.99l-2.24-3.77c-.45-1.36,2.05-.13,1.48-1.47-.5-1.17-5.91-1.44-5.5.74.54-.02,1.12-.16,1.54.31Z"/>
  <path class="cls-1" d="M570.86,517.47c3.78-.46,4.89-3.17,1.16-2.34-2.64.59-5.78,2.24-6.37-2.12h8.5c.93-6.93-10.77-6.36-11.03-.24-.19,4.43,4.25,5.13,7.74,4.7ZM571.64,511.51l-6-.24c1.56-1.72,5.3-2.69,6,.24Z"/>
  <path class="cls-1" d="M428.14,509.51l2.51.29v6.22s-2.51,0-2.51,0v1.5h9v-1.5s-4,0-4,0v-6.51c.33-.33,3.81.67,4.49-.75-.77-1.49-4.55-.36-4.99-.75.04-3.12,3.29-2.48,5.49-2.5.43-1.39-1.82-1.56-2.74-1.54-2.84.06-5.04.76-4.77,4.02l-2.48.02v1.5Z"/>
  <path class="cls-1" d="M389.5,517.4c10.62,2.4,10.95-10.84,1.02-9.28-6.01.95-5.5,8.27-1.02,9.28ZM391.51,509.59c3.59-.57,5.66,5.93.84,6.42-4.88.49-4.76-5.8-.84-6.42Z"/>
  <path class="cls-1" d="M444,517.4c10.62,2.4,10.95-10.84,1.02-9.28-6.01.95-5.5,8.27-1.02,9.28ZM446.01,509.59c3.59-.57,5.66,5.93.84,6.42-4.88.49-4.76-5.8-.84-6.42Z"/>
  <path class="cls-1" d="M485,517.4c10.62,2.4,10.95-10.84,1.02-9.28-6.01.95-5.5,8.27-1.02,9.28ZM487.01,509.59c3.59-.57,5.66,5.93.84,6.42-4.88.49-4.76-5.8-.84-6.42Z"/>
  <path class="cls-1" d="M547.15,517.51v-1.5s-1.45-.03-1.45-.03c-.17-4.42,1.14-8.2-4.78-7.98-5.82.21-4.29,4.04.87,1.58l1.85,1.93c-3.72-.39-9.33.46-6.88,5.39,1.37,1.37,8.12-.13,10.38.62ZM543.64,513.02c.67,2.94-5.07,4.07-5.47,1.68-.29-1.72,4.15-2.71,5.47-1.68Z"/>
  <path class="cls-1" d="M421.4,517.51c1.19-.12,5.51-1.88,2.99-2.49-2.57-.62-7.03,4.65-6.02-4.54.55-.79,2.59-.42,3.53-.47.77-.04,1.98.47,1.74-.74-.8-1.51-5.11-.36-5.5-.75v-3.5l-1.76.49-.24,3.02h-2.51s0,1.49,0,1.49h2.51c-.06,4.88-.8,8.12,5.25,7.5Z"/>
  <path class="cls-1" d="M455.15,517.51h10v-1.5s-4,0-4,0v-12h-5.5s0,1.5,0,1.5c1.08.07,3.02-.44,3.43.82l.07,9.68h-4.01s0,1.5,0,1.5Z"/>
  <path class="cls-1" d="M523.15,517.51h10v-1.5s-4,0-4,0v-12h-5.5s0,1.5,0,1.5c1.08.07,3.02-.44,3.43.82l.07,9.68h-4.01s0,1.5,0,1.5Z"/>
  <path class="cls-1" d="M409.15,516.01h-4.01c-.89-5.05,1.8-6.99,6.5-6l-.29-1.54c-2.18-.96-4.15-.37-5.96,1.04l-.52-1.53c-1.34.1-4.75-.56-3.98,1.54h2.25s0,6.5,0,6.5c-1.29-.05-3.1-.3-3,1.5h9v-1.5Z"/>
  <path class="cls-1" d="M585.65,516.01h-4.01c-.89-5.05,1.8-6.99,6.5-6l-.29-1.54c-2.18-.96-4.15-.37-5.96,1.04l-.52-1.53c-1.34.1-4.75-.56-3.98,1.54h2.25s0,6.5,0,6.5c-1.29-.05-3.1-.3-3,1.5h9v-1.5Z"/>
  <path class="cls-1" d="M468.65,517.51h10v-1.5s-4,0-4,0v-8h-5s0,1.5,0,1.5c.98.03,2.55-.34,2.93.82l.07,5.68h-4.01s0,1.5,0,1.5Z"/>
  <polygon class="cls-1" points="474.65 503.01 472.37 503.48 472.15 506.01 474.65 506.01 474.65 503.01"/>
  <path class="cls-1" d="M136.64,318.27c8.93,7.7,15.67,10.13,27.24,10.76,62.74,3.42,126.7,4.26,189.5,5.5,14.67.29,29.36.07,44.02.48l1.03.47c1.35,1.94-2.43,6.1,2.05,9.96,6.7,5.77,35.28,5.25,42.52.18.63-.44,2.15-1.65,2.15-2.35v-7.75h11.5c-.37,5.01-1.35,8.81,4,11.25,8.44,3.84,33,4.17,40.66-1.33.68-.49,1.27-1.04,1.83-1.67v-8.25h11.5c-.17,4.48-1.43,7.91,3.04,10.71,7.2,4.49,29.2,4,37.22,1.31,2.17-.73,4.71-2.06,6.23-3.77v-8.75c15.24-.35,30.52-.19,45.77-.48,63.81-1.21,129.34-1.89,192.98-6.07,24.28-1.59,41.03-25.85,43.74-48.71.67-5.65.56-11.78,1.01-17.49,4.49-56.77,5.23-116.77-.51-173.5-1.94-19.16-9.62-46.32-27.49-56.51-16.75-9.56-48.81-7.53-68.28-8.22-178.75-6.35-357.72-6.35-536.46,0-18.18.65-42.01-.73-59.15,4.35-36.27,10.74-37.41,63.12-39.12,93.88-2.58,46.59-1.69,93.49,1.99,140,1.84,23.25,2.01,39.64,21,56ZM441.15,341.76c-6.13,4.19-16.44,4.75-23.77,4.27-2.64-.17-15.23-1.86-15.23-5.27v-7.25c12.62,3.76,26.41,4.04,39,0v8.25ZM402.66,327.53c.19-.28,5.61-2.09,6.47-2.29,7.91-1.87,19.62-1.85,27.39.63,1.62.52,4.16.96,4.62,2.87-.23,1.04-6.74,2.78-7.98,3.03-7.86,1.56-17.68,1.53-25.41-.63-1.07-.3-6.31-1.83-5.09-3.61ZM499.15,341.76c-6.12,4.18-16.46,4.77-23.77,4.27-2.6-.18-15.23-1.99-15.23-5.27v-7.25c12.6,3.74,26.43,4.08,39,0v8.25ZM491.16,331.78c-8.18,1.57-18.99,1.62-26.91-1.13-1.03-.36-4.63-1.54-3.59-3.11.15-.22,4.25-1.57,4.98-1.77,8.46-2.39,20.46-2.58,28.88.12,1.62.52,4.16.96,4.62,2.87-.28,1.18-6.63,2.76-7.98,3.02ZM557.67,334.77c.08,2.47-.95,5.12-.61,7.66-8.68,3.78-18.77,4.4-28.1,3.01-2.12-.32-10.82-1.98-10.82-4.68v-7.25c3.61.76,7.12,1.96,10.81,2.44,7.6.98,16.31.54,23.79-1.09,1.39-.3,2.89-1.19,4.17-1.34,1.11-.13.73.43.75,1.25ZM518.65,328.75c.46-1.92,3-2.35,4.62-2.87,8.42-2.69,20.42-2.5,28.88-.12.73.21,4.84,1.55,4.98,1.77,1.04,1.58-2.56,2.76-3.59,3.11-7.92,2.75-18.73,2.7-26.91,1.13-1.36-.26-7.7-1.85-7.98-3.02ZM117.65,118.27c1.86-28.58,4.35-78.42,38.88-86.62,18.74-4.45,45.23-3.36,64.88-4.12,176.85-6.79,355.16-7,531.96.5,21.68.92,55.12-2.08,70.26,15.74,19.27,22.69,19.05,72.6,19.99,101.51,1.14,35.04,1.05,70.45-1.48,105.47-1.92,26.49-2.56,54.12-27.84,69.16-11.53,6.86-25.33,4.94-38.42,5.58-65.84,3.22-131.97,4.79-197.96,6.04-5.58.11-11.19-.12-16.77-.02.21-3.24.22-5.21-2.53-7.22-7.14-5.22-33.62-4.95-41.14-.2-4.14,2.62-1.88,4.42-3.58,7.92h-10.75c.17-3.5.37-5.85-2.83-7.92-7.49-4.83-33.92-4.94-41.14.2-3.87,2.76-1.55,4.3-3.28,7.72h-10.75c.17-3.5.37-5.85-2.83-7.92-7.48-4.83-33.92-4.94-41.14.2-2.64,1.88-2.73,3.22-2.6,6.4l-.4.6c-14.04.07-28.22,0-42.3-.26-57.14-1.05-114.41-2.76-171.46-5.54-19.24-.94-32.13,2.17-47.28-12.22-9.75-9.26-13.85-20.02-15.92-33.08-2.81-17.69-3.26-36.54-4.05-54.45-1.57-35.72-1.84-71.68.48-107.47Z"/>
  <path class="cls-1" d="M707.97,423.89c4.39,9.48,7.74,19.94,12.25,29.3.79,1.64,3.03,6.49,4.69,6.81l199.51.04c3.34.01,5.13-2.36,5.01-5.55l-30.67-39.35c-2.91-1.32-5.11-.13-7.84-.11-56.1.44-112.58-1.07-168.5,0-2.37.05-10.56-1.06-10.79,1.76-.18.7.72,2.07,1.27,2.22h184l28.01,36-.51,1h-198.5l-14.49-34.5c-1.75-1.57-4.29.14-3.43,2.39Z"/>
  <path class="cls-1" d="M388.43,458.48l184.58-.35c3.45-1.37,3.93-4.44,3.58-7.81-.39-3.82-4.41-17.51-7.19-19.81-.38-.32-3.31-1.99-3.51-1.99h-29.5c-1.3,0-.76,4,.5,4h26.75l-2.57,21.18-1.18.82-160.78-.22-3.47-21.78h132.25c.28,0,1.53-.9,1.68-1.33.35-.68-.03-2.67-.68-2.67h-134.5c-.2,0-3.13,1.68-3.51,1.99-3.16,2.61-7.83,19.23-7.21,23.23.38,2.46,2.34,4.28,4.75,4.75ZM567.65,436.01c1.11.46,1.29,2.09,1.63,3.12.96,2.95,2.99,9.44,3.27,12.27.08.8.06,1.91-.52,2.49-1.14,1.14-5.23.42-6.88.62l2.51-18.5ZM391.65,437.01l3,17.5c-2.04-.2-6.57.92-6.91-1.86-.44-3.64,3.43-11.65,3.91-15.64Z"/>
  <path class="cls-1" d="M730.41,452l182.51.03,5.17-1.08-.51-3.13c-7.25-6.81-13.81-20.87-21.42-26.58-2.83-2.12-3.29-.76-6.24-.72-56.49.83-113.05-.65-169.55-.05-1.56-.03-3.08,1.88-3.22,3.32-.27,2.73,4.64,13.34,6.07,16.39,1.15,2.45,4.95,11.38,7.19,11.81ZM895.15,426.51l16.49,21.5h-16.25l-.65-1.13.41-20.37ZM721.65,424.51h169v23.5h-158.75c-3.73-7.65-8.02-15.22-10.25-23.5Z"/>
  <path class="cls-1" d="M601.27,458.4c10.28-6.09,21.97-9.26,32.71-14.3,1.79-.84,7.32-3.1,7.65-4.85.25-1.33.64-5.7.54-7.01-.22-2.84-3.63-3.51-6.21-4.3-16.79-5.17-35.21-8.04-52.2-12.79-1.81-.34-3.81-.35-5.12,1.12v11.5c0,1.52,13.57,24.01,15.28,26.22,1.61,2.06,4.5,5.3,7.34,4.42ZM637.64,433.51c-.09,1.43.43,4.01-.85,5.03-3.63,1.93-7.39,3.57-11.16,5.21-6.21,2.7-15.35,7.09-21.46,9.04-.52.16-.96.33-1.52.23l.05-5.95,34.95-13.55ZM634.14,430.52l-33.25,13.87-16.74-25.87,50,12ZM583.15,425.01c.76.21,1.17,1.04,1.61,1.64,3,4.09,11.44,16.26,13.12,20.38.66,1.62.1,3.76.26,5.48-1.05-.45-1.59-1.65-2.2-2.54-2.87-4.24-10.79-16.84-12.4-21.1-.51-1.33-.45-2.48-.38-3.86Z"/>
  <path class="cls-1" d="M326.81,444.1c10.74,5.05,22.43,8.21,32.71,14.3,2.86.87,5.74-2.37,7.34-4.42,2.02-2.59,14.45-23.61,15.05-25.95.88-3.42,1.19-14.73-4.88-12.9-16.99,4.78-35.42,7.64-52.21,12.81-1.59.49-5.88,1.81-6.18,3.32-.19.97.31,7.45.59,8.41.35,1.2,6.09,3.74,7.57,4.43ZM377.64,425.01c.07,1.38.12,2.53-.38,3.86-1.62,4.26-9.54,16.86-12.4,21.1-.61.9-1.15,2.09-2.2,2.54.17-1.72-.4-3.87.26-5.48,1.68-4.12,10.12-16.29,13.12-20.38.44-.59.85-1.43,1.61-1.64ZM376.65,418.52l-16.74,25.87-33.25-13.38,50-12.49ZM323.15,433.51l34.95,13.55.05,5.95c-.55.1-1-.06-1.52-.23-7.38-2.35-21.4-8.48-28.47-12.03-3.71-1.86-5.78-2.42-5-7.24Z"/>
  <path class="cls-1" d="M195.18,447.23c6.88,5.09,28.85,4.35,36.97,2.02,2.96-.85,7.11-1.95,7.51-5.49.27-2.3.27-11.79-.58-13.45-1.12-2.2-4.34-3.26-6.56-3.94-6.88-2.11-15.8-2.27-22.98-1.72-6.23.48-16.11,1.44-16.89,9.11-.4,3.96-.89,10.94,2.52,13.46ZM225.76,428.65c1.05.17,11.35,2.24,9.89,4.35-2.7,1.28-5.43,2.31-8.39,2.86-9.33,1.74-22.59,1.86-30.59-3.6,7.9-4.92,20.1-5.04,29.1-3.61ZM196.65,437.51c12.61,3.77,26.41,4,38.99,0,.71,6.85-.56,7.23-6.58,8.66-7.78,1.85-17.63,1.92-25.42.09-5.85-1.37-7.85-2.03-6.99-8.75Z"/>
  <path class="cls-1" d="M141.77,449.14c9.08,2.79,26.98,2.87,35.72-1.04,6.15-2.75,3.63-5.55,3.63-10.84,0-3.73,1.95-5.5-1.51-8.46-5.41-4.63-21.13-4.67-28.06-4.14-3.98.3-13.52,1.59-15.83,5.17-1.42,2.19-1.58,12.7-.6,14.97,1.11,2.6,4.18,3.58,6.66,4.34ZM176.82,431.59c.56.43,1.02.52.83,1.41-9.8,4.4-22.64,5.08-33,2.26-2.1-.57-4.5-1.34-5.99-3,7.3-5.51,31.39-5.87,38.16-.67ZM138.65,437.51c12.58,3.85,26.42,3.91,38.99,0,.12,5.32.93,6.2-4.23,8.02-7.9,2.78-23.46,2.8-31.26-.28-4.77-1.88-3.42-2.95-3.5-7.74Z"/>
  <path class="cls-1" d="M83.77,449.14c9.08,2.79,26.98,2.86,35.72-1.04,5.79-2.59,3.66-4.83,3.64-9.82-.02-5.58,1.96-8.43-4.34-11.16-6.67-2.89-18.02-3.02-25.24-2.46-4.01.31-13.87,1.67-16.11,5.39-1.15,1.91-1.19,12.73-.32,14.75,1.11,2.6,4.18,3.58,6.66,4.34ZM118.82,431.59c.56.43,1.02.52.83,1.41-9.8,4.4-22.64,5.08-33,2.26-2.1-.57-4.5-1.34-5.99-3,7.3-5.51,31.39-5.87,38.16-.67ZM80.65,437.51c12.59,3.88,26.38,3.94,38.99,0,.12,5.32.93,6.2-4.23,8.02-7.9,2.78-23.46,2.8-31.26-.28-4.77-1.88-3.42-2.95-3.5-7.74Z"/>
  <path class="cls-1" d="M709.69,416.72c-1.83-2.29-4.62.96-2.92,2.67,1.47,1.47,4.67-.48,2.92-2.67Z"/>
</svg>