<?xml version="1.0" encoding="UTF-8"?>
<svg id="_图层_11" data-name="图层 11" xmlns="http://www.w3.org/2000/svg" viewBox="0 0 168.01 125.54">
  <defs>
    <style>
      .cls-1 {
        fill: #070707;
      }

      .cls-2 {
        fill: #f5f5f1;
      }

      .cls-3 {
        fill: #19ff0a;
      }

      .cls-4 {
        fill: #fbff0a;
      }

      .cls-5 {
        fill: #451ec3;
      }
    </style>
  </defs>
  <g>
    <ellipse class="cls-5" cx="83.29" cy="79.97" rx="83.91" ry="44.4" transform="translate(-10.59 12.75) rotate(-8.23)"/>
    <g>
      <path class="cls-1" d="M160.52,40.76c-12.86-14.45-40.93-24.48-73.52-24.48S26.34,26.31,13.48,40.76h-7.49v30.57c0,23.3,36.27,42.19,81,42.19s81-18.89,81-42.19v-30.57h-7.49Z"/>
      <g>
        <path class="cls-2" d="M87,81.38c-21.16,0-41.01-4.27-55.89-12.02-14.26-7.43-22.11-17.08-22.11-27.17s7.85-19.75,22.11-27.17c14.88-7.75,34.73-12.02,55.89-12.02s41.01,4.27,55.89,12.02c14.26,7.43,22.11,17.08,22.11,27.17s-7.85,19.75-22.11,27.17c-14.88,7.75-34.73,12.02-55.89,12.02Z"/>
        <path d="M87,6c20.69,0,40.05,4.15,54.51,11.68,13.03,6.79,20.5,15.72,20.5,24.51s-7.47,17.73-20.5,24.51c-14.46,7.53-33.82,11.68-54.51,11.68s-40.05-4.15-54.51-11.68c-13.03-6.78-20.5-15.72-20.5-24.51s7.47-17.73,20.5-24.51c14.46-7.53,33.82-11.68,54.51-11.68M87,0C42.26,0,6,18.89,6,42.19s36.27,42.19,81,42.19,81-18.89,81-42.19S131.74,0,87,0h0Z"/>
      </g>
    </g>
  </g>
  <g>
    <g>
      <polygon class="cls-4" points="51.97 24.81 51.97 33.34 88.29 63.6 124.68 33.8 124.68 24.81 124.68 24.79 51.97 24.81"/>
      <path d="M88.29,64.89l-37.32-31.08v-9.99l74.71-.03v10.48l-37.39,30.62ZM52.96,32.87l35.33,29.43,35.38-28.97v-7.54l-70.71.03v7.06Z"/>
    </g>
    <g>
      <polygon class="cls-3" points="88.14 53.11 53.64 24.81 123 24.79 88.14 53.11"/>
      <path d="M88.13,54.4l-37.28-30.59,74.97-.03-37.68,30.62ZM56.44,25.81l31.7,26.01,32.04-26.03-63.74.02Z"/>
    </g>
    <rect x="87.14" y="53.11" width="2" height="10.48"/>
    <polygon points="88.29 63.6 51.97 33.34 52.37 24.79 88.14 53.11 88.29 63.6"/>
    <polygon points="88.32 63.6 124.65 33.34 124.24 24.79 88.48 53.11 88.32 63.6"/>
  </g>
</svg>