<?xml version="1.0" encoding="UTF-8"?>
<svg id="_图层_11" data-name="图层 11" xmlns="http://www.w3.org/2000/svg" viewBox="0 0 283.57 83.16">
  <defs>
    <style>
      .cls-1 {
        fill: #070707;
      }

      .cls-2 {
        fill: #f5f5f1;
      }

      .cls-3 {
        fill: #451ec3;
      }
    </style>
  </defs>
  <path class="cls-3" d="M248.59,30.19c-1.65-2-4.25-3.18-7.01-3.18H41.98c-2.76,0-5.36,1.18-7.01,3.18L1.76,70.49c-4.31,5.23-.19,12.68,7.01,12.68h266.04c7.2,0,11.32-7.45,7.01-12.68l-33.22-40.29Z"/>
  <path class="cls-1" d="M13.28,49.1h257.02v13.84c0,7.06-5.73,12.79-12.79,12.79H26.06c-7.06,0-12.79-5.73-12.79-12.79v-13.84h0Z"/>
  <g>
    <path class="cls-2" d="M21.22,53.15c-1.91,0-3.55-1.02-4.41-2.72-.85-1.7-.68-3.63.46-5.16L47.38,4.98c.93-1.24,2.4-1.98,3.95-1.98h180.91c1.55,0,3.02.74,3.95,1.98l30.11,40.29c1.14,1.53,1.31,3.46.46,5.16-.85,1.7-2.5,2.72-4.41,2.72H21.22Z"/>
    <path d="M232.24,6c.61,0,1.18.29,1.55.77l30.11,40.29c.62.83.38,1.62.18,2.02-.2.4-.69,1.07-1.73,1.07H21.22c-1.04,0-1.53-.67-1.73-1.07-.2-.4-.44-1.19.18-2.02L49.78,6.77c.36-.49.94-.77,1.55-.77h180.91M232.24,0H51.33c-2.5,0-4.86,1.18-6.35,3.18L14.87,43.48c-3.91,5.23-.18,12.68,6.35,12.68h241.13c6.53,0,10.26-7.45,6.35-12.68L238.59,3.18c-1.5-2-3.85-3.18-6.35-3.18h0Z"/>
  </g>
</svg>