<?xml version="1.0" encoding="UTF-8"?>
<svg id="_图层_11" data-name="图层 11" xmlns="http://www.w3.org/2000/svg" xmlns:xlink="http://www.w3.org/1999/xlink" viewBox="0 0 283.57 83.16">
  <defs>
    <style>
      .cls-1 {
        filter: url(#outer-glow-1);
      }

      .cls-2 {
        fill: #f5f5f1;
      }

      .cls-3 {
        fill: #451ec3;
      }
    </style>
    <filter id="outer-glow-1" x="-2.22" y="-7.28" width="288" height="97" filterUnits="userSpaceOnUse">
      <feOffset dx="0" dy="0"/>
      <feGaussianBlur result="blur" stdDeviation="5"/>
      <feFlood flood-color="#f9ff00" flood-opacity="1"/>
      <feComposite in2="blur" operator="in"/>
      <feComposite in="SourceGraphic"/>
    </filter>
  </defs>
  <path class="cls-3" d="M248.59,30.19c-1.65-2-4.25-3.18-7.01-3.18H41.98c-2.76,0-5.36,1.18-7.01,3.18L1.76,70.49c-4.31,5.23-.19,12.68,7.01,12.68h266.04c7.2,0,11.32-7.45,7.01-12.68l-33.22-40.29Z"/>
  <path class="cls-2" d="M21.22,61.05c-1.91,0-3.55-1.02-4.41-2.72-.85-1.7-.68-3.63.46-5.16L47.38,12.87c.93-1.24,2.4-1.98,3.95-1.98h180.91c1.55,0,3.02.74,3.95,1.98l30.11,40.29c1.14,1.53,1.31,3.46.46,5.16-.85,1.7-2.5,2.72-4.41,2.72H21.22Z"/>
  <g class="cls-1">
    <path d="M270.22,57c.22-1.88-.22-3.88-1.52-5.62l-30.11-40.29c-1.5-2-3.85-3.18-6.35-3.18H51.33c-2.5,0-4.86,1.18-6.35,3.18L14.87,51.37c-1.31,1.75-1.74,3.74-1.52,5.62h-.07v11.21c0,3.54,2.87,6.42,6.42,6.42h244.18c3.54,0,6.42-2.87,6.42-6.42v-11.21h-.07ZM19.49,56.98c-.2-.4-.44-1.19.18-2.02L49.78,14.67c.36-.49.94-.77,1.55-.77h180.91c.61,0,1.18.29,1.55.77l30.11,40.29c.62.83.38,1.62.18,2.02,0,0,0,0,0,.01H19.5s0,0,0-.01Z"/>
  </g>
</svg>