<?xml version="1.0" encoding="UTF-8"?>
<svg id="_图层_11" data-name="图层 11" xmlns="http://www.w3.org/2000/svg" viewBox="0 0 168.01 125.54">
  <defs>
    <style>
      .cls-1 {
        fill: #070707;
      }

      .cls-2 {
        fill: #f5f5f1;
      }

      .cls-3 {
        fill: #fbff0a;
      }

      .cls-3, .cls-4 {
        stroke: #000;
        stroke-miterlimit: 10;
        stroke-width: 2px;
      }

      .cls-5 {
        fill: #451ec3;
      }

      .cls-4 {
        fill: none;
      }
    </style>
  </defs>
  <ellipse class="cls-5" cx="87.03" cy="83.31" rx="79.79" ry="42.02" transform="translate(-4.93 5.48) rotate(-3.5)"/>
  <g>
    <path class="cls-1" d="M160.52,71.03c-12.86-14.45-40.93-24.48-73.52-24.48s-60.66,10.03-73.52,24.48h-7.49v6.86c0,23.3,36.27,42.19,81,42.19s81-18.89,81-42.19v-6.86h-7.49Z"/>
    <g>
      <path class="cls-2" d="M87,111.04c-21.16,0-41.01-4.27-55.89-12.02-14.26-7.43-22.11-17.08-22.11-27.17s7.85-19.75,22.11-27.17c14.88-7.75,34.73-12.02,55.89-12.02s41.01,4.27,55.89,12.02c14.26,7.43,22.11,17.08,22.11,27.17s-7.85,19.75-22.11,27.17c-14.88,7.75-34.73,12.02-55.89,12.02Z"/>
      <path d="M87,35.66c20.69,0,40.05,4.15,54.51,11.68,13.03,6.79,20.5,15.72,20.5,24.51s-7.47,17.73-20.5,24.51c-14.46,7.53-33.82,11.68-54.51,11.68s-40.05-4.15-54.51-11.68c-13.03-6.78-20.5-15.72-20.5-24.51s7.47-17.73,20.5-24.51c14.46-7.53,33.82-11.68,54.51-11.68M87,29.66C42.26,29.66,6,48.55,6,71.85s36.27,42.19,81,42.19,81-18.89,81-42.19-36.27-42.19-81-42.19h0Z"/>
    </g>
  </g>
  <g>
    <polygon class="cls-3" points="87.85 46.98 53.36 75.48 53.36 83.31 122.71 83.31 122.71 75.5 87.85 46.98"/>
    <line class="cls-4" x1="53.36" y1="75.48" x2="122.71" y2="75.48"/>
    <rect x="53.36" y="75.91" width="69.35" height="7.41"/>
  </g>
</svg>