<?xml version="1.0" encoding="UTF-8"?>
<svg id="_图层_1" data-name="图层 1" xmlns="http://www.w3.org/2000/svg" xmlns:xlink="http://www.w3.org/1999/xlink" viewBox="0 0 1646.2 994.5">
  <defs>
    <style>
      .cls-1 {
        fill: #070707;
      }

      .cls-2 {
        fill: url(#_未命名的渐变_28-9);
      }

      .cls-3 {
        fill: url(#_未命名的渐变_28-8);
      }

      .cls-4 {
        fill: url(#_未命名的渐变_28-7);
      }

      .cls-5 {
        fill: url(#_未命名的渐变_28-6);
      }

      .cls-6 {
        fill: url(#_未命名的渐变_28-5);
      }

      .cls-7 {
        fill: url(#_未命名的渐变_28-4);
      }

      .cls-8 {
        fill: url(#_未命名的渐变_28-2);
      }

      .cls-9 {
        fill: url(#_未命名的渐变_28-3);
      }

      .cls-10 {
        fill: #c9bb00;
      }

      .cls-11 {
        fill: #f5f5f1;
      }

      .cls-12 {
        isolation: isolate;
      }

      .cls-13 {
        fill: #abafb7;
      }

      .cls-14 {
        fill: #231815;
      }

      .cls-15 {
        fill: #ecefef;
      }

      .cls-16 {
        fill: #d0d2d2;
      }

      .cls-17 {
        fill: #a31a00;
      }

      .cls-18 {
        fill: url(#_未命名的渐变_28);
      }

      .cls-19 {
        fill: url(#_未命名的渐变_28-14);
      }

      .cls-20 {
        fill: url(#_未命名的渐变_28-11);
      }

      .cls-21 {
        fill: url(#_未命名的渐变_28-10);
      }

      .cls-22 {
        fill: url(#_未命名的渐变_28-13);
      }

      .cls-23 {
        fill: url(#_未命名的渐变_28-15);
      }

      .cls-24 {
        fill: url(#_未命名的渐变_28-12);
      }

      .cls-25 {
        fill: #7e8182;
      }

      .cls-26 {
        fill: #74a900;
      }
    </style>
    <linearGradient id="_未命名的渐变_28" data-name="未命名的渐变 28" x1="70.12" y1="932.71" x2="593.7" y2="853.14" gradientUnits="userSpaceOnUse">
      <stop offset="0" stop-color="#ecefef"/>
      <stop offset=".5" stop-color="#abafb7"/>
      <stop offset="1" stop-color="#ecefef"/>
    </linearGradient>
    <linearGradient id="_未命名的渐变_28-2" data-name="未命名的渐变 28" x1="70.91" y1="937.91" x2="594.49" y2="858.34" xlink:href="#_未命名的渐变_28"/>
    <linearGradient id="_未命名的渐变_28-3" data-name="未命名的渐变 28" x1="71.27" y1="940.24" x2="594.84" y2="860.66" xlink:href="#_未命名的渐变_28"/>
    <linearGradient id="_未命名的渐变_28-4" data-name="未命名的渐变 28" x1="72.18" y1="946.26" x2="595.76" y2="866.69" xlink:href="#_未命名的渐变_28"/>
    <linearGradient id="_未命名的渐变_28-5" data-name="未命名的渐变 28" x1="72.95" y1="951.33" x2="596.53" y2="871.76" xlink:href="#_未命名的渐变_28"/>
    <linearGradient id="_未命名的渐变_28-6" data-name="未命名的渐变 28" x1="74.29" y1="960.12" x2="597.87" y2="880.55" xlink:href="#_未命名的渐变_28"/>
    <linearGradient id="_未命名的渐变_28-7" data-name="未命名的渐变 28" x1="75.23" y1="966.3" x2="598.8" y2="886.73" xlink:href="#_未命名的渐变_28"/>
    <linearGradient id="_未命名的渐变_28-8" data-name="未命名的渐变 28" x1="75.96" y1="971.11" x2="599.53" y2="891.54" xlink:href="#_未命名的渐变_28"/>
    <linearGradient id="_未命名的渐变_28-9" data-name="未命名的渐变 28" x1="76.83" y1="976.85" x2="600.41" y2="897.28" xlink:href="#_未命名的渐变_28"/>
    <linearGradient id="_未命名的渐变_28-10" data-name="未命名的渐变 28" x1="77.75" y1="982.9" x2="601.33" y2="903.32" xlink:href="#_未命名的渐变_28"/>
    <linearGradient id="_未命名的渐变_28-11" data-name="未命名的渐变 28" x1="78.31" y1="986.61" x2="601.89" y2="907.04" xlink:href="#_未命名的渐变_28"/>
    <linearGradient id="_未命名的渐变_28-12" data-name="未命名的渐变 28" x1="79.15" y1="992.12" x2="602.73" y2="912.55" xlink:href="#_未命名的渐变_28"/>
    <linearGradient id="_未命名的渐变_28-13" data-name="未命名的渐变 28" x1="79.71" y1="995.78" x2="603.28" y2="916.2" xlink:href="#_未命名的渐变_28"/>
    <linearGradient id="_未命名的渐变_28-14" data-name="未命名的渐变 28" x1="80.43" y1="1000.56" x2="604.01" y2="920.98" xlink:href="#_未命名的渐变_28"/>
    <linearGradient id="_未命名的渐变_28-15" data-name="未命名的渐变 28" x1="81.27" y1="1006.05" x2="604.85" y2="926.48" xlink:href="#_未命名的渐变_28"/>
  </defs>
  <g class="cls-12">
    <g id="_图层_3" data-name=" 图层 3">
      <g>
        <g>
          <rect class="cls-25" y="864.2" width="1646.2" height="130.3"/>
          <path class="cls-11" d="M1639.6,856.8l-83.8-101.5c-9.6-11.7-15.8-25.8-17.9-40.8l-76.6-678.4c-2.6-18.9-19-33.1-38.1-33.1H223c-19.1,0-35.4,14.2-38.1,33.1l-76.6,678.5c-2.1,15-8.3,29.1-17.9,40.7L6.6,856.8c-3.9,4.7-4.7,10.9-2.1,16.4,2.6,5.6,7.8,8.9,14,8.9h1609.2c6.1,0,11.3-3.3,14-8.9,2.6-5.5,1.8-11.7-2.1-16.4ZM1435.7,615.1H214.2V33.6h1221.5v581.5Z"/>
          <path d="M1423.2,6c17.6,0,32.6,13.1,35.1,30.5l76.6,678.4h0v.1c2.2,15.5,8.6,30.1,18.6,42.2l83.8,101.5c3.1,3.8,3.8,8.7,1.7,13.2-2.1,4.5-6.3,7.1-11.2,7.1H18.5c-4.9,0-9.1-2.7-11.2-7.1-2.1-4.5-1.5-9.4,1.7-13.2l83.8-101.5c10-12.1,16.4-26.7,18.6-42.2h0v-.1L187.9,36.5c2.5-17.4,17.5-30.5,35.1-30.5h1200.2ZM1423.2,0H223C202.3,0,184.8,15.2,182,35.7l-76.6,678.5c-2,14.4-8,28-17.3,39.2L4.3,854.9c-9.9,12-1.4,30.2,14.2,30.2h1609.2c15.6,0,24.1-18.2,14.2-30.2l-83.8-101.5c-9.3-11.2-15.3-24.8-17.3-39.2l-76.6-678.5C1461.3,15.2,1443.8,0,1423.2,0h0Z"/>
          <g>
            <path class="cls-13" d="M1508.5,647l-24.2-226.9v-.2l-24.3-228.3v-.2l-13-157c-1.2-9.4-9.2-16.4-18.6-16.4H218.6c-9.4,0-17.4,7-18.6,16.4l-9,118.1-32.5,301.5-20.8,193c-.7,5,.8,9.8,3.5,13.6,3.4,4.6,8.9,7.6,15.1,7.6h1333.6c4.4,0,8.4-1.5,11.5-4,5-3.9,8-10.3,7.1-17.2h0ZM214.2,615.1V33.6h1221.5v581.5H214.2Z"/>
            <path class="cls-15" d="M1501.4,664.2c-3.2,2.5-7.2,4-11.5,4H156.3c-6.2,0-11.7-3-15.1-7.6l2.5-1.6,70.4-43.8h1221.5l64.1,47.8,1.6,1.2h.1Z"/>
            <path class="cls-16" d="M163,419.9c-9.9,71.9-18.1,146.5-25.6,218.8l-.6,5.8c-.2,1.8-.5,4.3-.4,6.1,0,10,8.3,18.9,18.3,19.6,37.7,0,111.3-.9,149-2.1-37.6-1.3-111-1.7-148.6-2.3-8.1-.7-14.7-8.5-13.9-16.7,8.2-75.7,16.3-153.4,21.9-229.3h0l-.1.1Z"/>
            <path class="cls-16" d="M1484.3,419.9c9.9,71.9,18.1,146.5,25.6,218.8l.6,5.8c.2,1.8.5,4.3.4,6.1,0,10-8.3,18.9-18.3,19.6-37.7,0-93.9-.9-131.6-2.1,37.6-1.3,93.6-1.7,131.2-2.3,8.1-.7,14.7-8.5,13.9-16.7-8.2-75.7-16.3-153.4-21.9-229.3h0l.1.1Z"/>
            <path class="cls-16" d="M1303,18c33-.6,70-.8,103.1-.9h21.5c8.3,0,16.3,5.6,18.9,13.6.8,2.1,1,4.3,1.3,6.5l1.8,17.1c3.5,32.8,7.3,104.5,10.3,137.4-4.9-38.7-9.7-115.5-14.1-154.3-.3-8.4-6-15.9-14.3-17.8-2.3-.7-5.9-.5-8.3-.5h-17.2c-33,0-70-.3-103.1-.9h0l.1-.2Z"/>
            <path class="cls-16" d="M1303,18c-33-.6-1030-.8-1063-.9h-21.5c-8.3,0-16.3,5.6-18.9,13.6-.8,2.1-1,4.3-1.3,6.5l-1.8,17.1c-3.5,32.8-7.3,104.5-10.3,137.4,4.9-38.7,9.7-115.5,14.1-154.3.3-8.4,6-15.9,14.3-17.8,2.3-.7,5.9-.5,8.3-.5h17.2c33,0,70-.3,103.1-.9h960l-.2-.2Z"/>
            <path class="cls-16" d="M240,18c299.8-3.3,606-3.3,905.7-.4l164.3.4-164.3.4c-299.7,2.9-605.9,2.9-905.7-.4h0Z"/>
          </g>
          <path class="cls-16" d="M1609.9,865.1H36.3c-5.8,0-8.9-6.7-5.3-11.2l72.5-87.8c11.6-14.1,19.1-31.1,21.7-49.2v-.4l1.2-21.7c.4-7,6.2-12.6,13.3-12.6h1366.8c7.1,0,12.9,5.5,13.3,12.6l1.2,21.7v.4c2.5,18.1,10,35.1,21.6,49.2l72.5,87.8c3.7,4.5.5,11.2-5.3,11.2h.1Z"/>
          <path class="cls-1" d="M458.1,829.9H112.2c-3.8,0-5.9-4.3-3.6-7.3l21.2-27.6c.9-1.1,2.2-1.8,3.6-1.8h302.5c1.4,0,2.7.6,3.6,1.7l22.2,27.6c2.4,3,.3,7.4-3.6,7.4h0Z"/>
          <g>
            <g>
              <path class="cls-11" d="M685.7,706.5h5l4.4,13.8c1,3.1,1.7,5.7,2.7,8.7h.2c1.1-3.1,1.7-5.7,2.7-8.7l4.4-13.8h4.8l-9.3,26.7h-5.5l-9.3-26.7h-.1Z"/>
              <path class="cls-11" d="M716,707c0-1.5,1.2-2.5,2.9-2.5s2.9,1,2.9,2.5-1.2,2.5-2.9,2.5-2.9-1-2.9-2.5ZM716.6,713.2h4.7v20h-4.7v-20Z"/>
              <path class="cls-11" d="M729.9,723.2c0-6.5,5-10.5,10.2-10.5s9.1,3.8,9.1,9.4,0,1.6-.2,2.1h-14.4c.4,3.8,3,6.1,6.9,6.1s3.7-.5,5.3-1.5l1.6,2.7c-2,1.2-4.6,2.1-7.5,2.1-6.1,0-10.9-3.9-10.9-10.5l-.1.1ZM745.1,721.4c0-3.4-1.7-5.4-5-5.4s-5.3,1.9-5.7,5.4h10.7Z"/>
              <path class="cls-11" d="M755.1,713.2h4.7l3,10.8c.4,1.9.8,3.8,1.2,5.7h.2c.5-1.9.9-3.8,1.4-5.7l3.1-10.8h4.3l3.2,10.8c.5,1.9,1,3.8,1.5,5.7h.2c.4-1.9.8-3.8,1.3-5.7l2.9-10.8h4.4l-5.8,20h-5.6l-2.8-9.8c-.5-1.9-.9-3.7-1.4-5.8h-.2c-.4,2.1-.8,3.9-1.4,5.8l-2.8,9.8h-5.4l-6-20h0Z"/>
              <path class="cls-11" d="M807,706.5h9c6.6,0,11.4,2,11.4,8.1s-4.7,8.5-11.2,8.5h-4.5v10.1h-4.7v-26.7h0ZM815.8,719.7c4.7,0,7-1.6,7-5.1s-2.4-4.7-7.2-4.7h-3.9v9.8h4.1Z"/>
              <path class="cls-11" d="M836,713.2h3.8l.4,3.6h.1c1.6-2.6,3.9-4.1,6.3-4.1s1.8.1,2.5.4l-.8,3.6c-.8-.2-1.3-.3-2.3-.3-1.8,0-4,1.1-5.4,4.3v12.4h-4.7v-20l.1.1Z"/>
              <path class="cls-11" d="M853.7,723.2c0-6.6,5-10.5,10.5-10.5s10.5,3.8,10.5,10.5-5,10.5-10.5,10.5-10.5-3.8-10.5-10.5ZM869.8,723.2c0-4.2-2.2-7-5.7-7s-5.7,2.8-5.7,7,2.2,7,5.7,7,5.7-2.8,5.7-7Z"/>
              <path class="cls-11" d="M877.9,741.3l.9-3.1c.6.2,1.3.3,2,.3,2.1,0,2.6-1.4,2.6-3.7v-21.5h4.7v21.5c0,4.2-1.8,7.1-6.7,7.1s-2.6-.2-3.4-.5l-.1-.1ZM882.8,707c0-1.5,1.2-2.5,2.9-2.5s2.9,1,2.9,2.5-1.2,2.5-2.9,2.5-2.9-1-2.9-2.5Z"/>
              <path class="cls-11" d="M896.7,723.2c0-6.5,5-10.5,10.2-10.5s9.1,3.8,9.1,9.4,0,1.6-.2,2.1h-14.4c.4,3.8,3,6.1,6.9,6.1s3.7-.5,5.3-1.5l1.6,2.7c-2,1.2-4.6,2.1-7.5,2.1-6.1,0-10.9-3.9-10.9-10.5l-.1.1ZM911.9,721.4c0-3.4-1.7-5.4-5-5.4s-5.3,1.9-5.7,5.4h10.7Z"/>
              <path class="cls-11" d="M922.8,723.2c0-6.6,5.1-10.5,11-10.5s4.9,1,6.5,2.3l-2.3,2.7c-1.2-1-2.5-1.6-4-1.6-3.8,0-6.4,2.8-6.4,7s2.6,7,6.3,7,3.5-.8,4.8-1.8l1.9,2.8c-2.1,1.6-4.7,2.5-7.2,2.5-6,0-10.6-3.8-10.6-10.5v.1Z"/>
              <path class="cls-11" d="M948.7,726.7v-10.1h-3.2v-3.1l3.5-.2.5-5.5h3.9v5.5h5.8v3.4h-5.8v10.1c0,2.4.9,3.6,3.3,3.6s1.7-.2,2.4-.5l.8,3.1c-1.2.4-2.7.7-4.4.7-5,0-6.8-2.8-6.8-7Z"/>
            </g>
            <g>
              <polygon class="cls-14" points="703.5 737.2 692.2 737.2 680.1 702.5 693.6 702.5 697.9 716 702.2 702.5 715.6 702.5 703.5 737.2"/>
              <path class="cls-14" d="M725.2,737.2h-12.7v-27.6c-.3-.8-.5-1.7-.5-2.6,0-3.7,3-6.5,6.9-6.5s6.9,2.8,6.9,6.5-.2,1.9-.6,2.7v27.5h0ZM718.9,705.5c-.3,0-1.1.7-1.1,1.5s.7,1.5,1.1,1.5,1.1-.7,1.1-1.5-.7-1.4-1.1-1.5Z"/>
              <path class="cls-14" d="M740.8,737.7c-8.6,0-14.9-6.1-14.9-14.5s7.2-14.5,14.2-14.5,13.1,5.4,13.1,13.4-.1,2.2-.3,3.1l-.8,3h-1.1l2.8,4.6-3.4,2.1c-2.9,1.8-6.2,2.7-9.6,2.7v.1Z"/>
              <polygon class="cls-14" points="783.7 737.2 772.1 737.2 770.8 732.7 769.5 737.2 758.1 737.2 749.7 709.2 762.8 709.2 764.2 714.3 765.7 709.2 776 709.2 777.6 714.4 778.9 709.2 791.7 709.2 783.7 737.2"/>
              <path class="cls-14" d="M815.7,737.2h-12.7v-34.7h13c4.6,0,15.4,1.2,15.4,12.1s-5.8,12.5-15.2,12.5h-.5v10.1h0ZM815.7,715.7h0c2.2,0,2.9-.5,2.9-.5v-.6c0-.4,0-.2,0-.3-.3-.1-1.1-.4-3-.4v1.8h.1Z"/>
              <path class="cls-14" d="M844.7,737.2h-12.7v-28h11.4c1-.3,2.1-.5,3.2-.5,1.6,0,2.8.2,4,.7l3.1,1.3-2.5,11-4-1.1c-.5-.1-.7-.2-1.2-.2s-.8.3-1.4,1.3v15.5h.1Z"/>
              <path class="cls-14" d="M864.2,737.7c-8.3,0-14.5-6.2-14.5-14.5s6.2-14.5,14.5-14.5,14.5,6.2,14.5,14.5-6.2,14.5-14.5,14.5ZM864.2,720.2c-1.4,0-1.7,1.7-1.7,3s.3,3,1.7,3,1.7-1.6,1.7-3-.2-3-1.7-3Z"/>
              <path class="cls-14" d="M881.3,745.8c-1.8,0-3.4-.3-4.8-.8l-3.5-1.3,2.9-10.6,3.4,1v-24.5c-.4-.8-.6-1.7-.6-2.7,0-3.7,3-6.5,6.9-6.5s6.9,2.8,6.9,6.5-.2,1.8-.5,2.6v25.1c0,6.9-4,11.1-10.7,11.1v.1ZM879.3,735.7h0ZM885.7,705.5c-.3,0-1.1.7-1.1,1.5s.7,1.5,1.1,1.5,1.1-.7,1.1-1.5-.7-1.4-1.1-1.5Z"/>
              <path class="cls-14" d="M907.6,737.7c-8.6,0-14.9-6.1-14.9-14.5s7.2-14.5,14.2-14.5,13.1,5.4,13.1,13.4-.1,2.2-.3,3.1l-.8,3h-1.1l2.8,4.6-3.4,2.1c-2.9,1.8-6.2,2.7-9.6,2.7v.1Z"/>
              <path class="cls-14" d="M933.5,737.7c-8.6,0-14.6-5.9-14.6-14.5s6.3-14.5,15-14.5,6.4,1.1,9,3.2l3.2,2.6-7.4,8.8-3-2.4c-.9-.7-1.3-.7-1.5-.7-2.1,0-2.4,1.9-2.4,3s.4,3,2.3,3,1.9-.6,2.4-1l3.3-2.6,6.5,9.4-3,2.3c-2.7,2.2-6.2,3.3-9.7,3.3l-.1.1Z"/>
              <path class="cls-14" d="M955.4,737.7c-6.7,0-10.8-4.1-10.8-11v-6.1h-3.2v-10.9l3.8-.2.5-5.8h11.5v5.5h5.8v11.4h-5.8v5.6h.2l4.1-1.5,3,11.1-3.8,1.1c-1.5.4-3.4.9-5.5.9l.2-.1Z"/>
            </g>
            <g>
              <path class="cls-11" d="M685.7,706.5h5l4.4,13.8c1,3.1,1.7,5.7,2.7,8.7h.2c1.1-3.1,1.7-5.7,2.7-8.7l4.4-13.8h4.8l-9.3,26.7h-5.5l-9.3-26.7h-.1Z"/>
              <path class="cls-11" d="M716,707c0-1.5,1.2-2.5,2.9-2.5s2.9,1,2.9,2.5-1.2,2.5-2.9,2.5-2.9-1-2.9-2.5ZM716.6,713.2h4.7v20h-4.7v-20Z"/>
              <path class="cls-11" d="M729.9,723.2c0-6.5,5-10.5,10.2-10.5s9.1,3.8,9.1,9.4,0,1.6-.2,2.1h-14.4c.4,3.8,3,6.1,6.9,6.1s3.7-.5,5.3-1.5l1.6,2.7c-2,1.2-4.6,2.1-7.5,2.1-6.1,0-10.9-3.9-10.9-10.5l-.1.1ZM745.1,721.4c0-3.4-1.7-5.4-5-5.4s-5.3,1.9-5.7,5.4h10.7Z"/>
              <path class="cls-11" d="M755.1,713.2h4.7l3,10.8c.4,1.9.8,3.8,1.2,5.7h.2c.5-1.9.9-3.8,1.4-5.7l3.1-10.8h4.3l3.2,10.8c.5,1.9,1,3.8,1.5,5.7h.2c.4-1.9.8-3.8,1.3-5.7l2.9-10.8h4.4l-5.8,20h-5.6l-2.8-9.8c-.5-1.9-.9-3.7-1.4-5.8h-.2c-.4,2.1-.8,3.9-1.4,5.8l-2.8,9.8h-5.4l-6-20h0Z"/>
              <path class="cls-11" d="M807,706.5h9c6.6,0,11.4,2,11.4,8.1s-4.7,8.5-11.2,8.5h-4.5v10.1h-4.7v-26.7h0ZM815.8,719.7c4.7,0,7-1.6,7-5.1s-2.4-4.7-7.2-4.7h-3.9v9.8h4.1Z"/>
              <path class="cls-11" d="M836,713.2h3.8l.4,3.6h.1c1.6-2.6,3.9-4.1,6.3-4.1s1.8.1,2.5.4l-.8,3.6c-.8-.2-1.3-.3-2.3-.3-1.8,0-4,1.1-5.4,4.3v12.4h-4.7v-20l.1.1Z"/>
              <path class="cls-11" d="M853.7,723.2c0-6.6,5-10.5,10.5-10.5s10.5,3.8,10.5,10.5-5,10.5-10.5,10.5-10.5-3.8-10.5-10.5ZM869.8,723.2c0-4.2-2.2-7-5.7-7s-5.7,2.8-5.7,7,2.2,7,5.7,7,5.7-2.8,5.7-7Z"/>
              <path class="cls-11" d="M877.9,741.3l.9-3.1c.6.2,1.3.3,2,.3,2.1,0,2.6-1.4,2.6-3.7v-21.5h4.7v21.5c0,4.2-1.8,7.1-6.7,7.1s-2.6-.2-3.4-.5l-.1-.1ZM882.8,707c0-1.5,1.2-2.5,2.9-2.5s2.9,1,2.9,2.5-1.2,2.5-2.9,2.5-2.9-1-2.9-2.5Z"/>
              <path class="cls-11" d="M896.7,723.2c0-6.5,5-10.5,10.2-10.5s9.1,3.8,9.1,9.4,0,1.6-.2,2.1h-14.4c.4,3.8,3,6.1,6.9,6.1s3.7-.5,5.3-1.5l1.6,2.7c-2,1.2-4.6,2.1-7.5,2.1-6.1,0-10.9-3.9-10.9-10.5l-.1.1ZM911.9,721.4c0-3.4-1.7-5.4-5-5.4s-5.3,1.9-5.7,5.4h10.7Z"/>
              <path class="cls-11" d="M922.8,723.2c0-6.6,5.1-10.5,11-10.5s4.9,1,6.5,2.3l-2.3,2.7c-1.2-1-2.5-1.6-4-1.6-3.8,0-6.4,2.8-6.4,7s2.6,7,6.3,7,3.5-.8,4.8-1.8l1.9,2.8c-2.1,1.6-4.7,2.5-7.2,2.5-6,0-10.6-3.8-10.6-10.5v.1Z"/>
              <path class="cls-11" d="M948.7,726.7v-10.1h-3.2v-3.1l3.5-.2.5-5.5h3.9v5.5h5.8v3.4h-5.8v10.1c0,2.4.9,3.6,3.3,3.6s1.7-.2,2.4-.5l.8,3.1c-1.2.4-2.7.7-4.4.7-5,0-6.8-2.8-6.8-7Z"/>
            </g>
          </g>
          <g>
            <g>
              <path d="M242,955.24l.06-.02v-.04l.06-.02v-.04l.06-.02v-.04l.06-.02v-.04l.06-.02v-.04l.06-.02v-.04l.06-.02v-.04l.06-.02v-.04l.06-.02v-.04l.06-.02v-.04l.06-.02v-.04l.06-.02v-.04l.06-.02v-.04l.06-.02v-.04l.06-.02v-.04l.06-.02v-.04l.06-.02v-.04l.06-.02v-.04l.06-.02v-.04l.06-.02v-.04l.06-.02v-.04l.06-.02v-.04l.06-.02v-.04l.06-.02v-.04l.06-.02v-.04l.06-.02v-.04l.06-.02v-.04l.06-.02v-.04l.06-.02v-.04l.06-.02v-.04l.06-.02v-.04l.06-.02v-.04l.06-.02v-.04l.06-.02v-.04l.06-.02v-.04l.06-.02v-.04l.06-.02v-.04l.06-.02v-.04l.06-.02v-.04l.06-.02v-.04l.06-.02v-.04l.06-.02v-.04l.06-.02v-20.18h-13.38v.06h-.06v.06h-.06v.06h-.06v.06h-.06v.06h-.06v.06h-.06v.06h-.06v.06h-.06v.06h-.06v.06h-.06v.06h-.06v.06h-.06v.06h-.06v.06h-.06v.06h-.06v.06h-.06v.06h-.06v.06h-.06v.06h-.06v.06h-.06v.06h-.06v.06h-.06v.06h-.06v.06h-.06v.06h-.06v.06h-.06v.06h-.06v.06h-.06v.06h-.06v.06h-.06v.06h-.06v.06h-.06v.06h-.06v.06h-.06v.06h-.06v.06h-.06v.06h-.06v.06h-.06v.06h-.06v.06h-.06v.06h-.06v.06h-.06v.06h-.06v.06h-.06v.06h-.06v.06h-.06v.06h-.06v5.81h6.9v8.01c-.4.03-.81.04-1.21.04-4.2,0-7.79-1.33-10.76-4-2.97-2.67-4.46-5.88-4.46-9.65,0-2.81.83-5.32,2.49-7.52,2.81-2.24,6.13-3.37,9.96-3.37,2.06,0,4.04.36,5.95,1.09l.03-.07s.02,0,.03,0l.03-.07s.02,0,.03,0l.03-.07s.02,0,.03,0l.03-.07s.02,0,.03,0l.03-.07s.02,0,.03,0l.03-.07s.02,0,.03,0l.03-.07s.02,0,.03,0l.03-.07s.02,0,.03,0l.03-.07s.02,0,.03,0l.03-.07s.02,0,.03,0l.03-.07s.02,0,.03,0l.03-.07s.02,0,.03,0l.03-.07s.02,0,.03,0l.03-.07s.02,0,.03,0l.03-.07s.02,0,.03,0l.03-.07s.02,0,.03,0l.03-.07s.02,0,.03,0l.03-.07s.02,0,.03,0l.03-.07s.02,0,.03,0l.03-.07s.02,0,.03,0l.03-.07s.02,0,.03,0l.03-.07s.02,0,.03,0l.03-.07s.02,0,.03,0l.03-.07s.02,0,.03,0l.03-.07s.02,0,.03,0l.03-.07s.02,0,.03,0l.03-.07s.02,0,.03,0l.03-.07s.02,0,.03,0l.03-.07s.02,0,.03,0l.03-.07s.02,0,.03,0l.03-.07s.02,0,.03,0l.03-.07s.02,0,.03,0l.03-.07s.02,0,.03,0l.03-.07s.02,0,.03,0l.03-.07s.02,0,.03,0l.03-.07s.02,0,.03,0l.03-.07s.02,0,.03,0l.03-.07s.02,0,.03,0l.03-.07s.02,0,.03,0l.03-.07s.02,0,.03,0l.03-.07s.02,0,.03,0l.03-.07s.02,0,.03,0l.03-.07s.02,0,.03,0l.03-.07s.02,0,.03,0l.03-.07s.02,0,.03,0l.03-.07s.02,0,.03,0l.03-.07s.02,0,.03,0l2.5-5.36c-2.68-1.01-5.49-1.52-8.44-1.52-5.99,0-11.1,1.9-15.34,5.7-.28.25-.55.51-.82.77-.02.02-.04.04-.06.06-.02.02-.04.04-.06.06-.02.02-.04.04-.06.06-.02.02-.04.04-.06.06-.02.02-.04.04-.06.06-.02.02-.04.04-.06.06-.02.02-.04.04-.06.06-.02.02-.04.04-.06.06-.02.02-.04.04-.06.06-.02.02-.04.04-.06.06-.02.02-.04.04-.06.06-.02.02-.04.04-.06.06-.02.02-.04.04-.06.06-.02.02-.04.04-.06.06-.02.02-.04.04-.06.06-.02.02-.04.04-.06.06-.02.02-.04.04-.06.06-.02.02-.04.04-.06.06-.02.02-.04.04-.06.06-.02.02-.04.04-.06.06-.02.02-.04.04-.06.06-.02.02-.04.04-.06.06-.02.02-.04.04-.06.06-.02.02-.04.04-.06.06-.02.02-.04.04-.06.06-.02.02-.04.04-.06.06-.02.02-.04.04-.06.06-.02.02-.04.04-.06.06-.02.02-.04.04-.06.06-.02.02-.04.04-.06.06-.02.02-.04.04-.06.06-.02.02-.04.04-.06.06-.02.02-.04.04-.06.06-.02.02-.04.04-.06.06-.02.02-.04.04-.06.06-.02.02-.04.04-.06.06-.02.02-.04.04-.06.06-.02.02-.04.04-.06.06-.02.02-.04.04-.06.06-.02.02-.04.04-.06.06-.02.02-.04.04-.06.06-.02.02-.04.04-.06.06-.02.02-.04.04-.06.06-.02.02-.04.04-.06.06-.02.02-.04.04-.06.06-.02.02-.04.04-.06.06-3.74,3.66-5.6,8.01-5.6,13.04,0,5.37,2.12,9.95,6.36,13.75,4.24,3.8,9.35,5.7,15.34,5.7,2.95,0,5.79-.52,8.5-1.55l1.96-.75v-.04l.06-.02v-.04l.06-.02v-.04l.06-.02v-.04l.06-.02v-.04Z"/>
              <polygon points="78.21 916.5 70.72 916.5 70.68 916.56 70.66 916.56 70.62 916.62 70.6 916.62 70.56 916.68 70.54 916.68 70.5 916.74 70.48 916.74 70.44 916.8 70.42 916.8 70.38 916.86 70.36 916.86 70.32 916.92 70.3 916.92 70.26 916.98 70.24 916.98 70.21 917.03 70.19 917.03 70.15 917.09 70.13 917.09 70.09 917.15 70.07 917.15 70.03 917.21 70.01 917.21 69.97 917.27 69.95 917.27 69.91 917.33 69.89 917.33 69.85 917.39 69.83 917.39 69.79 917.45 69.77 917.45 69.73 917.51 69.71 917.51 69.68 917.57 69.66 917.57 69.62 917.63 69.6 917.63 69.56 917.69 69.54 917.69 69.5 917.75 69.48 917.75 69.44 917.81 69.42 917.81 69.38 917.87 69.36 917.87 69.32 917.92 69.3 917.92 69.26 917.98 69.24 917.98 69.2 918.04 69.18 918.04 69.15 918.1 69.13 918.1 69.09 918.16 69.07 918.16 69.03 918.22 69.01 918.22 68.97 918.28 68.95 918.28 68.91 918.34 68.89 918.34 68.85 918.4 68.83 918.4 68.79 918.46 68.77 918.46 68.73 918.52 68.71 918.52 68.67 918.58 68.65 918.58 68.62 918.64 68.6 918.64 68.56 918.7 68.54 918.7 68.5 918.76 68.48 918.76 68.44 918.81 68.42 918.81 68.38 918.87 68.36 918.87 68.32 918.93 68.3 918.93 68.26 918.99 68.24 918.99 68.2 919.05 68.18 919.05 68.14 919.11 68.12 919.11 68.09 919.17 68.07 919.17 68.03 919.23 68.01 919.23 67.97 919.29 67.95 919.29 51.72 943.99 51.72 916.5 45.24 916.5 45.24 916.56 45.18 916.56 45.18 916.62 45.12 916.62 45.12 916.68 45.06 916.68 45.06 916.74 45.01 916.74 45.01 916.8 44.95 916.8 44.95 916.86 44.89 916.86 44.89 916.92 44.83 916.92 44.83 916.98 44.77 916.98 44.77 917.03 44.71 917.03 44.71 917.09 44.65 917.09 44.65 917.15 44.59 917.15 44.59 917.21 44.53 917.21 44.53 917.27 44.48 917.27 44.48 917.33 44.42 917.33 44.42 917.39 44.36 917.39 44.36 917.45 44.3 917.45 44.3 917.51 44.24 917.51 44.24 917.57 44.18 917.57 44.18 917.63 44.12 917.63 44.12 917.69 44.06 917.69 44.06 917.75 44 917.75 44 917.81 43.95 917.81 43.95 917.87 43.89 917.87 43.89 917.92 43.83 917.92 43.83 917.98 43.77 917.98 43.77 918.04 43.71 918.04 43.71 918.1 43.65 918.1 43.65 918.16 43.59 918.16 43.59 918.22 43.53 918.22 43.53 918.28 43.47 918.28 43.47 918.34 43.42 918.34 43.42 918.4 43.36 918.4 43.36 918.46 43.3 918.46 43.3 918.52 43.24 918.52 43.24 918.58 43.18 918.58 43.18 918.64 43.12 918.64 43.12 918.7 43.06 918.7 43.06 918.76 43 918.76 43 918.81 42.94 918.81 42.94 918.87 42.88 918.87 42.88 918.93 42.83 918.93 42.83 918.99 42.77 918.99 42.77 919.05 42.71 919.05 42.71 919.11 42.65 919.11 42.65 919.17 42.59 919.17 42.59 919.23 42.53 919.23 42.53 919.29 42.47 919.29 42.47 957.43 50.38 957.43 50.42 957.37 50.44 957.37 50.48 957.31 50.5 957.31 50.54 957.25 50.56 957.25 50.6 957.2 50.61 957.2 50.65 957.14 50.67 957.14 50.71 957.08 50.73 957.08 50.77 957.02 50.79 957.02 50.83 956.96 50.85 956.96 50.89 956.9 50.91 956.9 50.95 956.84 50.97 956.84 51.01 956.78 51.03 956.78 51.07 956.72 51.09 956.72 51.13 956.66 51.15 956.66 51.18 956.6 51.2 956.6 51.24 956.54 51.26 956.54 51.3 956.48 51.32 956.48 51.36 956.42 51.38 956.42 51.42 956.36 51.44 956.36 51.48 956.3 51.5 956.3 51.54 956.25 51.56 956.25 51.6 956.19 51.62 956.19 51.66 956.13 51.68 956.13 51.71 956.07 51.73 956.07 51.77 956.01 51.79 956.01 51.83 955.95 51.85 955.95 51.89 955.89 51.91 955.89 51.95 955.83 51.97 955.83 52.01 955.77 52.03 955.77 52.07 955.71 52.09 955.71 52.13 955.65 52.15 955.65 52.19 955.59 52.21 955.59 52.24 955.53 52.26 955.53 52.3 955.47 52.32 955.47 52.36 955.41 52.38 955.41 52.42 955.36 52.44 955.36 52.48 955.3 52.5 955.3 52.54 955.24 52.56 955.24 52.6 955.18 52.62 955.18 52.66 955.12 52.68 955.12 52.72 955.06 52.74 955.06 52.77 955 52.79 955 52.83 954.94 52.85 954.94 52.89 954.88 52.91 954.88 52.95 954.82 52.97 954.82 53.01 954.76 53.03 954.76 53.07 954.7 53.09 954.7 53.13 954.64 53.15 954.64 78.21 916.5"/>
              <polygon points="80.97 916.61 80.91 916.61 80.91 916.67 80.85 916.67 80.85 916.73 80.8 916.73 80.8 916.79 80.74 916.79 80.74 916.85 80.68 916.85 80.68 916.91 80.62 916.91 80.62 916.97 80.56 916.97 80.56 917.03 80.5 917.03 80.5 917.09 80.44 917.09 80.44 917.15 80.38 917.15 80.38 917.21 80.32 917.21 80.32 917.27 80.27 917.27 80.27 917.32 80.21 917.32 80.21 917.38 80.15 917.38 80.15 917.44 80.09 917.44 80.09 917.5 80.03 917.5 80.03 917.56 79.97 917.56 79.97 917.62 79.91 917.62 79.91 917.68 79.85 917.68 79.85 917.74 79.79 917.74 79.79 917.8 79.74 917.8 79.74 917.86 79.68 917.86 79.68 917.92 79.62 917.92 79.62 917.98 79.56 917.98 79.56 918.04 79.5 918.04 79.5 918.1 79.44 918.1 79.44 918.16 79.38 918.16 79.38 918.21 79.32 918.21 79.32 918.27 79.26 918.27 79.26 918.33 79.21 918.33 79.21 918.39 79.15 918.39 79.15 918.45 79.09 918.45 79.09 918.51 79.03 918.51 79.03 918.57 78.97 918.57 78.97 918.63 78.91 918.63 78.91 918.69 78.85 918.69 78.85 918.75 78.79 918.75 78.79 918.81 78.73 918.81 78.73 918.87 78.68 918.87 78.68 918.93 78.62 918.93 78.62 918.99 78.56 918.99 78.56 919.05 78.5 919.05 78.5 919.11 78.44 919.11 78.44 919.16 78.38 919.16 78.38 919.22 78.32 919.22 78.32 919.28 78.26 919.28 78.26 919.34 78.2 919.34 78.2 957.43 84.65 957.43 84.65 957.37 84.71 957.37 84.71 957.31 84.77 957.31 84.77 957.25 84.83 957.25 84.83 957.2 84.89 957.2 84.89 957.14 84.95 957.14 84.95 957.08 85.01 957.08 85.01 957.02 85.07 957.02 85.07 956.96 85.13 956.96 85.13 956.9 85.18 956.9 85.18 956.84 85.24 956.84 85.24 956.78 85.3 956.78 85.3 956.72 85.36 956.72 85.36 956.66 85.42 956.66 85.42 956.6 85.48 956.6 85.48 956.54 85.54 956.54 85.54 956.48 85.6 956.48 85.6 956.42 85.66 956.42 85.66 956.36 85.71 956.36 85.71 956.3 85.77 956.3 85.77 956.25 85.83 956.25 85.83 956.19 85.89 956.19 85.89 956.13 85.95 956.13 85.95 956.07 86.01 956.07 86.01 956.01 86.07 956.01 86.07 955.95 86.13 955.95 86.13 955.89 86.19 955.89 86.19 955.83 86.24 955.83 86.24 955.77 86.3 955.77 86.3 955.71 86.36 955.71 86.36 955.65 86.42 955.65 86.42 955.59 86.48 955.59 86.48 955.53 86.54 955.53 86.54 955.47 86.6 955.47 86.6 955.41 86.66 955.41 86.66 955.36 86.72 955.36 86.72 955.3 86.77 955.3 86.77 955.24 86.83 955.24 86.83 955.18 86.89 955.18 86.89 955.12 86.95 955.12 86.95 955.06 87.01 955.06 87.01 955 87.07 955 87.07 954.94 87.13 954.94 87.13 954.88 87.19 954.88 87.19 954.82 87.25 954.82 87.25 954.76 87.31 954.76 87.31 954.7 87.36 954.7 87.36 954.64 87.42 954.64 87.42 916.55 80.97 916.55 80.97 916.61"/>
              <path d="M119.35,922.1c-4.16-3.73-9.18-5.6-15.04-5.6h-11.18v.06h-.06v.06h-.06v.06h-.06v.06h-.06v.06h-.06v.06h-.06v.06h-.06v.06h-.06v.06h-.06v.06h-.06v.06h-.06v.06h-.06v.06h-.06v.06h-.06v.06h-.06v.06h-.06v.06h-.06v.06h-.06v.06h-.06v.06h-.06v.06h-.06v.06h-.06v.06h-.06v.06h-.06v.06h-.06v.06h-.06v.06h-.06v.06h-.06v.06h-.06v.06h-.06v.06h-.06v.06h-.06v.06h-.06v.06h-.06v.06h-.06v.06h-.06v.06h-.06v.06h-.06v.06h-.06v.06h-.06v.06h-.06v.06h-.06v.06h-.06v.06h-.06v.06h-.06v.06h-.06v.06h-.06v38.14h11.18c5.87,0,10.88-1.87,15.04-5.6.27-.25.54-.5.8-.75.02-.02.04-.04.06-.06s.04-.04.06-.06c.02-.02.04-.04.06-.06.02-.02.04-.04.06-.06.02-.02.04-.04.06-.06.02-.02.04-.04.06-.06.02-.02.04-.04.06-.06.02-.02.04-.04.06-.06.02-.02.04-.04.06-.06.02-.02.04-.04.06-.06.02-.02.04-.04.06-.06.02-.02.04-.04.06-.06.02-.02.04-.04.06-.06.02-.02.04-.04.06-.06.02-.02.04-.04.06-.06.02-.02.04-.04.06-.06.02-.02.04-.04.06-.06.02-.02.04-.04.06-.06.02-.02.04-.04.06-.06.02-.02.04-.04.06-.06.02-.02.04-.04.06-.06.02-.02.04-.04.06-.06.02-.02.04-.04.06-.06.02-.02.04-.04.06-.06.02-.02.04-.04.06-.06.02-.02.04-.04.06-.06.02-.02.04-.04.06-.06.02-.02.04-.04.06-.06.02-.02.04-.04.06-.06.02-.02.04-.04.06-.06.02-.02.04-.04.06-.06.02-.02.04-.04.06-.06.02-.02.04-.04.06-.06s.04-.04.06-.06c.02-.02.04-.04.06-.06.02-.02.04-.04.06-.06.02-.02.04-.04.06-.06.02-.02.04-.04.06-.06.02-.02.04-.04.06-.06.02-.02.04-.04.06-.06.02-.02.04-.04.06-.06.02-.02.04-.04.06-.06.02-.02.04-.04.06-.06.02-.02.04-.04.06-.06.02-.02.04-.04.06-.06.02-.02.04-.04.06-.06,3.65-3.59,5.48-7.85,5.48-12.77,0-5.26-2.07-9.76-6.21-13.49ZM104.31,948.89h-4.76v-23.84h1.99c4.08,0,7.58,1.31,10.49,3.92,2.89,2.59,4.34,5.73,4.34,9.41,0,2.72-.8,5.14-2.39,7.27-2.74,2.15-5.96,3.24-9.67,3.24Z"/>
              <polygon points="136.18 941.2 145.18 941.2 145.18 941.14 145.24 941.14 145.24 941.08 145.3 941.08 145.3 941.02 145.36 941.02 145.36 940.96 145.41 940.96 145.41 940.9 145.47 940.9 145.47 940.84 145.53 940.84 145.53 940.78 145.59 940.78 145.59 940.72 145.65 940.72 145.65 940.67 145.71 940.67 145.71 940.61 145.77 940.61 145.77 940.55 145.83 940.55 145.83 940.49 145.89 940.49 145.89 940.43 145.94 940.43 145.94 940.37 146 940.37 146 940.31 146.06 940.31 146.06 940.25 146.12 940.25 146.12 940.19 146.18 940.19 146.18 940.13 146.24 940.13 146.24 940.07 146.3 940.07 146.3 940.01 146.36 940.01 146.36 939.95 146.42 939.95 146.42 939.89 146.47 939.89 146.47 939.83 146.53 939.83 146.53 939.78 146.59 939.78 146.59 939.72 146.65 939.72 146.65 939.66 146.71 939.66 146.71 939.6 146.77 939.6 146.77 939.54 146.83 939.54 146.83 939.48 146.89 939.48 146.89 939.42 146.95 939.42 146.95 939.36 147.01 939.36 147.01 939.3 147.06 939.3 147.06 939.24 147.12 939.24 147.12 939.18 147.18 939.18 147.18 939.12 147.24 939.12 147.24 939.06 147.3 939.06 147.3 939 147.36 939 147.36 938.94 147.42 938.94 147.42 938.89 147.48 938.89 147.48 938.83 147.54 938.83 147.54 938.77 147.59 938.77 147.59 938.71 147.65 938.71 147.65 938.65 147.71 938.65 147.71 938.59 147.77 938.59 147.77 938.53 147.83 938.53 147.83 938.47 147.89 938.47 147.89 938.41 147.95 938.41 147.95 932.63 136.18 932.63 136.18 925.07 148.66 925.07 148.66 925.01 148.72 925.01 148.72 924.96 148.77 924.96 148.77 924.9 148.83 924.9 148.83 924.84 148.89 924.84 148.89 924.78 148.95 924.78 148.95 924.72 149.01 924.72 149.01 924.66 149.07 924.66 149.07 924.6 149.13 924.6 149.13 924.54 149.19 924.54 149.19 924.48 149.25 924.48 149.25 924.42 149.3 924.42 149.3 924.36 149.36 924.36 149.36 924.3 149.42 924.3 149.42 924.24 149.48 924.24 149.48 924.18 149.54 924.18 149.54 924.12 149.6 924.12 149.6 924.06 149.66 924.06 149.66 924.01 149.72 924.01 149.72 923.95 149.78 923.95 149.78 923.89 149.83 923.89 149.83 923.83 149.89 923.83 149.89 923.77 149.95 923.77 149.95 923.71 150.01 923.71 150.01 923.65 150.07 923.65 150.07 923.59 150.13 923.59 150.13 923.53 150.19 923.53 150.19 923.47 150.25 923.47 150.25 923.41 150.31 923.41 150.31 923.35 150.36 923.35 150.36 923.29 150.42 923.29 150.42 923.23 150.48 923.23 150.48 923.17 150.54 923.17 150.54 923.12 150.6 923.12 150.6 923.06 150.66 923.06 150.66 923 150.72 923 150.72 922.94 150.78 922.94 150.78 922.88 150.84 922.88 150.84 922.82 150.9 922.82 150.9 922.76 150.95 922.76 150.95 922.7 151.01 922.7 151.01 922.64 151.07 922.64 151.07 922.58 151.13 922.58 151.13 922.52 151.19 922.52 151.19 922.46 151.25 922.46 151.25 922.4 151.31 922.4 151.31 922.34 151.37 922.34 151.37 922.28 151.43 922.28 151.43 916.5 129.73 916.5 129.73 916.56 129.67 916.56 129.67 916.62 129.61 916.62 129.61 916.68 129.55 916.68 129.55 916.74 129.49 916.74 129.49 916.8 129.43 916.8 129.43 916.86 129.37 916.86 129.37 916.92 129.31 916.92 129.31 916.98 129.25 916.98 129.25 917.03 129.2 917.03 129.2 917.09 129.14 917.09 129.14 917.15 129.08 917.15 129.08 917.21 129.02 917.21 129.02 917.27 128.96 917.27 128.96 917.33 128.9 917.33 128.9 917.39 128.84 917.39 128.84 917.45 128.78 917.45 128.78 917.51 128.72 917.51 128.72 917.57 128.67 917.57 128.67 917.63 128.61 917.63 128.61 917.69 128.55 917.69 128.55 917.75 128.49 917.75 128.49 917.81 128.43 917.81 128.43 917.87 128.37 917.87 128.37 917.92 128.31 917.92 128.31 917.98 128.25 917.98 128.25 918.04 128.19 918.04 128.19 918.1 128.14 918.1 128.14 918.16 128.08 918.16 128.08 918.22 128.02 918.22 128.02 918.28 127.96 918.28 127.96 918.34 127.9 918.34 127.9 918.4 127.84 918.4 127.84 918.46 127.78 918.46 127.78 918.52 127.72 918.52 127.72 918.58 127.66 918.58 127.66 918.64 127.61 918.64 127.61 918.7 127.55 918.7 127.55 918.76 127.49 918.76 127.49 918.81 127.43 918.81 127.43 918.87 127.37 918.87 127.37 918.93 127.31 918.93 127.31 918.99 127.25 918.99 127.25 919.05 127.19 919.05 127.19 919.11 127.13 919.11 127.13 919.17 127.07 919.17 127.07 919.23 127.02 919.23 127.02 919.29 126.96 919.29 126.96 957.43 148.66 957.43 148.66 957.37 148.72 957.37 148.72 957.31 148.77 957.31 148.77 957.25 148.83 957.25 148.83 957.2 148.89 957.2 148.89 957.14 148.95 957.14 148.95 957.08 149.01 957.08 149.01 957.02 149.07 957.02 149.07 956.96 149.13 956.96 149.13 956.9 149.19 956.9 149.19 956.84 149.25 956.84 149.25 956.78 149.3 956.78 149.3 956.72 149.36 956.72 149.36 956.66 149.42 956.66 149.42 956.6 149.48 956.6 149.48 956.54 149.54 956.54 149.54 956.48 149.6 956.48 149.6 956.42 149.66 956.42 149.66 956.36 149.72 956.36 149.72 956.3 149.78 956.3 149.78 956.25 149.83 956.25 149.83 956.19 149.89 956.19 149.89 956.13 149.95 956.13 149.95 956.07 150.01 956.07 150.01 956.01 150.07 956.01 150.07 955.95 150.13 955.95 150.13 955.89 150.19 955.89 150.19 955.83 150.25 955.83 150.25 955.77 150.31 955.77 150.31 955.71 150.36 955.71 150.36 955.65 150.42 955.65 150.42 955.59 150.48 955.59 150.48 955.53 150.54 955.53 150.54 955.47 150.6 955.47 150.6 955.41 150.66 955.41 150.66 955.36 150.72 955.36 150.72 955.3 150.78 955.3 150.78 955.24 150.84 955.24 150.84 955.18 150.9 955.18 150.9 955.12 150.95 955.12 150.95 955.06 151.01 955.06 151.01 955 151.07 955 151.07 954.94 151.13 954.94 151.13 954.88 151.19 954.88 151.19 954.82 151.25 954.82 151.25 954.76 151.31 954.76 151.31 954.7 151.37 954.7 151.37 954.64 151.43 954.64 151.43 948.86 136.18 948.86 136.18 941.2"/>
              <path d="M190.16,921.8c-4.24-3.8-9.35-5.7-15.34-5.7s-11.1,1.9-15.34,5.7c-.28.25-.55.51-.82.77-.02.02-.04.04-.06.06-.02.02-.04.04-.06.06-.02.02-.04.04-.06.06-.02.02-.04.04-.06.06-.02.02-.04.04-.06.06-.02.02-.04.04-.06.06-.02.02-.04.04-.06.06-.02.02-.04.04-.06.06-.02.02-.04.04-.06.06-.02.02-.04.04-.06.06-.02.02-.04.04-.06.06-.02.02-.04.04-.06.06-.02.02-.04.04-.06.06-.02.02-.04.04-.06.06-.02.02-.04.04-.06.06-.02.02-.04.04-.06.06-.02.02-.04.04-.06.06-.02.02-.04.04-.06.06-.02.02-.04.04-.06.06-.02.02-.04.04-.06.06-.02.02-.04.04-.06.06-.02.02-.04.04-.06.06-.02.02-.04.04-.06.06-.02.02-.04.04-.06.06-.02.02-.04.04-.06.06-.02.02-.04.04-.06.06-.02.02-.04.04-.06.06-.02.02-.04.04-.06.06-.02.02-.04.04-.06.06-.02.02-.04.04-.06.06-.02.02-.04.04-.06.06-.02.02-.04.04-.06.06-.02.02-.04.04-.06.06-.02.02-.04.04-.06.06-.02.02-.04.04-.06.06-.02.02-.04.04-.06.06-.02.02-.04.04-.06.06-.02.02-.04.04-.06.06-.02.02-.04.04-.06.06-.02.02-.04.04-.06.06-.02.02-.04.04-.06.06-.02.02-.04.04-.06.06-.02.02-.04.04-.06.06-.02.02-.04.04-.06.06-.02.02-.04.04-.06.06-.02.02-.04.04-.06.06-3.74,3.66-5.6,8.01-5.6,13.04,0,5.37,2.12,9.95,6.36,13.75,4.24,3.8,9.35,5.7,15.34,5.7s11.1-1.9,15.34-5.7c.28-.25.55-.51.82-.77.02-.02.04-.04.06-.06.02-.02.04-.04.06-.06.02-.02.04-.04.06-.06.02-.02.04-.04.06-.06.02-.02.04-.04.06-.06.02-.02.04-.04.06-.06.02-.02.04-.04.06-.06.02-.02.04-.04.06-.06.02-.02.04-.04.06-.06.02-.02.04-.04.06-.06.02-.02.04-.04.06-.06.02-.02.04-.04.06-.06.02-.02.04-.04.06-.06.02-.02.04-.04.06-.06.02-.02.04-.04.06-.06.02-.02.04-.04.06-.06.02-.02.04-.04.06-.06.02-.02.04-.04.06-.06.02-.02.04-.04.06-.06.02-.02.04-.04.06-.06.02-.02.04-.04.06-.06.02-.02.04-.04.06-.06.02-.02.04-.04.06-.06.02-.02.04-.04.06-.06.02-.02.04-.04.06-.06.02-.02.04-.04.06-.06.02-.02.04-.04.06-.06.02-.02.04-.04.06-.06.02-.02.04-.04.06-.06.02-.02.04-.04.06-.06.02-.02.04-.04.06-.06.02-.02.04-.04.06-.06.02-.02.04-.04.06-.06.02-.02.04-.04.06-.06.02-.02.04-.04.06-.06.02-.02.04-.04.06-.06.02-.02.04-.04.06-.06.02-.02.04-.04.06-.06.02-.02.04-.04.06-.06.02-.02.04-.04.06-.06.02-.02.04-.04.06-.06.02-.02.04-.04.06-.06.02-.02.04-.04.06-.06.02-.02.04-.04.06-.06.02-.02.04-.04.06-.06.02-.02.04-.04.06-.06,3.74-3.66,5.6-8.01,5.6-13.04,0-5.37-2.12-9.95-6.36-13.75ZM164.06,945.21c-2.97-2.67-4.46-5.88-4.46-9.65,0-2.81.83-5.31,2.48-7.51,2.81-2.22,6.13-3.35,9.97-3.35,4.2,0,7.79,1.33,10.76,4,2.97,2.67,4.46,5.88,4.46,9.65,0,2.81-.83,5.31-2.48,7.51-2.81,2.22-6.13,3.35-9.97,3.35-4.2,0-7.79-1.33-10.76-4Z"/>
              <path d="M271.66,916.56h-.02l-.04.06h-.02l-.04.06h-.02l-.04.06h-.02l-.04.06h-.02l-.04.06h-.02l-.04.06h-.02l-.04.06h-.02l-.04.06h-.02l-.04.06h-.02l-.04.06h-.02l-.04.06h-.02l-.04.06h-.02l-.04.06h-.02l-.04.06h-.02l-.04.06h-.02l-.04.06h-.02l-.04.06h-.02l-.04.06h-.02l-.04.06h-.02l-.04.06h-.02l-.04.06h-.02l-.04.06h-.02l-.04.06h-.02l-.04.06h-.02l-.04.06h-.02l-.04.06h-.02l-.04.06h-.02l-.04.06h-.02l-.04.06h-.02l-.04.06h-.02l-.04.06h-.02l-.04.06h-.02l-.04.06h-.02l-.04.06h-.02l-.04.06h-.02l-.04.06h-.02l-.04.06h-.02l-.04.06h-.02l-.04.06h-.02l-.04.06h-.02l-.04.06h-.02l-.04.06h-.02l-.04.06h-.02l-.04.06h-.02l-.04.06h-.02l-.04.06h-.02l-26.9,38.14h7.64l.04-.06h.02l.04-.06h.02l.04-.06h.02l.04-.06h.02l.04-.06h.02l.04-.06h.02l.04-.06h.02l.04-.06h.02l.04-.06h.02l.04-.06h.02l.04-.06h.02l.04-.06h.02l.04-.06h.02l.04-.06h.02l.04-.06h.02l.04-.06h.02l.04-.06h.02l.04-.06h.02l.04-.06h.02l.04-.06h.02l.04-.06h.02l.04-.06h.02l.04-.06h.02l.04-.06h.02l.04-.06h.02l.04-.06h.02l.04-.06h.02l.04-.06h.02l.04-.06h.02l.04-.06h.02l.04-.06h.02l.04-.06h.02l.04-.06h.02l.04-.06h.02l.04-.06h.02l.04-.06h.02l.04-.06h.02l.04-.06h.02l.04-.06h.02l.04-.06h.02l.04-.06h.02l.04-.06h.02l.04-.06h.02l.04-.06h.02l.04-.06h.02l.04-.06h.02l.04-.06h.02l4.31-6.11h13.64v8.9h6.48v-.06h.06v-.06h.06v-.06h.06v-.06h.06v-.06h.06v-.06h.06v-.06h.06v-.06h.06v-.06h.06v-.06h.06v-.06h.06v-.06h.06v-.06h.06v-.06h.06v-.06h.06v-.06h.06v-.06h.06v-.06h.06v-.06h.06v-.06h.06v-.06h.06v-.06h.06v-.06h.06v-.06h.06v-.06h.06v-.06h.06v-.06h.06v-.06h.06v-.06h.06v-.06h.06v-.06h.06v-.06h.06v-.06h.06v-.06h.06v-.06h.06v-.06h.06v-.06h.06v-.06h.06v-.06h.06v-.06h.06v-.06h.06v-.06h.06v-.06h.06v-.06h.06v-.06h.06v-.06h.06v-.06h.06v-38.14h-7.94l-.04.06ZM270.39,939.96h-7.61l7.61-10.77v10.77Z"/>
              <polygon points="322.92 916.56 322.89 916.56 322.86 916.62 322.83 916.62 322.8 916.68 322.77 916.68 322.74 916.74 322.71 916.74 322.68 916.8 322.65 916.8 322.63 916.86 322.6 916.86 322.57 916.92 322.54 916.92 322.51 916.98 322.48 916.98 322.45 917.03 322.42 917.03 322.39 917.09 322.36 917.09 322.33 917.15 322.3 917.15 322.27 917.21 322.24 917.21 322.21 917.27 322.18 917.27 322.15 917.33 322.12 917.33 322.1 917.39 322.07 917.39 322.04 917.45 322.01 917.45 321.98 917.51 321.95 917.51 321.92 917.57 321.89 917.57 321.86 917.63 321.83 917.63 321.8 917.69 321.77 917.69 321.74 917.75 321.71 917.75 321.68 917.81 321.65 917.81 321.62 917.87 321.59 917.87 321.57 917.92 321.54 917.92 321.51 917.98 321.48 917.98 321.45 918.04 321.42 918.04 321.39 918.1 321.36 918.1 321.33 918.16 321.3 918.16 321.27 918.22 321.24 918.22 321.21 918.28 321.18 918.28 321.15 918.34 321.12 918.34 321.09 918.4 321.06 918.4 321.04 918.46 321.01 918.46 320.98 918.52 320.95 918.52 320.92 918.58 320.89 918.58 320.86 918.64 320.83 918.64 320.8 918.7 320.77 918.7 320.74 918.76 320.71 918.76 320.68 918.81 320.65 918.81 320.62 918.87 320.59 918.87 320.56 918.93 320.53 918.93 320.51 918.99 320.48 918.99 320.45 919.05 320.42 919.05 320.39 919.11 320.36 919.11 320.33 919.17 320.3 919.17 320.27 919.23 320.24 919.23 320.21 919.29 320.18 919.29 307.09 946.18 292.81 916.5 286.06 916.5 286.06 916.56 286 916.56 286 916.62 285.94 916.62 285.94 916.68 285.88 916.68 285.88 916.74 285.82 916.74 285.82 916.8 285.76 916.8 285.76 916.86 285.71 916.86 285.71 916.92 285.65 916.92 285.65 916.98 285.59 916.98 285.59 917.03 285.53 917.03 285.53 917.09 285.47 917.09 285.47 917.15 285.41 917.15 285.41 917.21 285.35 917.21 285.35 917.27 285.29 917.27 285.29 917.33 285.23 917.33 285.23 917.39 285.18 917.39 285.18 917.45 285.12 917.45 285.12 917.51 285.06 917.51 285.06 917.57 285 917.57 285 917.63 284.94 917.63 284.94 917.69 284.88 917.69 284.88 917.75 284.82 917.75 284.82 917.81 284.76 917.81 284.76 917.87 284.7 917.87 284.7 917.92 284.65 917.92 284.65 917.98 284.59 917.98 284.59 918.04 284.53 918.04 284.53 918.1 284.47 918.1 284.47 918.16 284.41 918.16 284.41 918.22 284.35 918.22 284.35 918.28 284.29 918.28 284.29 918.34 284.23 918.34 284.23 918.4 284.17 918.4 284.17 918.46 284.12 918.46 284.12 918.52 284.06 918.52 284.06 918.58 284 918.58 284 918.64 283.94 918.64 283.94 918.7 283.88 918.7 283.88 918.76 283.82 918.76 283.82 918.81 283.76 918.81 283.76 918.87 283.7 918.87 283.7 918.93 283.64 918.93 283.64 918.99 283.59 918.99 283.59 919.05 283.53 919.05 283.53 919.11 283.47 919.11 283.47 919.17 283.41 919.17 283.41 919.23 283.35 919.23 283.35 919.29 283.29 919.29 283.29 957.43 289.74 957.43 289.74 957.37 289.8 957.37 289.8 957.31 289.86 957.31 289.86 957.25 289.92 957.25 289.92 957.2 289.98 957.2 289.98 957.14 290.04 957.14 290.04 957.08 290.09 957.08 290.09 957.02 290.15 957.02 290.15 956.96 290.21 956.96 290.21 956.9 290.27 956.9 290.27 956.84 290.33 956.84 290.33 956.78 290.39 956.78 290.39 956.72 290.45 956.72 290.45 956.66 290.51 956.66 290.51 956.6 290.57 956.6 290.57 956.54 290.62 956.54 290.62 956.48 290.68 956.48 290.68 956.42 290.74 956.42 290.74 956.36 290.8 956.36 290.8 956.3 290.86 956.3 290.86 956.25 290.92 956.25 290.92 956.19 290.98 956.19 290.98 956.13 291.04 956.13 291.04 956.07 291.1 956.07 291.1 956.01 291.16 956.01 291.16 955.95 291.21 955.95 291.21 955.89 291.27 955.89 291.27 955.83 291.33 955.83 291.33 955.77 291.39 955.77 291.39 955.71 291.45 955.71 291.45 955.65 291.51 955.65 291.51 955.59 291.57 955.59 291.57 955.53 291.63 955.53 291.63 955.47 291.69 955.47 291.69 955.41 291.74 955.41 291.74 955.36 291.8 955.36 291.8 955.3 291.86 955.3 291.86 955.24 291.92 955.24 291.92 955.18 291.98 955.18 291.98 955.12 292.04 955.12 292.04 955.06 292.1 955.06 292.1 955 292.16 955 292.16 954.94 292.22 954.94 292.22 954.88 292.27 954.88 292.27 954.82 292.33 954.82 292.33 954.76 292.39 954.76 292.39 954.7 292.45 954.7 292.45 954.64 292.51 954.64 292.51 939.1 301.36 957.43 308.65 957.43 308.68 957.37 308.71 957.37 308.74 957.31 308.77 957.31 308.79 957.25 308.82 957.25 308.85 957.2 308.88 957.2 308.91 957.14 308.94 957.14 308.97 957.08 309 957.08 309.03 957.02 309.06 957.02 309.09 956.96 309.12 956.96 309.15 956.9 309.18 956.9 309.21 956.84 309.24 956.84 309.27 956.78 309.3 956.78 309.32 956.72 309.35 956.72 309.38 956.66 309.41 956.66 309.44 956.6 309.47 956.6 309.5 956.54 309.53 956.54 309.56 956.48 309.59 956.48 309.62 956.42 309.65 956.42 309.68 956.36 309.71 956.36 309.74 956.3 309.77 956.3 309.8 956.25 309.83 956.25 309.85 956.19 309.88 956.19 309.91 956.13 309.94 956.13 309.97 956.07 310 956.07 310.03 956.01 310.06 956.01 310.09 955.95 310.12 955.95 310.15 955.89 310.18 955.89 310.21 955.83 310.24 955.83 310.27 955.77 310.3 955.77 310.33 955.71 310.36 955.71 310.38 955.65 310.41 955.65 310.44 955.59 310.47 955.59 310.5 955.53 310.53 955.53 310.56 955.47 310.59 955.47 310.62 955.41 310.65 955.41 310.68 955.36 310.71 955.36 310.74 955.3 310.77 955.3 310.8 955.24 310.83 955.24 310.86 955.18 310.89 955.18 310.91 955.12 310.94 955.12 310.97 955.06 311 955.06 311.03 955 311.06 955 311.09 954.94 311.12 954.94 311.15 954.88 311.18 954.88 311.21 954.82 311.24 954.82 311.27 954.76 311.3 954.76 311.33 954.7 311.36 954.7 311.39 954.64 311.42 954.64 320.48 936.08 320.48 957.43 326.93 957.43 326.93 957.37 326.99 957.37 326.99 957.31 327.05 957.31 327.05 957.25 327.11 957.25 327.11 957.2 327.16 957.2 327.16 957.14 327.22 957.14 327.22 957.08 327.28 957.08 327.28 957.02 327.34 957.02 327.34 956.96 327.4 956.96 327.4 956.9 327.46 956.9 327.46 956.84 327.52 956.84 327.52 956.78 327.58 956.78 327.58 956.72 327.64 956.72 327.64 956.66 327.69 956.66 327.69 956.6 327.75 956.6 327.75 956.54 327.81 956.54 327.81 956.48 327.87 956.48 327.87 956.42 327.93 956.42 327.93 956.36 327.99 956.36 327.99 956.3 328.05 956.3 328.05 956.25 328.11 956.25 328.11 956.19 328.17 956.19 328.17 956.13 328.22 956.13 328.22 956.07 328.28 956.07 328.28 956.01 328.34 956.01 328.34 955.95 328.4 955.95 328.4 955.89 328.46 955.89 328.46 955.83 328.52 955.83 328.52 955.77 328.58 955.77 328.58 955.71 328.64 955.71 328.64 955.65 328.7 955.65 328.7 955.59 328.75 955.59 328.75 955.53 328.81 955.53 328.81 955.47 328.87 955.47 328.87 955.41 328.93 955.41 328.93 955.36 328.99 955.36 328.99 955.3 329.05 955.3 329.05 955.24 329.11 955.24 329.11 955.18 329.17 955.18 329.17 955.12 329.23 955.12 329.23 955.06 329.28 955.06 329.28 955 329.34 955 329.34 954.94 329.4 954.94 329.4 954.88 329.46 954.88 329.46 954.82 329.52 954.82 329.52 954.76 329.58 954.76 329.58 954.7 329.64 954.7 329.64 954.64 329.7 954.64 329.7 916.5 322.95 916.5 322.92 916.56"/>
              <polygon points="335.67 916.56 335.61 916.56 335.61 916.62 335.56 916.62 335.56 916.68 335.5 916.68 335.5 916.74 335.44 916.74 335.44 916.8 335.38 916.8 335.38 916.86 335.32 916.86 335.32 916.92 335.26 916.92 335.26 916.98 335.2 916.98 335.2 917.03 335.14 917.03 335.14 917.09 335.08 917.09 335.08 917.15 335.03 917.15 335.03 917.21 334.97 917.21 334.97 917.27 334.91 917.27 334.91 917.33 334.85 917.33 334.85 917.39 334.79 917.39 334.79 917.45 334.73 917.45 334.73 917.51 334.67 917.51 334.67 917.57 334.61 917.57 334.61 917.63 334.55 917.63 334.55 917.69 334.5 917.69 334.5 917.75 334.44 917.75 334.44 917.81 334.38 917.81 334.38 917.87 334.32 917.87 334.32 917.92 334.26 917.92 334.26 917.98 334.2 917.98 334.2 918.04 334.14 918.04 334.14 918.1 334.08 918.1 334.08 918.16 334.02 918.16 334.02 918.22 333.97 918.22 333.97 918.28 333.91 918.28 333.91 918.34 333.85 918.34 333.85 918.4 333.79 918.4 333.79 918.46 333.73 918.46 333.73 918.52 333.67 918.52 333.67 918.58 333.61 918.58 333.61 918.64 333.55 918.64 333.55 918.7 333.49 918.7 333.49 918.76 333.43 918.76 333.43 918.81 333.38 918.81 333.38 918.87 333.32 918.87 333.32 918.93 333.26 918.93 333.26 918.99 333.2 918.99 333.2 919.05 333.14 919.05 333.14 919.11 333.08 919.11 333.08 919.17 333.02 919.17 333.02 919.23 332.96 919.23 332.96 919.29 332.9 919.29 332.9 957.43 354.6 957.43 354.6 957.37 354.66 957.37 354.66 957.31 354.72 957.31 354.72 957.25 354.78 957.25 354.78 957.2 354.84 957.2 354.84 957.14 354.9 957.14 354.9 957.08 354.96 957.08 354.96 957.02 355.02 957.02 355.02 956.96 355.08 956.96 355.08 956.9 355.13 956.9 355.13 956.84 355.19 956.84 355.19 956.78 355.25 956.78 355.25 956.72 355.31 956.72 355.31 956.66 355.37 956.66 355.37 956.6 355.43 956.6 355.43 956.54 355.49 956.54 355.49 956.48 355.55 956.48 355.55 956.42 355.61 956.42 355.61 956.36 355.66 956.36 355.66 956.3 355.72 956.3 355.72 956.25 355.78 956.25 355.78 956.19 355.84 956.19 355.84 956.13 355.9 956.13 355.9 956.07 355.96 956.07 355.96 956.01 356.02 956.01 356.02 955.95 356.08 955.95 356.08 955.89 356.14 955.89 356.14 955.83 356.19 955.83 356.19 955.77 356.25 955.77 356.25 955.71 356.31 955.71 356.31 955.65 356.37 955.65 356.37 955.59 356.43 955.59 356.43 955.53 356.49 955.53 356.49 955.47 356.55 955.47 356.55 955.41 356.61 955.41 356.61 955.36 356.67 955.36 356.67 955.3 356.73 955.3 356.73 955.24 356.78 955.24 356.78 955.18 356.84 955.18 356.84 955.12 356.9 955.12 356.9 955.06 356.96 955.06 356.96 955 357.02 955 357.02 954.94 357.08 954.94 357.08 954.88 357.14 954.88 357.14 954.82 357.2 954.82 357.2 954.76 357.26 954.76 357.26 954.7 357.31 954.7 357.31 954.64 357.37 954.64 357.37 948.86 342.12 948.86 342.12 941.2 351.13 941.2 351.13 941.14 351.19 941.14 351.19 941.08 351.24 941.08 351.24 941.02 351.3 941.02 351.3 940.96 351.36 940.96 351.36 940.9 351.42 940.9 351.42 940.84 351.48 940.84 351.48 940.78 351.54 940.78 351.54 940.72 351.6 940.72 351.6 940.67 351.66 940.67 351.66 940.61 351.72 940.61 351.72 940.55 351.77 940.55 351.77 940.49 351.83 940.49 351.83 940.43 351.89 940.43 351.89 940.37 351.95 940.37 351.95 940.31 352.01 940.31 352.01 940.25 352.07 940.25 352.07 940.19 352.13 940.19 352.13 940.13 352.19 940.13 352.19 940.07 352.25 940.07 352.25 940.01 352.3 940.01 352.3 939.95 352.36 939.95 352.36 939.89 352.42 939.89 352.42 939.83 352.48 939.83 352.48 939.78 352.54 939.78 352.54 939.72 352.6 939.72 352.6 939.66 352.66 939.66 352.66 939.6 352.72 939.6 352.72 939.54 352.78 939.54 352.78 939.48 352.83 939.48 352.83 939.42 352.89 939.42 352.89 939.36 352.95 939.36 352.95 939.3 353.01 939.3 353.01 939.24 353.07 939.24 353.07 939.18 353.13 939.18 353.13 939.12 353.19 939.12 353.19 939.06 353.25 939.06 353.25 939 353.31 939 353.31 938.94 353.37 938.94 353.37 938.89 353.42 938.89 353.42 938.83 353.48 938.83 353.48 938.77 353.54 938.77 353.54 938.71 353.6 938.71 353.6 938.65 353.66 938.65 353.66 938.59 353.72 938.59 353.72 938.53 353.78 938.53 353.78 938.47 353.84 938.47 353.84 938.41 353.9 938.41 353.9 932.63 342.12 932.63 342.12 925.07 354.6 925.07 354.6 925.01 354.66 925.01 354.66 924.96 354.72 924.96 354.72 924.9 354.78 924.9 354.78 924.84 354.84 924.84 354.84 924.78 354.9 924.78 354.9 924.72 354.96 924.72 354.96 924.66 355.02 924.66 355.02 924.6 355.08 924.6 355.08 924.54 355.13 924.54 355.13 924.48 355.19 924.48 355.19 924.42 355.25 924.42 355.25 924.36 355.31 924.36 355.31 924.3 355.37 924.3 355.37 924.24 355.43 924.24 355.43 924.18 355.49 924.18 355.49 924.12 355.55 924.12 355.55 924.06 355.61 924.06 355.61 924.01 355.66 924.01 355.66 923.95 355.72 923.95 355.72 923.89 355.78 923.89 355.78 923.83 355.84 923.83 355.84 923.77 355.9 923.77 355.9 923.71 355.96 923.71 355.96 923.65 356.02 923.65 356.02 923.59 356.08 923.59 356.08 923.53 356.14 923.53 356.14 923.47 356.19 923.47 356.19 923.41 356.25 923.41 356.25 923.35 356.31 923.35 356.31 923.29 356.37 923.29 356.37 923.23 356.43 923.23 356.43 923.17 356.49 923.17 356.49 923.12 356.55 923.12 356.55 923.06 356.61 923.06 356.61 923 356.67 923 356.67 922.94 356.73 922.94 356.73 922.88 356.78 922.88 356.78 922.82 356.84 922.82 356.84 922.76 356.9 922.76 356.9 922.7 356.96 922.7 356.96 922.64 357.02 922.64 357.02 922.58 357.08 922.58 357.08 922.52 357.14 922.52 357.14 922.46 357.2 922.46 357.2 922.4 357.26 922.4 357.26 922.34 357.31 922.34 357.31 922.28 357.37 922.28 357.37 916.5 335.67 916.5 335.67 916.56"/>
              <path d="M388.38,932.73c-5.81-1.46-8.65-3.39-8.53-5.78.02-.52.11-1,.26-1.43.11-.05.21-.1.33-.15,1.37-.52,3.02-.74,4.96-.67,2.75.11,4.9.91,6.45,2.4l4.73-3.94s0,0,0,0l.06-.05s0,0,0,0l.06-.05s0,0,0,0l.06-.05s0,0,0,0l.06-.05s0,0,0,0l.06-.05s0,0,0,0l.06-.05s0,0,0,0l.06-.05s0,0,0,0l.06-.05s0,0,0,0l.06-.05s0,0,0,0l.06-.05s0,0,0,0l.06-.05s0,0,0,0l.06-.05s0,0,0,0l.06-.05s0,0,0,0l.06-.05s0,0,0,0l.06-.05s0,0,0,0l.06-.05s0,0,0,0l.06-.05s0,0,0,0l.06-.05s0,0,0,0l.06-.05s0,0,0,0l.06-.05s0,0,0,0l.06-.05s0,0,0,0l.06-.05s0,0,0,0l.06-.05s0,0,0,0l.06-.05s0,0,0,0l.06-.05s0,0,0,0l.06-.05s0,0,0,0l.06-.05s0,0,0,0l.06-.05s0,0,0,0l.06-.05s0,0,0,0l.06-.05s0,0,0,0l.06-.05s0,0,0,0l.06-.05s0,0,0,0l.06-.05s0,0,0,0l.06-.05s0,0,0,0l.06-.05s0,0,0,0l.06-.05s0,0,0,0l.06-.05s0,0,0,0l.06-.05s0,0,0,0l.06-.05s0,0,0,0l.06-.05s0,0,0,0l.06-.05s0,0,0,0l.06-.05s0,0,0,0l.06-.05s0,0,0,0l.06-.05s0,0,0,0l.06-.05s0,0,0,0l.06-.05s0,0,0,0l.06-.05c-2.73-2.65-6.36-4.06-10.88-4.24-3.73-.16-6.92.49-9.57,1.95-.93.51-1.73,1.08-2.42,1.73-.02.02-.04.04-.06.06-.02.02-.04.04-.06.06-.02.02-.04.04-.06.06-.02.02-.04.04-.06.06-.02.02-.04.04-.06.06-.02.02-.04.04-.06.06-.02.02-.04.04-.06.06-.02.02-.04.04-.06.06-.02.02-.04.04-.06.06-.02.02-.04.04-.06.06-.02.02-.04.04-.06.06-.02.02-.04.04-.06.06-.02.02-.04.04-.06.06-.02.02-.04.04-.06.06-.02.02-.04.04-.06.06-.02.02-.04.04-.06.06-.02.02-.04.04-.06.06-.02.02-.04.04-.06.06-.02.02-.04.04-.06.06-.02.02-.04.04-.06.06-.02.02-.04.04-.06.06-.02.02-.04.04-.06.06-.02.02-.04.04-.06.06-.02.02-.04.04-.06.06-.02.02-.04.04-.06.06-.02.02-.04.04-.06.06-.02.02-.04.04-.06.06-.02.02-.04.04-.06.06-.02.02-.04.04-.06.06-.02.02-.04.04-.06.06-.02.02-.04.04-.06.06-.02.02-.04.04-.06.06-.02.02-.04.04-.06.06-.02.02-.04.04-.06.06-.02.02-.04.04-.06.06-.02.02-.04.04-.06.06-.02.02-.04.04-.06.06-.02.02-.04.04-.06.06-.02.02-.04.04-.06.06-.02.02-.04.04-.06.06-.02.02-.04.04-.06.06-.02.02-.04.04-.06.06-.02.02-.04.04-.06.06-.02.02-.04.04-.06.06-.02.02-.04.04-.05.06-2,1.79-3.07,4.13-3.2,7.01-.28,5.47,4.13,9.36,13.23,11.65,5.81,1.46,8.65,3.4,8.53,5.84-.02.4-.12.79-.27,1.16-1.47.8-3.23,1.16-5.28,1.09-1.61-.07-3.09-.42-4.46-1.04-1.55-.73-2.57-1.68-3.06-2.85l-6.06,2s.01.02.02.03l-.08.02s.01.02.02.03l-.08.02s.01.02.02.03l-.08.02s.01.02.02.03l-.08.02s.01.02.02.03l-.08.02s.01.02.02.03l-.08.02s.01.02.02.03l-.08.02s.01.02.02.03l-.08.02s.01.02.02.03l-.08.02s.01.02.02.03l-.08.02s.01.02.02.03l-.08.02s.01.02.02.03l-.08.02s.01.02.02.03l-.08.02s.01.02.02.03l-.08.02s.01.02.02.03l-.08.02s.01.02.02.03l-.08.02s.01.02.02.03l-.08.02s.01.02.02.03l-.08.02s.01.02.02.03l-.08.02s.01.02.02.03l-.08.02s.01.02.02.03l-.08.02s.01.02.02.03l-.08.02s.01.02.02.03l-.08.02s.01.02.02.03l-.08.02s.01.02.02.03l-.08.02s.01.02.02.03l-.08.02s.01.02.02.03l-.08.02s.01.02.02.03l-.08.02s.01.02.02.03l-.08.02s.01.02.02.03l-.08.02s.01.02.02.03l-.08.02s.01.02.02.03l-.08.02s.01.02.02.03l-.08.02s.01.02.02.03l-.08.02s.01.02.02.03l-.08.02s.01.02.02.03l-.08.02s.01.02.02.03l-.08.02s.01.02.02.03l-.08.02s.01.02.02.03l-.08.02s.01.02.02.03l-.08.02s.01.02.02.03l-.08.02s.01.02.02.03l-.08.02s.01.02.02.03l-.08.02s.01.02.02.03l-.08.02s.01.02.02.03l-.08.02s.01.02.02.03l-.08.02s.01.02.02.03l-.08.02c.97,2.36,2.8,4.25,5.5,5.65,2.38,1.24,4.97,1.92,7.79,2.03.26.02.53.03.8.03,3.76,0,7-.97,9.69-2.91.39-.28.74-.57,1.08-.86.33-.28.63-.57.91-.87.02-.02.04-.04.06-.06.02-.02.04-.04.06-.06.02-.02.04-.04.06-.06.02-.02.04-.04.06-.06.02-.02.04-.04.06-.06.02-.02.04-.04.06-.06.02-.02.04-.04.06-.06.02-.02.04-.04.06-.06.02-.02.04-.04.06-.06.02-.02.04-.04.06-.06.02-.02.04-.04.06-.06.02-.02.04-.04.06-.06.02-.02.04-.04.06-.06.02-.02.04-.04.06-.06.02-.02.04-.04.06-.06.02-.02.04-.04.06-.06.02-.02.04-.04.06-.06.02-.02.04-.04.06-.06.02-.02.04-.04.06-.06.02-.02.04-.04.06-.06.02-.02.04-.04.06-.06.02-.02.04-.04.06-.06.02-.02.04-.04.06-.06.02-.02.04-.04.06-.06.02-.02.04-.04.06-.06.02-.02.04-.04.06-.06.02-.02.04-.04.06-.06.02-.02.04-.04.06-.06.02-.02.04-.04.06-.06.02-.02.04-.04.06-.06.02-.02.04-.04.06-.06.02-.02.04-.04.06-.06.02-.02.04-.04.06-.06.02-.02.04-.04.06-.06.02-.02.04-.04.06-.06.02-.02.04-.04.06-.06.02-.02.04-.04.06-.06.02-.02.04-.04.06-.06.02-.02.04-.04.06-.06.02-.02.04-.04.06-.06.02-.02.04-.04.06-.06.02-.02.04-.04.06-.06.02-.02.04-.04.06-.06.02-.02.04-.04.06-.06.03-.03.06-.06.08-.09,1.67-1.75,2.56-3.76,2.68-6.03.1-2.15-.6-4.11-2.11-5.89-2.18-2.56-5.89-4.5-11.12-5.81Z"/>
              <polygon points="427.53 916.5 427.49 916.56 427.47 916.56 427.43 916.62 427.41 916.62 427.37 916.68 427.35 916.68 427.31 916.74 427.29 916.74 427.26 916.8 427.24 916.8 427.2 916.86 427.18 916.86 427.14 916.92 427.12 916.92 427.08 916.98 427.06 916.98 427.02 917.03 427 917.03 426.96 917.09 426.94 917.09 426.9 917.15 426.88 917.15 426.84 917.21 426.82 917.21 426.78 917.27 426.76 917.27 426.73 917.33 426.71 917.33 426.67 917.39 426.65 917.39 426.61 917.45 426.59 917.45 426.55 917.51 426.53 917.51 426.49 917.57 426.47 917.57 426.43 917.63 426.41 917.63 426.37 917.69 426.35 917.69 426.31 917.75 426.29 917.75 426.25 917.81 426.23 917.81 426.19 917.87 426.18 917.87 426.14 917.92 426.12 917.92 426.08 917.98 426.06 917.98 426.02 918.04 426 918.04 425.96 918.1 425.94 918.1 425.9 918.16 425.88 918.16 425.84 918.22 425.82 918.22 425.78 918.28 425.76 918.28 425.72 918.34 425.7 918.34 425.66 918.4 425.64 918.4 425.61 918.46 425.59 918.46 425.55 918.52 425.53 918.52 425.49 918.58 425.47 918.58 425.43 918.64 425.41 918.64 425.37 918.7 425.35 918.7 425.31 918.76 425.29 918.76 425.25 918.81 425.23 918.81 425.19 918.87 425.17 918.87 425.13 918.93 425.11 918.93 425.08 918.99 425.06 918.99 425.02 919.05 425 919.05 424.96 919.11 424.94 919.11 424.9 919.17 424.88 919.17 424.84 919.23 424.82 919.23 424.78 919.29 424.76 919.29 418.06 929.49 409.52 916.5 402.03 916.5 402.06 916.56 401.97 916.56 402.01 916.62 401.91 916.62 401.95 916.68 401.85 916.68 401.89 916.74 401.79 916.74 401.83 916.8 401.73 916.8 401.77 916.86 401.67 916.86 401.71 916.92 401.61 916.92 401.65 916.98 401.55 916.98 401.59 917.03 401.49 917.03 401.53 917.09 401.44 917.09 401.48 917.15 401.38 917.15 401.42 917.21 401.32 917.21 401.36 917.27 401.26 917.27 401.3 917.33 401.2 917.33 401.24 917.39 401.14 917.39 401.18 917.45 401.08 917.45 401.12 917.51 401.02 917.51 401.06 917.57 400.96 917.57 401 917.63 400.91 917.63 400.94 917.69 400.85 917.69 400.89 917.75 400.79 917.75 400.83 917.81 400.73 917.81 400.77 917.87 400.67 917.87 400.71 917.92 400.61 917.92 400.65 917.98 400.55 917.98 400.59 918.04 400.49 918.04 400.53 918.1 400.43 918.1 400.47 918.16 400.38 918.16 400.41 918.22 400.32 918.22 400.36 918.28 400.26 918.28 400.3 918.34 400.2 918.34 400.24 918.4 400.14 918.4 400.18 918.46 400.08 918.46 400.12 918.52 400.02 918.52 400.06 918.58 399.96 918.58 400 918.64 399.9 918.64 399.94 918.7 399.85 918.7 399.88 918.76 399.79 918.76 399.83 918.81 399.73 918.81 399.77 918.87 399.67 918.87 399.71 918.93 399.61 918.93 399.65 918.99 399.55 918.99 399.59 919.05 399.49 919.05 399.53 919.11 399.43 919.11 399.47 919.17 399.37 919.17 399.41 919.23 399.32 919.23 399.35 919.29 399.26 919.29 412.51 939.49 412.51 957.43 418.99 957.43 418.99 957.37 419.05 957.37 419.05 957.31 419.11 957.31 419.11 957.25 419.17 957.25 419.17 957.2 419.23 957.2 419.23 957.14 419.29 957.14 419.29 957.08 419.35 957.08 419.35 957.02 419.41 957.02 419.41 956.96 419.47 956.96 419.47 956.9 419.52 956.9 419.52 956.84 419.58 956.84 419.58 956.78 419.64 956.78 419.64 956.72 419.7 956.72 419.7 956.66 419.76 956.66 419.76 956.6 419.82 956.6 419.82 956.54 419.88 956.54 419.88 956.48 419.94 956.48 419.94 956.42 420 956.42 420 956.36 420.05 956.36 420.05 956.3 420.11 956.3 420.11 956.25 420.17 956.25 420.17 956.19 420.23 956.19 420.23 956.13 420.29 956.13 420.29 956.07 420.35 956.07 420.35 956.01 420.41 956.01 420.41 955.95 420.47 955.95 420.47 955.89 420.53 955.89 420.53 955.83 420.58 955.83 420.58 955.77 420.64 955.77 420.64 955.71 420.7 955.71 420.7 955.65 420.76 955.65 420.76 955.59 420.82 955.59 420.82 955.53 420.88 955.53 420.88 955.47 420.94 955.47 420.94 955.41 421 955.41 421 955.36 421.06 955.36 421.06 955.3 421.11 955.3 421.11 955.24 421.17 955.24 421.17 955.18 421.23 955.18 421.23 955.12 421.29 955.12 421.29 955.06 421.35 955.06 421.35 955 421.41 955 421.41 954.94 421.47 954.94 421.47 954.88 421.53 954.88 421.53 954.82 421.59 954.82 421.59 954.76 421.65 954.76 421.65 954.7 421.7 954.7 421.7 954.64 421.76 954.64 421.76 936.7 435.02 916.5 427.53 916.5"/>
              <path d="M450.51,932.73c-5.81-1.46-8.65-3.39-8.53-5.78.02-.52.11-1,.26-1.43.11-.05.21-.1.33-.15,1.37-.52,3.02-.74,4.96-.67,2.75.11,4.9.91,6.45,2.4l4.73-3.94s0,0,0,0l.06-.05s0,0,0,0l.06-.05s0,0,0,0l.06-.05s0,0,0,0l.06-.05s0,0,0,0l.06-.05s0,0,0,0l.06-.05s0,0,0,0l.06-.05s0,0,0,0l.06-.05s0,0,0,0l.06-.05s0,0,0,0l.06-.05s0,0,0,0l.06-.05s0,0,0,0l.06-.05s0,0,0,0l.06-.05s0,0,0,0l.06-.05s0,0,0,0l.06-.05s0,0,0,0l.06-.05s0,0,0,0l.06-.05s0,0,0,0l.06-.05s0,0,0,0l.06-.05s0,0,0,0l.06-.05s0,0,0,0l.06-.05s0,0,0,0l.06-.05s0,0,0,0l.06-.05s0,0,0,0l.06-.05s0,0,0,0l.06-.05s0,0,0,0l.06-.05s0,0,0,0l.06-.05s0,0,0,0l.06-.05s0,0,0,0l.06-.05s0,0,0,0l.06-.05s0,0,0,0l.06-.05s0,0,0,0l.06-.05s0,0,0,0l.06-.05s0,0,0,0l.06-.05s0,0,0,0l.06-.05s0,0,0,0l.06-.05s0,0,0,0l.06-.05s0,0,0,0l.06-.05s0,0,0,0l.06-.05s0,0,0,0l.06-.05s0,0,0,0l.06-.05s0,0,0,0l.06-.05s0,0,0,0l.06-.05s0,0,0,0l.06-.05s0,0,0,0l.06-.05s0,0,0,0l.06-.05s0,0,0,0l.06-.05c-2.73-2.65-6.36-4.06-10.88-4.24-3.73-.16-6.92.49-9.57,1.95-.93.51-1.73,1.08-2.42,1.73-.02.02-.04.04-.06.06-.02.02-.04.04-.06.06-.02.02-.04.04-.06.06-.02.02-.04.04-.06.06-.02.02-.04.04-.06.06-.02.02-.04.04-.06.06-.02.02-.04.04-.06.06-.02.02-.04.04-.06.06-.02.02-.04.04-.06.06-.02.02-.04.04-.06.06-.02.02-.04.04-.06.06-.02.02-.04.04-.06.06-.02.02-.04.04-.06.06-.02.02-.04.04-.06.06-.02.02-.04.04-.06.06-.02.02-.04.04-.06.06-.02.02-.04.04-.06.06-.02.02-.04.04-.06.06-.02.02-.04.04-.06.06-.02.02-.04.04-.06.06-.02.02-.04.04-.06.06-.02.02-.04.04-.06.06-.02.02-.04.04-.06.06-.02.02-.04.04-.06.06-.02.02-.04.04-.06.06-.02.02-.04.04-.06.06-.02.02-.04.04-.06.06-.02.02-.04.04-.06.06-.02.02-.04.04-.06.06-.02.02-.04.04-.06.06-.02.02-.04.04-.06.06-.02.02-.04.04-.06.06-.02.02-.04.04-.06.06-.02.02-.04.04-.06.06-.02.02-.04.04-.06.06-.02.02-.04.04-.06.06-.02.02-.04.04-.06.06-.02.02-.04.04-.06.06-.02.02-.04.04-.06.06-.02.02-.04.04-.06.06-.02.02-.04.04-.06.06-.02.02-.04.04-.06.06-.02.02-.04.04-.06.06-.02.02-.04.04-.06.06-.02.02-.04.04-.05.06-2,1.79-3.07,4.13-3.2,7.01-.28,5.47,4.13,9.36,13.23,11.65,5.81,1.46,8.65,3.4,8.53,5.84-.02.4-.12.79-.27,1.16-1.47.8-3.23,1.16-5.28,1.09-1.61-.07-3.09-.42-4.46-1.04-1.55-.73-2.57-1.68-3.06-2.85l-6.06,2s.01.02.02.03l-.08.02s.01.02.02.03l-.08.02s.01.02.02.03l-.08.02s.01.02.02.03l-.08.02s.01.02.02.03l-.08.02s.01.02.02.03l-.08.02s.01.02.02.03l-.08.02s.01.02.02.03l-.08.02s.01.02.02.03l-.08.02s.01.02.02.03l-.08.02s.01.02.02.03l-.08.02s.01.02.02.03l-.08.02s.01.02.02.03l-.08.02s.01.02.02.03l-.08.02s.01.02.02.03l-.08.02s.01.02.02.03l-.08.02s.01.02.02.03l-.08.02s.01.02.02.03l-.08.02s.01.02.02.03l-.08.02s.01.02.02.03l-.08.02s.01.02.02.03l-.08.02s.01.02.02.03l-.08.02s.01.02.02.03l-.08.02s.01.02.02.03l-.08.02s.01.02.02.03l-.08.02s.01.02.02.03l-.08.02s.01.02.02.03l-.08.02s.01.02.02.03l-.08.02s.01.02.02.03l-.08.02s.01.02.02.03l-.08.02s.01.02.02.03l-.08.02s.01.02.02.03l-.08.02s.01.02.02.03l-.08.02s.01.02.02.03l-.08.02s.01.02.02.03l-.08.02s.01.02.02.03l-.08.02s.01.02.02.03l-.08.02s.01.02.02.03l-.08.02s.01.02.02.03l-.08.02s.01.02.02.03l-.08.02s.01.02.02.03l-.08.02s.01.02.02.03l-.08.02s.01.02.02.03l-.08.02s.01.02.02.03l-.08.02s.01.02.02.03l-.08.02s.01.02.02.03l-.08.02s.01.02.02.03l-.08.02c.97,2.36,2.8,4.25,5.5,5.65,2.38,1.24,4.97,1.92,7.79,2.03.26.02.53.03.8.03,3.76,0,7-.97,9.69-2.91.39-.28.74-.57,1.08-.86.33-.28.63-.57.91-.87.02-.02.04-.04.06-.06.02-.02.04-.04.06-.06.02-.02.04-.04.06-.06.02-.02.04-.04.06-.06.02-.02.04-.04.06-.06.02-.02.04-.04.06-.06.02-.02.04-.04.06-.06.02-.02.04-.04.06-.06.02-.02.04-.04.06-.06.02-.02.04-.04.06-.06.02-.02.04-.04.06-.06.02-.02.04-.04.06-.06.02-.02.04-.04.06-.06.02-.02.04-.04.06-.06.02-.02.04-.04.06-.06.02-.02.04-.04.06-.06.02-.02.04-.04.06-.06.02-.02.04-.04.06-.06.02-.02.04-.04.06-.06.02-.02.04-.04.06-.06.02-.02.04-.04.06-.06.02-.02.04-.04.06-.06.02-.02.04-.04.06-.06.02-.02.04-.04.06-.06.02-.02.04-.04.06-.06.02-.02.04-.04.06-.06.02-.02.04-.04.06-.06.02-.02.04-.04.06-.06.02-.02.04-.04.06-.06.02-.02.04-.04.06-.06.02-.02.04-.04.06-.06.02-.02.04-.04.06-.06.02-.02.04-.04.06-.06.02-.02.04-.04.06-.06.02-.02.04-.04.06-.06.02-.02.04-.04.06-.06.02-.02.04-.04.06-.06.02-.02.04-.04.06-.06.02-.02.04-.04.06-.06.02-.02.04-.04.06-.06.02-.02.04-.04.06-.06.02-.02.04-.04.06-.06.02-.02.04-.04.06-.06.02-.02.04-.04.06-.06.03-.03.06-.06.08-.09,1.67-1.75,2.56-3.76,2.68-6.03.1-2.15-.6-4.11-2.11-5.89-2.18-2.56-5.89-4.5-11.12-5.81Z"/>
              <polygon points="466.18 916.56 466.12 916.56 466.12 916.62 466.06 916.62 466.06 916.68 466 916.68 466 916.74 465.94 916.74 465.94 916.8 465.88 916.8 465.88 916.86 465.82 916.86 465.82 916.92 465.76 916.92 465.76 916.98 465.7 916.98 465.7 917.03 465.65 917.03 465.65 917.09 465.59 917.09 465.59 917.15 465.53 917.15 465.53 917.21 465.47 917.21 465.47 917.27 465.41 917.27 465.41 917.33 465.35 917.33 465.35 917.39 465.29 917.39 465.29 917.45 465.23 917.45 465.23 917.51 465.17 917.51 465.17 917.57 465.12 917.57 465.12 917.63 465.06 917.63 465.06 917.69 465 917.69 465 917.75 464.94 917.75 464.94 917.81 464.88 917.81 464.88 917.87 464.82 917.87 464.82 917.92 464.76 917.92 464.76 917.98 464.7 917.98 464.7 918.04 464.64 918.04 464.64 918.1 464.59 918.1 464.59 918.16 464.53 918.16 464.53 918.22 464.47 918.22 464.47 918.28 464.41 918.28 464.41 918.34 464.35 918.34 464.35 918.4 464.29 918.4 464.29 918.46 464.23 918.46 464.23 918.52 464.17 918.52 464.17 918.58 464.11 918.58 464.11 918.64 464.05 918.64 464.05 918.7 464 918.7 464 918.76 463.94 918.76 463.94 918.81 463.88 918.81 463.88 918.87 463.82 918.87 463.82 918.93 463.76 918.93 463.76 918.99 463.7 918.99 463.7 919.05 463.64 919.05 463.64 919.11 463.58 919.11 463.58 919.17 463.52 919.17 463.52 919.23 463.47 919.23 463.47 919.29 463.41 919.29 463.41 925.07 472.41 925.07 472.41 957.43 478.89 957.43 478.89 957.37 478.95 957.37 478.95 957.31 479.01 957.31 479.01 957.25 479.07 957.25 479.07 957.2 479.13 957.2 479.13 957.14 479.19 957.14 479.19 957.08 479.25 957.08 479.25 957.02 479.31 957.02 479.31 956.96 479.37 956.96 479.37 956.9 479.42 956.9 479.42 956.84 479.48 956.84 479.48 956.78 479.54 956.78 479.54 956.72 479.6 956.72 479.6 956.66 479.66 956.66 479.66 956.6 479.72 956.6 479.72 956.54 479.78 956.54 479.78 956.48 479.84 956.48 479.84 956.42 479.9 956.42 479.9 956.36 479.95 956.36 479.95 956.3 480.01 956.3 480.01 956.25 480.07 956.25 480.07 956.19 480.13 956.19 480.13 956.13 480.19 956.13 480.19 956.07 480.25 956.07 480.25 956.01 480.31 956.01 480.31 955.95 480.37 955.95 480.37 955.89 480.43 955.89 480.43 955.83 480.48 955.83 480.48 955.77 480.54 955.77 480.54 955.71 480.6 955.71 480.6 955.65 480.66 955.65 480.66 955.59 480.72 955.59 480.72 955.53 480.78 955.53 480.78 955.47 480.84 955.47 480.84 955.41 480.9 955.41 480.9 955.36 480.96 955.36 480.96 955.3 481.01 955.3 481.01 955.24 481.07 955.24 481.07 955.18 481.13 955.18 481.13 955.12 481.19 955.12 481.19 955.06 481.25 955.06 481.25 955 481.31 955 481.31 954.94 481.37 954.94 481.37 954.88 481.43 954.88 481.43 954.82 481.49 954.82 481.49 954.76 481.54 954.76 481.54 954.7 481.6 954.7 481.6 954.64 481.66 954.64 481.66 925.07 487.9 925.07 487.9 925.01 487.96 925.01 487.96 924.96 488.02 924.96 488.02 924.9 488.08 924.9 488.08 924.84 488.14 924.84 488.14 924.78 488.2 924.78 488.2 924.72 488.25 924.72 488.25 924.66 488.31 924.66 488.31 924.6 488.37 924.6 488.37 924.54 488.43 924.54 488.43 924.48 488.49 924.48 488.49 924.42 488.55 924.42 488.55 924.36 488.61 924.36 488.61 924.3 488.67 924.3 488.67 924.24 488.73 924.24 488.73 924.18 488.78 924.18 488.78 924.12 488.84 924.12 488.84 924.06 488.9 924.06 488.9 924.01 488.96 924.01 488.96 923.95 489.02 923.95 489.02 923.89 489.08 923.89 489.08 923.83 489.14 923.83 489.14 923.77 489.2 923.77 489.2 923.71 489.26 923.71 489.26 923.65 489.31 923.65 489.31 923.59 489.37 923.59 489.37 923.53 489.43 923.53 489.43 923.47 489.49 923.47 489.49 923.41 489.55 923.41 489.55 923.35 489.61 923.35 489.61 923.29 489.67 923.29 489.67 923.23 489.73 923.23 489.73 923.17 489.79 923.17 489.79 923.12 489.84 923.12 489.84 923.06 489.9 923.06 489.9 923 489.96 923 489.96 922.94 490.02 922.94 490.02 922.88 490.08 922.88 490.08 922.82 490.14 922.82 490.14 922.76 490.2 922.76 490.2 922.7 490.26 922.7 490.26 922.64 490.32 922.64 490.32 922.58 490.38 922.58 490.38 922.52 490.43 922.52 490.43 922.46 490.49 922.46 490.49 922.4 490.55 922.4 490.55 922.34 490.61 922.34 490.61 922.28 490.67 922.28 490.67 916.5 466.18 916.5 466.18 916.56"/>
              <polygon points="495.25 916.56 495.19 916.56 495.19 916.62 495.13 916.62 495.13 916.68 495.07 916.68 495.07 916.74 495.01 916.74 495.01 916.8 494.95 916.8 494.95 916.86 494.9 916.86 494.9 916.92 494.84 916.92 494.84 916.98 494.78 916.98 494.78 917.03 494.72 917.03 494.72 917.09 494.66 917.09 494.66 917.15 494.6 917.15 494.6 917.21 494.54 917.21 494.54 917.27 494.48 917.27 494.48 917.33 494.42 917.33 494.42 917.39 494.37 917.39 494.37 917.45 494.31 917.45 494.31 917.51 494.25 917.51 494.25 917.57 494.19 917.57 494.19 917.63 494.13 917.63 494.13 917.69 494.07 917.69 494.07 917.75 494.01 917.75 494.01 917.81 493.95 917.81 493.95 917.87 493.89 917.87 493.89 917.92 493.84 917.92 493.84 917.98 493.78 917.98 493.78 918.04 493.72 918.04 493.72 918.1 493.66 918.1 493.66 918.16 493.6 918.16 493.6 918.22 493.54 918.22 493.54 918.28 493.48 918.28 493.48 918.34 493.42 918.34 493.42 918.4 493.36 918.4 493.36 918.46 493.31 918.46 493.31 918.52 493.25 918.52 493.25 918.58 493.19 918.58 493.19 918.64 493.13 918.64 493.13 918.7 493.07 918.7 493.07 918.76 493.01 918.76 493.01 918.81 492.95 918.81 492.95 918.87 492.89 918.87 492.89 918.93 492.83 918.93 492.83 918.99 492.78 918.99 492.78 919.05 492.72 919.05 492.72 919.11 492.66 919.11 492.66 919.17 492.6 919.17 492.6 919.23 492.54 919.23 492.54 919.29 492.48 919.29 492.48 957.43 514.18 957.43 514.18 957.37 514.24 957.37 514.24 957.31 514.3 957.31 514.3 957.25 514.36 957.25 514.36 957.2 514.42 957.2 514.42 957.14 514.47 957.14 514.47 957.08 514.53 957.08 514.53 957.02 514.59 957.02 514.59 956.96 514.65 956.96 514.65 956.9 514.71 956.9 514.71 956.84 514.77 956.84 514.77 956.78 514.83 956.78 514.83 956.72 514.89 956.72 514.89 956.66 514.95 956.66 514.95 956.6 515 956.6 515 956.54 515.06 956.54 515.06 956.48 515.12 956.48 515.12 956.42 515.18 956.42 515.18 956.36 515.24 956.36 515.24 956.3 515.3 956.3 515.3 956.25 515.36 956.25 515.36 956.19 515.42 956.19 515.42 956.13 515.48 956.13 515.48 956.07 515.54 956.07 515.54 956.01 515.59 956.01 515.59 955.95 515.65 955.95 515.65 955.89 515.71 955.89 515.71 955.83 515.77 955.83 515.77 955.77 515.83 955.77 515.83 955.71 515.89 955.71 515.89 955.65 515.95 955.65 515.95 955.59 516.01 955.59 516.01 955.53 516.07 955.53 516.07 955.47 516.12 955.47 516.12 955.41 516.18 955.41 516.18 955.36 516.24 955.36 516.24 955.3 516.3 955.3 516.3 955.24 516.36 955.24 516.36 955.18 516.42 955.18 516.42 955.12 516.48 955.12 516.48 955.06 516.54 955.06 516.54 955 516.6 955 516.6 954.94 516.65 954.94 516.65 954.88 516.71 954.88 516.71 954.82 516.77 954.82 516.77 954.76 516.83 954.76 516.83 954.7 516.89 954.7 516.89 954.64 516.95 954.64 516.95 948.86 501.7 948.86 501.7 941.2 510.7 941.2 510.7 941.14 510.76 941.14 510.76 941.08 510.82 941.08 510.82 941.02 510.88 941.02 510.88 940.96 510.94 940.96 510.94 940.9 511 940.9 511 940.84 511.06 940.84 511.06 940.78 511.11 940.78 511.11 940.72 511.17 940.72 511.17 940.67 511.23 940.67 511.23 940.61 511.29 940.61 511.29 940.55 511.35 940.55 511.35 940.49 511.41 940.49 511.41 940.43 511.47 940.43 511.47 940.37 511.53 940.37 511.53 940.31 511.59 940.31 511.59 940.25 511.64 940.25 511.64 940.19 511.7 940.19 511.7 940.13 511.76 940.13 511.76 940.07 511.82 940.07 511.82 940.01 511.88 940.01 511.88 939.95 511.94 939.95 511.94 939.89 512 939.89 512 939.83 512.06 939.83 512.06 939.78 512.12 939.78 512.12 939.72 512.18 939.72 512.18 939.66 512.23 939.66 512.23 939.6 512.29 939.6 512.29 939.54 512.35 939.54 512.35 939.48 512.41 939.48 512.41 939.42 512.47 939.42 512.47 939.36 512.53 939.36 512.53 939.3 512.59 939.3 512.59 939.24 512.65 939.24 512.65 939.18 512.71 939.18 512.71 939.12 512.76 939.12 512.76 939.06 512.82 939.06 512.82 939 512.88 939 512.88 938.94 512.94 938.94 512.94 938.89 513 938.89 513 938.83 513.06 938.83 513.06 938.77 513.12 938.77 513.12 938.71 513.18 938.71 513.18 938.65 513.24 938.65 513.24 938.59 513.29 938.59 513.29 938.53 513.35 938.53 513.35 938.47 513.41 938.47 513.41 938.41 513.47 938.41 513.47 932.63 501.7 932.63 501.7 925.07 514.18 925.07 514.18 925.01 514.24 925.01 514.24 924.96 514.3 924.96 514.3 924.9 514.36 924.9 514.36 924.84 514.42 924.84 514.42 924.78 514.47 924.78 514.47 924.72 514.53 924.72 514.53 924.66 514.59 924.66 514.59 924.6 514.65 924.6 514.65 924.54 514.71 924.54 514.71 924.48 514.77 924.48 514.77 924.42 514.83 924.42 514.83 924.36 514.89 924.36 514.89 924.3 514.95 924.3 514.95 924.24 515 924.24 515 924.18 515.06 924.18 515.06 924.12 515.12 924.12 515.12 924.06 515.18 924.06 515.18 924.01 515.24 924.01 515.24 923.95 515.3 923.95 515.3 923.89 515.36 923.89 515.36 923.83 515.42 923.83 515.42 923.77 515.48 923.77 515.48 923.71 515.54 923.71 515.54 923.65 515.59 923.65 515.59 923.59 515.65 923.59 515.65 923.53 515.71 923.53 515.71 923.47 515.77 923.47 515.77 923.41 515.83 923.41 515.83 923.35 515.89 923.35 515.89 923.29 515.95 923.29 515.95 923.23 516.01 923.23 516.01 923.17 516.07 923.17 516.07 923.12 516.12 923.12 516.12 923.06 516.18 923.06 516.18 923 516.24 923 516.24 922.94 516.3 922.94 516.3 922.88 516.36 922.88 516.36 922.82 516.42 922.82 516.42 922.76 516.48 922.76 516.48 922.7 516.54 922.7 516.54 922.64 516.6 922.64 516.6 922.58 516.65 922.58 516.65 922.52 516.71 922.52 516.71 922.46 516.77 922.46 516.77 922.4 516.83 922.4 516.83 922.34 516.89 922.34 516.89 922.28 516.95 922.28 516.95 916.5 495.25 916.5 495.25 916.56"/>
              <polygon points="564.93 916.5 558.18 916.5 558.15 916.56 558.12 916.56 558.09 916.62 558.06 916.62 558.03 916.68 558 916.68 557.97 916.74 557.94 916.74 557.92 916.8 557.89 916.8 557.86 916.86 557.83 916.86 557.8 916.92 557.77 916.92 557.74 916.98 557.71 916.98 557.68 917.03 557.65 917.03 557.62 917.09 557.59 917.09 557.56 917.15 557.53 917.15 557.5 917.21 557.47 917.21 557.44 917.27 557.41 917.27 557.38 917.33 557.35 917.33 557.33 917.39 557.3 917.39 557.27 917.45 557.24 917.45 557.21 917.51 557.18 917.51 557.15 917.57 557.12 917.57 557.09 917.63 557.06 917.63 557.03 917.69 557 917.69 556.97 917.75 556.94 917.75 556.91 917.81 556.88 917.81 556.85 917.87 556.82 917.87 556.8 917.92 556.77 917.92 556.74 917.98 556.71 917.98 556.68 918.04 556.65 918.04 556.62 918.1 556.59 918.1 556.56 918.16 556.53 918.16 556.5 918.22 556.47 918.22 556.44 918.28 556.41 918.28 556.38 918.34 556.35 918.34 556.32 918.4 556.29 918.4 556.27 918.46 556.24 918.46 556.21 918.52 556.18 918.52 556.15 918.58 556.12 918.58 556.09 918.64 556.06 918.64 556.03 918.7 556 918.7 555.97 918.76 555.94 918.76 555.91 918.81 555.88 918.81 555.85 918.87 555.82 918.87 555.79 918.93 555.76 918.93 555.74 918.99 555.71 918.99 555.68 919.05 555.65 919.05 555.62 919.11 555.59 919.11 555.56 919.17 555.53 919.17 555.5 919.23 555.47 919.23 555.44 919.29 555.41 919.29 542.32 946.18 528.04 916.5 521.29 916.5 521.29 916.56 521.23 916.56 521.23 916.62 521.17 916.62 521.17 916.68 521.11 916.68 521.11 916.74 521.05 916.74 521.05 916.8 521 916.8 521 916.86 520.94 916.86 520.94 916.92 520.88 916.92 520.88 916.98 520.82 916.98 520.82 917.03 520.76 917.03 520.76 917.09 520.7 917.09 520.7 917.15 520.64 917.15 520.64 917.21 520.58 917.21 520.58 917.27 520.52 917.27 520.52 917.33 520.47 917.33 520.47 917.39 520.41 917.39 520.41 917.45 520.35 917.45 520.35 917.51 520.29 917.51 520.29 917.57 520.23 917.57 520.23 917.63 520.17 917.63 520.17 917.69 520.11 917.69 520.11 917.75 520.05 917.75 520.05 917.81 519.99 917.81 519.99 917.87 519.93 917.87 519.93 917.92 519.88 917.92 519.88 917.98 519.82 917.98 519.82 918.04 519.76 918.04 519.76 918.1 519.7 918.1 519.7 918.16 519.64 918.16 519.64 918.22 519.58 918.22 519.58 918.28 519.52 918.28 519.52 918.34 519.46 918.34 519.46 918.4 519.4 918.4 519.4 918.46 519.35 918.46 519.35 918.52 519.29 918.52 519.29 918.58 519.23 918.58 519.23 918.64 519.17 918.64 519.17 918.7 519.11 918.7 519.11 918.76 519.05 918.76 519.05 918.81 518.99 918.81 518.99 918.87 518.93 918.87 518.93 918.93 518.87 918.93 518.87 918.99 518.82 918.99 518.82 919.05 518.76 919.05 518.76 919.11 518.7 919.11 518.7 919.17 518.64 919.17 518.64 919.23 518.58 919.23 518.58 919.29 518.52 919.29 518.52 957.43 524.97 957.43 524.97 957.37 525.03 957.37 525.03 957.31 525.09 957.31 525.09 957.25 525.15 957.25 525.15 957.2 525.21 957.2 525.21 957.14 525.27 957.14 525.27 957.08 525.33 957.08 525.33 957.02 525.38 957.02 525.38 956.96 525.44 956.96 525.44 956.9 525.5 956.9 525.5 956.84 525.56 956.84 525.56 956.78 525.62 956.78 525.62 956.72 525.68 956.72 525.68 956.66 525.74 956.66 525.74 956.6 525.8 956.6 525.8 956.54 525.86 956.54 525.86 956.48 525.91 956.48 525.91 956.42 525.97 956.42 525.97 956.36 526.03 956.36 526.03 956.3 526.09 956.3 526.09 956.25 526.15 956.25 526.15 956.19 526.21 956.19 526.21 956.13 526.27 956.13 526.27 956.07 526.33 956.07 526.33 956.01 526.39 956.01 526.39 955.95 526.44 955.95 526.44 955.89 526.5 955.89 526.5 955.83 526.56 955.83 526.56 955.77 526.62 955.77 526.62 955.71 526.68 955.71 526.68 955.65 526.74 955.65 526.74 955.59 526.8 955.59 526.8 955.53 526.86 955.53 526.86 955.47 526.92 955.47 526.92 955.41 526.97 955.41 526.97 955.36 527.03 955.36 527.03 955.3 527.09 955.3 527.09 955.24 527.15 955.24 527.15 955.18 527.21 955.18 527.21 955.12 527.27 955.12 527.27 955.06 527.33 955.06 527.33 955 527.39 955 527.39 954.94 527.45 954.94 527.45 954.88 527.5 954.88 527.5 954.82 527.56 954.82 527.56 954.76 527.62 954.76 527.62 954.7 527.68 954.7 527.68 954.64 527.74 954.64 527.74 939.1 536.59 957.43 543.88 957.43 543.91 957.37 543.94 957.37 543.97 957.31 544 957.31 544.02 957.25 544.05 957.25 544.08 957.2 544.11 957.2 544.14 957.14 544.17 957.14 544.2 957.08 544.23 957.08 544.26 957.02 544.29 957.02 544.32 956.96 544.35 956.96 544.38 956.9 544.41 956.9 544.44 956.84 544.47 956.84 544.5 956.78 544.53 956.78 544.55 956.72 544.58 956.72 544.61 956.66 544.64 956.66 544.67 956.6 544.7 956.6 544.73 956.54 544.76 956.54 544.79 956.48 544.82 956.48 544.85 956.42 544.88 956.42 544.91 956.36 544.94 956.36 544.97 956.3 545 956.3 545.03 956.25 545.06 956.25 545.08 956.19 545.11 956.19 545.14 956.13 545.17 956.13 545.2 956.07 545.23 956.07 545.26 956.01 545.29 956.01 545.32 955.95 545.35 955.95 545.38 955.89 545.41 955.89 545.44 955.83 545.47 955.83 545.5 955.77 545.53 955.77 545.56 955.71 545.59 955.71 545.61 955.65 545.64 955.65 545.67 955.59 545.7 955.59 545.73 955.53 545.76 955.53 545.79 955.47 545.82 955.47 545.85 955.41 545.88 955.41 545.91 955.36 545.94 955.36 545.97 955.3 546 955.3 546.03 955.24 546.06 955.24 546.09 955.18 546.12 955.18 546.14 955.12 546.17 955.12 546.2 955.06 546.23 955.06 546.26 955 546.29 955 546.32 954.94 546.35 954.94 546.38 954.88 546.41 954.88 546.44 954.82 546.47 954.82 546.5 954.76 546.53 954.76 546.56 954.7 546.59 954.7 546.62 954.64 546.65 954.64 555.71 936.08 555.71 957.43 562.16 957.43 562.16 957.37 562.22 957.37 562.22 957.31 562.28 957.31 562.28 957.25 562.34 957.25 562.34 957.2 562.39 957.2 562.39 957.14 562.45 957.14 562.45 957.08 562.51 957.08 562.51 957.02 562.57 957.02 562.57 956.96 562.63 956.96 562.63 956.9 562.69 956.9 562.69 956.84 562.75 956.84 562.75 956.78 562.81 956.78 562.81 956.72 562.87 956.72 562.87 956.66 562.92 956.66 562.92 956.6 562.98 956.6 562.98 956.54 563.04 956.54 563.04 956.48 563.1 956.48 563.1 956.42 563.16 956.42 563.16 956.36 563.22 956.36 563.22 956.3 563.28 956.3 563.28 956.25 563.34 956.25 563.34 956.19 563.4 956.19 563.4 956.13 563.45 956.13 563.45 956.07 563.51 956.07 563.51 956.01 563.57 956.01 563.57 955.95 563.63 955.95 563.63 955.89 563.69 955.89 563.69 955.83 563.75 955.83 563.75 955.77 563.81 955.77 563.81 955.71 563.87 955.71 563.87 955.65 563.93 955.65 563.93 955.59 563.98 955.59 563.98 955.53 564.04 955.53 564.04 955.47 564.1 955.47 564.1 955.41 564.16 955.41 564.16 955.36 564.22 955.36 564.22 955.3 564.28 955.3 564.28 955.24 564.34 955.24 564.34 955.18 564.4 955.18 564.4 955.12 564.46 955.12 564.46 955.06 564.52 955.06 564.52 955 564.57 955 564.57 954.94 564.63 954.94 564.63 954.88 564.69 954.88 564.69 954.82 564.75 954.82 564.75 954.76 564.81 954.76 564.81 954.7 564.87 954.7 564.87 954.64 564.93 954.64 564.93 916.5"/>
            </g>
            <g>
              <polygon class="cls-18" points="45.85 954.23 45.85 917.53 50.89 917.53 50.89 948.14 70.99 917.53 76.76 917.53 52.65 954.23 45.85 954.23"/>
              <rect class="cls-8" x="81.58" y="917.58" width="5.01" height="36.65"/>
              <path class="cls-9" d="M93.74,954.23v-36.7h10.46c5.66,0,10.55,1.82,14.56,5.41,3.96,3.57,5.97,7.93,5.97,12.95s-2.01,9.35-5.97,12.92c-4,3.59-8.9,5.41-14.56,5.41h-10.46ZM98.72,949.92h5.48c4.25,0,7.94-1.38,10.98-4.1,3.04-2.72,4.58-6.06,4.58-9.92s-1.54-7.22-4.58-9.95c-3.04-2.72-6.73-4.1-10.98-4.1h-5.48v28.07Z"/>
              <polygon class="cls-7" points="130.34 954.23 130.34 917.53 150.59 917.53 150.59 921.87 135.34 921.87 135.34 933.66 147.12 933.66 147.12 938 135.34 938 135.34 949.89 150.59 949.89 150.59 954.23 130.34 954.23"/>
              <path class="cls-6" d="M174.71,954.61c-5.77,0-10.77-1.86-14.86-5.52-4.06-3.64-6.12-8.09-6.12-13.22s2.06-9.57,6.12-13.22c4.08-3.66,9.08-5.52,14.86-5.52s10.77,1.86,14.86,5.52c4.06,3.64,6.12,8.09,6.12,13.22s-2.06,9.57-6.12,13.22c-4.08,3.66-9.08,5.52-14.86,5.52ZM174.71,921.5c-4.37,0-8.15,1.41-11.24,4.18-3.12,2.8-4.7,6.22-4.7,10.19s1.58,7.39,4.7,10.19c3.09,2.78,6.88,4.18,11.24,4.18s8.15-1.41,11.24-4.18c3.12-2.79,4.7-6.22,4.7-10.19s-1.58-7.39-4.7-10.19c-3.1-2.78-6.88-4.18-11.24-4.18Z"/>
              <path class="cls-5" d="M233.96,954.61c-5.77,0-10.77-1.86-14.86-5.52-4.06-3.64-6.12-8.09-6.12-13.22s2.06-9.57,6.12-13.22c4.08-3.66,9.08-5.52,14.86-5.52,2.58,0,5.09.41,7.45,1.21l-1.88,4.04c-1.79-.61-3.66-.91-5.57-.91-4.37,0-8.15,1.42-11.24,4.21-3.12,2.79-4.7,6.22-4.7,10.18s1.58,7.39,4.7,10.19c3.1,2.78,6.88,4.18,11.24,4.18,1.42,0,2.81-.16,4.15-.47l.56-.13v-11.69h-6.9v-4.37h11.93v18.96l-1.5.57c-2.62.99-5.4,1.5-8.25,1.5Z"/>
              <path class="cls-4" d="M273.77,954.23v-8.9h-15.54l-6.27,8.9h-5.87l25.88-36.7h6.84v36.7h-5.04ZM261.28,940.99h12.49v-17.68l-12.49,17.68Z"/>
              <polygon class="cls-3" points="323.86 954.23 323.86 930.72 322.49 930.41 310.85 954.23 304.47 954.23 293.05 930.57 291.68 930.88 291.68 954.23 286.67 954.23 286.67 917.53 292.24 917.53 307.67 949.6 323.29 917.53 328.86 917.53 328.86 954.23 323.86 954.23"/>
              <polygon class="cls-2" points="336.28 954.23 336.28 917.53 356.54 917.53 356.54 921.87 341.29 921.87 341.29 933.66 353.06 933.66 353.06 938 341.29 938 341.29 949.89 356.54 949.89 356.54 954.23 336.28 954.23"/>
              <path class="cls-21" d="M387.23,954.61c-.26,0-.51,0-.75-.03-2.72-.1-5.23-.76-7.5-1.94-2.25-1.17-3.88-2.71-4.84-4.58l4.71-1.55c.63,1.06,1.67,1.94,3.12,2.63,1.45.66,3.04,1.03,4.73,1.11.19,0,.37,0,.55,0,2.39,0,4.43-.6,6.06-1.77,1.55-1.12,2.38-2.45,2.47-3.95.14-2.86-2.83-5.01-9.08-6.58-8.67-2.19-12.94-5.86-12.68-10.91.17-3.6,1.84-6.22,5.12-8.01,2.28-1.25,5.01-1.88,8.14-1.88.35,0,.7,0,1.06.02,4,.16,7.29,1.33,9.81,3.49l-3.61,3.02c-1.63-1.34-3.79-2.06-6.44-2.17-.24,0-.48-.01-.72-.01-1.73,0-3.25.24-4.53.73-2.43.93-3.71,2.61-3.83,5.01-.14,2.82,2.83,4.95,9.08,6.52,5.06,1.27,8.67,3.15,10.74,5.58,1.4,1.65,2.03,3.41,1.94,5.39-.15,2.81-1.55,5.15-4.28,7.13-2.56,1.84-5.67,2.77-9.27,2.77Z"/>
              <polygon class="cls-20" points="415.89 954.23 415.89 936.8 403.25 917.53 409.02 917.53 418.41 931.82 427.81 917.53 433.57 917.53 420.93 936.8 420.93 954.23 415.89 954.23"/>
              <path class="cls-24" d="M449.36,954.61c-.26,0-.51,0-.75-.03-2.72-.1-5.23-.76-7.5-1.94-2.25-1.17-3.88-2.71-4.84-4.58l4.71-1.55c.63,1.06,1.67,1.94,3.12,2.63,1.45.66,3.04,1.03,4.73,1.11.19,0,.37,0,.55,0,2.39,0,4.43-.6,6.06-1.77,1.55-1.12,2.38-2.45,2.47-3.95.14-2.86-2.83-5.01-9.08-6.58-8.67-2.19-12.94-5.86-12.68-10.91.17-3.6,1.84-6.22,5.12-8.01,2.28-1.25,5.01-1.88,8.14-1.88.35,0,.7,0,1.06.02,4,.16,7.29,1.33,9.81,3.49l-3.61,3.02c-1.63-1.34-3.79-2.06-6.44-2.17-.24,0-.48-.01-.72-.01-1.73,0-3.25.24-4.53.73-2.43.93-3.71,2.61-3.83,5.01-.14,2.82,2.83,4.95,9.08,6.52,5.06,1.27,8.67,3.15,10.74,5.58,1.4,1.65,2.03,3.41,1.94,5.39-.15,2.81-1.55,5.15-4.28,7.13-2.56,1.84-5.67,2.77-9.27,2.77Z"/>
              <polygon class="cls-22" points="475.79 954.23 475.79 921.87 466.79 921.87 466.79 917.53 489.84 917.53 489.84 921.87 480.83 921.87 480.83 954.23 475.79 954.23"/>
              <polygon class="cls-19" points="495.86 954.23 495.86 917.53 516.12 917.53 516.12 921.87 500.87 921.87 500.87 933.66 512.64 933.66 512.64 938 500.87 938 500.87 949.89 516.12 949.89 516.12 954.23 495.86 954.23"/>
              <polygon class="cls-23" points="559.09 954.23 559.09 930.72 557.72 930.41 546.08 954.23 539.71 954.23 528.28 930.57 526.91 930.88 526.91 954.23 521.9 954.23 521.9 917.53 527.47 917.53 542.9 949.6 558.52 917.53 564.09 917.53 564.09 954.23 559.09 954.23"/>
            </g>
          </g>
        </g>
        <g>
          <g>
            <ellipse class="cls-13" cx="1080.42" cy="637.61" rx="52.3" ry="9.1" transform="translate(-20.55 36.17) rotate(-1.9)"/>
            <g>
              <ellipse class="cls-1" cx="1091.5" cy="634" rx="44.6" ry="10.6"/>
              <rect class="cls-1" x="1046.9" y="612.7" width="89.2" height="21.3"/>
              <ellipse class="cls-17" cx="1091.5" cy="612.7" rx="44.6" ry="10.6"/>
            </g>
          </g>
          <g>
            <ellipse class="cls-13" cx="1213.15" cy="637.71" rx="52.3" ry="9.1" transform="translate(-20.48 40.57) rotate(-1.9)"/>
            <g>
              <ellipse class="cls-1" cx="1224.2" cy="634" rx="44.6" ry="10.6"/>
              <rect class="cls-1" x="1179.6" y="612.7" width="89.2" height="21.3"/>
              <ellipse class="cls-26" cx="1224.2" cy="612.7" rx="44.6" ry="10.6"/>
            </g>
          </g>
          <g>
            <ellipse class="cls-13" cx="1345.87" cy="637.81" rx="52.3" ry="9.1" transform="translate(-20.41 44.97) rotate(-1.9)"/>
            <g>
              <ellipse class="cls-1" cx="1356.9" cy="634" rx="44.6" ry="10.6"/>
              <rect class="cls-1" x="1312.3" y="612.7" width="89.2" height="21.3"/>
              <ellipse class="cls-10" cx="1356.9" cy="612.7" rx="44.6" ry="10.6"/>
            </g>
          </g>
        </g>
      </g>
    </g>
  </g>
</svg>