<?xml version="1.0" encoding="UTF-8"?>
<svg xmlns="http://www.w3.org/2000/svg" xmlns:xlink="http://www.w3.org/1999/xlink" version="1.1" viewBox="0 0 1646.2 994.5">
  <!-- Generator: Adobe Illustrator 30.5.1, SVG Export Plug-In . SVG Version: 2.1.4 Build 3)  -->
  <defs>
    <style>
      .st0 {
        fill: #070707;
      }

      .st1 {
        fill: url(#_未命名的渐变_7813);
      }

      .st2 {
        fill: url(#_未命名的渐变_7810);
      }

      .st3 {
        fill: url(#_未命名的渐变_7812);
      }

      .st4 {
        fill: url(#_未命名的渐变_7814);
      }

      .st5 {
        fill: url(#_未命名的渐变_7811);
      }

      .st6 {
        fill: #c9bb00;
      }

      .st7 {
        mix-blend-mode: multiply;
        opacity: .8;
      }

      .st8 {
        fill: #f5f5f1;
      }

      .st9 {
        fill: url(#_未命名的渐变_785);
      }

      .st10 {
        fill: url(#_未命名的渐变_782);
      }

      .st11 {
        fill: url(#_未命名的渐变_789);
      }

      .st12 {
        fill: url(#_未命名的渐变_783);
      }

      .st13 {
        fill: url(#_未命名的渐变_786);
      }

      .st14 {
        fill: url(#_未命名的渐变_788);
      }

      .st15 {
        fill: url(#_未命名的渐变_784);
      }

      .st16 {
        fill: url(#_未命名的渐变_787);
      }

      .st17 {
        fill: url(#_未命名的渐变_781);
      }

      .st18 {
        isolation: isolate;
      }

      .st19 {
        fill: #231815;
      }

      .st20 {
        fill: #a31a00;
      }

      .st21 {
        fill: #451ec3;
      }

      .st22 {
        fill: #5c35ff;
      }

      .st23 {
        fill: url(#_未命名的渐变_78);
      }

      .st24 {
        fill: #726fff;
      }

      .st25 {
        fill: #74a900;
      }
    </style>
    <linearGradient id="_未命名的渐变_78" data-name="未命名的渐变 78" x1="70.1" y1="932.7" x2="593.7" y2="853.1" gradientUnits="userSpaceOnUse">
      <stop offset="0" stop-color="#cecade"/>
      <stop offset=".2" stop-color="#ffeebc"/>
      <stop offset=".6" stop-color="#cecade"/>
      <stop offset=".9" stop-color="#726fff"/>
    </linearGradient>
    <linearGradient id="_未命名的渐变_781" data-name="未命名的渐变 78" x1="70.9" y1="937.9" x2="594.5" y2="858.3" xlink:href="#_未命名的渐变_78"/>
    <linearGradient id="_未命名的渐变_782" data-name="未命名的渐变 78" x1="71.3" y1="940.2" x2="594.8" y2="860.7" xlink:href="#_未命名的渐变_78"/>
    <linearGradient id="_未命名的渐变_783" data-name="未命名的渐变 78" x1="72.2" y1="946.2" x2="595.8" y2="866.7" xlink:href="#_未命名的渐变_78"/>
    <linearGradient id="_未命名的渐变_784" data-name="未命名的渐变 78" x1="73" y1="951.3" x2="596.5" y2="871.8" xlink:href="#_未命名的渐变_78"/>
    <linearGradient id="_未命名的渐变_785" data-name="未命名的渐变 78" x1="74.3" y1="960.1" x2="597.9" y2="880.5" xlink:href="#_未命名的渐变_78"/>
    <linearGradient id="_未命名的渐变_786" data-name="未命名的渐变 78" x1="75.2" y1="966.3" x2="598.8" y2="886.7" xlink:href="#_未命名的渐变_78"/>
    <linearGradient id="_未命名的渐变_787" data-name="未命名的渐变 78" x1="76" y1="971.1" x2="599.5" y2="891.5" xlink:href="#_未命名的渐变_78"/>
    <linearGradient id="_未命名的渐变_788" data-name="未命名的渐变 78" x1="76.8" y1="976.8" x2="600.4" y2="897.3" xlink:href="#_未命名的渐变_78"/>
    <linearGradient id="_未命名的渐变_789" data-name="未命名的渐变 78" x1="77.8" y1="982.9" x2="601.3" y2="903.3" xlink:href="#_未命名的渐变_78"/>
    <linearGradient id="_未命名的渐变_7810" data-name="未命名的渐变 78" x1="78.3" y1="986.6" x2="601.9" y2="907" xlink:href="#_未命名的渐变_78"/>
    <linearGradient id="_未命名的渐变_7811" data-name="未命名的渐变 78" x1="79.2" y1="992.1" x2="602.7" y2="912.5" xlink:href="#_未命名的渐变_78"/>
    <linearGradient id="_未命名的渐变_7812" data-name="未命名的渐变 78" x1="79.7" y1="995.8" x2="603.3" y2="916.2" xlink:href="#_未命名的渐变_78"/>
    <linearGradient id="_未命名的渐变_7813" data-name="未命名的渐变 78" x1="80.4" y1="1000.5" x2="604" y2="921" xlink:href="#_未命名的渐变_78"/>
    <linearGradient id="_未命名的渐变_7814" data-name="未命名的渐变 78" x1="81.3" y1="1006" x2="604.9" y2="926.5" xlink:href="#_未命名的渐变_78"/>
  </defs>
  <g class="st18">
    <g id="_图层_3">
      <g>
        <g>
          <rect class="st0" y="864.2" width="1646.2" height="130.3"/>
          <path class="st8" d="M1639.6,856.8l-83.8-101.5c-9.6-11.7-15.8-25.8-17.9-40.8l-76.6-678.4c-2.6-18.9-19-33.1-38.1-33.1H223c-19.1,0-35.4,14.2-38.1,33.1l-76.6,678.5c-2.1,15-8.3,29.1-17.9,40.7L6.6,856.8c-3.9,4.7-4.7,10.9-2.1,16.4,2.6,5.6,7.8,8.9,14,8.9h1609.2c6.1,0,11.3-3.3,14-8.9,2.6-5.5,1.8-11.7-2.1-16.4ZM1435.7,615.1H214.2V33.6h1221.5v581.5Z"/>
          <path d="M1423.2,6c17.6,0,32.6,13.1,35.1,30.5l76.6,678.4h0c0,0,0,.1,0,.1,2.2,15.5,8.6,30.1,18.6,42.2l83.8,101.5c3.1,3.8,3.8,8.7,1.7,13.2-2.1,4.5-6.3,7.1-11.2,7.1H18.5c-4.9,0-9.1-2.7-11.2-7.1-2.1-4.5-1.5-9.4,1.7-13.2l83.8-101.5c10-12.1,16.4-26.7,18.6-42.2h0c0,0,0-.1,0-.1L187.9,36.5c2.5-17.4,17.5-30.5,35.1-30.5h1200.2ZM1423.2,0H223c-20.7,0-38.2,15.2-41,35.7l-76.6,678.5c-2,14.4-8,28-17.3,39.2L4.3,854.9c-9.9,12-1.4,30.2,14.2,30.2h1609.2c15.6,0,24.1-18.2,14.2-30.2l-83.8-101.5c-9.3-11.2-15.3-24.8-17.3-39.2l-76.6-678.5c-2.9-20.5-20.4-35.7-41-35.7h0Z"/>
          <g>
            <path class="st21" d="M1508.5,647l-24.2-226.9s0-.1,0-.2l-24.3-228.3c0,0,0-.2,0-.2l-13-157c-1.2-9.4-9.2-16.4-18.6-16.4H218.6c-9.4,0-17.4,7-18.6,16.4l-9,118.1-32.5,301.5-20.8,193c-.7,5,.8,9.8,3.5,13.6,3.4,4.6,8.9,7.6,15.1,7.6h1333.6c4.4,0,8.4-1.5,11.5-4,5-3.9,8-10.3,7.1-17.2ZM214.2,615.1V33.6h1221.5v581.5H214.2Z"/>
            <path class="st24" d="M1501.4,664.2c-3.2,2.5-7.2,4-11.5,4H156.3c-6.2,0-11.7-3-15.1-7.6l2.5-1.6,70.4-43.8h1221.5l64.1,47.8,1.6,1.2Z"/>
            <path class="st22" d="M163,419.9c-9.9,71.9-18.1,146.5-25.6,218.8,0,0-.6,5.8-.6,5.8-.2,1.8-.5,4.3-.4,6.1,0,10,8.3,18.9,18.3,19.6,37.7,0,111.3-.9,149-2.1-37.6-1.3-111-1.7-148.6-2.3-8.1-.7-14.7-8.5-13.9-16.7,8.2-75.7,16.3-153.4,21.9-229.3h0Z"/>
            <path class="st22" d="M1484.3,419.9c9.9,71.9,18.1,146.5,25.6,218.8,0,0,.6,5.8.6,5.8.2,1.8.5,4.3.4,6.1,0,10-8.3,18.9-18.3,19.6-37.7,0-93.9-.9-131.6-2.1,37.6-1.3,93.6-1.7,131.2-2.3,8.1-.7,14.7-8.5,13.9-16.7-8.2-75.7-16.3-153.4-21.9-229.3h0Z"/>
            <path class="st22" d="M1303,18c33-.6,70-.8,103.1-.9,3.2,0,18.6,0,21.5,0,8.3,0,16.3,5.6,18.9,13.6.8,2.1,1,4.3,1.3,6.5,0,0,1.8,17.1,1.8,17.1,3.5,32.8,7.3,104.5,10.3,137.4-4.9-38.7-9.7-115.5-14.1-154.3-.3-8.4-6-15.9-14.3-17.8-2.3-.7-5.9-.5-8.3-.5,0,0-17.2,0-17.2,0-33,0-70-.3-103.1-.9h0Z"/>
            <path class="st22" d="M1303,18c-33-.6-1030-.8-1063-.9-3.2,0-18.6,0-21.5,0-8.3,0-16.3,5.6-18.9,13.6-.8,2.1-1,4.3-1.3,6.5,0,0-1.8,17.1-1.8,17.1-3.5,32.8-7.3,104.5-10.3,137.4,4.9-38.7,9.7-115.5,14.1-154.3.3-8.4,6-15.9,14.3-17.8,2.3-.7,5.9-.5,8.3-.5,0,0,17.2,0,17.2,0,33,0,70-.3,103.1-.9h960Z"/>
            <path class="st22" d="M240,18c299.8-3.3,606-3.3,905.7-.4,0,0,164.3.4,164.3.4l-164.3.4c-299.7,2.9-605.9,2.9-905.7-.4h0Z"/>
          </g>
          <path class="st22" d="M1609.9,865.1H36.3c-5.8,0-8.9-6.7-5.3-11.2l72.5-87.8c11.6-14.1,19.1-31.1,21.7-49.2,0-.1,0-.3,0-.4l1.2-21.7c.4-7,6.2-12.6,13.3-12.6h1366.8c7.1,0,12.9,5.5,13.3,12.6l1.2,21.7c0,.1,0,.3,0,.4,2.5,18.1,10,35.1,21.6,49.2l72.5,87.8c3.7,4.5.5,11.2-5.3,11.2Z"/>
          <path class="st0" d="M458.1,829.9H112.2c-3.8,0-5.9-4.3-3.6-7.3l21.2-27.6c.9-1.1,2.2-1.8,3.6-1.8h302.5c1.4,0,2.7.6,3.6,1.7l22.2,27.6c2.4,3,.3,7.4-3.6,7.4Z"/>
          <g>
            <image class="st7" width="296" height="90" transform="translate(674.1 695)" xlink:href="console-shell-1.png"/>
            <g>
              <g>
                <path class="st8" d="M685.7,706.5h5l4.4,13.8c1,3.1,1.7,5.7,2.7,8.7h.2c1.1-3.1,1.7-5.7,2.7-8.7l4.4-13.8h4.8l-9.3,26.7h-5.5l-9.3-26.7Z"/>
                <path class="st8" d="M716,707c0-1.5,1.2-2.5,2.9-2.5s2.9,1,2.9,2.5-1.2,2.5-2.9,2.5-2.9-1-2.9-2.5ZM716.6,713.2h4.7v20h-4.7v-20Z"/>
                <path class="st8" d="M729.9,723.2c0-6.5,5-10.5,10.2-10.5s9.1,3.8,9.1,9.4,0,1.6-.2,2.1h-14.4c.4,3.8,3,6.1,6.9,6.1s3.7-.5,5.3-1.5l1.6,2.7c-2,1.2-4.6,2.1-7.5,2.1-6.1,0-10.9-3.9-10.9-10.5ZM745.1,721.4c0-3.4-1.7-5.4-5-5.4s-5.3,1.9-5.7,5.4h10.7Z"/>
                <path class="st8" d="M755.1,713.2h4.7l3,10.8c.4,1.9.8,3.8,1.2,5.7h.2c.5-1.9.9-3.8,1.4-5.7l3.1-10.8h4.3l3.2,10.8c.5,1.9,1,3.8,1.5,5.7h.2c.4-1.9.8-3.8,1.3-5.7l2.9-10.8h4.4l-5.8,20h-5.6l-2.8-9.8c-.5-1.9-.9-3.7-1.4-5.8h-.2c-.4,2.1-.8,3.9-1.4,5.8l-2.8,9.8h-5.4l-6-20Z"/>
                <path class="st8" d="M807,706.5h9c6.6,0,11.4,2,11.4,8.1s-4.7,8.5-11.2,8.5h-4.5v10.1h-4.7v-26.7ZM815.8,719.7c4.7,0,7-1.6,7-5.1s-2.4-4.7-7.2-4.7h-3.9v9.8h4.1Z"/>
                <path class="st8" d="M836,713.2h3.8l.4,3.6h.1c1.6-2.6,3.9-4.1,6.3-4.1s1.8.1,2.5.4l-.8,3.6c-.8-.2-1.3-.3-2.3-.3-1.8,0-4,1.1-5.4,4.3v12.4h-4.7v-20Z"/>
                <path class="st8" d="M853.7,723.2c0-6.6,5-10.5,10.5-10.5s10.5,3.8,10.5,10.5-5,10.5-10.5,10.5-10.5-3.8-10.5-10.5ZM869.8,723.2c0-4.2-2.2-7-5.7-7s-5.7,2.8-5.7,7,2.2,7,5.7,7,5.7-2.8,5.7-7Z"/>
                <path class="st8" d="M877.9,741.3l.9-3.1c.6.2,1.3.3,2,.3,2.1,0,2.6-1.4,2.6-3.7v-21.5h4.7v21.5c0,4.2-1.8,7.1-6.7,7.1s-2.6-.2-3.4-.5ZM882.8,707c0-1.5,1.2-2.5,2.9-2.5s2.9,1,2.9,2.5-1.2,2.5-2.9,2.5-2.9-1-2.9-2.5Z"/>
                <path class="st8" d="M896.7,723.2c0-6.5,5-10.5,10.2-10.5s9.1,3.8,9.1,9.4,0,1.6-.2,2.1h-14.4c.4,3.8,3,6.1,6.9,6.1s3.7-.5,5.3-1.5l1.6,2.7c-2,1.2-4.6,2.1-7.5,2.1-6.1,0-10.9-3.9-10.9-10.5ZM911.9,721.4c0-3.4-1.7-5.4-5-5.4s-5.3,1.9-5.7,5.4h10.7Z"/>
                <path class="st8" d="M922.8,723.2c0-6.6,5.1-10.5,11-10.5s4.9,1,6.5,2.3l-2.3,2.7c-1.2-1-2.5-1.6-4-1.6-3.8,0-6.4,2.8-6.4,7s2.6,7,6.3,7,3.5-.8,4.8-1.8l1.9,2.8c-2.1,1.6-4.7,2.5-7.2,2.5-6,0-10.6-3.8-10.6-10.5Z"/>
                <path class="st8" d="M948.7,726.7v-10.1h-3.2v-3.1l3.5-.2.5-5.5h3.9v5.5h5.8v3.4h-5.8v10.1c0,2.4.9,3.6,3.3,3.6s1.7-.2,2.4-.5l.8,3.1c-1.2.4-2.7.7-4.4.7-5,0-6.8-2.8-6.8-7Z"/>
              </g>
              <g>
                <polygon class="st19" points="703.5 737.2 692.2 737.2 680.1 702.5 693.6 702.5 697.9 716 702.2 702.5 715.6 702.5 703.5 737.2"/>
                <path class="st19" d="M725.2,737.2h-12.7v-27.6c-.3-.8-.5-1.7-.5-2.6,0-3.7,3-6.5,6.9-6.5s6.9,2.8,6.9,6.5-.2,1.9-.6,2.7v27.5ZM718.9,705.5c-.3,0-1.1.7-1.1,1.5s.7,1.5,1.1,1.5c.4,0,1.1-.7,1.1-1.5s-.7-1.4-1.1-1.5Z"/>
                <path class="st19" d="M740.8,737.7c-8.6,0-14.9-6.1-14.9-14.5s7.2-14.5,14.2-14.5,13.1,5.4,13.1,13.4-.1,2.2-.3,3.1l-.8,3h-1.1l2.8,4.6-3.4,2.1c-2.9,1.8-6.2,2.7-9.6,2.7Z"/>
                <polygon class="st19" points="783.7 737.2 772.1 737.2 770.8 732.7 769.5 737.2 758.1 737.2 749.7 709.2 762.8 709.2 764.2 714.3 765.7 709.2 776 709.2 777.6 714.4 778.9 709.2 791.7 709.2 783.7 737.2"/>
                <path class="st19" d="M815.7,737.2h-12.7v-34.7h13c4.6,0,15.4,1.2,15.4,12.1s-5.8,12.5-15.2,12.5h-.5v10.1ZM815.7,715.7h0c2.2,0,2.9-.5,2.9-.5,0,0,0-.2,0-.6s0-.2,0-.3c-.3-.1-1.1-.4-3-.4v1.8Z"/>
                <path class="st19" d="M844.7,737.2h-12.7v-28h11.4c1-.3,2.1-.5,3.2-.5,1.6,0,2.8.2,4,.7l3.1,1.3-2.5,11-4-1.1c-.5-.1-.7-.2-1.2-.2s-.8.3-1.4,1.3v15.5Z"/>
                <path class="st19" d="M864.2,737.7c-8.3,0-14.5-6.2-14.5-14.5s6.2-14.5,14.5-14.5,14.5,6.2,14.5,14.5-6.2,14.5-14.5,14.5ZM864.2,720.2c-1.4,0-1.7,1.7-1.7,3s.3,3,1.7,3,1.7-1.6,1.7-3-.2-3-1.7-3Z"/>
                <path class="st19" d="M881.3,745.8c-1.8,0-3.4-.3-4.8-.8l-3.5-1.3,2.9-10.6,3.4,1v-24.5c-.4-.8-.6-1.7-.6-2.7,0-3.7,3-6.5,6.9-6.5s6.9,2.8,6.9,6.5-.2,1.8-.5,2.6v25.1c0,6.9-4,11.1-10.7,11.1ZM879.3,735.7h0ZM885.7,705.5c-.3,0-1.1.7-1.1,1.5s.7,1.5,1.1,1.5c.4,0,1.1-.7,1.1-1.5s-.7-1.4-1.1-1.5Z"/>
                <path class="st19" d="M907.6,737.7c-8.6,0-14.9-6.1-14.9-14.5s7.2-14.5,14.2-14.5,13.1,5.4,13.1,13.4-.1,2.2-.3,3.1l-.8,3h-1.1l2.8,4.6-3.4,2.1c-2.9,1.8-6.2,2.7-9.6,2.7Z"/>
                <path class="st19" d="M933.5,737.7c-8.6,0-14.6-5.9-14.6-14.5s6.3-14.5,15-14.5,6.4,1.1,9,3.2l3.2,2.6-7.4,8.8-3-2.4c-.9-.7-1.3-.7-1.5-.7-2.1,0-2.4,1.9-2.4,3s.4,3,2.3,3,1.9-.6,2.4-1l3.3-2.6,6.5,9.4-3,2.3c-2.7,2.2-6.2,3.3-9.7,3.3Z"/>
                <path class="st19" d="M955.4,737.7c-6.7,0-10.8-4.1-10.8-11v-6.1h-3.2v-10.9l3.8-.2.5-5.8h11.5v5.5h5.8v11.4h-5.8v5.6c0,0,.2,0,.2,0l4.1-1.5,3,11.1-3.8,1.1c-1.5.4-3.4.9-5.5.9Z"/>
              </g>
              <g>
                <path class="st8" d="M685.7,706.5h5l4.4,13.8c1,3.1,1.7,5.7,2.7,8.7h.2c1.1-3.1,1.7-5.7,2.7-8.7l4.4-13.8h4.8l-9.3,26.7h-5.5l-9.3-26.7Z"/>
                <path class="st8" d="M716,707c0-1.5,1.2-2.5,2.9-2.5s2.9,1,2.9,2.5-1.2,2.5-2.9,2.5-2.9-1-2.9-2.5ZM716.6,713.2h4.7v20h-4.7v-20Z"/>
                <path class="st8" d="M729.9,723.2c0-6.5,5-10.5,10.2-10.5s9.1,3.8,9.1,9.4,0,1.6-.2,2.1h-14.4c.4,3.8,3,6.1,6.9,6.1s3.7-.5,5.3-1.5l1.6,2.7c-2,1.2-4.6,2.1-7.5,2.1-6.1,0-10.9-3.9-10.9-10.5ZM745.1,721.4c0-3.4-1.7-5.4-5-5.4s-5.3,1.9-5.7,5.4h10.7Z"/>
                <path class="st8" d="M755.1,713.2h4.7l3,10.8c.4,1.9.8,3.8,1.2,5.7h.2c.5-1.9.9-3.8,1.4-5.7l3.1-10.8h4.3l3.2,10.8c.5,1.9,1,3.8,1.5,5.7h.2c.4-1.9.8-3.8,1.3-5.7l2.9-10.8h4.4l-5.8,20h-5.6l-2.8-9.8c-.5-1.9-.9-3.7-1.4-5.8h-.2c-.4,2.1-.8,3.9-1.4,5.8l-2.8,9.8h-5.4l-6-20Z"/>
                <path class="st8" d="M807,706.5h9c6.6,0,11.4,2,11.4,8.1s-4.7,8.5-11.2,8.5h-4.5v10.1h-4.7v-26.7ZM815.8,719.7c4.7,0,7-1.6,7-5.1s-2.4-4.7-7.2-4.7h-3.9v9.8h4.1Z"/>
                <path class="st8" d="M836,713.2h3.8l.4,3.6h.1c1.6-2.6,3.9-4.1,6.3-4.1s1.8.1,2.5.4l-.8,3.6c-.8-.2-1.3-.3-2.3-.3-1.8,0-4,1.1-5.4,4.3v12.4h-4.7v-20Z"/>
                <path class="st8" d="M853.7,723.2c0-6.6,5-10.5,10.5-10.5s10.5,3.8,10.5,10.5-5,10.5-10.5,10.5-10.5-3.8-10.5-10.5ZM869.8,723.2c0-4.2-2.2-7-5.7-7s-5.7,2.8-5.7,7,2.2,7,5.7,7,5.7-2.8,5.7-7Z"/>
                <path class="st8" d="M877.9,741.3l.9-3.1c.6.2,1.3.3,2,.3,2.1,0,2.6-1.4,2.6-3.7v-21.5h4.7v21.5c0,4.2-1.8,7.1-6.7,7.1s-2.6-.2-3.4-.5ZM882.8,707c0-1.5,1.2-2.5,2.9-2.5s2.9,1,2.9,2.5-1.2,2.5-2.9,2.5-2.9-1-2.9-2.5Z"/>
                <path class="st8" d="M896.7,723.2c0-6.5,5-10.5,10.2-10.5s9.1,3.8,9.1,9.4,0,1.6-.2,2.1h-14.4c.4,3.8,3,6.1,6.9,6.1s3.7-.5,5.3-1.5l1.6,2.7c-2,1.2-4.6,2.1-7.5,2.1-6.1,0-10.9-3.9-10.9-10.5ZM911.9,721.4c0-3.4-1.7-5.4-5-5.4s-5.3,1.9-5.7,5.4h10.7Z"/>
                <path class="st8" d="M922.8,723.2c0-6.6,5.1-10.5,11-10.5s4.9,1,6.5,2.3l-2.3,2.7c-1.2-1-2.5-1.6-4-1.6-3.8,0-6.4,2.8-6.4,7s2.6,7,6.3,7,3.5-.8,4.8-1.8l1.9,2.8c-2.1,1.6-4.7,2.5-7.2,2.5-6,0-10.6-3.8-10.6-10.5Z"/>
                <path class="st8" d="M948.7,726.7v-10.1h-3.2v-3.1l3.5-.2.5-5.5h3.9v5.5h5.8v3.4h-5.8v10.1c0,2.4.9,3.6,3.3,3.6s1.7-.2,2.4-.5l.8,3.1c-1.2.4-2.7.7-4.4.7-5,0-6.8-2.8-6.8-7Z"/>
              </g>
            </g>
          </g>
          <g>
            <g>
              <path class="st21" d="M242,955.2h0c0,0,0,0,0,0h0s0,0,0,0h0s0,0,0,0h0s0,0,0,0h0s0,0,0,0h0s0,0,0,0h0s0,0,0,0h0s0,0,0,0h0s0,0,0,0h0s0,0,0,0h0s0,0,0,0h0s0,0,0,0h0s0,0,0,0h0s0,0,0,0h0s0,0,0,0h0s0,0,0,0h0s0,0,0,0h0s0,0,0,0h0s0,0,0,0h0s0,0,0,0h0s0,0,0,0h0s0,0,0,0h0s0,0,0,0h0s0,0,0,0h0s0,0,0,0h0s0,0,0,0h0s0,0,0,0h0s0,0,0,0h0s0,0,0,0h0s0,0,0,0h0s0,0,0,0h0s0,0,0,0h0s0,0,0,0h0s0,0,0,0h0s0,0,0,0h0s0,0,0,0h0s0,0,0,0h0s0,0,0,0h0s0,0,0,0h0s0,0,0,0h0s0,0,0,0h0s0,0,0,0v-20.2h-13.4c0,0,0,0,0,0h0c0,0,0,0,0,0h0c0,0,0,0,0,0h0c0,0,0,0,0,0h0c0,0,0,0,0,0h0c0,0,0,0,0,0h0c0,0,0,0,0,0h0c0,0,0,0,0,0h0c0,0,0,0,0,0h0c0,0,0,0,0,0h0c0,0,0,0,0,0h0c0,0,0,0,0,0h0c0,0,0,0,0,0h0c0,0,0,0,0,0h0c0,0,0,0,0,0h0c0,0,0,0,0,0h0c0,0,0,0,0,0h0c0,0,0,0,0,0h0c0,0,0,0,0,0h0c0,0,0,0,0,0h0c0,0,0,0,0,0h0c0,0,0,0,0,0h0c0,0,0,0,0,0h0c0,0,0,0,0,0h0c0,0,0,0,0,0h0c0,0,0,0,0,0h0c0,0,0,0,0,0h0c0,0,0,0,0,0h0c0,0,0,0,0,0h0c0,0,0,0,0,0h0c0,0,0,0,0,0h0c0,0,0,0,0,0h0c0,0,0,0,0,0h0c0,0,0,0,0,0h0c0,0,0,0,0,0h0c0,0,0,0,0,0h0c0,0,0,0,0,0h0c0,0,0,0,0,0h0c0,0,0,0,0,0h0c0,0,0,0,0,0h0c0,0,0,0,0,0h0c0,0,0,0,0,0h0c0,0,0,0,0,0h0c0,0,0,0,0,0h0c0,0,0,0,0,0h0c0,0,0,0,0,0h0c0,0,0,0,0,0v5.8h6.9v8c-.4,0-.8,0-1.2,0-4.2,0-7.8-1.3-10.8-4-3-2.7-4.5-5.9-4.5-9.6s.8-5.3,2.5-7.5c2.8-2.2,6.1-3.4,10-3.4s4,.4,5.9,1.1h0c0,0,0,0,0,0h0c0,0,0,0,0,0h0c0,0,0,0,0,0h0c0,0,0,0,0,0h0c0,0,0,0,0,0h0c0,0,0,0,0,0h0c0,0,0,0,0,0h0c0,0,0,0,0,0h0c0,0,0,0,0,0h0c0,0,0,0,0,0h0c0,0,0,0,0,0h0c0,0,0,0,0,0h0c0,0,0,0,0,0h0c0,0,0,0,0,0h0c0,0,0,0,0,0h0c0,0,0,0,0,0h0c0,0,0,0,0,0h0c0,0,0,0,0,0h0c0,0,0,0,0,0h0c0,0,0,0,0,0h0c0,0,0,0,0,0h0c0,0,0,0,0,0h0c0,0,0,0,0,0h0c0,0,0,0,0,0h0c0,0,0,0,0,0h0c0,0,0,0,0,0h0c0,0,0,0,0,0h0c0,0,0,0,0,0h0c0,0,0,0,0,0h0c0,0,0,0,0,0h0c0,0,0,0,0,0h0c0,0,0,0,0,0h0c0,0,0,0,0,0h0c0,0,0,0,0,0h0c0,0,0,0,0,0h0c0,0,0,0,0,0h0c0,0,0,0,0,0h0c0,0,0,0,0,0h0c0,0,0,0,0,0h0c0,0,0,0,0,0h0c0,0,0,0,0,0h0c0,0,0,0,0,0h0c0,0,0,0,0,0h0c0,0,0,0,0,0h0c0,0,0,0,0,0h0c0,0,0,0,0,0h0c0,0,0,0,0,0l2.5-5.4c-2.7-1-5.5-1.5-8.4-1.5-6,0-11.1,1.9-15.3,5.7-.3.3-.6.5-.8.8,0,0,0,0,0,0,0,0,0,0,0,0,0,0,0,0,0,0,0,0,0,0,0,0,0,0,0,0,0,0,0,0,0,0,0,0,0,0,0,0,0,0,0,0,0,0,0,0,0,0,0,0,0,0,0,0,0,0,0,0,0,0,0,0,0,0,0,0,0,0,0,0,0,0,0,0,0,0,0,0,0,0,0,0,0,0,0,0,0,0,0,0,0,0,0,0,0,0,0,0,0,0,0,0,0,0,0,0,0,0,0,0,0,0,0,0,0,0,0,0,0,0,0,0,0,0,0,0,0,0,0,0,0,0,0,0,0,0,0,0,0,0,0,0,0,0,0,0,0,0,0,0,0,0,0,0,0,0,0,0,0,0,0,0,0,0,0,0,0,0,0,0,0,0,0,0,0,0,0,0,0,0,0,0,0,0,0,0,0,0,0,0,0,0,0,0,0,0,0,0,0,0,0,0,0,0,0,0,0,0,0,0,0,0,0,0,0,0,0,0,0,0,0,0,0,0,0,0,0,0,0,0,0,0,0,0,0,0,0,0,0,0,0,0,0,0,0,0,0,0,0,0,0,0,0,0,0,0,0,0,0,0,0,0,0,0,0,0,0,0,0,0,0,0,0,0-3.7,3.7-5.6,8-5.6,13s2.1,10,6.4,13.8c4.2,3.8,9.4,5.7,15.3,5.7s5.8-.5,8.5-1.5l2-.7h0s0,0,0,0h0s0,0,0,0h0s0,0,0,0h0s0,0,0,0h0Z"/>
              <polygon class="st21" points="78.2 916.5 70.7 916.5 70.7 916.5 70.7 916.5 70.6 916.6 70.6 916.6 70.6 916.7 70.5 916.7 70.5 916.7 70.5 916.7 70.4 916.8 70.4 916.8 70.4 916.8 70.4 916.8 70.3 916.9 70.3 916.9 70.3 917 70.3 917 70.2 917 70.2 917 70.2 917.1 70.1 917.1 70.1 917.1 70.1 917.1 70 917.2 70 917.2 70 917.3 70 917.3 69.9 917.3 69.9 917.3 69.9 917.4 69.8 917.4 69.8 917.4 69.8 917.4 69.7 917.5 69.7 917.5 69.7 917.6 69.7 917.6 69.6 917.6 69.6 917.6 69.6 917.7 69.5 917.7 69.5 917.7 69.5 917.7 69.4 917.8 69.4 917.8 69.4 917.9 69.4 917.9 69.3 917.9 69.3 917.9 69.3 918 69.2 918 69.2 918 69.2 918 69.2 918.1 69.1 918.1 69.1 918.2 69.1 918.2 69 918.2 69 918.2 69 918.3 69 918.3 68.9 918.3 68.9 918.3 68.9 918.4 68.8 918.4 68.8 918.4 68.8 918.4 68.7 918.5 68.7 918.5 68.7 918.6 68.7 918.6 68.6 918.6 68.6 918.6 68.6 918.7 68.5 918.7 68.5 918.7 68.5 918.7 68.4 918.8 68.4 918.8 68.4 918.9 68.4 918.9 68.3 918.9 68.3 918.9 68.3 919 68.2 919 68.2 919 68.2 919 68.1 919.1 68.1 919.1 68.1 919.2 68.1 919.2 68 919.2 68 919.2 68 919.3 68 919.3 51.7 944 51.7 916.5 45.2 916.5 45.2 916.5 45.2 916.5 45.2 916.6 45.1 916.6 45.1 916.7 45.1 916.7 45.1 916.7 45 916.7 45 916.8 45 916.8 45 916.8 44.9 916.8 44.9 916.9 44.8 916.9 44.8 917 44.8 917 44.8 917 44.7 917 44.7 917.1 44.7 917.1 44.7 917.1 44.6 917.1 44.6 917.2 44.5 917.2 44.5 917.3 44.5 917.3 44.5 917.3 44.4 917.3 44.4 917.4 44.4 917.4 44.4 917.4 44.3 917.4 44.3 917.5 44.2 917.5 44.2 917.6 44.2 917.6 44.2 917.6 44.1 917.6 44.1 917.7 44.1 917.7 44.1 917.7 44 917.7 44 917.8 44 917.8 44 917.9 43.9 917.9 43.9 917.9 43.8 917.9 43.8 918 43.8 918 43.8 918 43.7 918 43.7 918.1 43.7 918.1 43.7 918.2 43.6 918.2 43.6 918.2 43.5 918.2 43.5 918.3 43.5 918.3 43.5 918.3 43.4 918.3 43.4 918.4 43.4 918.4 43.4 918.4 43.3 918.4 43.3 918.5 43.2 918.5 43.2 918.6 43.2 918.6 43.2 918.6 43.1 918.6 43.1 918.7 43.1 918.7 43.1 918.7 43 918.7 43 918.8 42.9 918.8 42.9 918.9 42.9 918.9 42.9 918.9 42.8 918.9 42.8 919 42.8 919 42.8 919 42.7 919 42.7 919.1 42.7 919.1 42.7 919.2 42.6 919.2 42.6 919.2 42.5 919.2 42.5 919.3 42.5 919.3 42.5 957.4 50.4 957.4 50.4 957.4 50.4 957.4 50.5 957.3 50.5 957.3 50.5 957.2 50.6 957.2 50.6 957.2 50.6 957.2 50.7 957.1 50.7 957.1 50.7 957.1 50.7 957.1 50.8 957 50.8 957 50.8 956.9 50.9 956.9 50.9 956.9 50.9 956.9 51 956.8 51 956.8 51 956.8 51 956.8 51.1 956.7 51.1 956.7 51.1 956.6 51.2 956.6 51.2 956.6 51.2 956.6 51.2 956.5 51.3 956.5 51.3 956.5 51.3 956.5 51.4 956.4 51.4 956.4 51.4 956.4 51.4 956.4 51.5 956.3 51.5 956.3 51.5 956.2 51.6 956.2 51.6 956.2 51.6 956.2 51.7 956.1 51.7 956.1 51.7 956.1 51.7 956.1 51.8 956 51.8 956 51.8 955.9 51.9 955.9 51.9 955.9 51.9 955.9 52 955.8 52 955.8 52 955.8 52 955.8 52.1 955.7 52.1 955.7 52.1 955.6 52.2 955.6 52.2 955.6 52.2 955.6 52.3 955.5 52.3 955.5 52.3 955.5 52.3 955.5 52.4 955.4 52.4 955.4 52.4 955.3 52.4 955.3 52.5 955.3 52.5 955.3 52.5 955.2 52.6 955.2 52.6 955.2 52.6 955.2 52.7 955.1 52.7 955.1 52.7 955 52.7 955 52.8 955 52.8 955 52.8 954.9 52.9 954.9 52.9 954.9 52.9 954.9 53 954.8 53 954.8 53 954.8 53 954.8 53.1 954.7 53.1 954.7 53.1 954.6 53.2 954.6 78.2 916.5"/>
              <polygon class="st21" points="81 916.6 80.9 916.6 80.9 916.7 80.9 916.7 80.9 916.7 80.8 916.7 80.8 916.8 80.7 916.8 80.7 916.8 80.7 916.8 80.7 916.9 80.6 916.9 80.6 917 80.6 917 80.6 917 80.5 917 80.5 917.1 80.4 917.1 80.4 917.1 80.4 917.1 80.4 917.2 80.3 917.2 80.3 917.3 80.3 917.3 80.3 917.3 80.2 917.3 80.2 917.4 80.2 917.4 80.2 917.4 80.1 917.4 80.1 917.5 80 917.5 80 917.6 80 917.6 80 917.6 79.9 917.6 79.9 917.7 79.9 917.7 79.9 917.7 79.8 917.7 79.8 917.8 79.7 917.8 79.7 917.8 79.7 917.8 79.7 917.9 79.6 917.9 79.6 918 79.6 918 79.6 918 79.5 918 79.5 918.1 79.4 918.1 79.4 918.1 79.4 918.1 79.4 918.2 79.3 918.2 79.3 918.3 79.3 918.3 79.3 918.3 79.2 918.3 79.2 918.4 79.2 918.4 79.2 918.4 79.1 918.4 79.1 918.5 79 918.5 79 918.6 79 918.6 79 918.6 78.9 918.6 78.9 918.7 78.9 918.7 78.9 918.7 78.8 918.7 78.8 918.8 78.7 918.8 78.7 918.9 78.7 918.9 78.7 918.9 78.6 918.9 78.6 919 78.6 919 78.6 919 78.5 919 78.5 919.1 78.4 919.1 78.4 919.2 78.4 919.2 78.4 919.2 78.3 919.2 78.3 919.3 78.3 919.3 78.3 919.3 78.2 919.3 78.2 957.4 84.7 957.4 84.7 957.4 84.7 957.4 84.7 957.3 84.8 957.3 84.8 957.2 84.8 957.2 84.8 957.2 84.9 957.2 84.9 957.1 85 957.1 85 957.1 85 957.1 85 957 85.1 957 85.1 956.9 85.1 956.9 85.1 956.9 85.2 956.9 85.2 956.8 85.2 956.8 85.2 956.8 85.3 956.8 85.3 956.7 85.4 956.7 85.4 956.6 85.4 956.6 85.4 956.6 85.5 956.6 85.5 956.5 85.5 956.5 85.5 956.5 85.6 956.5 85.6 956.4 85.7 956.4 85.7 956.4 85.7 956.4 85.7 956.3 85.8 956.3 85.8 956.2 85.8 956.2 85.8 956.2 85.9 956.2 85.9 956.1 86 956.1 86 956.1 86 956.1 86 956 86.1 956 86.1 955.9 86.1 955.9 86.1 955.9 86.2 955.9 86.2 955.8 86.3 955.8 86.3 955.8 86.3 955.8 86.3 955.7 86.4 955.7 86.4 955.6 86.4 955.6 86.4 955.6 86.5 955.6 86.5 955.5 86.5 955.5 86.5 955.5 86.6 955.5 86.6 955.4 86.7 955.4 86.7 955.3 86.7 955.3 86.7 955.3 86.8 955.3 86.8 955.2 86.8 955.2 86.8 955.2 86.9 955.2 86.9 955.1 87 955.1 87 955 87 955 87 955 87.1 955 87.1 954.9 87.1 954.9 87.1 954.9 87.2 954.9 87.2 954.8 87.3 954.8 87.3 954.8 87.3 954.8 87.3 954.7 87.4 954.7 87.4 954.6 87.4 954.6 87.4 916.5 81 916.5 81 916.6"/>
              <path class="st21" d="M119.4,922.1c-4.2-3.7-9.2-5.6-15-5.6h-11.2c0,0,0,0,0,0h0c0,0,0,0,0,0h0c0,0,0,0,0,0h0c0,0,0,0,0,0h0c0,0,0,0,0,0h0c0,0,0,0,0,0h0c0,0,0,0,0,0h0c0,0,0,0,0,0h0c0,0,0,0,0,0h0c0,0,0,0,0,0h0c0,0,0,0,0,0h0c0,0,0,0,0,0h0c0,0,0,0,0,0h0c0,0,0,0,0,0h0c0,0,0,0,0,0h0c0,0,0,0,0,0h0c0,0,0,0,0,0h0c0,0,0,0,0,0h0c0,0,0,0,0,0h0c0,0,0,0,0,0h0c0,0,0,0,0,0h0c0,0,0,0,0,0h0c0,0,0,0,0,0h0c0,0,0,0,0,0h0c0,0,0,0,0,0h0c0,0,0,0,0,0h0c0,0,0,0,0,0h0c0,0,0,0,0,0h0c0,0,0,0,0,0h0c0,0,0,0,0,0h0c0,0,0,0,0,0h0c0,0,0,0,0,0h0c0,0,0,0,0,0h0c0,0,0,0,0,0h0c0,0,0,0,0,0h0c0,0,0,0,0,0h0c0,0,0,0,0,0h0c0,0,0,0,0,0h0c0,0,0,0,0,0h0c0,0,0,0,0,0h0c0,0,0,0,0,0h0c0,0,0,0,0,0h0c0,0,0,0,0,0h0c0,0,0,0,0,0h0c0,0,0,0,0,0h0c0,0,0,0,0,0h0c0,0,0,0,0,0v38.1h11.2c5.9,0,10.9-1.9,15-5.6.3-.2.5-.5.8-.8,0,0,0,0,0,0s0,0,0,0c0,0,0,0,0,0,0,0,0,0,0,0,0,0,0,0,0,0,0,0,0,0,0,0,0,0,0,0,0,0,0,0,0,0,0,0,0,0,0,0,0,0,0,0,0,0,0,0,0,0,0,0,0,0,0,0,0,0,0,0,0,0,0,0,0,0,0,0,0,0,0,0,0,0,0,0,0,0,0,0,0,0,0,0,0,0,0,0,0,0,0,0,0,0,0,0,0,0,0,0,0,0,0,0,0,0,0,0,0,0,0,0,0,0,0,0,0,0,0,0,0,0,0,0,0,0,0,0,0,0,0,0,0,0,0,0,0,0,0,0,0,0,0,0,0,0,0,0,0,0,0,0,0,0,0,0,0,0,0,0,0,0,0,0,0,0,0,0,0,0,0,0,0,0,0,0,0,0,0,0,0,0,0,0,0,0s0,0,0,0c0,0,0,0,0,0,0,0,0,0,0,0,0,0,0,0,0,0,0,0,0,0,0,0,0,0,0,0,0,0,0,0,0,0,0,0,0,0,0,0,0,0,0,0,0,0,0,0,0,0,0,0,0,0,0,0,0,0,0,0,0,0,0,0,0,0,0,0,0,0,0,0,3.7-3.6,5.5-7.8,5.5-12.8s-2.1-9.8-6.2-13.5ZM104.3,948.9h-4.8v-23.8h2c4.1,0,7.6,1.3,10.5,3.9,2.9,2.6,4.3,5.7,4.3,9.4s-.8,5.1-2.4,7.3c-2.7,2.2-6,3.2-9.7,3.2Z"/>
              <polygon class="st21" points="136.2 941.2 145.2 941.2 145.2 941.1 145.2 941.1 145.2 941.1 145.3 941.1 145.3 941 145.4 941 145.4 941 145.4 941 145.4 940.9 145.5 940.9 145.5 940.8 145.5 940.8 145.5 940.8 145.6 940.8 145.6 940.7 145.7 940.7 145.7 940.7 145.7 940.7 145.7 940.6 145.8 940.6 145.8 940.5 145.8 940.5 145.8 940.5 145.9 940.5 145.9 940.4 146 940.4 146 940.4 146 940.4 146 940.3 146.1 940.3 146.1 940.2 146.1 940.2 146.1 940.2 146.2 940.2 146.2 940.1 146.2 940.1 146.2 940.1 146.3 940.1 146.3 940 146.4 940 146.4 939.9 146.4 939.9 146.4 939.9 146.5 939.9 146.5 939.8 146.5 939.8 146.5 939.8 146.6 939.8 146.6 939.7 146.7 939.7 146.7 939.6 146.7 939.6 146.7 939.6 146.8 939.6 146.8 939.5 146.8 939.5 146.8 939.5 146.9 939.5 146.9 939.4 147 939.4 147 939.3 147 939.3 147 939.3 147.1 939.3 147.1 939.2 147.1 939.2 147.1 939.2 147.2 939.2 147.2 939.1 147.2 939.1 147.2 939.1 147.3 939.1 147.3 939 147.4 939 147.4 938.9 147.4 938.9 147.4 938.9 147.5 938.9 147.5 938.8 147.5 938.8 147.5 938.8 147.6 938.8 147.6 938.7 147.7 938.7 147.7 938.6 147.7 938.6 147.7 938.6 147.8 938.6 147.8 938.5 147.8 938.5 147.8 938.5 147.9 938.5 147.9 938.4 148 938.4 148 932.6 136.2 932.6 136.2 925.1 148.7 925.1 148.7 925 148.7 925 148.7 924.9 148.8 924.9 148.8 924.9 148.8 924.9 148.8 924.8 148.9 924.8 148.9 924.8 149 924.8 149 924.7 149 924.7 149 924.6 149.1 924.6 149.1 924.6 149.1 924.6 149.1 924.5 149.2 924.5 149.2 924.5 149.3 924.5 149.3 924.4 149.3 924.4 149.3 924.4 149.4 924.4 149.4 924.3 149.4 924.3 149.4 924.2 149.5 924.2 149.5 924.2 149.5 924.2 149.5 924.1 149.6 924.1 149.6 924.1 149.7 924.1 149.7 924 149.7 924 149.7 923.9 149.8 923.9 149.8 923.9 149.8 923.9 149.8 923.8 149.9 923.8 149.9 923.8 150 923.8 150 923.7 150 923.7 150 923.6 150.1 923.6 150.1 923.6 150.1 923.6 150.1 923.5 150.2 923.5 150.2 923.5 150.3 923.5 150.3 923.4 150.3 923.4 150.3 923.3 150.4 923.3 150.4 923.3 150.4 923.3 150.4 923.2 150.5 923.2 150.5 923.2 150.5 923.2 150.5 923.1 150.6 923.1 150.6 923 150.7 923 150.7 923 150.7 923 150.7 922.9 150.8 922.9 150.8 922.9 150.8 922.9 150.8 922.8 150.9 922.8 150.9 922.7 151 922.7 151 922.7 151 922.7 151 922.6 151.1 922.6 151.1 922.6 151.1 922.6 151.1 922.5 151.2 922.5 151.2 922.5 151.3 922.5 151.3 922.4 151.3 922.4 151.3 922.3 151.4 922.3 151.4 922.3 151.4 922.3 151.4 916.5 129.7 916.5 129.7 916.5 129.7 916.5 129.7 916.6 129.6 916.6 129.6 916.7 129.6 916.7 129.6 916.7 129.5 916.7 129.5 916.8 129.4 916.8 129.4 916.8 129.4 916.8 129.4 916.9 129.3 916.9 129.3 917 129.3 917 129.3 917 129.2 917 129.2 917.1 129.1 917.1 129.1 917.1 129.1 917.1 129.1 917.2 129 917.2 129 917.3 129 917.3 129 917.3 128.9 917.3 128.9 917.4 128.8 917.4 128.8 917.4 128.8 917.4 128.8 917.5 128.7 917.5 128.7 917.6 128.7 917.6 128.7 917.6 128.6 917.6 128.6 917.7 128.6 917.7 128.6 917.7 128.5 917.7 128.5 917.8 128.4 917.8 128.4 917.9 128.4 917.9 128.4 917.9 128.3 917.9 128.3 918 128.3 918 128.3 918 128.2 918 128.2 918.1 128.1 918.1 128.1 918.2 128.1 918.2 128.1 918.2 128 918.2 128 918.3 128 918.3 128 918.3 127.9 918.3 127.9 918.4 127.8 918.4 127.8 918.4 127.8 918.4 127.8 918.5 127.7 918.5 127.7 918.6 127.7 918.6 127.7 918.6 127.6 918.6 127.6 918.7 127.6 918.7 127.6 918.7 127.5 918.7 127.5 918.8 127.4 918.8 127.4 918.9 127.4 918.9 127.4 918.9 127.3 918.9 127.3 919 127.3 919 127.3 919 127.2 919 127.2 919.1 127.1 919.1 127.1 919.2 127.1 919.2 127.1 919.2 127 919.2 127 919.3 127 919.3 127 957.4 148.7 957.4 148.7 957.4 148.7 957.4 148.7 957.3 148.8 957.3 148.8 957.2 148.8 957.2 148.8 957.2 148.9 957.2 148.9 957.1 149 957.1 149 957.1 149 957.1 149 957 149.1 957 149.1 956.9 149.1 956.9 149.1 956.9 149.2 956.9 149.2 956.8 149.3 956.8 149.3 956.8 149.3 956.8 149.3 956.7 149.4 956.7 149.4 956.6 149.4 956.6 149.4 956.6 149.5 956.6 149.5 956.5 149.5 956.5 149.5 956.5 149.6 956.5 149.6 956.4 149.7 956.4 149.7 956.4 149.7 956.4 149.7 956.3 149.8 956.3 149.8 956.2 149.8 956.2 149.8 956.2 149.9 956.2 149.9 956.1 150 956.1 150 956.1 150 956.1 150 956 150.1 956 150.1 955.9 150.1 955.9 150.1 955.9 150.2 955.9 150.2 955.8 150.3 955.8 150.3 955.8 150.3 955.8 150.3 955.7 150.4 955.7 150.4 955.6 150.4 955.6 150.4 955.6 150.5 955.6 150.5 955.5 150.5 955.5 150.5 955.5 150.6 955.5 150.6 955.4 150.7 955.4 150.7 955.3 150.7 955.3 150.7 955.3 150.8 955.3 150.8 955.2 150.8 955.2 150.8 955.2 150.9 955.2 150.9 955.1 151 955.1 151 955 151 955 151 955 151.1 955 151.1 954.9 151.1 954.9 151.1 954.9 151.2 954.9 151.2 954.8 151.3 954.8 151.3 954.8 151.3 954.8 151.3 954.7 151.4 954.7 151.4 954.6 151.4 954.6 151.4 948.8 136.2 948.8 136.2 941.2"/>
              <path class="st21" d="M190.2,921.8c-4.2-3.8-9.4-5.7-15.3-5.7s-11.1,1.9-15.3,5.7c-.3.3-.6.5-.8.8,0,0,0,0,0,0,0,0,0,0,0,0,0,0,0,0,0,0,0,0,0,0,0,0,0,0,0,0,0,0,0,0,0,0,0,0,0,0,0,0,0,0,0,0,0,0,0,0,0,0,0,0,0,0,0,0,0,0,0,0,0,0,0,0,0,0,0,0,0,0,0,0,0,0,0,0,0,0,0,0,0,0,0,0,0,0,0,0,0,0,0,0,0,0,0,0,0,0,0,0,0,0,0,0,0,0,0,0,0,0,0,0,0,0,0,0,0,0,0,0,0,0,0,0,0,0,0,0,0,0,0,0,0,0,0,0,0,0,0,0,0,0,0,0,0,0,0,0,0,0,0,0,0,0,0,0,0,0,0,0,0,0,0,0,0,0,0,0,0,0,0,0,0,0,0,0,0,0,0,0,0,0,0,0,0,0,0,0,0,0,0,0,0,0,0,0,0,0,0,0,0,0,0,0,0,0,0,0,0,0,0,0,0,0,0,0,0,0,0,0,0,0,0,0,0,0,0,0,0,0,0,0,0,0,0,0,0,0,0,0,0,0,0,0,0,0,0,0,0,0,0,0,0,0,0,0,0,0,0,0,0,0,0,0,0,0,0,0,0,0,0,0,0,0,0,0-3.7,3.7-5.6,8-5.6,13s2.1,10,6.4,13.8c4.2,3.8,9.4,5.7,15.3,5.7s11.1-1.9,15.3-5.7c.3-.3.6-.5.8-.8,0,0,0,0,0,0,0,0,0,0,0,0,0,0,0,0,0,0,0,0,0,0,0,0,0,0,0,0,0,0,0,0,0,0,0,0,0,0,0,0,0,0,0,0,0,0,0,0,0,0,0,0,0,0,0,0,0,0,0,0,0,0,0,0,0,0,0,0,0,0,0,0,0,0,0,0,0,0,0,0,0,0,0,0,0,0,0,0,0,0,0,0,0,0,0,0,0,0,0,0,0,0,0,0,0,0,0,0,0,0,0,0,0,0,0,0,0,0,0,0,0,0,0,0,0,0,0,0,0,0,0,0,0,0,0,0,0,0,0,0,0,0,0,0,0,0,0,0,0,0,0,0,0,0,0,0,0,0,0,0,0,0,0,0,0,0,0,0,0,0,0,0,0,0,0,0,0,0,0,0,0,0,0,0,0,0,0,0,0,0,0,0,0,0,0,0,0,0,0,0,0,0,0,0,0,0,0,0,0,0,0,0,0,0,0,0,0,0,0,0,0,0,0,0,0,0,0,0,0,0,0,0,0,0,0,0,0,0,0,0,0,0,0,0,0,0,0,0,0,0,0,0,0,0,0,0,0,0,0,0,0,0,0,0,0,0,0,0,0,0,0,0,0,0,0,0,3.7-3.7,5.6-8,5.6-13s-2.1-10-6.4-13.8ZM164.1,945.2c-3-2.7-4.5-5.9-4.5-9.6s.8-5.3,2.5-7.5c2.8-2.2,6.1-3.3,10-3.3s7.8,1.3,10.8,4c3,2.7,4.5,5.9,4.5,9.6s-.8,5.3-2.5,7.5c-2.8,2.2-6.1,3.3-10,3.3s-7.8-1.3-10.8-4Z"/>
              <path class="st21" d="M271.7,916.5h0c0,0,0,0,0,0h0c0,0,0,0,0,0h0c0,0,0,0,0,0h0c0,0,0,0,0,0h0c0,0,0,0,0,0h0c0,0,0,0,0,0h0c0,0,0,0,0,0h0c0,0,0,0,0,0h0c0,0,0,0,0,0h0c0,0,0,0,0,0h0c0,0,0,0,0,0h0c0,0,0,0,0,0h0c0,0,0,0,0,0h0c0,0,0,0,0,0h0c0,0,0,0,0,0h0c0,0,0,0,0,0h0c0,0,0,0,0,0h0c0,0,0,0,0,0h0c0,0,0,0,0,0h0c0,0,0,0,0,0h0c0,0,0,0,0,0h0c0,0,0,0,0,0h0c0,0,0,0,0,0h0c0,0,0,0,0,0h0c0,0,0,0,0,0h0c0,0,0,0,0,0h0c0,0,0,0,0,0h0c0,0,0,0,0,0h0c0,0,0,0,0,0h0c0,0,0,0,0,0h0c0,0,0,0,0,0h0c0,0,0,0,0,0h0c0,0,0,0,0,0h0c0,0,0,0,0,0h0c0,0,0,0,0,0h0c0,0,0,0,0,0h0c0,0,0,0,0,0h0c0,0,0,0,0,0h0c0,0,0,0,0,0h0c0,0,0,0,0,0h0c0,0,0,0,0,0h0c0,0,0,0,0,0h0c0,0,0,0,0,0h0c0,0,0,0,0,0h0c0,0,0,0,0,0h0c0,0,0,0,0,0l-26.9,38.1h7.7c0,0,0,0,0,0h0c0,0,0,0,0,0h0c0,0,0,0,0,0h0c0,0,0,0,0,0h0c0,0,0,0,0,0h0c0,0,0,0,0,0h0c0,0,0,0,0,0h0c0,0,0,0,0,0h0c0,0,0,0,0,0h0c0,0,0,0,0,0h0c0,0,0,0,0,0h0c0,0,0,0,0,0h0c0,0,0,0,0,0h0c0,0,0,0,0,0h0c0,0,0,0,0,0h0c0,0,0,0,0,0h0c0,0,0,0,0,0h0c0,0,0,0,0,0h0c0,0,0,0,0,0h0c0,0,0,0,0,0h0c0,0,0,0,0,0h0c0,0,0,0,0,0h0c0,0,0,0,0,0h0c0,0,0,0,0,0h0c0,0,0,0,0,0h0c0,0,0,0,0,0h0c0,0,0,0,0,0h0c0,0,0,0,0,0h0c0,0,0,0,0,0h0c0,0,0,0,0,0h0c0,0,0,0,0,0h0c0,0,0,0,0,0h0c0,0,0,0,0,0h0c0,0,0,0,0,0h0c0,0,0,0,0,0h0c0,0,0,0,0,0h0c0,0,0,0,0,0h0c0,0,0,0,0,0h0c0,0,0,0,0,0h0c0,0,0,0,0,0h0c0,0,0,0,0,0h0c0,0,0,0,0,0h0c0,0,0,0,0,0h0c0,0,0,0,0,0h0c0,0,0,0,0,0h0c0,0,0,0,0,0h0c0,0,0,0,0,0l4.3-6.1h13.6v8.9h6.5c0,0,0,0,0,0h0c0,0,0,0,0,0h0c0,0,0,0,0,0h0c0,0,0,0,0,0h0c0,0,0,0,0,0h0c0,0,0,0,0,0h0c0,0,0,0,0,0h0c0,0,0,0,0,0h0c0,0,0,0,0,0h0c0,0,0,0,0,0h0c0,0,0,0,0,0h0c0,0,0,0,0,0h0c0,0,0,0,0,0h0c0,0,0,0,0,0h0c0,0,0,0,0,0h0c0,0,0,0,0,0h0c0,0,0,0,0,0h0c0,0,0,0,0,0h0c0,0,0,0,0,0h0c0,0,0,0,0,0h0c0,0,0,0,0,0h0c0,0,0,0,0,0h0c0,0,0,0,0,0h0c0,0,0,0,0,0h0c0,0,0,0,0,0h0c0,0,0,0,0,0h0c0,0,0,0,0,0h0c0,0,0,0,0,0h0c0,0,0,0,0,0h0c0,0,0,0,0,0h0c0,0,0,0,0,0h0c0,0,0,0,0,0h0c0,0,0,0,0,0h0c0,0,0,0,0,0h0c0,0,0,0,0,0h0c0,0,0,0,0,0h0c0,0,0,0,0,0h0c0,0,0,0,0,0h0c0,0,0,0,0,0h0c0,0,0,0,0,0h0c0,0,0,0,0,0h0c0,0,0,0,0,0h0c0,0,0,0,0,0h0c0,0,0,0,0,0h0c0,0,0,0,0,0h0c0,0,0,0,0,0h0c0,0,0,0,0,0v-38.1h-8ZM270.4,939.9h-7.6l7.6-10.8v10.8Z"/>
              <polygon class="st21" points="322.9 916.5 322.9 916.5 322.9 916.6 322.8 916.6 322.8 916.7 322.8 916.7 322.7 916.7 322.7 916.7 322.7 916.8 322.7 916.8 322.6 916.8 322.6 916.8 322.6 916.9 322.5 916.9 322.5 917 322.5 917 322.5 917 322.4 917 322.4 917.1 322.4 917.1 322.3 917.1 322.3 917.1 322.3 917.2 322.2 917.2 322.2 917.3 322.2 917.3 322.2 917.3 322.1 917.3 322.1 917.4 322.1 917.4 322 917.4 322 917.4 322 917.5 322 917.5 321.9 917.6 321.9 917.6 321.9 917.6 321.8 917.6 321.8 917.7 321.8 917.7 321.7 917.7 321.7 917.7 321.7 917.8 321.7 917.8 321.6 917.9 321.6 917.9 321.6 917.9 321.5 917.9 321.5 918 321.5 918 321.5 918 321.4 918 321.4 918.1 321.4 918.1 321.3 918.2 321.3 918.2 321.3 918.2 321.2 918.2 321.2 918.3 321.2 918.3 321.2 918.3 321.1 918.3 321.1 918.4 321.1 918.4 321 918.4 321 918.4 321 918.5 321 918.5 320.9 918.6 320.9 918.6 320.9 918.6 320.8 918.6 320.8 918.7 320.8 918.7 320.7 918.7 320.7 918.7 320.7 918.8 320.7 918.8 320.6 918.9 320.6 918.9 320.6 918.9 320.5 918.9 320.5 919 320.5 919 320.5 919 320.4 919 320.4 919.1 320.4 919.1 320.3 919.2 320.3 919.2 320.3 919.2 320.2 919.2 320.2 919.3 320.2 919.3 307.1 946.2 292.8 916.5 286.1 916.5 286.1 916.5 286 916.5 286 916.6 285.9 916.6 285.9 916.7 285.9 916.7 285.9 916.7 285.8 916.7 285.8 916.8 285.8 916.8 285.8 916.8 285.7 916.8 285.7 916.9 285.7 916.9 285.7 917 285.6 917 285.6 917 285.5 917 285.5 917.1 285.5 917.1 285.5 917.1 285.4 917.1 285.4 917.2 285.4 917.2 285.4 917.3 285.3 917.3 285.3 917.3 285.2 917.3 285.2 917.4 285.2 917.4 285.2 917.4 285.1 917.4 285.1 917.5 285.1 917.5 285.1 917.6 285 917.6 285 917.6 284.9 917.6 284.9 917.7 284.9 917.7 284.9 917.7 284.8 917.7 284.8 917.8 284.8 917.8 284.8 917.9 284.7 917.9 284.7 917.9 284.7 917.9 284.7 918 284.6 918 284.6 918 284.5 918 284.5 918.1 284.5 918.1 284.5 918.2 284.4 918.2 284.4 918.2 284.4 918.2 284.4 918.3 284.3 918.3 284.3 918.3 284.2 918.3 284.2 918.4 284.2 918.4 284.2 918.4 284.1 918.4 284.1 918.5 284.1 918.5 284.1 918.6 284 918.6 284 918.6 283.9 918.6 283.9 918.7 283.9 918.7 283.9 918.7 283.8 918.7 283.8 918.8 283.8 918.8 283.8 918.9 283.7 918.9 283.7 918.9 283.7 918.9 283.7 919 283.6 919 283.6 919 283.5 919 283.5 919.1 283.5 919.1 283.5 919.2 283.4 919.2 283.4 919.2 283.4 919.2 283.4 919.3 283.3 919.3 283.3 957.4 289.7 957.4 289.7 957.4 289.8 957.4 289.8 957.3 289.9 957.3 289.9 957.2 289.9 957.2 289.9 957.2 290 957.2 290 957.1 290 957.1 290 957.1 290.1 957.1 290.1 957 290.2 957 290.2 956.9 290.2 956.9 290.2 956.9 290.3 956.9 290.3 956.8 290.3 956.8 290.3 956.8 290.4 956.8 290.4 956.7 290.5 956.7 290.5 956.6 290.5 956.6 290.5 956.6 290.6 956.6 290.6 956.5 290.6 956.5 290.6 956.5 290.7 956.5 290.7 956.4 290.7 956.4 290.7 956.4 290.8 956.4 290.8 956.3 290.9 956.3 290.9 956.2 290.9 956.2 290.9 956.2 291 956.2 291 956.1 291 956.1 291 956.1 291.1 956.1 291.1 956 291.2 956 291.2 955.9 291.2 955.9 291.2 955.9 291.3 955.9 291.3 955.8 291.3 955.8 291.3 955.8 291.4 955.8 291.4 955.7 291.5 955.7 291.5 955.6 291.5 955.6 291.5 955.6 291.6 955.6 291.6 955.5 291.6 955.5 291.6 955.5 291.7 955.5 291.7 955.4 291.8 955.4 291.8 955.3 291.8 955.3 291.8 955.3 291.9 955.3 291.9 955.2 291.9 955.2 291.9 955.2 292 955.2 292 955.1 292 955.1 292 955 292.1 955 292.1 955 292.2 955 292.2 954.9 292.2 954.9 292.2 954.9 292.3 954.9 292.3 954.8 292.3 954.8 292.3 954.8 292.4 954.8 292.4 954.7 292.5 954.7 292.5 954.6 292.5 954.6 292.5 939.1 301.4 957.4 308.7 957.4 308.7 957.4 308.7 957.4 308.7 957.3 308.8 957.3 308.8 957.2 308.8 957.2 308.9 957.2 308.9 957.2 308.9 957.1 308.9 957.1 309 957.1 309 957.1 309 957 309.1 957 309.1 956.9 309.1 956.9 309.2 956.9 309.2 956.9 309.2 956.8 309.2 956.8 309.3 956.8 309.3 956.8 309.3 956.7 309.4 956.7 309.4 956.6 309.4 956.6 309.4 956.6 309.5 956.6 309.5 956.5 309.5 956.5 309.6 956.5 309.6 956.5 309.6 956.4 309.7 956.4 309.7 956.4 309.7 956.4 309.7 956.3 309.8 956.3 309.8 956.2 309.8 956.2 309.9 956.2 309.9 956.2 309.9 956.1 309.9 956.1 310 956.1 310 956.1 310 956 310.1 956 310.1 955.9 310.1 955.9 310.2 955.9 310.2 955.9 310.2 955.8 310.2 955.8 310.3 955.8 310.3 955.8 310.3 955.7 310.4 955.7 310.4 955.6 310.4 955.6 310.4 955.6 310.5 955.6 310.5 955.5 310.5 955.5 310.6 955.5 310.6 955.5 310.6 955.4 310.7 955.4 310.7 955.3 310.7 955.3 310.7 955.3 310.8 955.3 310.8 955.2 310.8 955.2 310.9 955.2 310.9 955.2 310.9 955.1 311 955.1 311 955 311 955 311 955 311.1 955 311.1 954.9 311.1 954.9 311.2 954.9 311.2 954.9 311.2 954.8 311.2 954.8 311.3 954.8 311.3 954.8 311.3 954.7 311.4 954.7 311.4 954.6 311.4 954.6 320.5 936.1 320.5 957.4 326.9 957.4 326.9 957.4 327 957.4 327 957.3 327.1 957.3 327.1 957.2 327.1 957.2 327.1 957.2 327.2 957.2 327.2 957.1 327.2 957.1 327.2 957.1 327.3 957.1 327.3 957 327.3 957 327.3 956.9 327.4 956.9 327.4 956.9 327.5 956.9 327.5 956.8 327.5 956.8 327.5 956.8 327.6 956.8 327.6 956.7 327.6 956.7 327.6 956.6 327.7 956.6 327.7 956.6 327.8 956.6 327.8 956.5 327.8 956.5 327.8 956.5 327.9 956.5 327.9 956.4 327.9 956.4 327.9 956.4 328 956.4 328 956.3 328.1 956.3 328.1 956.2 328.1 956.2 328.1 956.2 328.2 956.2 328.2 956.1 328.2 956.1 328.2 956.1 328.3 956.1 328.3 956 328.3 956 328.3 955.9 328.4 955.9 328.4 955.9 328.5 955.9 328.5 955.8 328.5 955.8 328.5 955.8 328.6 955.8 328.6 955.7 328.6 955.7 328.6 955.6 328.7 955.6 328.7 955.6 328.8 955.6 328.8 955.5 328.8 955.5 328.8 955.5 328.9 955.5 328.9 955.4 328.9 955.4 328.9 955.3 329 955.3 329 955.3 329.1 955.3 329.1 955.2 329.1 955.2 329.1 955.2 329.2 955.2 329.2 955.1 329.2 955.1 329.2 955 329.3 955 329.3 955 329.3 955 329.3 954.9 329.4 954.9 329.4 954.9 329.5 954.9 329.5 954.8 329.5 954.8 329.5 954.8 329.6 954.8 329.6 954.7 329.6 954.7 329.6 954.6 329.7 954.6 329.7 916.5 323 916.5 322.9 916.5"/>
              <polygon class="st21" points="335.7 916.5 335.6 916.5 335.6 916.6 335.6 916.6 335.6 916.7 335.5 916.7 335.5 916.7 335.4 916.7 335.4 916.8 335.4 916.8 335.4 916.8 335.3 916.8 335.3 916.9 335.3 916.9 335.3 917 335.2 917 335.2 917 335.1 917 335.1 917.1 335.1 917.1 335.1 917.1 335 917.1 335 917.2 335 917.2 335 917.3 334.9 917.3 334.9 917.3 334.9 917.3 334.9 917.4 334.8 917.4 334.8 917.4 334.7 917.4 334.7 917.5 334.7 917.5 334.7 917.6 334.6 917.6 334.6 917.6 334.6 917.6 334.6 917.7 334.5 917.7 334.5 917.7 334.4 917.7 334.4 917.8 334.4 917.8 334.4 917.9 334.3 917.9 334.3 917.9 334.3 917.9 334.3 918 334.2 918 334.2 918 334.1 918 334.1 918.1 334.1 918.1 334.1 918.2 334 918.2 334 918.2 334 918.2 334 918.3 333.9 918.3 333.9 918.3 333.9 918.3 333.9 918.4 333.8 918.4 333.8 918.4 333.7 918.4 333.7 918.5 333.7 918.5 333.7 918.6 333.6 918.6 333.6 918.6 333.6 918.6 333.6 918.7 333.5 918.7 333.5 918.7 333.4 918.7 333.4 918.8 333.4 918.8 333.4 918.9 333.3 918.9 333.3 918.9 333.3 918.9 333.3 919 333.2 919 333.2 919 333.1 919 333.1 919.1 333.1 919.1 333.1 919.2 333 919.2 333 919.2 333 919.2 333 919.3 332.9 919.3 332.9 957.4 354.6 957.4 354.6 957.4 354.7 957.4 354.7 957.3 354.7 957.3 354.7 957.2 354.8 957.2 354.8 957.2 354.8 957.2 354.8 957.1 354.9 957.1 354.9 957.1 355 957.1 355 957 355 957 355 956.9 355.1 956.9 355.1 956.9 355.1 956.9 355.1 956.8 355.2 956.8 355.2 956.8 355.3 956.8 355.3 956.7 355.3 956.7 355.3 956.6 355.4 956.6 355.4 956.6 355.4 956.6 355.4 956.5 355.5 956.5 355.5 956.5 355.6 956.5 355.6 956.4 355.6 956.4 355.6 956.4 355.7 956.4 355.7 956.3 355.7 956.3 355.7 956.2 355.8 956.2 355.8 956.2 355.8 956.2 355.8 956.1 355.9 956.1 355.9 956.1 356 956.1 356 956 356 956 356 955.9 356.1 955.9 356.1 955.9 356.1 955.9 356.1 955.8 356.2 955.8 356.2 955.8 356.3 955.8 356.3 955.7 356.3 955.7 356.3 955.6 356.4 955.6 356.4 955.6 356.4 955.6 356.4 955.5 356.5 955.5 356.5 955.5 356.6 955.5 356.6 955.4 356.6 955.4 356.6 955.3 356.7 955.3 356.7 955.3 356.7 955.3 356.7 955.2 356.8 955.2 356.8 955.2 356.8 955.2 356.8 955.1 356.9 955.1 356.9 955 357 955 357 955 357 955 357 954.9 357.1 954.9 357.1 954.9 357.1 954.9 357.1 954.8 357.2 954.8 357.2 954.8 357.3 954.8 357.3 954.7 357.3 954.7 357.3 954.6 357.4 954.6 357.4 948.8 342.1 948.8 342.1 941.2 351.1 941.2 351.1 941.1 351.2 941.1 351.2 941.1 351.3 941.1 351.3 941 351.3 941 351.3 941 351.4 941 351.4 940.9 351.4 940.9 351.4 940.8 351.5 940.8 351.5 940.8 351.5 940.8 351.5 940.7 351.6 940.7 351.6 940.7 351.7 940.7 351.7 940.6 351.7 940.6 351.7 940.5 351.8 940.5 351.8 940.5 351.8 940.5 351.8 940.4 351.9 940.4 351.9 940.4 352 940.4 352 940.3 352 940.3 352 940.2 352.1 940.2 352.1 940.2 352.1 940.2 352.1 940.1 352.2 940.1 352.2 940.1 352.3 940.1 352.3 940 352.3 940 352.3 939.9 352.4 939.9 352.4 939.9 352.4 939.9 352.4 939.8 352.5 939.8 352.5 939.8 352.5 939.8 352.5 939.7 352.6 939.7 352.6 939.6 352.7 939.6 352.7 939.6 352.7 939.6 352.7 939.5 352.8 939.5 352.8 939.5 352.8 939.5 352.8 939.4 352.9 939.4 352.9 939.3 353 939.3 353 939.3 353 939.3 353 939.2 353.1 939.2 353.1 939.2 353.1 939.2 353.1 939.1 353.2 939.1 353.2 939.1 353.3 939.1 353.3 939 353.3 939 353.3 938.9 353.4 938.9 353.4 938.9 353.4 938.9 353.4 938.8 353.5 938.8 353.5 938.8 353.5 938.8 353.5 938.7 353.6 938.7 353.6 938.6 353.7 938.6 353.7 938.6 353.7 938.6 353.7 938.5 353.8 938.5 353.8 938.5 353.8 938.5 353.8 938.4 353.9 938.4 353.9 932.6 342.1 932.6 342.1 925.1 354.6 925.1 354.6 925 354.7 925 354.7 924.9 354.7 924.9 354.7 924.9 354.8 924.9 354.8 924.8 354.8 924.8 354.8 924.8 354.9 924.8 354.9 924.7 355 924.7 355 924.6 355 924.6 355 924.6 355.1 924.6 355.1 924.5 355.1 924.5 355.1 924.5 355.2 924.5 355.2 924.4 355.3 924.4 355.3 924.4 355.3 924.4 355.3 924.3 355.4 924.3 355.4 924.2 355.4 924.2 355.4 924.2 355.5 924.2 355.5 924.1 355.6 924.1 355.6 924.1 355.6 924.1 355.6 924 355.7 924 355.7 923.9 355.7 923.9 355.7 923.9 355.8 923.9 355.8 923.8 355.8 923.8 355.8 923.8 355.9 923.8 355.9 923.7 356 923.7 356 923.6 356 923.6 356 923.6 356.1 923.6 356.1 923.5 356.1 923.5 356.1 923.5 356.2 923.5 356.2 923.4 356.3 923.4 356.3 923.3 356.3 923.3 356.3 923.3 356.4 923.3 356.4 923.2 356.4 923.2 356.4 923.2 356.5 923.2 356.5 923.1 356.6 923.1 356.6 923 356.6 923 356.6 923 356.7 923 356.7 922.9 356.7 922.9 356.7 922.9 356.8 922.9 356.8 922.8 356.8 922.8 356.8 922.7 356.9 922.7 356.9 922.7 357 922.7 357 922.6 357 922.6 357 922.6 357.1 922.6 357.1 922.5 357.1 922.5 357.1 922.5 357.2 922.5 357.2 922.4 357.3 922.4 357.3 922.3 357.3 922.3 357.3 922.3 357.4 922.3 357.4 916.5 335.7 916.5 335.7 916.5"/>
              <path class="st21" d="M388.4,932.7c-5.8-1.5-8.7-3.4-8.5-5.8,0-.5.1-1,.3-1.4.1,0,.2-.1.3-.1,1.4-.5,3-.7,5-.7,2.8.1,4.9.9,6.5,2.4l4.7-3.9s0,0,0,0h0c0,0,0,0,0,0h0c0,0,0,0,0,0h0c0,0,0,0,0,0h0c0,0,0,0,0,0h0c0,0,0,0,0,0h0c0,0,0,0,0,0h0c0,0,0,0,0,0h0c0,0,0,0,0,0h0c0,0,0,0,0,0h0c0,0,0,0,0,0h0c0,0,0,0,0,0h0c0,0,0,0,0,0h0c0,0,0,0,0,0h0c0,0,0,0,0,0h0c0,0,0,0,0,0h0c0,0,0,0,0,0h0c0,0,0,0,0,0h0c0,0,0,0,0,0h0c0,0,0,0,0,0h0c0,0,0,0,0,0h0c0,0,0,0,0,0h0c0,0,0,0,0,0h0c0,0,0,0,0,0h0c0,0,0,0,0,0h0c0,0,0,0,0,0h0c0,0,0,0,0,0h0c0,0,0,0,0,0h0c0,0,0,0,0,0h0c0,0,0,0,0,0h0c0,0,0,0,0,0h0c0,0,0,0,0,0h0c0,0,0,0,0,0h0c0,0,0,0,0,0h0c0,0,0,0,0,0h0c0,0,0,0,0,0h0c0,0,0,0,0,0h0c0,0,0,0,0,0h0c0,0,0,0,0,0h0c0,0,0,0,0,0h0c0,0,0,0,0,0h0c0,0,0,0,0,0h0c0,0,0,0,0,0h0c0,0,0,0,0,0h0c0,0,0,0,0,0h0c0,0,0,0,0,0h0c0,0,0,0,0,0h0c-2.7-2.7-6.4-4.1-10.9-4.3-3.7-.2-6.9.5-9.6,1.9-.9.5-1.7,1.1-2.4,1.7,0,0,0,0,0,0,0,0,0,0,0,0,0,0,0,0,0,0,0,0,0,0,0,0,0,0,0,0,0,0,0,0,0,0,0,0,0,0,0,0,0,0,0,0,0,0,0,0,0,0,0,0,0,0,0,0,0,0,0,0,0,0,0,0,0,0,0,0,0,0,0,0,0,0,0,0,0,0,0,0,0,0,0,0,0,0,0,0,0,0,0,0,0,0,0,0,0,0,0,0,0,0,0,0,0,0,0,0,0,0,0,0,0,0,0,0,0,0,0,0,0,0,0,0,0,0,0,0,0,0,0,0,0,0,0,0,0,0,0,0,0,0,0,0,0,0,0,0,0,0,0,0,0,0,0,0,0,0,0,0,0,0,0,0,0,0,0,0,0,0,0,0,0,0,0,0,0,0,0,0,0,0,0,0,0,0,0,0,0,0,0,0,0,0,0,0,0,0,0,0,0,0,0,0,0,0,0,0,0,0,0,0,0,0,0,0,0,0,0,0,0,0,0,0,0,0,0,0,0,0,0,0,0,0,0,0,0,0,0,0,0,0,0,0,0,0,0,0,0,0,0,0,0,0,0,0,0,0,0,0,0,0,0,0,0,0,0,0,0,0-2,1.8-3.1,4.1-3.2,7-.3,5.5,4.1,9.4,13.2,11.6,5.8,1.5,8.7,3.4,8.5,5.8,0,.4-.1.8-.3,1.2-1.5.8-3.2,1.2-5.3,1.1-1.6,0-3.1-.4-4.5-1-1.5-.7-2.6-1.7-3.1-2.9l-6.1,2s0,0,0,0h0s0,0,0,0h0s0,0,0,0h0s0,0,0,0h0s0,0,0,0h0s0,0,0,0h0s0,0,0,0h0s0,0,0,0h0s0,0,0,0h0s0,0,0,0h0s0,0,0,0h0s0,0,0,0h0s0,0,0,0h0s0,0,0,0h0s0,0,0,0h0s0,0,0,0h0s0,0,0,0h0s0,0,0,0h0s0,0,0,0h0s0,0,0,0h0s0,0,0,0h0s0,0,0,0h0s0,0,0,0h0s0,0,0,0h0s0,0,0,0h0s0,0,0,0h0s0,0,0,0h0s0,0,0,0h0s0,0,0,0h0s0,0,0,0h0s0,0,0,0h0s0,0,0,0h0s0,0,0,0h0s0,0,0,0h0s0,0,0,0h0s0,0,0,0h0s0,0,0,0h0s0,0,0,0h0s0,0,0,0h0s0,0,0,0h0s0,0,0,0h0s0,0,0,0h0s0,0,0,0h0s0,0,0,0h0s0,0,0,0h0s0,0,0,0h0s0,0,0,0h0c1,2.4,2.8,4.3,5.5,5.7,2.4,1.2,5,1.9,7.8,2,.3,0,.5,0,.8,0,3.8,0,7-1,9.7-2.9.4-.3.7-.6,1.1-.9.3-.3.6-.6.9-.9,0,0,0,0,0,0,0,0,0,0,0,0,0,0,0,0,0,0,0,0,0,0,0,0,0,0,0,0,0,0,0,0,0,0,0,0,0,0,0,0,0,0,0,0,0,0,0,0,0,0,0,0,0,0,0,0,0,0,0,0,0,0,0,0,0,0,0,0,0,0,0,0,0,0,0,0,0,0,0,0,0,0,0,0,0,0,0,0,0,0,0,0,0,0,0,0,0,0,0,0,0,0,0,0,0,0,0,0,0,0,0,0,0,0,0,0,0,0,0,0,0,0,0,0,0,0,0,0,0,0,0,0,0,0,0,0,0,0,0,0,0,0,0,0,0,0,0,0,0,0,0,0,0,0,0,0,0,0,0,0,0,0,0,0,0,0,0,0,0,0,0,0,0,0,0,0,0,0,0,0,0,0,0,0,0,0,0,0,0,0,0,0,0,0,0,0,0,0,0,0,0,0,0,0,0,0,0,0,0,0,0,0,0,0,0,0,0,0,0,0,0,0,0,0,0,0,0,0,0,0,0,0,0,0,0,0,0,0,0,0,0,0,0,0,0,0,0,0,0,0,0,0,0,0,0,0,0,0,0,0,0,0,0,0,0,0,0,0,0,0,1.7-1.7,2.6-3.8,2.7-6,0-2.1-.6-4.1-2.1-5.9-2.2-2.6-5.9-4.5-11.1-5.8Z"/>
              <polygon class="st21" points="427.5 916.5 427.5 916.5 427.5 916.5 427.4 916.6 427.4 916.6 427.4 916.7 427.4 916.7 427.3 916.7 427.3 916.7 427.3 916.8 427.2 916.8 427.2 916.8 427.2 916.8 427.1 916.9 427.1 916.9 427.1 917 427.1 917 427 917 427 917 427 917.1 426.9 917.1 426.9 917.1 426.9 917.1 426.8 917.2 426.8 917.2 426.8 917.3 426.8 917.3 426.7 917.3 426.7 917.3 426.7 917.4 426.7 917.4 426.6 917.4 426.6 917.4 426.6 917.5 426.5 917.5 426.5 917.6 426.5 917.6 426.4 917.6 426.4 917.6 426.4 917.7 426.4 917.7 426.3 917.7 426.3 917.7 426.3 917.8 426.2 917.8 426.2 917.9 426.2 917.9 426.1 917.9 426.1 917.9 426.1 918 426.1 918 426 918 426 918 426 918.1 425.9 918.1 425.9 918.2 425.9 918.2 425.8 918.2 425.8 918.2 425.8 918.3 425.8 918.3 425.7 918.3 425.7 918.3 425.7 918.4 425.7 918.4 425.6 918.4 425.6 918.4 425.6 918.5 425.5 918.5 425.5 918.6 425.5 918.6 425.4 918.6 425.4 918.6 425.4 918.7 425.4 918.7 425.3 918.7 425.3 918.7 425.3 918.8 425.2 918.8 425.2 918.9 425.2 918.9 425.1 918.9 425.1 918.9 425.1 919 425.1 919 425 919 425 919 425 919.1 424.9 919.1 424.9 919.2 424.9 919.2 424.8 919.2 424.8 919.2 424.8 919.3 424.8 919.3 418.1 929.5 409.5 916.5 402 916.5 402.1 916.5 402 916.5 402 916.6 401.9 916.6 402 916.7 401.9 916.7 401.9 916.7 401.8 916.7 401.8 916.8 401.7 916.8 401.8 916.8 401.7 916.8 401.7 916.9 401.6 916.9 401.7 917 401.6 917 401.6 917 401.5 917 401.5 917.1 401.4 917.1 401.5 917.1 401.4 917.1 401.4 917.2 401.3 917.2 401.4 917.3 401.3 917.3 401.3 917.3 401.2 917.3 401.2 917.4 401.1 917.4 401.2 917.4 401.1 917.4 401.1 917.5 401 917.5 401.1 917.6 401 917.6 401 917.6 400.9 917.6 401 917.7 400.9 917.7 400.9 917.7 400.8 917.7 400.8 917.8 400.7 917.8 400.8 917.9 400.7 917.9 400.7 917.9 400.6 917.9 400.7 918 400.6 918 400.6 918 400.5 918 400.5 918.1 400.4 918.1 400.5 918.2 400.4 918.2 400.4 918.2 400.3 918.2 400.4 918.3 400.3 918.3 400.3 918.3 400.2 918.3 400.2 918.4 400.1 918.4 400.2 918.4 400.1 918.4 400.1 918.5 400 918.5 400.1 918.6 400 918.6 400 918.6 399.9 918.6 399.9 918.7 399.9 918.7 399.9 918.7 399.8 918.7 399.8 918.8 399.7 918.8 399.8 918.9 399.7 918.9 399.7 918.9 399.6 918.9 399.7 919 399.6 919 399.6 919 399.5 919 399.5 919.1 399.4 919.1 399.5 919.2 399.4 919.2 399.4 919.2 399.3 919.2 399.4 919.3 399.3 919.3 412.5 939.5 412.5 957.4 419 957.4 419 957.4 419.1 957.4 419.1 957.3 419.1 957.3 419.1 957.2 419.2 957.2 419.2 957.2 419.2 957.2 419.2 957.1 419.3 957.1 419.3 957.1 419.4 957.1 419.4 957 419.4 957 419.4 956.9 419.5 956.9 419.5 956.9 419.5 956.9 419.5 956.8 419.6 956.8 419.6 956.8 419.6 956.8 419.6 956.7 419.7 956.7 419.7 956.6 419.8 956.6 419.8 956.6 419.8 956.6 419.8 956.5 419.9 956.5 419.9 956.5 419.9 956.5 419.9 956.4 420 956.4 420 956.4 420.1 956.4 420.1 956.3 420.1 956.3 420.1 956.2 420.2 956.2 420.2 956.2 420.2 956.2 420.2 956.1 420.3 956.1 420.3 956.1 420.4 956.1 420.4 956 420.4 956 420.4 955.9 420.5 955.9 420.5 955.9 420.5 955.9 420.5 955.8 420.6 955.8 420.6 955.8 420.6 955.8 420.6 955.7 420.7 955.7 420.7 955.6 420.8 955.6 420.8 955.6 420.8 955.6 420.8 955.5 420.9 955.5 420.9 955.5 420.9 955.5 420.9 955.4 421 955.4 421 955.3 421.1 955.3 421.1 955.3 421.1 955.3 421.1 955.2 421.2 955.2 421.2 955.2 421.2 955.2 421.2 955.1 421.3 955.1 421.3 955 421.4 955 421.4 955 421.4 955 421.4 954.9 421.5 954.9 421.5 954.9 421.5 954.9 421.5 954.8 421.6 954.8 421.6 954.8 421.7 954.8 421.7 954.7 421.7 954.7 421.7 954.6 421.8 954.6 421.8 936.7 435 916.5 427.5 916.5"/>
              <path class="st21" d="M450.5,932.7c-5.8-1.5-8.7-3.4-8.5-5.8,0-.5.1-1,.3-1.4.1,0,.2-.1.3-.1,1.4-.5,3-.7,5-.7,2.8.1,4.9.9,6.5,2.4l4.7-3.9s0,0,0,0h0c0,0,0,0,0,0h0c0,0,0,0,0,0h0c0,0,0,0,0,0h0c0,0,0,0,0,0h0c0,0,0,0,0,0h0c0,0,0,0,0,0h0c0,0,0,0,0,0h0c0,0,0,0,0,0h0c0,0,0,0,0,0h0c0,0,0,0,0,0h0c0,0,0,0,0,0h0c0,0,0,0,0,0h0c0,0,0,0,0,0h0c0,0,0,0,0,0h0c0,0,0,0,0,0h0c0,0,0,0,0,0h0c0,0,0,0,0,0h0c0,0,0,0,0,0h0c0,0,0,0,0,0h0c0,0,0,0,0,0h0c0,0,0,0,0,0h0c0,0,0,0,0,0h0c0,0,0,0,0,0h0c0,0,0,0,0,0h0c0,0,0,0,0,0h0c0,0,0,0,0,0h0c0,0,0,0,0,0h0c0,0,0,0,0,0h0c0,0,0,0,0,0h0c0,0,0,0,0,0h0c0,0,0,0,0,0h0c0,0,0,0,0,0h0c0,0,0,0,0,0h0c0,0,0,0,0,0h0c0,0,0,0,0,0h0c0,0,0,0,0,0h0c0,0,0,0,0,0h0c0,0,0,0,0,0h0c0,0,0,0,0,0h0c0,0,0,0,0,0h0c0,0,0,0,0,0h0c0,0,0,0,0,0h0c0,0,0,0,0,0h0c0,0,0,0,0,0h0c0,0,0,0,0,0h0c0,0,0,0,0,0h0c-2.7-2.7-6.4-4.1-10.9-4.3-3.7-.2-6.9.5-9.6,1.9-.9.5-1.7,1.1-2.4,1.7,0,0,0,0,0,0,0,0,0,0,0,0,0,0,0,0,0,0,0,0,0,0,0,0,0,0,0,0,0,0,0,0,0,0,0,0,0,0,0,0,0,0,0,0,0,0,0,0,0,0,0,0,0,0,0,0,0,0,0,0,0,0,0,0,0,0,0,0,0,0,0,0,0,0,0,0,0,0,0,0,0,0,0,0,0,0,0,0,0,0,0,0,0,0,0,0,0,0,0,0,0,0,0,0,0,0,0,0,0,0,0,0,0,0,0,0,0,0,0,0,0,0,0,0,0,0,0,0,0,0,0,0,0,0,0,0,0,0,0,0,0,0,0,0,0,0,0,0,0,0,0,0,0,0,0,0,0,0,0,0,0,0,0,0,0,0,0,0,0,0,0,0,0,0,0,0,0,0,0,0,0,0,0,0,0,0,0,0,0,0,0,0,0,0,0,0,0,0,0,0,0,0,0,0,0,0,0,0,0,0,0,0,0,0,0,0,0,0,0,0,0,0,0,0,0,0,0,0,0,0,0,0,0,0,0,0,0,0,0,0,0,0,0,0,0,0,0,0,0,0,0,0,0,0,0,0,0,0,0,0,0,0,0,0,0,0,0,0,0,0-2,1.8-3.1,4.1-3.2,7-.3,5.5,4.1,9.4,13.2,11.6,5.8,1.5,8.7,3.4,8.5,5.8,0,.4-.1.8-.3,1.2-1.5.8-3.2,1.2-5.3,1.1-1.6,0-3.1-.4-4.5-1-1.5-.7-2.6-1.7-3.1-2.9l-6.1,2s0,0,0,0h0s0,0,0,0h0s0,0,0,0h0s0,0,0,0h0s0,0,0,0h0s0,0,0,0h0s0,0,0,0h0s0,0,0,0h0s0,0,0,0h0s0,0,0,0h0s0,0,0,0h0s0,0,0,0h0s0,0,0,0h0s0,0,0,0h0s0,0,0,0h0s0,0,0,0h0s0,0,0,0h0s0,0,0,0h0s0,0,0,0h0s0,0,0,0h0s0,0,0,0h0s0,0,0,0h0s0,0,0,0h0s0,0,0,0h0s0,0,0,0h0s0,0,0,0h0s0,0,0,0h0s0,0,0,0h0s0,0,0,0h0s0,0,0,0h0s0,0,0,0h0s0,0,0,0h0s0,0,0,0h0s0,0,0,0h0s0,0,0,0h0s0,0,0,0h0s0,0,0,0h0s0,0,0,0h0s0,0,0,0h0s0,0,0,0h0s0,0,0,0h0s0,0,0,0h0s0,0,0,0h0s0,0,0,0h0s0,0,0,0h0s0,0,0,0h0s0,0,0,0h0c1,2.4,2.8,4.3,5.5,5.7,2.4,1.2,5,1.9,7.8,2,.3,0,.5,0,.8,0,3.8,0,7-1,9.7-2.9.4-.3.7-.6,1.1-.9.3-.3.6-.6.9-.9,0,0,0,0,0,0,0,0,0,0,0,0,0,0,0,0,0,0,0,0,0,0,0,0,0,0,0,0,0,0,0,0,0,0,0,0,0,0,0,0,0,0,0,0,0,0,0,0,0,0,0,0,0,0,0,0,0,0,0,0,0,0,0,0,0,0,0,0,0,0,0,0,0,0,0,0,0,0,0,0,0,0,0,0,0,0,0,0,0,0,0,0,0,0,0,0,0,0,0,0,0,0,0,0,0,0,0,0,0,0,0,0,0,0,0,0,0,0,0,0,0,0,0,0,0,0,0,0,0,0,0,0,0,0,0,0,0,0,0,0,0,0,0,0,0,0,0,0,0,0,0,0,0,0,0,0,0,0,0,0,0,0,0,0,0,0,0,0,0,0,0,0,0,0,0,0,0,0,0,0,0,0,0,0,0,0,0,0,0,0,0,0,0,0,0,0,0,0,0,0,0,0,0,0,0,0,0,0,0,0,0,0,0,0,0,0,0,0,0,0,0,0,0,0,0,0,0,0,0,0,0,0,0,0,0,0,0,0,0,0,0,0,0,0,0,0,0,0,0,0,0,0,0,0,0,0,0,0,0,0,0,0,0,0,0,0,0,0,0,0,1.7-1.7,2.6-3.8,2.7-6,0-2.1-.6-4.1-2.1-5.9-2.2-2.6-5.9-4.5-11.1-5.8Z"/>
              <polygon class="st21" points="466.2 916.5 466.1 916.5 466.1 916.6 466.1 916.6 466.1 916.7 466 916.7 466 916.7 465.9 916.7 465.9 916.8 465.9 916.8 465.9 916.8 465.8 916.8 465.8 916.9 465.8 916.9 465.8 917 465.7 917 465.7 917 465.7 917 465.7 917.1 465.6 917.1 465.6 917.1 465.5 917.1 465.5 917.2 465.5 917.2 465.5 917.3 465.4 917.3 465.4 917.3 465.4 917.3 465.4 917.4 465.3 917.4 465.3 917.4 465.2 917.4 465.2 917.5 465.2 917.5 465.2 917.6 465.1 917.6 465.1 917.6 465.1 917.6 465.1 917.7 465 917.7 465 917.7 464.9 917.7 464.9 917.8 464.9 917.8 464.9 917.9 464.8 917.9 464.8 917.9 464.8 917.9 464.8 918 464.7 918 464.7 918 464.6 918 464.6 918.1 464.6 918.1 464.6 918.2 464.5 918.2 464.5 918.2 464.5 918.2 464.5 918.3 464.4 918.3 464.4 918.3 464.4 918.3 464.4 918.4 464.3 918.4 464.3 918.4 464.2 918.4 464.2 918.5 464.2 918.5 464.2 918.6 464.1 918.6 464.1 918.6 464.1 918.6 464.1 918.7 464 918.7 464 918.7 463.9 918.7 463.9 918.8 463.9 918.8 463.9 918.9 463.8 918.9 463.8 918.9 463.8 918.9 463.8 919 463.7 919 463.7 919 463.6 919 463.6 919.1 463.6 919.1 463.6 919.2 463.5 919.2 463.5 919.2 463.5 919.2 463.5 919.3 463.4 919.3 463.4 925.1 472.4 925.1 472.4 957.4 478.9 957.4 478.9 957.4 479 957.4 479 957.3 479 957.3 479 957.2 479.1 957.2 479.1 957.2 479.1 957.2 479.1 957.1 479.2 957.1 479.2 957.1 479.3 957.1 479.3 957 479.3 957 479.3 956.9 479.4 956.9 479.4 956.9 479.4 956.9 479.4 956.8 479.5 956.8 479.5 956.8 479.5 956.8 479.5 956.7 479.6 956.7 479.6 956.6 479.7 956.6 479.7 956.6 479.7 956.6 479.7 956.5 479.8 956.5 479.8 956.5 479.8 956.5 479.8 956.4 479.9 956.4 479.9 956.4 480 956.4 480 956.3 480 956.3 480 956.2 480.1 956.2 480.1 956.2 480.1 956.2 480.1 956.1 480.2 956.1 480.2 956.1 480.3 956.1 480.3 956 480.3 956 480.3 955.9 480.4 955.9 480.4 955.9 480.4 955.9 480.4 955.8 480.5 955.8 480.5 955.8 480.5 955.8 480.5 955.7 480.6 955.7 480.6 955.6 480.7 955.6 480.7 955.6 480.7 955.6 480.7 955.5 480.8 955.5 480.8 955.5 480.8 955.5 480.8 955.4 480.9 955.4 480.9 955.3 481 955.3 481 955.3 481 955.3 481 955.2 481.1 955.2 481.1 955.2 481.1 955.2 481.1 955.1 481.2 955.1 481.2 955 481.3 955 481.3 955 481.3 955 481.3 954.9 481.4 954.9 481.4 954.9 481.4 954.9 481.4 954.8 481.5 954.8 481.5 954.8 481.6 954.8 481.6 954.7 481.6 954.7 481.6 954.6 481.7 954.6 481.7 925.1 487.9 925.1 487.9 925 488 925 488 924.9 488 924.9 488 924.9 488.1 924.9 488.1 924.8 488.1 924.8 488.1 924.8 488.2 924.8 488.2 924.7 488.3 924.7 488.3 924.6 488.3 924.6 488.3 924.6 488.4 924.6 488.4 924.5 488.4 924.5 488.4 924.5 488.5 924.5 488.5 924.4 488.6 924.4 488.6 924.4 488.6 924.4 488.6 924.3 488.7 924.3 488.7 924.2 488.7 924.2 488.7 924.2 488.8 924.2 488.8 924.1 488.8 924.1 488.8 924.1 488.9 924.1 488.9 924 489 924 489 923.9 489 923.9 489 923.9 489.1 923.9 489.1 923.8 489.1 923.8 489.1 923.8 489.2 923.8 489.2 923.7 489.3 923.7 489.3 923.6 489.3 923.6 489.3 923.6 489.4 923.6 489.4 923.5 489.4 923.5 489.4 923.5 489.5 923.5 489.5 923.4 489.6 923.4 489.6 923.3 489.6 923.3 489.6 923.3 489.7 923.3 489.7 923.2 489.7 923.2 489.7 923.2 489.8 923.2 489.8 923.1 489.9 923.1 489.9 923 489.9 923 489.9 923 490 923 490 922.9 490 922.9 490 922.9 490.1 922.9 490.1 922.8 490.1 922.8 490.1 922.7 490.2 922.7 490.2 922.7 490.3 922.7 490.3 922.6 490.3 922.6 490.3 922.6 490.4 922.6 490.4 922.5 490.4 922.5 490.4 922.5 490.5 922.5 490.5 922.4 490.6 922.4 490.6 922.3 490.6 922.3 490.6 922.3 490.7 922.3 490.7 916.5 466.2 916.5 466.2 916.5"/>
              <polygon class="st21" points="495.3 916.5 495.2 916.5 495.2 916.6 495.1 916.6 495.1 916.7 495.1 916.7 495.1 916.7 495 916.7 495 916.8 495 916.8 495 916.8 494.9 916.8 494.9 916.9 494.8 916.9 494.8 917 494.8 917 494.8 917 494.7 917 494.7 917.1 494.7 917.1 494.7 917.1 494.6 917.1 494.6 917.2 494.5 917.2 494.5 917.3 494.5 917.3 494.5 917.3 494.4 917.3 494.4 917.4 494.4 917.4 494.4 917.4 494.3 917.4 494.3 917.5 494.3 917.5 494.3 917.6 494.2 917.6 494.2 917.6 494.1 917.6 494.1 917.7 494.1 917.7 494.1 917.7 494 917.7 494 917.8 494 917.8 494 917.9 493.9 917.9 493.9 917.9 493.8 917.9 493.8 918 493.8 918 493.8 918 493.7 918 493.7 918.1 493.7 918.1 493.7 918.2 493.6 918.2 493.6 918.2 493.5 918.2 493.5 918.3 493.5 918.3 493.5 918.3 493.4 918.3 493.4 918.4 493.4 918.4 493.4 918.4 493.3 918.4 493.3 918.5 493.3 918.5 493.3 918.6 493.2 918.6 493.2 918.6 493.1 918.6 493.1 918.7 493.1 918.7 493.1 918.7 493 918.7 493 918.8 493 918.8 493 918.9 492.9 918.9 492.9 918.9 492.8 918.9 492.8 919 492.8 919 492.8 919 492.7 919 492.7 919.1 492.7 919.1 492.7 919.2 492.6 919.2 492.6 919.2 492.5 919.2 492.5 919.3 492.5 919.3 492.5 957.4 514.2 957.4 514.2 957.4 514.2 957.4 514.2 957.3 514.3 957.3 514.3 957.2 514.4 957.2 514.4 957.2 514.4 957.2 514.4 957.1 514.5 957.1 514.5 957.1 514.5 957.1 514.5 957 514.6 957 514.6 956.9 514.7 956.9 514.7 956.9 514.7 956.9 514.7 956.8 514.8 956.8 514.8 956.8 514.8 956.8 514.8 956.7 514.9 956.7 514.9 956.6 515 956.6 515 956.6 515 956.6 515 956.5 515.1 956.5 515.1 956.5 515.1 956.5 515.1 956.4 515.2 956.4 515.2 956.4 515.2 956.4 515.2 956.3 515.3 956.3 515.3 956.2 515.4 956.2 515.4 956.2 515.4 956.2 515.4 956.1 515.5 956.1 515.5 956.1 515.5 956.1 515.5 956 515.6 956 515.6 955.9 515.7 955.9 515.7 955.9 515.7 955.9 515.7 955.8 515.8 955.8 515.8 955.8 515.8 955.8 515.8 955.7 515.9 955.7 515.9 955.6 516 955.6 516 955.6 516 955.6 516 955.5 516.1 955.5 516.1 955.5 516.1 955.5 516.1 955.4 516.2 955.4 516.2 955.3 516.2 955.3 516.2 955.3 516.3 955.3 516.3 955.2 516.4 955.2 516.4 955.2 516.4 955.2 516.4 955.1 516.5 955.1 516.5 955 516.5 955 516.5 955 516.6 955 516.6 954.9 516.7 954.9 516.7 954.9 516.7 954.9 516.7 954.8 516.8 954.8 516.8 954.8 516.8 954.8 516.8 954.7 516.9 954.7 516.9 954.6 517 954.6 517 948.8 501.7 948.8 501.7 941.2 510.7 941.2 510.7 941.1 510.8 941.1 510.8 941.1 510.8 941.1 510.8 941 510.9 941 510.9 941 510.9 941 510.9 940.9 511 940.9 511 940.8 511.1 940.8 511.1 940.8 511.1 940.8 511.1 940.7 511.2 940.7 511.2 940.7 511.2 940.7 511.2 940.6 511.3 940.6 511.3 940.5 511.4 940.5 511.4 940.5 511.4 940.5 511.4 940.4 511.5 940.4 511.5 940.4 511.5 940.4 511.5 940.3 511.6 940.3 511.6 940.2 511.7 940.2 511.7 940.2 511.7 940.2 511.7 940.1 511.8 940.1 511.8 940.1 511.8 940.1 511.8 940 511.9 940 511.9 939.9 511.9 939.9 511.9 939.9 512 939.9 512 939.8 512.1 939.8 512.1 939.8 512.1 939.8 512.1 939.7 512.2 939.7 512.2 939.6 512.2 939.6 512.2 939.6 512.3 939.6 512.3 939.5 512.4 939.5 512.4 939.5 512.4 939.5 512.4 939.4 512.5 939.4 512.5 939.3 512.5 939.3 512.5 939.3 512.6 939.3 512.6 939.2 512.7 939.2 512.7 939.2 512.7 939.2 512.7 939.1 512.8 939.1 512.8 939.1 512.8 939.1 512.8 939 512.9 939 512.9 938.9 512.9 938.9 512.9 938.9 513 938.9 513 938.8 513.1 938.8 513.1 938.8 513.1 938.8 513.1 938.7 513.2 938.7 513.2 938.6 513.2 938.6 513.2 938.6 513.3 938.6 513.3 938.5 513.4 938.5 513.4 938.5 513.4 938.5 513.4 938.4 513.5 938.4 513.5 932.6 501.7 932.6 501.7 925.1 514.2 925.1 514.2 925 514.2 925 514.2 924.9 514.3 924.9 514.3 924.9 514.4 924.9 514.4 924.8 514.4 924.8 514.4 924.8 514.5 924.8 514.5 924.7 514.5 924.7 514.5 924.6 514.6 924.6 514.6 924.6 514.7 924.6 514.7 924.5 514.7 924.5 514.7 924.5 514.8 924.5 514.8 924.4 514.8 924.4 514.8 924.4 514.9 924.4 514.9 924.3 515 924.3 515 924.2 515 924.2 515 924.2 515.1 924.2 515.1 924.1 515.1 924.1 515.1 924.1 515.2 924.1 515.2 924 515.2 924 515.2 923.9 515.3 923.9 515.3 923.9 515.4 923.9 515.4 923.8 515.4 923.8 515.4 923.8 515.5 923.8 515.5 923.7 515.5 923.7 515.5 923.6 515.6 923.6 515.6 923.6 515.7 923.6 515.7 923.5 515.7 923.5 515.7 923.5 515.8 923.5 515.8 923.4 515.8 923.4 515.8 923.3 515.9 923.3 515.9 923.3 516 923.3 516 923.2 516 923.2 516 923.2 516.1 923.2 516.1 923.1 516.1 923.1 516.1 923 516.2 923 516.2 923 516.2 923 516.2 922.9 516.3 922.9 516.3 922.9 516.4 922.9 516.4 922.8 516.4 922.8 516.4 922.7 516.5 922.7 516.5 922.7 516.5 922.7 516.5 922.6 516.6 922.6 516.6 922.6 516.7 922.6 516.7 922.5 516.7 922.5 516.7 922.5 516.8 922.5 516.8 922.4 516.8 922.4 516.8 922.3 516.9 922.3 516.9 922.3 517 922.3 517 916.5 495.3 916.5 495.3 916.5"/>
              <polygon class="st21" points="564.9 916.5 558.2 916.5 558.2 916.5 558.1 916.5 558.1 916.6 558.1 916.6 558 916.7 558 916.7 558 916.7 557.9 916.7 557.9 916.8 557.9 916.8 557.9 916.8 557.8 916.8 557.8 916.9 557.8 916.9 557.7 917 557.7 917 557.7 917 557.7 917 557.6 917.1 557.6 917.1 557.6 917.1 557.5 917.1 557.5 917.2 557.5 917.2 557.4 917.3 557.4 917.3 557.4 917.3 557.4 917.3 557.3 917.4 557.3 917.4 557.3 917.4 557.2 917.4 557.2 917.5 557.2 917.5 557.2 917.6 557.1 917.6 557.1 917.6 557.1 917.6 557 917.7 557 917.7 557 917.7 556.9 917.7 556.9 917.8 556.9 917.8 556.9 917.9 556.8 917.9 556.8 917.9 556.8 917.9 556.7 918 556.7 918 556.7 918 556.7 918 556.6 918.1 556.6 918.1 556.6 918.2 556.5 918.2 556.5 918.2 556.5 918.2 556.4 918.3 556.4 918.3 556.4 918.3 556.4 918.3 556.3 918.4 556.3 918.4 556.3 918.4 556.2 918.4 556.2 918.5 556.2 918.5 556.2 918.6 556.1 918.6 556.1 918.6 556.1 918.6 556 918.7 556 918.7 556 918.7 555.9 918.7 555.9 918.8 555.9 918.8 555.9 918.9 555.8 918.9 555.8 918.9 555.8 918.9 555.7 919 555.7 919 555.7 919 555.7 919 555.6 919.1 555.6 919.1 555.6 919.2 555.5 919.2 555.5 919.2 555.5 919.2 555.4 919.3 555.4 919.3 542.3 946.2 528 916.5 521.3 916.5 521.3 916.5 521.2 916.5 521.2 916.6 521.2 916.6 521.2 916.7 521.1 916.7 521.1 916.7 521.1 916.7 521.1 916.8 521 916.8 521 916.8 520.9 916.8 520.9 916.9 520.9 916.9 520.9 917 520.8 917 520.8 917 520.8 917 520.8 917.1 520.7 917.1 520.7 917.1 520.6 917.1 520.6 917.2 520.6 917.2 520.6 917.3 520.5 917.3 520.5 917.3 520.5 917.3 520.5 917.4 520.4 917.4 520.4 917.4 520.4 917.4 520.4 917.5 520.3 917.5 520.3 917.6 520.2 917.6 520.2 917.6 520.2 917.6 520.2 917.7 520.1 917.7 520.1 917.7 520.1 917.7 520.1 917.8 520 917.8 520 917.9 519.9 917.9 519.9 917.9 519.9 917.9 519.9 918 519.8 918 519.8 918 519.8 918 519.8 918.1 519.7 918.1 519.7 918.2 519.6 918.2 519.6 918.2 519.6 918.2 519.6 918.3 519.5 918.3 519.5 918.3 519.5 918.3 519.5 918.4 519.4 918.4 519.4 918.4 519.4 918.4 519.4 918.5 519.3 918.5 519.3 918.6 519.2 918.6 519.2 918.6 519.2 918.6 519.2 918.7 519.1 918.7 519.1 918.7 519.1 918.7 519.1 918.8 519 918.8 519 918.9 518.9 918.9 518.9 918.9 518.9 918.9 518.9 919 518.8 919 518.8 919 518.8 919 518.8 919.1 518.7 919.1 518.7 919.2 518.6 919.2 518.6 919.2 518.6 919.2 518.6 919.3 518.5 919.3 518.5 957.4 525 957.4 525 957.4 525 957.4 525 957.3 525.1 957.3 525.1 957.2 525.2 957.2 525.2 957.2 525.2 957.2 525.2 957.1 525.3 957.1 525.3 957.1 525.3 957.1 525.3 957 525.4 957 525.4 956.9 525.4 956.9 525.4 956.9 525.5 956.9 525.5 956.8 525.6 956.8 525.6 956.8 525.6 956.8 525.6 956.7 525.7 956.7 525.7 956.6 525.7 956.6 525.7 956.6 525.8 956.6 525.8 956.5 525.9 956.5 525.9 956.5 525.9 956.5 525.9 956.4 526 956.4 526 956.4 526 956.4 526 956.3 526.1 956.3 526.1 956.2 526.2 956.2 526.2 956.2 526.2 956.2 526.2 956.1 526.3 956.1 526.3 956.1 526.3 956.1 526.3 956 526.4 956 526.4 955.9 526.5 955.9 526.5 955.9 526.5 955.9 526.5 955.8 526.6 955.8 526.6 955.8 526.6 955.8 526.6 955.7 526.7 955.7 526.7 955.6 526.7 955.6 526.7 955.6 526.8 955.6 526.8 955.5 526.9 955.5 526.9 955.5 526.9 955.5 526.9 955.4 527 955.4 527 955.3 527 955.3 527 955.3 527.1 955.3 527.1 955.2 527.2 955.2 527.2 955.2 527.2 955.2 527.2 955.1 527.3 955.1 527.3 955 527.3 955 527.3 955 527.4 955 527.4 954.9 527.5 954.9 527.5 954.9 527.5 954.9 527.5 954.8 527.6 954.8 527.6 954.8 527.6 954.8 527.6 954.7 527.7 954.7 527.7 954.6 527.7 954.6 527.7 939.1 536.6 957.4 543.9 957.4 543.9 957.4 543.9 957.4 544 957.3 544 957.3 544 957.2 544.1 957.2 544.1 957.2 544.1 957.2 544.1 957.1 544.2 957.1 544.2 957.1 544.2 957.1 544.3 957 544.3 957 544.3 956.9 544.4 956.9 544.4 956.9 544.4 956.9 544.4 956.8 544.5 956.8 544.5 956.8 544.5 956.8 544.6 956.7 544.6 956.7 544.6 956.6 544.6 956.6 544.7 956.6 544.7 956.6 544.7 956.5 544.8 956.5 544.8 956.5 544.8 956.5 544.9 956.4 544.9 956.4 544.9 956.4 544.9 956.4 545 956.3 545 956.3 545 956.2 545.1 956.2 545.1 956.2 545.1 956.2 545.1 956.1 545.2 956.1 545.2 956.1 545.2 956.1 545.3 956 545.3 956 545.3 955.9 545.4 955.9 545.4 955.9 545.4 955.9 545.4 955.8 545.5 955.8 545.5 955.8 545.5 955.8 545.6 955.7 545.6 955.7 545.6 955.6 545.7 955.6 545.7 955.6 545.7 955.6 545.7 955.5 545.8 955.5 545.8 955.5 545.8 955.5 545.9 955.4 545.9 955.4 545.9 955.3 545.9 955.3 546 955.3 546 955.3 546 955.2 546.1 955.2 546.1 955.2 546.1 955.2 546.2 955.1 546.2 955.1 546.2 955 546.2 955 546.3 955 546.3 955 546.3 954.9 546.4 954.9 546.4 954.9 546.4 954.9 546.4 954.8 546.5 954.8 546.5 954.8 546.5 954.8 546.6 954.7 546.6 954.7 546.6 954.6 546.7 954.6 555.7 936.1 555.7 957.4 562.2 957.4 562.2 957.4 562.2 957.4 562.2 957.3 562.3 957.3 562.3 957.2 562.3 957.2 562.3 957.2 562.4 957.2 562.4 957.1 562.5 957.1 562.5 957.1 562.5 957.1 562.5 957 562.6 957 562.6 956.9 562.6 956.9 562.6 956.9 562.7 956.9 562.7 956.8 562.8 956.8 562.8 956.8 562.8 956.8 562.8 956.7 562.9 956.7 562.9 956.6 562.9 956.6 562.9 956.6 563 956.6 563 956.5 563 956.5 563 956.5 563.1 956.5 563.1 956.4 563.2 956.4 563.2 956.4 563.2 956.4 563.2 956.3 563.3 956.3 563.3 956.2 563.3 956.2 563.3 956.2 563.4 956.2 563.4 956.1 563.5 956.1 563.5 956.1 563.5 956.1 563.5 956 563.6 956 563.6 955.9 563.6 955.9 563.6 955.9 563.7 955.9 563.7 955.8 563.8 955.8 563.8 955.8 563.8 955.8 563.8 955.7 563.9 955.7 563.9 955.6 563.9 955.6 563.9 955.6 564 955.6 564 955.5 564 955.5 564 955.5 564.1 955.5 564.1 955.4 564.2 955.4 564.2 955.3 564.2 955.3 564.2 955.3 564.3 955.3 564.3 955.2 564.3 955.2 564.3 955.2 564.4 955.2 564.4 955.1 564.5 955.1 564.5 955 564.5 955 564.5 955 564.6 955 564.6 954.9 564.6 954.9 564.6 954.9 564.7 954.9 564.7 954.8 564.8 954.8 564.8 954.8 564.8 954.8 564.8 954.7 564.9 954.7 564.9 954.6 564.9 954.6 564.9 916.5"/>
            </g>
            <g>
              <polygon class="st23" points="45.9 954.2 45.9 917.5 50.9 917.5 50.9 948.1 71 917.5 76.8 917.5 52.7 954.2 45.9 954.2"/>
              <rect class="st17" x="81.6" y="917.6" width="5" height="36.6"/>
              <path class="st10" d="M93.7,954.2v-36.7h10.5c5.7,0,10.6,1.8,14.6,5.4,4,3.6,6,7.9,6,13s-2,9.4-6,12.9c-4,3.6-8.9,5.4-14.6,5.4h-10.5ZM98.7,949.9h5.5c4.2,0,7.9-1.4,11-4.1,3-2.7,4.6-6.1,4.6-9.9s-1.5-7.2-4.6-9.9c-3-2.7-6.7-4.1-11-4.1h-5.5v28.1Z"/>
              <polygon class="st12" points="130.3 954.2 130.3 917.5 150.6 917.5 150.6 921.9 135.3 921.9 135.3 933.6 147.1 933.6 147.1 938 135.3 938 135.3 949.9 150.6 949.9 150.6 954.2 130.3 954.2"/>
              <path class="st15" d="M174.7,954.6c-5.8,0-10.8-1.9-14.9-5.5-4.1-3.6-6.1-8.1-6.1-13.2s2.1-9.6,6.1-13.2c4.1-3.7,9.1-5.5,14.9-5.5s10.8,1.9,14.9,5.5c4.1,3.6,6.1,8.1,6.1,13.2s-2.1,9.6-6.1,13.2c-4.1,3.7-9.1,5.5-14.9,5.5ZM174.7,921.5c-4.4,0-8.1,1.4-11.2,4.2-3.1,2.8-4.7,6.2-4.7,10.2s1.6,7.4,4.7,10.2c3.1,2.8,6.9,4.2,11.2,4.2s8.1-1.4,11.2-4.2c3.1-2.8,4.7-6.2,4.7-10.2s-1.6-7.4-4.7-10.2c-3.1-2.8-6.9-4.2-11.2-4.2Z"/>
              <path class="st9" d="M234,954.6c-5.8,0-10.8-1.9-14.9-5.5-4.1-3.6-6.1-8.1-6.1-13.2s2.1-9.6,6.1-13.2c4.1-3.7,9.1-5.5,14.9-5.5s5.1.4,7.5,1.2l-1.9,4c-1.8-.6-3.7-.9-5.6-.9-4.4,0-8.1,1.4-11.2,4.2-3.1,2.8-4.7,6.2-4.7,10.2s1.6,7.4,4.7,10.2c3.1,2.8,6.9,4.2,11.2,4.2s2.8-.2,4.1-.5h.6v-11.8h-6.9v-4.4h11.9v19l-1.5.6c-2.6,1-5.4,1.5-8.2,1.5Z"/>
              <path class="st13" d="M273.8,954.2v-8.9h-15.5l-6.3,8.9h-5.9l25.9-36.7h6.8v36.7h-5ZM261.3,941h12.5v-17.7l-12.5,17.7Z"/>
              <polygon class="st16" points="323.9 954.2 323.9 930.7 322.5 930.4 310.9 954.2 304.5 954.2 293.1 930.6 291.7 930.9 291.7 954.2 286.7 954.2 286.7 917.5 292.2 917.5 307.7 949.6 323.3 917.5 328.9 917.5 328.9 954.2 323.9 954.2"/>
              <polygon class="st14" points="336.3 954.2 336.3 917.5 356.5 917.5 356.5 921.9 341.3 921.9 341.3 933.6 353.1 933.6 353.1 938 341.3 938 341.3 949.9 356.5 949.9 356.5 954.2 336.3 954.2"/>
              <path class="st11" d="M387.2,954.6c-.3,0-.5,0-.8,0-2.7-.1-5.2-.8-7.5-1.9-2.3-1.2-3.9-2.7-4.8-4.6l4.7-1.6c.6,1.1,1.7,1.9,3.1,2.6,1.5.7,3,1,4.7,1.1.2,0,.4,0,.5,0,2.4,0,4.4-.6,6.1-1.8,1.5-1.1,2.4-2.5,2.5-4,.1-2.9-2.8-5-9.1-6.6-8.7-2.2-12.9-5.9-12.7-10.9.2-3.6,1.8-6.2,5.1-8,2.3-1.2,5-1.9,8.1-1.9s.7,0,1.1,0c4,.2,7.3,1.3,9.8,3.5l-3.6,3c-1.6-1.3-3.8-2.1-6.4-2.2-.2,0-.5,0-.7,0-1.7,0-3.3.2-4.5.7-2.4.9-3.7,2.6-3.8,5-.1,2.8,2.8,4.9,9.1,6.5,5.1,1.3,8.7,3.1,10.7,5.6,1.4,1.6,2,3.4,1.9,5.4-.1,2.8-1.5,5.1-4.3,7.1-2.6,1.8-5.7,2.8-9.3,2.8Z"/>
              <polygon class="st2" points="415.9 954.2 415.9 936.8 403.3 917.5 409 917.5 418.4 931.8 427.8 917.5 433.6 917.5 420.9 936.8 420.9 954.2 415.9 954.2"/>
              <path class="st5" d="M449.4,954.6c-.3,0-.5,0-.8,0-2.7-.1-5.2-.8-7.5-1.9-2.3-1.2-3.9-2.7-4.8-4.6l4.7-1.6c.6,1.1,1.7,1.9,3.1,2.6,1.5.7,3,1,4.7,1.1.2,0,.4,0,.5,0,2.4,0,4.4-.6,6.1-1.8,1.5-1.1,2.4-2.5,2.5-4,.1-2.9-2.8-5-9.1-6.6-8.7-2.2-12.9-5.9-12.7-10.9.2-3.6,1.8-6.2,5.1-8,2.3-1.2,5-1.9,8.1-1.9s.7,0,1.1,0c4,.2,7.3,1.3,9.8,3.5l-3.6,3c-1.6-1.3-3.8-2.1-6.4-2.2-.2,0-.5,0-.7,0-1.7,0-3.3.2-4.5.7-2.4.9-3.7,2.6-3.8,5-.1,2.8,2.8,4.9,9.1,6.5,5.1,1.3,8.7,3.1,10.7,5.6,1.4,1.6,2,3.4,1.9,5.4-.1,2.8-1.5,5.1-4.3,7.1-2.6,1.8-5.7,2.8-9.3,2.8Z"/>
              <polygon class="st3" points="475.8 954.2 475.8 921.9 466.8 921.9 466.8 917.5 489.8 917.5 489.8 921.9 480.8 921.9 480.8 954.2 475.8 954.2"/>
              <polygon class="st1" points="495.9 954.2 495.9 917.5 516.1 917.5 516.1 921.9 500.9 921.9 500.9 933.6 512.6 933.6 512.6 938 500.9 938 500.9 949.9 516.1 949.9 516.1 954.2 495.9 954.2"/>
              <polygon class="st4" points="559.1 954.2 559.1 930.7 557.7 930.4 546.1 954.2 539.7 954.2 528.3 930.6 526.9 930.9 526.9 954.2 521.9 954.2 521.9 917.5 527.5 917.5 542.9 949.6 558.5 917.5 564.1 917.5 564.1 954.2 559.1 954.2"/>
            </g>
          </g>
        </g>
        <g>
          <g>
            <ellipse class="st21" cx="1080.9" cy="636.8" rx="52.3" ry="9.1" transform="translate(-21 37) rotate(-1.9)"/>
            <g>
              <ellipse class="st0" cx="1091.5" cy="634" rx="44.6" ry="10.6"/>
              <rect class="st0" x="1046.9" y="612.7" width="89.2" height="21.3"/>
              <ellipse class="st20" cx="1091.5" cy="612.7" rx="44.6" ry="10.6"/>
            </g>
          </g>
          <g>
            <ellipse class="st21" cx="1213.6" cy="636.8" rx="52.3" ry="9.1" transform="translate(-20.9 41.5) rotate(-1.9)"/>
            <g>
              <ellipse class="st0" cx="1224.2" cy="634" rx="44.6" ry="10.6"/>
              <rect class="st0" x="1179.6" y="612.7" width="89.2" height="21.3"/>
              <ellipse class="st25" cx="1224.2" cy="612.7" rx="44.6" ry="10.6"/>
            </g>
          </g>
          <g>
            <ellipse class="st21" cx="1346.3" cy="636.8" rx="52.3" ry="9.1" transform="translate(-20.8 46) rotate(-1.9)"/>
            <g>
              <ellipse class="st0" cx="1356.9" cy="634" rx="44.6" ry="10.6"/>
              <rect class="st0" x="1312.3" y="612.7" width="89.2" height="21.3"/>
              <ellipse class="st6" cx="1356.9" cy="612.7" rx="44.6" ry="10.6"/>
            </g>
          </g>
        </g>
      </g>
    </g>
  </g>
</svg>