<?xml version="1.0" encoding="UTF-8"?>
<svg id="_图层_2" data-name="图层 2" xmlns="http://www.w3.org/2000/svg" xmlns:xlink="http://www.w3.org/1999/xlink" viewBox="0 0 178.61 224.92">
  <defs>
    <style>
      .cls-1 {
        fill: none;
      }

      .cls-2 {
        fill: gray;
      }

      .cls-3 {
        fill: #fff;
      }

      .cls-4 {
        clip-path: url(#clippath);
      }
    </style>
    <clipPath id="clippath">
      <rect class="cls-1" x="0" width="178.6" height="224.92" rx="11" ry="11"/>
    </clipPath>
  </defs>
  <g id="_图层_13" data-name="图层 13">
    <g>
      <rect class="cls-3" width="178.61" height="224.92" rx="9.9" ry="9.9"/>
      <g class="cls-4">
        <g>
          <path d="M149.62,126.43l-97.2,14.49c-1.74.25-3.35-.94-3.62-2.68l-1.74-11.11c-.44-2.82-4.08-3.7-5.76-1.39l-29.6,40.61c-1.04,1.43-.73,3.44.7,4.48l40.61,29.6c2.31,1.68,5.5-.27,5.06-3.09l-1.73-11.03c-.28-1.76.94-3.42,2.71-3.67l96.59-14.4c1.75-.25,2.97-1.88,2.72-3.63l-5.11-35.46c-.25-1.75-1.88-2.97-3.63-2.72Z"/>
          <g>
            <path class="cls-2" d="M71.84,150.67c3.4,9.58,10.98,11.23,14.78,6.6,3.81-4.63.7-12.55.7-12.55,0,0,27.47-6.27,33.29,0,5.82,6.27.38,16.65.38,16.65,0,0,6.45,7.31,15.94,1.15,4.31-2.8,5.97-12.16,0-26.4l-59.73-1.97-5.36,16.51h0Z"/>
            <g>
              <g>
                <path class="cls-3" d="M62.76,59.12c3.97,5.86,8.68,11.2,13.94,15.94.29.26.4.56.4.85,2.59-1.23,5.25-2.28,7.95-3.2-.24-.2-.38-.51-.35-.93.58-7.64,1.13-15.38.17-23.02-.42-3.32-1.17-6.62-2.31-9.76-.58-1.57-1.25-3.1-2.07-4.56-.84-1.5-1.72-2.21-3.5-2.09-6.25.43-13.02,3.39-16.42,8.84-1.62,2.59-2.53,5.73-2.11,8.8.46,3.39,2.43,6.37,4.31,9.14h-.02Z"/>
                <path class="cls-3" d="M131.46,125.05c9.47-11.42,20.74-29.71,9.91-43.84-4.39-5.73-11.32-9.2-18.32-10.53-9.38-1.77-19.04-.04-28.23,1.93-7.57,1.63-14.99,4.29-21.67,8.26-8.23,4.89-15.43,12.28-16.74,22.14-.73,5.49.04,11.98,3.1,16.69,3.94,6.08,10.95,9.69,17.74,11.59.08.03.14.05.21.08.42.19.89.25,1.36.27,1.11.04,2.21.08,3.32.12,1.64.06,1.64,2.6,0,2.54l-12.97-.47c-.84-.03-1.99-.27-2.77.14-.68.36-1.03,1.33-1.31,1.98-.77,1.77-1.35,3.67-1.63,5.58-.84,5.67,1.75,12.75,8.06,13.86,2.52.44,5.2-.64,6.85-2.56,2-2.32,1.28-5,.97-7.76-.35-3.04.69-5.64,3.67-6.81,1.52-.59,3.2-.79,4.81-1.05,1.87-.31,3.75-.57,5.64-.78,7.51-.86,15.1-.92,22.63-.22.42.04.91.2,1.1.63,2.7,5.88,4.06,12.29,3.94,18.73-.03,1.72,1.28,3.18,3,3.26,2.58.13,5.15-.19,7.26-1.81,5.36-4.09,4.75-11.76,2.92-17.43-1.03-3.19-2.4-6.19-3.83-9.19-.77-1.63-.54-3.55.61-4.93.12-.14.24-.29.36-.43v.02Z"/>
                <path class="cls-3" d="M149.65,35.01c-.64-3.02-2.65-5.87-5.63-6.95-2.97-1.08-6.03,0-8.42,1.86-2.59,2.02-4.48,4.78-6.06,7.61-1.71,3.06-3.03,6.32-3.95,9.7-1.83,6.7-2.06,13.81-.6,20.6.05.24.03.46-.03.65,1.77.41,3.52.93,5.23,1.61.31.13.62.25.92.39,3.5-4.81,6.78-9.78,10.04-14.76,2.14-3.26,4.41-6.49,6.3-9.91,1.81-3.26,2.98-7.08,2.19-10.82v.02Z"/>
              </g>
              <path d="M84.8,92.53c-.23,4.31.22,8.65,1.3,12.84.41,1.58,2.86.92,2.45-.68-1.03-3.97-1.42-8.06-1.2-12.16.08-1.64-2.46-1.63-2.54,0h0Z"/>
              <path d="M113.7,90.81c-.37,4.43-.03,8.9.96,13.24.36,1.59,2.81.92,2.45-.68-.94-4.12-1.22-8.35-.86-12.56.06-.69-.63-1.27-1.27-1.27-.74,0-1.21.58-1.27,1.27h0Z"/>
              <path d="M86.07,119.1c12.76,1.47,25.88-2.8,35.44-11.37,1.22-1.09-.58-2.89-1.8-1.8-9.09,8.14-21.54,12.02-33.64,10.62-1.62-.19-1.61,2.36,0,2.54h0Z"/>
              <path d="M111.39,116.25c2.08,1.97,4.41,4.02,7.36,4.38,2.73.34,5.43-1.13,6.73-3.54s.86-5.36-.93-7.47-5.28-3.32-7.41-1.19c-1.07,1.08-1.45,2.8-.99,4.24.49,1.53,1.7,2.71,3.14,3.37.63.28,1.36.18,1.74-.46.32-.54.17-1.46-.46-1.74-1.28-.58-2.86-2.12-1.7-3.55.49-.6,1.42-.42,2.07-.19.74.27,1.41.79,1.88,1.41,1.02,1.33,1.2,3.08.32,4.53s-2.53,2.32-4.23,2.08c-2.27-.33-4.14-2.14-5.73-3.65-1.19-1.13-2.98.67-1.8,1.8h0v-.02Z"/>
              <g>
                <path d="M77.56,130.11c-6.43-1.89-13.08-5.14-16.89-10.89-2.94-4.44-3.7-10.58-3.05-15.8,1.14-9.15,7.64-16.13,15.18-20.82,6.09-3.79,12.88-6.43,19.83-8.14,13.77-3.39,30.31-6.07,42.67,2.75,7.29,5.2,10.33,13.59,8.65,22.33-1.76,9.22-7.55,16.93-13.07,24.28-1.97,2.62,2.45,5.15,4.39,2.57,9.84-13.1,21-31.65,9.22-47.23-10.98-14.52-30.56-14.15-46.68-11-18.13,3.54-41.47,12.58-45,33.26-1.11,6.51-.35,14.25,3.18,19.94,4.45,7.17,12.35,11.35,20.22,13.66,3.14.92,4.49-3.98,1.36-4.91h0Z"/>
                <path d="M82.11,130.54c-5.01-.18-10.98-1.34-15.91-.4-3.83.74-5.22,5.09-6.04,8.42-2.02,8.13.97,18.54,10.18,20.5,7.68,1.64,13.9-4.7,13.04-12.16-.09-.79-.6-2.21-.34-3.05.78-2.5,3.27-2.49,5.25-2.82,3.17-.53,6.36-.91,9.56-1.14,6.08-.44,12.15-.34,18.22.19l-2.2-1.26c1.67,3.8,2.82,7.82,3.25,11.95.27,2.6-.25,5.52.98,7.94,2.14,4.23,7.28,4.61,11.4,3.47,13.55-3.76,10.03-20.21,6.14-29.65-1.23-2.98-6.14-1.68-4.91,1.36,2.82,6.87,7.77,22.22-4.09,23.69-5.3.65-4.2-5.34-4.72-9-.62-4.31-1.92-8.35-3.67-12.32-.37-.84-1.36-1.19-2.2-1.26-8.57-.75-17.13-.57-25.66.6-6.07.84-12.93,1.7-12.39,9.37.26,3.78.98,7.79-3.79,9.08-4.36,1.17-8.24-2.78-9.29-6.69-.65-2.43-.45-5.01.12-7.43.66-2.8.95-4.59,3.82-4.77,4.32-.27,8.89.31,13.22.47,3.27.12,3.27-4.97,0-5.09h0Z"/>
                <path d="M77.57,74.21c-5.99-5.48-11.72-11.73-15.76-18.82-4.53-7.99-.76-16.12,7.39-19.71,1.6-.7,3.26-1.22,4.98-1.58,2.98-.62,4.36-.31,5.95,2.56,1.88,3.41,2.78,7.67,3.33,11.48,1.14,7.83.52,15.83-.08,23.68-.25,3.26,4.84,3.25,5.09,0,.8-10.58,1.54-21.6-1.64-31.88-1.15-3.71-2.86-9.42-6.85-10.97-3.77-1.46-9.32.53-12.76,2.02-8.07,3.5-14.41,11.88-12.29,21,1.14,4.88,4.4,9.16,7.37,13.09,3.49,4.6,7.4,8.82,11.66,12.72,2.42,2.2,6.02-1.38,3.59-3.59h0Z"/>
                <path d="M126.19,67.56c-1.5-7.43-1.08-15.04,1.3-22.25,1.92-5.8,6.14-15.28,13.04-16.24,4.7-.65,7.9,3.69,8.06,8,.14,3.92-1.7,7.37-3.7,10.6-4.15,6.72-8.64,13.26-13.08,19.79-1.85,2.71,2.56,5.26,4.39,2.57,3.27-4.81,6.5-9.65,9.68-14.54,2.79-4.28,6.11-8.64,7.28-13.71,1.81-7.78-2.21-17.56-11.22-17.9-9.01-.34-14.64,8.76-17.72,15.82-4.03,9.25-4.92,19.34-2.94,29.2.64,3.2,5.55,1.85,4.91-1.36h0Z"/>
              </g>
            </g>
          </g>
        </g>
      </g>
    </g>
  </g>
</svg>