<?xml version="1.0" encoding="UTF-8"?>
<svg id="_图层_1" data-name="图层 1" xmlns="http://www.w3.org/2000/svg" viewBox="0 0 1139.52 768">
  <defs>
    <style>
      .cls-1 {
        fill: #faf9f6;
      }

      .cls-2 {
        fill: #363636;
      }
    </style>
  </defs>
  <g>
    <path class="cls-1" d="M586.71,763.67c-27.89,0-53.49-15.71-65.22-40.02-.29-.61-.65-1.6-1.02-2.66-1.24-3.52-2.65-7.5-5.61-8.9-1.5-.71-3-.73-4.1-.75-.39,0-.87-.01-1.07-.06-3.07-.75-7.68-1.76-12.18-1.98-5.66-.28-11.96-.28-18.63-.28-23.14-.01-49.37-.02-64.91-10.98-6.02-4.24-12.17-13.85-17.6-22.33-2.51-3.92-4.88-7.63-7.12-10.62-.15-.2-.3-.52-.47-.89-.32-.7-.73-1.58-1.49-2.41l-.61-.66-.87-.22c-.31-.08-.62-.12-.93-.12-1.34,0-2.42.65-3.23,1.94-.22.02-.53.04-.95.04-1.52,0-3.16-.27-3.78-.44-.82-.25-4.75-2.29-6.27-3.25-.31-.2-1.33-1.08-1.89-1.55-1.55-1.33-1.97-1.69-2.86-1.86l-.28-.05h-.31c-.71,0-1.27.21-2.39.63-1.04.39-3.2,1.21-4.28,1.21-1.24-.36-5.3-2.51-6.46-3.41-.03-.09-.06-.2-.08-.29-.12-.43-.29-1.01-.64-1.63-.28-.49-.63-.83-.96-1.08-.14-.85-.1-2.12.1-3.32.58-.46.96-1.04,1.14-1.75.83-3.26-.94-5.2-1.99-6.36-.33-.37-.65-.72-.88-1.08-.58-.9-1.22-1.89-1.88-2.91-2.31-3.56-4.92-7.59-6.54-10.55-.23-.43-1.05-2.29-1.77-3.94-4.28-9.78-4.83-11.04-7.15-11.19l-1.12-.07-.89.69c-.31.24-.67.47-1.03.7-.68.44-1.45.93-2.12,1.55-2.57,2.36-4.79,4.54-6.94,6.65-4.21,4.13-8.18,8.03-13.8,12.27-44.86,33.83-70.5,37.74-85.89,37.74-18.89,0-35.79-7.05-51.66-21.55-26.28-24-36.28-55.54-29.73-93.73,5.61-32.68,22.8-56.34,43.02-81.7,7.71-9.67,16.17-18.79,24.36-27.62,2.62-2.82,5.24-5.65,7.85-8.5l.57-.62c4.66-5.01,9.02-10.25,6.82-14.45-.69-1.31-3.83-5.46-4.63-6.4-6.02-7.11-12.22-14.28-18.23-21.21-5.69-6.58-11.58-13.38-17.27-20.08-1.1-1.3-2.16-2.83-3.18-4.32-1.13-1.64-2.3-3.34-3.59-4.82-1.1-1.26-1.94-1.91-2.49-2.34-.14-.11-.27-.19-.37-.3-.05-.09-.27-.61-.69-2.76-2.49-12.83-.8-28.04.83-42.74.98-8.83,1.99-17.96,2.04-26.3,2.47-4.71,3.16-10.44,3.82-15.99.3-2.55.59-4.96,1.04-7.2,2.65-13.27,7.75-31.28,21.47-34.38,4.68-1.06,9.45-1.59,14.16-1.59,21.26,0,40.43,10.92,56.38,21.6.71.48,1.42.66,1.92.78.87.96,2.82,3.24,3.59,4.21,0,.21,0,.46-.02.73-.03.64-.08,1.43.13,2.29.3,1.25,1.21,1.88,1.65,2.18.05.03.1.07.16.11,1.42,2.8,2.64,7.52,3.82,12.09.87,3.35,1.68,6.51,2.61,9.09,1.42,3.97,2.9,8.01,4.38,12.07,2.72,7.45,5.54,15.15,8.06,22.56.35,1.03.61,2.15.9,3.33.62,2.59,1.31,5.54,3.13,8.1l3.11,4.38,2.1-4.95c.99-2.34,1.62-4.62,2.24-6.83.77-2.76,1.49-5.36,2.84-7.9,4.07-7.63,9.58-15.39,14.9-22.89,1.43-2.02,2.85-4.01,4.22-5.97,2.48-3.57,5.14-7.21,7.71-10.74,3.1-4.26,6.3-8.66,9.31-13.06.05-.06.31-.28.49-.43.72-.61,1.7-1.44,2.17-2.79,1.03-2.97-1.15-5.46-2.59-7.11-.39-.44-.78-.9-.99-1.2-.39-.59-.93-1.36-1.53-2.23-1.49-2.14-5.44-7.82-5.69-9.42-.3-2.53-.22-2.91.96-4.49,2.36-3.15,9.99-8.28,14.65-10.92.62-.35,1.26-.5,2.08-.5.6,0,1.29.08,2.29.26l3.49.65.06-3.55c.03-1.77.04-3.58.05-5.4.04-7.6.09-15.46,1.41-22.59,1.28-6.88,3.88-11.5,7.74-13.71,8.65-4.96,21.09-7.7,35.04-7.7,6.11,0,12.36.54,18.08,1.56,15.75,2.8,33.29,11.33,45.77,22.24.5.44,1.33,1.01,2.86,2.07,2.16,1.49,5.11,3.53,6.84,5.13l1.51,1.4,1.85-.9c4.06-1.98,8.31-3.47,12.81-5.05,3.68-1.29,7.49-2.62,11.18-4.25,2.06-.9,20.52-7.23,26.38-7.23.19,0,.37,0,.52.03l3.29.43.09-3.32c.04-.32.68-1.01,1.16-1.08,1.1-.15,2.67-.23,4.55-.23,4.43,0,9.26.41,11.86.78,4.39.63,7.64,2.17,12.09,4.45l.67.34h.75c3.19-.07,4.04-2.99,4.31-3.94,0-.02.01-.05.02-.07,1.3-.71,4.92-1.95,6.34-2.25,1.16-.25,2.22-.37,3.24-.37,4.64,0,7.75,2.55,12.31,6.76.11.1.25.33.41.57.56.88,1.74,2.71,4.43,2.71.31,0,.63-.03.96-.08.8-.12,8.16-3.9,8.87-6.27l.18-.58-.06-.6c-.32-3.01-2.2-4.54-3.45-5.55-1.16-.94-1.31-1.15-1.33-1.83-.05-1.64.44-2.98,1.52-4.09,1.61-1.66,4.49-2.69,7.54-2.69.44,0,.88.02,1.31.06,2.96.3,5.95.74,9.12,1.21,4.31.64,8.76,1.3,13.14,1.56l.85.05,8.37-4.46-5.71-2.47c-.4-.18-1.71-1.05-2.58-1.63-3.19-2.12-4.53-2.93-5.9-3h-.17c-1.11,0-1.94.53-2.54.92-.21.14-.56.36-.7.4-.3.04-.88.09-1.83.09-2.54,0-5.93-.37-7.71-.84-1.26-.33-3.29-2.17-4.78-3.5-1.93-1.74-3.33-3-4.96-3.33-.26-.05-.53-.08-.81-.08-.75,0-1.44.19-2.18.39-.77.21-1.63.44-2.51.44-.31,0-.6-.03-.89-.09-.96-.19-1.6-.72-2.33-1.34-.58-.49-1.18-.99-1.97-1.32-.84-.35-1.73-.46-2.52-.54-.26-.03-.62-.07-.91-.12-.13-1.6-.07-5.79.07-8,.17-2.83,1.85-9.6,3.01-11.48.27-.44,1.1-1.34,1.77-2.07.62-.68,1.26-1.37,1.78-2.02.17-.21.23-.24.5-.24.68,0,1.69.35,2.68.7,1.03.36,2.1.73,3.21.87l2.61.32.66-2.54c.77-2.97,1.4-4.45,1.8-5.16,2.89-5.26,12.82-10.02,29.51-14.14.17-.04.48-.04.58-.04.16,0,.9.02,1.1.02l3.38-.04-.58-6.93c.18-.11.39-.22.59-.32,1.32-.67,5.68-1.65,9.11-2.24,3.91-.67,7.02-.98,9.78-.98,6.02,0,10.97,1.46,18.28,5.38,3.41,1.83,6.72,2.08,9.65,2.31,1.86.14,3.62.28,5.3.79,1.04.32,2.28.69,3.56,1.07,1.18.35,2.39.71,3.52,1.06.5.15,1.74.63,2.95,1.09,4.64,1.79,6.99,2.63,8.45,2.63.36,0,.71-.05,1.03-.14l1.05-.3,2.5-3.72-1.18-1.68c-5.61-8.01-8.2-14.09-4.84-21.44,1.23-2.68,4.27-7.05,6.04-9.29l.66-.84c5.75-7.3,12.26-15.57,21.17-16.33,1.36-.12,2.76-.18,4.15-.18,21.08,0,40.94,12.75,52.5,24.68l1.3,1.34,1.77-.57c.66-.21,1.14-.49,1.49-.69.09-.05.18-.11.28-.16,1.14-.12,2.75-.19,4.62-.19,8.11,0,18.29,1.25,21.72,3.36,0,0,0,0,0,.01.25.44.68,1.17,1.48,1.77,1.05.79,2.49,1.1,5.14,1.1,1.37,0,2.91-.08,4.27-.16,1.07-.06,2.09-.11,2.77-.11.12,0,.23,0,.33,0,4.9.2,9.97,1.33,14.87,2.43,4.4.98,8.94,2,13.37,2.34.37.03.7.04,1,.04.6,0,2.41,0,3.67-1.31,1.09-1.13,1.11-2.51,1.08-3.27,1.28-.96,2.41-2.01,3.51-3.04,2.73-2.55,4.53-4.11,7.06-4.11.4,0,.81.04,1.24.12l2.87.51.59-2.85c.63-3.02,1.7-6.14,3.27-9.55,6.45-14,15.37-26.43,22.41-35.71l.35-.45c1.94-2.49,3.42-4.56,3.24-6.61-.14-1.6-.76-2.87-1.27-3.88-.78-1.58-1.05-2.12.01-3.86,2.94-4.85,13.32-8.57,19.51-10.8.91-.33,1.77-.64,2.54-.92.81-.3,1.58-.6,2.31-.9,2.45-.97,4.39-1.74,6.44-1.74,1.17,0,2.41.25,3.79.77,1.42.53,1.65.85,2.39,1.88.4.55.89,1.24,1.61,2.03l.2.22c.78.87,1.84,2.06,3.39,2.35l.34.06.35-.02c3.68-.17,7.42-.28,11.04-.39l3.31-.1c2.66-.08,5-.12,7.15-.12,13.93,0,22.78,1.72,36.43,7.08,24.41,9.57,44.26,18.83,59.22,43.09,12.88,20.89,16.17,58.38,7.18,81.86-7.46,19.51-22.91,43.52-41.31,64.23l-.99,1.12c-7.02,7.92-20.09,22.67-29.78,23.77-.24.03-.5.03-.78.03-.52,0-1.08-.03-1.63-.05-.66-.03-1.31-.06-1.92-.06-1.15,0-2.03.11-2.78.34-1.73.53-2.54,1.92-2.98,2.67-.06.11-.12.22-.19.32-1.19.94-4.48,1.69-6.47,2.15-.82.19-1.58.36-2.22.53-.58.16-1.08.44-1.49.85-.1,0-.2-.01-.29-.02-.52-.03-1.05-.06-1.55-.06-.83,0-3.02,0-4.26,1.79l-.49.71-.04.86c-.15,3.13-.19,6.29-.22,9.34-.07,5.89-.13,11.45-.95,17.04l-.1.71.84,2.53,1,.57c6.38,3.61,12.44,9.23,18.03,16.69,5.95,7.95,9.28,15.08,11.84,25.44,1.5,6.04,1.83,9.59,1.49,15.79-.36,6.52-1.63,13.88-3.49,20.18-.16.52-.47,1.19-.81,1.89-.93,1.93-2.08,4.34-1.3,6.99l.29.99.84.6c.63.45,1.39.67,2.31.67,1.99,0,5.68-1.1,10.67-2.66,1.63-.51,3.48-1.08,4.04-1.19,1.6-.31,3.35-.46,5.2-.46,19.14,0,46.26,16.22,60.83,24.94,1.29.77,2.57,1.5,3.83,2.22,4.88,2.78,9.09,5.19,12.64,9.17,9.15,10.25,19.77,30.82,14.75,44.49-2.29,6.22-16.18,14.21-23.37,15.73-1.74.37-4.29.57-7.38.57h0c-10.14,0-24.42-2.16-29.52-5.38-2.03-1.28-6.9-7.12-8.31-9.71-4.32-7.93-4.67-13.09-1.48-22.09,2.84-8,7.65-15.81,12.29-23.36,1.01-1.64,2.01-3.26,2.96-4.85.86-1.43.9-3.04.92-4.1l.05-2.03-11.52-5.71c-6.49-4.28-14.23-6.28-21.72-8.22-1.12-.29-2.24-.58-3.35-.88l-.84-.22-.83.26c-2.43.76-5.09,1.41-7.66,2.03-2.42.58-4.91,1.19-7.32,1.91l-3.75,1.13,2.06,3.33c.93,1.51,1.59,4.56,1.98,6.38.1.45.18.85.26,1.19,2.62,11.15,5.25,31.09,2.89,40.55-2.2,8.85-10.07,18.65-24.04,29.98-17.04,13.81-31.64,18.92-50.13,25.39-2.07.73-4.19,1.47-6.35,2.23l-8.06,2.86,7.25,2.51c.67,2.41.53,9.97.2,12.18-1.42,9.44-8.39,22.68-14.91,28.33-1.1.96-2.33,1.48-3.62,2.02-1.82.77-3.89,1.65-5.44,3.76-.78,1.06-1.46,2.02-2.1,2.95-1.45,2.07-2.71,3.86-4.74,6.17-16.72,18.99-37.32,35.93-59.57,49-6.19,3.63-12.52,7.44-18.65,11.12-5.56,3.34-11.31,6.79-16.9,10.09-1.74,1.03-4.07,2.15-6.53,3.33-5.48,2.64-11.15,5.38-14.21,8.73-.89.98-1.64,2.07-2.35,3.13-.55.81-1.07,1.58-1.59,2.2-21.31,25.25-43.69,47.32-66.52,65.59-50.58,40.49-84.33,53.44-108.08,60.2-7.93,2.26-22.7,6.46-33.4,7.12-1.5.09-3.02.14-4.52.14Z"/>
    <g>
      <path class="cls-2" d="M966.11,6.82c.55.57,1.34,1.61,2.04,1.74,4.72-.25,9.42-.36,14.14-.52,27.67-.95,45.89,5.62,69.92,18.43,37.25,19.85,50.69,54.08,47.94,95.45-1.61,24.21-15.3,45.36-28.86,64.56-9.34,13.23-34.26,46.9-50.69,48.77-1.92.22-4.83-.33-6.41.15-1.02.31-1.44,1.91-2.38,2.66-1.84,1.47-8.02,3.28-10.47,3.67-1.29.2-4.39-.17-4.94.61-.46,9.03.1,18.07-1.26,27.04l.54,1.01c3.75,1.8,8.01,5.06,10.92,8.01,19.89,20.16,26.43,45.68,18.07,73.03-.43,1.4-3.34,6.76-2.21,7.56,6.63-.38,12.71-4.17,19.38-4.53,17.97-.98,52.03,17.66,67.56,27.39,11.28,7.07,17.57,13.86,23.65,25.83,11.57,22.74,8.43,38.58-16.13,48.17-11,4.29-38.29,1.91-47.05-6.67-14.48-14.2-10.94-27.52-2.72-43.62,2.63-5.16,8.96-13.41,10.56-18.22.21-.64.49-1.94.16-2.47-10.68-5.91-21.57-10.8-33.49-13.75-5.75,1.55-11.79,2.85-17.39,4.86-5.24,1.87-14.44,7.8-18.68,8.61-3.97.76-6.24-3.63-3.31-6.37,1.38-1.29,10.38-5.46,12.7-6.48,4.93-2.18,19.3-7.56,24.18-7.67,10.79-.23,27.99,7.66,37.42,13.06,3.4,1.95,12.92,6.93,9.79,11.87-1.09,1.73-4.09.71-4.86,1.29-.57.43-3.01,4.88-3.66,5.97-4.12,6.82-13.3,22.68-13.74,30.22-.29,4.99,4.96,14.34,8.58,17.67,5.76,5.29,26.4,7.18,34.03,6.25,4.83-.59,17.76-7.84,20.41-11.9,7.87-12.03-5.09-31.27-11.04-41.81-17.2-12.38-37.52-24.57-57.53-31.83-17.69-6.43-25.79-3.11-42.79,2.63-3.76,1.27-12.97,7.09-15.7,2.36-3.02-5.24,7.56-6.52,10.45-8.36.05-4.43,2.86-7.99,4.27-12.14,7.6-22.49,2.44-43.73-12.5-61.51-1-1.19-9.66-10.8-10.86-9.59-1.11,3.23-.06,12.65-3.9,13.53-5.31,1.21-4.94-3.34-4.68-7.21.52-7.86,2.65-16.14,3.04-24.23,1.27-26.33-.83-62.66-15.15-85.38-24.98-39.63-69.64-43.58-112.33-46.7-.79-.06-2.14-.23-2.77.24,15.03,25.48,24.21,52.77,29.11,81.98,4.88,29.04,4.33,58.06,4.2,87.46,1.98-.79,3.63-2.38,5.71-3.12,15.96-5.66,22.67,13.68,28.91,23.79,7.89,12.79,17.83,21.4,32.03,26.54,2.55.92,10,1.72,10.57,4.58,1.51,7.55-8.57,3.97-12.37,2.78-10.88-3.42-21.2-10.28-28.52-18.98-1.14-.58-1.93.91-2.89,1.18-3.12.85-5.4-2.34-8.29-3.07-5.23-1.32-10.55,2.43-12.05,7.45-2.58,8.65,9.67,19.07,16.17,10.63,2.76-3.58,1.02-5.88.97-9.59-.1-6.18,6.63-5.23,7.9.72,3.03,14.27-11.33,24.45-23.85,16.79-12.62-7.72-11.89-26.64,2.03-32.51,5.1-2.15,7.09-1.46,12.1-.31.64.15.94,1,.87-.36-4.73-6.5-7.14-16.23-13.62-21.22-2.57-1.98-5.08-2.48-8.12-1.03-3.99,1.92-2.9,7.64-8.01,7.39-1.12,11.31-1.21,22.72-2.06,34.05-1.02,13.56-2.87,27.1-3.52,40.66,11.08-14.66,32.77-9.24,42.81,3.87,9.37,12.22,10.8,33.76-2.99,43.3-5.51,3.81-6.83,2.01-11.71,3.43-.85.25-1.43,1.52-2.73,1.81-1.64.38-7.8,1.14-9.49,1.15-2.39.02-4.5-1.44-6.81-.8,12.11,4.81,26.26-1.49,37.44-6.47,20.42-9.08,42.16-23.16,45.78-47.12,1.05-6.97,1.04-16.57-3.05-22.58-1.52-2.24-5.71-4.31-4.76-7.42,1.87-6.09,8.19-.36,10.31,2.38,7.96,10.26,6.26,27.42,2.34,39.03-6.9,20.43-28.58,34.21-47.34,42.53-12.72,5.64-26.7,11.31-40.82,7.84-5.68-1.4-11.03-6.68-3.43-9.69l-5.74-3.26c-3.82,4.76-6.71,2.17-7.76-2.93-1.53-7.44-1.96-17.54-1.67-25.14,1.08-27.57,5.65-55.94,7.11-83.79.35-6.73.27-13.51.46-20.24.88-29.85,1.32-59.65-3.67-89.21-5.08-30.12-15.16-58.19-31.28-84.1l-19.54-5.7,23.93,37.41c2.75,4.99,12.33,20.85,11.4,25.94-.72,3.92-5.64,3.39-7.52-.54-2.95-6.19-4.65-11.73-8.24-18.02-16.27-28.51-37.42-55.3-52.61-84.73-12.96-10.04-28.98-19.76-45.94-20.2-11.78-.3-20.77,12.14-26.23,21.27-2.7,4.51-4.15,6.03-2.55,11.56,1.72,5.95,22.56,32.89,27.73,37.91,7.11,6.9,15.28,6.46,24.69,5.47,5.4-.57,10.77-2.01,15.96-3.48.55-.7-5.06-1.85-5.86-1.96-3.07-.44-9.2.91-9.33-3.83-.17-5.96,9.76-3.68,13.58-2.95,21.14,4.06,31,17.16,43.99,32.75,6.03,7.24,14.53,17.25,19.29,25.14,1.65,2.74,4.5,6.81,2.58,9.81-.61.96-1.82.88-1.67,2.16,1.88-.11,3.91.2,5.76-.04,3.5-.45,8.8-4.02,11.93-1.76,6.19,4.48-5.32,8.02-8.51,8.72-7.09,1.54-13.14.53-19.44-2.98-2.81-1.56-10.64-7.27-6.45-10.8,3.94-3.32,8.51,4.44,12.41,5.34l.24-.74-7.91-11.81c-10.26,1.28-10.61,8.55-9.02,17.12.61,3.3,5.04,11.63.42,13.01s-6.83-6.37-7.58-9.89c-1.81-8.5-2.26-18.01,5.17-23.84,1.06-.83,5.32-2.74,5.32-3.79,0-.63-5.71-7.85-6.75-7.76-12.62,5.66-32.2,7.07-37.21,22.38-2.1,6.42.69,8.96,0,13.62-.59,3.98-5.54,3.91-7.14.13-2.01-4.76-.91-8.17-.89-12.71,0-.76.32-1.48-.77-1.27-5.86,5.4-12.7,10.16-19.48,14.35-25.81,15.94-54.29,20.38-84,24.03-19.29,2.37-49.28,3.66-65.99,13.13-.41.23-.51,1.04-1.24,1.4-1.03.5-4.85.8-5.19,1.93,1.03,3.09,3.23,5.39,3.8,8.76,4.44,26.29-29.7,48.39-48.28,61.34-34.18,23.83-69.4,47.03-104.18,70-23.64,15.61-47.71,30.69-72.83,43.84-3.99.23-5.74-4.09-2.61-6.7,39.36-20.83,75.28-46.92,112.17-71.6,21.28-14.24,43.17-27.71,64.12-42.4,12.88-9.03,38.46-26.55,43.11-41.71,1.66-5.41,2.4-13.44-2.42-17.5-3.93-3.31-4.53-.96-7.7.81-78.53,43.78-159.54,90.56-210.11,167.54-1.63,1.49-3.19,1.86-5.25,1.05.44,6.38-3.94,11.36-5.4,17.57-1.15,4.89-.46,4.64,3.88,2.87,3.04-1.24,11.74-8.3,14.18-4.45,2.76,4.36-3.62,7.39-6.59,9.02-4.32,2.37-11.19,5.73-16.02,3.38-1.87-.91-2.8-3.48-3.68-3.9-.92-.44-2.22-.16-3.4-.64-11.74-4.73-29.04-13.73-38.01-22.57-.83-.81-4.85-5.18-5.24-5.86-1.56-2.73-.21-6.19,2.95-6.01,2.78.16,8.4,7.19,10.88,9.34,9.65,8.37,21.93,12.49,33.06,18.43.53-.11,2.55-7.31,3.05-8.58.64-1.62,3.8-6.39,3.04-7.58-.85-1.34-12.53-7.54-14.73-8.52-3.23-1.44-14.84-4.54-15.72-7.5-2.4-8.02,8.96-3.2,12.13-2.04,3.36,1.23,7.1,2.75,10.29,4.35,4.92,2.46,9.22,6.04,14.27,8.13,17.98-28.1,40.51-53.18,66.16-74.47.2-1-.21-.62-.63-.87-4.42-2.59-10.4-4.26-15.16-7.05-9.99-5.85-19.86-14.74-25.68-24.81-1.52-2.63-2.61-6.14-4.06-8.56-.28-.48-.43-1.02-1.14-.86-8.74,9.18-17.28,18.57-24.48,29.04-.1.82-.07.83.73.73,5.56-.68,9.04-3.81,13.62,2.57,11.33,15.79-13.26,47.27-31.22,44.87-4.02-.54-8.35-3.41-10.14-7.02-4.43,5.16-7.69,9.8-9.2,16.54-.73,3.24-.49,12.16-6.58,9.33-3.68-1.71-.13-11.52-.12-14.77-.38-.42-2,1.01-2.46,1.32-7.58,5.14-12.87,9.88-18.48,16.87-5.83,7.27-13.37,8.91-13.9,20.97-.05,1.17.96,9.97,1.24,10.86.88,2.81,10.98,10.39,13.75,12.51,12.44,9.51,26,17.35,38.86,26.27,1.38-.26,2.23-1.34,3.02-2.37,2.02-2.6,7.63-11.85,8.99-14.74.79-1.67.21-4.42,3.17-4.95,3.36-.61,5.1,4.37,6.79,6.65,14.38,19.42,29.57,38.45,51.14,50.34,13.6-9.09,25.97-19.86,40.29-27.86,21.81-12.19,64.66-17.43,87.18-5.74,1.85.96,4.65,2.44,5.61,4.22l1.09.02c16.66-13.65,33.88-26.9,52.38-38.02,5.87-3.53,14.06-6.87,19.31-10.48.53-.36,1.39-.77,1.27-1.58-4.87-7.9-10.1-15.7-16.08-22.82-1.91-2.27-17.11-18.3-18.41-18.29-6.85,4.44-13.84,8.89-20.4,13.78-9.77,7.28-18.64,14.13-28.78,21.2-4.33,3.02-7.16,7.59-13.46,6.37-9.51-1.84-19.4-6.64-28.64-9.27-7.34-2.09-15.27-2.19-22.04-5.99-.26-1.18.17-.81.65-1.12,3.06-2.02,6.09-.98,9.63-1.47,9.92-1.35,21.02-2.78,30.79-4.54,16.67-3.01,35.79-14.61,51.11-22.09,1.5-.73,10.21-4.13,10.56-4.59.64-.83-.24-1.29-.8-1.75-7.67-6.32-30.5-16.47-40.25-18.82-1.43-.34-3.16-.96-4.5-.27-36.27,21.08-70.91,45.06-107.32,65.86-6.91,3.95-21,12.91-27.83,15.08-3.61,1.15-7.2-.36-5.44-4.43,1.25-2.88,13.7-8.24,17.12-10.14,21.15-11.81,41.17-25.05,61.79-37.67,30.53-18.68,60.96-36.66,89.97-57.45,3.19-2.29,11.26-9.94,13.77-10.97,3.64-1.48,5.66.25,5.76,3.99,5.51-1.26,11.25-1.56,16.78-2.65,12.97-2.55,29.52-7,41.87-11.64,9.24-3.47,12.91-9.74,17.25-18.09.69-1.34,3.37-8.18,4.11-8.52l3.02,4.54c2.5,5.55-.38,11.7-1.21,17.48-.54,3.78.06,11.51-2.14,14.52-1.25,1.71-6.39,3.77-5.93,5.53,10.47,10.42,22.55,19.18,33.26,29.39,1.39,2.16,3.46,12.21,3.02,14.64-.12.66-.39,1.36-1.21,1.23-9.93-7.13-19.72-14.95-31.34-19.16-.5,0-.34,1.06-.02,1.53.84,1.2,5.25,3.73,6.65,5.22.69.74,1.37,1.92,2.12,2.71l-1.99,9.7c-.96.69-10.88-5.25-12.82-6.03s-14.7-4.67-15.4-4.03l.24,1.02c2.08,2.6,10.52,7.64,11.63,10.09.52,1.13.19,1.64-.89,2.15-3.22.49-5.84,1.89-9.18,1.35-1.98-.32-5.07-2.56-7.22-3.38-1.41-.54-10.21-3.63-10.73-3.15-.29,2.52,2.43,2.88,3.78,4.04,8.01,6.84,15.85,12.32,25.26,17.18-.41,4.69-.22,9.67-.84,14.33-.42,3.17-.48,8.15-4.46,5.59-2.44-1.57-10-8.3-12.14-10.55-4.76-5-8.52-11.18-13.88-15.93-.63-.56-4.99-4.15-5.3-4.29-2.92-1.34-10.19.99-13.05,2.33-1.03,1.83,4.61,4.95,5.73,6,2.23,2.1,4.12,4.74,6.3,6.83,7.27,6.99,14.69,14.23,23.61,19.05l1.14,9.97c9.03-4.05,17.42-9.44,26.23-13.9,11.76-5.95,24.27-11.7,36.25-17.26,17.43-8.1,46.02-23.78,64.91-22.3,19.34,1.52,50.57,20,66.6,31.34,7,4.96,11.19,10.33,16.99,16.33.57.59,1.09,1.4,2.03,1.25-2.29-6.42-4.34-13.83-7.81-19.7s-8.23-6-13.72-8.99c-7.06-3.85-23.55-15.03-25.68-22.79-1.04-3.8-1.58-11.77-1.77-15.91-.8-17.32-1.42-38.9-.48-56.07.35-6.39,2.71-23.54,7.55-27.8,2.72-2.4,6.24-1.32,6.12,2.55-.08,2.57-3.07,6.1-2.9,7.58.04.31,1.89,2.15,2.37,3,8.69,15.61,15.88,40.41,20.93,57.84,3.44,11.85,9.68,31.78,9.88,43.67.02,1.07.05,2.18-.41,3.17-.66,1.44-3.11,1.42-2.65,2.39.13.28,3.75,2.56,4.8,3.79,11.74,13.78,12.98,45.5,25.98,57.33,13.65,12.42,29.08,11.53,45.96,7.59,18.36-4.29,32.65-18.44,52.21-19.98,3.46-.27,20.94-1.28,16.14,6.05-1.9,2.9-7.73,1.02-10.82,1.54,2.03,7.06-3.19,15.26-7.15,20.87-6.22,8.79-14.21,16.19-22.63,22.81,2.1.29,4.63-.73,6.67-1.41,23.66-7.91,47.3-19.43,63.75-38.73,10.8-12.68,10.28-20.57,8.25-36.55-.71-5.56-3.5-14.76-3.41-19.72,0-.43.35-1.97.57-2.2,6.26-3.09,6.8,1.35,7.81,6.33,2.12,10.5,5.05,27.75,2.94,38.01-4.17,20.22-35.76,42.87-53.79,50.72-9.34,4.07-28.17,11.93-37.72,13.29-4.39.62-3.57-1.73-5.17-2.7-.7-.42-1.85.88-3.79-.72-1.46-1.21-1.22-2.77-2.28-3.77-3.76-3.57-8.69-5.67-12.86-10.37-2.95-3.32-8.36-9.68-6.81-14.14-10.4,1.63-19.18,1.56-28.95-2.6-11.47-4.88-18.25-11.3-23.28-22.66-.66-1.48-2.87-8.65-3.49-9.14-.84-.66-2.91-.67-4.85-2.22-8.31-6.61-14.06-15.51-23.06-21.88-14.72-10.43-45.79-29.01-63.49-29.91-16.06-.82-42.41,13.33-57.49,20.29-14.26,6.59-28.94,13.54-42.9,20.71-63.5,32.59-152.93,80.79-162.29,159.83-4.01,33.83-1.75,67.99,4.72,101.21,2.64,5.57,6.52,3.14,6.78-2.34.46-9.77,2.47-19.87,6.23-29.12,1.23-3.01,3.56-7.82,7.49-4.7,3.01,2.39.18,5.37-.69,7.97-11.64,35.07-15.52,80.34,18.15,104.35,29.39,20.96,59.47,13.25,91.01,2.34,49.03-16.97,96.98-54.31,133.27-90.9,20.93-21.1,50.81-53.91,47.96-85.83-.57-6.41-3.2-5.96-7.07-9.6-14.48-13.62-26.34-32.52-33.04-51.29-1.92-5.37-2.56-10.14-5.42-15.29-1.01-1.81-2.79-3.67-3.67-5.43-.39-.78-.08-1.84-.39-2.38-.72-1.27-12.65-7.12-15.03-5.67-.23.88.36,1.01.75,1.52,1.81,2.37,4.55,4.47,6.52,7.11,4.07,5.48,11,20.9,9.86,27.45-2.76,15.73-5.72,31.81-13.51,46.07-7.08,12.97-18.15,25.6-28.09,36.53-24.7,27.17-51.31,52.41-81.37,73.63-25.51,18.01-63.03,42.49-94.5,25.04-33.62-18.64-16.38-65.83,2.99-88.81,2.48-2.95,5.5-5.81,8.56-8.13-.58-1.49-1.76-2.61-2.45-4.07-.41-.86-1.44-4.54-1.65-4.67-1.25-.77-2.92.99-5.08-2.24-6.66-9.96,2.03-25.04,6.9-34.2,2.84-5.33,6.79-12.72,10.23-17.54.65-.91,1.42-1.17,2.12-1.94-2.8-4.99-6.28-9.85-4.24-15.85,1.29-3.79,7.64-9.16,10.83-11.89,5.48-4.68,13.03-11.34,20.84-9.73,2.92.6,8.85,6.69,11.1,6.37.48-.07.96-.42,1.39-.67,1.56-1.49-1.79-3.58-2.3-5.28-.66-2.2-.1-5.22.83-7.29,2.82-6.28,18.04-17.52,24.01-21.93,13.18-9.74,22.67-18.6,39.89-10.3,1.14.55,6.24,5.74,6.74,6.89,1.33,3.05-.03,6.54-3.7,5.76-2.29-.48-3.33-2.83-4.73-3.88-11.79-8.82-18.06-3.42-28.1,3.55-4.39,3.05-27.25,19.91-27.63,23.92.41,3.17,4.75,4.89,5.07,8.11.39,3.93-4.63,4.71-4.59,6.01l4.35,8.84c6.02-4.68,11.34-10.25,17.17-15.13,12.43-10.43,27.88-22.66,41.67-31.03,5.43-3.3,13.16-8.55,19.65-7.67,2.66.36,9.78,2.81,9.08,6.36,6.22-1.38,12.14-4.29,18.29-6.2s13.13-4.16,19.03-5.7c8.2-2.14,13.61,1.67,19.46,6.84.49-.35.66-.66.76-1.25.51-2.92.16-7.81.5-11.11s1.52-7.11,1.55-10.1c.14-12.25-3.28-25.98-2.05-38.38.68-6.84,6.79-7.34,7.54-2.5.71,4.58-.2,11.19.04,16.13.31,6.5.94,13.68,1.51,20.2.29,3.27,2.2,9.15.88,12.01-1.48,3.21-2.08,3.54-2.4,7.7-1.93,25.55,8.01,53.45,21.49,74.95,9.14,14.58,28.24,35.34,46.46,36.85,5.12.42,8.63-2.73,11.5-2.45,3.66.36,3.72,5.05.68,7.19-7.32,5.15-18.45,2.25-25.96-1.05-.97-.43-5.14-3.2-5.72-2.61.56,10.36-2.39,20.56-5.92,30.18-1.15,3.13-2.89,6-3.67,9.2.27.29,5.95-3.17,6.71-3.63,22.64-13.71,46.3-25.85,66.71-42.84,12.36-10.29,38.33-32.97,40.09-49.28.91-8.43-4.32-22.67-9.13-29.65-1.19-1.73-7.71-8.71-7.89-9.29-1.49-4.95,3.86-5.77,7.49-2.93,5.93,4.63,12.14,16.93,14.27,24.11,1.84,6.21,3.71,13.67,2.38,20.09.94.22.98-.32,1.43-.84,3.89-4.51,6.67-12.05,7.93-17.82.73-3.32-.37-8.27,3.63-8.99,6.84-1.23,4.17,8.21,3.23,12.32-2.08,9.01-8.09,19.75-14.68,26.22-3.16,3.1-5.59,2.47-7.38,3.73-.72.51-3.05,4.77-4.05,6.04-27.49,35.07-68.18,56.76-105.86,78.92-3.92,2.3-10.43,4.74-13.72,7.49-3.64,3.04-9.46,11.96-13.12,16.17-46.5,53.49-115.23,107.13-185.92,121.55-38.95,7.94-72.53-4.85-90.04-41.42-.98-2.05-1.94-6.9-3.82-7.79-2.16-1.02-13.98-2.02-17.01-2.17-24.41-1.2-71.27,3.3-89.1-15.9-2.97-3.2-6.88-8.97-9.52-12.7-4.57-6.46-8.49-13.35-12.99-19.86-6.22,3.89-15.21-.57-19.72-5.48-5.05,2.75-8.57,2.06-13.25-.89-6.47-4.09-4.12-8.56-3.8-14.86-6.91-9.23-11.73-19.68-17.2-29.76-7.15,6.11-13.31,13.27-20.71,19.16-21.44,17.05-57.66,38.55-85.3,40.41-47.93,3.22-89.3-42.79-92.11-88.63-3.51-57.23,33.08-100.51,68.67-140.24,4.26-4.76,9.26-9.12,13.36-14.03,3.83-4.59,4.95-4.94,1.24-9.84-11.24-14.85-25.47-29.87-37.6-44.2-2.44-2.89-8.4-9.39-10.07-12.15-2.45-4.05-2.47-17.99-2.31-22.98.76-24.21,3.8-51.02,8.74-74.58,3.04-14.53,7.72-32.68,23.99-36.6,26.35-6.36,51.78,5.56,72.61,20.48,1.89,1.35,6.19,3.4,7.02,6.11.63,2.07.83,3.57,1.63,5.95,4.67,13.81,9.59,27.49,14.25,41.29,2.8,8.29,4.61,17.12,8.32,25.01,1.79-3.42,2.09-7.37,3.54-11.1,4.91-12.64,21.2-33.86,29.61-45.62,3.42-4.77,7.07-9.4,10.91-13.84l-.04-2.04c-1.5-1.08-2.74-2.99-3.8-4.51-3.41-4.84-8.34-10.29-7.15-16.56.74-3.88,15.84-14.13,19.67-14.7,1.45-.22,2.18.13,3.54.3.03-8.38-.06-17.12,1.08-25.44,2.03-14.77,7.19-19.65,21.26-23.68,31.92-9.14,62.19-.25,88.37,18.41,1.43,1.02,6.12,4.25,6.92,5.2,1.67,1.97,1.35,4.68-1.39,5.22-3.67.73-9.38-5-12.48-7-24.98-16.11-51.96-24.56-81.64-14.99-7.58,2.44-11.22,4.33-13.2,12.55-4.15,17.28-.44,36.75.71,54.19,7.92,11.25,14.89,23.08,22.62,34.46.41.6,1.04,3.25,1.58.92,1.11-4.78,1.11-8.18,4.34-12.33s13.08-7.78,18.21-10.56c2.53-1.37,9.16-6.4,11.48-6.15,1.24.13,1.82,1.16,2.69,1.4,1.73.47,3.6.09,5.68.88s3.6,2.51,4.82,4.29l6.3-5.3c-.23-13.21,1.86-29.58,12.11-38.9,1.81-1.65,6.17-5.3,8.1-6.54,2.73-1.74,4.21.15,5.7-.32.31-.1,3.59-3.86,4.61-4.51,7.13-4.56,17.33-7.06,25.26-10.07,2.37-.9,11.07-6.52,11.85-1.75.57,3.49-4,5.31-6.58,6.52-12.82,6.04-27.15,6.66-33.54,21.49-.63,1.47-4.28,12.13-3.79,12.62,3.27.16,6.32-1.05,9.35-2.01,6.81-2.16,15.82-5.53,22.29-8.51,2.62-1.2,5.87-3.73,8.11-4.54,1.12-.4,3.03-.2,3.18-.3.79-.57.17-4.89,3.88-5.75,5.15-1.18,6.72,4.12,2.69,7.24-1.88,1.46-3.92.83-4.09.96-.58.41-.47,1.93-.86,2.67-2.12,4.03-11.92,7.38-16.14,9.1-5.08,2.07-21.58,8.89-26.09,8.67-1.66-.08-2.67-1.58-4.32-1.48-.75,4.52-.83,12.88-7.57,9.34-.74-.71-1.05-2.48-1.03-3.5.06-3.68,2.15-10.73,3.19-14.53.87-3.19,1.98-6.76,3.38-9.75.16-.69-.03-.95-.74-.74-2.59.76-6.21,6.44-7.27,8.89-4.13,9.58-5.45,27.51-4.06,37.77,1.09,8.02,16.99,13.67,23.99,14.38,24.69,2.47,58.1-17.33,73.9-35.53,7.62-8.78,17.29-34.5,17.15-45.97-.11-8.94-11.93-11.31-18.93-11.86-2.99-.24-12.81.86-14.12-2.04-.9-1.99.3-4.27,2.49-4.56,6.15-.82,18.16.21,24.12,2.18,1.36.45,5.57,2.91,6.21,2.9,1.4-.03,1.45-2.22,2.48-3.06,1.36-1.11,7.85-3.15,9.75-3.37,5.19-.59,9.68,1.85,13.55,5.1,1.64,1.38,4.11,5.16,5.97,4.87.57-.09,6.18-3.96,6.3-4.37.51-1.68-4.43-3.46-4.56-7.5-.22-7.27,7.07-10.45,13.37-9.8,5.4.56,10.53,1.53,16.2,1.97,2.62.2,6.34,1.92,8.32-.26-1.29-.46-6.74-4.61-7.31-4.64-.52-.03-1.64,1.2-3,1.38-4.11.53-11.44-.4-14.88-2.83-1.47-1.04-3.84-4.35-5.46-4.68-1.08-.22-1.87.75-2.93.9-2.19.32-5-.62-6.94-1.61-.73-.37-.81-1.3-1.47-1.58-1.56-.64-4.16.13-4.83-2.2-.42-1.45-.25-7.17-.13-9,.23-3.45,1.4-10.58,3.32-13.34.9-1.29,2.56-2.81,3.75-4.31,2.57-3.23,6.18-.02,9.08.22,1.42-5.82,4.79-10.12,9.96-13.01,7.58-4.23,17.45-7.01,25.9-8.68l-.43-4.68c.64-2.45,9.97-4.34,12.42-4.79,10.66-1.94,17.12-1.56,26.9,3.13,1.14.55,3.41,2.56,3.91,2.76,3.63,1.45,11.87,1.69,16.37,2.71,5.3,1.21,10.05,3.6,15.22,4.86l.78-1.17c-5.39-7.32-9.79-14.82-5.6-23.88.89-1.93,2.55-3.67,3.65-5.44,4.53-7.3,11.52-16.85,19.72-21.18,13.6-7.19,37.48,2.17,49.67,9.79,6.11,3.82,12.05,8.11,16.71,13.61.92-.3,1.35-.89,2.44-1.01,5.93-.65,20.37.2,25.79,2.54,1.62.7,4.66,3.3,5.66,3.47,1.74.31,7.34-.59,10-.45,9.35.49,19.01,4.34,27.81,5.02,4.01.31,1.91-1.5,3.18-3.77.41-.73,9.13-7.45,9.99-7.68,1.5-.4,3.1.1,4.61-.19,5.76-18.68,17.56-35,28.98-50.6.79-1.68-1.2-3.14-1.54-4.75-1.54-7.32,7.42-11.54,12.9-14.13,3.97-1.88,14.73-6.42,18.65-7.1,6.36-1.09,8.98,1.12,12.97,5.22ZM1092.59,103.5c.12-21.33-9.95-44.52-25.73-58.84-13.03-11.83-44.13-25.93-61.48-28.88-13.44-2.29-26.67-.5-40.2-.68-4.03-.47-5.65-6.93-9.64-7.08-2-.07-16.93,6.31-19.6,7.69-1.37.71-6.13,3.32-6.66,4.48-1.07,2.36,5.47,7.18,4.08,11.62-1.06,3.37-4.36,1.1-6.07,2.51-13.32,18.82-30.6,42.09-29.03,66.4.54,8.43,3.4,16.7,6.68,24.38,5.05.97,10.07,2,15.02,3.4,6.94,1.97,13.41,4.98,20.19,7.32.57-.55-5.9-9.94-6.65-11.27-6.87-12.32-15.19-34.98-7.58-48.16,3.46-5.99,9.72-8.42,16.5-7.73,8,.82,19.37,15.82,25.49,21.46,16.93,15.59,44.5,31.29,65.11,41.92,17.54,9.05,29.73,12.57,48.59,17.54,1.3.34,2.28,2.09,3.44.53.43-.58,1.37-2.84,1.73-3.69,5.1-12.07,6.42-26.36,6.32-39.38-2.48,1.07-2.62,2.27-5.74,1.97-8.41-.8-25.7-8.22-31.85-14.11-2.8-2.68-3.59-7.54.99-7.58,2.5-.02,9.66,6.04,12.61,7.61,3.54,1.88,8.04,3.58,11.88,4.78s8.3,1.16,11.6,3.79ZM938,75.34c-4.54.63-8.08,3.21-9.56,7.6-5.55,16.44,16.98,17.87,19.74,5.11,1.46-6.78-2.62-13.75-10.18-12.71ZM807.91,85.32l16.91,29.28c1.07-1.18,2.26-2.24,3.99-2.01,5.97,2.45,12.04,4.54,18.36,5.92,3.38.74,8.07,1.6,11.54,2.09,6.15.87,12.47.78,18.57,2.02,1.34-.32.69-5.68.86-7.2.4-3.53,1.79-6.97,3.76-9.88.8-1.18,5.16-5.49,5.24-5.88.35-1.56-6.99-2.75-8.46-3.09-10.75-2.47-21.69-4.44-32.65-5.71l-.52,1,10.25,17.03c.92,5.1-3.21,7.09-6.67,3.14-4.58-5.23-7.15-13.72-12.42-19.39-7.91-8.51-18.04-7.07-28.75-7.34ZM891.69,85.32c-.4-.45-6.25,3.92-6.05,4.79l5.04,1.78,1.01-6.56ZM628.21,157.03c-.3-3.29.09-6.84,4.27-6.05,2.22.42,2.73,4.08,4.31,5.8,5.53,6.03,13.64,4.85,20.86,3.34,4.39,6.4,9.38,10.86,17.63,8.91,2.17-.51,5.9-3.22,6.77-3.3.79-.08,3.57,1.66,4.83,2.06,3.5,1.1,5.02,1.23,8.32-.54,4.98-2.67,4.1-5.68,5.82-10.34.96-2.59,3.05-4.79,2.92-7.67-.46-10.69-13.33-21.24-21.26-27.25-6.44-4.88-21.98-12.77-29.98-12.41-7.07.32-28.55,6.54-33.34,11.59-4.71,4.96-4.72,17.51-4.3,24.03.25,3.77.54,6.59,3.29,9.33,2.89,2.88,5.97,2.59,9.85,2.52ZM719.57,146.93c4.22,1,16.47,0,16.69-5.81.06-1.53-.76-8.99-1.16-10.48-1.47-5.48-14.62-14.21-19.73-16.62-1.02-.48-7.52-3.31-7.91-2.94,2.04,4.25,5.18,7.97,7.16,12.28s3.49,9.34,4.45,13.98c.65.59,8.18-5.63,10.46-.62,2.45,5.38-6.32,6.69-9.64,8.66l-.32,1.55ZM885.64,115.37c-.34,2.37.24,5.37,0,7.83l6.06.25c-2.13-3.45-2.42-8.46-3.79-11.87-.44-1.1-.53-.54-.88.13-.4.76-1.29,2.93-1.4,3.66ZM757.43,144.41c-3.43.37-5.97-2.23-9.08-3.03.12,1.29.31,4.77,1.49,5.3,2.11-.67,4.94-.49,6.9-1.21.71-.26.86.15.7-1.06ZM771.56,181.77c2.2-.32,4.92-.39,6.91-1.41,1.24-.64,1.88-1.82,3-2.55,1.57-1.02,3.9-.89,4.85-3.23.7-1.74.57-7.52.16-9.49-1.11-5.26-5.8-5.85-10.35-5.82-2.06.01-.15,4.59-.03,6.11.52,6.39-1.98,10.86-4.53,16.4ZM765.86,159.67c-1.09,0-7.61,2.19-7.85,3.22,1.23,4.81,2.62,11.12,1.31,15.99-.35,1.29-1.38,2.16-1.65,2.91-.6,1.69,2.45.76,3.27.22,2.52-1.65,6.81-8.8,7.36-11.82.38-2.05.28-10.51-2.44-10.52ZM1062.16,162.69c-3.35.75-3.06,5.41-4.01,8.11-2.07,5.84-6.55,14.51-10.73,19.06-2.44,2.66-8.68,5.95-7.6,10.11.73,2.8,3.26,3.63,5.85,2.79,1.52-.49,8.23-7.04,9.55-8.63,3.93-4.7,12.4-19.87,12.67-25.73.17-3.81-1.56-6.65-5.73-5.71ZM659.5,167.13l-6.56,1.76,6.56,1.27v-3.03ZM751.88,169.66c-2.44.92-4.19,3.13-6.54,4.31-11.85,5.95-39.7,5.09-53.29,4.8-14.33-.31-27.77-1.25-41.87-2.55-7.42-.68-14.83-.91-22.21-1.51-4.38-.36-10.69-2.09-14.65-2.06-2.66.02-4.75,1.52-1.93,3.5,7.68,5.4,23.28,3.6,32.14,3.81,7.1.17,14.2,1.53,21.26,1.85,18.29.82,37.28.59,55.52.46,9.29-.06,18.51.47,27.79.53l1.03-.48c-.73-1.7,2.75-4.98,2.75-5.33v-7.32ZM467.75,314.54c.58.34,1.23-.15,1.75-.41,5.11-2.53,13.94-10.38,19.23-14.09,21.04-14.7,43.15-27.85,65.44-40.58,12.27-7.01,27.73-16.94,40.54-22.06,2.98-1.19,3.19-.26,5.35-.67,1.39-.26,4.04-2.08,5.73-2.42-1.1-4.39.36-9.21.21-13.38-.38-10.57-10.36-31.14-20.36-35.71-4.11-1.88-7.92.35-11.74,2.1.86,3.37,2.75,6.23,2.83,9.89.24,10.97-8.79,36.75-14.95,46.14-14.33,21.83-58.16,47.1-84.62,43.34-11.47-1.63-31.07-8.97-30.68-23.09-.77-.21-.84.2-1.27.5-1.31.9-4.06,3.96-5.31,5.3-1.1,1.18-5.51,5.97-5.5,7.08,0,1.24,3.86,7.81,4.8,9.3,2.41,3.81,6.37,9.01,9.53,12.18,5.11,5.14,13.1,9.53,17.76,14.29.59.61.92,1.52,1.25,2.29ZM635.78,187.84c-3.21-.22-6.11.72-9.36.52s-6.1-1.91-9.53-1.49c-4.46.55-9.08,4.57-12.9,6.77,6.74,11.14,11.38,24.33,8.6,37.44l.71,1.14,7.1-2.43c-2.25-9.33,2.2-19.61,6.61-27.74,2.67-4.93,6.46-9.16,8.77-14.2ZM766.51,189.86c-9.76.69-19.73.72-29.55.52-5.14-.11-10.95-.9-16.11-1.05-3.87-.12-7.77.11-11.65.04l-11.57-1.05-51.4-.38c-8.89,10.24-17.6,23.14-18.97,36.93.73,1.61,1.94.12,3.26-.12,43.46-7.81,87.28-5.39,126.74-28.24,3.09-1.79,6.82-4.15,9.24-6.66ZM1030.37,208.12c-5.51,1.13-2.71,10.24,2.61,7.19,4.26-2.44,1.38-8.01-2.61-7.19ZM359.16,225.72c-2.9,1.24-15.39,8.46-16.07,10.97s6.78,11.67,8.76,13.76c.47,0,5.57-6.31,6.01-7.1,1.09-1.94,1.06-4.28,2.75-5.86l-1.44-11.77ZM1003.75,232.79l-8.07-2.53c-.86,5.1,5.36,5.12,8.07,2.53ZM273.36,265.1l-.22-4.54c-17.79-15.2-40.03-26.73-64.15-25.27-13.9.84-17.96,4.51-22.68,17.21-3.13,8.41-3.67,17-5.94,25.37-.39,1.45-1.59,2.3-1.85,4.2-2.42,17.33-3.94,39.93-4.61,57.51-.25,6.54-.97,14.35,2.55,19.97l1-.25.51-19.69c4.66-25.52-2.55-80.07,23.56-95.1,12.17-7.01,24.26,2.44,36.11,6.09,8.84,2.73,16.5,3.3,24.95,7.86,3.71,2,6.93,4.87,10.76,6.65ZM343.86,474.34c-2.28-3.77-11.59-9.53-15.72-12.29-8.51-5.68-40.09-24.93-42.43-33.81-.54-2.06-.05-4.19-.29-6.28-1.35-11.7.29-17.48,7.64-26.8,1.65-2.1,6.8-6.64,7.59-8.56,3.9-9.41,2.4-30.33-.29-40.19-4.02-14.72-9.78-31.29-14.75-45.84-3.02-8.84-6.83-17.41-9.47-26.39-.58-.69-2.88-.5-4.16-.89-3.7-1.13-9.89-6.7-13.94-8.78-6.85-3.53-14.15-4.16-21.42-6.35s-20.54-9.31-27.12-8.72c-1.31.12-3.48.36-3.07,2.03,1.18,4.75,4.27,11.32,6.26,15.99,7.75,18.14,18.7,35.27,26.26,53.01,1.06,2.5,3.18,5.94.81,8.24-2.04,1.99-5.01.24-6.21-1.83-11.31-23.43-24.51-46-33.37-70.57l-1.03-.29c-9.05,13.8-9.88,31.15-11.11,47.22-.54,7.02-.58,14.16-1.02,21.2-1,15.88-3.19,31.8-1.28,47.75,30.31,38.44,64.98,73.15,89.7,115.79,12.91,22.27,26.63,46.75,38.54,69.52,13.45,25.72,21.86,54.22,38.35,78.28,2.66-2.77,4.03-6.12,6.55-9.09,5.66-6.67,19.44-16.95,27.36-20.61,1.52-.7,3.83-1.52,5.48-1.62,5.13-.3,14.1,4.25,14.4,9.84s-5.86,7.75-5.53,10c.14.9,7.79,10.89,8.53,11.25l1.01.03c2.18-1.56,4.46-1.85,6.72-3.43,6.17-4.33,3.11-5.01,1.6-10.51-2.94-10.72-4.6-22.21-7.56-32.83-1.16-4.18-1.25-6.73-5.79-7.84-17.36-4.26-38.96-5.57-55.31-12.84-4.7-2.09-9.31-10.78-11.93-15.34-7.01-12.21-20.37-36.46-16.84-50.35,1.44-5.68,8.6-11.74,12.64-16.14,2.13-2.31,5.43-8.69,9.3-5.78,3.85,2.9-1.81,8.54-3.75,10.83-3.68,4.36-11.22,10.05-11.4,15.9-.48,15.65,16.02,40,23.99,53.3,8.04,3.17,16.47,5.53,24.9,7.41,10.06,2.25,22.74,3.18,32.23,6.13,4.97,1.54,6.85,5.16,8.4,9.78,3.98,11.89,5.06,25.86,9.05,37.91,3.98,9.31,24.29,5.64,32.45,6.42l35.09,3.03c-.49-9.7-1.3-19.32-1.03-29.06.56-20.67,1.92-44.13,9.1-63.62,6.35-17.24,21.1-38.27,33.57-51.76,2.77-3,9.02-7.64,10.87-10.33.29-.42.69-.53.49-1.26-4.3-2.16-8.53-4.47-13.23-5.71-15.55-4.09-43.07-1.55-58.44,3.43-23.14,7.48-42.87,29.56-62.94,42.07-2.31,1.44-5.42,3.06-7.25-.13-2.23-3.89,4.45-7.12,6.99-8.94v-1.36c-20.29-12.18-36-30.47-49.62-49.56l-8.56,13.65c.17,2.22-1.64,4.51-1.77,6.35-.17,2.47,2.34,10.55,3.15,13.43,1.51,5.37,4.72,11.05,3.9,16.55.96.94,16.59-3.19,19.37-3.01,3.69.24,5.44,4.57,2.2,6.66-2.2,1.42-15.53,3.51-18.86,3.86-5.86.62-19.66.96-24.59-2.03-2.94-1.78-2.52-5.82.79-6.68,1.83-.47,14.88,3.45,15.02.95-2.12-4.62-3.75-9.62-5.17-14.51-1.02-3.54-2.67-13.57-4.07-15.89ZM392.98,284.3c-5.12,5.76-9.23-2.38-12.01-6.41-6.34-9.17-11.12-19.51-18.52-27.92-6.67,8.2-13.93,16.2-20.16,24.77-2.91,4-5.29,8.51-8.16,12.55-6.47,9.13-18.61,23.46-22.01,33.53-1.26,3.73-2.24,12.83-4.41,15.28-.53.6-2.02,1.24-2.08,1.57-.21,1.01,2.76,9.27,3.22,11.36,1.35,6.18,1.77,12.54,1.88,18.87l-1.03,10.83c.83.15,1.35-.4,1.97-.8,7.91-5.11,15.83-12.78,23.52-18.39,1.2-.88,2.66-.89,3.99-2.06,8.07-7.12,13.69-19.92,18.89-29.08,5.75-10.15,13.32-19.74,21.03-28.45,3.7-4.19,10.16-9.53,13.16-13.6.5-.69.94-1.06.73-2.04ZM435.89,262.08l-3.56-.79c-.87,1.61-1.06,3.53-.99,5.33.95.98,4.9-4.17,4.54-4.54ZM811.93,280.26c-.73-.69-.92.03-1,.74-1.27,10.53-.06,21.73-.53,32.36,1.85,13.15-1.03,28.73,1.76,41.67.83,3.86,5.18,7.12,8.12,9.55,5.82,4.82,12.87,9.38,19.92,12.13-1.91-7.31-2.67-14.85-4.28-22.22-1.41-6.43-3.25-12.85-5.05-19.18-5.31-18.66-11.57-37.13-18.93-55.05ZM574.71,337.33c11.86-2.26,23.16-4.83,31.55-14.15.62-1.44-1.8-.55-2.39-.63-7.79-1.11-15.46-2.7-23.17-4.16l-15.06,11.61,3.02,2.27c-5.24-1.54-7.93.97-11.6,4.3,6.19,6.78,14.42,11.2,21.64,16.72,3.95,3.02,7.61,6.81,11.41,9.8.84.66,3.58,2.47,4.4,2.44,2.79-.12,4.32-2.11,8.03-1.62,3.25.42,5.47,2.04,8.52,2.72-.99-1.35-2.28-2.69-3.58-3.74-3.67-2.96-12.7-7.09-14.34-10.9-.5-1.17-1.29-6.02-1.73-6.34-1.41-.76-3,.2-4.26.12-1.87-.11-9.61-5.25-11.39-6.68-.59-.48-1.22-.82-1.04-1.73ZM635.79,323.69c.77-.57,14.99,7.88,17.01,9,.98.64,3.84-.57,2.94-1.95l-15.64-10.36c-1.1.17-2.23.29-3.33.51-9.5,1.91-11.03,6.56-17.98,11.8-3.43,2.58-9.6,6.43-13.45,8.26-.56.27-7.64,2.1-6.4,3.44l20.6,5.94,4.64-.9c.21-1.31-1.35-1.65-1.76-2.53-.93-2.02,2.18-10.43,5.47-9.95l10.42,2.38c-.25-2.13-3.84-2.6-4.29-4.48-.2-.83.65-2.71.76-3.86.24-2.54-.22-4.8,1.02-7.32ZM367.24,329.25c-.89-.63-2.65,2.91-3.11,3.7-2.73,4.74-4.57,10.03-7.58,14.64-2.69,4.13-6.46,7.83-9.42,11.79l-.06,1.16c4.5,2.15,4.81,4.94,10.8,4.03,4.93-.75,14.77-10.65,17.35-14.96,2.4-4.02,6.1-13.27,3.09-17.54-2.06-2.93-9.69,3.35-11.08-2.81ZM884.77,421.52c5.31,3.82,9.67,8.58,16.79,8.74,4.37.1,5.32-2.4,8.17-2.92,5.39-.99,7.9,1.36,12.92-3.23,6.82-6.24,6.5-17.74,3.09-25.65-5.85-13.6-26.05-22.83-35.27-7.55-1.61,2.66-1.02,5.83-5.87,5.74l-.41.6c-.19,8.02-1.75,16.46.58,24.29ZM296.07,540.85c-.76-.21-.84.2-1.26.5-4.69,3.24-11.12,11.37-16.16,15.65-18.81,16-48.97,34.72-72.54,42.06-29.85,9.3-53.54-9.36-52.4-40.3,1.79-48.65,45.15-86.68,73.14-122.26,1.75-2.4-1.19-4.56-3.14-5.71-17.99,19.02-35.41,38.53-51,59.61-20.54,27.77-34.73,56.23-32.63,92.13,2.48,42.46,39.98,85.84,84.59,83.08,27.66-1.71,68.35-26.67,88.57-45.22,4.84-4.44,8.98-9.65,14.15-13.74l-.26-2.18c-5.97-11.7-10.26-24.22-15.98-36.02-4.58-9.44-10.4-18.21-15.08-27.59ZM970.94,435.3c-17.83,2.48-30.23,14.57-47.44,18.94-1.1.28-6.05.79-6.05,1.51,2.77,2.59,4.19,6.2,6.56,9.08,2.13,2.58,9.83,9.36,12.75,10.48.85.33,1.48.61,2.4.18,9.64-6.49,18.41-14.33,25.2-23.8,3.37-4.7,7.28-10.35,6.58-16.39ZM232.79,441.39c-.42.07-4.89,5.16-5.63,6.02-25.53,29.56-63.34,69.86-65.86,110.36-1.14,18.25,9.49,36.78,29.52,36.65,16.04-.1,48.87-18.64,62.5-27.91,13.88-9.45,26.88-20.09,38.14-32.58l-13.28-23.86c-13.8,14.78-29.39,29.38-48.61,36.73-24.3,9.29-43.97.06-38.26-28.18,5.26-25.99,27.09-50.64,41.44-72.67,1.29-1.99,4.12-2.47.04-4.54ZM260.23,478.22c1.36,4.86-1.84,7.54-4.79,11.12-4.6,5.58-13.04,15.64-18.43,19.95-4.76,3.81-8.9.41-6.06-4.55,5.12-5.13,10.11-10.47,14.9-15.9,2.32-2.64,6.67-9.14,8.79-10.9,2.13-1.77,3.63-1.31,5.59.28-.85-3.04-3.93-6.47-5.81-9.08l-33.4,26.17c-6.08,3.57-8.6-3.91-3.2-7.24l32.09-25c.33-.37.11-.62-.01-.97-.36-1.04-4.79-6.56-5.84-7.84-.82-1-2.96-3.78-3.77-4.31-.7-.46-.23-.64-1.02,0-.67.53-4.31,7.19-5.38,8.76-13.29,19.47-31.83,39.6-35.69,63.78-3.28,20.5,11.47,23.62,27.7,17.61,19.67-7.28,34.82-22.35,48.83-37.36.1-1.23-10.52-19.38-12.06-21.63-.71-1.03-1.46-2.07-2.44-2.87ZM766.51,478.22c.55-.57-3.17-4.47-3.8-5.04-2.2-2-4.8-3.63-7.69-4.47-28.24,4.31-52.66,16.72-76.86,30.97-.65.38-1.27-.09-.99,1.25,2.48-.05,7.34-1.17,9.45-2.41,1.18-.69,1.31-1.77,2.13-2.41,9.38-7.33,37.91-17.46,49.89-19.78,9.23-1.79,19.48-3.32,27.86,1.87ZM678.68,508.53c-6.15,1.45-14.43-3.66-10.1-10.36,1.6-2.47,13.75-9.87,17.01-11.77,6.46-3.76,13.48-6.66,19.83-10.45l-6.17-2.19c-24.18,12.99-45.28,30.85-66.01,48.64l-11.36,12.4.71,6.72c11.56,3.72,23.72,6.37,35.88,6.13,19.26-21.12,44.23-36.13,69.63-48.77.66-.92-4.99-9.87-7.16-9.48-4.37,1.97-8.96,3.45-13.34,5.39-6.16,2.74-8.8,4.13-13.83,8.38-.81.68-4.39,2.11-4.5,2.57,5.87,6.17-3.57,9.13-8.45,10.73-6.01,1.97-13.72,3.76-19.06-.89-4.49-3.91-4.22-12.23,2.07-9.62,2.3.95,1.95,4.62,6.06,5.05,2.23.23,7.3-.53,8.77-2.49ZM730.17,486.31c-.28.38,4.37,7.84,4.75,8.12.87.62,1.98.3,2.79.75.99.54,2.03,1.65,3.23,2.33,1.66.93,4.14,1.42,5.09,2.99,1.25,2.06,1.47,9.76,1.3,12.33-1.75,26.43-29.9,53.13-48.19,70.47-22.37,21.22-54.22,46.96-81.19,61.69-29.61,16.16-62.23,20.39-51.17-25.95.28-1.18,4.3-10.69,1.12-9.99-21.5,18.83-44.3,71.91-6.95,86.23,28.58,10.96,64.24-13.99,86.61-30.26,31.96-23.25,66.69-56.51,91.18-87.55,16.75-21.23,33.69-61.67,12.89-85.09-4.39-4.94-5.2-4.53-11-6.67-.65-.24-1.1-1.13-1.74-1.32-2.09-.61-6.4,1.78-8.72,1.94ZM631.24,569.63c-.86-.42-5.87-3.05-6.33-3.51-.8-.8-1.48-2.81-2.5-4.07-4.05-5.04-3.31-2.61-6.06.52-17.03,19.36-35.51,31.69-42.32,58.66-9.16,36.29,14.81,30.51,37.35,18.68,33.48-17.57,72.96-51.2,99.11-78.6,14.54-15.24,31.87-34.02,28.75-56.83-.87-.22-1.01.36-1.51.75-1.27.99-3.28,2.87-4.55,4.04-13.41,12.35-25.4,24.07-37.59,37.64-1.31,1.45-5.87,4.81-5.07,6.55s5.38,3.76,2.83,7.37c-3.06,4.31-8.03-2.41-8.8-2.27l-21.12,23.34c-1.78,3.72-3.34,17.12-6.98,18.78-2.42,1.11-4.97-1.08-5.07-3.54-.11-2.77,5.23-15.43,4.01-16.85l-8.2-3.13c-6.12,8.75-13.95,16.07-21.28,23.77-2.24,2.35-8.25,10.44-11.14,10.6-2.39.14-4.14-2.39-3.66-4.67.58-2.77,14-15.46,16.83-18.54,4.27-4.64,8.49-9.42,12.33-14.41-.05-.61-6.1-3.36-7.19-3.89-.7-.34-1.57-.25-1.86-.39.37.13,1.97,2.61,2.01,3.32.09,1.31-.82,2.44-1.76,3.25-5.45,4.75-14.32,9.47-20.39,13.94-6.55,4.82-12.87,9.99-19.05,15.28-3.4,1.76-7.3,0-6.03-4,.82-2.59,17.25-14.93,20.53-17.34,2.9-2.14,19.07-13.82,21.02-14.32.68-.18,3.12-.31,3.66-.12ZM597.29,508.13c-3.43.51-13.68,9.45-16.54,12.25-1.34,1.31-3.75,3.23-3.87,5.13-.13,2.03,2.83,8.4,5.09,8.27,2.05-.12,9.74-5.95,11.64-7.59,4.61-3.97,8.38-8.84,12.36-13.4.15-.66-4.84-4.05-5.68-4.37-1.21-.47-1.75-.47-3.01-.28ZM718.56,512.57c-4.76,2.09-9.33,4.93-13.78,7.67-15.68,9.64-29.9,20.3-42.29,33.98l-.4.94,3.96,11.2,52.5-53.79ZM620.64,523.68c-4.66,0-5.26-5.37-8.83-7.08-6.03,9.67-15.18,17.71-24.98,23.48l5.01,4.57,8.47.91c3.37-3.07,6.8-5.98,9.99-9.27.99-1.02,10.92-12.05,10.34-12.63ZM583.79,548.41c-.62-.93-4.29-6.16-5.54-5.04-5.72,12.75-15.58,24.26-18.17,38.38,2.92-3.44,4.9-8.09,7.36-12.08,3.47-5.64,8.56-14.27,12.61-19.2,1.05-1.28,2.07-1.86,3.75-2.06ZM573.69,601.95c5.62-11.78,14.82-21.66,23.72-31.07,5.45-5.76,11.26-11.36,17.17-16.65-1.44-1.29-4.24-6.02-6.18-5.74-.98.14-2.75,1.52-4.28,1.83-1.27.26-2.66-.11-3.82.22-.94.27-1.42,1.61-3.16,1.89-3.61.58-6.96-.35-10.32-1.48-.05.71.14,1.56-.04,2.24-1.17,4.51-10.31,16.05-13.3,21.04-6.02,10.04-10.1,16.03-1.53,26.69.48.59.82,1.22,1.73,1.04ZM653.79,555.66c-1.92-1.29-4.9-.42-7.15-.68-8.56-1-17.65-3.91-26-6.05-.23.87.36,1.01.75,1.52,2.81,3.65,7.58,6.65,10.22,10.62l26.74,12.53c1.99.1.51-3.97.21-5.29-.42-1.87-2.11-9.26-2.7-10.43-.07-.14-1.94-2.13-2.07-2.21ZM388.3,612.16c-.71.16-5.35,3.07-6.37,3.73-9.18,5.89-22.95,19.6-26.53,30.02-.9,2.61-1.41,5.02,1.27,6.78,4.01,2.63,5-2.51,6.63-4.94,4.33-6.43,11.12-13.69,16.81-19.04,5.29-4.97,11.5-10.12,17.93-13.38-1.09-3.22-6.94-3.81-9.74-3.17ZM512.62,706.99l-1.48-23.51c-8.1-1.54-16.3.11-24.53-.2-18.01-.67-52.62-5.99-65.1-19.71l-27.32-34.82c-.91-.27-7.29,4.56-8.5,5.54-1.38,1.11-6.81,5.73-7.14,7.03l.02.55c1.86,1.13,2.91,2.73,4.14,4.46,9.71,13.63,19.1,34.37,30.7,46.05,16.14,16.25,61.12,12.02,82.83,13.09,2.19.11,15.78,2.1,16.38,1.53ZM414.19,641.35c-.38.34,1.66,2.79,2.03,3.27,5.41,6.98,11.43,16.05,19.23,20.15,13.84,7.26,49.42,12.71,64.82,10.94,3.52-.4.42-2.56-.15-4.44-2.13-7-3.43-17.72-4.6-25.19-.31-2-.2-4.36-.65-6.42l-.74-.78c-18.13-1.46-36.19-3.78-54.44-3.1-4.4-.62-8.63-.87-12.65-3.03-1.07.03-1.32,1.34-1.99,2.04-2.92,3.06-6.49,6.17-10.86,6.56ZM380.87,659.02c.53-.71-3.11-6.46-3.82-7.53-.59-.88-2.5-4.33-3.48-4.08-1.01,2.06-3.91,3.05-3.03,5.53,1.36,3.81,6.93,5.16,10.33,6.09Z"/>
      <path class="cls-2" d="M752.78,381.41c27.11-2.12,68.38,14.94,89.45,31.91,3.5,2.82,11.16,9.22,13.85,12.41,2.3,2.72,2.1,7.16-1.94,7.02-3.17-.11-13.52-11-16.72-13.6-15.68-12.69-38.02-22-57.39-27.42-20.03-5.6-35.53-2.5-54.66,4.17-29.66,10.34-58,28.07-84.5,44.75-35.35,22.25-71.2,44.82-101.83,73.36-2.62,1.58-5.6-.72-5.21-3.66.26-1.94,7.67-8.88,9.57-10.66,25.35-23.71,63.51-46.59,93.23-65.3,30.85-19.42,79.7-50.12,116.15-52.97Z"/>
      <path class="cls-2" d="M526.13,182.9c.88-.22,1.42-.12,2.26,0,18.33,2.61,23.29,23.81,19.92,39.38-3.93,18.12-27.05,47.36-46.52,48.9-15.19,1.2-29.91-7.63-43.64-12.94-2.97-2.76-1.42-6.67,2.62-6.67,21.01,6.8,36.62,21.1,56.91,3.69,14.81-12.71,32.13-37.2,20.59-56.97-4.08-6.98-5.78-6.22-12.38-8.83-3.86-1.53-3.19-5.68.24-6.56Z"/>
      <path class="cls-2" d="M793.63,210.67c5.48-1.22,10.11,6.41,12.66,10.34,9.72,14.94,16.27,31.32,23.89,47.3,10.88,22.81,23.7,48.02,30.57,72.44.63,2.24,1.88,4.82.68,6.95-1.44,2.56-4.95,2.3-6.46-.15s-2.63-8.33-3.78-11.37c-12.24-32.27-26.02-65.07-42.35-95.5-3.02-5.63-9.43-18.13-13.81-22.04-1.23-1.1-3.52-1.48-4.09-3.53-.52-1.86.83-4.03,2.68-4.45Z"/>
      <path class="cls-2" d="M915.27,218.75c2.15-.64,3.74.16,4.92,1.94,2.75,4.15,5.52,12.21,8.09,17.16,9.74,18.71,37.77,60.9,58.2,67.01,3.13.94,7.17,1.54,10.41,1.11,3.06-.41,7.58-4.14,10.18-1.01,3.34,4-3.14,7.09-6.33,7.9-5.51,1.39-11.01.78-16.4-.81-21.92-6.49-49.65-46.53-60.44-66.29-2.7-4.94-8.91-16.18-10.17-21.14-.49-1.93-.92-5.14,1.53-5.86Z"/>
      <path class="cls-2" d="M887.53,150.05c2.66-.54,3.96,1.28,5.09,3.28,15.52,27.49,21.44,85.69,16.67,116.5-.48,3.09-1.89,13.82-5.25,14.46-7.87,1.5-2.99-10.74-2.4-14.53,4.7-30.17-.17-73.67-11.08-102.25-1.36-3.56-6.65-12.93-5.17-16.04.27-.57,1.5-1.3,2.14-1.42Z"/>
      <path class="cls-2" d="M789.6,227.31c1.87-.34,4.1,1.28,4.22,3.2.14,2.28-1.84,4.3-3.1,6.04-2.67,3.67-8.76,9.24-10.51,12.72-3.85,7.69.62,30.52,2.09,39.68,1.78,11.07,6.21,25.59,6.91,36.01.15,2.2.51,4.23-1.55,5.5-2.63,1.62-4.87-.18-5.66-2.83-1.93-6.39-3.45-16.66-4.73-23.55-1.95-10.48-3.91-21.67-5.13-32.23-.88-7.61-2.19-15.89.29-23.3,1.48-4.43,10.03-14.46,13.51-18.3.82-.91,2.48-2.73,3.66-2.95Z"/>
      <path class="cls-2" d="M964.05,366.44c2.04,1.74,3.09,1.89,4.79,4.55,10.89,17.1-5.25,39.53-22.37,26.42-14.35-10.98-4.69-38.23,12.5-34.73,2.82.57,3.5,2.41,5.08,3.75ZM954.66,370.26c-3.47.59-6.14,4.94-7.09,8.07-4.5,14.86,15.31,21.7,17.27,6.68.72-5.51-3.64-15.86-10.18-14.75Z"/>
      <path class="cls-2" d="M803.72,484.39c2.12-.63,3.85.08,4.8,2.06,1.73,3.6,2.37,12.85,3.92,17.79,4.61,14.64,15.51,30.67,27.82,39.84,3.02,2.26,12.24,5.84,9.26,10.36-2.64,4.01-9.21-1.21-11.99-3.09-14.95-10.13-28.2-29.88-33.01-47.27-1.01-3.64-3.05-12.09-3.12-15.57-.03-1.4.91-3.7,2.33-4.13Z"/>
      <path class="cls-2" d="M381.24,192.99c3.61-.79,9.03,4.8,11.75,7.22,5.03,4.46,17.49,18.26,23.2,19.72,3.37.86,14.6-.94,18.29-1.93,3.15-.85,7.88-5.38,10.51-2.14s-.79,5.69-3.4,7.24c-4.8,2.84-19.59,5.21-25.13,4.64-11.1-1.14-26.99-22.31-36.36-28.77-1.98-1.77-1.64-5.36,1.13-5.97Z"/>
      <path class="cls-2" d="M877.94,497.49c5.27-.94,5.97,9.83,6.18,13.31.88,14.12-4.32,30.25-11.01,42.5-1.52,2.79-7.5,13.43-9.81,14.43-2.82,1.22-5.4-1.41-4.82-4.29,9.68-15.76,19.37-33.38,18.07-52.64-.23-3.41-3.55-12.43,1.39-13.31Z"/>
      <path class="cls-2" d="M744.95,71.33c3.55-3.01,13.93,1.04,17.86,2.79,7.95,3.54,22.37,13.53,27.42,20.54,1.2,1.67,1.79,2.52,1.04,4.56-1.95,5.31-6.41,10.49-10.89,13.86-2.27,1.71-4.78,3.97-7.33,1.3-4.94-5.16,10.35-10.98,9.9-16.43-7.77-7.66-17.9-15.87-28.55-18.95-2.43-.7-7.14-1.01-8.77-1.84-2.25-1.13-2.51-4.29-.68-5.84Z"/>
      <path class="cls-2" d="M517.03,566.68c3.71-.66,4.29,2.96,4.19,5.75-.36,9.73-3.11,20.73-3.57,30.76-.45,9.57,1.77,21.13.48,30.28-.41,2.94-3.26,5.74-5.98,3.55-3.03-2.44-.96-7.88-.99-11.08-.07-7.42-1.39-14.73-1.08-22.24.37-8.87,1.67-24.23,3.68-32.68.41-1.73,1.28-3.99,3.27-4.34Z"/>
      <path class="cls-2" d="M629.09,252.57c5.65-1.13,7.93,6.47,6.98,11.05-2.92,13.91-26.59,30.74-36.96,39.79-2.88,1.65-5.83-1-5.21-4.19.22-1.12,3.47-4.09,4.53-5.07,5.22-4.84,11.29-8.87,16.43-13.87,3.45-3.36,13.73-14.42,13.91-18.97.1-2.46-1.56-2.33-1.96-3.62-.65-2.12-.11-4.63,2.29-5.12Z"/>
      <path class="cls-2" d="M722.98,404.58c2.58-.42,9.09,3.05,11.39,4.55,7.97,5.19,31.29,30.41,32.16,39.55.28,2.97-1.09,4.91-4.29,4.29-2.45-.47-5.6-8.15-7.13-10.56-4.84-7.64-17.99-22.88-25.6-27.41-2.04-1.21-8.11-3.22-9.16-4.46-1.99-2.33-.13-5.51,2.63-5.96Z"/>
      <path class="cls-2" d="M1111.69,430.16c.85-2.31,2.36-4.53,2.88-6.96.62-2.89-.34-7.99,4.03-8.14,3.86-.14,3.97,4.54,3.76,7.35-.24,3.17-2.82,10.43-5.68,11.99-.69.37-1.68.25-2.35.68-.9.58-1.03,1.98-3.05,2.51-4.89,1.29-19.92.02-25.36-.92-3.41-.59-13.59-2.29-10.52-7.71,2-3.52,7.69-.42,11.02.13,8.36,1.38,16.8,1.31,25.26,1.07Z"/>
      <path class="cls-2" d="M956.13,174.35c2.8-.15,6.67,5.58,8.16,7.77,5.38,7.94,14.19,28.02,14.69,37.36.27,4.93-4.4,6.56-6.64,3.07-1.56-2.43-2.7-10.04-3.78-13.39-2.29-7.1-5.37-14.64-9.33-20.97-1.14-1.82-5.93-7.43-6.24-8.4-.82-2.61.22-5.27,3.13-5.44Z"/>
      <path class="cls-2" d="M691.56,304c.22,0,2.07,3.43,2.17,3.88.74,3.24-.96,16.02-2.06,19.45-.28.88-1.07,2.78-1.87,3.18-1.46.72-7.65-1.02-9.43-1.68-2.27-.85-14.91-8.2-15.3-9.95s7.92-2.51,9.21-2.89c1.73-.51,3.38-1.03,5.05-1.5,2.7-.76,6.9-1.73,8.68-3.95.81-1,2.71-6.53,3.55-6.54Z"/>
      <path class="cls-2" d="M667.44,469.75c4.44-.95,6.99,3.35,3.43,6.46-4.44,3.87-13.88,7.59-19.4,11.4-4.83,3.34-9.05,7.52-13.82,10.93-3,1.31-5.63-1.71-4.68-4.68.79-2.48,12.98-11.64,15.78-13.52,3.01-2.02,15.99-10.01,18.69-10.59Z"/>
      <path class="cls-2" d="M758.29,240.47c2.71-.81,5.05.88,5.11,3.67.07,3.38-2.72,9.76-2.96,14.13-.26,4.88,1.23,9.1,1.52,13.66.41,6.33-4.86,8.05-6.95,2.92-2.2-5.4-2.36-15.71-1.47-21.46.41-2.65,2.19-12.15,4.75-12.92Z"/>
      <path class="cls-2" d="M317.63,425.81c1.22-.36,2.86-.21,4.05.28,6.77,4.94,14.98,8.85,21.8,13.54,1.85,1.27,3.15,2.02,3.13,4.51-.03,3.42-2.67,3.72-5.47,2.88-3.18-.96-19.34-11.36-22.51-13.83-2.29-1.79-4.9-6.23-.99-7.38Z"/>
      <path class="cls-2" d="M520.04,236.43c3.61-.83,5.63,1.58,4.58,5.09-.49,1.65-10.45,7.91-12.55,9.15-3.1,1.84-12.48,8.08-15.35,4.33-3.69-4.81,4.86-6.91,7.65-8.49,3.03-1.72,13.83-9.66,15.67-10.08Z"/>
      <path class="cls-2" d="M401.41,250.81c-2.52,2.79-6.45.43-6.36-3.07.04-1.51,3.85-12.32,4.72-13.97,2.45-4.63,7.25-2.34,6.86,2.8-.11,1.49-4.37,13.3-5.22,14.25Z"/>
      <path class="cls-2" d="M726.49,440.96c3.62-1.07,7.42,4.17,8.82,7.12,1.9,4.02-.63,8.1-4.41,5.92-.85-.49-5.64-6.71-6.01-7.62-.72-1.77-.48-4.81,1.6-5.43Z"/>
      <path class="cls-2" d="M529.62,538.16c-2.66,2.27-6.67.59-6.3-3,.13-1.23,3.69-7.04,4.67-7.97,2.76-2.63,6.62-.91,6.38,2.8-.07,1.03-3.88,7.43-4.75,8.17Z"/>
      <path class="cls-2" d="M979.9,250.84c-1.36,1.46-4.44,1.28-5.59-.51-1.33-2.08-2.74-9.32.16-10.73,5.67-2.75,8.01,8.46,5.43,11.23Z"/>
      <path class="cls-2" d="M264.66,336.45c7.3-.83,19.71.54,25.37,5.65,4.14,3.74,1.3,9.21-4.92,5.93-4.45-2.35-6.57-3.69-12.02-4.14-14.57-1.19-16.52,3.45-18.77,16.55-2.85,16.56-1.22,33.13-1.13,49.83l40.76,59.71c3.73,5.9-3.29,8.87-6.67,3.65-11.72-18-25.15-35.08-36.75-53.12-6.44-10.01-4.51-10.38-4.92-21.85-.5-14.22-1.13-28.06,1.72-42.17,2.1-10.41,5.52-18.69,17.33-20.04Z"/>
      <path class="cls-2" d="M403.97,544.99c4.14-.77,17.21,4.65,20.78,7.26,7.15,5.24,12.22,17.48,15.2,25.7.95,2.63,3.54,9.02,2.79,11.4-.81,2.56-4.38,3.14-6.07.97-3.49-7.19-5.43-15.1-9.08-22.22-5-9.75-8.96-11.48-19.06-14.76-1.94-.63-5.73-.85-6.97-2.12-2.28-2.33-.57-5.67,2.42-6.23Z"/>
      <path class="cls-2" d="M210.12,312.18c2.67-.79,3.9.58,5.4,2.46,4.03,5.05,8.36,13.69,12.3,19.51,2.5,3.69,9.18,11.28,10.63,14.61,2.17,5.01-2.22,8.27-6.24,4.22-5.04-5.07-13.09-17.85-17.11-24.29-1.75-2.81-10.68-14.83-4.98-16.51Z"/>
      <path class="cls-2" d="M350.93,575.82c1.4-.05,3.03,1.44,3.91,2.43,3.91,4.41,13.91,20.4,16.54,25.88.93,1.94,1.89,3.28.62,5.35-1.67,2.72-4.42,1.89-6.25-.22-6.41-7.36-11.06-19.99-17.79-27.65-1.31-2.46.09-5.7,2.97-5.79Z"/>
      <path class="cls-2" d="M444.85,603.04c5.2-.94,6.95,8.67,2.8,9.92-5.37,1.61-7.78-9.02-2.8-9.92Z"/>
      <path class="cls-2" d="M1020.79,33.38c3.02-.53,8.76,6.84,10.72,9.28,6.06,7.56,17.76,26.6,19.78,35.77,3.06,13.91-11.76,25.35-22.45,31.22-2.7,1.48-10.27,6.17-11.73,1.45-1.48-4.79,6.92-7.25,10.34-9.41,6.6-4.17,17.96-12.06,16.58-21.05-.99-6.39-11.05-23.11-15.11-28.81-2.01-2.83-10.13-11.4-10.8-13.45s.55-4.62,2.68-5Z"/>
      <path class="cls-2" d="M1065.2,105.62c2.77-.6,5.58,2.08,8.22,3.17,2.79,1.16,11.76,2.67,12.5,5.16.49,1.65.04,4.07-1.77,4.59-4.05,1.17-19.81-3.75-21.12-7.94-.68-2.19-.36-4.43,2.16-4.98Z"/>
      <path class="cls-2" d="M949.61,14.23c4.71-.93,7.68,3.29,4.21,6.22-.51.43-11.37,5.6-12.03,5.69-3.79.52-5.66-3.78-2.66-6.75,1.29-1.28,8.68-4.81,10.48-5.17Z"/>
      <path class="cls-2" d="M622,129.87c1-.29,2.2-.26,3.17.16.37.16,4.73,4.6,4.99,5.1,1,1.91.67,4.07-1.25,5.18-5.37,3.09-12.49-8.79-6.9-10.44Z"/>
      <path class="cls-2" d="M673.5,145.01c2.24-.49,9.22,1.56,9.72,4.21,1.39,7.31-12.32,4.31-12.15-1.01.05-1.54.88-2.87,2.43-3.2Z"/>
      <path class="cls-2" d="M640.67,136.93c6.95-2.13,8.17,9.66.51,7.37-2.78-.83-3.29-6.52-.51-7.37Z"/>
      <path class="cls-2" d="M659.36,139.95c4.43-1.28,6.1,5.5,1.79,6.39s-5.39-5.34-1.79-6.39Z"/>
      <path class="cls-2" d="M653.81,517.71c2.22-.66,4.02.96,6,1.36,3.65.75,11.37.12,12.5,4.21,1.95,7.06-14.23,3.66-17.35,2.17-3.4-1.62-5.28-6.5-1.14-7.74Z"/>
      <path class="cls-2" d="M713.41,191.02c4.85-.12,13.26-.21,14.21,6.2,1.03,7.01-6.82,8.37-12.08,9.57-18.46,4.19-37.84,1.41-56.31,2.75-4.65.34-14.07,4.48-15.27-2.89-.44-2.68,2.07-9.38,3.92-11.5,3.15-3.61,3.01-2.29,6.8-2.24,20.27.25,38.76-1.39,58.72-1.9Z"/>
      <path class="cls-2" d="M737.62,192.51c2.59-.33,5.84-.71,6.18,2.69.53,5.21-12.21,7.79-13.11,2.96-.78-4.17,3.7-5.24,6.93-5.66Z"/>
      <path class="cls-2" d="M367.61,336.41c5.23-1.15,7.01,5.35,2.69,6.74-5.3,1.7-6.96-5.8-2.69-6.74Z"/>
      <path class="cls-2" d="M366.12,346.53c3.15,3.15-2.27,8.21-4.97,4.72s2.31-7.39,4.97-4.72Z"/>
      <path class="cls-2" d="M935.97,79.87c9.61-2.22,9.88,14.88-.08,12.99-6.36-1.2-4.39-11.96.08-12.99Z"/>
    </g>
  </g>
  <g id="J65jYp.tif">
    <g>
      <path class="cls-2" d="M789.04,576.03l4.89-12.97c6.95-4.7,4.22,6.71,4.2,10.45l3.11-7.73c1.71-2.6,4.31-3.06,6.2-.32,5.69,8.27-1.66,33.27-4.76,42.6-.9,2.73-5.04,14.67-7.1,15.62-1.87.86-3.3-.57-3.02-2.48,4.79-10.4,8.57-21.83,10.86-33.07,1.2-5.9,2.37-10.81,1.24-16.89-.15-.82.34-.88-.99-.77-4.85,18.31-11.53,36.17-19.61,53.28-1.46,3.09-3.36,9.55-7.59,7.15-.19-.98-.18-2.12.04-3.09.88-3.79,4.96-10.29,6.58-14.6,1.81-4.81,3.44-10.42,4.77-15.41.19-.71,2.18-7.65,1.41-7.68-3.23,6.82-4.63,14.96-7.44,21.82-1.12,2.73-2.26,5.68-5.35,2.56-.8-3.19,1.78-5.65,1.92-8.72-3.37-.35-2.96-2.55-2-5.06-.85.07-1.56-.02-2.31-.47-1.52-.94-.7-2.41-1.73-3.05-.57,1.6-2.03,5.9-3.8,6.05-.64.05-1.4-.49-1.96-.4-.87.14-6.58,11.17-7.67,12.96-3.01,4.94-6.22,9.86-9.8,14.42l.25.75c2.26-2.43,4.85-4.6,7.08-7.05,1.98-2.18,6.69-9.17,8.33-10.33,1.14-.8,2.66-1.2,3.82-.3,2.24,2.02-1.42,3.7-1.74,4.94-.24.93.44,1.92.24,3.18-.48,3.16-8.51,15.63-10.7,19.11-2.89,4.59-5.95,9.13-9.29,13.41l.24.74c1.74-1.89,9.87-7.61,9.89-1.77,0,3.3-8.4,12.67-10.89,15.4-3.7,4.05-8.55,8.94-12.61,12.61-1.59,1.44-7.56,7.67-8.76,3.66v-1.8s16.57-16.25,16.57-16.25c-.5-.82-1.12.17-1.52.5-1.52,1.28-6.83,6.74-8.06,7.11-3.82,1.15-4.01-2.07-2.25-4.8,3.16-4.91,8.18-10.04,11.74-15,2.67-3.71,5.41-7.76,8.07-11.6,2.6-3.75,5.2-7.62,7.16-11.76l-36.33,34.59c-1.38.38-2.63-.87-2.93-2.15-.07-.82.89-2.26,1.41-2.95,3.04-4.06,7.73-8.49,11.09-12.62,17.55-21.52,34.38-45.25,43.06-71.96.45-1.38.65-4.02,1.14-4.92.65-1.19,1.96-.77,2.75-1.28,1.82-1.19,2.69-11.21,3.66-13.49.39-.92,1.6-.94,2.18-2.36,2.44-5.96,1.8-14.74,1.71-20.94-.07-4.83,4.07-4.82,4.54-1.49.9,6.33-.52,12.97-1.01,19.13-.1,1.26.59,2.44.5,3.47-.2,2.11-2.18,9.93-1.88,11.11.15.59,2.44,1.49,2.44,3.07v7.82ZM778.94,596.2c3.63-3.25,4.28-9.47,4.53-14.11l-4.53,14.11Z"/>
      <path class="cls-2" d="M282.17,598.21c4-.67,14.07-9.08,17.64-6.27,2.45,1.93-.35,5.05-1.73,6.78l-18.93,19.15c5.73-1.89,20.58-11.56,25.97-10.59,4.22.76,1.61,5.06.03,7.06-13.17,16.62-35.03,31.89-51.49,45.39-1.59,1.3-4.63,5.89-6.86,4.31-2.04-1.45,1.4-5.48,2.54-6.61,7.37-7.3,18.98-14.41,27.29-21.65,6.63-5.78,16.18-14.1,21.7-20.68.48-.57,1.22-.82,1-1.77l-33.58,15.07-2.01-.95.23-3.31c8.4-7.58,18.73-14.75,26.03-23.41.34-.4,1.32-1.01.5-1.51-6.14,3.1-12.3,6.63-18.8,8.95-3.95,1.41-6.39,1.02-9.74,1.87-2.27.57-6.87,3.46-9.59,4.54-5.03,1.99-10.76,4.02-16.05,5.15-1.9.41-12.48,3.11-9.96-1.87.64-1.26,11.16-3.01,13.51-3.67,20.93-5.84,42.84-20.72,55.13-38.72,1.28-1.88,2.83-7.8,5.85-6.27,3.19,1.62-2.89,9.91-4.33,11.82-4.25,5.63-8.86,8.53-12.39,14.85-.27.48-2.17,2.15-1.96,2.33Z"/>
      <path class="cls-2" d="M655.76,710.15c2.88-1.65,11.88-3.78,10.89,2.04s-17.15,16.49-21.5,20.9c2.52.92,10.98-4.4,12.03-.9.25.83.2,1.76-.37,2.47-1.3,1.61-15.7,4.47-18.1,3.36-3.88-1.8,1.28-6.47,2.9-7.96,4.52-4.14,10.11-7.81,14.65-12.09.61-.57,4.59-4.21,4.03-4.8-7.05,2.96-14.74,4.18-21.96,6.55-9.28,3.05-16.47,6.32-26.4,8.42-10.81,2.29-26.88,5.29-37.72,5.7-2.76.11-4.45-.35-3.54-3.55.68-1.02,20.53-3.09,23.66-3.59,2.43-.39,9.95-1.22,11.58-2.05.9-.45,1.59-2.06,3.05-3.01,3.94-2.57,11.24-4.68,15.84-6.87,17.3-8.26,33.62-18.67,50.89-26.83.95-.02,1.64.75,2.76.28,1.63-.69,11.91-9.78,13.69-11.58.82-.83,4.59-4.96,4.96-5.64,1.13-2.06.24-4.7,3.82-4.23,4.75.62-.61,7.46-1.98,9.09-12.11,14.38-28.47,21.29-42.02,32.65-.58.48-1.39.56-1.14,1.63ZM654.24,704.61l-15.65,8.56c4.6,2.44,9.41-1.4,14.13-2.02l-1.45-3.17,2.96-3.38Z"/>
      <path class="cls-2" d="M770.35,559.39c5.99-.57,2.56,5.92,1.25,9.06-5.15,12.36-13.02,24.61-19.92,36.08l.24.75c2.26-3.41,6.51-2.44,5.02,1.99-1,3-8.79,13.45-11.13,16.61-3.74,5.05-7.8,10.06-12.05,14.68-3.44,3.74-11.96,13.06-15.66,15.62-1.21.84-2.3,1.44-3.82.79-2.66-2.64,3.06-5.92,3.05-6.59,0-.42-2.32-.94-1.13-3.65,7.34-7.57,14.22-15.5,20.23-24.17,1.07-1.55,8.25-12.19,8.12-12.94-.14-.79-2.74-2.11-1.6-3.7,17.84-23.87,27-53.55,31.79-82.75.49-2.97.76-12.12,2.15-13.85.92-1.16,3.02-.84,3.48.48.41,1.17-.31,6.73-.48,8.43-1.46,14.69-6.1,28.9-9.54,43.17Z"/>
      <path class="cls-2" d="M153.25,600.3c.53-.18,1.37-.17,1.93-.07,2,.38,7.17,7.31,9.1,9.09,8.84,8.16,35.43,14.43,47.45,15.14,4.21.25,10.82-.74,14.55.09,2.91.64,3.49,4,.13,4.45-13.56,1.82-36.74-3.17-49.73-7.86-10.69-3.86-16.89-9.17-23.99-17.89-.45-.91-.58-2.56.57-2.95Z"/>
      <path class="cls-2" d="M581.97,748.4c-1.49,2.39-13.87-2.53-16.19-3.6-14.32-6.62-25.3-18.42-33.42-31.66-1.35-2.21-5.34-8.59-6.08-10.57-.82-2.22-.29-4.21,2.39-3.42,2.22.66,6.18,9.53,7.72,11.96,8.46,13.32,20.03,25.84,35.28,31.32,1.7.61,9.46,2.4,9.86,2.75.61.52.78,2.64.42,3.21Z"/>
      <path class="cls-2" d="M191.15,640.65c1.32-.38,10.2,2.27,12.99,2.46,3.25.22,7.34.09,10.64,0,4.13-.12,10.81-1.42,14.62-1.04s3.86,4,.47,4.52c-4.48.68-11.94.94-16.61,1.06-5.36.14-17.73-.18-22.16-3.12-1.67-1.1-1.97-3.3.04-3.88Z"/>
      <path class="cls-2" d="M623.83,740l2.4.9c1.2,3.04-1.28,3.32-3.53,4.05-4.33,1.4-15.38,4.05-19.75,4.48-4.59.45-6.05-2.71-2.13-4.14,6.87-2.5,15.96-2.7,23.01-5.28Z"/>
      <path class="cls-2" d="M686.43,697.12c1.95-.32,3.25,1.09,2.4,2.93-.52,1.13-10.23,8.58-11.91,5.86-.85-1.13-.54-1.87.26-2.86.65-.8,8.32-5.78,9.25-5.93Z"/>
      <path class="cls-2" d="M242.16,630.1c1.88-.23,4.23-.05,3.45,2.41-.89,2.83-12.19,4.41-12.86,1.65-.12-.94.37-2.23,1.29-2.57s6.75-1.32,8.11-1.49Z"/>
      <path class="cls-2" d="M778.94,596.2l4.53-14.11c-.26,4.65-.91,10.86-4.53,14.11Z"/>
      <path class="cls-2" d="M654.24,704.61l-2.96,3.38,1.45,3.17c-4.73.61-9.53,4.46-14.13,2.02l15.65-8.56Z"/>
    </g>
  </g>
</svg>