<?xml version="1.0" encoding="UTF-8"?>
<svg id="_图层_2" data-name="图层 2" xmlns="http://www.w3.org/2000/svg" viewBox="0 0 1035.69 840.34">
  <g id="_图层_4" data-name="图层 4">
    <g>
      <path d="M297.7,509.99c5.93.64,11,4.17,15.29,8.08,4.91,4.48,9.32,9.55,13.8,14.45,9.71,10.61,19.16,21.46,28.35,32.52,5.21,6.27,10.32,12.61,15.36,19.02l1.82-2.36c-14.8-6.93-28.94-15.23-42.21-24.76s-25.56-20.23-36.81-31.98c-6.37-6.66-12.41-13.64-18.04-20.94l-2.05,2.05c25.67,14.19,49.54,31.32,72.88,49.02,6.59,5,13.14,10.04,19.69,15.09,1.43,1.1,2.84-1.15,1.82-2.36-6.56-7.76-13.12-15.52-19.68-23.27l-2.12,2.12c11.15,12.49,23.3,24.05,36.33,34.57l1.82-2.36c-11.78-8.49-21.5-19.67-28.35-32.47l-.23,1.82c1.5-1.23,3.69-.63,5.32,0,2.01.79,3.87,2.01,5.72,3.11,3.99,2.39,7.89,4.94,11.68,7.65,7.47,5.34,14.48,11.31,20.98,17.79,3.7,3.69,7.22,7.56,10.57,11.58l2.12-2.12c-17.5-16.94-33.13-35.77-46.5-56.13-3.8-5.79-7.42-11.71-10.86-17.72l-.54,2.05c3.3-1.57,7.06-.46,10.17,1.04,3.37,1.63,6.5,3.79,9.62,5.85,6.19,4.08,12.23,8.37,18.11,12.88,11.83,9.06,23,19,33.41,29.66,5.89,6.03,11.53,12.29,16.91,18.77l2.12-2.12c-7.15-5.89-13.68-12.49-19.48-19.71l-.66,2.51c1.69-.65,3.44-.67,5.08.16,1.72.87,3.24-1.72,1.51-2.59-2.32-1.17-4.95-1.41-7.39-.46-1.11.43-1.4,1.58-.66,2.51,5.8,7.22,12.33,13.83,19.48,19.71,1.49,1.23,3.36-.63,2.12-2.12-9.89-11.9-20.65-23.06-32.18-33.38s-23.79-19.76-36.68-28.27c-6.46-4.26-14.93-10.84-23-7.01-.74.35-.91,1.4-.54,2.05,12.2,21.37,26.76,41.38,43.34,59.56,4.67,5.12,9.5,10.09,14.48,14.91,1.41,1.37,3.34-.66,2.12-2.12-12.64-15.17-27.91-28.14-44.94-38.14-3.99-2.34-9.3-5.46-13.57-1.99-.52.43-.53,1.27-.23,1.82,7.1,13.27,17.22,24.76,29.43,33.55,1.37.99,3.14-1.28,1.82-2.36-13.03-10.51-25.18-22.08-36.33-34.57-1.3-1.45-3.35.66-2.12,2.12,6.56,7.76,13.12,15.52,19.68,23.27l1.82-2.36c-23.21-17.88-46.48-35.8-71.27-51.48-6.98-4.41-14.07-8.64-21.3-12.63-1.2-.66-3.03.79-2.05,2.05,10.11,13.09,21.4,25.24,33.75,36.25,12.29,10.95,25.59,20.78,39.68,29.3,8,4.84,16.25,9.24,24.71,13.21,1.59.75,2.87-1.01,1.82-2.36-9.18-11.69-18.65-23.15-28.39-34.37-4.82-5.55-9.71-11.04-14.67-16.47-4.6-5.04-9.13-10.25-14.15-14.89-5-4.63-10.78-8.49-17.7-9.23-1.92-.21-1.9,2.8,0,3h0Z"/>
      <path d="M267.96,261.73c17.2,8.82,33.8,18.82,49.63,29.91s30.8,23.22,44.92,36.35c7.98,7.42,15.66,15.15,23.04,23.16l1.46-2.51c-9.46-2.9-17.53-8.84-24.84-15.34-8.17-7.25-15.92-15.01-23.71-22.66-16.36-16.07-32.39-32.46-48.31-48.96-8.92-9.25-17.8-18.53-26.68-27.82l-2.12,2.12c14.76,14.66,29.85,28.98,45.28,42.93,15.42,13.96,31.17,27.55,47.23,40.78,9,7.41,18.1,14.71,27.29,21.88,1.5,1.17,3.41-.63,2.12-2.12-11.81-13.75-23.64-27.6-33.24-43.02-2.69-4.31-5.18-8.73-7.45-13.28l-2.36,1.82c15.59,14.27,31.17,28.54,46.76,42.81,4.42,4.04,8.84,8.09,13.25,12.13l2.12-2.12c-9.86-7.79-18.94-16.53-27.11-26.08l-1.82,2.36c9.27,5.31,18.53,10.62,27.8,15.92,1.68.96,3.19-1.63,1.51-2.59-9.27-5.31-18.53-10.62-27.8-15.92-1.54-.88-2.9,1.09-1.82,2.36,8.17,9.55,17.25,18.28,27.11,26.08,1.48,1.17,3.58-.79,2.12-2.12-15.59-14.27-31.17-28.54-46.76-42.81-4.42-4.04-8.84-8.09-13.25-12.13-1.28-1.17-3.12.29-2.36,1.82,8.17,16.34,19.3,30.94,30.97,44.91,3.36,4.03,6.78,8.01,10.2,11.99l2.12-2.12c-16.39-12.8-32.49-25.98-48.28-39.53-15.78-13.55-31.25-27.47-46.38-41.73-8.48-8-16.86-16.11-25.14-24.33-1.37-1.36-3.46.73-2.12,2.12,16.02,16.75,32.04,33.49,48.28,50.03,8.15,8.3,16.35,16.54,24.63,24.7s15.84,15.67,24.07,23.17,17.16,14.38,27.89,17.66c1.49.46,2.43-1.45,1.46-2.51-13.19-14.33-27.37-27.74-42.41-40.11-14.92-12.27-30.67-23.53-47.11-33.65-9.34-5.75-18.9-11.12-28.66-16.12-1.71-.88-3.23,1.71-1.51,2.59h0Z"/>
      <path d="M133.99,566.61c21.96,12.32,43.12,26.07,63.28,41.17,5.71,4.28,11.34,8.66,16.88,13.15,1.48,1.19,3.47-.68,2.12-2.12-14.74-15.75-29.48-31.5-44.21-47.26-4.19-4.48-8.39-8.97-12.58-13.45v2.12c3.74-3.87,9.79-2.16,14.15-.41,2.87,1.15,5.62,2.63,8.38,4,3.05,1.52,6.1,3.05,9.13,4.61,12.27,6.31,24.36,12.97,36.25,19.97,6.7,3.94,13.33,8,19.89,12.16l1.51-2.59c-13.66-8.24-27.31-16.49-40.97-24.73-1.26-.76-2.86.78-2.05,2.05,10.69,16.83,27.01,28.82,43.78,39.08,4.86,2.97,9.79,5.82,14.73,8.66,1.31.76,2.78-.75,2.05-2.05-4.13-7.39-9.06-14.3-14.68-20.62l-1.46,2.51c13.7,3.76,26.55,10.19,37.81,18.86l1.51-2.59c-15.17-8.87-28.6-20.49-39.59-34.19l-1.06,2.56c15.31,1.21,30.2,6.13,43.25,14.22,1.65,1.02,3.15-1.57,1.51-2.59-13.51-8.37-28.92-13.38-44.76-14.63-1.44-.11-1.79,1.65-1.06,2.56,11.14,13.89,24.83,25.67,40.2,34.66,1.72,1.01,3-1.45,1.51-2.59-11.45-8.82-24.59-15.34-38.52-19.16-1.5-.41-2.43,1.42-1.46,2.51,5.45,6.14,10.2,12.85,14.21,20.02l2.05-2.05c-16.77-9.64-33.92-19.54-47.32-33.73-3.77-3.99-7.17-8.29-10.11-12.92l-2.05,2.05c13.66,8.24,27.31,16.49,40.97,24.73,1.66,1,3.14-1.56,1.51-2.59-12.19-7.72-24.61-15.08-37.25-22.06-6.25-3.45-12.55-6.81-18.89-10.07-3.24-1.67-6.5-3.31-9.77-4.93-2.9-1.43-5.78-2.94-8.8-4.12-5.38-2.09-12.27-3.29-16.73,1.32-.58.6-.56,1.52,0,2.12,14.74,15.75,29.48,31.5,44.21,47.26,4.19,4.48,8.39,8.97,12.58,13.45l2.12-2.12c-19.74-15.97-40.51-30.66-62.17-43.89-6.13-3.75-12.33-7.37-18.6-10.89-1.69-.95-3.2,1.64-1.51,2.59h0Z"/>
      <path d="M675.26,458.54c-15.71-11.1-31.41-22.19-47.12-33.29-15.71-11.1-31.41-22.19-47.12-33.29-8.84-6.25-17.68-12.49-26.52-18.74l-1.51,2.59c16.5,8.33,32.99,16.66,49.49,24.98,16.42,8.29,32.84,16.58,49.26,24.87,9.29,4.69,18.58,9.38,27.86,14.07,1.76.89,3.03-1.44,1.51-2.59-18.73-14.23-37.46-28.46-56.64-42.07s-38.73-26.55-59.11-38.2c-11.5-6.57-23.24-12.72-35.25-18.31-1-.46-2.27.08-2.26,1.3.06,7.93,4.12,14.87,8.94,20.89,5.52,6.89,11.87,13.18,18.05,19.47,13.15,13.41,26.73,26.41,40.17,39.52,7.7,7.51,15.4,15.02,23.1,22.53l2.12-2.12c-15.91-14.04-31.82-28.09-47.74-42.13-4.48-3.95-8.95-7.9-13.43-11.85l-2.12,2.12c9.51,8.3,19.01,16.59,28.52,24.89l1.82-2.36c-16.77-10.28-34.28-19.33-52.39-27.02-5.11-2.17-10.26-4.24-15.45-6.2-1.47-.55-2.43,1.5-1.46,2.51,9.22,9.49,18.43,18.98,27.65,28.47l1.06-2.56c-6.12-.52-11.95-2.7-16.99-6.2-1.59-1.11-3.09,1.49-1.51,2.59,5.48,3.81,11.86,6.04,18.5,6.61,1.35.12,1.91-1.69,1.06-2.56-9.22-9.49-18.43-18.98-27.65-28.47l-1.46,2.51c18.21,6.88,35.89,15.1,52.89,24.59,4.8,2.68,9.54,5.46,14.23,8.33,1.43.87,3.12-1.22,1.82-2.36-9.51-8.3-19.01-16.59-28.52-24.89-1.45-1.26-3.57.84-2.12,2.12,15.91,14.04,31.82,28.09,47.74,42.13,4.48,3.95,8.95,7.9,13.43,11.85,1.44,1.27,3.52-.76,2.12-2.12-13.38-13.06-26.77-26.11-40.15-39.17-12.9-12.58-25.97-25.09-37.95-38.57-5.61-6.31-11.21-13.74-11.27-22.56l-2.26,1.3c21.26,9.9,41.66,21.54,61.39,34.19s38.92,26.37,57.78,40.39c10.66,7.93,21.24,15.96,31.82,24l1.51-2.59c-16.5-8.33-32.99-16.66-49.49-24.98-16.42-8.29-32.84-16.58-49.26-24.87-9.29-4.69-18.58-9.38-27.86-14.07-1.74-.88-3.08,1.48-1.51,2.59,15.71,11.1,31.41,22.19,47.12,33.29,15.71,11.1,31.41,22.19,47.12,33.29,8.84,6.25,17.68,12.49,26.52,18.74,1.58,1.12,3.08-1.48,1.51-2.59h0Z"/>
      <path d="M120.4,2.95c20.01,5.17,38.33,14.95,56.36,24.78,19.45,10.6,38.9,21.22,58.34,31.83,19.56,10.68,39.13,21.36,58.69,32.05,19.49,10.65,38.97,21.3,58.45,31.97,19.55,10.7,39.1,21.41,58.64,32.14s38.93,21.37,58.39,32.07,37.41,20.55,56.06,30.92c18.04,10.03,36.02,20.2,53.79,30.7,17.75,10.49,35.3,21.33,52.49,32.71,17.13,11.34,33.91,23.21,50.13,35.81,3.95,3.07,7.86,6.18,11.74,9.33l1.82-2.36c-27.65-16.03-55.03-32.5-82.2-49.33s-54.11-34.01-80.89-51.45c-26.65-17.36-53.13-34.98-79.49-52.78-26.5-17.89-52.88-35.96-79.19-54.13-26.31-18.16-52.56-36.42-78.8-54.68-3.16-2.2-6.33-4.41-9.49-6.61-1.6-1.11-3.06,1.48-1.51,2.59,22.85,16.45,45.7,32.9,68.55,49.36,22.85,16.45,45.7,32.9,68.55,49.36,22.85,16.45,45.7,32.9,68.55,49.36,22.85,16.45,45.7,32.9,68.55,49.36,22.85,16.45,45.7,32.9,68.55,49.36,2.84,2.04,5.68,4.09,8.52,6.13l1.51-2.59c-20.92-9.44-41.58-19.48-61.93-30.1s-40.13-21.66-59.71-33.33c-11.08-6.6-22.04-13.38-32.91-20.33l-1.16,2.74c24.46,7.09,46.64,21.37,63.41,40.52,4.7,5.37,8.95,11.12,12.71,17.19l2.05-2.05c-28.91-16.48-57.83-32.96-86.74-49.44-8.1-4.61-16.19-9.23-24.29-13.84-1.68-.96-3.19,1.63-1.51,2.59,28.91,16.48,57.83,32.96,86.74,49.44,8.1,4.61,16.19,9.23,24.29,13.84,1.27.73,2.86-.75,2.05-2.05-6.84-11.02-15.28-21.04-24.96-29.67-9.73-8.67-20.67-16-32.44-21.61-6.62-3.15-13.48-5.77-20.52-7.81-1.67-.48-2.56,1.84-1.16,2.74,19.34,12.37,39.02,24.2,59.03,35.45,19.87,11.18,40.06,21.79,60.53,31.83,11.58,5.68,23.24,11.16,35,16.47,1.76.8,3.09-1.45,1.51-2.59-22.85-16.45-45.7-32.9-68.55-49.36-22.85-16.45-45.7-32.9-68.55-49.36-22.85-16.45-45.7-32.9-68.55-49.36-22.85-16.45-45.7-32.9-68.55-49.36-22.85-16.45-45.7-32.9-68.55-49.36-2.84-2.04-5.68-4.09-8.52-6.13l-1.51,2.59c26.24,18.27,52.48,36.53,78.78,54.71,26.3,18.18,52.66,36.29,79.13,54.22,26.33,17.84,52.78,35.51,79.39,52.94,26.74,17.51,53.64,34.76,80.75,51.67,27.11,16.91,54.44,33.48,82.03,49.62,3.33,1.95,6.66,3.89,9.99,5.82,1.42.83,3.18-1.25,1.82-2.36-15.97-12.97-32.52-25.21-49.48-36.85-17.06-11.71-34.52-22.81-52.21-33.52-17.66-10.69-35.56-20.98-53.56-31.09s-36.74-20.4-55.15-30.54c-19.6-10.79-39.21-21.56-58.82-32.33-19.54-10.73-39.08-21.44-58.63-32.15s-39.1-21.41-58.66-32.1c-19.56-10.69-39.12-21.38-58.68-32.06s-39.13-21.36-58.7-32.03c-18.3-9.98-36.48-20.6-56.08-27.86-4.74-1.75-9.55-3.29-14.44-4.55-1.87-.48-2.67,2.41-.8,2.89h0Z"/>
      <path d="M30.87,236.53c20.25,12.66,40.51,25.33,60.64,38.18,20.15,12.86,40.19,25.9,59.99,39.28,19.71,13.32,39.18,27,58.28,41.18s37.76,28.83,55.91,44.15c18.13,15.3,35.71,31.25,52.56,47.95,2.12,2.1,4.23,4.22,6.33,6.35l1.46-2.51c-23.41-8.28-46.3-17.99-68.63-28.85-22.3-10.85-44.05-22.82-65.29-35.61s-42.17-26.52-62.61-40.74c-20.52-14.27-40.65-29.1-60.54-44.25-19.89-15.15-39.54-30.61-59.1-46.17-2.42-1.93-4.84-3.85-7.26-5.78l-1.82,2.36c17.04,9.8,34.08,19.61,51.12,29.41,17.04,9.8,34.08,19.61,51.12,29.41s34.08,19.61,51.12,29.41,34.08,19.61,51.12,29.41c17.11,9.85,34.22,19.69,51.34,29.54,2.09,1.2,4.19,2.41,6.28,3.61l1.51-2.59c-21.01-9.66-41.57-20.29-61.59-31.86s-39.24-23.91-57.98-37.2c-10.62-7.53-21.04-15.34-31.25-23.42l-1.82,2.36c25.48,17.4,51.12,34.57,76.91,51.51,25.79,16.94,51.73,33.65,77.82,50.13,14.63,9.24,29.31,18.41,44.03,27.5,1.65,1.02,3.16-1.58,1.51-2.59-26.25-16.22-52.36-32.66-78.32-49.35-25.96-16.68-51.77-33.6-77.42-50.74-14.39-9.61-28.73-19.3-43.02-29.06-1.39-.95-3.16,1.29-1.82,2.36,18.17,14.39,36.99,27.94,56.42,40.58,19.44,12.65,39.48,24.39,60.02,35.17,11.51,6.04,23.18,11.77,34.98,17.2,1.72.79,3.22-1.61,1.51-2.59-17.04-9.8-34.08-19.61-51.12-29.41-17.04-9.8-34.08-19.61-51.12-29.41-17.04-9.8-34.08-19.61-51.12-29.41s-34.08-19.61-51.12-29.41c-17.11-9.85-34.22-19.69-51.34-29.54-2.09-1.2-4.19-2.41-6.28-3.61-1.42-.82-3.19,1.26-1.82,2.36,19.63,15.64,39.31,31.21,59.22,46.49,19.95,15.32,40.12,30.34,60.67,44.84s41.34,28.37,62.7,41.49,42.76,25.19,64.94,36.3c22.28,11.16,45.13,21.23,68.51,29.89,2.9,1.07,5.81,2.13,8.72,3.16,1.46.52,2.46-1.49,1.46-2.51-16.78-17-34.31-33.23-52.42-48.79s-36.64-30.32-55.63-44.63-38.5-28.18-58.2-41.63c-19.8-13.52-39.86-26.67-60.04-39.61-20.05-12.86-40.23-25.52-60.42-38.15-2.54-1.59-5.07-3.17-7.61-4.76-1.64-1.03-3.15,1.57-1.51,2.59h0Z"/>
      <path d="M736.85,66.51c15.9,8.55,29.84,20.15,42.55,32.89,12.78,12.81,24.65,26.64,36.07,40.66,11.45,14.06,22.19,28.85,30.36,45.09,2,3.97,3.84,8.02,5.47,12.15.84,2.13,1.63,4.28,2.37,6.46.59,1.73,1.3,3.51,1.33,5.36.02,1.42-.56,3.24-2.36,2.45-1.97-.86-3.27-3.24-4.49-4.88-3.13-4.21-6.25-8.42-9.38-12.63-12.51-16.83-25.02-33.67-37.52-50.5-1.54-2.07-3.08-4.14-4.62-6.21l-2.59,1.51c7.38,9.76,14.76,19.52,22.13,29.28l.9-2.2c-2.79,1.09-5.19-.14-7.33-1.98-2.63-2.27-4.82-5.01-7.39-7.34s-5.45-4.26-8.93-4.45c-2.34-.12-4.69,1.1-4.76,3.68s2.06,5.16,3.36,7.3c3.76,6.18,7.53,12.35,11.29,18.53l2.59-1.51c-6.94-10.87-14.7-21.21-23.18-30.93-.91-1.05-2.49-.14-2.56,1.06-.41,7.09-.83,14.19-1.24,21.28-.11,1.93,2.89,1.92,3,0,.41-7.09.83-14.19,1.24-21.28l-2.56,1.06c8.32,9.53,15.9,19.66,22.71,30.32,1.03,1.62,3.6.14,2.59-1.51-3.12-5.12-6.24-10.25-9.37-15.37-1.47-2.41-3.16-4.79-4.42-7.32-.34-.68-.88-1.84.09-2.22.7-.27,1.66-.08,2.38.09,2.97.72,5.32,2.97,7.4,5.08,2.25,2.27,4.33,4.73,6.89,6.66s5.82,2.99,9,1.75c.79-.31,1.54-1.35.9-2.2-7.38-9.76-14.76-19.52-22.13-29.28-1.15-1.52-3.75-.04-2.59,1.51,13.05,17.57,26.11,35.14,39.16,52.71,3.23,4.34,6.45,8.68,9.68,13.03,1.64,2.21,3.23,4.46,4.93,6.62,1.22,1.55,2.83,3.14,4.86,3.48,1.85.31,3.7-.57,4.61-2.22s.81-3.48.53-5.2c-.34-2.1-1.18-4.15-1.88-6.14-.79-2.23-1.64-4.43-2.54-6.62-7.18-17.41-17.56-33.22-29.04-48.08-5.83-7.55-11.95-14.86-18.16-22.1s-12.33-14.21-18.8-21.04c-12.89-13.59-26.95-26.31-43.06-36-1.96-1.18-3.95-2.3-5.96-3.39-1.7-.91-3.22,1.67-1.51,2.59h0Z"/>
    </g>
    <path d="M699.39,588.71c9.11,1.65,16.55,7.34,22.97,13.73,7.4,7.36,14.1,15.48,21,23.31,14.84,16.83,29.58,33.75,44.23,50.74,14.76,17.12,29.42,34.32,43.98,51.6s28.82,34.39,43.09,51.71c14.37,17.44,28.65,34.96,42.83,52.56,1.73,2.15,3.47,4.31,5.2,6.46l1.82-2.36c-16.57-11.99-32.54-24.81-47.82-38.41-15.21-13.53-29.74-27.82-43.53-42.81-7.8-8.48-15.35-17.17-22.66-26.07v2.12c3.85-4.18,10.16-.55,13.8,2.12,2.74,2.01,5.15,4.49,7.65,6.78,2.76,2.53,5.52,5.06,8.29,7.59,11.17,10.23,22.34,20.47,33.52,30.7,6.32,5.79,12.65,11.58,18.97,17.37,1.23,1.13,3.23-.3,2.36-1.82-13.15-22.71-28.32-44.25-45.26-64.3-4.78-5.65-9.7-11.18-14.75-16.58l-1.82,2.36c13.86,10.64,27.72,21.28,41.58,31.91,3.96,3.04,7.92,6.08,11.88,9.12,1.35,1.03,2.56-.88,2.05-2.05-6.75-15.58-14.47-30.74-23.12-45.36-2.46-4.16-4.99-8.27-7.6-12.34l-2.36,1.82c12.46,12.32,24.92,24.63,37.38,36.95,1.21,1.19,3.22-.33,2.36-1.82-4.15-7.17-8.29-14.35-12.44-21.52l-2.59,1.51c6.49,10.24,15.06,19.01,25.13,25.76.92.62,2.33-.19,2.26-1.3-.83-12.87-3.56-25.56-8.15-37.61l-2.2,1.69c9.36,5.33,17.89,11.97,25.34,19.75l2.12-2.12c-10.18-10.59-20.36-21.19-30.53-31.78l-1.82,2.36c13.83,8.72,27.48,17.73,40.93,27.03,3.86,2.67,7.71,5.37,11.53,8.08,1.31.93,2.69-.83,2.05-2.05-7.8-15.01-14.94-30.38-21.33-46.04-1.81-4.43-3.55-8.88-5.25-13.35l-2.51,1.46c12.52,11.12,23.6,23.81,32.91,37.74,1.06,1.59,3.6.15,2.59-1.51-7.97-13.16-15.94-26.33-23.91-39.49-1-1.65-3.59-.14-2.59,1.51,7.97,13.16,15.94,26.33,23.91,39.49l2.59-1.51c-9.44-14.14-20.67-27.05-33.38-38.34-1.02-.9-3.08-.05-2.51,1.46,6.05,15.99,12.83,31.71,20.32,47.09,2.13,4.37,4.32,8.71,6.56,13.02l2.05-2.05c-13.33-9.47-26.87-18.65-40.59-27.53-3.94-2.55-7.9-5.08-11.87-7.58-1.47-.92-2.98,1.15-1.82,2.36,10.18,10.59,20.36,21.19,30.53,31.78,1.34,1.4,3.46-.73,2.12-2.12-7.62-7.95-16.38-14.77-25.95-20.22-1.05-.6-2.69.42-2.2,1.69,4.49,11.8,7.23,24.21,8.04,36.81l2.26-1.3c-9.63-6.45-17.84-14.89-24.05-24.68-1.03-1.62-3.56-.17-2.59,1.51,4.15,7.17,8.29,14.35,12.44,21.52l2.36-1.82c-12.46-12.32-24.92-24.63-37.38-36.95-1.19-1.17-3.29.35-2.36,1.82,9.15,14.31,17.42,29.17,24.72,44.51,2.08,4.36,4.07,8.76,5.99,13.19l2.05-2.05c-13.86-10.64-27.72-21.28-41.58-31.91-3.96-3.04-7.92-6.08-11.88-9.12-1.4-1.07-2.93,1.16-1.82,2.36,17.75,18.99,33.82,39.53,47.95,61.35,4.02,6.21,7.88,12.52,11.59,18.92l2.36-1.82c-11.79-10.8-23.57-21.59-35.36-32.39-5.89-5.4-11.79-10.8-17.68-16.19-2.95-2.7-5.89-5.4-8.84-8.1-2.51-2.3-4.96-4.72-7.76-6.68-4.78-3.34-12.13-6.32-16.82-1.22-.59.64-.53,1.47,0,2.12,13.01,15.85,26.81,31.05,41.35,45.51,14.54,14.46,29.8,28.2,45.72,41.13,8.98,7.3,18.17,14.34,27.54,21.12,1.49,1.08,2.79-1.14,1.82-2.36-14.21-17.68-28.51-35.29-42.91-52.81s-28.9-34.97-43.5-52.33c-14.54-17.3-29.18-34.52-43.92-51.65-14.79-17.2-29.67-34.31-44.65-51.34-7.16-8.14-14.22-16.4-21.6-24.35-6.21-6.7-13.12-13.15-21.72-16.59-2.04-.82-4.16-1.42-6.33-1.81-1.89-.34-2.7,2.55-.8,2.89h0Z"/>
    <path d="M973.52,744.57c10.83,11.34,19.77,24.43,26.4,38.64,1.89,4.06,3.58,8.2,5.08,12.42.64,1.8,3.45,1.08,2.89-.8-3.93-13.23-7.32-26.62-10.16-40.12l-2.2,1.69c7.11,3.72,13.42,8.91,18.33,15.27.61.79,2.06,1.14,2.59,0,2.52-5.45,1.74-11.76-2-16.45l-2.12,2.12c7.97,9.18,14.87,19.24,20.61,29.95.92,1.73,3.38.21,2.59-1.51-5.75-12.53-12.58-24.55-20.42-35.9-1.08-1.57-3.65-.12-2.59,1.51s2.2,3.4,3.3,5.1,3.64.11,2.59-1.51-2.2-3.4-3.3-5.1l-2.59,1.51c7.83,11.35,14.67,23.36,20.42,35.9l2.59-1.51c-5.86-10.94-12.94-21.19-21.08-30.56-1.29-1.48-3.3.64-2.12,2.12,2.82,3.55,3.42,8.7,1.53,12.81h2.59c-5.23-6.78-11.8-12.38-19.4-16.35-1.19-.62-2.48.4-2.2,1.69,2.84,13.51,6.23,26.89,10.16,40.12l2.89-.8c-5.4-15.15-13.24-29.34-23.2-41.97-2.85-3.62-5.88-7.09-9.06-10.42-1.34-1.4-3.46.72-2.12,2.12h0Z"/>
  </g>
</svg>