<?xml version="1.0" encoding="UTF-8"?>
<svg id="_图层_2" data-name="图层 2" xmlns="http://www.w3.org/2000/svg" viewBox="0 0 971.17 906.12">
  <g id="_图层_6" data-name="图层 6">
    <g>
      <path d="M.48,195.07c14.58,13.1,28.9,26.48,42.95,40.15,14.05,13.67,27.82,27.62,41.3,41.84,13.49,14.22,26.69,28.71,39.6,43.46s25.52,29.75,37.83,45.01c12.32,15.27,24.34,30.79,36.04,46.55,1.45,1.95,2.89,3.91,4.33,5.87,1.12,1.52,3.57.2,2.59-1.51-6.99-12.28-14.97-23.97-23.83-34.97-8.86-11.01-18.62-21.3-29.13-30.74-5.96-5.35-12.16-10.41-18.58-15.19-1.41-1.05-2.94,1.16-1.82,2.36,13.54,14.45,25.6,30.25,35.94,47.13,2.95,4.82,5.76,9.72,8.43,14.7l2.36-1.82c-17.68-15.47-33.88-32.61-48.3-51.16-4.09-5.25-8.02-10.63-11.81-16.1l-2.36,1.82c14.64,16.77,27.5,35.07,38.34,54.52,3.05,5.48,5.93,11.04,8.66,16.69l2.05-2.05c-14.95-9-27.65-21.51-36.85-36.34-1.02-1.64-3.61-.13-2.59,1.51,7.37,11.88,16.91,22.31,28.06,30.75,3.17,2.4,6.47,4.62,9.87,6.67,1.37.82,2.67-.77,2.05-2.05-9.76-20.22-21.63-39.37-35.38-57.13-3.88-5.02-7.92-9.91-12.09-14.69-1.11-1.27-3.33.41-2.36,1.82,13.5,19.47,28.84,37.66,45.8,54.21,4.8,4.69,9.74,9.24,14.79,13.66,1.27,1.11,3.18-.27,2.36-1.82-9.48-17.67-20.76-34.36-33.61-49.75-3.62-4.34-7.37-8.57-11.23-12.69l-1.82,2.36c22.33,16.67,41.96,36.98,57.87,59.85,4.5,6.47,8.7,13.14,12.59,19.98l2.59-1.51c-11.64-15.83-23.59-31.44-35.84-46.8s-24.85-30.51-37.73-45.38c-12.83-14.82-25.96-29.38-39.37-43.67-13.46-14.35-27.22-28.42-41.25-42.22-14.03-13.79-28.34-27.31-42.91-40.53-1.8-1.63-3.61-3.26-5.41-4.89-1.43-1.29-3.56.83-2.12,2.12H.48Z"/>
      <path d="M2.89,614.84c15.71,2.23,31.08,6.51,45.79,12.45,14.77,5.97,28.84,13.64,42.07,22.5,13.46,9.01,26.01,19.31,37.71,30.51s23.03,23.81,33.36,36.74c10.37,12.98,20,26.55,29.12,40.43,1.13,1.72,2.25,3.44,3.36,5.16l2.59-1.51c-11.07-15.42-22.73-30.41-34.97-44.92s-25.18-28.68-38.6-42.25c-7.54-7.62-15.25-15.07-23.12-22.35l.44,1.06c-.09-2.24,2.3-2.58,4.1-2.56,2.96.03,5.4,1.2,7.96,2.55,7.35,3.87,14.6,7.91,21.75,12.13,14.37,8.48,28.32,17.66,41.79,27.5,7.59,5.54,15.01,11.3,22.28,17.25l1.82-2.36c-16.77-9.45-32.96-19.89-48.73-30.93-15.68-10.98-30.96-22.54-46.06-34.3-8.59-6.69-17.12-13.44-25.66-20.19l-1.82,2.36c20.06,13.17,39.92,26.63,59.57,40.4,5.62,3.93,11.21,7.89,16.8,11.87,1.48,1.06,2.83-1.14,1.82-2.36-11.35-13.7-22.7-27.39-34.05-41.09-1.23-1.49-3.35.64-2.12,2.12,11.35,13.7,22.7,27.39,34.05,41.09l1.82-2.36c-19.54-13.93-39.28-27.57-59.23-40.91-5.7-3.81-11.41-7.6-17.14-11.36-1.4-.92-3.17,1.29-1.82,2.36,15.16,11.99,30.33,23.98,45.77,35.61,15.44,11.63,31.17,22.9,47.41,33.4,9.12,5.9,18.41,11.55,27.88,16.88,1.43.8,3.18-1.24,1.82-2.36-14.24-11.67-29.09-22.58-44.49-32.67-7.71-5.05-15.56-9.89-23.53-14.51-4.02-2.33-8.07-4.61-12.15-6.83-2.01-1.09-4.02-2.17-6.04-3.24-1.58-.83-3.14-1.72-4.85-2.27-2.61-.84-5.79-1.22-8.42-.26-2.46.91-5.01,4.29-2.57,6.55,6.75,6.25,13.38,12.63,19.88,19.14,13.01,13.01,25.52,26.52,37.49,40.48,11.99,13.98,23.45,28.43,34.33,43.29,1.35,1.84,2.68,3.69,4.01,5.54,1.11,1.54,3.65.13,2.59-1.51-9.07-14.05-18.62-27.79-28.87-41.01-10.28-13.26-21.29-25.97-33.2-37.79s-24.11-22.21-37.5-31.64-27.13-17.31-41.86-23.75c-14.71-6.44-30.11-11.31-45.94-14.06-1.94-.34-3.88-.64-5.83-.92-.81-.11-1.6.2-1.85,1.05-.2.7.25,1.73,1.05,1.85h0Z"/>
      <path d="M50.52,478.92c16.24,1.72,30.03,12.36,43.17,21.17s26.92,18.11,40.18,27.46,26.22,18.89,38.85,28.95c12.61,10.04,24.84,20.57,36.46,31.75,11.54,11.11,22.46,22.86,32.48,35.36,1.27,1.58,2.52,3.17,3.76,4.77l2.36-1.82c-12.51-10.68-24.83-21.59-36.94-32.72s-24.13-22.6-35.88-34.22c-6.61-6.54-13.15-13.15-19.62-19.83l-.66,2.51c18.87-3.67,39.18,2.17,53.71,14.65,4.15,3.56,7.83,7.65,10.88,12.19l1.69-2.2c-13.86-5.13-26.92-12.48-38.46-21.71-3.29-2.63-6.45-5.41-9.48-8.32l-.66,2.51c9.66-2.23,20.23.03,28.07,6.13,1.51,1.17,3.64-.94,2.12-2.12-8.74-6.8-20.19-9.4-30.99-6.9-1.1.25-1.46,1.75-.66,2.51,10.96,10.49,23.58,19.24,37.29,25.75,3.92,1.86,7.92,3.54,11.98,5.04,1.21.45,2.4-1.15,1.69-2.2-11.36-16.9-30.66-27.64-50.88-29.22-5.72-.45-11.47-.09-17.1,1-1.15.22-1.4,1.75-.66,2.51,11.45,11.81,23.11,23.41,34.99,34.8s24.07,22.66,36.42,33.65c6.94,6.18,13.95,12.29,21.02,18.33,1.19,1.02,3.47-.38,2.36-1.82-9.95-12.91-20.83-25.08-32.41-36.55s-23.77-22.19-36.39-32.43-25.88-20.16-39.24-29.68-26.88-18.7-40.47-27.83c-6.84-4.59-13.62-9.32-20.65-13.62s-14.41-8.06-22.42-9.88c-1.95-.44-3.93-.75-5.92-.96s-1.9,2.8,0,3h0Z"/>
      <path d="M121.53,19.21c16.92,11.97,33.68,24.17,50.27,36.58s33.06,25.07,49.33,37.94,32.46,26.01,48.43,39.34c15.91,13.28,31.65,26.77,47.21,40.46s30.94,27.59,46.13,41.69c15.19,14.1,30.2,28.39,45.02,42.89s29.55,29.28,44.03,44.22c14.43,14.88,28.66,29.95,42.69,45.2s27.86,30.69,41.48,46.31c13.62,15.62,27.04,31.42,40.24,47.39,3.21,3.88,6.4,7.77,9.58,11.67l1.82-2.36c-21.07-13.83-41.69-28.34-61.82-43.51-20.2-15.22-39.9-31.1-59.07-47.59-19.1-16.44-37.68-33.49-55.69-51.12-18.06-17.68-35.55-35.94-52.44-54.75-16.84-18.75-33.07-38.05-48.66-57.85-1.88-2.39-3.75-4.79-5.62-7.19l-1.82,2.36c14.86,7.29,28.32,17.04,40.64,28.05,12.38,11.07,23.66,23.31,34.57,35.81,12.26,14.03,24.28,28.28,36.33,42.5,12.57,14.83,25.08,29.71,37.53,44.64,12.51,14.99,24.96,30.02,37.36,45.11,1.52,1.85,3.03,3.69,4.55,5.54l2.12-2.12c-16.57-14.37-32.32-29.65-47.67-45.32-15.37-15.7-30.34-31.77-45.4-47.77s-30.17-31.89-45.87-47.23c-15.48-15.13-31.53-29.7-48.52-43.12s-34.77-25.59-53.7-35.95c-2.33-1.27-4.67-2.52-7.02-3.73-1.44-.74-3.16,1.18-1.82,2.36,20.62,18.1,41.23,36.2,61.85,54.3,20.49,17.99,40.98,35.98,61.48,53.97,11.62,10.2,23.24,20.4,34.86,30.61l1.82-2.36c-18.11-11.53-36.22-23.06-54.32-34.59s-36.08-22.97-54.11-34.46c-10.18-6.48-20.35-12.96-30.53-19.44-1.63-1.04-3.14,1.56-1.51,2.59,18.11,11.53,36.22,23.06,54.32,34.59,18.04,11.49,36.08,22.97,54.11,34.46,10.18,6.48,20.35,12.96,30.53,19.44,1.42.9,3.11-1.22,1.82-2.36-20.62-18.1-41.23-36.2-61.85-54.3-20.49-17.99-40.98-35.98-61.48-53.97-11.62-10.2-23.24-20.4-34.86-30.61l-1.82,2.36c19.2,9.92,37.35,21.75,54.51,34.86,17.19,13.12,33.39,27.52,48.98,42.49s30.82,30.82,45.79,46.66c15.04,15.92,29.94,31.98,45.17,47.71,15.22,15.72,30.79,31.12,47.14,45.67,1.99,1.77,3.98,3.52,5.99,5.26,1.48,1.28,3.34-.64,2.12-2.12-12.43-15.16-24.93-30.27-37.47-45.33s-25.04-29.95-37.65-44.86c-12.24-14.48-24.5-28.95-36.9-43.29-10.91-12.62-22.07-25.05-34.28-36.43s-25.18-21.44-39.69-29.32c-1.84-1-3.71-1.96-5.59-2.88-1.6-.78-2.85,1.03-1.82,2.36,15.52,20.04,31.7,39.57,48.49,58.55,16.7,18.88,34,37.21,51.88,54.98s36.53,35.15,55.63,51.82c18.97,16.56,38.48,32.51,58.47,47.83,20.12,15.41,40.74,30.18,61.82,44.25,2.53,1.69,5.07,3.37,7.61,5.04,1.52,1,2.82-1.12,1.82-2.36-13.15-16.12-26.51-32.06-40.08-47.82-13.57-15.76-27.35-31.34-41.34-46.74s-28.07-30.5-42.41-45.47c-14.34-14.97-28.87-29.75-43.59-44.33-14.78-14.64-29.75-29.08-44.91-43.32-15.16-14.24-30.51-28.28-46.03-42.12-15.47-13.79-31.13-27.37-46.96-40.75s-31.84-26.54-48.02-39.5c-16.22-12.99-32.61-25.76-49.17-38.31-16.57-12.57-33.31-24.91-50.21-37.04-4.09-2.93-8.19-5.85-12.3-8.76-1.58-1.12-3.08,1.48-1.51,2.59h0Z"/>
      <path d="M398.6,2.77c14.86,7.57,29.36,15.82,43.54,24.59,14.14,8.74,27.97,18,41.54,27.61s27.11,19.72,40.37,29.97c13.25,10.24,26.34,20.7,39.36,31.22,13.03,10.54,26.01,21.15,39.02,31.71s26.01,21.02,39.18,31.32,26.45,20.4,39.98,30.18c13.4,9.69,27.04,19.06,40.98,27.94s28.19,17.29,42.8,25.04c14.58,7.73,29.5,14.8,44.77,21.06,3.75,1.54,7.52,3.02,11.31,4.46,1.37.52,2.6-1.58,1.46-2.51-20.92-17.05-41.85-34.09-62.77-51.14-20.79-16.94-41.59-33.88-62.38-50.82-20.86-16.99-41.72-33.99-62.58-50.98-19.89-16.2-39.98-32.19-59.56-48.77-18.12-15.34-35.66-31.55-50.5-50.15-1.85-2.32-3.65-4.68-5.41-7.08l-1.69,2.2c22.32,7.47,43.94,16.91,64.74,27.93,20.77,11,40.71,23.51,59.9,37.07s37.88,28.36,55.87,43.73c18.12,15.47,35.68,31.6,52.9,48.07,17.2,16.44,34.07,33.23,50.87,50.07,2.06,2.07,4.13,4.14,6.19,6.21l2.12-2.12c-23.52-21.63-47.04-43.27-70.56-64.9s-46.8-43.04-70.19-64.56c-13.23-12.17-26.46-24.34-39.69-36.51l-1.82,2.36c25.96,14.65,51.93,29.29,77.89,43.94,25.82,14.56,51.64,29.13,77.46,43.69,14.51,8.18,29.01,16.36,43.52,24.55,1.24.7,2.93-.76,2.05-2.05-9.85-14.51-20.39-28.55-31.56-42.07s-23.02-26.53-35.44-38.94c-6.98-6.97-14.14-13.75-21.48-20.34-1.45-1.3-3.37.66-2.12,2.12,17.67,20.62,36.17,40.52,55.46,59.64,19.23,19.07,39.23,37.36,59.93,54.81,11.64,9.81,23.51,19.35,35.57,28.63.89.69,2.33-.24,2.26-1.3-1.77-25.16-10.4-49.04-20.34-72-2.81-6.49-5.74-12.94-8.67-19.38l-1.3,2.26c3.76.47,7.51.95,11.27,1.42,1.91.24,1.89-2.76,0-3-3.76-.47-7.51-.95-11.27-1.42-1.25-.16-1.7,1.36-1.3,2.26,10.23,22.45,20.53,45.19,25.69,69.44,1.43,6.74,2.43,13.55,2.92,20.42l2.26-1.3c-21.43-16.47-42.18-33.82-62.21-51.97-20.01-18.13-39.28-37.08-57.76-56.76-10.38-11.06-20.51-22.36-30.39-33.87l-2.12,2.12c12.95,11.63,25.37,23.87,37.17,36.66s23.04,26.18,33.59,40.06c5.97,7.85,11.72,15.87,17.27,24.02l2.05-2.05c-25.96-14.65-51.93-29.29-77.89-43.94s-51.64-29.13-77.46-43.69c-14.51-8.18-29.01-16.36-43.52-24.55-1.45-.82-3.1,1.17-1.82,2.36,23.52,21.63,47.04,43.27,70.56,64.9,23.4,21.52,46.8,43.04,70.19,64.56,13.23,12.17,26.46,24.34,39.69,36.51,1.42,1.3,3.49-.75,2.12-2.12-16.87-16.94-33.78-33.85-50.99-50.45-17.26-16.65-34.82-32.99-52.93-48.7s-36.5-30.58-55.77-44.56c-19.09-13.85-38.91-26.7-59.58-38.08s-42.09-21.24-64.27-29.19c-2.74-.98-5.5-1.94-8.26-2.86-1.18-.39-2.47,1.14-1.69,2.2,14.16,19.29,31.29,36.09,49.3,51.76,19.13,16.63,39.05,32.36,58.7,48.37,20.86,16.99,41.72,33.99,62.58,50.98,20.86,16.99,41.72,33.99,62.58,50.98,20.92,17.05,41.85,34.09,62.77,51.14,2.58,2.1,5.17,4.21,7.75,6.31l1.46-2.51c-15.46-5.87-30.58-12.6-45.34-20.04-14.7-7.41-29.05-15.51-43.08-24.12-14.07-8.64-27.82-17.81-41.32-27.32s-26.9-19.51-40.06-29.65c-13.23-10.2-26.29-20.63-39.29-31.12-13.04-10.53-26.01-21.14-39.02-31.7s-26.05-21.07-39.24-31.4-26.43-20.43-39.95-30.24-27.17-19.24-41.17-28.22-28.25-17.47-42.88-25.32c-3.57-1.92-7.17-3.8-10.78-5.64-1.72-.87-3.24,1.71-1.51,2.59h0Z"/>
      <path d="M67.45,400.35c-11.8-3.41-22.96-8.72-33.06-15.71l-.76,2.8c5.3-.03,9.79,3.35,14.01,6.16,4.91,3.27,9.83,6.55,14.74,9.82,9.83,6.55,19.66,13.09,29.48,19.64,5.54,3.69,11.07,7.38,16.61,11.06,1.62,1.08,3.06-1.49,1.51-2.59-6.8-4.84-13.59-9.69-20.39-14.53-.68-.48-1.65-.1-2.05.54-1.21,1.92.7,3.99,2.71,3.99,2.75,0,3.32-3.22,2.51-5.28-.95-2.41-3.15-3.93-4.52-6.06-.8-1.24-1.45-4.12.6-4.57,1.89-.41,1.09-3.3-.8-2.89-3.52.77-4.25,5.17-2.92,8.01.84,1.79,2.32,3.16,3.58,4.66.59.7,1.32,1.55,1.44,2.49.03.18.03.35,0,.53-.14.22-.1.25.11.11-.07,0-.13-.03-.19-.07-.22-.22-.19-.02.07.59l-2.05.54c6.8,4.84,13.59,9.69,20.39,14.53l1.51-2.59c-20.07-13.37-40.14-26.74-60.21-40.11-4.89-3.26-10.01-7.01-16.15-6.98-1.56,0-1.94,1.98-.76,2.8,10.3,7.12,21.74,12.53,33.78,16.01,1.86.54,2.65-2.36.8-2.89h0Z"/>
      <path d="M108.96,155.98c2.93,1.16,3.79-2.33,3.33-4.45-.32-1.49-1.14-2.57-2.23-3.59-1.49-1.39-3-2.75-4.55-4.07-6.23-5.33-12.93-10.1-19.99-14.26-1.67-.98-3.17,1.59-1.51,2.59,16.72,10.06,32.79,21.19,48.07,33.32l.3-2.36c-6.81,3.22-15.74.77-19.99-5.44-1.08-1.58-3.68-.09-2.59,1.51,5.23,7.64,15.73,10.47,24.09,6.51.81-.38,1.03-1.78.3-2.36-15.48-12.3-31.74-23.6-48.68-33.79l-1.51,2.59c5.67,3.34,11.12,7.06,16.25,11.19,2.53,2.03,4.98,4.16,7.36,6.36.84.78,1.57,1.4,1.79,2.58.05.25-.02.69.07.9.33.77-.2.08,0,.16.03.01.82-.09.29-.3-1.8-.71-2.57,2.19-.8,2.89h0Z"/>
      <path d="M587.99,206.04c-14.43-19.28-30.56-37.26-48.2-53.66-17.58-16.35-36.61-31.14-56.8-44.13-11.38-7.33-23.14-14.07-35.2-20.2-1.43-.73-3.2,1.2-1.82,2.36,20.42,17.07,40.85,34.15,61.27,51.22s40.34,33.39,60.24,50.41c10.05,8.59,19.84,17.69,27.46,28.57l2.05-2.05c-15.41-11.08-30.38-22.77-44.86-35.05-4.09-3.47-8.15-7-12.16-10.56-1.44-1.28-3.44.7-2.12,2.12,5.18,5.6,10.36,11.2,15.54,16.8l.3-2.36c-1.57.73-3.14,1.46-4.71,2.19-1.75.81-.23,3.4,1.51,2.59,1.57-.73,3.14-1.46,4.71-2.19.92-.43.9-1.71.3-2.36-5.18-5.6-10.36-11.2-15.54-16.8l-2.12,2.12c14.33,12.72,29.16,24.87,44.46,36.4,4.35,3.28,8.74,6.51,13.17,9.69,1.21.87,2.9-.85,2.05-2.05-6.84-9.76-15.32-18.16-24.25-25.99-9.52-8.35-19.36-16.34-29.07-24.46-20.49-17.13-40.97-34.26-61.46-51.38-11.55-9.66-23.1-19.32-34.66-28.97l-1.82,2.36c21.29,10.82,41.6,23.55,60.62,37.98,18.98,14.39,36.67,30.5,52.8,48.02,9.08,9.86,17.67,20.18,25.7,30.92,1.14,1.53,3.75.03,2.59-1.51h0Z"/>
    </g>
    <path d="M715.37,463.39c14.85,13.06,29.16,26.74,42.87,40.99,13.66,14.2,26.73,28.96,39.16,44.25,7.02,8.63,13.82,17.42,20.42,26.37l2.36-1.82c-12.86-12.88-25.92-25.97-35.3-41.71-2.62-4.39-4.93-8.97-6.82-13.72l-1.45,1.9c3.95-.24,7.27,3.7,10,6.05,3.51,3.03,7.03,6.05,10.54,9.08,6.9,5.94,13.8,11.89,20.7,17.83,3.95,3.4,7.9,6.81,11.86,10.21,1.13.98,2.84.05,2.51-1.46-2.54-11.39-8.31-21.92-16.49-30.23l-1.82,2.36c6.58,3.29,12.14,8.26,16.08,14.48.49.77,1.69,1.06,2.36.3,2.4-2.72,3.23-6.55,1.92-9.97-.68-1.78-3.59-1.01-2.89.8.92,2.4.58,5.1-1.15,7.06l2.36.3c-4.2-6.63-10.13-12.04-17.15-15.55-1.48-.74-3.06,1.1-1.82,2.36,7.84,7.96,13.29,18,15.72,28.91l2.51-1.46c-14.43-12.43-28.85-24.85-43.28-37.28-3.35-2.88-7.11-7.06-11.93-6.77-.87.05-1.83.93-1.45,1.9,6.91,17.42,18.91,32,31.73,45.41,3.66,3.83,7.4,7.59,11.15,11.34,1.16,1.16,3.39-.41,2.36-1.82-11.77-15.96-24.19-31.44-37.24-46.36-13.07-14.94-26.76-29.34-41.04-43.14-8.03-7.76-16.25-15.34-24.64-22.71-1.44-1.27-3.57.84-2.12,2.12h0Z"/>
    <path d="M912.86,823.04c11.48,23,23.12,46.16,39.1,66.43,4.49,5.7,9.33,11.13,14.54,16.19,1.41,1.37,3.33-.65,2.12-2.12-15.7-19.13-31.64-38.67-41.78-61.46-2.82-6.34-5.11-12.92-6.79-19.65l-2.51,1.46c9.1,10.01,19.91,18.42,31.84,24.8,1.38.74,2.68-.72,2.05-2.05-1.55-3.27-3.09-6.54-4.64-9.81l-2.59,1.51c3.19,5.33,8.72,8.77,14.87,9.43,1.07.11,1.58-1.05,1.45-1.9-.32-2.11-.59-4.28-.36-6.41.18-1.74.83-3.95,2.45-4.89,1.5-.87,6.06-.67,5.57,1.98-.35,1.89,2.54,2.7,2.89.8.91-4.92-4.93-7.34-8.93-5.84-5.96,2.22-5.27,10.15-4.51,15.16l1.45-1.9c-5.07-.54-9.68-3.58-12.28-7.94-1-1.68-3.41-.21-2.59,1.51,1.55,3.27,3.09,6.54,4.64,9.81l2.05-2.05c-11.73-6.27-22.28-14.49-31.23-24.33-1.04-1.15-2.85.07-2.51,1.46,6.14,24.6,20.42,45.98,35.84,65.71,4.41,5.64,8.95,11.19,13.49,16.72l2.12-2.12c-18.42-17.92-31.67-40.19-43.45-62.83-3.31-6.36-6.52-12.77-9.72-19.19-.86-1.73-3.45-.21-2.59,1.51h0Z"/>
  </g>
</svg>