<?xml version="1.0" encoding="UTF-8"?>
<svg id="_图层_1" xmlns="http://www.w3.org/2000/svg" version="1.1" viewBox="0 0 355 300">
  <!-- Generator: Adobe Illustrator 29.5.0, SVG Export Plug-In . SVG Version: 2.1.0 Build 137)  -->
  <defs>
    <style>
      .st0 {
        fill: #faf9f6;
      }

      .st1 {
        fill: #363636;
      }
    </style>
  </defs>
  <g>
    <path class="st1" d="M283.9,245.4c-.8-13.4-4.9-28.4-6-42.1-17-21.1-30.6-50-48.4-69.9-6.6-7.4-16.6-15.6-17.8.5-6.7-2.5-9.6-8.7-16.8-2.5-10.2-7.3-20.3-14.7-30.8-21.6-14.2-9.3-36.7-26-51.1-32.6-3.8-1.7-6.3-3-10.5-.9-1.3.8-1.8,3.4-1.8,4.8.2,7.4,18.1,30.7,16.8,31.9-5.5-.2-21.1-12.1-24.6-5.2-2.6,5.1,4.6,7.2,6.8,10.5-3.8-1-9.6,1-9.2,5.6.6,6.8,22,19.2,25.9,25.8-20-2.6-40.1-1.8-60.2-2-6.7,0-29-5.2-27.7,6.7.1,1.1.5,2.2,1.2,3.1,3.3,5.1,32.7,17.4,40,20.7,13,5.9,26.2,11.3,39.4,16.6,0,1.8-3.4,1.9-4.7,2.1-12.8,1.5-27.3.4-39.7,2.1-3.7.5-7.2,2.5-6.8,6.7.7,7.9,25.7,16.9,31.4,22.6-7.6,1.8-37.3,8.1-40.3,14.7-.8,1.8-.9,3.5,0,5.2,1.2,2.3,6.9,2.9,9.4,3.2,20.4,1.7,44.9-1.3,66-1.1,28.1.2,56.5,1.6,84.8,2.1,2.5,0,4.8,1.1,7.2,1.1,21.3.4,42.7-.8,63.9.5l2.6-1c1.7-2,1.2-5,1-7.4ZM78.7,240.6c.3-1.9,2.2-1.8,3.5-2.2,10.2-3.5,21.9-3.1,32.1-6.7l-42.9-24.6c10.5-1.7,21.3-1,31.9-2.1,6.8-.7,25.5-.6,20.8-11.3-2.3-5.1-73.2-30.5-82-38.4l86.5,1.7c8.6-6.8-17.2-20.7-19.5-26.2,5.9,1.3,12.8,3,13.1-5.2,4.2,1.8,10.3,9.9,14.6,9.4,2.8-.5,4.3-2.8,3.6-5.5l-28.1-42.6c13.8,8.6,27.8,17.2,41.4,26.1,12.9,8.5,29.3,22.3,42.1,29.1,4,2.1,4.9,3.4,9.4.8.4-.2.2-1.7.9-1.7,3,0,8,5.8,12.5,1.1,1.5-1.6.9-6.1,3.1-5.2,1,.4,7.4,9.4,8.7,11.2,13.5,18.7,25.3,38.7,39.2,57.1l6,39.5-196.8-4.2Z"/>
    <path class="st1" d="M63.1,49.7c3,2.4,22.2,9.3,24.6,5.9l.3-5.1-11.3-5.4h20.4c1.8,0,3.4,1.7,5.9-1.5,5.8-7.8-20-7-23.5-6.7-6,.5-27.2,4.2-16.3,12.9Z"/>
  </g>
  <path class="st0" d="M205.1,142.9c.4-.2.2-1.7.9-1.7,3,0,8,5.8,12.5,1.1s.9-6.1,3.1-5.2,7.4,9.4,8.7,11.2c13.5,18.7,25.3,38.7,39.2,57.1l6,39.5-196.8-4.2c.3-1.9,2.2-1.8,3.5-2.2,10.2-3.5,21.9-3.1,32.1-6.7l-42.9-24.6c10.5-1.7,21.3-1,31.9-2.1,6.8-.7,25.5-.6,20.8-11.3s-73.2-30.5-82-38.4l86.5,1.7c8.6-6.8-17.2-20.7-19.5-26.2,5.9,1.3,12.8,3,13.1-5.2,4.2,1.8,10.3,9.9,14.6,9.4,2.8-.5,4.3-2.8,3.6-5.5l-28.1-42.6c13.8,8.6,27.8,17.2,41.4,26.1s29.3,22.3,42.1,29.1,4.9,3.4,9.4.8Z"/>
</svg>