<?xml version="1.0" encoding="UTF-8"?>
<svg id="_图层_1" xmlns="http://www.w3.org/2000/svg" version="1.1" viewBox="0 0 355 300">
  <!-- Generator: Adobe Illustrator 29.5.0, SVG Export Plug-In . SVG Version: 2.1.0 Build 137)  -->
  <defs>
    <style>
      .st0 {
        fill: #faf9f6;
      }

      .st1 {
        fill: #363636;
      }
    </style>
  </defs>
  <g>
    <path class="st1" d="M287.6,221.8c-1.7-6-10.7-17.7-14.4-24.4-7.6-14-29.6-60.6-42.5-66.4-19.5-8.8-11.8,23.7-9.7,33.2-14.6-13.5-28.2-28-42.9-41.3-5.1-4.6-23.8-22.2-28.6-23.8-4-1.3-10.6-1.8-12.1,3.1-3,10.4,16.9,38.4,15.5,40.1-9.3-6.8-17.9-14.6-27.3-21.3-4.9-3.6-17.9-14.1-23.4-13.2-6.8,1.1-3,10.9.2,14.4l48.4,64.6c-8.3.4-25.3-6.4-29.4,4.1-3,7.7,6.2,14.1,12.3,17.2,2.1,1.1,11.5,3.9,11.9,4.3,1.7,1.7-.5,1.8-1.5,2.2-7.3,3.3-34.2,6.8-25.2,19.8,4.6,6.7,27.9,12.1,36.1,14.2,31,7.6,63.1,11.2,94.1,19,6.6,1.7,30,10.4,34.1,9.8,2.5-.4,3.9-2.5,4.7-4.7,3.8-10.1,2.6-40.1-.5-50.8ZM280.8,267.8c-12.2-2.8-24.2-7-36.6-9.9-33-7.8-79-11.5-109.2-23.8-1.4-.6-10.7-3.7-6.3-5.8,6.9-3.3,18.5-5.8,26.3-8.3,2.6-.8,3.6-2.6,6.9-2.4,3.5.2,9.8,4.6,12.8,2.2l1.5-2.8c.2-1.3-.3-2.2-1-3.2-1.8-2.5-28.5-9.2-34.3-11.8-1.7-.8-12.6-6.1-10.8-8.5,3.4-1.1,7.1-.2,10.7.3,12,1.7,29.1,7.4,40.1,8.1,1.6.1,3.2.2,4.7-.5,6.5-11.6-23.4-9.7-25.8-13.1l-1.9-6.5-42.6-57.4,48.8,36.6c4.9.7,6.7-3.3,5.4-7.6l-23.8-45.8,3.1.5c13.4,12.3,27.7,23.9,40.9,36.6,14,13.5,26.4,29.2,41.4,41.4l3.7-1.5c1-1.3,1.1-2.7,1-4.2-.2-5.1-6.4-17.9-7.9-24.6-.9-4.2-2.2-10.3-2.3-14.4,0-1.7-.5-2.1,1.3-3.3,23,24.1,33.6,57.6,52,85,3.3,14.4,5.1,30.1,1.8,44.6Z"/>
    <path class="st1" d="M101.3,169.5c-4.6-.6-16-.4-20.7.3-16.8,2.4-16,17.4-.2,19.5,3.7.5,17.3,1.1,18.8-2,4.5-9.1-17.6-4.9-21.5-7.3-.4-1.1,2.2-2,2.6-2.1,5.2-.7,13.2,0,18.8,0s9.6-7.4,2.1-8.4Z"/>
    <path class="st1" d="M233.4,116c8.3,2.5,1.5-13.4,7.1-16.6,4.6,4.4,3.1,24.3,7.8,26.7,5.7,2.9,5.5-3.3,5.2-7.3-.5-8.6-2.7-30.2-14.9-27.5-9.4,2.1-12.4,22.6-5.3,24.8Z"/>
  </g>
  <path class="st0" d="M280.8,267.8c-12.2-2.8-24.2-7-36.6-9.9-33-7.8-79-11.5-109.2-23.8s-10.7-3.7-6.3-5.8c6.9-3.3,18.5-5.8,26.3-8.3s3.6-2.6,6.9-2.4,9.8,4.6,12.8,2.2l1.5-2.8c.2-1.3-.3-2.2-1-3.2-1.8-2.5-28.5-9.2-34.3-11.8s-12.6-6.1-10.8-8.5c3.4-1.1,7.1-.2,10.7.3,12,1.7,29.1,7.4,40.1,8.1s3.2.2,4.7-.5c6.5-11.6-23.4-9.7-25.8-13.1l-1.9-6.5-42.6-57.4,48.8,36.6c4.9.7,6.7-3.3,5.4-7.6l-23.8-45.8,3.1.5c13.4,12.3,27.7,23.9,40.9,36.6,14,13.5,26.4,29.2,41.4,41.4l3.7-1.5c1-1.3,1.1-2.7,1-4.2-.2-5.1-6.4-17.9-7.9-24.6-.9-4.2-2.2-10.3-2.3-14.4s-.5-2.1,1.3-3.3c23,24.1,33.6,57.6,52,85,3.3,14.4,5.1,30.1,1.8,44.6Z"/>
</svg>