<?xml version="1.0" encoding="UTF-8"?>
<svg id="_图层_1" xmlns="http://www.w3.org/2000/svg" version="1.1" viewBox="0 0 355 300">
  <!-- Generator: Adobe Illustrator 29.5.0, SVG Export Plug-In . SVG Version: 2.1.0 Build 137)  -->
  <defs>
    <style>
      .st0 {
        fill: #faf9f6;
      }

      .st1 {
        fill: #363636;
      }
    </style>
  </defs>
  <g>
    <path class="st1" d="M291,238c-2-2-7-12-9.5-15.6-14.2-20.2-33.6-42.3-50.6-60.4-5.4-5.7-20.3-22.1-27.3-23-13.4-1.6-8,13.8-4.6,20.9-1.8.5-2.1-.7-3.1-1.6-9.8-7.7-19.7-20.5-29.3-29.3-20.5-19-45.6-38.7-68.2-55.3-5.9-4.4-19.7-16.3-27.1-12.7-9,4.4,10.9,24.9,13.6,29.8l-62.8-26.7c-6.8-2.4-11.3,2.6-6.3,8.4,23.6,21.7,46.8,44,71.8,64.3,18.7,15.2,38.9,28.6,57,44.5-10.3.9-52.2.4-57.6,9.3-1.2,2-1.5,3.9-.8,6.1,2.6,8.7,33.9,7.4,41.7,10.2l-31.9,17.7c-11,10.9-.9,14,9.6,15.6,53.6,8.4,117.2-.3,173.6,6.4,7.8.9,13.2,6,19.9-1,6.2-6.3-5.8-5.7-8-7.8ZM280.6,239l-177.3-7-.7-2.4,52.3-26.2c3.9-2.3,1.4-6.6-2.6-6.7-3.7,0-6.2,2.5-9.4,3-6.3,1-33.8-2.4-40.8-4.1-1.5-.4-3.3,0-3.7-2.1,6.8-.8,13.6-2.5,20.4-3.1,8.5-.8,31.5-2.4,38.5.2,2.8,1,4.6,3.4,7.6,3.9l3.2-2.1c-.1-8.3-7.9-9.3-13.1-13.2-26.5-19.7-55-41.8-80.2-63.2-13.2-11.2-26.1-23.2-38.2-35.5,5.3,1.4,10.6,3.7,15.7,5.8,12.2,5,25.7,12.5,37.7,16.7,2.3.8,4.8.2,7.3,1.1,4.9,1.7,11.5,13.1,15.9,12.6,3.5-.4,2.7-4.5,1.4-6.7-3.3-5.6-15.8-15.2-20.9-21-3.3-3.8-7.5-9.4-10.5-13.6-.6-.8-2.8-2-1.1-3.1,25.9,20.3,53.2,39.3,77.5,61.7,12.1,11.2,23.7,25.8,36.1,36.1,3.3,2.8,12.8,10.2,17.1,8.8,1.3-.4,1.5-1.4,1.8-2.6,1.1-6.2-11.7-19.9-10.5-27.7,1.3-1.4,8.8,6.2,10,7.3,17.6,17.9,55.6,59.2,66.2,80.3.6,1.3,2,1.7.2,2.9Z"/>
    <path class="st1" d="M53.1,45.7c4.9,1.5,6.6-1.5,5-6-.9-2.4-15.3-19.8-14.1-21,4.8.1,17.2,11.6,20.4,5.2,1.8-3.6-1.2-5.9-4-7.5-4.1-2.5-21.1-11-25.3-12.4-6.7-2.2-10.7-.3-8.2,7.1,5.8,5.2,20.6,32.9,26.1,34.6Z"/>
    <path class="st1" d="M117.9,55.3c7.7,9.3,10.4-6.6,3.6-12l2.1-.5c2.2,5.9,20.1,23.2,18.3,7.3-6.5-4-25.4-30.7-30.4-31.4-5.2-.8-6.3,3.2-5.5,7.6.7,3.6,9.8,26.5,11.8,29Z"/>
    <path class="st1" d="M65.4,172.5c-4.2-.3-28.3,7.6-31.4,10.4-11.9,10.9,22.6,14.3,25.7,12.1,1.7-1.2,1.3-4.9,0-6.5-2.1-2.5-7.8-.8-9.5-3.5,4.1-1.6,17.6-2.8,19.4-6.3,1.7-3.5-.7-6-4.3-6.2Z"/>
  </g>
  <path class="st0" d="M204.2,148.4c1.3-1.4,8.8,6.2,10,7.3,17.6,17.9,55.6,59.2,66.2,80.3.6,1.3,2,1.7.2,2.9l-177.3-7-.7-2.4,52.3-26.2c3.9-2.3,1.4-6.6-2.6-6.7s-6.2,2.5-9.4,3c-6.3,1-33.8-2.4-40.8-4.1s-3.3,0-3.7-2.1c6.8-.8,13.6-2.5,20.4-3.1s31.5-2.4,38.5.2,4.6,3.4,7.6,3.9l3.2-2.1c-.1-8.3-7.9-9.3-13.1-13.2-26.5-19.7-55-41.8-80.2-63.2-13.2-11.2-26.1-23.2-38.2-35.5,5.3,1.4,10.6,3.7,15.7,5.8,12.2,5,25.7,12.5,37.7,16.7,2.3.8,4.8.2,7.3,1.1,4.9,1.7,11.5,13.1,15.9,12.6s2.7-4.5,1.4-6.7c-3.3-5.6-15.8-15.2-20.9-21s-7.5-9.4-10.5-13.6-2.8-2-1.1-3.1c25.9,20.3,53.2,39.3,77.5,61.7,12.1,11.2,23.7,25.8,36.1,36.1,3.3,2.8,12.8,10.2,17.1,8.8,1.3-.4,1.5-1.4,1.8-2.6,1.1-6.2-11.7-19.9-10.5-27.7Z"/>
</svg>