<?xml version="1.0" encoding="UTF-8"?>
<svg id="_图层_1" xmlns="http://www.w3.org/2000/svg" version="1.1" viewBox="0 0 355 300">
  <!-- Generator: Adobe Illustrator 29.5.0, SVG Export Plug-In . SVG Version: 2.1.0 Build 137)  -->
  <defs>
    <style>
      .st0 {
        fill: #faf9f6;
      }

      .st1 {
        fill: #363636;
      }
    </style>
  </defs>
  <path class="st1" d="M342.1,271c-3.8-9.8-4.1-19.9-12.6-27.2-30.4-26-56.5-72.7-80.3-106-14.9-20.9-30.5-41.5-45.9-61.9-2.3-1.4-5.3-.2-6.1,2.3-1.1,3.8,8.3,20.8,10.5,25.7,5.8,13.4,11.3,26.9,16.6,40.5-35.8-24.5-73.7-47.1-103.1-79.6-5.4-3.2-8.8,1.9-5.2,7.3,5.1,7.9,21.8,21.3,29.3,29.3,12.5,13.4,24.7,27.7,36.1,41.9l-100.9-21.8c-3.5,2.5-2,5.8,1.1,8.1,5.3,3.9,25.7,11.8,33.2,15,8.1,3.5,16.4,6.5,24.8,9.2.3,1.7-2.6,1.1-3.7,1.1-11.8-.7-29.7-4.5-40.8-3.2-6.3.7-7.6,4.3-3.9,9.5l46.4,20.9-108.3-14.7c-9.3-3-14.2,7.3-7.2,12.4,5,3.6,16.6,8.1,22.7,10.8,22.7,10.1,48,19.5,71.4,28.1,76.7,28.3,155.2,51.9,232.3,79.2l2.9-1.5c2.4-3.6-7.1-20.7-9-25.4ZM56.8,186.7l-21-9.9,131.1,16.6c2.8-.8,3.7-4.9,2.3-7.2l-56-25.1c13.4,1,26.9,2,40.3,3.1,4.2.4,23.6,5.6,21-3.2l-3-3.3-43.7-17.5c9.7-.8,63.1,16.5,67.9,13.4.6-.4,1.6-4,.7-5l-23-28.3c11.1,7.3,22.3,14.7,33.3,22.2,7.3,5,18.5,14.9,25.5,18.5,1.6.8,3,1.7,4.9,1.1l2.4-5.1c-5.8-11.6-10.9-23.6-15.8-35.6-.8-2-2.8-5.3-2.1-7.3,8.4,11.8,17.1,23.4,25.5,35.2,20.5,29,43.7,69.3,68.2,94,3.3,3.3,8.9,6.5,11,8.9,5.7,6.8,7.4,25.2,13.1,33.4-94.7-31.6-190-61.8-282.6-98.9Z"/>
  <path class="st0" d="M339.4,285.6c-94.7-31.6-190-61.8-282.6-98.9l-21-9.9,131.1,16.6c2.8-.8,3.7-4.9,2.3-7.2l-56-25.1c13.4,1,26.9,2,40.3,3.1,4.2.4,23.6,5.6,21-3.2l-3-3.3-43.7-17.5c9.7-.8,63.1,16.5,67.9,13.4.6-.4,1.6-4,.7-5l-23-28.3c11.1,7.3,22.3,14.7,33.3,22.2,7.3,5,18.5,14.9,25.5,18.5s3,1.7,4.9,1.1l2.4-5.1c-5.8-11.6-10.9-23.6-15.8-35.6-.8-2-2.8-5.3-2.1-7.3,8.4,11.8,17.1,23.4,25.5,35.2,20.5,29,43.7,69.3,68.2,94,3.3,3.3,8.9,6.5,11,8.9,5.7,6.8,7.4,25.2,13.1,33.4Z"/>
</svg>