<?xml version="1.0" encoding="UTF-8"?>
<svg id="_图层_1" xmlns="http://www.w3.org/2000/svg" version="1.1" viewBox="0 0 355 300">
  <!-- Generator: Adobe Illustrator 29.5.0, SVG Export Plug-In . SVG Version: 2.1.0 Build 137)  -->
  <defs>
    <style>
      .st0 {
        fill: #faf9f6;
      }

      .st1 {
        fill: #363636;
      }
    </style>
  </defs>
  <g>
    <path class="st1" d="M283,197.1c-20.9-24.2-38.9-51-59.8-75.2-3.6-4.2-15.5-18.9-20.4-18.9-11.2,0-1.6,18-2.6,19.4-9.7-7.2-19.4-14.4-28.8-22-8.9-7.2-17.4-16-26.2-23-3.9-3.1-11.4-9.4-13.7-1.1-1.7,6.5,19.1,33.7,22.6,40.8-25-10.3-51.2-17.3-76.9-25.7-5.1,0-6.4,4.6-3.2,8l40.4,21.9-46.6-1.1-62,4c-5.9,3.2-3.5,6.8.8,10.1l86.8,31-60.1,7.4c-3.3,3.1-2.1,6.6,2,8.4,11.6,5.1,37.9,7.8,51.3,10.4,1.5.3,3.2,0,3.7,2.1l-75.4,15.2c-2.5.4-3.7,3.6-2.6,5.8l5.4,3.1c88.6,5.1,175.7,22.6,263.9,31.4,4.9,0,7.9-4.1,7.8-8.8-.4-13.7-4.3-29.4-6.2-43ZM49.4,211.3l63.9-16.2c2.2-2.2,1.6-7.8-2.1-8.4l-49.2-7.8c.1-1.5,4.7-1.8,5.9-2,6.6-.7,41.3-2.2,43.9-6.4.9-1.6.7-3.9.3-5.6l-88.8-32.1c-1.5-1.5,0-1.9,1.5-2.1,4.5-.6,10,.3,14.7,0,26.2-1.3,50-2.7,76.4-1.1,8.3.5,16.7,2,24.9,3,13.6-7.3-12-14.3-18.2-17-.7-.3-3.2-.6-1.5-1.6,12.3,4,24.7,8.5,36.5,13.8,3,1.3,9.9,6.3,12.2,5.7,3.4-.9,3.8-3.8,2.6-6.9-1.8-4.3-13.4-17.4-17-22.7-2.6-3.9-5.3-7.7-7.5-11.8l61.8,47.7c12.7-1.3-1-14.8-1-21.5,17.4,18.9,32.4,39.9,48.2,60.1,11,14.1,17.3,15.6,20.7,34.7,1.6,9.1,2.2,18.4,3.3,27.6l-231.4-29.3Z"/>
    <path class="st1" d="M51.8,94c9-6.8-6.2-10.6-9.7-15.5,4.1-1.7,22.5,0,20.8-6.6-1.4-5.6-22.6-2-26.8,0-13.4,6.6,9,20.4,15.7,22.1Z"/>
  </g>
  <path class="st0" d="M208.6,118.2c17.4,18.9,32.4,39.9,48.2,60.1,11,14.1,17.3,15.6,20.7,34.7,1.6,9.1,2.2,18.4,3.3,27.6l-231.4-29.3,63.9-16.2c2.2-2.2,1.6-7.8-2.1-8.4l-49.2-7.8c.1-1.5,4.7-1.8,5.9-2,6.6-.7,41.3-2.2,43.9-6.4s.7-3.9.3-5.6l-88.8-32.1c-1.5-1.5,0-1.9,1.5-2.1,4.5-.6,10,.3,14.7,0,26.2-1.3,50-2.7,76.4-1.1,8.3.5,16.7,2,24.9,3,13.6-7.3-12-14.3-18.2-17s-3.2-.6-1.5-1.6c12.3,4,24.7,8.5,36.5,13.8s9.9,6.3,12.2,5.7c3.4-.9,3.8-3.8,2.6-6.9-1.8-4.3-13.4-17.4-17-22.7s-5.3-7.7-7.5-11.8l61.8,47.7c12.7-1.3-1-14.8-1-21.5Z"/>
</svg>