<?xml version="1.0" encoding="UTF-8"?>
<svg id="_图层_1" xmlns="http://www.w3.org/2000/svg" version="1.1" viewBox="0 0 355 300">
  <!-- Generator: Adobe Illustrator 29.5.0, SVG Export Plug-In . SVG Version: 2.1.0 Build 137)  -->
  <defs>
    <style>
      .st0 {
        fill: #faf9f6;
      }

      .st1 {
        fill: #363636;
      }
    </style>
  </defs>
  <g>
    <path class="st1" d="M305.5,251c-9.7-14.8-21.9-31-30.8-45.6-8-13.2-20.9-52.8-31.6-59.4-3.9-2.4-5.4-1.2-9.4-5.2-18.3-18.4-28.7-44.3-41.7-66.1-3-5-6.7-13.4-13.3-13-9.3.5-2.3,14.7-3.1,20-5.7-7.3-20.5-32.9-31.9-27.7-10.3,4.7.6,26.6,3.1,34-12-9-28.7-33.8-44.5-34.6-6.2-.3-10.8,2.4-11.1,9-.6,13.7,25.8,37.9,33.6,49.2-7.1,0-24.6-5.9-26,5.5-1.1,9.5,18,24.4,23.9,31.1-15.2,8.6-7.2,17.2,2.7,25.6,16.7,14.3,39,23.5,54.9,39.3-11.7,1.1-43.3,2.7-48.3,15.7-4.4,11.6,17.6,14.4,25,15.9,50.8,10.4,103,14.5,153.7,25.4,2.4.3,4.3-1.4,4.6-3.7.3-3.4-7.6-11.7-9.9-15.2ZM157.1,236.1c-2.5-.5-16.6-3.1-16.5-5.4,5.8-4.6,13.5-6.4,20.7-7.5,19.7-3.2,42.3-.8,62.5-2.4,1.7,0,3.4-2.3,3.5-3.9.8-8.8-28.6-1.9-33.3-4-21.7-20.5-49.8-32.7-71.2-53.4.9-4.8,7.2-2,10.1-.7,5.1,2.4,15.2,13.9,17.8,14.7,3.5,1,6.3-2,5.4-5.4-12.4-14.2-29.5-25.8-41.8-40-1.1-1.3-7.4-8.9-6.2-10,3.9-.6,7.1.5,10.7,1.3,9.9,2.2,26.9,10.3,35,11.1,1.6.2,4.2.5,5.2-.9,3.1-8.8-9.5-8.2-14.7-11.6-8-5.2-39.1-41.5-42.9-50.2-.9-2-1.7-4.1-1.6-6.3,2.2-.3,4,0,6,.8,10.7,3.8,24.8,22.1,33.2,30.6,4.5,4.5,12.2,9.5,16.3,14.1,3.4,3.8,6.8,14.2,12,14.2,4.3,0,4.2-3.1,3.4-6.6-4.5-5.8-25.9-48.5-22.8-52,4.9,1,7.9,5.8,10.9,9.5,11.2,13.9,20.4,30.9,31.7,45l6.7.5c1.2-.8,1.1-2.9,1-4.2-.2-4.5-9.3-20.9-11.2-27.6-.5-1.8-1-3.4,1.2-1.2,6.8,14.1,14.2,27.8,23.2,40.7,4.2,6.1,13.7,19.6,18.8,24.1,5.4,4.8,7.9,1.2,13.4,9.6,14.1,21.4,18.6,51.4,38.5,70.3l18.6,30c-47.3-9.5-96.5-13.6-143.6-23.3Z"/>
    <path class="st1" d="M232.6,96.8c.7-2.6,0-12.1,0-15.7s1.8-4.6,3.1-4.7l7.3,16.3c12.1,3.1,2.2-16.8-1-21-14.7-19-22.3,19-15.7,26.1,1.9,2.1,5.6,1.4,6.3-1Z"/>
    <path class="st1" d="M95.1,142.2c-13.9-4.1-34.3,1.5-20.5,18.4,2.8,3.4,15.8,13.6,19.6,9.7,6.7-6.6-16.8-12.3-15.4-19.1.7-3.3,20.4.6,16.3-9Z"/>
  </g>
  <path class="st0" d="M147.8,62.8c4.9,1,7.9,5.8,10.9,9.5,11.2,13.9,20.4,30.9,31.7,45l6.7.5c1.2-.8,1.1-2.9,1-4.2-.2-4.5-9.3-20.9-11.2-27.6s-1-3.4,1.2-1.2c6.8,14.1,14.2,27.8,23.2,40.7,4.2,6.1,13.7,19.6,18.8,24.1,5.4,4.8,7.9,1.2,13.4,9.6,14.1,21.4,18.6,51.4,38.5,70.3l18.6,30c-47.3-9.5-96.5-13.6-143.6-23.3-2.5-.5-16.6-3.1-16.5-5.4,5.8-4.6,13.5-6.4,20.7-7.5,19.7-3.2,42.3-.8,62.5-2.4,1.7,0,3.4-2.3,3.5-3.9.8-8.8-28.6-1.9-33.3-4-21.7-20.5-49.8-32.7-71.2-53.4.9-4.8,7.2-2,10.1-.7,5.1,2.4,15.2,13.9,17.8,14.7s6.3-2,5.4-5.4c-12.4-14.2-29.5-25.8-41.8-40s-7.4-8.9-6.2-10c3.9-.6,7.1.5,10.7,1.3,9.9,2.2,26.9,10.3,35,11.1s4.2.5,5.2-.9c3.1-8.8-9.5-8.2-14.7-11.6-8-5.2-39.1-41.5-42.9-50.2s-1.7-4.1-1.6-6.3c2.2-.3,4,0,6,.8,10.7,3.8,24.8,22.1,33.2,30.6s12.2,9.5,16.3,14.1c3.4,3.8,6.8,14.2,12,14.2s4.2-3.1,3.4-6.6c-4.5-5.8-25.9-48.5-22.8-52Z"/>
</svg>