<?xml version="1.0" encoding="UTF-8"?>
<svg id="_图层_4" data-name="图层 4" xmlns="http://www.w3.org/2000/svg" viewBox="0 0 184 115">
  <defs>
    <style>
      .cls-1 {
        fill: #363636;
      }

      .cls-2 {
        fill: #e83533;
      }
    </style>
  </defs>
  <path class="cls-2" d="M79.86,19.39h20.94c1.29,0,2.33,1.05,2.33,2.33v3.42h-25.61v-3.42c0-1.29,1.05-2.33,2.33-2.33Z"/>
  <g>
    <path class="cls-1" d="M30.4,53.92c10.73,0,19.42-8.69,19.42-19.42s-8.69-19.42-19.42-19.42-19.42,8.69-19.42,19.42,8.69,19.42,19.42,19.42ZM30.4,17.2c9.56,0,17.31,7.75,17.31,17.31s-7.74,17.31-17.31,17.31-17.3-7.75-17.3-17.31,7.74-17.31,17.3-17.31Z"/>
    <path class="cls-1" d="M30.4,49.97c8.54,0,15.46-6.92,15.46-15.46s-6.92-15.46-15.46-15.46-15.45,6.93-15.45,15.46,6.92,15.46,15.45,15.46Z"/>
    <path class="cls-1" d="M176.85,75.38l-10.75-6.93c-1.04-.67-2.26-.85-3.38-.59l-22.6-43.82c.02-.12-.03-.19-.11-.22-.46-.89-1.08-1.72-1.88-2.41l-16.46-14.31c-1.64-1.42-3.01-2.73-4.37-3.8h0c-.36-.32-.74-.59-1.13-.84-1.9-1.31-3.9-2.11-6.64-2.12h-27.37c-4.97,0-9.34,3.62-9.93,8.56-.71,5.89,3.92,10.94,9.68,10.94h21.82c1.86,0,3.67.67,5.07,1.9l3.04,2.64c-1.44-.27-2.92-.42-4.44-.42h-56.1c-3.87-7.61-11.76-12.84-20.89-12.84-12.92,0-23.4,10.48-23.4,23.4,0,2.94.55,5.74,1.54,8.34-.31,1.51-.47,3.08-.47,4.68v16.39c0,13,10.58,23.58,23.59,23.58h40.48c1.13,2.01,2.96,3.64,5.27,4.48l3.92,1.43c1.13.41,2.28.61,3.41.61,3.32,0,6.48-1.66,8.36-4.45l23.7,6.42c.55.15,1.1.24,1.64.3l20.75,6.85c-.05,1.51.65,3.01,2.01,3.88l10.75,6.93c2.05,1.33,4.79.73,6.12-1.32l20.1-31.15c1.33-2.05.73-4.79-1.32-6.12ZM30.4,13.22c11.76,0,21.29,9.53,21.29,21.29s-9.53,21.29-21.29,21.29-21.29-9.53-21.29-21.29S18.64,13.22,30.4,13.22ZM31.65,85.1c-11.68,0-21.19-9.5-21.19-21.18v-16.39c0-.25,0-.5.02-.74,4.12,6.67,11.51,11.12,19.92,11.12,12.93,0,23.4-10.48,23.4-23.4,0-2.88-.52-5.63-1.46-8.17h55.04c3.23,0,6.3.73,9.04,2.03l4.29,3.73c1.29,1.12,2.02,2.74,2.03,4.44.05,8.38-.65,22.37-2.1,30.6-.6,3.4-4,5.55-7.34,4.64l-19.51-5.29c-5.98-1.62-12.15,1.91-13.77,7.9h0c-1.07,3.94.11,7.96,2.75,10.71H31.65Z"/>
  </g>
  <path class="cls-1" d="M109.88,73.84H24.94c-8.48,0-15.38-6.9-15.38-15.38v-14.8h.8v14.8c0,8.04,6.54,14.58,14.58,14.58h84.93v.8Z"/>
</svg>