<?xml version="1.0" encoding="UTF-8"?>
<svg id="_图层_4" data-name="图层 4" xmlns="http://www.w3.org/2000/svg" viewBox="0 0 163.41 159.91">
  <defs>
    <style>
      .cls-1 {
        fill: #363636;
      }
    </style>
  </defs>
  <path class="cls-1" d="M0,4.19v151.54c0,2.31,1.88,4.19,4.19,4.19h155.03c2.31,0,4.19-1.88,4.19-4.19V4.19c0-2.31-1.88-4.19-4.19-4.19H4.19C1.88,0,0,1.88,0,4.19ZM160.46,7.14v123.31c0,2.31-1.88,4.19-4.19,4.19H7.14c-2.31,0-4.19-1.88-4.19-4.19V7.14c0-2.31,1.88-4.19,4.19-4.19h149.13c2.31,0,4.19,1.88,4.19,4.19Z"/>
  <g>
    <path class="cls-1" d="M113.64,41.55c-4.24-.87-8.57-.46-12.81.03-12.97,1.5-32.93,6.77-41.88,16.86-.95,1.09-2.5,4.62-4,2.77-.3-.92,1.41-3.02,2.04-3.75,1.14-1.33,2.69-2.67,4.05-3.81-1.96-2.5-4.3-3.94-5.77-6.96-3.92-7.94-1.9-17.62,3.07-24.61.05-.16-.22-.19-.35-.11-3.21,1.36-9.65,6.39-11.99,9.06-7.32,8.29-9.87,19.96-.3,27.66.16.14.22.27.19.46,1.17-.33,1.99-2.15,3.1-2.39s1.69.35,1.36,1.36c-4.51,4.32-9.46,8.19-14.03,12.43-4.38,4.08-8.43,8.46-12.62,12.59-2.61,2.58-9.52,11.48-10.69,14.77-2.04,5.71,4,3.24,6.74,1.85,11.2-5.66,21.05-15.39,28.91-24.94.52-.63.79-1.63,1.44-2.34,1.63-1.74,4.51-2.47,6.85-2.26,1.47.14,7.04,1.66,6.47,3.7s-3.21-.63-4.3-.98c-2.77-.95-6.99-.82-8.32,2.31-1.69,3.92-.71,12.46,3.7,14.3,2.39,1.01,5.03-.46,6.53-2.37.6-.76,1.03-2.83,2.45-1.96s-1.77,4.08-1.93,4.7.24,2.72.33,3.02c1.88,7.23,20.75,7.4,26.46,7.1,11.12-.57,30.65-7.72,37.94-16.4,6.2-7.4,1.96-15.53-6.91-17.32-.87-.16-3.34.14-3.7-.98-.68-2.2,2.72-1.09,3.86-1.31-.71-1.36-.54-3.13-.82-4.7s-1.25-4.7-.79-5.36,1.63,0,1.99.73c.65,1.39,1.69,7.7,1.17,9-.16.41-.79.11-.57.79,6.72,1.01,12.32,7.86,10.44,14.74-2.09,7.8-11.8,13.19-18.6,16.4-2.96,1.39-5.14,1.71-7.61,3.89s-3.67,3.34-4.43,3.43c-2.23.24-.65-2.28.38-2.94-2.45.46-4.81,1.25-7.29,1.63-8.35,1.31-26.62,1.41-32.36-5.93-1.03-1.33-1.69-2.77-1.47-4.51-8.16,3.51-11.83-5.33-11.86-11.99-6.45,7.34-13.57,14.28-21.92,19.44-2.75,1.69-8.24,5-11.37,5.06-2.53.03-4.19-1.79-4.05-4.3s2.99-6.45,4.46-8.54c8.16-11.53,19.06-21.05,29.56-30.4-8.16-6.42-8.95-16.94-3.86-25.64,4.95-8.48,13.98-13.73,22.6-17.79-1.66-3.51.79-9.03,5.11-8.32,2.67.44,4.65,6.31,1.77,5.33-.84-.27-.95-3.07-2.47-3.18-2.75-.16-3.32,4.79-2.18,5.14,4.81-1.5,9.68-2.96,14.69-3.62,9.9-1.31,22.25-.46,30.51,5.63,6.45,4.73,10.85,14.2,7.07,21.92-.35.71-1.69,2.28-1.77,2.91-.08.63,1.47,3.21,1.66,4.22s.24,1.99-1.03,1.79-1.69-3.07-2.12-4.02c-.63-1.39-1.71-1.58-.71-3.34l-.03.05ZM101.16,39.35c4.62-.46,9.33-1.01,13.84.41,3.54-4.68,1.55-11.1-1.5-15.56-6.47-9.41-20.48-10.71-30.95-9.82l3.18,1.11c7.29,3.13,12.92,9.03,15.07,16.75.65,2.34,1.06,4.7.38,7.1h-.03ZM99.17,39.57c.84-5.49-1.71-11.67-5.36-15.75-3.24-3.64-8.76-7.04-13.65-7.64-1.22-.16-2.42.05-3.59-.08s-.82-.44-1.25-.46c-.82-.08-4.11.92-5.11,1.22-2.72.79-5.36,1.88-7.94,3.07-4.9,6.96-8.46,14.03-6.15,22.79,1.11,4.22,3.54,6.85,6.77,9.6,7.89-4.87,16.45-8.84,25.56-10.85,3.56-.79,7.18-1.14,10.74-1.88l-.03-.03Z"/>
    <path class="cls-1" d="M116.09,101.03c4.3,4.49,6.2,11.15,8.08,17,1.82,5.68,3.13,11.31,4.46,17.08.95,4.13,2.04,8.27,2.88,12.43l-2.23-.14c-1.74-9.6-4.11-19.09-7.07-28.36-1.85-5.79-3.7-12.02-7.64-16.72-.57-.33-6.28,3.67-5.3.38.27-.92,5.09-2.91,6.23-3.56,7.23-4.11,16.34-11.07,22-17.16.71-.76,1.74-3.21,2.96-2.23s-1.03,3.07-1.6,3.94c3.37.05,6.61-1.22,9.06-3.54,2.45-2.31,4.68-6.61,1.09-9.19s-2.5-.6-1.6-2.09c3.51-1.33,5.9,3.32,5.63,6.36-.54,5.87-8.95,11.29-14.52,10.82s-1.14-.65-1.39-.54c-.44.19-2.45,2.31-3.07,2.83-4.65,3.81-9.74,7.94-14.82,11.12-1.01.63-2.01,1.28-3.15,1.6l.03-.03Z"/>
    <path class="cls-1" d="M143.53,59.42c1.66-1.55,7.8-4.13,8.51-.54.33,1.55-3.29,7.34-4.6,7.8-.9.3-1.58-.27-1.44-1.2s3.62-4.24,3.83-5.74l-.38-.54c-.84-.24-2.34.57-3.1,1.01-1.25.68-3.94,3.37-4.92,3.37-2.31,0,.05-5.09.38-6.45s1.44-6.2.76-7.67c-.82-1.77-3.34,1.6-3.83,2.39-1.74,2.77-3.51,7.94-4,11.18-.16,1.01-.14,4.08-.44,4.7s-2.07.71-1.85-.49c-.52-.49-4.76,2.99-4.11-.08.3-1.41,2.88-2.09,4.11-1.66,0-3.97,1.31-8.27,2.88-11.91s4.49-8.21,7.7-6.64c3.75,1.85.9,9.3.44,12.43l.05.03Z"/>
    <path class="cls-1" d="M107.22,85.45c.24.24.38.82.19,1.14-.6,1.36-5.71,1.09-7.1.98-4.41-.35-8.92-2.64-13.11-3.92-.68,7.97-14.66,7.75-13.95-.6.38-4.57,4.05-6.01,8.08-4.65,7.83,2.64,12.73,7.02,21.92,7.07.92,0,3.43-.57,3.97-.05v.03ZM77.85,80.03c-1.31.27-2.45,1.71-2.61,3.02-.38,3.15,3.29,4.65,5.96,4.24,2.67-.41,4.9-2.69,3.78-4.46s-3.78,2.77-5.36,1.69c-1.36-1.22,2.2-3.21,2.2-3.45-1.14-.73-2.58-1.33-3.97-1.03h0Z"/>
    <path class="cls-1" d="M46.6,147.53h-2.2c.76-9.49,1.63-19.04,3.26-28.45,1.17-6.8,2.39-15.85,7.89-20.5.92-.79,5.3-4,5.96-1.79s-1.66,1.47-2.88,2.18c-5.87,3.45-7.1,11.29-8.27,17.43-1.96,10.25-2.96,20.69-3.75,31.14Z"/>
    <path class="cls-1" d="M122.18,50.15c.24,2.31-2.31,1.14-3.75,1.17-3.81.11-8.16,2.5-11.61,3.94l3.92.6c1.36.6,5.41,1.25,3.75,3.29-1.41.3-2.47-.65-3.81-1.01-1.96-.54-6.15-.76-8.02-.05-.95.35-1.99,1.74-2.91.19-.27-.9.22-1.28.87-1.74,4.54-3.24,14.74-8.27,20.23-6.88.46.11.9.33,1.33.49h0Z"/>
    <path class="cls-1" d="M49.46,66.6c.3.3.41.98.08,1.31-5.03,4.24-10.01,8.59-14.58,13.33-2.26,2.34-5.63,6.93-7.94,8.7-.54.41-1.33.95-1.85.11-.54-.87.65-2.01,1.22-2.69,5.44-6.53,12.07-12.21,18.03-18.19,1.33-.24,3.83-3.75,5.06-2.53l-.03-.03Z"/>
    <path class="cls-1" d="M74.21,53.87c3.26-.27,7.15.3,10.28,1.33s2.28.54,2.2,1.6c-.16,1.85-4.11.05-5.33-.22-5.19-1.11-10.17-1.14-14.3,2.58-.98.87-2.47,3.67-3.45,3.64l-.63-.33c-1.01-1.33,2.09-4.43,3.1-5.28,2.58-2.15,4.76-3.07,8.13-3.37v.03Z"/>
    <path class="cls-1" d="M56.37,78.76c-1.82-.16-2.96,4.32-4.38,3.05-.76-.68-.38-1.22,0-1.96,1.33-2.75,5.3-4.6,8.19-3.26s3.07,2.64,1.63,3.54c-1.44.87-1.69-1.63-3.07-1.82l-1.09,3.78c-2.37.63-1.69-1.88-1.22-3.32h-.05Z"/>
    <path class="cls-1" d="M50.71,34.76c.65,1.28-.11,2.69-.22,4s.16,2.96.54,4.57c.38,1.6,1.82,3.32.03,3.86-1.77.16-2.75-5.6-2.8-6.99s.27-4.3.79-5.11,1.01-.46,1.63-.38l.03.05Z"/>
    <path class="cls-1" d="M78.34,63.39c2.45-.44,3.67,5.19,2.77,6.72-2.04,3.43-7.1-5.93-2.77-6.72h0Z"/>
    <path class="cls-1" d="M97.81,71.01c-.24.19-.35.82-.82,1.03-1.74.82-2.15-1.96.24-3.21,2.42-1.25,6.09-.19,5.63,2.94s-.6,1.77-1.55,1.6c-1.6-.24-.22-1.96-.87-2.58s-2.04-.27-2.64.19v.03Z"/>
    <path class="cls-1" d="M59.87,65.73c-.41-.41-.35-1.47.24-1.74.87-.38,2.69-.14,4.05-.57s2.26-1.66,3.24-1.17c1.44,1.22-.79,2.56-1.9,2.99s-4.79,1.33-5.63.49h0Z"/>
    <path class="cls-1" d="M55.55,67.09c1.22-.08,2.99.22,4.38.16s3.21-1.06,2.8,1.09-.22.52-.54.68c-1.2.54-7.32.82-7.72-.46s.22-1.41,1.09-1.47h0Z"/>
    <path class="cls-1" d="M46.01,46.97c1.71-.57,2.34,2.2.46,1.93s-1.2-1.69-.46-1.93Z"/>
    <path class="cls-1" d="M113.64,41.55c-4.24-.87-8.57-.46-12.81.03-12.97,1.5-32.93,6.77-41.88,16.86-.95,1.09-2.5,4.62-4,2.77-.3-.92,1.41-3.02,2.04-3.75,1.14-1.33,2.69-2.67,4.05-3.81-1.96-2.5-4.3-3.94-5.77-6.96-3.92-7.94-1.9-17.62,3.07-24.61.05-.16-.22-.19-.35-.11-3.21,1.36-9.65,6.39-11.99,9.06-7.32,8.29-9.87,19.96-.3,27.66.16.14.22.27.19.46,1.17-.33,1.99-2.15,3.1-2.39s1.69.35,1.36,1.36c-4.51,4.32-9.46,8.19-14.03,12.43-4.38,4.08-8.43,8.46-12.62,12.59-2.61,2.58-9.52,11.48-10.69,14.77-2.04,5.71,4,3.24,6.74,1.85,11.2-5.66,21.05-15.39,28.91-24.94.52-.63.79-1.63,1.44-2.34,1.63-1.74,4.51-2.47,6.85-2.26,1.47.14,7.04,1.66,6.47,3.7s-3.21-.63-4.3-.98c-2.77-.95-6.99-.82-8.32,2.31-1.69,3.92-.71,12.46,3.7,14.3,2.39,1.01,5.03-.46,6.53-2.37.6-.76,1.03-2.83,2.45-1.96s-1.77,4.08-1.93,4.7.24,2.72.33,3.02c1.88,7.23,20.75,7.4,26.46,7.1,11.12-.57,30.65-7.72,37.94-16.4,6.2-7.4,1.96-15.53-6.91-17.32-.87-.16-3.34.14-3.7-.98-.68-2.2,2.72-1.09,3.86-1.31-.71-1.36-.54-3.13-.82-4.7s-1.25-4.7-.79-5.36,1.63,0,1.99.73c.65,1.39,1.69,7.7,1.17,9-.16.41-.79.11-.57.79,6.72,1.01,12.32,7.86,10.44,14.74-2.09,7.8-11.8,13.19-18.6,16.4-2.96,1.39-5.14,1.71-7.61,3.89s-3.67,3.34-4.43,3.43c-2.23.24-.65-2.28.38-2.94-2.45.46-4.81,1.25-7.29,1.63-8.35,1.31-26.62,1.41-32.36-5.93-1.03-1.33-1.69-2.77-1.47-4.51-8.16,3.51-11.83-5.33-11.86-11.99-6.45,7.34-13.57,14.28-21.92,19.44-2.75,1.69-8.24,5-11.37,5.06-2.53.03-4.19-1.79-4.05-4.3s2.99-6.45,4.46-8.54c8.16-11.53,19.06-21.05,29.56-30.4-8.16-6.42-8.95-16.94-3.86-25.64,4.95-8.48,13.98-13.73,22.6-17.79-1.66-3.51.79-9.03,5.11-8.32,2.67.44,4.65,6.31,1.77,5.33-.84-.27-.95-3.07-2.47-3.18-2.75-.16-3.32,4.79-2.18,5.14,4.81-1.5,9.68-2.96,14.69-3.62,9.9-1.31,22.25-.46,30.51,5.63,6.45,4.73,10.85,14.2,7.07,21.92-.35.71-1.69,2.28-1.77,2.91-.08.63,1.47,3.21,1.66,4.22s.24,1.99-1.03,1.79-1.69-3.07-2.12-4.02c-.63-1.39-1.71-1.58-.71-3.34l-.03.05ZM101.16,39.35c4.62-.46,9.33-1.01,13.84.41,3.54-4.68,1.55-11.1-1.5-15.56-6.47-9.41-20.48-10.71-30.95-9.82l3.18,1.11c7.29,3.13,12.92,9.03,15.07,16.75.65,2.34,1.06,4.7.38,7.1h-.03ZM99.17,39.57c.84-5.49-1.71-11.67-5.36-15.75-3.24-3.64-8.76-7.04-13.65-7.64-1.22-.16-2.42.05-3.59-.08s-.82-.44-1.25-.46c-.82-.08-4.11.92-5.11,1.22-2.72.79-5.36,1.88-7.94,3.07-4.9,6.96-8.46,14.03-6.15,22.79,1.11,4.22,3.54,6.85,6.77,9.6,7.89-4.87,16.45-8.84,25.56-10.85,3.56-.79,7.18-1.14,10.74-1.88l-.03-.03Z"/>
    <path class="cls-1" d="M116.09,101.03c4.3,4.49,6.2,11.15,8.08,17,1.82,5.68,3.13,11.31,4.46,17.08.95,4.13,2.04,8.27,2.88,12.43l-2.23-.14c-1.74-9.6-4.11-19.09-7.07-28.36-1.85-5.79-3.7-12.02-7.64-16.72-.57-.33-6.28,3.67-5.3.38.27-.92,5.09-2.91,6.23-3.56,7.23-4.11,16.34-11.07,22-17.16.71-.76,1.74-3.21,2.96-2.23s-1.03,3.07-1.6,3.94c3.37.05,6.61-1.22,9.06-3.54,2.45-2.31,4.68-6.61,1.09-9.19s-2.5-.6-1.6-2.09c3.51-1.33,5.9,3.32,5.63,6.36-.54,5.87-8.95,11.29-14.52,10.82s-1.14-.65-1.39-.54c-.44.19-2.45,2.31-3.07,2.83-4.65,3.81-9.74,7.94-14.82,11.12-1.01.63-2.01,1.28-3.15,1.6l.03-.03Z"/>
    <path class="cls-1" d="M143.53,59.42c1.66-1.55,7.8-4.13,8.51-.54.33,1.55-3.29,7.34-4.6,7.8-.9.3-1.58-.27-1.44-1.2s3.62-4.24,3.83-5.74l-.38-.54c-.84-.24-2.34.57-3.1,1.01-1.25.68-3.94,3.37-4.92,3.37-2.31,0,.05-5.09.38-6.45s1.44-6.2.76-7.67c-.82-1.77-3.34,1.6-3.83,2.39-1.74,2.77-3.51,7.94-4,11.18-.16,1.01-.14,4.08-.44,4.7s-2.07.71-1.85-.49c-.52-.49-4.76,2.99-4.11-.08.3-1.41,2.88-2.09,4.11-1.66,0-3.97,1.31-8.27,2.88-11.91s4.49-8.21,7.7-6.64c3.75,1.85.9,9.3.44,12.43l.05.03Z"/>
    <path class="cls-1" d="M107.22,85.45c.24.24.38.82.19,1.14-.6,1.36-5.71,1.09-7.1.98-4.41-.35-8.92-2.64-13.11-3.92-.68,7.97-14.66,7.75-13.95-.6.38-4.57,4.05-6.01,8.08-4.65,7.83,2.64,12.73,7.02,21.92,7.07.92,0,3.43-.57,3.97-.05v.03ZM77.85,80.03c-1.31.27-2.45,1.71-2.61,3.02-.38,3.15,3.29,4.65,5.96,4.24,2.67-.41,4.9-2.69,3.78-4.46s-3.78,2.77-5.36,1.69c-1.36-1.22,2.2-3.21,2.2-3.45-1.14-.73-2.58-1.33-3.97-1.03h0Z"/>
    <path class="cls-1" d="M46.6,147.53h-2.2c.76-9.49,1.63-19.04,3.26-28.45,1.17-6.8,2.39-15.85,7.89-20.5.92-.79,5.3-4,5.96-1.79s-1.66,1.47-2.88,2.18c-5.87,3.45-7.1,11.29-8.27,17.43-1.96,10.25-2.96,20.69-3.75,31.14Z"/>
    <path class="cls-1" d="M122.18,50.15c.24,2.31-2.31,1.14-3.75,1.17-3.81.11-8.16,2.5-11.61,3.94l3.92.6c1.36.6,5.41,1.25,3.75,3.29-1.41.3-2.47-.65-3.81-1.01-1.96-.54-6.15-.76-8.02-.05-.95.35-1.99,1.74-2.91.19-.27-.9.22-1.28.87-1.74,4.54-3.24,14.74-8.27,20.23-6.88.46.11.9.33,1.33.49h0Z"/>
    <path class="cls-1" d="M49.46,66.6c.3.3.41.98.08,1.31-5.03,4.24-10.01,8.59-14.58,13.33-2.26,2.34-5.63,6.93-7.94,8.7-.54.41-1.33.95-1.85.11-.54-.87.65-2.01,1.22-2.69,5.44-6.53,12.07-12.21,18.03-18.19,1.33-.24,3.83-3.75,5.06-2.53l-.03-.03Z"/>
    <path class="cls-1" d="M74.21,53.87c3.26-.27,7.15.3,10.28,1.33s2.28.54,2.2,1.6c-.16,1.85-4.11.05-5.33-.22-5.19-1.11-10.17-1.14-14.3,2.58-.98.87-2.47,3.67-3.45,3.64l-.63-.33c-1.01-1.33,2.09-4.43,3.1-5.28,2.58-2.15,4.76-3.07,8.13-3.37v.03Z"/>
    <path class="cls-1" d="M56.37,78.76c-1.82-.16-2.96,4.32-4.38,3.05-.76-.68-.38-1.22,0-1.96,1.33-2.75,5.3-4.6,8.19-3.26s3.07,2.64,1.63,3.54c-1.44.87-1.69-1.63-3.07-1.82l-1.09,3.78c-2.37.63-1.69-1.88-1.22-3.32h-.05Z"/>
    <path class="cls-1" d="M50.71,34.76c.65,1.28-.11,2.69-.22,4s.16,2.96.54,4.57c.38,1.6,1.82,3.32.03,3.86-1.77.16-2.75-5.6-2.8-6.99s.27-4.3.79-5.11,1.01-.46,1.63-.38l.03.05Z"/>
    <path class="cls-1" d="M78.34,63.39c2.45-.44,3.67,5.19,2.77,6.72-2.04,3.43-7.1-5.93-2.77-6.72h0Z"/>
    <path class="cls-1" d="M97.81,71.01c-.24.19-.35.82-.82,1.03-1.74.82-2.15-1.96.24-3.21,2.42-1.25,6.09-.19,5.63,2.94s-.6,1.77-1.55,1.6c-1.6-.24-.22-1.96-.87-2.58s-2.04-.27-2.64.19v.03Z"/>
    <path class="cls-1" d="M59.87,65.73c-.41-.41-.35-1.47.24-1.74.87-.38,2.69-.14,4.05-.57s2.26-1.66,3.24-1.17c1.44,1.22-.79,2.56-1.9,2.99s-4.79,1.33-5.63.49h0Z"/>
    <path class="cls-1" d="M55.55,67.09c1.22-.08,2.99.22,4.38.16s3.21-1.06,2.8,1.09-.22.52-.54.68c-1.2.54-7.32.82-7.72-.46s.22-1.41,1.09-1.47h0Z"/>
    <path class="cls-1" d="M46.01,46.97c1.71-.57,2.34,2.2.46,1.93s-1.2-1.69-.46-1.93Z"/>
  </g>
</svg>