<?xml version="1.0" encoding="UTF-8"?>
<svg id="_图层_4" data-name="图层 4" xmlns="http://www.w3.org/2000/svg" viewBox="0 0 163.41 159.91">
  <defs>
    <style>
      .cls-1 {
        fill: #363636;
      }
    </style>
  </defs>
  <path class="cls-1" d="M0,4.19v151.54c0,2.31,1.88,4.19,4.19,4.19h155.03c2.31,0,4.19-1.88,4.19-4.19V4.19c0-2.31-1.88-4.19-4.19-4.19H4.19C1.88,0,0,1.88,0,4.19ZM160.46,7.14v123.31c0,2.31-1.88,4.19-4.19,4.19H7.14c-2.31,0-4.19-1.88-4.19-4.19V7.14c0-2.31,1.88-4.19,4.19-4.19h149.13c2.31,0,4.19,1.88,4.19,4.19Z"/>
  <g>
    <path class="cls-1" d="M63.56,106.65l.68.13,1.33.25.82.16,1.18.22c.29.05.58.11.87.14.39.07.75.14,1.14.17.29.05.61.09.9.12.36.07.73.11,1.12.16.31.06.61.07.93.13.36.07.73.09,1.1.13.31.06.64.07.93.1.37.04.73.09,1.08.1.32.04.64.07.95.11.24.05.52.05.76.07.37.04.71.23.9.54.06.09.12.17.15.28.04.06.05.11.09.17.05.11.13.25.18.38,0,.02.04.06.03.08.07.16.14.33.18.48l.04.16c.03.11.08.24.11.35.01.05.05.13.06.19l.09.32c.01.08.03.13.06.21.03.11.04.21.07.29.01.08.02.15.06.24.03.11.04.21.05.28.01.08.02.15.03.23,0,.1.04.21.05.28.01.08.02.15.03.23,0,.1.01.2.02.3-.01.07.02.15.03.23,0,.1.01.2.02.3-.01.07.02.15,0,.23-.02.1.01.2.02.3-.01.07,0,.15,0,.23-.02.1.01.2,0,.3-.01.07,0,.15,0,.23-.02.1.01.2-.01.32-.01.07-.02.12-.01.2-.02.12-.02.22-.02.35,0,.05-.02.12,0,.17-.03.17-.01.32-.02.5-.07,1.31-1.17,3.25,1.04,3.1.98-.44,1.04-4.55.99-5.61-.02-.55-.09-1.12-.16-1.68,0-.05,0-.1-.02-.15-.01-.08-.02-.15-.03-.23s-.02-.15-.03-.23-.02-.15-.06-.24c-.01-.08-.02-.15-.06-.24-.01-.05-.03-.13-.04-.18-.01-.08-.04-.18-.07-.26-.01-.05-.03-.11-.04-.18-.03-.11-.04-.18-.07-.29-.01-.05-.05-.13-.06-.19-.03-.08-.04-.18-.07-.26-.01-.05-.05-.13-.06-.19-.03-.08-.06-.19-.1-.27-.03-.08-.05-.13-.08-.22s-.07-.16-.08-.24c-.04-.06-.05-.13-.09-.19-.03-.08-.07-.16-.11-.22-.04-.06-.05-.11-.09-.19-.03-.08-.07-.16-.11-.22-.04-.06-.08-.11-.09-.17-.03-.08-.07-.14-.13-.23-.04-.06-.08-.11-.12-.17-.04-.06-.1-.14-.14-.2s-.08-.11-.12-.17c-.04-.06-.1-.14-.14-.2h0c-.3-.38-.73-.64-1.19-.72-.99-.19-2.15-.28-3.2-.41-5.94-.68-11.57-1.47-17.41-3.08-2.24-.6-6.07-2.4-7.54-4.38-.09-.17-.22-.32-.31-.48-4.19-6.64-1.35-19.37-1.4-27.03-.02-.8-.04-6.23-1.92-4.76-.7.54-.07,3.51-.04,4.57.13,8.65-3.45,21.86,2.58,28.95h.05c3.3,3.93,7.64,5.03,12.5,6.15.67.15,1.32.3,1.99.43v-.07Z"/>
    <path class="cls-1" d="M138.55,138.58c-.29-24.55.13-49.18-.59-73.71-.33-11.68-1.99-29.19-11.5-37.17-5.45-4.58-14.99-8.09-22.05-8.78-8.27-.79-18.22.82-23.2,8.07l-5.88-1.69c-10.14-1.87-28.19,2.93-34.11,11.83-6.48,9.77-7.63,25.72-8.82,37.29-.89,8.65-1.63,17.41-2.22,26.09-.78,11.07-1.26,22.2-1.41,33.29.52,1.07,1.39,2.44,1.86-.32s.11-7.68.27-10.77c.77-15.9,1.79-31.85,3.39-47.69,1.19-11.97,2.54-34.73,13.51-41.75,10.04-6.42,24.81-8.67,35.68-3.13.64.32,1.32,1.2,2.11,1.15,2.33-1.23-1.14-2.94-2.36-3.35,2.04-4.16,7.73-6.13,12.05-6.86,9.65-1.62,23.14,2.14,30.51,8.61,8.29,7.29,9.9,24.52,10.23,35,.77,24.54-.03,49.18.59,73.71.05,1.33.05,4.73.32,5.83.05.26.25.67.5.79l.74.06c.19-.09.36-.21.48-.41.48-.96-.07-4.76-.09-6.11h0Z"/>
    <path class="cls-1" d="M57.13,73.84c9.03,4.96,22.24,4.52,24.71-7.46.91.85,1.55.12,2.71-.04s2.14-.22,3.46.46,2.15,2.88,3.89,2.16c.3,5.53,5.54,12.05,11.17,12.66,11.99,1.32,18.17-10.3,15.54-20.94-.61-2.46-2.8-6.45-5.51-7.04-.94-.18-1.03.41-1.65.39-.62-.02-1.81-.74-2.52-.93-7.09-1.89-14.38,3.6-16.44,10.25h.05c-.38,1.24-.42,2.75-.76,4.01-.96-.58-.59-.96-2.6-2.12s-5.15-1.43-7.03.07c-.19-.21-.21-.36-.21-.61-.16-5.35-1.63-9.48-6.41-12.46-1.32-.82-4.6-1.82-5.43-2.48-.35-.27.53-.57-.84-1.36-1.38-.79-3.6-.63-5.12-.4-12.93,2.02-19.67,18.89-7,25.84h0ZM108.39,54.99c1.05.27,3.86,1.93,4.51,1.65.16-.07.26-.43.34-.46h0c1.05-.4,3.06,3.35,3.33,4.18,1.71,5.35,2.36,13.14-5,17.4-7.35,4.25-15.33.97-17.45-7.21-2.11-8,5.71-17.74,14.25-15.57h.02ZM66.4,49.76c.37.02,1.33.13,1.57.3h0c.13.1-.72-.04.56.86,1.28.89,3.46,1.38,4.96,2.29,11.34,6.87,7.1,23.04-6.47,21.59-5.68-.6-12.07-2.91-14.15-8.68-2.88-8.02,5.62-16.88,13.55-16.37l-.03.02Z"/>
    <path class="cls-1" d="M99.8,123.19c-.26.07-.15-.53-.85.41s.31,3.48-1.88,5.57c-4.84,4.58-21.37,1.85-24.24-4.22-.2-.39-.94-.95-.07-1.49s6.64-.07,6.65-2.24c-.02-.43-.39-.72-.8-.8s-3.32.79-4.27.91c-5.52.65-11.21.1-16.76.37-5.93.3-11.44,1.28-11.62,8.32-.02.92-.35,3.81,1.09,3.73s.36-1.51.93-5.32c.57-3.81,5.47-4.49,8.67-4.73,4.64-.37,9.41.08,14.06-.06h0c-.23,4.5,6.09,7.43,9.74,8.59,6.51,2.06,19.82,2.36,20.3-7.05.04-.62-.14-2.03-.97-2.01h.02Z"/>
    <path class="cls-1" d="M102.35,109.5c4.91-.04,7.53.2,12.4-1.5,12.26-4.3,8.05-22.94,9.66-33.13.01-.72-.18-1.56-1.07-1.48h.02c-.81.2-.82,1.02-.93,1.73-1.08,7.27,1.02,24.93-5.16,29.61-1.37,1.02-4.5,1.87-6.2,2.27-4.16.99-9.83,1.09-14.18,1.11-3.53.03-4.87-1.57-6.19,2.85-.68,2.29-1.08,6.62-.39,8.92.33,1.14,1.49,1.23,1.81.09s-.36-3.37-.25-4.77c.09-.88.84-4.96,1.46-5.35,3.01.05,6.01-.33,9.02-.36h0Z"/>
    <path class="cls-1" d="M92.16,93.13c1.47-.35,2.84-1.01,4.26-1.52.86-.31,1.71-.05,2.4-1.19.02-.12-.27-.15-.3-.26-.17-.53-.05-1.16-.83-1.18-.5-.02-3.72,1.54-4.62,1.82-5.11,1.63-12.21,1.66-17.39.25-2.52-.68-5.67-2.92-8.23-2.61-2.39.32-4.86-.35-4.05,5.3s11.23,4.83,11.54-.79c5.45,1.33,11.76,1.53,17.21.16ZM65.46,93.86c-1.01-2.57,3.14-4.95,4.84-2.46-1.74-.03-2.26,2.7-.28,2.27.55-.12,1.87-2.74,2.8-.67s-5.99,4.31-7.36.85Z"/>
    <path class="cls-1" d="M114.95,121.31h0c-4.2-.52-10-.52-14.31-.46-2.88.05-5.77.26-8.62.66-1.47,2.6,1.36,1.63,2.76,1.55,5.91-.35,13.94-.51,19.78.18,7.43.88,6.91,8.78,6.65,14.51.06.89,1.09,1.26,1.66.49s.43-3.97.39-5.1c-.15-5.8-1.73-11.02-8.3-11.82h0Z"/>
    <path class="cls-1" d="M54.94,48.21c1.84.07,4.18-.71,6.02-.91,4.44-.51,8.8.09,13.26.31.53-.02.9-.5.94-1.02-.04-.86-1.86-.98-2.57-1.09-6.09-.85-12.19-.16-18.19.77-.6.11-1.09.89-.72,1.44h0c.25.37-.58.42,1.26.49Z"/>
    <path class="cls-1" d="M88.41,77.95h.05c1.16.9,1.57.31,2.18-.7.78-1.35.96-2.44.32-3.91-2.51-5.72-13.45-3-11.04,3.55.13.37.35,1.34,1.15,1.87s1.58.48,1.68-.58c.06-.71-1.67-.27-1.18-3.4.49-3.13,6.42-3.56,7.58-.81.73,1.71-.75,2.36-.75,3.98h.02Z"/>
    <path class="cls-1" d="M109.31,46.7c-2.03-.09-4.43.03-6.45.25-2.67.27-5.1,1.06-7.74,1.41-.45.14-.9-.42-.65,1.18.25,1.6,2.83.24,5.65-.25,2.82-.49,5.75-.68,8.62-.66,1.32,0,3.46.46,4.54.29.73-.14,1.01-1.08.62-1.58v.05c-.43-.55-2.57-.59-4.61-.67Z"/>
    <path class="cls-1" d="M62.78,20.83c2.14-.07,4.61.45,6.7.92,1.11.23,5.37,1.87,6.25,1.44s.61-1.51-.35-1.86c-2.78-1-6.87-2.1-10.52-2.77h0c-.96-.08-4.27-.81-5.2,1.06-.93,1.87.96,1.28,3.09,1.21h.02Z"/>
    <path class="cls-1" d="M119.59,69.31c-.79.35-1.08,1.37.11,1.8,1.19.43,8.04-.9,9.2-1.75,1.53-1.11,1.72-3.8,1.03-5.43l-.71-.21h0c-1.66.73-.27,2.9-1.46,4-1.34,1.25-6.31,1.25-8.18,1.6h0Z"/>
    <path class="cls-1" d="M73.67,17.17c1.55.42,4.41,2.44,5.29,3.2.88.77,1.73,3.03,3.21,2.86s1.53-.16-.15-2.48-7.13-5.65-9.43-5.76-1.52-.14-1.71.85,1.87,1.08,2.8,1.33h0Z"/>
    <path class="cls-1" d="M49.07,62.29c-.61-1.27-4.84-1.22-5.75-2.61s2.02-2.62.8-4.62c-1.22-2.01-3.06,1.92-3.04,3.77s2.07,3.59,3.69,4.12c1.01.34,2.58.49,3.69.7s1.22-.09.61-1.36h0Z"/>
    <path class="cls-1" d="M121.69,52.59c-1.45.13-.27,3.4-.16,4.39.23,2.07,0,5.45.3,6.98s1.71,1.4,1.94.17-.06-4.81-.21-6.26c-.1-1.17-.35-5.41-1.87-5.28Z"/>
    <path class="cls-1" d="M50.31,50.88c.11-.55-.14-1.38-.75-1.57l-.61.03c-.82.35-2.16,7.06-1.94,8.1s1.37,1.23,1.72.53c.45-.91.98-5.16,1.23-6.51s.23-.03.34-.59Z"/>
    <path class="cls-1" d="M65.53,62.36c.18.26.68.48,1.01.37,1.09-.62,1.41-2.28.45-3.16l-.74-.06c-.74.21-1.02,2.36-.71,2.84h0v.02Z"/>
    <path class="cls-1" d="M104.7,67.34l.66-.05c.62-.36.69-1.52.46-2.14h0l-.79-.32c-.95.27-1.06,1.92-.33,2.51h0Z"/>
  </g>
</svg>