<?xml version="1.0" encoding="UTF-8"?>
<svg id="_图层_4" data-name="图层 4" xmlns="http://www.w3.org/2000/svg" viewBox="0 0 163.41 159.91">
  <defs>
    <style>
      .cls-1 {
        fill: #363636;
      }
    </style>
  </defs>
  <path class="cls-1" d="M0,4.19v151.54c0,2.31,1.88,4.19,4.19,4.19h155.03c2.31,0,4.19-1.88,4.19-4.19V4.19c0-2.31-1.88-4.19-4.19-4.19H4.19C1.88,0,0,1.88,0,4.19ZM160.46,7.14v123.31c0,2.31-1.88,4.19-4.19,4.19H7.14c-2.31,0-4.19-1.88-4.19-4.19V7.14c0-2.31,1.88-4.19,4.19-4.19h149.13c2.31,0,4.19,1.88,4.19,4.19Z"/>
  <g>
    <path class="cls-1" d="M86.29,123.35c-2,0-4.25-1.06-4.7-3.09-.37-1.69-.51-3.48-.65-5.37-.3-3.92-.61-7.98-3.15-11.3-.07-.09-.17-.16-.29-.18-.04,0-.13-.02-.17-.02-.59,0-1.23.64-2.62,2.08-1.77,1.84-4.46,4.62-6.67,4.62h0c-.85,0-1.58-.41-2.22-1.25-.95-1.22-.77-2.45-.56-3.88.14-.96.29-1.95.11-3.03-.04-.25-.25-.42-.49-.42-.02,0-.05,0-.07,0-2.43.35-4.25.51-5.91.51-3.11,0-5.75-.57-8.32-1.8-7.95-3.83-10.88-12.66-8.69-26.24,1.23-7.64,1.5-8.02,1.99-8.14.16-.04.37-.09.62-.21.4-.2.68-.3.84-.3.07,0,.12.02.28.12.09.06.19.12.31.18.43.49-.72,4.58-1.15,6.11-.26.92-.47,1.65-.54,2.07-1.62,9.57-.52,16.95,3.19,21.33,2.51,2.96,6.11,4.47,10.72,4.47,2.97,0,6.36-.63,10.1-1.88,3.38-1.14,15.24-5.36,26.11-11.92,11.24-6.78,17.4-13.6,18.31-20.27.94-6.91-1.84-9.43-7.31-11.67-4.39-1.78-8.69-2.41-13.24-3.07-1.58-.23-3.22-.47-4.84-.76-.39-.55-.53-.99-.41-1.23.1-.19.54-.64,2.62-.64,2.5,0,5.9.66,7.36.94l.43.08c9.75,1.76,15.68,5.13,17.17,9.75,2.88,8.79-2.44,17.66-16.24,27.13-.15.1-.23.28-.22.46s.13.34.29.41c5.56,2.52,9.39,5.46,9.09,6.99-.1.52-.99,1.76-7.02,1.98-.17,0-.35.1-.44.25-.09.15-.11.33-.03.49,1.36,2.54,3.88,3.82,6.31,5.06,2.12,1.08,4.31,2.19,5.69,4.13.88,1.24,1.06,2.38.55,3.36-1,1.93-4.51,3.09-7.32,3.09-.5,0-.96-.04-1.37-.11-.74-.12-1.36-.39-1.95-.64-.76-.32-1.55-.66-2.53-.66-.51,0-1.03.09-1.6.27-1.28.43-4.89,3.14-5.6,4.2-.59.9-.86,2-1.12,3.08-.37,1.5-.75,3.06-1.99,4.07-.65.53-1.6.82-2.67.82ZM77.35,100.22c.23,0,.46.05.7.17,2.7,1.24,4.75,9.54,5.27,13.13.06.42.07,1.07.08,1.76.03,2.51.07,5.95,2.49,5.95.26,0,.53-.04.82-.13,1.07-.33,1.63-2.05,2.28-4.04.47-1.44.95-2.94,1.59-3.71,1.05-1.26,5.73-4.53,7.05-4.79.36-.08.71-.11,1.08-.11,1.16,0,2.2.37,3.3.75,1.14.4,2.32.81,3.65.81,1.09,0,2.14-.27,3.23-.84,2.04-1.06,2.58-1.5,2.49-2.07-.08-.54-.69-.65-1.33-.76-.44-.08-1.05-.18-1.31-.4-1.52-1.35-3.12-2.17-4.66-2.96-2.09-1.07-4.25-2.17-6.29-4.66-1.26-1.56-1.77-2.74-1.48-3.4.46-1.04,3.04-1.2,5.31-1.33.4-.02.79-.05,1.19-.08.02,0,.03,0,.05,0,.19,0,.37-.09.46-.25.13-.24.08-.52-.16-.65l-7.92-4.42c-.08-.04-.16-.06-.24-.06-.11,0-.21.03-.3.1-6.06,4.52-12.84,6.96-20.02,9.55-2.19.79-4.46,1.61-6.68,2.48-.07.03-.14.07-.19.13l-.33.38c-.12.13-.16.33-.1.5.53,1.53.32,2.98.09,4.51-.04.27-.08.54-.12.81-.03.2.07.4.25.5l.75.42c.07.04.16.06.24.06.04,0,.08,0,.12-.01.57-.14,4.1-3.3,4.14-3.33.41-.39.82-.89,1.25-1.42.98-1.21,2.1-2.58,3.25-2.58Z"/>
    <path class="cls-1" d="M59.31,91.46c-.52,0-1.04-.04-1.57-.11-.85-.12-2.02-.35-2.42-1-.21-.34-.21-.79,0-1.39.17-.5.43-.7.9-.7.5,0,1.15.23,1.72.44.56.2,1.09.39,1.54.39,4.16-.08,7.63-3.07,9.27-8.02,1.2-3.66.56-7.72-1.7-10.85-1.96-2.7-4.76-4.25-7.68-4.25-2.38,0-4.71,1.05-6.74,3.02-3.87,3.78-2.45,11.68-1.17,15.33.53,1.5,1.17,2.64,1.63,3.47.37.66.75,1.35.66,1.57-.03.07-.17.24-.91.44-.25.07-.49.1-.7.1-1.08,0-1.45-.93-1.86-2.25-.11-.35-.21-.67-.32-.92-2.31-5.01-3.28-12.42-.25-17.68,1.83-3.17,4.79-4.97,8.81-5.34.02,0,.04,0,.06,0,.29-.02.58-.04.87-.04,6.06,0,10.28,5.13,11.64,9.9,1.21,4.27.2,9.26-2.64,13.02-2.36,3.13-5.61,4.85-9.13,4.85Z"/>
    <path class="cls-1" d="M91.79,80.89c-1.93,0-4.38-.75-4.97-1.96-.28-.57-.12-1.22.48-2,.12-.15.14-.35.05-.53s-.26-.28-.45-.28c-3.67-1-4.79-8.31-4.34-11.95.62-5.44,6.06-10.2,11.66-10.2,2.67,0,4.97,1.09,6.64,3.16,3.44,4.25,4.19,10.69,1.86,16.02-2.01,4.6-5.85,7.41-10.55,7.73-.12,0-.24.01-.37.01ZM94.16,56.32c-3.28,0-6.03,1.49-7.73,4.2-2.11,3.36-2.3,7.98-.48,11.78.32.65.85,1.15,1.32,1.59.99.93,1.53,1.44.36,2.8-.09.11-.14.26-.12.4.02.14.1.27.23.35,1.09.7,2.33,1.05,3.69,1.05,3.79,0,8.07-2.92,9.54-6.51,1.28-3.11,1-8.9-1.45-12.56-1.36-2.03-3.21-3.11-5.35-3.11Z"/>
    <path class="cls-1" d="M45.36,56.23c-3.66-2.35-6.32-8.57-5.5-12.97.36-1.9,1.52-4.29,5-4.97.03,0,.06,0,.09,0,.02,0,.05,0,.07,0,.41-.07.83-.1,1.23-.1,2.23,0,4.35,1.05,6.47,3.21,2.19,2.24,6.44,8.67,6.89,10.03.17.5.1,1.09-.17,1.46-.16.22-.35.33-.58.33-.25,0-.54-.13-.84-.38-.96-.78-2.04-2.54-3.18-4.39-2.29-3.72-4.88-7.94-8.42-7.94-.79,0-1.58.22-2.37.64-1.02.55-1.69,1.36-1.99,2.41-.84,2.96,1.62,7.16,2.42,8.54.42.71.88,1.31,1.29,1.84.49.64,1,1.3.91,1.58-.04.11-.24.38-1.31.7Z"/>
    <path class="cls-1" d="M82.24,45.29l-.46-.58v-.02c-.7-3.32-1.42-6.75-2.71-9.96-1.37-3.41-2.1-4.89-2.68-5.43-.04-.06-.09-.11-.15-.15-.25-.15-.52-.22-.8-.22-.95,0-1.85.83-2.17,1.63-1.03,2.44,0,7.24.66,9.19.15.45.45,1.01.75,1.61.61,1.18,1.45,2.8,1.12,3.54-.06.13-.18.31-.61.42-.06.01-.11.02-.17.02-1.92,0-4.15-7.13-4.42-9.4-.17-1.39-.52-6.1,1.85-8.33.86-.8,1.72-1.2,2.56-1.2,4.65,0,8.36,12.19,8.69,16.06l.02.28c.1,1.18.14,2.36-.54,2.63l-.94-.09Z"/>
    <path class="cls-1" d="M63.58,51.69c-.33,0-1.11-.06-1.15-.6-.06-.73,1.02-1.98,3.12-2.33.48-.08.92-.12,1.3-.12.84,0,1.39.21,1.42.53.05.6-1.24,1.96-3.9,2.45-.29.05-.56.08-.8.08Z"/>
    <path class="cls-1" d="M61.29,80.55c-1.05,0-2.42-1.92-2.64-3.29-.06-.34-.06-.77.23-.87.16-.05.32-.08.48-.08,1.19,0,2.35,1.41,2.66,2.67.1.43.19,1.2-.39,1.49-.1.05-.21.08-.32.08Z"/>
    <path class="cls-1" d="M73.59,71.6c-.07-.44.07-.95.35-1.28.48-.57,1.51-1.04,2.3-1.04.74,0,1.09.36,1.11,1.14-.05.6-1.86,1.9-2.78,1.99l-.98-.81Z"/>
    <path class="cls-1" d="M92.2,68.29c-.43,0-.96-.33-1.35-.84-.41-.54-.59-1.16-.47-1.62.15-.57.67-.65.97-.65.38,0,.78.14,1.07.37.43.34.85,1.52.64,2.06-.21.45-.51.69-.86.69Z"/>
  </g>
</svg>