<?xml version="1.0" encoding="UTF-8"?>
<svg id="_图层_4" data-name="图层 4" xmlns="http://www.w3.org/2000/svg" viewBox="0 0 184 115">
  <defs>
    <style>
      .cls-1 {
        fill: #363636;
      }

      .cls-2 {
        fill: #e83533;
      }
    </style>
  </defs>
  <path class="cls-1" d="M10.82,23.92c-.16,0-.32-.05-.46-.16L.27,15.59c-.25-.2-.34-.54-.22-.84.12-.3.43-.48.74-.45l8.79.84L4.28,6.36c-.18-.29-.13-.67.12-.9.25-.24.62-.27.91-.08l7.91,5.35,5.05-8.7c.16-.28.49-.42.8-.34.31.08.54.35.55.67l.72,14.24c.02.4-.29.74-.69.76-.4.02-.74-.29-.76-.69l-.6-11.79-4.21,7.26c-.1.17-.27.3-.47.34-.2.04-.4,0-.57-.11l-5.82-3.93,4.35,7.19c.14.24.14.53,0,.76-.15.23-.41.36-.68.34l-7.83-.75,8.22,6.65c.31.25.36.71.11,1.02-.14.18-.35.27-.57.27Z"/>
  <g>
    <path class="cls-1" d="M99.78,89.03c-1.31,4.08-5.03,6.77-9.1,6.96-1.13.05-2.29-.09-3.44-.45l-3.99-1.24c-2.35-.74-4.25-2.28-5.48-4.23l22-1.04Z"/>
    <path class="cls-2" d="M82.46,24.04h20.94c1.29,0,2.33,1.05,2.33,2.33v.55h-25.61v-.55c0-1.29,1.05-2.33,2.33-2.33Z" transform="translate(-1.1 4.42) rotate(-2.71)"/>
    <g>
      <path class="cls-1" d="M135.43,63.74l-.77-16.37c-.61-12.99-11.69-23.06-24.67-22.45l-56.04,2.65c-4.22-7.42-12.35-12.27-21.47-11.84-12.91.61-22.88,11.57-22.27,24.48.14,2.94.82,5.71,1.93,8.26-.24,1.52-.33,3.1-.25,4.7l.77,16.37c.61,12.99,11.68,23.05,24.67,22.44l75.65-3.58c12.99-.61,23.06-11.68,22.45-24.67ZM12.32,40.11c-.55-11.74,8.52-21.71,20.26-22.27,11.75-.56,21.72,8.52,22.27,20.26.55,11.74-8.52,21.71-20.27,22.27-11.74.55-21.71-8.52-22.27-20.26ZM112.87,86.01l-75.65,3.58c-11.67.55-21.61-8.49-22.17-20.16l-.77-16.37c-.01-.25-.02-.5-.02-.74,4.43,6.47,12.02,10.57,20.42,10.17,12.91-.61,22.88-11.57,22.27-24.48-.14-2.87-.78-5.59-1.85-8.09l54.98-2.6c11.67-.55,21.61,8.49,22.17,20.17l.77,16.37c.55,11.67-8.5,21.61-20.17,22.16Z"/>
      <path class="cls-1" d="M34.5,58.5c10.72-.51,18.99-9.6,18.49-20.31-.51-10.71-9.6-18.98-20.32-18.48-10.71.51-18.98,9.6-18.48,20.31.51,10.71,9.6,18.98,20.31,18.48ZM32.76,21.82c9.55-.45,17.65,6.92,18.1,16.47.45,9.55-6.92,17.65-16.47,18.1-9.55.45-17.65-6.93-18.1-16.47-.45-9.55,6.92-17.65,16.46-18.1Z"/>
      <path class="cls-1" d="M34.31,54.55c8.53-.4,15.12-7.64,14.71-16.17-.4-8.52-7.64-15.12-16.17-14.71-8.52.4-15.11,7.65-14.71,16.17.4,8.53,7.64,15.12,16.17,14.71Z"/>
    </g>
    <path class="cls-1" d="M181.79,73.02l-11.06-6.42c-1.07-.62-2.3-.74-3.41-.43l-24.64-42.7c.01-.12-.03-.19-.12-.22-.5-.87-1.16-1.66-2-2.32,0,0-21.55-13.82-22.95-14.82h0c-.38-.3-.77-.55-1.17-.79-1.96-1.21-3.99-1.93-6.73-1.8l-26.05,2.44c-4.97.23-9.16,4.06-9.52,9.02-.43,5.91,4.44,10.74,10.18,10.47l20.51-2.18c1.86-.09,3.69.5,5.16,1.66l13.7,7.51c1.34,1.06,2.14,2.64,2.23,4.34.45,8.37.4,22.38-.65,30.67-.44,3.43-3.74,5.73-7.11,4.99l-19.74-4.36c-6.05-1.34-12.04,2.48-13.38,8.54h0c-1.34,6.05,2.48,12.04,8.54,13.38l29.22,6.46c.55.12,1.11.19,1.66.23l21.05,5.86c.02,1.51.79,2.97,2.19,3.78l11.06,6.42c2.11,1.23,4.82.51,6.05-1.61l18.61-32.06c1.23-2.11.51-4.82-1.61-6.05Z"/>
    <path class="cls-1" d="M114.72,74.35l-84.84,4.01c-8.47.4-15.69-6.16-16.09-14.63l-.7-14.78.8-.04.7,14.78c.38,8.03,7.22,14.25,15.25,13.87l84.84-4.01.04.8Z"/>
  </g>
</svg>