<?xml version="1.0" encoding="UTF-8"?>
<svg id="_图层_3" data-name="图层 3" xmlns="http://www.w3.org/2000/svg" viewBox="0 0 17.99 16.81">
  <path d="M1.13,2.47l1.3.05c.25,0,.45-.18.46-.43l.04-1.01C2.95.46,3.46-.02,4.08,0h0c.62.02,1.1.54,1.08,1.16l-.02.57c-.02.49.37.91.86.92h0c.49.02.88.43.86.92l-.03.84c-.02.49-.43.88-.92.86h0c-.49-.02-.91.37-.92.86l-.03.79h0c.16-.13.39-.12.53.04l.3.34c.54.61.46,1.55-.17,2.06-.2.16-.41.33-.62.5-.09.07-.14.17-.15.29l-.13,3.71c-.03.78-.19,1.38-.48,1.8-.33.46-.83.67-1.5.65l-.49-.02c-.3-.01-.71-.04-1.21-.15-.6-.14-.84-.59-.82-.97h0c-.07-.74.54-1.19,1.13-1.11.12.02.22.03.32.03.32.01.55-.07.68-.23.02-.03.04-.06.05-.1.06-.19.08-.2.1-.63l.03-.74c.01-.31-.34-.5-.59-.33h-.01c-1,.35-1.57-.54-1.57-.54-.42-.53-.29-1.31.28-1.68.5-.33,1.42-1,1.9-1.35.09-.07.15-.18.16-.29l.09-2.58c0-.25-.18-.45-.43-.46l-1.3-.05C.44,5.08-.03,4.65,0,3.67h0c.03-.78.53-1.22,1.13-1.2ZM8.93,1.24c1.6-.27,3.75-.37,4.64-.37h.42c1.43,0,2.44.26,3.04.79.63.53.94,1.47.94,2.83s.11,4.84-.35,6.9c-.42,1.87-1.38,1.66-1.97,1.66h-1.48c-.1,0-.18.08-.18.17v2.46c0,.62-.72,1.12-1.37,1.12h0c-.66,0-1.42-.5-1.42-1.12v-2.46c0-.09-.08-.17-.18-.17h-1.31c-.05,0-.27.09-.46.18-.27.12-.59.17-.87.08-.74-.22-1.21-.89-1.21-1.69V2.78c0-1.09,1.6-1.51,1.75-1.54ZM10.8,6.37h0c.44,0,.8-.31.8-.7v-1.34c0-.44-.45-.78-.95-.72-.02,0-.04,0-.05,0-.38.05-.66.34-.66.67v1.32c0,.42.39.76.86.76ZM10.77,10.59h0c.46,0,.83-.31.83-.7v-1.18c0-.38-.37-.7-.83-.7h0c-.46,0-.83.31-.83.7v1.18c0,.38.37.7.83.7ZM14.36,6.37h0c.44,0,.8-.31.8-.7v-1.34c0-.44-.45-.78-.95-.72-.02,0-.04,0-.05,0-.38.05-.66.34-.66.67v1.32c0,.42.39.76.86.76ZM14.33,10.59h0c.46,0,.83-.31.83-.7v-1.18c0-.38-.37-.7-.83-.7h0c-.46,0-.83.31-.83.7v1.18c0,.38.37.7.83.7Z"/>
</svg>