<?xml version="1.0" encoding="UTF-8"?>
<svg id="_图层_4" data-name="图层 4" xmlns="http://www.w3.org/2000/svg" viewBox="0 0 163.41 159.91">
  <defs>
    <style>
      .cls-1 {
        fill: #363636;
      }
    </style>
  </defs>
  <path class="cls-1" d="M0,4.19v151.54c0,2.31,1.88,4.19,4.19,4.19h155.03c2.31,0,4.19-1.88,4.19-4.19V4.19c0-2.31-1.88-4.19-4.19-4.19H4.19C1.88,0,0,1.88,0,4.19ZM160.46,7.14v123.31c0,2.31-1.88,4.19-4.19,4.19H7.14c-2.31,0-4.19-1.88-4.19-4.19V7.14c0-2.31,1.88-4.19,4.19-4.19h149.13c2.31,0,4.19,1.88,4.19,4.19Z"/>
  <g>
    <path class="cls-1" d="M35.7,55.49c9.52-3.1,19.06-5.28,29.03-6.4,11.54-1.31,20.48-1.16,32.03.22s18.22,3.36,27.12,6.18c-.56-1.03-.28-2.13-.39-3.19-.8-8.14-2.91-16.24-7.69-22.96s-5.06-6.46-8.53-8.31c-.5.04-1.59,3.04-2.78,2.05-.95-1.68,2.69-3.3,1.62-4.61s-1.7-1.44-1.92-1.59c-1.9-1.31-5.49-3.04-7.65-3.98s-2.22-1.16-2.69-.6c-.39.8-.13,2.05-1.16,2.35-1.68.15-.69-3.55.73-4.14,1.31-.54,2.95.45,4.16.99,2.3,1.01,9.09,4.44,10.21,6.48.3.56.26,1.16.45,1.49s1.46.99,1.83,1.29c9.24,7.54,13.68,18.24,14.97,29.94,1.53-.93,2.78.11,3.4,1.55.28.67.37,1.94.58,2.33s1.31.84,1.74,1.36c1.85,2.28,2.24,11.54.56,13.96-.34.5-1.72,1.51-1.79,1.62-.67,1.18,0,3.17-1.7,5.36-.45.58-2.69,3.12-3.17,1.42s1.98-2.48,2.41-3.34c.32-.62.6-1.92.67-2.63.37-4.14.37-14.71-.65-18.55s-.47-1.59-.84-1.68l-1.03.17c-.13.13.09,2.3,0,2.8s-.58.71-.58.78c0,.13,1.53,1.4-.47,1.64-3.36-1.08-6.76-2.13-10.17-3.04-22.62-5.94-45.66-5.97-68.3-.04-3.53.93-7,2.07-10.49,3.08-1.77-.37-.3-1.53-.3-1.64s-.5-.34-.58-.78.11-2.67,0-2.8l-1.03-.17c-.34.09-.73,1.29-.84,1.68-1.03,3.98-.95,13.87-.65,18.18s.28,2.22.67,3.02,2.65,2.52,2.41,3.34c-.58,2.07-3.6-1.92-4.01-2.74-.56-1.16-.69-4.01-.86-4.29s-.54-.15-.73-.32c-.73-.6-1.18-1.1-1.46-2.02-.58-2-.5-11.26.3-13.14.47-1.08,1.23-1.38,2.3-.88.32-2.11,1.25-5.69,4.07-4.26,1.08-9.07,3.77-17.38,9.52-24.53.82-1.03,1.96-2.39,2.91-3.3.99-.97,3.66-2.54,4.26-3.3s.17-.82.34-1.21c1.03-2.24,7.99-5.75,10.4-6.87,1.06-.5,2.56-1.29,3.7-1.12,1.92.3,2.91,4.44,1.18,4.26-1.06-.28-.78-1.55-1.16-2.35-.54-.62-2.95.75-3.6,1.06-2,.97-4.72,2.35-6.55,3.55s-2.35,1.62-2.39,2.09c-.09.97,2.93,2.97,2.05,3.94s-2.37-1.83-2.91-1.87c-3.47,1.85-6.27,5.15-8.53,8.31-4.78,6.72-6.89,14.82-7.69,22.96-.11,1.06.17,2.18-.39,3.19h.02v.02ZM30.08,69.26c.09-3.38-.11-6.81,0-10.19s.73-2.48-.39-2.61c-.09.84-.34,1.77-.39,2.61-.11,1.77-.24,8.29.3,9.61.54,1.31.19.54.47.58ZM129.89,69.06c.15-.58.45-1.06.56-1.66.47-2.35.19-7.39-.6-9.63s-.26-.88-.54-.93l.19,11.93.39.28h0Z"/>
    <path class="cls-1" d="M43.17,96.14c11.48,15.49,28.32,20.59,47.15,17.08,15.44-2.89,26.71-14.86,33.02-28.69.39-.86.73-3.08,1.77-3.02s.52,1.85.3,2.54c-1.14,3.49-3.86,7.19-5.77,10.32,1.53.09,2.54,1.64,2.54,3.1,0,2.95-3.12,11.63-4.46,14.58-.34.75-1.53,3.49-2.28,3.55l-.78-.39c-.41-.84.9-2.48,1.29-3.36,1.34-3.02,4.42-11.35,4.46-14.39s-.67-1.31-1.27-2.22c-3.4,4.76-7.45,9.15-12.17,12.69-12.08,9.02-31.23,10.1-45.15,4.98-8.9-3.27-15.92-10.1-21.37-17.64-.62.93-1.29.97-1.27,2.22.04,3.04,3.12,11.35,4.46,14.39.47,1.1,2.5,3.4.54,3.75-.75-.06-1.87-2.67-2.22-3.42-1.36-2.93-4.52-11.74-4.5-14.71,0-1.46,1.01-3.04,2.54-3.1-1.96-3.12-4.52-6.7-5.73-10.19s-.93-2.39.09-2.63,1.49,2.02,1.92,2.97c1.74,3.83,4.39,8.23,6.91,11.61h-.02v-.02Z"/>
    <path class="cls-1" d="M78.78,22.39c5.71-.34,17.88.82,22.38,4.5,4.78,3.92,5.47,10.96,1.64,15.79-6.33,7.97-16.95-1.27-25.42-.56-7.65.62-15.1,9.24-21.95,1.55-5.97-6.7-1.06-15.66,6.74-17.9.8-.24,3.55-.84,3.66.37s-1.59.95-2.22,1.08c-2.84.62-6.72,2.86-8.06,5.54-1.87,3.73-.9,8.36,2.41,10.92,4.57,3.55,9-.13,13.4-1.74,4.11-1.51,7.41-2.02,11.76-1.06,6.27,1.38,14.52,7.06,19-.24,3.45-5.62,1.14-11.54-4.76-13.98-6.55-2.69-16.87-2.97-23.82-1.96s-4.24,1.1-5.49,1.12-1.59-1.23-.3-1.68c2.8-1.01,8.03-1.55,11.07-1.74h-.04Z"/>
    <path class="cls-1" d="M119.94,68.12c1.23-.34,1.53,2,1.72,2.86.43,1.94.8,3.86.34,5.79-2.2,9.54-14.52,17.36-23.41,19.47-14.34,3.38-26.3,3.79-40.49-.58-11.33-3.49-23.15-11.44-22.38-24.79.04-.62.13-2.39.73-2.58,1.66-.5,1.03,1.49,1.03,2.2-.19,8.79,3.19,13.68,10.23,18.48,13.66,9.3,36.44,10.02,51.95,5.41,5.54-1.64,14.43-7.17,17.79-11.91,1.21-1.68,3.17-5.64,3.12-7.69s-1.16-4.35-1.06-6.33c.11-.15.26-.3.43-.37v.04h-.02Z"/>
    <path class="cls-1" d="M107.36,113.48c-.86.58-1.87,1.01-2.76,1.55-11.65,7.09-23.35,9.37-36.75,5.79-3.79-1.01-7.34-2.63-10.7-4.63.06,1.01.75,2.33-.93,2.09-.71-.22-1.06-2.52-1.14-3.23-.45-.26-1.01-.34-1.44-.58s-1.79-1.29-1.62-.54,1.53,2.74.69,3.42c-1.23.99-1.98-2.02-2.24-2.84s-.28-1.9-.5-2.41-3.98-3.68-4.74-4.57c-2-2.33-3.42-5.1-5.26-7.54-.67-1.49.37-2.02,1.46-.88,1.51,1.53,2.97,4.7,4.48,6.57,6.81,8.51,23.11,15.38,33.95,15.31,10.83-.06,26.88-6.68,33.79-15.31.88-1.1,4.42-6.91,5.1-7.13,1.03-.3,1.23.45.93,1.31-2.56,3.98-4.98,7.5-8.44,10.77-.37.34-1.44.97-1.64,1.27-.67,1.03-.75,5.13-1.46,5.92s-.69.39-1.06.26c-1.03-.37.39-3.77.26-4.63h0v.02Z"/>
    <path class="cls-1" d="M107.36,59.37c-.5-1.21-.5-2.61,1.18-2.02.28,1.31.75,2.65,2.22,2.97,2.22.5,5.58.43,7.95.6,1.9.15,3.79.6,5.73.39.32-.32-1.79-2.09-.06-2.48,2.3.78,2.86,3.81-.04,4.2-4.89-.11-9.78-.65-14.65-1.14-.45,2.05,1.53,2.56,2.63,3.88.5.6,1.96,3.04.39,3.1s-1.29-1.59-1.85-2.22c-1.12-1.25-2.69-1.42-2.91-3.49-.11-.99.11-1.23.3-2.02s-.5-.19-.69-.11c-.84.39-1.83-.52-2.71-.47.62,1.08.47,2.43.99,3.55.52,1.12,1.98,1.59,1.36,2.76-.82,1.01-2.24-.82-2.58-1.53-.54-1.1-.56-2.41-.93-3.53s-.75-1.68-.9-1.81c-.24-.22-3.4-1.87-3.92-2.11-13.16-6.05-26.49-3.23-39.67.62-1.12.32-3.53,1.57-4.37,1.66-1.25.13-1.42-1.25-.32-1.7,3.62-1.46,8.74-2.89,12.58-3.92,10.34-2.74,21.58-2.78,31.53,1.44,1.42.6,2.71,1.49,3.98,2.05s3.36.82,4.76,1.36h.02v-.02Z"/>
    <path class="cls-1" d="M39.32,67.34c1.79-.62,1.06,1.83,1.03,2.58-.26,10.66,7.43,16.33,16.39,20.12,6.7,2.84,12.62,3.53,19.84,4.03,9.8.67,19.79-2.63,28.8-6.16,1.14-.15,1.7,1.18.47,1.66-9.15,3.55-19.11,6.81-29.1,6.27-6.94-.37-13.42-1.18-19.84-3.86-9.3-3.86-19.19-10.62-18.33-22.06.04-.5.26-2.43.71-2.58h.02Z"/>
    <path class="cls-1" d="M45.54,117.18c.78-.22,1.94,1.46,2.61,2,7.09,5.66,19.84,11.54,28.84,12.49,10.7,1.14,26.15-5.88,34.44-12.49,2.2-1.9,2.5-2,2.58-1.98.34.06.56.41.56.84,0,1.14-3.21,3.3-4.2,3.98-8.79,6.12-22.49,12.56-33.39,11.42-9.41-.99-20.46-6.22-28.15-11.65-.62-.43-5.66-3.94-3.3-4.59h0v-.02Z"/>
    <path class="cls-1" d="M45.46,69.21c-.88-1.36,1.25-1.72,1.62-2.84s0-1.46.13-2.2.71-1.36.93-2.09l-1.92.22c-.13.28-.09.56-.34.75-.58.47-3.42,1.25-4.39,1.77-.69.34-2.11,1.59-2.74,1.53-1.57-.62-.09-1.81.75-2.33l2.43-1.36c-1.96-.17-7.88,1.57-8.62-1.01s.8-2.56,1.9-2.82c1.72.39-.39,2.15-.06,2.48,1.94.22,3.83-.24,5.73-.39,2.37-.17,5.73-.11,7.95-.6,1.53-.34,1.92-1.74,2.28-3.06l1.14.06c.84.54-.26,2.46-.62,3.08-.58,1.01-1.42,2-2.11,2.95s-.3,2.58-1.01,4.05-1.9,2.35-3.02,1.83h0l-.02-.02Z"/>
    <path class="cls-1" d="M61.61,31.91c-2.41,1.68-3.27,3.73-1.34,6.31.86-1.01,1.49-2.07,2.74-2.69s3.23-1.4,3.38-.11-2.02,1.23-2.99,1.87-2.07,1.9-2.18,2.11c-.41.78,2.37,2.5,3.08,2.67,2.8-1.03,5.02-4.31,8.23-3.79.97,1.66-1.34,1.62-2.48,2.18-1.55.78-4.67,3.86-6.42,3.32s-5.94-5.23-6.2-7.8,0-2.11.02-2.24c.41-1.66,5.88-5.21,7.65-5.1.99.06,1.14,1.1.17,1.64s-2.33.71-3.68,1.66h.02v-.02Z"/>
    <path class="cls-1" d="M54.16,73.91l1.27.17c1.18,1.68-3.38,2.02-4.29,1.96s-4.16-1.29-2.97-2.48,1.9.54,2.61.69,2.5.24,2.28-.34c-.93-.86,1.03-2.65,1.74-3.32,4.48-4.16,12.02-3.92,17.06-.93.65.39,3.62,2.15,2.26,2.97-.88.54-2.97-1.46-3.88-1.94-3.19-1.66-7.56-1.92-10.96-.86s-3.62,2.35-5.15,4.05h.02v.02Z"/>
    <path class="cls-1" d="M111,73.56c1.14,1.14-1.87,2.35-2.78,2.46-1.23.15-5.19-.02-4.16-2.02l.99-.17c-1.36-1.62-2.63-3.17-4.67-3.88-3.47-1.18-8.18-.93-11.46.75-.9.47-2.99,2.5-3.88,1.94-1.34-.82,1.64-2.61,2.26-2.97,4.74-2.8,12.88-3.34,17.04.75.22.22,1.9,2.18,1.96,2.3.32.67-.04.78-.19,1.16s1.92.41,2.28.34c.73-.15,1.92-1.38,2.61-.69h0v.02Z"/>
    <path class="cls-1" d="M101.31,33.05c.73.73-.73,3.77-1.21,4.61-1.4,2.48-4.87,5.71-7.86,3.77-3.1-2.02-1.31-6.31.09-8.81.41-.73,1.64-3.1,2.63-2.43s-1.21,3.21-1.59,4.05c-.75,1.59-2.15,5.04.17,5.9,2.02.75,4.5-2.09,5.32-3.7.41-.8,1.16-4.65,2.43-3.38h.02Z"/>
    <path class="cls-1" d="M86.92,27.43c1.1-.19,4.09,0,3.94,1.59s-1.66.22-2.24.11c-.88-.15-1.68,0-2.41.5-2.33,1.62.9,3.32,1.9,4.67,2.11,2.89.65,5.41-2.95,4.89-.75-.11-5.13-1.77-3.62-2.8,1.51-1.03,4.93,2.3,5.75.69.75-1.51-2.99-3.68-3.45-4.91-.82-2.15.97-4.39,3.1-4.74h-.02Z"/>
    <path class="cls-1" d="M79.36,8.82c2.5-.09,5.77.06,8.21.62,2.43.56,3.64.8,3.4,1.85-.24,1.06-1.81.28-2.63.09-4.09-1.03-8.92-1.01-13.07-.45-1.21.17-5.56,1.34-6.22,1.1-.84-.28-.22-1.34.6-1.66,2.41-.95,7.09-1.46,9.71-1.55Z"/>
    <path class="cls-1" d="M97.41,101.69c2.41-.41,3.19,1.51.82,2.56-1.9.86-9.22,2.89-11.2,2.99-1.81.11-2.58-1.79-.78-2.52,1.83-.75,5.23-1.23,7.34-1.79,1.14-.3,2.82-1.1,3.79-1.25h.02Z"/>
    <path class="cls-1" d="M76.69,28.16c.22.88.56,1.77.73,2.67.32,1.7.8,4.7.84,6.35s-1.25,2-1.7.52c-.56-1.83-.47-4.82-.88-6.87-.17-.84-.6-1.59-.54-2.48-.11-.11-2.41.17-2.8.22-.93.13-3.19,1.18-3.21-.32s2.35-1.31,3.21-1.42c1.83-.26,6.38-.62,7.99.13.82.37.56,1.57-.43,1.62s-2.97-.6-3.21-.41Z"/>
    <path class="cls-1" d="M61.67,101.67c1.03-.22,3.64.93,4.87,1.27,2.09.56,5.51,1.03,7.34,1.79s1.03,2.63-.78,2.52c-1.83-.11-9.33-2.13-11.05-2.95-1.31-.62-2.07-2.26-.39-2.63h0Z"/>
    <path class="cls-1" d="M116.53,68.52c.15-.15.56-.28.78-.22,1.68,1.31,1.64,4.31,1.49,6.27-.22,2.95-1.1,5.43-3.02,7.67-.47.56-2.67,2.97-3.1,3.3s-1.62.69-1.81-.13,2.65-3.12,3.27-3.83c2.46-2.86,3.36-6.27,2.89-10.06s-1.1-2.39-.52-2.97h0l.02-.02Z"/>
    <path class="cls-1" d="M93.44,74.77c2.61-.8,2.99,3.68,2.84,5.26-.39,3.88-3.94,4.42-4.29.19-.17-2-.02-4.85,1.44-5.45h0Z"/>
    <path class="cls-1" d="M64.39,74.73c1.55-.45,2.22,1.55,2.41,1.96.65,1.53.75,6.55-1.68,6.48-2.89-.06-2.93-7.82-.73-8.46h0v.02Z"/>
    <path class="cls-1" d="M96.11,18.23c1.85.41,3.36,1.57,4.95,2.52.26,0,4.22-3.96,3.4-.82-.28,1.08-1.44,1.21-2.05,1.81s-.11.99-1.01.99-3.62-2.11-4.82-2.56c-.62-.24-1.98-.34-2.18-.73s-.19-4.24-.09-4.74.52-.75,1.06-.69c1.18.19.5,3.34.71,4.26v-.04h.02Z"/>
    <path class="cls-1" d="M63.44,18.42c.24-.95-.5-4.26.71-4.44.54-.06.95.13,1.06.69s.11,3.88,0,4.46c-.17.95-2.56,1.29-3.4,1.64s-2.3,1.38-2.71,1.38c-.69-.41-1.49-.3-2.15-.58s-2.61-1.77-1.62-2.63c.99-.86,2.48,1.31,3.19,1.83,1.34-1.21,3.25-1.74,4.93-2.35h0Z"/>
    <path class="cls-1" d="M90.43,63.68c.71-.09,1.42-.09,1.42.82s-1.7.99-2.54,1.36-1.77,1.08-2.43,1.64c-.69.58-3.08,3.45-3.4,3.6s-.3.13-.47.11c-2.2-.17,1.46-3.86,2.02-4.37,1.18-1.1,3.81-2.95,5.41-3.14h0Z"/>
    <path class="cls-1" d="M66.91,64.84c1.72-.5,6.42,1.98,7.73,3.25.56.54,2.65,2.89.95,3.12s-1.94-1.7-2.69-2.35-1.74-1.16-2.71-1.55-2.8-.6-3.47-.99-.5-1.29.22-1.49h-.02Z"/>
    <path class="cls-1" d="M89.74,84.61c.52-.5,1.27-.06,1.81-.04,2.24.02,4.01-.06,6.12-.88.75-.3,1.49-1.18,2.33-.78,1.34.67-.97,2.05-1.55,2.33-1.81.84-6.4,1.55-8.21.82s-1.01-.95-.5-1.44h0Z"/>
    <path class="cls-1" d="M69.45,84.61c.52.52.11,1.21-.5,1.44-1.85.75-6.33.02-8.14-.88-.6-.3-2.71-1.64-1.42-2.26s1.55.52,2.28.82c1.87.82,3.96.86,5.97.82s1.29-.45,1.81.04h0v.02Z"/>
    <path class="cls-1" d="M47.11,57.86c1.38-.11,2.02.73.75,1.34-1.34.65-7.5,1.14-9.18,1.14s-1.85-1.55-.78-1.77c1.98-.24,4.03-.04,6.01-.19s2.18-.45,3.17-.52h.02Z"/>
    <path class="cls-1" d="M78.19,88.02c-.15.15-.58.26-.8.22-1.34-.78-.43-2.76.45-3.55,1.62-1.42,4.03-1.25,5.41.41s1.42,2.22.11,2.61l-.34-.04c-.71-.19-1.4-3.3-3.7-1.87s-.71,1.81-1.14,2.24h.02Z"/>
    <path class="cls-1" d="M120.95,58.42c.11.47.02,1.16-.52,1.31s-4.72-1.1-5.84-1.27c-1.01-.17-2.15.19-3.06-.43-.41-1.44.65-1.44,1.74-1.36,2.39.17,5.26,1.36,7.65,1.77h.02v-.02Z"/>
    <path class="cls-1" d="M50.97,29.93c.65-.22,1.21.17,1.21.84s-.82,2.78-.93,3.9.43,3.64-.86,3.51c-1.16-.32-.97-2.33-.9-3.34s.75-4.67,1.49-4.91Z"/>
    <path class="cls-1" d="M43.69,65.4c.22-.13,1.01-.06,1.25.15.52.84.32,1.81-.06,2.65s-.86,1.03-.97,1.36c-.24.75.04,2.18-.86,2.63-1.55.75-1.08-2.18-.88-3.02s1.01-1.1,1.23-1.87.06-1.77.3-1.92h0v.02Z"/>
    <path class="cls-1" d="M114.29,63.68c.69-.06,4.22,1.94,4.35,2.56.54,2.76-3.83-.88-4.78-1.06l-.26-1.03c.09-.24.45-.45.69-.47h0Z"/>
    <path class="cls-1" d="M104,117.57c1.49-.43.84,2.8-.24,2.69-1.16-.22-.52-2.48.24-2.69Z"/>
    <path class="cls-1" d="M57.41,17.33c.95-.28,2.33,1.01,1.62,1.81s-2.09-.32-2.13-1.16c0-.28.26-.56.52-.65Z"/>
    <path class="cls-1" d="M101.48,16.94c1.21-.17,1.12,2.09-.22,2.07-1.18-.19-.78-1.92.22-2.07Z"/>
    <path class="cls-1" d="M98.07,16.87c-.26-.52-.3-1.06-.04-1.59,2-1.29,2.22,2.15.04,1.59Z"/>
    <path class="cls-1" d="M108.67,86.36c.24-.06.45-.06.69,0,1.06.32.43,1.96-.93,1.72s-.47-1.51.24-1.72h0Z"/>
    <path class="cls-1" d="M46.7,34.58c1.42-.43,1.36,1.66.71,1.87-1.34.47-1.7-1.59-.71-1.87Z"/>
    <path class="cls-1" d="M60.81,17.24c-.5-.52-.3-2.09.6-1.87s.41,2.91-.6,1.87Z"/>
  </g>
</svg>