<?xml version="1.0" encoding="UTF-8"?>
<svg id="_图层_4" data-name="图层 4" xmlns="http://www.w3.org/2000/svg" viewBox="0 0 163.41 159.91">
  <defs>
    <style>
      .cls-1 {
        fill: #363636;
      }
    </style>
  </defs>
  <path class="cls-1" d="M0,4.19v151.54c0,2.31,1.88,4.19,4.19,4.19h155.03c2.31,0,4.19-1.88,4.19-4.19V4.19c0-2.31-1.88-4.19-4.19-4.19H4.19C1.88,0,0,1.88,0,4.19ZM160.46,7.14v123.31c0,2.31-1.88,4.19-4.19,4.19H7.14c-2.31,0-4.19-1.88-4.19-4.19V7.14c0-2.31,1.88-4.19,4.19-4.19h149.13c2.31,0,4.19,1.88,4.19,4.19Z"/>
  <g>
    <path class="cls-1" d="M119.89,78.15c-.52-2.17-2.43-1.56-2.43.58.04,3.94,1.18,10.03,1.8,14.15,1.05,7.3,4.49,15.55-4.73,19.07-8.43,3.24-17.07,3.36-25.82,4.51-9.36,1.19-26.89,5.26-35.37,1.04-7.96-3.94-5.84-14.64-6.38-21.79-.15-1.88-.8-3.63-2.51-1.67,0,7.89-1.09,19.8,6.39,24.78,6.04,4,14.48,2.78,21.33,2.52l6.35-1.08.95,3.12c-3.87,1.1-13.85,6.75-14.89,10.64-.87,3.29,2.17,3.33,4.52,3.58,4.55.46,9.25.14,13.81.84,4.18.66,5.05,2.23,9.44.42,5.52-2.26,11.02-5.96,16.6-8.23,1.51-.62,5.52-1.53,6.26-2.51,1.41-1.92-.24-3.61-1.84-4.6-2.36-1.47-6.07-2.04-8.81-1.91l-6.38.81c-.82-1.39-.21-2.82-.55-4.33,5.76-.67,11.98-1.77,17.44-3.78,1.2-.46,2.82-1.18,3.85-1.93.93-.64,3.2-2.95,3.51-3.9,2.25-6.86-.9-15.76-1.85-22.73-.3-2.38-.11-5.16-.69-7.62h0ZM66.84,134.97c-.56-.57,2.54-3.11,2.95-3.46.89-.72,7.55-5.33,8.13-4.86.05.36.09.72.28,1.03,1.91,3.03,4.28,5.76,6.47,8.57l-17.84-1.31v.03ZM88.14,136.11c-.47.15-2.99-3.11-3.47-3.72-.65-.77-3.83-4.83-3.9-5.44l.07-.41c2.2-1.69.81-4.48.14-6.62l14.18-1.53.57,4.48c-3.82,3.39-4.72,9.07-7.58,13.23h0ZM107.26,124.11c1.76.14,5.32.94,5.8,2.78-1.88.12-3.61.92-5.32,1.66-5.78,2.42-11.35,5.97-17.19,8.4l4.93-10.26c.36-.57.81-1.3,1.49-1.53,1.75-.65,8.26-1.17,10.24-1.03h.06Z"/>
    <path class="cls-1" d="M119.55,65.63c-2.3-.01-5.21.85-7.43,1.5-.6-3.01-2.27-9.22-6.09-9.38-2.64-.09-8.3.84-11.12,1.32-2.22.37-5.36.93-7.24,1.99-4.22,2.37-2.68,6.34-2.94,10.34-2.35-1.2-4.82-.89-6.8.87-.81-3.93-1.81-8.43-6.2-9.55-3.95-1-15.78,1.67-19.76,3.34-4.21,1.76-4.15,5.15-3.55,9.14-2.43.16-5.4,1.76-7.63,2.07-2.98.38-4.1-.46-6.9,1.76-7.7,6.06-4.25,21.4,6.14,18.94.83-.2,3.09-.97,3.24-1.91.45-2.72-3.27-.47-4.57-.31-2.17.28-3.86-.55-5.1-2.32-5.13-7.39,3.25-18.95,9.86-11.44.65.74,1.27,2.53,2.31,2.28,1.15-.36.99-1.32.66-2.29-.47-1.32-1.96-1.98-2.55-3.19l4.84-1.17c.21,1.14.78,6.17,1.66,6.55,2.6,1.17.93-3.76.8-4.51-.32-2.04-1.37-8.14-.53-9.72.22-.4.92-.97,1.28-1.2,2.9-1.74,14.15-3.94,17.61-3.89,1.53.02,2.93.42,3.85,1.68,1.78,2.46,3.29,10.68,3.31,13.77.05,4.24-8.16,3.21-11.03,3.45-4.06.33-10.08.58-13.9,1.52-1.6.42-.83,2.34-.24,2.45,3.45-.26,6.88-1,10.32-1.31,4.02-.36,11.83.21,15.03-1.85.68-.45,1.29-1.6,1.52-1.75.39-.26.92-.21,1.32-.47.45-.27.93-1.34,1.69-1.87,2.46-1.78,4.43-1.02,4.1,2.2-.35,3.29-6.37,2.8-6.93,4.46-.53,1.57,1.26,1.49,2.31,1.3,2.81-.54,6.9-2.22,6.91-5.56,4.13.76,7.92.22,12-.15,2.09-.17,4.09-.09,6.26-.52,2.96-.56,5.58-1.11,6.69-4.15.39-1.06.45-3.18.4-4.33-.06-1.46-.47-3-.57-4.48,1.54-.62,7.33-.78,8.07-1.97.61-.96-.21-1.69-1.19-1.68l.07.05ZM84.93,77.22c-2.24-.51-4.15.77-5.82,2.12l-.62-4.88c1,.15,1.51-.87,2.21-1.11,1.64-.55,2.68.12,4.1.73l.09,3.14h.03ZM111.05,76.22c-.07,2.61-2.88,3.12-4.93,3.53-3.91.77-9.33,1.16-13.35,1.12-.73,0-4.59-.24-4.87-.51l-1.48-2.47c.24-.06.5-.19.62-.39.82-1.51-.27-9.57.07-11.94.21-1.49,1.95-2.72,3.31-3.08,3.64-.95,11.5-2.2,15.19-2.24,1.8-.02,2.48,1.46,3.13,2.94,1.16,2.64,2.43,10.18,2.34,13.07l-.03-.03Z"/>
    <path class="cls-1" d="M23.44,63.39c-1.73-3.51-.4-7.96,1.75-11.02,1.04-1.48,3.42-3.92,4.78-5.23,2.83-2.75,8.96-6.03,8.33-10.45-.64-4.54-4.58-5.47,0-10.03,4.1-4.07,9.31-4.98,14.82-3.72,1.2.28,3.87,1.8,4.71.93,1.84-1.92-4.06-3.28-5.19-3.5-6.48-1.19-14.44.92-18.03,6.82-3.04,4.97,2.67,8.25.94,11.75-6.78,6.12-20.53,16.53-13.5,26.86,1.13,1.66,4.4,4.06,4.4,5.98.01,1.53-2.38,3.18-3.31,4.3-2.84,3.42-5.95,7.79-5.05,12.51.62,3.19,3.64,5.81,3.91,8.89.31,3.6-4.05,7.58-4.1,11.29-.04,4.04,2.32,7.63,2.84,11.47.31,2.41-.15,5.58.43,7.96.32,1.31.88,1.66,2.14.98l.26-.58c-.32-3.75-.27-7.61-1.04-11.34-.48-2.32-2.12-5.11-2.25-7.36-.24-4.25,4.4-7.93,4.2-12.22-.27-5.47-5.39-7.05-3.69-13.35,1.31-4.82,5.26-6.69,7.45-10.4,2.64-4.53-3.1-7.07-4.83-10.55h0Z"/>
    <path class="cls-1" d="M141.61,89.31c-3.15-4.58-3.69-3.51-4.42-9.77-.67-5.54-.9-8.3-4.34-13-1.26-1.74-4.59-4.58-5.02-6.52-.43-1.96,1.03-5.82,1.37-7.94.63-3.96.68-7.86-2.05-11.09-.72-.86-2.19-1.59-2.53-2.09-.56-.82-.83-2.65-1.27-3.72-.83-1.94-2.51-4.36-4.26-5.58-1.48-1.04-4.67-1.64-5.56-2.63-.88-.93-1.65-4.59-2.53-6.19-4.24-7.6-14.64-8.11-21.77-4.51-1.7.86-6.15,3.81-3.35,5.63,1.12.16,1.63-1.37,2.34-2.04,4.74-4.36,15.14-4.8,19.5.42,2.56,3.07,2.18,7.31,5.33,9.23,1.99,1.21,4.13,1.19,5.9,3.13,2.16,2.32,2.05,4.54,3.31,6.8.99,1.8,3.21,2.65,4.24,4.97,2.63,6-3.03,12.93-.25,18.01,1.6,2.98,5.01,5.26,6.68,8.75,2.41,4.98,1.24,8.53,2.5,13.2.82,3.11,3.74,5.09,5.22,7.84,2.13,3.98,2.29,7.9-.92,11.25-1,1.01-6.21,4.06-4.49,5.34,1.05.78,2.75-.75,3.62-1.38,6.62-4.94,7.6-11.21,2.83-18.13h-.09Z"/>
    <path class="cls-1" d="M73.71,97.67c2.71.42,5.43,1.3,8.16,1.65,1.77.2,5.55.61,7.22.52,1.73-.1,2.04-2.03-.07-2.47-5.5-1.2-10.9-.08-16.53-3-1.31-.69-2.81-2.12-4.12-2.56-6.07-2.01-9.05,6.99-5.17,11.09,3.6,3.76,10.61-.49,10.53-5.19l-.03-.03ZM66.72,93.88c.55,0,2.88,1.04,2.59,1.6-.9.36-2.84,1.46-2.39,2.6,1.49,1.89,2.68-.56,4.26-.91.61,2.12-1.82,4.24-3.7,4.6-4.89.99-4.36-7.83-.76-7.92v.03Z"/>
    <path class="cls-1" d="M133.91,114.08c-.57-1.58.7-5.29.4-7.42-.13-.99-1-3.33-1.73-3.97-1.04-.97-4.57-2.02-4.52.3.25.73,2.68.39,3.5,2.74,1.2,3.46-1.54,7.14.63,10.23,1.57,2.22,4.02,2.49,4.33,6.12.12,1.15-.96,2.54.01,3.45,1.18,1.07,2.07-.57,2.2-1.69.27-2.21-.36-4.76-1.69-6.54-.74-.98-2.87-2.39-3.16-3.21h.03Z"/>
    <path class="cls-1" d="M85.51,56.72c6.94-1.25,13.76-3.16,20.82-3.44,1.58-.08,4.65,1,3.65-1.84-4.63-1.06-10.51.08-15.29.94-2.36.42-4.72,1.12-7.07,1.63-.98.22-3.39.06-3.75,1.03-.38,1.09.67,1.66,1.63,1.72l.03-.03Z"/>
    <path class="cls-1" d="M45.58,63.6c.17.59.74.76,1.28.72,2.42-.22,6.52-1.84,9.14-2.45,4.55-1.04,9.16-1.84,13.67-2.9,2.28-3.26-3.64-1.71-5.32-1.4-5.05.92-12.41,2.47-17.18,4.11-1.03.34-1.94.58-1.65,1.92h.06Z"/>
    <path class="cls-1" d="M42.27,90.66l.91-.27c1.58-1.06-1.07-6.74-4.56-6.49-1.33.11-4.87,1.63-3.74,3.26.94,1.41,2.7-.92,3.91-.77-.43.7-3.41,4.2-1.44,4.56,1.88.34,2.06-2.34,3.61-2.91.1.81.14,2.58,1.31,2.62h0Z"/>
    <path class="cls-1" d="M41.75,114.21c-.78.34-.73,2.66-.57,3.44.66,3.01,4.29,3.4,4.15,6.66-.04.92-1.29,2.15-.05,2.94,1.56.99,2.56-2.01,2.53-3.23-.1-4.36-3.94-4.79-4.25-7.2-.15-1.17.72-3.73-1.8-2.62h0Z"/>
    <path class="cls-1" d="M65.48,23.14c.91-.05,2.63-2.44,3.51-3.17,1.13-.94,5.84-3.34,5.81-4.56-.03-1.16-1.19-1.16-2.07-.87-1.58.54-6.49,4.5-7.6,5.89-.63.81-1.27,1.35-.43,2.41,0,0,.77.3.77.3Z"/>
    <path class="cls-1" d="M27.3,125.44c-.91.02-3.19,3.56-3.96,4.45-1.04,1.2-3.56,2.29-2.19,3.92,1.05.81,2.88-1.16,3.55-1.89.46-.49,3.57-4.43,3.68-4.75.31-.96-.12-1.64-1.08-1.73h0Z"/>
    <path class="cls-1" d="M67.81,34.01c-2.09,1.37,2.15,2.48,2.89,3.21.91.89,1.12,2.58,1.53,2.89.24.18.83.26,1.15.16,3-2.37-3.34-7.77-5.57-6.29v.03Z"/>
    <path class="cls-1" d="M73.81,22.51c1.13,1.17,4.48-1.36,4.45-2.25-.13-1.05-.92-1.26-1.86-.93-.94.3-3.65,2.09-2.59,3.2v-.03Z"/>
    <path class="cls-1" d="M117.88,73.88c-2.16,1.04,1.92,3.79,3.12,1.93.92-1.43-2.06-2.46-3.12-1.93Z"/>
    <path class="cls-1" d="M27.49,136.98c-2.11.76-1.57,3.78.42,2.79,1.67-.85,1.72-3.55-.42-2.79Z"/>
    <path class="cls-1" d="M118.86,71.74c.87-.36.72-1.53.13-2.1-.38-.38-1.45-.61-1.97-.33-1.73,1.08.53,2.99,1.84,2.43Z"/>
    <path class="cls-1" d="M64.5,77.19c-.09-1.15-.75-2.02-1.96-1.49-.32.13-.53.43-.6.78-.26,1.81,2.73,2.71,2.57.71Z"/>
    <path class="cls-1" d="M67.73,40.78c-.9-1.32-3.28.42-1.82,1.55.98.76,2.65-.31,1.82-1.55Z"/>
    <path class="cls-1" d="M98.95,70.79c-1.24.59-.18,3.63,1.64,2.76,1.18-.58.09-3.59-1.64-2.76Z"/>
  </g>
</svg>