<?xml version="1.0" encoding="UTF-8"?>
<svg id="_图层_4" xmlns="http://www.w3.org/2000/svg" version="1.1" viewBox="0 0 184 115">
  <!-- Generator: Adobe Illustrator 29.5.0, SVG Export Plug-In . SVG Version: 2.1.0 Build 137)  -->
  <defs>
    <style>
      .st0 {
        fill: #faf9f6;
      }
    </style>
  </defs>
  <path class="st0" d="M30.4,55.8c11.8,0,21.3-9.5,21.3-21.3s-9.5-21.3-21.3-21.3-21.3,9.5-21.3,21.3,9.5,21.3,21.3,21.3Z"/>
  <path class="st0" d="M122.7,36.5c0-1.7-.7-3.3-2-4.4l-4.3-3.7c-2.7-1.3-5.8-2-9-2h-55c.9,2.5,1.5,5.3,1.5,8.2,0,12.9-10.5,23.4-23.4,23.4s-15.8-4.5-19.9-11.1c0,.2,0,.5,0,.7v16.4c0,11.7,9.5,21.2,21.2,21.2h51.1c-2.6-2.8-3.8-6.8-2.8-10.7h0c1.6-6,7.8-9.5,13.8-7.9l19.5,5.3c3.3.9,6.7-1.2,7.3-4.6,1.4-8.2,2.2-22.2,2.1-30.6Z"/>
</svg>