<?xml version="1.0" encoding="UTF-8"?>
<svg id="_图层_4" xmlns="http://www.w3.org/2000/svg" version="1.1" viewBox="0 0 184 115">
  <!-- Generator: Adobe Illustrator 29.5.0, SVG Export Plug-In . SVG Version: 2.1.0 Build 137)  -->
  <defs>
    <style>
      .st0 {
        fill: #faf9f6;
      }
    </style>
  </defs>
  <g>
    <path class="st0" d="M34.6,60.4c11.8-.6,20.8-10.5,20.3-22.3-.5-11.7-10.5-20.8-22.3-20.3-11.7.5-20.8,10.5-20.3,22.3.6,11.7,10.5,20.8,22.3,20.3Z"/>
    <path class="st0" d="M132.3,47.5c-.6-11.7-10.5-20.7-22.2-20.2l-55,2.6c1.1,2.5,1.7,5.2,1.8,8.1.6,12.9-9.4,23.9-22.3,24.5-8.4.4-16-3.7-20.4-10.2,0,.2,0,.5,0,.7l.8,16.4c.6,11.7,10.5,20.7,22.2,20.2l75.7-3.6c11.7-.6,20.7-10.5,20.2-22.2l-.8-16.4h0Z"/>
  </g>
  <path class="st0" d="M3.1,16l7.8.8c.3,0,.5-.1.7-.3.1-.2.1-.5,0-.8l-4.3-7.2,5.8,3.9c.2.1.4.1.6.1.2,0,.4-.2.5-.3l4.2-7.3.6,11.8c0,.2,0,.3.2.4l-8,5.4-8-6.4h0Z"/>
</svg>