<?xml version="1.0" encoding="UTF-8"?>
<svg id="_图层_2" xmlns="http://www.w3.org/2000/svg" version="1.1" viewBox="0 0 119.47 166.5">
  <!-- Generator: Adobe Illustrator 29.5.0, SVG Export Plug-In . SVG Version: 2.1.0 Build 137)  -->
  <defs>
    <style>
      .st0 {
        fill: gray;
      }

      .st1 {
        fill: #fff;
      }
    </style>
  </defs>
  <path class="st0" d="M23.02,149.6c4.01,11.3,12.95,13.25,17.44,7.79s.83-14.81.83-14.81c0,0,32.41-7.4,39.28,0s.45,19.64.45,19.64c0,0,7.61,8.63,18.81,1.36,5.09-3.3,7.04-14.35,0-31.15l-70.48-2.32-6.33,19.48h0Z"/>
  <g>
    <g>
      <path class="st1" d="M12.31,41.59c4.69,6.91,10.24,13.21,16.45,18.81.34.31.47.66.47,1,3.06-1.45,6.19-2.69,9.38-3.77-.28-.24-.45-.6-.41-1.1.69-9.02,1.33-18.15.2-27.16-.49-3.92-1.38-7.81-2.73-11.52-.68-1.85-1.48-3.66-2.44-5.38-.99-1.77-2.03-2.61-4.13-2.47-7.37.51-15.36,4-19.37,10.43-1.91,3.06-2.99,6.76-2.49,10.38.54,4,2.87,7.52,5.09,10.78h-.02Z"/>
      <path class="st1" d="M93.36,119.37c11.17-13.47,24.47-35.05,11.69-51.72-5.18-6.76-13.36-10.86-21.61-12.43-11.07-2.09-22.46-.05-33.31,2.28-8.93,1.92-17.69,5.06-25.57,9.74-9.71,5.77-18.2,14.49-19.75,26.12-.86,6.48.05,14.13,3.66,19.69,4.65,7.17,12.92,11.43,20.93,13.68.09.03.17.06.25.09.49.23,1.05.3,1.6.32,1.31.05,2.61.09,3.92.14,1.93.07,1.93,3.07,0,3l-15.3-.55c-.99-.04-2.35-.32-3.27.16-.8.42-1.22,1.57-1.55,2.34-.91,2.09-1.59,4.33-1.92,6.58-.99,6.69,2.06,15.04,9.51,16.35,2.97.52,6.13-.76,8.08-3.02,2.36-2.74,1.51-5.9,1.14-9.16-.41-3.59.82-6.66,4.33-8.03,1.79-.7,3.78-.93,5.67-1.24,2.21-.36,4.43-.67,6.66-.92,8.86-1.01,17.82-1.08,26.7-.26.5.05,1.07.24,1.3.74,3.18,6.94,4.79,14.5,4.65,22.1-.04,2.03,1.51,3.75,3.54,3.85,3.04.15,6.08-.23,8.57-2.13,6.33-4.82,6.12-14.61,3.96-21.3-1.21-3.76-2.21-7.15-3.9-10.69-.91-1.92-1.76-3.61-.4-5.24.14-.17.28-.34.42-.51v.02h0Z"/>
      <path class="st1" d="M114.83,13.14c-.76-3.56-3.13-6.92-6.64-8.2-3.5-1.28-7.11,0-9.93,2.19-3.05,2.38-5.29,5.64-7.15,8.98-2.02,3.61-3.57,7.46-4.66,11.45-2.16,7.91-2.43,16.29-.71,24.31.06.28.04.54-.03.77,2.09.48,4.15,1.1,6.17,1.9.37.15.73.3,1.09.46,4.13-5.68,8-11.54,11.85-17.42,2.52-3.85,5.2-7.66,7.43-11.69,2.13-3.85,3.52-8.35,2.58-12.77,0,0,0,.02,0,.02Z"/>
    </g>
    <path d="M38.31,81.01c-.27,5.09.26,10.21,1.53,15.15.48,1.87,3.38,1.08,2.89-.8-1.21-4.69-1.68-9.51-1.42-14.35.1-1.93-2.9-1.92-3,0h0Z"/>
    <path d="M72.41,78.98c-.44,5.23-.04,10.5,1.13,15.62.43,1.88,3.32,1.09,2.89-.8-1.11-4.86-1.44-9.85-1.02-14.82.07-.81-.74-1.5-1.5-1.5-.87,0-1.43.69-1.5,1.5h0Z"/>
    <path d="M39.81,112.36c15.06,1.74,30.54-3.3,41.81-13.41,1.44-1.29-.69-3.41-2.12-2.12-10.72,9.61-25.41,14.18-39.69,12.53-1.91-.22-1.9,2.78,0,3h0Z"/>
    <path d="M69.69,108.99c2.45,2.32,5.2,4.74,8.68,5.17,3.22.4,6.41-1.33,7.94-4.18s1.02-6.32-1.1-8.81-6.23-3.92-8.74-1.4c-1.26,1.27-1.71,3.3-1.17,5,.58,1.8,2.01,3.2,3.71,3.98.74.33,1.61.21,2.05-.54.38-.64.2-1.72-.54-2.05-1.51-.69-3.38-2.5-2.01-4.19.58-.71,1.67-.5,2.44-.22.87.32,1.66.93,2.22,1.66,1.2,1.57,1.41,3.63.38,5.34s-2.98,2.74-4.99,2.45c-2.68-.39-4.88-2.53-6.76-4.31-1.4-1.33-3.52.79-2.12,2.12h0v-.02h0Z"/>
    <g>
      <path d="M29.77,125.35c-7.59-2.23-15.43-6.06-19.93-12.85-3.47-5.24-4.37-12.48-3.6-18.64,1.34-10.79,9.02-19.03,17.91-24.57,7.18-4.47,15.2-7.59,23.4-9.61,16.25-4,35.76-7.16,50.34,3.24,8.6,6.13,12.19,16.04,10.21,26.35-2.08,10.88-8.91,19.98-15.42,28.65-2.32,3.09,2.89,6.08,5.18,3.03,11.61-15.46,24.78-37.34,10.88-55.73-12.95-17.13-36.06-16.69-55.08-12.98C32.27,56.42,4.73,67.08.56,91.48c-1.31,7.68-.41,16.81,3.75,23.53,5.25,8.46,14.57,13.39,23.86,16.12,3.71,1.09,5.3-4.7,1.6-5.79h0Z"/>
      <path d="M35.14,125.85c-5.91-.21-12.96-1.58-18.77-.47-4.52.87-6.16,6.01-7.13,9.94-2.38,9.59,1.15,21.87,12.01,24.19,9.06,1.94,16.4-5.55,15.39-14.35-.11-.93-.71-2.61-.4-3.6.92-2.95,3.86-2.94,6.19-3.33,3.74-.63,7.5-1.07,11.28-1.34,7.17-.52,14.34-.4,21.5.22l-2.59-1.49c1.97,4.48,3.33,9.23,3.83,14.1.32,3.07-.29,6.51,1.16,9.37,2.53,4.99,8.59,5.44,13.45,4.09,19.22-5.46,10.99-32.38,6.41-43.52-1.45-3.52-7.25-1.98-5.79,1.6,3.33,8.1,12.54,33.65-3.98,36.49-6.25.77-4.95-6.3-5.57-10.62-.73-5.09-2.27-9.85-4.33-14.54-.44-.99-1.61-1.4-2.59-1.49-10.11-.88-20.21-.67-30.27.71-7.16.99-15.25,2.01-14.62,11.05.31,4.46,1.16,9.19-4.47,10.71-5.14,1.38-9.72-3.28-10.96-7.89-.77-2.87-.53-5.91.14-8.77.78-3.3,1.12-5.41,4.51-5.63,5.1-.32,10.49.37,15.6.56,3.86.14,3.86-5.86,0-6h0Z"/>
      <path d="M29.78,59.39c-7.07-6.46-13.83-13.84-18.59-22.21-5.35-9.43-.9-19.02,8.72-23.25,1.89-.83,3.85-1.44,5.88-1.86,3.52-.73,5.15-.36,7.02,3.02,2.22,4.02,3.28,9.05,3.93,13.55,1.34,9.24.61,18.68-.09,27.94-.29,3.85,5.71,3.83,6,0,.94-12.48,1.82-25.49-1.94-37.62-1.36-4.38-3.37-11.11-8.08-12.94-4.45-1.72-11,.63-15.05,2.38C8.06,12.53.58,22.42,3.08,33.18c1.34,5.76,5.19,10.81,8.7,15.44,4.12,5.43,8.73,10.41,13.76,15.01,2.85,2.6,7.1-1.63,4.24-4.24h0Z"/>
      <path d="M87.15,51.54c-1.77-8.77-1.28-17.75,1.53-26.25,2.26-6.84,7.24-18.03,15.39-19.16,5.54-.77,9.32,4.35,9.51,9.44.17,4.62-2.01,8.69-4.37,12.51-4.9,7.93-10.19,15.64-15.43,23.35-2.18,3.2,3.02,6.21,5.18,3.03,3.86-5.68,7.67-11.39,11.42-17.15,3.29-5.05,7.21-10.2,8.59-16.18,2.13-9.18-2.61-20.72-13.24-21.13-10.63-.4-17.27,10.33-20.91,18.67-4.75,10.91-5.81,22.82-3.47,34.45.76,3.78,6.55,2.18,5.79-1.6h0v.02Z"/>
    </g>
  </g>
</svg>