<?xml version="1.0" encoding="UTF-8"?>
<svg id="_图层_2" xmlns="http://www.w3.org/2000/svg" version="1.1" viewBox="0 0 137.2 88">
  <!-- Generator: Adobe Illustrator 29.5.0, SVG Export Plug-In . SVG Version: 2.1.0 Build 137)  -->
  <defs>
    <style>
      .st0 {
        fill: #faf9f6;
      }

      .st1 {
        fill: #363636;
      }
    </style>
  </defs>
  <rect class="st1" y="12.9" width="137.2" height="75" rx="12" ry="12"/>
  <rect class="st0" x="3.1" y="3" width="130.9" height="68.8" rx="8.5" ry="8.5"/>
  <path class="st1" d="M125.5,74.8H11.6c-6.3,0-11.6-5.2-11.6-11.5V11.5C0,5.2,5.3,0,11.6,0h113.9c6.3,0,11.5,5.2,11.5,11.5v51.8c0,6.4-5.2,11.5-11.5,11.5ZM11.6,6c-3,0-5.5,2.5-5.5,5.5v51.8c0,3,2.5,5.5,5.5,5.5h113.9c3,0,5.5-2.5,5.5-5.5V11.5c0-3-2.5-5.5-5.5-5.5,0,0-113.9,0-113.9,0Z"/>
  <path class="st1" d="M48.3,46.2h40.6c1,0,1.9.8,1.9,1.8h0c0,1-.9,1.9-1.9,1.9h-40.6c-1,0-1.9-.8-1.9-1.8h0c0-1,.9-1.9,1.9-1.9Z"/>
  <path class="st1" d="M48.3,55.6h40.6c1,0,1.9.8,1.9,1.8h0c0,1-.9,1.9-1.9,1.9h-40.6c-1,0-1.9-.8-1.9-1.8h0c0-1,.9-1.9,1.9-1.9Z"/>
</svg>