<?xml version="1.0" encoding="UTF-8"?>
<svg id="_图层_2" data-name="图层 2" xmlns="http://www.w3.org/2000/svg" viewBox="0 0 137.16 87.98">
  <defs>
    <style>
      .cls-1 {
        fill: #fff;
      }
    </style>
  </defs>
  <g id="_图层_2-2" data-name=" 图层 2">
    <rect y="12.94" width="137.16" height="75.04" rx="12.01" ry="12.01"/>
    <g>
      <rect class="cls-1" x="3.09" y="3" width="130.91" height="68.79" rx="8.52" ry="8.52"/>
      <path d="M125.48,74.79H11.61C5.26,74.79.09,69.62.09,63.27V11.52C.09,5.17,5.26,0,11.61,0h113.87c6.35,0,11.52,5.17,11.52,11.52v51.75c0,6.35-5.17,11.52-11.52,11.52ZM11.61,6c-3.04,0-5.52,2.47-5.52,5.52v51.75c0,3.04,2.47,5.52,5.52,5.52h113.87c3.04,0,5.52-2.48,5.52-5.52V11.52c0-3.04-2.47-5.52-5.52-5.52H11.61Z"/>
    </g>
    <rect x="46.36" y="46.2" width="44.38" height="3.74" rx="1.87" ry="1.87"/>
    <rect x="46.36" y="55.61" width="44.38" height="3.74" rx="1.87" ry="1.87"/>
  </g>
</svg>