<svg width="1707" height="369" viewBox="0 0 1707 369" fill="none" xmlns="http://www.w3.org/2000/svg">
<rect x="3" y="3" width="1701" height="363" rx="31" fill="white" stroke="black" stroke-width="6"/>
<path d="M872.875 212.5C874.292 212.5 875.292 212.833 875.875 213.5C876.5 214.125 876.812 215.208 876.812 216.75C876.812 218.292 876.5 219.396 875.875 220.062C875.292 220.688 874.292 221 872.875 221H830.75C829.333 221 828.312 220.688 827.688 220.062C827.104 219.396 826.812 218.292 826.812 216.75C826.812 215.208 827.104 214.125 827.688 213.5C828.312 212.833 829.333 212.5 830.75 212.5H847.562V158.875L832 168.562C831.292 168.979 830.646 169.188 830.062 169.188C828.729 169.188 827.583 168.333 826.625 166.625C826.042 165.625 825.75 164.667 825.75 163.75C825.75 162.333 826.396 161.25 827.688 160.5L851.25 146C852.083 145.5 852.917 145.25 853.75 145.25C854.667 145.25 855.417 145.562 856 146.188C856.625 146.771 856.938 147.604 856.938 148.688V212.5H872.875Z" fill="black"/>
</svg>
