<?xml version="1.0" encoding="UTF-8"?>
<svg id="_图层_11" data-name="图层 11" xmlns="http://www.w3.org/2000/svg" viewBox="0 0 148.36 182.24">
  <g>
    <path d="M24.51,32.99c.67,3.79-9.99,11.98-13.28,12.56-4.16.73-9.8-.74-10.99-7.48C-1.63,27.44,7.6,11.52,15.93,8.67c.18-.09.36-.12.55-.15,1.61-.28,3.3.57,3.43,1.29.04.22-.11.48-.46.66-3.07,1.46-15.68,17.11-13.73,28.14.29,1.67.65,4.08,2.95,3.67,3.79-.67,11.41-6.83,12.92-10.26.2-.32.48-.54.91-.62.68-.12,1.64.23,1.97,1.37,0,.06.03.17.04.22Z"/>
    <path d="M55.08,38.28c-1.03,1.79-11.58,8.76-13.63,9.12-1.06.19-2.65-.16-4.81-1.16-.74-.21-4.79-17.7-6.95-30-1.22-6.9-2.3-11.59-.13-11.97.87-.15,2.14.14,3,1.02.46.78.98,3.04,1.58,6.44.7,3.95,1.5,9.21,2.39,14.27,1.25,7.07,2.69,13.82,4.24,16.76,4.34-1.91,12.2-6,11.95-5.95,1.06-.19,2.22.24,2.46.89.03.17,0,.4-.09.59Z"/>
    <path d="M57.98,20.21c1.33,7.52,1.7,13.25.33,13.49-1.12.2-2.54-1.68-3.14-2.55-1.28-1.84-3.15-9.49-4.05-14.61-.79-4.51-1.03-5.1.96-5.45,2.48-.44,3.42.14,4.49,2.94.47,1.58.99,3.79,1.41,6.18Z"/>
    <path d="M92.23,3.89s-11.85,11.56-16.62,17.22c5.01,1.53,11.7,2.07,14.87,3,.81.26,1.19.94,1.29,1.5.14.78-.22.96-.96,1.09-3.6.63-9.88-.84-17.51-3.11,0,0,2.16,8.23,2.45,9.56.06.33-.16.54-.72.64-1.24.22-3.69-.21-4.57-1.21-.64-.75-4.17-15.68-5.79-24.87-.8-4.57-1.61-7.29.44-7.66.19-.03.43-.08.63-.05.76-.02,3.01.39,3.4,1.12.12-.02.28.87.49,2.04.34,1.95.8,4.91,1.29,7.69.55,3.12,1.16,6.57,1.58,7.13,2.67-3,11.2-13.8,16.74-15.47.81-.14,2.78.54,2.97,1.26q0,.06.02.11Z"/>
    <path d="M32.71,70.41c.03.17,0,.35-.1.53-.54.96-12.01,4.13-12.38,5.34-.61,2,5.9,40.35,5.82,41.74-.02.23-.49.49-1.17.61-1.24.22-3.14-.02-4.08-1.75-.14-.09-.52-1.86-.94-4.25-1.81-10.24-4.96-35-4.97-35.12-.02-.11-5.93,2.65-8.17,3.05-1.99.35-4.88-.81-5.16-1.67-.2-1.11,2.49-1.13,4.24-1.72,4.22-1.49,9.43-5.34,24.39-7.97,1.18-.21,2.3.34,2.49,1.05,0,.05.02.11.03.17Z"/>
    <path d="M64.87,105.79c-1.24.22-4.04-1.12-4.26-1.66l-.07-.05c-.03-.17-.14-.43-.21-.82-.29-1.67-.73-5.21-1.11-7.38-.05-.28-.1-.56-.14-.78l-18.99,6.68c-.03.58.07,1.14.17,1.69.25,1.45.77,2.91.92,3.74.1.56-.05.81-.61.91-.87.15-2.54-.24-3.34-1.13-1.42-1.53-3.96-10.84-5.11-17.35-.73-4.12-.93-6.38.19-6.58,1.24-.22,3.79.82,4.16,1.79.25,1.39,2.88,12.7,2.63,12.74,1.34-.75,16.03-6.04,19.07-6.58.25-.04.45.03.4-.3-.2-1.12-1.39-6.41-2.19-10.98-.64-3.62-1.22-6.56-.1-6.76,1.06-.19,3.24.58,4.14,1.68.1.56.72,2.63,1.24,5.58.33,1.89.68,4.24,1.11,6.64,1.95,12.51,3.79,18.62,2.12,18.92Z"/>
    <path d="M105.11,94.39c.15.83-.66,1.32-1.59,1.49-4.78.84-4.3-2.23-8.19-9.06-5.93,3.05-16.95,6.26-16.95,6.26-1.06,3.06-2.97,14.01-3.46,14.5-.13.37-1.58,1.2-2.58,1.37-.37.07-.7,0-.81-.26-1.06-6.01,7.85-39.73,9.07-40.81s2.83-1.76,4.19-2c1.18-.21,2.22-.1,2.75.32,4.36,3.31,15.75,22.54,17.41,27.58.04.22.14.44.17.6ZM84.37,70.09c-.79.25-3.81,10.72-5.34,19.08,8.72-5.38,14.24-6.36,14.24-6.36,0,0-8.4-12.81-8.9-12.72Z"/>
    <path d="M127.08,53.77c.03.17,0,.35-.1.53-.54.96-12.01,4.13-12.38,5.34-.61,2,5.9,40.35,5.82,41.74-.02.23-.49.49-1.17.61-1.24.22-3.14-.02-4.09-1.75-.14-.09-.52-1.86-.94-4.25-1.81-10.24-4.96-35.01-4.97-35.12-.02-.11-5.93,2.65-8.17,3.05-1.99.35-4.88-.8-5.16-1.67-.2-1.11,2.49-1.13,4.24-1.72,4.22-1.49,9.43-5.34,24.39-7.98,1.18-.21,2.3.34,2.49,1.05,0,.05.02.11.03.17Z"/>
  </g>
  <g>
    <path d="M78.56,127.67c6.02,8.96,9.98,21.07,20.45,25.95,2.03.95,4.2,1.47,6.36,1.42s4.22-.56,5.92-1.47c1.84-.99,3.27-2.24,4.21-4.04s1.24-4.2.3-5.9c-1.05-1.9-3.37-2.36-5.5-2.52-2.63-.2-5.37-.28-7.96.29-1.25.27-2.49.66-3.6,1.3s-1.67,1.06-2.46,1.95c-1.19,1.33-1.93,2.93-2.32,4.77-.8,3.76.12,7.95,2.21,11.19,1.18,1.81,2.84,3.44,4.78,4.81s4.14,2.45,6.37,3.27c4.75,1.76,9.93,2.64,14.97,2.98,5.16.35,10.43.03,15.31-1.81,1.17-.44,2.28-.98,3.36-1.6,2.13-1.23,4.17,2.01,2.03,3.24-5.18,2.98-11.14,4.12-17.07,4.11s-11.79-.82-17.34-2.5-10.72-4.37-14.42-8.84c-3.08-3.72-4.66-8.78-4.22-13.6.22-2.37.86-4.74,2.15-6.76,1.51-2.37,3.62-4.09,6.19-5.21,2.81-1.23,5.97-1.56,9.02-1.53,2.88.03,6.15.09,8.73,1.51,2.72,1.49,4.18,4.42,4.17,7.47,0,2.8-1.12,5.47-2.94,7.57-3.48,4.03-9.13,5.61-14.29,5.02-5.63-.65-10.67-4.24-14.36-8.36-4.39-4.89-7.31-10.77-10.6-16.4-.85-1.45-1.73-2.88-2.66-4.27-1.37-2.05,1.87-4.07,3.24-2.03h0Z"/>
    <path d="M137.77,160.42c2.38,2.82,5.5,4.84,9.09,5.72,1.3.32,2.08,2.15.98,3.16-4.09,3.72-7.78,7.85-11.02,12.33-.61.84-2.01.76-2.7.12-.84-.77-.72-1.86-.12-2.7,3.24-4.48,6.93-8.61,11.02-12.33l.98,3.16c-4.18-1.03-8.04-3.33-10.82-6.63-.67-.79-.88-1.88-.12-2.7.63-.69,2.03-.91,2.7-.12h0Z"/>
  </g>
</svg>