<?xml version="1.0" encoding="UTF-8"?>
<svg id="_图层_11" data-name="图层 11" xmlns="http://www.w3.org/2000/svg" viewBox="0 0 139.25 221.1">
  <g>
    <path d="M26.11,42.69c1.3,3.94-8.82,14.35-12.25,15.48-4.33,1.43-10.59.73-12.9-6.29-3.65-11.08,3.74-29.53,12.21-33.86.18-.12.37-.19.56-.25,1.68-.55,3.62.09,3.86.85.08.23-.04.53-.39.77-3.06,2.04-14.1,20.73-10.32,32.21.57,1.74,1.33,4.26,3.72,3.47,3.95-1.3,11.13-9.07,12.22-12.97.16-.38.43-.66.88-.8.71-.23,1.79-.01,2.32,1.16.02.06.06.17.08.23Z"/>
    <path d="M59.61,43.6c-.82,2.07-11.02,11.16-13.16,11.86-1.1.36-2.86.24-5.33-.5-.83-.11-7.86-18.18-12.08-31-2.37-7.19-4.26-12.03-1.99-12.78.91-.3,2.31-.18,3.36.63.61.76,1.52,3.1,2.69,6.64,1.36,4.12,3.03,9.61,4.77,14.89,2.43,7.37,5.02,14.36,7.13,17.26,4.34-2.72,12.11-8.3,11.85-8.21,1.1-.36,2.41-.09,2.77.57.06.17.07.43,0,.64Z"/>
    <path d="M59.9,23.83c2.58,7.83,3.87,13.9,2.44,14.37-1.16.38-2.97-1.4-3.75-2.24-1.66-1.77-4.83-9.66-6.59-14.99-1.55-4.7-1.89-5.29.18-5.98,2.59-.85,3.68-.38,5.25,2.45.75,1.62,1.64,3.9,2.46,6.39Z"/>
    <path d="M93.99,1.08s-10.88,14.2-15.09,20.99c5.59.86,12.82.4,16.36.91.91.15,1.42.82,1.61,1.4.27.81-.08,1.06-.86,1.31-3.75,1.24-10.69.63-19.2-.61,0,0,3.58,8.46,4.1,9.84.11.35-.09.61-.67.8-1.29.43-3.97.35-5.07-.58-.8-.7-6.89-16.12-10.05-25.69-1.57-4.75-2.85-7.55-.71-8.25.19-.06.45-.15.67-.15.81-.14,3.28-.05,3.81.67.13-.04.44.88.84,2.1.67,2.03,1.62,5.12,2.57,8.02,1.07,3.25,2.26,6.84,2.79,7.38,2.39-3.62,9.84-16.49,15.49-19.13.84-.28,3.06.15,3.37.88q.02.06.04.12Z"/>
    <path d="M40.67,81.42c.06.17.05.37-.02.59-.42,1.1-12.2,6.27-12.4,7.63-.34,2.23,12.56,42.22,12.69,43.72.01.25-.45.6-1.16.83-1.29.43-3.36.47-4.64-1.24-.17-.07-.84-1.91-1.67-4.4-3.52-10.67-10.72-36.65-10.76-36.77-.04-.12-5.93,3.76-8.26,4.52-2.07.68-5.34-.1-5.78-.99-.38-1.16,2.49-1.59,4.27-2.5,4.28-2.25,9.25-7.17,24.84-12.31,1.23-.4,2.51,0,2.83.74.02.06.04.12.06.17Z"/>
    <path d="M80.54,114.25c-1.29.43-4.49-.58-4.81-1.11l-.08-.04c-.06-.17-.22-.44-.35-.85-.57-1.74-1.58-5.46-2.33-7.72-.1-.29-.19-.58-.27-.81l-19.26,10.08c.06.62.25,1.2.44,1.78.5,1.51,1.27,2.99,1.56,3.86.19.58.07.88-.51,1.07-.91.3-2.75.14-3.74-.69-1.76-1.41-5.91-10.97-8.15-17.76-1.42-4.29-1.99-6.67-.82-7.06,1.29-.43,4.18.29,4.72,1.27.48,1.45,5.04,13.12,4.79,13.21,1.32-1.01,16.2-8.94,19.37-9.99.26-.08.49-.03.38-.38-.38-1.16-2.48-6.64-4.04-11.4-1.24-3.77-2.32-6.82-1.16-7.21,1.1-.36,3.55.12,4.68,1.16.19.58,1.18,2.7,2.19,5.77.65,1.97,1.39,4.43,2.21,6.92,4.02,13.08,6.94,19.32,5.2,19.89Z"/>
    <path d="M121.79,95.83c.29.87-.5,1.52-1.47,1.84-4.98,1.64-4.94-1.72-10.16-8.42-5.86,4.18-17.15,9.32-17.15,9.32-.66,3.43-1,15.44-1.45,16.04-.08.41-1.51,1.52-2.54,1.87-.39.13-.75.12-.91-.15-2.06-6.26,2.23-43.69,3.37-45.03,1.14-1.34,2.75-2.32,4.17-2.79,1.23-.4,2.36-.46,2.98-.08,5.17,2.86,20.33,21.65,22.89,26.79.08.23.22.44.28.62ZM95.86,73.07c-.8.39-2.41,12.05-2.75,21.23,8.48-7.11,14.24-9,14.24-9,0,0-10.97-12.39-11.49-12.22Z"/>
    <path d="M138.98,49.01c.06.17.05.37-.02.59-.42,1.1-12.2,6.27-12.4,7.63-.34,2.23,12.56,42.22,12.69,43.72.01.25-.45.6-1.16.83-1.29.43-3.36.47-4.64-1.24-.17-.07-.84-1.91-1.67-4.4-3.52-10.67-10.72-36.65-10.76-36.77s-5.93,3.76-8.26,4.52c-2.07.68-5.34-.1-5.78-.99-.38-1.16,2.49-1.59,4.27-2.5,4.28-2.25,9.25-7.17,24.84-12.31,1.23-.41,2.51,0,2.83.74.02.06.04.12.06.17Z"/>
  </g>
  <g>
    <path d="M86.03,155.88c-7.19,10.71-11.92,25.18-24.43,31.01-2.42,1.13-5.02,1.75-7.6,1.7s-5.04-.67-7.07-1.75c-2.2-1.18-3.91-2.68-5.03-4.83s-1.48-5.01-.35-7.05c1.26-2.27,4.03-2.82,6.57-3.01,3.14-.24,6.41-.33,9.51.34,1.5.33,2.97.79,4.31,1.55s1.99,1.27,2.94,2.33c1.42,1.59,2.3,3.5,2.77,5.7.95,4.49-.14,9.5-2.64,13.37-1.4,2.17-3.4,4.11-5.72,5.75s-4.95,2.92-7.61,3.91c-5.67,2.1-11.86,3.16-17.88,3.56s-12.46.04-18.29-2.16c-1.4-.53-2.72-1.17-4.02-1.91-2.54-1.46-4.98,2.41-2.43,3.88,6.19,3.56,13.31,4.92,20.4,4.91,6.93,0,14.09-.98,20.73-2.99,6.54-1.98,12.81-5.23,17.23-10.57,3.68-4.45,5.56-10.5,5.04-16.25-.26-2.83-1.02-5.66-2.57-8.08-1.8-2.83-4.32-4.89-7.39-6.23-3.36-1.47-7.14-1.87-10.77-1.83-3.44.04-7.35.11-10.44,1.8-3.25,1.78-4.99,5.28-4.98,8.93.01,3.35,1.34,6.53,3.51,9.05,4.16,4.82,10.92,6.71,17.08,6,6.73-.77,12.75-5.07,17.16-9.99,5.25-5.84,8.74-12.87,12.67-19.59,1.01-1.73,2.06-3.44,3.18-5.1,1.64-2.45-2.24-4.87-3.88-2.43h0Z"/>
    <path d="M15.29,195.02c-2.85,3.37-6.57,5.78-10.86,6.84-1.55.38-2.49,2.57-1.17,3.77,4.89,4.45,9.3,9.38,13.17,14.73.72,1,2.4.9,3.23.14,1-.92.86-2.23.14-3.23-3.87-5.35-8.29-10.29-13.17-14.73l-1.17,3.77c5-1.23,9.6-3.98,12.93-7.93.8-.94,1.05-2.24.14-3.23-.75-.82-2.43-1.09-3.23-.14h0Z"/>
  </g>
</svg>