<?xml version="1.0" encoding="UTF-8"?>
<svg id="_图层_2" xmlns="http://www.w3.org/2000/svg" version="1.1" viewBox="0 0 526.8 511.6">
  <!-- Generator: Adobe Illustrator 29.5.0, SVG Export Plug-In . SVG Version: 2.1.0 Build 137)  -->
  <defs>
    <style>
      .st0 {
        fill: #363636;
      }
    </style>
  </defs>
  <path class="st0" d="M380.8,121.3c-15.6-3.2-31.5-1.7-47.1.1-47.7,5.5-121.1,24.9-154,62-3.5,4-9.2,17-14.7,10.2-1.1-3.4,5.2-11.1,7.5-13.8,4.2-4.9,9.9-9.8,14.9-14-7.2-9.2-15.8-14.5-21.2-25.6-14.4-29.2-7-64.8,11.3-90.5.2-.6-.8-.7-1.3-.4-11.8,5-35.5,23.5-44.1,33.3-26.9,30.5-36.3,73.4-1.1,101.7.6.5.8,1,.7,1.7,4.3-1.2,7.3-7.9,11.4-8.8s6.2,1.3,5,5c-16.6,15.9-34.8,30.1-51.6,45.7-16.1,15-31,31.1-46.4,46.3-9.6,9.5-35,42.2-39.3,54.3-7.5,21,14.7,11.9,24.8,6.8,41.2-20.8,77.4-56.6,106.3-91.7,1.9-2.3,2.9-6,5.3-8.6,6-6.4,16.6-9.1,25.2-8.3,5.4.5,25.9,6.1,23.8,13.6s-11.8-2.3-15.8-3.6c-10.2-3.5-25.7-3-30.6,8.5-6.2,14.4-2.6,45.8,13.6,52.6,8.8,3.7,18.5-1.7,24-8.7,2.2-2.8,3.8-10.4,9-7.2s-6.5,15-7.1,17.3.9,10,1.2,11.1c6.9,26.6,76.3,27.2,97.3,26.1,40.9-2.1,112.7-28.4,139.5-60.3,22.8-27.2,7.2-57.1-25.4-63.7-3.2-.6-12.3.5-13.6-3.6-2.5-8.1,10-4,14.2-4.8-2.6-5-2-11.5-3-17.3s-4.6-17.3-2.9-19.7,6,0,7.3,2.7c2.4,5.1,6.2,28.3,4.3,33.1-.6,1.5-2.9.4-2.1,2.9,24.7,3.7,45.3,28.9,38.4,54.2-7.7,28.7-43.4,48.5-68.4,60.3-10.9,5.1-18.9,6.3-28,14.3s-13.5,12.3-16.3,12.6c-8.2.9-2.4-8.4,1.4-10.8-9,1.7-17.7,4.6-26.8,6-30.7,4.8-97.9,5.2-119-21.8-3.8-4.9-6.2-10.2-5.4-16.6-30,12.9-43.5-19.6-43.6-44.1-23.7,27-49.9,52.5-80.6,71.5-10.1,6.2-30.3,18.4-41.8,18.6-9.3.1-15.4-6.6-14.9-15.8s11-23.7,16.4-31.4c30-42.4,70.1-77.4,108.7-111.8-30-23.6-32.9-62.3-14.2-94.3,18.2-31.2,51.4-50.5,83.1-65.4-6.1-12.9,2.9-33.2,18.8-30.6,9.8,1.6,17.1,23.2,6.5,19.6-3.1-1-3.5-11.3-9.1-11.7-10.1-.6-12.2,17.6-8,18.9,17.7-5.5,35.6-10.9,54-13.3,36.4-4.8,81.8-1.7,112.2,20.7,23.7,17.4,39.9,52.2,26,80.6-1.3,2.6-6.2,8.4-6.5,10.7s5.4,11.8,6.1,15.5.9,7.3-3.8,6.6-6.2-11.3-7.8-14.8c-2.3-5.1-6.3-5.8-2.6-12.3ZM334.9,113.2c17-1.7,34.3-3.7,50.9,1.5,13-17.2,5.7-40.8-5.5-57.2-23.8-34.6-75.3-39.4-113.8-36.1l11.7,4.1c26.8,11.5,47.5,33.2,55.4,61.6,2.4,8.6,3.9,17.3,1.4,26.1ZM327.6,114c3.1-20.2-6.3-42.9-19.7-57.9-11.9-13.4-32.2-25.9-50.2-28.1-4.5-.6-8.9.2-13.2-.3s-3-1.6-4.6-1.7c-3-.3-15.1,3.4-18.8,4.5-10,2.9-19.7,6.9-29.2,11.3-18,25.6-31.1,51.6-22.6,83.8,4.1,15.5,13,25.2,24.9,35.3,29-17.9,60.5-32.5,94-39.9,13.1-2.9,26.4-4.2,39.5-6.9Z"/>
  <path class="st0" d="M389.8,340c15.8,16.5,22.8,41,29.7,62.5,6.7,20.9,11.5,41.6,16.4,62.8,3.5,15.2,7.5,30.4,10.6,45.7l-8.2-.5c-6.4-35.3-15.1-70.2-26-104.3-6.8-21.3-13.6-44.2-28.1-61.5-2.1-1.2-23.1,13.5-19.5,1.4,1-3.4,18.7-10.7,22.9-13.1,26.6-15.1,60.1-40.7,80.9-63.1,2.6-2.8,6.4-11.8,10.9-8.2s-3.8,11.3-5.9,14.5c12.4.2,24.3-4.5,33.3-13s17.2-24.3,4-33.8-9.2-2.2-5.9-7.7c12.9-4.9,21.7,12.2,20.7,23.4-2,21.6-32.9,41.5-53.4,39.8s-4.2-2.4-5.1-2c-1.6.7-9,8.5-11.3,10.4-17.1,14-35.8,29.2-54.5,40.9-3.7,2.3-7.4,4.7-11.6,5.9Z"/>
  <path class="st0" d="M490.7,187c6.1-5.7,28.7-15.2,31.3-2,1.2,5.7-12.1,27-16.9,28.7-3.3,1.1-5.8-1-5.3-4.4s13.3-15.6,14.1-21.1l-1.4-2c-3.1-.9-8.6,2.1-11.4,3.7-4.6,2.5-14.5,12.4-18.1,12.4-8.5,0,.2-18.7,1.4-23.7s5.3-22.8,2.8-28.2c-3-6.5-12.3,5.9-14.1,8.8-6.4,10.2-12.9,29.2-14.7,41.1-.6,3.7-.5,15-1.6,17.3s-7.6,2.6-6.8-1.8c-1.9-1.8-17.5,11-15.1-.3,1.1-5.2,10.6-7.7,15.1-6.1,0-14.6,4.8-30.4,10.6-43.8s16.5-30.2,28.3-24.4c13.8,6.8,3.3,34.2,1.6,45.7Z"/>
  <path class="st0" d="M357.2,282.7c.9.9,1.4,3,.7,4.2-2.2,5-21,4-26.1,3.6-16.2-1.3-32.8-9.7-48.2-14.4-2.5,29.3-53.9,28.5-51.3-2.2,1.4-16.8,14.9-22.1,29.7-17.1,28.8,9.7,46.8,25.8,80.6,26,3.4,0,12.6-2.1,14.6-.2ZM249.2,262.8c-4.8,1-9,6.3-9.6,11.1-1.4,11.6,12.1,17.1,21.9,15.6s18-9.9,13.9-16.4-13.9,10.2-19.7,6.2c-5-4.5,8.1-11.8,8.1-12.7-4.2-2.7-9.5-4.9-14.6-3.8Z"/>
  <path class="st0" d="M134.3,511h-8.1c2.8-34.9,6-70,12-104.6,4.3-25,8.8-58.3,29-75.4,3.4-2.9,19.5-14.7,21.9-6.6s-6.1,5.4-10.6,8c-21.6,12.7-26.1,41.5-30.4,64.1-7.2,37.7-10.9,76.1-13.8,114.5Z"/>
  <path class="st0" d="M412.2,152.9c.9,8.5-8.5,4.2-13.8,4.3-14,.4-30,9.2-42.7,14.5l14.4,2.2c5,2.2,19.9,4.6,13.8,12.1-5.2,1.1-9.1-2.4-14-3.7-7.2-2-22.6-2.8-29.5-.2-3.5,1.3-7.3,6.4-10.7.7-1-3.3.8-4.7,3.2-6.4,16.7-11.9,54.2-30.4,74.4-25.3,1.7.4,3.3,1.2,4.9,1.8Z"/>
  <path class="st0" d="M144.8,213.4c1.1,1.1,1.5,3.6.3,4.8-18.5,15.6-36.8,31.6-53.6,49-8.3,8.6-20.7,25.5-29.2,32-2,1.5-4.9,3.5-6.8.4-2-3.2,2.4-7.4,4.5-9.9,20-24,44.4-44.9,66.3-66.9,4.9-.9,14.1-13.8,18.6-9.3Z"/>
  <path class="st0" d="M235.8,166.6c12-1,26.3,1.1,37.8,4.9s8.4,2,8.1,5.9c-.6,6.8-15.1.2-19.6-.8-19.1-4.1-37.4-4.2-52.6,9.5-3.6,3.2-9.1,13.5-12.7,13.4l-2.3-1.2c-3.7-4.9,7.7-16.3,11.4-19.4,9.5-7.9,17.5-11.3,29.9-12.4Z"/>
  <path class="st0" d="M170.2,258.1c-6.7-.6-10.9,15.9-16.1,11.2-2.8-2.5-1.4-4.5,0-7.2,4.9-10.1,19.5-16.9,30.1-12s11.3,9.7,6,13c-5.3,3.2-6.2-6-11.3-6.7l-4,13.9c-8.7,2.3-6.2-6.9-4.5-12.2Z"/>
  <path class="st0" d="M149.4,96.3c2.4,4.7-.4,9.9-.8,14.7s.6,10.9,2,16.8,6.7,12.2.1,14.2c-6.5.6-10.1-20.6-10.3-25.7s1-15.8,2.9-18.8,3.7-1.7,6-1.4Z"/>
  <path class="st0" d="M251,201.6c9-1.6,13.5,19.1,10.2,24.7-7.5,12.6-26.1-21.8-10.2-24.7Z"/>
  <path class="st0" d="M322.6,229.6c-.9.7-1.3,3-3,3.8-6.4,3-7.9-7.2.9-11.8,8.9-4.6,22.4-.7,20.7,10.8s-2.2,6.5-5.7,5.9c-5.9-.9-.8-7.2-3.2-9.5s-7.5-1-9.7.7Z"/>
  <path class="st0" d="M183.1,210.2c-1.5-1.5-1.3-5.4.9-6.4,3.2-1.4,9.9-.5,14.9-2.1s8.3-6.1,11.9-4.3c5.3,4.5-2.9,9.4-7,11s-17.6,4.9-20.7,1.8Z"/>
  <path class="st0" d="M167.2,215.2c4.5-.3,11,.8,16.1.6s11.8-3.9,10.3,4-.8,1.9-2,2.5c-4.4,2-26.9,3-28.4-1.7s.8-5.2,4-5.4Z"/>
  <path class="st0" d="M132.1,141.2c6.3-2.1,8.6,8.1,1.7,7.1s-4.4-6.2-1.7-7.1Z"/>
  <path class="st0" d="M380.8,121.3c-15.6-3.2-31.5-1.7-47.1.1-47.7,5.5-121.1,24.9-154,62-3.5,4-9.2,17-14.7,10.2-1.1-3.4,5.2-11.1,7.5-13.8,4.2-4.9,9.9-9.8,14.9-14-7.2-9.2-15.8-14.5-21.2-25.6-14.4-29.2-7-64.8,11.3-90.5.2-.6-.8-.7-1.3-.4-11.8,5-35.5,23.5-44.1,33.3-26.9,30.5-36.3,73.4-1.1,101.7.6.5.8,1,.7,1.7,4.3-1.2,7.3-7.9,11.4-8.8s6.2,1.3,5,5c-16.6,15.9-34.8,30.1-51.6,45.7-16.1,15-31,31.1-46.4,46.3-9.6,9.5-35,42.2-39.3,54.3-7.5,21,14.7,11.9,24.8,6.8,41.2-20.8,77.4-56.6,106.3-91.7,1.9-2.3,2.9-6,5.3-8.6,6-6.4,16.6-9.1,25.2-8.3,5.4.5,25.9,6.1,23.8,13.6s-11.8-2.3-15.8-3.6c-10.2-3.5-25.7-3-30.6,8.5-6.2,14.4-2.6,45.8,13.6,52.6,8.8,3.7,18.5-1.7,24-8.7,2.2-2.8,3.8-10.4,9-7.2s-6.5,15-7.1,17.3.9,10,1.2,11.1c6.9,26.6,76.3,27.2,97.3,26.1,40.9-2.1,112.7-28.4,139.5-60.3,22.8-27.2,7.2-57.1-25.4-63.7-3.2-.6-12.3.5-13.6-3.6-2.5-8.1,10-4,14.2-4.8-2.6-5-2-11.5-3-17.3s-4.6-17.3-2.9-19.7,6,0,7.3,2.7c2.4,5.1,6.2,28.3,4.3,33.1-.6,1.5-2.9.4-2.1,2.9,24.7,3.7,45.3,28.9,38.4,54.2-7.7,28.7-43.4,48.5-68.4,60.3-10.9,5.1-18.9,6.3-28,14.3s-13.5,12.3-16.3,12.6c-8.2.9-2.4-8.4,1.4-10.8-9,1.7-17.7,4.6-26.8,6-30.7,4.8-97.9,5.2-119-21.8-3.8-4.9-6.2-10.2-5.4-16.6-30,12.9-43.5-19.6-43.6-44.1-23.7,27-49.9,52.5-80.6,71.5-10.1,6.2-30.3,18.4-41.8,18.6-9.3.1-15.4-6.6-14.9-15.8s11-23.7,16.4-31.4c30-42.4,70.1-77.4,108.7-111.8-30-23.6-32.9-62.3-14.2-94.3,18.2-31.2,51.4-50.5,83.1-65.4-6.1-12.9,2.9-33.2,18.8-30.6,9.8,1.6,17.1,23.2,6.5,19.6-3.1-1-3.5-11.3-9.1-11.7-10.1-.6-12.2,17.6-8,18.9,17.7-5.5,35.6-10.9,54-13.3,36.4-4.8,81.8-1.7,112.2,20.7,23.7,17.4,39.9,52.2,26,80.6-1.3,2.6-6.2,8.4-6.5,10.7s5.4,11.8,6.1,15.5.9,7.3-3.8,6.6-6.2-11.3-7.8-14.8c-2.3-5.1-6.3-5.8-2.6-12.3ZM334.9,113.2c17-1.7,34.3-3.7,50.9,1.5,13-17.2,5.7-40.8-5.5-57.2-23.8-34.6-75.3-39.4-113.8-36.1l11.7,4.1c26.8,11.5,47.5,33.2,55.4,61.6,2.4,8.6,3.9,17.3,1.4,26.1ZM327.6,114c3.1-20.2-6.3-42.9-19.7-57.9-11.9-13.4-32.2-25.9-50.2-28.1-4.5-.6-8.9.2-13.2-.3s-3-1.6-4.6-1.7c-3-.3-15.1,3.4-18.8,4.5-10,2.9-19.7,6.9-29.2,11.3-18,25.6-31.1,51.6-22.6,83.8,4.1,15.5,13,25.2,24.9,35.3,29-17.9,60.5-32.5,94-39.9,13.1-2.9,26.4-4.2,39.5-6.9Z"/>
  <path class="st0" d="M389.8,340c15.8,16.5,22.8,41,29.7,62.5,6.7,20.9,11.5,41.6,16.4,62.8,3.5,15.2,7.5,30.4,10.6,45.7l-8.2-.5c-6.4-35.3-15.1-70.2-26-104.3-6.8-21.3-13.6-44.2-28.1-61.5-2.1-1.2-23.1,13.5-19.5,1.4,1-3.4,18.7-10.7,22.9-13.1,26.6-15.1,60.1-40.7,80.9-63.1,2.6-2.8,6.4-11.8,10.9-8.2s-3.8,11.3-5.9,14.5c12.4.2,24.3-4.5,33.3-13s17.2-24.3,4-33.8-9.2-2.2-5.9-7.7c12.9-4.9,21.7,12.2,20.7,23.4-2,21.6-32.9,41.5-53.4,39.8s-4.2-2.4-5.1-2c-1.6.7-9,8.5-11.3,10.4-17.1,14-35.8,29.2-54.5,40.9-3.7,2.3-7.4,4.7-11.6,5.9Z"/>
  <path class="st0" d="M490.7,187c6.1-5.7,28.7-15.2,31.3-2,1.2,5.7-12.1,27-16.9,28.7-3.3,1.1-5.8-1-5.3-4.4s13.3-15.6,14.1-21.1l-1.4-2c-3.1-.9-8.6,2.1-11.4,3.7-4.6,2.5-14.5,12.4-18.1,12.4-8.5,0,.2-18.7,1.4-23.7s5.3-22.8,2.8-28.2c-3-6.5-12.3,5.9-14.1,8.8-6.4,10.2-12.9,29.2-14.7,41.1-.6,3.7-.5,15-1.6,17.3s-7.6,2.6-6.8-1.8c-1.9-1.8-17.5,11-15.1-.3,1.1-5.2,10.6-7.7,15.1-6.1,0-14.6,4.8-30.4,10.6-43.8s16.5-30.2,28.3-24.4c13.8,6.8,3.3,34.2,1.6,45.7Z"/>
  <path class="st0" d="M357.2,282.7c.9.9,1.4,3,.7,4.2-2.2,5-21,4-26.1,3.6-16.2-1.3-32.8-9.7-48.2-14.4-2.5,29.3-53.9,28.5-51.3-2.2,1.4-16.8,14.9-22.1,29.7-17.1,28.8,9.7,46.8,25.8,80.6,26,3.4,0,12.6-2.1,14.6-.2ZM249.2,262.8c-4.8,1-9,6.3-9.6,11.1-1.4,11.6,12.1,17.1,21.9,15.6s18-9.9,13.9-16.4-13.9,10.2-19.7,6.2c-5-4.5,8.1-11.8,8.1-12.7-4.2-2.7-9.5-4.9-14.6-3.8Z"/>
  <path class="st0" d="M134.3,511h-8.1c2.8-34.9,6-70,12-104.6,4.3-25,8.8-58.3,29-75.4,3.4-2.9,19.5-14.7,21.9-6.6s-6.1,5.4-10.6,8c-21.6,12.7-26.1,41.5-30.4,64.1-7.2,37.7-10.9,76.1-13.8,114.5Z"/>
  <path class="st0" d="M412.2,152.9c.9,8.5-8.5,4.2-13.8,4.3-14,.4-30,9.2-42.7,14.5l14.4,2.2c5,2.2,19.9,4.6,13.8,12.1-5.2,1.1-9.1-2.4-14-3.7-7.2-2-22.6-2.8-29.5-.2-3.5,1.3-7.3,6.4-10.7.7-1-3.3.8-4.7,3.2-6.4,16.7-11.9,54.2-30.4,74.4-25.3,1.7.4,3.3,1.2,4.9,1.8Z"/>
  <path class="st0" d="M144.8,213.4c1.1,1.1,1.5,3.6.3,4.8-18.5,15.6-36.8,31.6-53.6,49-8.3,8.6-20.7,25.5-29.2,32-2,1.5-4.9,3.5-6.8.4-2-3.2,2.4-7.4,4.5-9.9,20-24,44.4-44.9,66.3-66.9,4.9-.9,14.1-13.8,18.6-9.3Z"/>
  <path class="st0" d="M235.8,166.6c12-1,26.3,1.1,37.8,4.9s8.4,2,8.1,5.9c-.6,6.8-15.1.2-19.6-.8-19.1-4.1-37.4-4.2-52.6,9.5-3.6,3.2-9.1,13.5-12.7,13.4l-2.3-1.2c-3.7-4.9,7.7-16.3,11.4-19.4,9.5-7.9,17.5-11.3,29.9-12.4Z"/>
  <path class="st0" d="M170.2,258.1c-6.7-.6-10.9,15.9-16.1,11.2-2.8-2.5-1.4-4.5,0-7.2,4.9-10.1,19.5-16.9,30.1-12s11.3,9.7,6,13c-5.3,3.2-6.2-6-11.3-6.7l-4,13.9c-8.7,2.3-6.2-6.9-4.5-12.2Z"/>
  <path class="st0" d="M149.4,96.3c2.4,4.7-.4,9.9-.8,14.7s.6,10.9,2,16.8,6.7,12.2.1,14.2c-6.5.6-10.1-20.6-10.3-25.7s1-15.8,2.9-18.8,3.7-1.7,6-1.4Z"/>
  <path class="st0" d="M251,201.6c9-1.6,13.5,19.1,10.2,24.7-7.5,12.6-26.1-21.8-10.2-24.7Z"/>
  <path class="st0" d="M322.6,229.6c-.9.7-1.3,3-3,3.8-6.4,3-7.9-7.2.9-11.8,8.9-4.6,22.4-.7,20.7,10.8s-2.2,6.5-5.7,5.9c-5.9-.9-.8-7.2-3.2-9.5s-7.5-1-9.7.7Z"/>
  <path class="st0" d="M183.1,210.2c-1.5-1.5-1.3-5.4.9-6.4,3.2-1.4,9.9-.5,14.9-2.1s8.3-6.1,11.9-4.3c5.3,4.5-2.9,9.4-7,11s-17.6,4.9-20.7,1.8Z"/>
  <path class="st0" d="M167.2,215.2c4.5-.3,11,.8,16.1.6s11.8-3.9,10.3,4-.8,1.9-2,2.5c-4.4,2-26.9,3-28.4-1.7s.8-5.2,4-5.4Z"/>
  <path class="st0" d="M132.1,141.2c6.3-2.1,8.6,8.1,1.7,7.1s-4.4-6.2-1.7-7.1Z"/>
</svg>