<?xml version="1.0" encoding="UTF-8"?>
<svg id="_图层_2" xmlns="http://www.w3.org/2000/svg" version="1.1" viewBox="0 0 488.3 580.6">
  <!-- Generator: Adobe Illustrator 29.5.0, SVG Export Plug-In . SVG Version: 2.1.0 Build 137)  -->
  <defs>
    <style>
      .st0 {
        fill: #363636;
      }
    </style>
  </defs>
  <path class="st0" d="M38.8,217.5c44.2-14.4,88.5-24.5,134.8-29.7,53.6-6.1,95.1-5.4,148.7,1s84.6,15.6,125.9,28.7c-2.6-4.8-1.3-9.9-1.8-14.8-3.7-37.8-13.5-75.4-35.7-106.6s-23.5-30-39.6-38.6c-2.3.2-7.4,14.1-12.9,9.5-4.4-7.8,12.5-15.3,7.5-21.4s-7.9-6.7-8.9-7.4c-8.8-6.1-25.5-14.1-35.5-18.5s-10.3-5.4-12.5-2.8c-1.8,3.7-.6,9.5-5.4,10.9-7.8.7-3.2-16.5,3.4-19.2,6.1-2.5,13.7,2.1,19.3,4.6,10.7,4.7,42.2,20.6,47.4,30.1,1.4,2.6,1.2,5.4,2.1,6.9s6.8,4.6,8.5,6c42.9,35,63.5,84.7,69.5,139,7.1-4.3,12.9.5,15.8,7.2,1.3,3.1,1.7,9,2.7,10.8s6.1,3.9,8.1,6.3c8.6,10.6,10.4,53.6,2.6,64.8-1.6,2.3-8,7-8.3,7.5-3.1,5.5,0,14.7-7.9,24.9-2.1,2.7-12.5,14.5-14.7,6.6s9.2-11.5,11.2-15.5c1.5-2.9,2.8-8.9,3.1-12.2,1.7-19.2,1.7-68.3-3-86.1s-2.2-7.4-3.9-7.8l-4.8.8c-.6.6.4,10.7,0,13s-2.7,3.3-2.7,3.6c0,.6,7.1,6.5-2.2,7.6-15.6-5-31.4-9.9-47.2-14.1-105-27.6-212-27.7-317.1-.2-16.4,4.3-32.5,9.6-48.7,14.3-8.2-1.7-1.4-7.1-1.4-7.6s-2.3-1.6-2.7-3.6.5-12.4,0-13l-4.8-.8c-1.6.4-3.4,6-3.9,7.8-4.8,18.5-4.4,64.4-3,84.4s1.3,10.3,3.1,14,12.3,11.7,11.2,15.5c-2.7,9.6-16.7-8.9-18.6-12.7-2.6-5.4-3.2-18.6-4-19.9s-2.5-.7-3.4-1.5c-3.4-2.8-5.5-5.1-6.8-9.4C-.4,270.6,0,227.6,3.7,218.9c2.2-5,5.7-6.4,10.7-4.1,1.5-9.8,5.8-26.4,18.9-19.8,5-42.1,17.5-80.7,44.2-113.9,3.8-4.8,9.1-11.1,13.5-15.3,4.6-4.5,17-11.8,19.8-15.3s.8-3.8,1.6-5.6c4.8-10.4,37.1-26.7,48.3-31.9,4.9-2.3,11.9-6,17.2-5.2,8.9,1.4,13.5,20.6,5.5,19.8-4.9-1.3-3.6-7.2-5.4-10.9-2.5-2.9-13.7,3.5-16.7,4.9-9.3,4.5-21.9,10.9-30.4,16.5s-10.9,7.5-11.1,9.7c-.4,4.5,13.6,13.8,9.5,18.3s-11-8.5-13.5-8.7c-16.1,8.6-29.1,23.9-39.6,38.6-22.2,31.2-32,68.8-35.7,106.6-.5,4.9.8,10.1-1.8,14.8h.1ZM12.7,281.4c.4-15.7-.5-31.6,0-47.3s3.4-11.5-1.8-12.1c-.4,3.9-1.6,8.2-1.8,12.1-.5,8.2-1.1,38.5,1.4,44.6,2.5,6.1.9,2.5,2.2,2.7ZM476.1,280.5c.7-2.7,2.1-4.9,2.6-7.7,2.2-10.9.9-34.3-2.8-44.7s-1.2-4.1-2.5-4.3l.9,55.4,1.8,1.3h0Z"/>
  <path class="st0" d="M73.5,406.2c53.3,71.9,131.5,95.6,218.9,79.3,71.7-13.4,124-69,153.3-133.2,1.8-4,3.4-14.3,8.2-14s2.4,8.6,1.4,11.8c-5.3,16.2-17.9,33.4-26.8,47.9,7.1.4,11.8,7.6,11.8,14.4,0,13.7-14.5,54-20.7,67.7-1.6,3.5-7.1,16.2-10.6,16.5l-3.6-1.8c-1.9-3.9,4.2-11.5,6-15.6,6.2-14,20.5-52.7,20.7-66.8s-3.1-6.1-5.9-10.3c-15.8,22.1-34.6,42.5-56.5,58.9-56.1,41.9-145,46.9-209.6,23.1-41.3-15.2-73.9-46.9-99.2-81.9-2.9,4.3-6,4.5-5.9,10.3.2,14.1,14.5,52.7,20.7,66.8,2.2,5.1,11.6,15.8,2.5,17.4-3.5-.3-8.7-12.4-10.3-15.9-6.3-13.6-21-54.5-20.9-68.3,0-6.8,4.7-14.1,11.8-14.4-9.1-14.5-21-31.1-26.6-47.3s-4.3-11.1.4-12.2,6.9,9.4,8.9,13.8c8.1,17.8,20.4,38.2,32.1,53.9h-.1Z"/>
  <path class="st0" d="M238.8,63.8c26.5-1.6,83,3.8,103.9,20.9,22.2,18.2,25.4,50.9,7.6,73.3-29.4,37-78.7-5.9-118-2.6-35.5,2.9-70.1,42.9-101.9,7.2-27.7-31.1-4.9-72.7,31.3-83.1,3.7-1.1,16.5-3.9,17,1.7s-7.4,4.4-10.3,5c-13.2,2.9-31.2,13.3-37.4,25.7-8.7,17.3-4.2,38.8,11.2,50.7,21.2,16.5,41.8-.6,62.2-8.1,19.1-7,34.4-9.4,54.6-4.9,29.1,6.4,67.4,32.8,88.2-1.1,16-26.1,5.3-53.6-22.1-64.9-30.4-12.5-78.3-13.8-110.6-9.1s-19.7,5.1-25.5,5.2-7.4-5.7-1.4-7.8c13-4.7,37.3-7.2,51.4-8.1h-.2Z"/>
  <path class="st0" d="M429.9,276.1c5.7-1.6,7.1,9.3,8,13.3,2,9,3.7,17.9,1.6,26.9-10.2,44.3-67.4,80.6-108.7,90.4-66.6,15.7-122.1,17.6-188-2.7-52.6-16.2-107.5-53.1-103.9-115.1.2-2.9.6-11.1,3.4-12,7.7-2.3,4.8,6.9,4.8,10.2-.9,40.8,14.8,63.5,47.5,85.8,63.4,43.2,169.2,46.5,241.2,25.1,25.7-7.6,67-33.3,82.6-55.3,5.6-7.8,14.7-26.2,14.5-35.7s-5.4-20.2-4.9-29.4c.5-.7,1.2-1.4,2-1.7v.2h-.1Z"/>
  <path class="st0" d="M371.5,486.7c-4,2.7-8.7,4.7-12.8,7.2-54.1,32.9-108.4,43.5-170.6,26.9-17.6-4.7-34.1-12.2-49.7-21.5.3,4.7,3.5,10.8-4.3,9.7-3.3-1-4.9-11.7-5.3-15-2.1-1.2-4.7-1.6-6.7-2.7s-8.3-6-7.5-2.5,7.1,12.7,3.2,15.9c-5.7,4.6-9.2-9.4-10.4-13.2s-1.3-8.8-2.3-11.2-18.5-17.1-22-21.2c-9.3-10.8-15.9-23.7-24.4-35-3.1-6.9,1.7-9.4,6.8-4.1,7,7.1,13.8,21.8,20.8,30.5,31.6,39.5,107.3,71.4,157.6,71.1s124.8-31,156.9-71.1c4.1-5.1,20.5-32.1,23.7-33.1,4.8-1.4,5.7,2.1,4.3,6.1-11.9,18.5-23.1,34.8-39.2,50-1.7,1.6-6.7,4.5-7.6,5.9-3.1,4.8-3.5,23.8-6.8,27.5s-3.2,1.8-4.9,1.2c-4.8-1.7,1.8-17.5,1.2-21.5h0Z"/>
  <path class="st0" d="M371.5,235.5c-2.3-5.6-2.3-12.1,5.5-9.4,1.3,6.1,3.5,12.3,10.3,13.8,10.3,2.3,25.9,2,36.9,2.8,8.8.7,17.6,2.8,26.6,1.8,1.5-1.5-8.3-9.7-.3-11.5,10.7,3.6,13.3,17.7-.2,19.5-22.7-.5-45.4-3-68-5.3-2.1,9.5,7.1,11.9,12.2,18,2.3,2.8,9.1,14.1,1.8,14.4s-6-7.4-8.6-10.3c-5.2-5.8-12.5-6.6-13.5-16.2-.5-4.6.5-5.7,1.4-9.4s-2.3-.9-3.2-.5c-3.9,1.8-8.5-2.4-12.6-2.2,2.9,5,2.2,11.3,4.6,16.5,2.4,5.2,9.2,7.4,6.3,12.8-3.8,4.7-10.4-3.8-12-7.1-2.5-5.1-2.6-11.2-4.3-16.4s-3.5-7.8-4.2-8.4c-1.1-1-15.8-8.7-18.2-9.8-61.1-28.1-123-15-184.2,2.9-5.2,1.5-16.4,7.3-20.3,7.7-5.8.6-6.6-5.8-1.5-7.9,16.8-6.8,40.6-13.4,58.4-18.2,48-12.7,100.2-12.9,146.4,6.7,6.6,2.8,12.6,6.9,18.5,9.5s15.6,3.8,22.1,6.3h.1Z"/>
  <path class="st0" d="M55.6,272.5c8.3-2.9,4.9,8.5,4.8,12-1.2,49.5,34.5,75.8,76.1,93.4,31.1,13.2,58.6,16.4,92.1,18.7,45.5,3.1,91.9-12.2,133.7-28.6,5.3-.7,7.9,5.5,2.2,7.7-42.5,16.5-88.7,31.6-135.1,29.1-32.2-1.7-62.3-5.5-92.1-17.9-43.2-17.9-89.1-49.3-85.1-102.4.2-2.3,1.2-11.3,3.3-12h.1Z"/>
  <path class="st0" d="M84.5,503.9c3.6-1,9,6.8,12.1,9.3,32.9,26.3,92.1,53.6,133.9,58,49.7,5.3,121.4-27.3,159.9-58,10.2-8.8,11.6-9.3,12-9.2,1.6.3,2.6,1.9,2.6,3.9,0,5.3-14.9,15.3-19.5,18.5-40.8,28.4-104.4,58.3-155,53-43.7-4.6-95-28.9-130.7-54.1-2.9-2-26.3-18.3-15.3-21.3h0Z"/>
  <path class="st0" d="M84.1,281.2c-4.1-6.3,5.8-8,7.5-13.2s0-6.8.6-10.2,3.3-6.3,4.3-9.7l-8.9,1c-.6,1.3-.4,2.6-1.6,3.5-2.7,2.2-15.9,5.8-20.4,8.2-3.2,1.6-9.8,7.4-12.7,7.1-7.3-2.9-.4-8.4,3.5-10.8l11.3-6.3c-9.1-.8-36.6,7.3-40-4.7s3.7-11.9,8.8-13.1c8,1.8-1.8,10-.3,11.5,9,1,17.8-1.1,26.6-1.8,11-.8,26.6-.5,36.9-2.8,7.1-1.6,8.9-8.1,10.6-14.2l5.3.3c3.9,2.5-1.2,11.4-2.9,14.3-2.7,4.7-6.6,9.3-9.8,13.7s-1.4,12-4.7,18.8-8.8,10.9-14,8.5h0Z"/>
  <path class="st0" d="M159.1,108c-11.2,7.8-15.2,17.3-6.2,29.3,4-4.7,6.9-9.6,12.7-12.5s15-6.5,15.7-.5-9.4,5.7-13.9,8.7-9.6,8.8-10.1,9.8c-1.9,3.6,11,11.6,14.3,12.4,13-4.8,23.3-20,38.2-17.6,4.5,7.7-6.2,7.5-11.5,10.1-7.2,3.6-21.7,17.9-29.8,15.4s-27.6-24.3-28.8-36.2,0-9.8.1-10.4c1.9-7.7,27.3-24.2,35.5-23.7,4.6.3,5.3,5.1.8,7.6s-10.8,3.3-17.1,7.7h.1Z"/>
  <path class="st0" d="M124.5,303l5.9.8c5.5,7.8-15.7,9.4-19.9,9.1s-19.3-6-13.8-11.5,8.8,2.5,12.1,3.2,11.6,1.1,10.6-1.6c-4.3-4,4.8-12.3,8.1-15.4,20.8-19.3,55.8-18.2,79.2-4.3,3,1.8,16.8,10,10.5,13.8-4.1,2.5-13.8-6.8-18-9-14.8-7.7-35.1-8.9-50.9-4s-16.8,10.9-23.9,18.8h.1Z"/>
  <path class="st0" d="M388.4,301.4c5.3,5.3-8.7,10.9-12.9,11.4-5.7.7-24.1-.1-19.3-9.4l4.6-.8c-6.3-7.5-12.2-14.7-21.7-18-16.1-5.5-38-4.3-53.2,3.5-4.2,2.2-13.9,11.6-18,9-6.2-3.8,7.6-12.1,10.5-13.8,22-13,59.8-15.5,79.1,3.5,1,1,8.8,10.1,9.1,10.7,1.5,3.1-.2,3.6-.9,5.4s8.9,1.9,10.6,1.6c3.4-.7,8.9-6.4,12.1-3.2h0Z"/>
  <path class="st0" d="M343.4,113.3c3.4,3.4-3.4,17.5-5.6,21.4-6.5,11.5-22.6,26.5-36.5,17.5-14.4-9.4-6.1-29.3.4-40.9,1.9-3.4,7.6-14.4,12.2-11.3s-5.6,14.9-7.4,18.8c-3.5,7.4-10,23.4.8,27.4,9.4,3.5,20.9-9.7,24.7-17.2,1.9-3.7,5.4-21.6,11.3-15.7h.1Z"/>
  <path class="st0" d="M276.6,87.2c5.1-.9,19,0,18.3,7.4s-7.7,1-10.4.5c-4.1-.7-7.8,0-11.2,2.3-10.8,7.5,4.2,15.4,8.8,21.7,9.8,13.4,3,25.1-13.7,22.7-3.5-.5-23.8-8.2-16.8-13,7-4.8,22.9,10.7,26.7,3.2,3.5-7-13.9-17.1-16-22.8-3.8-10,4.5-20.4,14.4-22h0Z"/>
  <path class="st0" d="M241.5.8c11.6-.4,26.8.3,38.1,2.9,11.3,2.6,16.9,3.7,15.8,8.6-1.1,4.9-8.4,1.3-12.2.4-19-4.8-41.4-4.7-60.7-2.1-5.6.8-25.8,6.2-28.9,5.1-3.9-1.3-1-6.2,2.8-7.7,11.2-4.4,32.9-6.8,45.1-7.2Z"/>
  <path class="st0" d="M325.3,432c11.2-1.9,14.8,7,3.8,11.9-8.8,4-42.8,13.4-52,13.9-8.4.5-12-8.3-3.6-11.7,8.5-3.5,24.3-5.7,34.1-8.3,5.3-1.4,13.1-5.1,17.6-5.8h.1Z"/>
  <path class="st0" d="M229.1,90.6c1,4.1,2.6,8.2,3.4,12.4,1.5,7.9,3.7,21.8,3.9,29.5s-5.8,9.3-7.9,2.4c-2.6-8.5-2.2-22.4-4.1-31.9-.8-3.9-2.8-7.4-2.5-11.5-.5-.5-11.2.8-13,1-4.3.6-14.8,5.5-14.9-1.5s10.9-6.1,14.9-6.6c8.5-1.2,29.6-2.9,37.1.6,3.8,1.7,2.6,7.3-2,7.5s-13.8-2.8-14.9-1.9Z"/>
  <path class="st0" d="M159.4,431.9c4.8-1,16.9,4.3,22.6,5.9,9.7,2.6,25.6,4.8,34.1,8.3s4.8,12.2-3.6,11.7c-8.5-.5-43.3-9.9-51.3-13.7-6.1-2.9-9.6-10.5-1.8-12.2h0Z"/>
  <path class="st0" d="M414.1,278c.7-.7,2.6-1.3,3.6-1,7.8,6.1,7.6,20,6.9,29.1-1,13.7-5.1,25.2-14,35.6-2.2,2.6-12.4,13.8-14.4,15.3s-7.5,3.2-8.4-.6,12.3-14.5,15.2-17.8c11.4-13.3,15.6-29.1,13.4-46.7s-5.1-11.1-2.4-13.8h0Z"/>
  <path class="st0" d="M306.9,307c12.1-3.7,13.9,17.1,13.2,24.4-1.8,18-18.3,20.5-19.9.9-.8-9.3-.1-22.5,6.7-25.3h0Z"/>
  <path class="st0" d="M172,306.8c7.2-2.1,10.3,7.2,11.2,9.1,3,7.1,3.5,30.4-7.8,30.1-13.4-.3-13.6-36.3-3.4-39.3h0Z"/>
  <path class="st0" d="M319.3,44.5c8.6,1.9,15.6,7.3,23,11.7,1.2,0,19.6-18.4,15.8-3.8-1.3,5-6.7,5.6-9.5,8.4s-.5,4.6-4.7,4.6-16.8-9.8-22.4-11.9c-2.9-1.1-9.2-1.6-10.1-3.4s-.9-19.7-.4-22,2.4-3.5,4.9-3.2c5.5.9,2.3,15.5,3.3,19.8v-.2h.1Z"/>
  <path class="st0" d="M167.6,45.4c1.1-4.4-2.3-19.8,3.3-20.6,2.5-.3,4.4.6,4.9,3.2s.5,18,0,20.7c-.8,4.4-11.9,6-15.8,7.6s-10.7,6.4-12.6,6.4c-3.2-1.9-6.9-1.4-10-2.7s-12.1-8.2-7.5-12.2c4.6-4,11.5,6.1,14.8,8.5,6.2-5.6,15.1-8.1,22.9-10.9h0Z"/>
  <path class="st0" d="M292.9,255.5c3.3-.4,6.6-.4,6.6,3.8s-7.9,4.6-11.8,6.3-8.2,5-11.3,7.6c-3.2,2.7-14.3,16-15.8,16.7s-1.4.6-2.2.5c-10.2-.8,6.8-17.9,9.4-20.3,5.5-5.1,17.7-13.7,25.1-14.6h0Z"/>
  <path class="st0" d="M183.7,260.9c8-2.3,29.8,9.2,35.9,15.1,2.6,2.5,12.3,13.4,4.4,14.5s-9-7.9-12.5-10.9-8.1-5.4-12.6-7.2-13-2.8-16.1-4.6-2.3-6,1-6.9h0Z"/>
  <path class="st0" d="M289.7,352.7c2.4-2.3,5.9-.3,8.4-.2,10.4.1,18.6-.3,28.4-4.1,3.5-1.4,6.9-5.5,10.8-3.6,6.2,3.1-4.5,9.5-7.2,10.8-8.4,3.9-29.7,7.2-38.1,3.8s-4.7-4.4-2.3-6.7h0Z"/>
  <path class="st0" d="M195.5,352.7c2.4,2.4.5,5.6-2.3,6.7-8.6,3.5-29.4.1-37.8-4.1-2.8-1.4-12.6-7.6-6.6-10.5s7.2,2.4,10.6,3.8c8.7,3.8,18.4,4,27.7,3.8s6-2.1,8.4.2h0Z"/>
  <path class="st0" d="M91.8,228.5c6.4-.5,9.4,3.4,3.5,6.2-6.2,3-34.8,5.3-42.6,5.3s-8.6-7.2-3.6-8.2c9.2-1.1,18.7-.2,27.9-.9s10.1-2.1,14.7-2.4h0Z"/>
  <path class="st0" d="M236.1,368.5c-.7.7-2.7,1.2-3.7,1-6.2-3.6-2-12.8,2.1-16.5,7.5-6.6,18.7-5.8,25.1,1.9s6.6,10.3.5,12.1l-1.6-.2c-3.3-.9-6.5-15.3-17.2-8.7s-3.3,8.4-5.3,10.4h.1Z"/>
  <path class="st0" d="M434.6,231.1c.5,2.2.1,5.4-2.4,6.1s-21.9-5.1-27.1-5.9c-4.7-.8-10,.9-14.2-2-1.9-6.7,3-6.7,8.1-6.3,11.1.8,24.4,6.3,35.5,8.2h.1Z"/>
  <path class="st0" d="M109.7,98.8c3-1,5.6.8,5.6,3.9s-3.8,12.9-4.3,18.1,2,16.9-4,16.3c-5.4-1.5-4.5-10.8-4.2-15.5s3.5-21.7,6.9-22.8Z"/>
  <path class="st0" d="M75.9,263.5c1-.6,4.7-.3,5.8.7,2.4,3.9,1.5,8.4-.3,12.3s-4,4.8-4.5,6.3c-1.1,3.5.2,10.1-4,12.2-7.2,3.5-5-10.1-4.1-14s4.7-5.1,5.7-8.7.3-8.2,1.4-8.9h0Z"/>
  <path class="st0" d="M403.7,255.5c3.2-.3,19.6,9,20.2,11.9,2.5,12.8-17.8-4.1-22.2-4.9l-1.2-4.8c.4-1.1,2.1-2.1,3.2-2.2h0Z"/>
  <path class="st0" d="M355.9,505.7c6.9-2,3.9,13-1.1,12.5-5.4-1-2.4-11.5,1.1-12.5Z"/>
  <path class="st0" d="M139.6,40.3c4.4-1.3,10.8,4.7,7.5,8.4s-9.7-1.5-9.9-5.4c0-1.3,1.2-2.6,2.4-3Z"/>
  <path class="st0" d="M344.2,38.5c5.6-.8,5.2,9.7-1,9.6-5.5-.9-3.6-8.9,1-9.6Z"/>
  <path class="st0" d="M328.4,38.2c-1.2-2.4-1.4-4.9-.2-7.4,9.3-6,10.3,10,.2,7.4Z"/>
  <path class="st0" d="M377.6,360.8c1.1-.3,2.1-.3,3.2,0,4.9,1.5,2,9.1-4.3,8s-2.2-7,1.1-8h0Z"/>
  <path class="st0" d="M89.9,120.4c6.6-2,6.3,7.7,3.3,8.7-6.2,2.2-7.9-7.4-3.3-8.7Z"/>
  <path class="st0" d="M155.4,39.9c-2.3-2.4-1.4-9.7,2.8-8.7s1.9,13.5-2.8,8.7Z"/>
</svg>