<?xml version="1.0" encoding="UTF-8"?>
<svg id="_图层_2" xmlns="http://www.w3.org/2000/svg" version="1.1" viewBox="0 0 421.1 417.5">
  <!-- Generator: Adobe Illustrator 29.5.0, SVG Export Plug-In . SVG Version: 2.1.0 Build 137)  -->
  <defs>
    <style>
      .st0 {
        fill: #363636;
      }
    </style>
  </defs>
  <path class="st0" d="M347.5,228.4c-.8-7.3-7.3-6.1-8.2.9-1.5,12.9-.3,33.3,0,47,.4,24.3,8.2,52.7-23.4,60.4-28.9,7.1-57.2,3.9-86.3,4-31.1,0-90.1,6-116.1-11.3-24.4-16.2-13-50.3-11.8-73.9.3-6.2-1.1-12.2-7.5-6.5-3.3,25.8-11.8,64.3,10.6,83.7,18.1,15.6,46.2,15.1,68.7,17.1l21.2-.9,1.8,10.6c-13.1,2-48.1,16.3-53.1,28.6-4.2,10.4,5.7,11.8,13.3,13.6,14.7,3.4,30.2,4.3,44.8,8.5,13.4,3.9,15.6,9.4,30.7,5.3,19-5.1,38.5-14.9,57.7-20,5.2-1.4,18.7-2.7,21.5-5.6,5.4-5.7.7-11.9-4.1-15.8-7.1-5.8-19-9.2-28-9.9h-21.2c-2.1-4.9.5-9.3,0-14.4,19.1.2,39.9-.8,58.6-5.1,4.1-1,9.7-2.7,13.4-4.7,3.3-1.7,11.7-8.3,13.1-11.3,10.2-21.5,3.6-51.9,3.4-75.1,0-7.9,1.8-16.9.9-25.2ZM150.4,392.1c-1.6-2.1,9.6-9.1,11.1-10.1,3.2-2,26.9-14.3,28.6-12.5,0,1.2,0,2.4.5,3.5,5,10.7,11.6,20.6,17.6,30.7l-57.8-11.7ZM219.6,404.7c-1.6.3-8.5-11.4-9.8-13.6-1.8-2.8-10.5-17.4-10.5-19.4l.4-1.3c7.9-4.6,4.5-14.3,3.2-21.6l47,.9v14.9c-13.9,9.5-19.2,27.7-30.3,40.1ZM287.1,373.4c5.7,1.2,17,5.3,17.8,11.5-6.2-.4-12.2,1.5-18.1,3.2-19.9,5.5-39.6,14.8-59.7,20.3l20.4-31.5c1.4-1.7,3.2-3.9,5.5-4.4,6-1.4,27.5-.4,33.9.9Z"/>
  <path class="st0" d="M351.6,187.3c-7.5-1-17.4.6-24.9,1.8-.7-10.1-3.6-31.1-16-33.2-8.6-1.4-27.5-.7-36.9-.3-7.4.3-17.9.8-24.5,3.5-14.8,6-11.4,19.6-13.9,32.6-7.2-4.9-15.4-4.9-22.6,0-1-13.2-2.4-28.3-16.3-33.8-12.5-4.9-52.3-1.1-66,2.7-14.5,4-15.7,15.1-15.4,28.4-8-.5-18.4,3.5-25.8,3.6-9.9,0-13.2-3.2-23.3,2.9-27.7,16.6-22.8,68.2,12.2,64.5,2.8-.3,10.5-1.9,11.4-4.9,2.6-8.7-10.5-2.9-14.8-2.9-7.2,0-12.4-3.4-15.7-9.7-13.7-26.3,18.5-60.6,37-33.3,1.8,2.7,3.1,8.8,6.6,8.4,3.9-.7,3.8-3.9,3.1-7.2-1-4.5-5.6-7.3-7-11.5l16.3-1.8c.2,3.8,0,20.5,2.7,22.1,8,4.9,4.6-11.9,4.5-14.4-.2-6.8-1.1-27.2,2.3-32,.9-1.2,3.4-2.8,4.7-3.4,10.2-4.5,47.9-7,59.2-5.4,5,.7,9.4,2.6,11.9,7.1,4.8,8.8,6.3,36.3,5.1,46.4-1.6,13.9-28,7.1-37.5,6.7-13.4-.6-33.2-2.3-46.1-.8-5.4.7-3.7,7.3-1.8,7.9,11.4.6,22.9-.4,34.3,0,13.3.5,38.6,5.6,49.9.2,2.4-1.2,4.9-4.7,5.7-5.1,1.4-.7,3.1-.3,4.5-1,1.6-.7,3.6-4,6.3-5.4,8.8-4.8,14.9-1.5,12.5,8.9-2.5,10.6-22,6.5-24.5,11.7-2.4,4.9,3.5,5.4,7,5.2,9.4-.6,23.5-4.4,24.9-15.3,13.2,4.2,25.8,4,39.3,4.5,6.9.3,13.4,1.4,20.7.9,9.9-.6,18.7-1.3,23.6-10.8,1.7-3.3,2.8-10.2,3.1-14,.4-4.8-.3-10,0-14.9,5.3-1.4,24.3.5,27.2-3.1,2.4-2.9,0-5.6-3.2-6ZM233.6,210.8c-7.1-2.6-13.9.8-19.9,4.5v-16.2c3.2.9,5.3-2.2,7.7-2.7,5.6-1.1,8.7,1.5,13.1,4.1l-1,10.3ZM319.4,218.4c-1.3,8.5-10.7,9-17.6,9.5-13.1.9-31-.1-44.1-1.9-2.4-.3-14.9-2.7-15.7-3.7l-3.8-8.7c.8-.1,1.7-.4,2.2-1,3.3-4.6,3.1-31.4,5.2-39,1.3-4.8,7.5-8.1,12.1-8.7,12.3-1.6,38.5-2.4,50.6-1,5.9.7,7.5,5.8,9,10.9,2.7,9.1,3.7,34.3,2.2,43.7Z"/>
  <path class="st0" d="M38.3,140c-4.2-12.2,2-26.2,10.3-35.3,4-4.4,12.8-11.4,17.8-15.1,10.4-7.8,31.8-16,31.6-30.7-.2-15.1-12.7-19.8,4.2-32.8,15.1-11.6,32.5-12.4,50-6,3.8,1.4,11.9,7.5,15,5,6.8-5.5-11.9-12.4-15.5-13.6-20.7-6.6-47.6-3-61.8,14.8-12,15,5.3,28.1-1.8,38.8-24.7,17.2-74,45.5-55.3,82.2,3,5.9,12.7,15.1,11.9,21.4-.6,5-9.1,9.4-12.6,12.7-10.7,10-22.7,23-21.7,38.8.7,10.7,9.5,20.5,9.1,30.7-.5,11.9-16.4,23.1-18.1,35.2-1.8,13.2,4.4,25.9,4.5,38.7,0,8-2.8,18.2-1.9,26.2.5,4.4,2.2,5.8,6.6,4.1l1.1-1.8c.5-12.4,2.3-25,1.3-37.5-.6-7.8-4.8-17.6-4.3-25,1-14,17.7-24.1,18.8-38.2,1.4-18-14.7-25.3-6.5-45.2,6.3-15.2,20-19.7,28.7-30.9,10.5-13.7-7.2-24.4-11.4-36.5Z"/>
  <path class="st0" d="M413.9,273.9c-8.4-16.3-10.6-13-10.4-33.8.1-18.4.5-27.5-8.8-44.3-3.4-6.2-13.1-16.9-13.7-23.4-.6-6.6,5.8-18.6,7.8-25.4,3.7-12.7,5.5-25.4-2.1-37.1-2-3.1-6.5-6.1-7.4-7.9-1.5-2.9-1.6-9-2.6-12.7-1.9-6.7-6.4-15.3-11.6-20-4.4-4-14.6-7.3-17.1-10.9-2.5-3.4-3.5-15.7-5.7-21.3-10.7-26.6-44.5-32.6-69.3-23.8-5.9,2.1-21.7,9.9-13.3,17,3.6,1,5.9-3.8,8.5-5.7,17.3-12.3,51.5-9.4,63.6,9.5,7.1,11.1,4.1,24.8,13.6,32.4,6,4.8,13,5.6,18,12.7,6.1,8.5,4.8,15.7,8,23.6,2.5,6.3,9.4,10,11.8,18,6.1,20.7-15.3,41-8.3,58.8,4,10.4,14.2,19.3,18.2,31.4,5.8,17.3.5,28.4,2.7,44.2,1.4,10.5,10.1,18.2,13.8,27.8,5.3,13.9,4.2,26.8-7.7,36.4-3.7,2.9-22,10.7-16.9,15.6,3.1,3,9.3-1.3,12.4-3,23.7-13.4,29.5-33.5,16.8-58.1Z"/>
  <path class="st0" d="M188.4,273c8.7,2.5,17.2,6.5,26,8.8,5.7,1.4,17.9,4.3,23.4,4.7,5.7.4,7.5-5.8.8-8.1-17.5-6.2-35.6-4.8-52.8-16.7-4-2.8-8.3-8.1-12.4-10.1-19-9.1-32.5,19.1-21.5,34.1,10.2,13.8,34.9,2.8,36.6-12.6ZM167.1,257.7c1.8.2,9,4.6,7.8,6.3-3.1.8-9.9,3.6-8.9,7.5,4.1,6.8,9-.7,14.3-1.2,1.1,7.2-7.7,13.1-14,13.5-16.4,1.2-11-27.4.8-26.2Z"/>
  <path class="st0" d="M378.4,351.7c-1.2-5.4,4.5-17,4.4-24.1,0-3.3-1.9-11.3-4-13.7-3-3.6-14.1-8.5-14.9-.9.5,2.5,8.6,2.4,10.3,10.4,2.5,11.8-8,22.7-2.2,33.7,4.2,7.9,12.1,9.8,11.6,21.8-.1,3.8-4.2,7.9-1.4,11.3,3.4,4,7-1,7.9-4.6,1.8-7.1.8-15.7-2.8-22.1-2-3.5-8.4-9-9-11.8Z"/>
  <path class="st0" d="M244,144c23.2-1.2,46.3-4.6,69.5-2.6,5.2.4,14.8,5.2,12.7-4.5-14.7-5.4-34.4-4.1-50.4-3.3-7.9.4-15.9,1.7-23.8,2.4-3.3.3-11.1-1.2-12.7,1.8-1.7,3.4,1.5,5.7,4.6,6.3Z"/>
  <path class="st0" d="M110.6,149.9c.3,2,2.1,2.8,3.9,2.9,8,.3,22.1-3.3,30.9-4.2,15.3-1.5,30.7-2.2,45.9-3.8,8.8-9.7-11.2-7.1-16.8-6.8-16.9.9-41.6,2.9-57.9,6.3-3.5.7-6.6,1.1-6.2,5.6Z"/>
  <path class="st0" d="M88.5,237l3.1-.5c5.6-2.8-.7-22.5-12.2-23.1-4.4-.2-16.6,3.3-13.6,9.1,2.5,5,9.2-1.9,13.1-.9-1.7,2.1-12.9,12.3-6.6,14.3,6,1.9,7.7-6.8,13-8,0,2.7-.6,8.5,3.2,9.1Z"/>
  <path class="st0" d="M77,313.8c-2.7.8-3.5,8.4-3.3,11,.9,10.1,12.6,12.9,10.8,23.5-.5,3-5.1,6.5-1.4,9.6,4.7,3.9,9.2-5.5,9.6-9.5,1.5-14.3-10.9-17.3-10.9-25.3,0-3.9,3.9-11.9-4.8-9.3Z"/>
  <path class="st0" d="M192.5,25.9c3,.2,9.6-6.9,12.8-8.9,4.1-2.6,20.5-8.5,20.9-12.5.4-3.8-3.4-4.3-6.4-3.7-5.4,1.1-23.1,12-27.3,16.1-2.4,2.4-4.7,3.9-2.4,7.7l2.4,1.3Z"/>
  <path class="st0" d="M25.1,344.5c-3-.3-11.9,10.3-14.8,12.9-3.9,3.5-12.6,6-8.8,11.9,3.1,3.1,9.9-2.6,12.4-4.7,1.7-1.4,13.5-13,14-14,1.4-3,.3-5.4-2.8-6.1Z"/>
  <path class="st0" d="M195.6,62.4c-7.4,3.6,6,9,8.1,11.7,2.6,3.3,2.6,8.9,3.8,10.1.7.7,2.6,1.2,3.7,1,10.8-6.5-7.7-26.8-15.6-22.9Z"/>
  <path class="st0" d="M220,27.3c3.2,4.3,15.2-2.6,15.5-5.5,0-3.5-2.5-4.5-5.7-3.8-3.2.6-12.8,5.3-9.8,9.4Z"/>
  <path class="st0" d="M342.7,213.6c-7.5,2.5,4.7,13.2,9.4,7.6,3.6-4.3-5.7-8.9-9.4-7.6Z"/>
  <path class="st0" d="M20.9,382.3c-7.2,1.6-6.7,11.7.2,9.3,5.8-2.1,7.1-10.9-.2-9.3Z"/>
  <path class="st0" d="M346.8,207c3-.8,3-4.7,1.3-6.8-1.1-1.4-4.5-2.6-6.3-1.9-6.1,2.8.5,10,5,8.7Z"/>
  <path class="st0" d="M166.8,202.2c.2-3.8-1.6-6.9-5.8-5.7-1.1.3-1.9,1.2-2.3,2.3-1.6,5.8,7.8,10,8.1,3.4Z"/>
  <path class="st0" d="M192.5,84.5c-2.4-4.7-10.9,0-6.6,4.3,2.9,2.9,8.8.1,6.6-4.3Z"/>
  <path class="st0" d="M282.1,195.6c-4.3,1.4-2.1,11.8,4.2,9.7,4.1-1.4,1.8-11.7-4.2-9.7Z"/>
</svg>