<?xml version="1.0" encoding="UTF-8"?>
<svg id="_图层_2" xmlns="http://www.w3.org/2000/svg" version="1.1" viewBox="0 0 317.2 290.3">
  <!-- Generator: Adobe Illustrator 29.5.0, SVG Export Plug-In . SVG Version: 2.1.0 Build 137)  -->
  <defs>
    <style>
      .st0 {
        fill: #363636;
      }
    </style>
  </defs>
  <path class="st0" d="M28.6,167.2c-13.2,13.5-10.8,41.7,5.1,52.1,10.9,7.1,24.1,4.4,35.3-.5s10.6-8.4,11.4-1.3-8.1,5.2-9.1,9.9,2.7,21.8,4.1,26.5c3.8,13.1,8.6,19,22,22.9,25.8,7.4,55.9,2.3,82.1.5,43.9-3,99,3.9,103.6-54.3.9-11.2.2-34.8-1.8-45.7s-4.3-3.8-4.5-6.3c.4-9.5,16.5,1.7,17.1,5.5s-4.2,4.1-4.6,5.5c1.9,20,3.4,40.5,0,60.4l-2.7-.9c-5.5,20.3-19.4,32.3-39.5,37.3-22.5,5.6-45.7,5.2-68.7,6.7-26.7,1.8-83.5,10.6-102.3-12.6-9.9-12.1-11-28.2-13-43.1-15.5,4-31.9,2-42-11.4-21.1-27.7-3.1-76.4,34.6-63.4,5.1,1.8,8.5,4.9,3.1,9.1-5.3-.7-10.3-3.6-15.8-3.4-5.1.2-11.1,2.9-14.6,6.5Z"/>
  <path class="st0" d="M201.5,183c-.6,8.6-9.8,17.5-17.9,19.3s-17,2.6-13.3-5.7c6.3-2.9,11.8-.7,17.7-5.2,13.6-10.5-2.7-25-13.4-14.3s-3.1,8.7-8.3,8.4c-6.1-3.9.4-12.5,4.6-15.7s13.1-6.6,19-3c-.5-4-4.4-25.3,3.9-23.2s2.2,7.5,2.3,10.2c.6,9,3.5,19.3,12.4,23.6,13.4,6.6,40.7-2.4,44.5-17.9,1-3.9,1.3-13-1.6-16-6-6.3-32.7-4.8-41.1-3.3s-16.1,6.7-16.6,0c-.5-5.4,13.5-7.7,17.4-8.3,10.8-1.5,38.2-2.7,46.1,5.7s3.8,7.5,4.2,10.1c4.6,31.4-35.4,48.2-59.9,35.2Z"/>
  <path class="st0" d="M144.9,219.8c2.6,18.8-27.7,40.9-42.2,24.7-8.4-9.3-.9-27.6,8.2-34s24.3-.2,35.7,1.9,22.3,4.2,32.9,4.8c8.1.4,20.7-1.4,27.9,0s2.8,1.9,2.9,3.9c-.2,1.1-.7,2.1-1.6,2.8-2.8,2.1-24.2,1.7-29.2,1.4-11.3-.6-23.5-3-34.5-5.4ZM136.9,223.4c-6.7,1.2-12.8,15.4-19.1,13.3l-2-2.5c-.9-4.1,11.5-13.9,14.8-16.7-22.5-14.9-34.7,34.9-7.7,22.8,5.7-2.6,14-10.3,14-16.9Z"/>
  <path class="st0" d="M124.1,134c8.7-.7,32.8-2.1,35.7,8.7s-3,20.1-5.2,25.4c-13.1,31.8-55,33.3-69.7,1.9s-6.5-16.4-6.4-18.6c.7-11.8,36.5-16.6,45.6-17.3ZM124.1,142c-7.9.6-18.5,2.2-26,4.5-13.2,3.9-11.9,6-6.9,18,4.3,10.2,8.7,15.9,19.8,18.8,26.1,6.8,40.1-16,40.7-38.9-2.1-3.6-23-2.8-27.6-2.4Z"/>
  <path class="st0" d="M72.2,41.3c3.6,8.7-4.1,6.2-9,7.6s-14.3,5.6-18.3,10.4-5.4,14.4-10.9,14.3c-6.1,0-1.6-8.5,0-11.8,6.2-12.7,20.6-21,34.6-21.5l-10.8-4.9c-2.6-6.1.3-6.3,5.5-5.5,13.2,2,23.2,11.1,38.3,5.2s7.6-5.9,10.6-5.6c2,.3,3.4,2,3.2,4-9.3,14.5-28.8,12.6-43.1,7.7Z"/>
  <path class="st0" d="M166.3,37.5c-.9.9-3.1,1.4-4.3.7-5.6-2.6-1-14.7,1-18.8,4.3-8.6,15.6-17.8,25.5-18.5,14.4-1,17.7,13.4,35.5,9.4,3.6-.8,17-7.6,14.2,1.6s-22.8,7.7-28.4,6.3-11.7-8.1-17-9c-10.8-1.9-22.2,8.8-24.8,18.8-.7,2.6-.3,8-1.7,9.5Z"/>
  <path class="st0" d="M272.2,58.5c9.2-1.3,15.3,8,18.3,15.4,4.8,11.8,3.3,15.1,14.2,24.4,3.2,2.7,13.4,6.6,9,11.7-2.7,2.3-5.2.2-7.8-1.2-7.9-4.3-15.8-12.8-19.3-21.1s-4.7-22.5-13.7-21.3-6.1,6.1-10,2.7c-3.9-5,5-10,9.2-10.6Z"/>
  <path class="st0" d="M39.2,137.1c7,1.2,8.3,17.6-.1,13.2s-.8-6.2-5.8-6.5c-2.6,3.2-16,12.6-18.8,6.9s5.2-6.3,9-9,10.8-11.6,11.3-16.6-4-10,1.1-12.4,6.5,5.8,6.8,8.9c.6,6.4-2.2,9.7-3.4,15.5Z"/>
  <path class="st0" d="M43.5,179.5c-4.5-.7-11.6,3.8-13.4-2.2,3.7-9.9,21.2-5.3,27.4.4s3,13.9-2.3,9.5-2.3-5.1-4.4-3.7c-4.3,3.3-4.9,22.7-7.7,23.7s-5,.5-5.6-1.3c-1-9.3,2.5-18,6.2-26.3Z"/>
  <path class="st0" d="M306.3,123.6c-3.6,3.6-16-5.1-19-7.9-4.7-4.2-10.8-16.3-15.1-18.1s-5.8,4.7-11,3.9c-7.9-1.2.9-13.4,9.7-12.6s16.9,17.2,23.9,22.8,12.3,5.8,12.5,8.9l-1.1,2.9Z"/>
  <path class="st0" d="M132.2,107.9c3.7,0,6.8,1.2,5.4,5.5s-6.3,2.8-8.5,3.2c-10.9,1.9-30,3.5-41.2,3.8s-6.3-.2-6.8-3.2c-.3-2.3.7-4.5,3.2-4.9l47.8-4.3Z"/>
  <path class="st0" d="M24.5,82.8c5.2,5.2-6.3,13.2-9.1,16.9-3.5,4.6-5.8,10.7-6,16.5s3.1,12.1-.9,16.2c-6.3,3.2-7.2-10.5-7.2-14.4-.3-15,9.1-25.2,18.4-35.5,1.1-1.2,3.7-.8,4.8.3Z"/>
  <path class="st0" d="M119.2,15.6c-2.1,2.1-2.8,6.7-6.9,6.7-7.4-2.1-.6-10.8,3-13.7,9.4-7.7,26.9-6,33.1,4.6s-5,18-6.9,11.3c-1.2-4.2,3.5-7.7-4.7-11.4s-13.1-2-17.6,2.4Z"/>
  <path class="st0" d="M240.7,100.7c6.2,5.4-8.4,9.3-11.4,10.1-5.8,1.5-29.2,5.1-30.5-3.6-1.2-8,8-2.7,11.3-2.3s6.4.3,8.9,0c4.9-.5,19-6.7,21.8-4.3Z"/>
  <path class="st0" d="M299.1,138.4c3.2,3.2-.4,7-4.8,6.2s-11.3-8.4-13.6-9-8.8,3.5-8.2-4c7.8-9.6,13.8-1,20.2,3.7s5.4,2.1,6.3,3.1Z"/>
  <path class="st0" d="M184.2,51.8c-1.1,1.3-5.2,3.3-7.4,5.6s-7.2,12.7-10.6,12.4c-2.7-.2-3.5-2.3-3.4-4.7.2-5.2,15-22.6,20.7-19.8,2.3,1.4,2.3,4.6.6,6.5Z"/>
  <path class="st0" d="M30.7,109.2c-1.9,1.9-5.9,1.5-6.8-1.3-1.4-5.1,14.4-24.8,20.6-20.5s-5.1,9.4-7.2,11.7-5.1,8.7-6.5,10.1Z"/>
  <path class="st0" d="M250.6,21.7c2.9-.6,5.3,1.9,4.6,4.6s-6.7,6.6-8.6,7.6c-5,2.3-18.2,3.3-18.2-3.8s7.9-1.9,12-2.4,7.2-5.3,10.3-6Z"/>
  <path class="st0" d="M278.4,39.7c7.3,7.3-16.9,12.6-23.1,8.3s-2.9-5.7-.4-6.6c4-.6,8.4.3,12.4-.2s8.4-4.1,11.1-1.5Z"/>
  <path class="st0" d="M281.6,155c-3-2.8.9-8,6.3-6.8s14.6,9.5,13.1,12.6c-5.1,7.2-10.6-2.2-14.3-4.2s-4-.6-5.1-1.6Z"/>
  <path class="st0" d="M186.9,55.8c3.6-.8,6.2.9,5.5,4.6-.4,1.4-8.3,7.7-9.8,7.4-7.7-1.6,0-11.1,4.3-12Z"/>
  <path class="st0" d="M222.3,151.8c8.6-3.2,9.2,10.7,2.3,8.7-3.3-1.9-4.1-5.4-2.3-8.7Z"/>
  <path class="st0" d="M129.9,164c-2.3-2.3-2.6-12.1,2.6-11,4.3.9,6.5,10.8,2,12-1.3.3-3.6,0-4.5-1Z"/>
  <path class="st0" d="M28.6,167.2c-13.2,13.5-10.8,41.7,5.1,52.1,10.9,7.1,24.1,4.4,35.3-.5s10.6-8.4,11.4-1.3-8.1,5.2-9.1,9.9,2.7,21.8,4.1,26.5c3.8,13.1,8.6,19,22,22.9,25.8,7.4,55.9,2.3,82.1.5,43.9-3,99,3.9,103.6-54.3.9-11.2.2-34.8-1.8-45.7s-4.3-3.8-4.5-6.3c.4-9.5,16.5,1.7,17.1,5.5s-4.2,4.1-4.6,5.5c1.9,20,3.4,40.5,0,60.4l-2.7-.9c-5.5,20.3-19.4,32.3-39.5,37.3-22.5,5.6-45.7,5.2-68.7,6.7-26.7,1.8-83.5,10.6-102.3-12.6-9.9-12.1-11-28.2-13-43.1-15.5,4-31.9,2-42-11.4-21.1-27.7-3.1-76.4,34.6-63.4,5.1,1.8,8.5,4.9,3.1,9.1-5.3-.7-10.3-3.6-15.8-3.4-5.1.2-11.1,2.9-14.6,6.5Z"/>
  <path class="st0" d="M201.5,183c-.6,8.6-9.8,17.5-17.9,19.3s-17,2.6-13.3-5.7c6.3-2.9,11.8-.7,17.7-5.2,13.6-10.5-2.7-25-13.4-14.3s-3.1,8.7-8.3,8.4c-6.1-3.9.4-12.5,4.6-15.7s13.1-6.6,19-3c-.5-4-4.4-25.3,3.9-23.2s2.2,7.5,2.3,10.2c.6,9,3.5,19.3,12.4,23.6,13.4,6.6,40.7-2.4,44.5-17.9,1-3.9,1.3-13-1.6-16-6-6.3-32.7-4.8-41.1-3.3s-16.1,6.7-16.6,0c-.5-5.4,13.5-7.7,17.4-8.3,10.8-1.5,38.2-2.7,46.1,5.7s3.8,7.5,4.2,10.1c4.6,31.4-35.4,48.2-59.9,35.2Z"/>
  <path class="st0" d="M144.9,219.8c2.6,18.8-27.7,40.9-42.2,24.7-8.4-9.3-.9-27.6,8.2-34s24.3-.2,35.7,1.9,22.3,4.2,32.9,4.8c8.1.4,20.7-1.4,27.9,0s2.8,1.9,2.9,3.9c-.2,1.1-.7,2.1-1.6,2.8-2.8,2.1-24.2,1.7-29.2,1.4-11.3-.6-23.5-3-34.5-5.4ZM136.9,223.4c-6.7,1.2-12.8,15.4-19.1,13.3l-2-2.5c-.9-4.1,11.5-13.9,14.8-16.7-22.5-14.9-34.7,34.9-7.7,22.8,5.7-2.6,14-10.3,14-16.9Z"/>
  <path class="st0" d="M124.1,134c8.7-.7,32.8-2.1,35.7,8.7s-3,20.1-5.2,25.4c-13.1,31.8-55,33.3-69.7,1.9s-6.5-16.4-6.4-18.6c.7-11.8,36.5-16.6,45.6-17.3ZM124.1,142c-7.9.6-18.5,2.2-26,4.5-13.2,3.9-11.9,6-6.9,18,4.3,10.2,8.7,15.9,19.8,18.8,26.1,6.8,40.1-16,40.7-38.9-2.1-3.6-23-2.8-27.6-2.4Z"/>
  <path class="st0" d="M72.2,41.3c3.6,8.7-4.1,6.2-9,7.6s-14.3,5.6-18.3,10.4-5.4,14.4-10.9,14.3c-6.1,0-1.6-8.5,0-11.8,6.2-12.7,20.6-21,34.6-21.5l-10.8-4.9c-2.6-6.1.3-6.3,5.5-5.5,13.2,2,23.2,11.1,38.3,5.2s7.6-5.9,10.6-5.6c2,.3,3.4,2,3.2,4-9.3,14.5-28.8,12.6-43.1,7.7Z"/>
  <path class="st0" d="M166.3,37.5c-.9.9-3.1,1.4-4.3.7-5.6-2.6-1-14.7,1-18.8,4.3-8.6,15.6-17.8,25.5-18.5,14.4-1,17.7,13.4,35.5,9.4,3.6-.8,17-7.6,14.2,1.6s-22.8,7.7-28.4,6.3-11.7-8.1-17-9c-10.8-1.9-22.2,8.8-24.8,18.8-.7,2.6-.3,8-1.7,9.5Z"/>
  <path class="st0" d="M272.2,58.5c9.2-1.3,15.3,8,18.3,15.4,4.8,11.8,3.3,15.1,14.2,24.4,3.2,2.7,13.4,6.6,9,11.7-2.7,2.3-5.2.2-7.8-1.2-7.9-4.3-15.8-12.8-19.3-21.1s-4.7-22.5-13.7-21.3-6.1,6.1-10,2.7c-3.9-5,5-10,9.2-10.6Z"/>
  <path class="st0" d="M39.2,137.1c7,1.2,8.3,17.6-.1,13.2s-.8-6.2-5.8-6.5c-2.6,3.2-16,12.6-18.8,6.9s5.2-6.3,9-9,10.8-11.6,11.3-16.6-4-10,1.1-12.4,6.5,5.8,6.8,8.9c.6,6.4-2.2,9.7-3.4,15.5Z"/>
  <path class="st0" d="M43.5,179.5c-4.5-.7-11.6,3.8-13.4-2.2,3.7-9.9,21.2-5.3,27.4.4s3,13.9-2.3,9.5-2.3-5.1-4.4-3.7c-4.3,3.3-4.9,22.7-7.7,23.7s-5,.5-5.6-1.3c-1-9.3,2.5-18,6.2-26.3Z"/>
  <path class="st0" d="M306.3,123.6c-3.6,3.6-16-5.1-19-7.9-4.7-4.2-10.8-16.3-15.1-18.1s-5.8,4.7-11,3.9c-7.9-1.2.9-13.4,9.7-12.6s16.9,17.2,23.9,22.8,12.3,5.8,12.5,8.9l-1.1,2.9Z"/>
  <path class="st0" d="M132.2,107.9c3.7,0,6.8,1.2,5.4,5.5s-6.3,2.8-8.5,3.2c-10.9,1.9-30,3.5-41.2,3.8s-6.3-.2-6.8-3.2c-.3-2.3.7-4.5,3.2-4.9l47.8-4.3Z"/>
  <path class="st0" d="M24.5,82.8c5.2,5.2-6.3,13.2-9.1,16.9-3.5,4.6-5.8,10.7-6,16.5s3.1,12.1-.9,16.2c-6.3,3.2-7.2-10.5-7.2-14.4-.3-15,9.1-25.2,18.4-35.5,1.1-1.2,3.7-.8,4.8.3Z"/>
  <path class="st0" d="M119.2,15.6c-2.1,2.1-2.8,6.7-6.9,6.7-7.4-2.1-.6-10.8,3-13.7,9.4-7.7,26.9-6,33.1,4.6s-5,18-6.9,11.3c-1.2-4.2,3.5-7.7-4.7-11.4s-13.1-2-17.6,2.4Z"/>
  <path class="st0" d="M240.7,100.7c6.2,5.4-8.4,9.3-11.4,10.1-5.8,1.5-29.2,5.1-30.5-3.6-1.2-8,8-2.7,11.3-2.3s6.4.3,8.9,0c4.9-.5,19-6.7,21.8-4.3Z"/>
  <path class="st0" d="M299.1,138.4c3.2,3.2-.4,7-4.8,6.2s-11.3-8.4-13.6-9-8.8,3.5-8.2-4c7.8-9.6,13.8-1,20.2,3.7s5.4,2.1,6.3,3.1Z"/>
  <path class="st0" d="M184.2,51.8c-1.1,1.3-5.2,3.3-7.4,5.6s-7.2,12.7-10.6,12.4c-2.7-.2-3.5-2.3-3.4-4.7.2-5.2,15-22.6,20.7-19.8,2.3,1.4,2.3,4.6.6,6.5Z"/>
  <path class="st0" d="M30.7,109.2c-1.9,1.9-5.9,1.5-6.8-1.3-1.4-5.1,14.4-24.8,20.6-20.5s-5.1,9.4-7.2,11.7-5.1,8.7-6.5,10.1Z"/>
  <path class="st0" d="M250.6,21.7c2.9-.6,5.3,1.9,4.6,4.6s-6.7,6.6-8.6,7.6c-5,2.3-18.2,3.3-18.2-3.8s7.9-1.9,12-2.4,7.2-5.3,10.3-6Z"/>
  <path class="st0" d="M278.4,39.7c7.3,7.3-16.9,12.6-23.1,8.3s-2.9-5.7-.4-6.6c4-.6,8.4.3,12.4-.2s8.4-4.1,11.1-1.5Z"/>
  <path class="st0" d="M281.6,155c-3-2.8.9-8,6.3-6.8s14.6,9.5,13.1,12.6c-5.1,7.2-10.6-2.2-14.3-4.2s-4-.6-5.1-1.6Z"/>
  <path class="st0" d="M186.9,55.8c3.6-.8,6.2.9,5.5,4.6-.4,1.4-8.3,7.7-9.8,7.4-7.7-1.6,0-11.1,4.3-12Z"/>
  <path class="st0" d="M222.3,151.8c8.6-3.2,9.2,10.7,2.3,8.7-3.3-1.9-4.1-5.4-2.3-8.7Z"/>
  <path class="st0" d="M129.9,164c-2.3-2.3-2.6-12.1,2.6-11,4.3.9,6.5,10.8,2,12-1.3.3-3.6,0-4.5-1Z"/>
</svg>