<?xml version="1.0" encoding="UTF-8"?>
<svg id="_图层_2" xmlns="http://www.w3.org/2000/svg" version="1.1" viewBox="0 0 417.5 515.2">
  <!-- Generator: Adobe Illustrator 29.5.0, SVG Export Plug-In . SVG Version: 2.1.0 Build 137)  -->
  <defs>
    <style>
      .st0 {
        fill: #363636;
      }
    </style>
  </defs>
  <path class="st0" d="M98,479.5c.5-1.7,4-1.8,5.4-.9,4.4,2.2,1,20.7,6.8,24.8,1.1.3,7.8-6.8,9-8.1,2.2-2.4,2.6-6.4,6.5-7.1s4.1.8,6.1.8,4.3-1.1,7.2-.9,15.2,2.8,17.2,2.5,1.1-3.3,4.4-2.9c4.7.5,8.1,14.3,9.5,18.5,1,.1,1.8,0,2.7-.4,1.9-1,14.8-15.6,15.2-17.4-.8-4.9-10.7-17.9-7.1-22.4,6-7.6,10.2,13,12.7,14.6s3.9-1.3,4.5-2.8c1.8-4.5,1.2-25.5.9-31.6s-4.1-21.3-3.7-27,1.1-2.5,1.9-4c-31.9-.6-63.7-3.1-93.7-14.4-9.1,23.4-20.4,48.1-16.2,73.9,2.4,2.2,6.9-12.7,13.5-9.5,5.3,2.6-5.1,14.1-8.2,16.2-17.1,11.5-14.5-21.8-13.3-30.5,2.5-18.5,10-35.8,17-52.9-23.7-8.4-45.8-18.2-65.3-34.3-39.1-32.2-39.1-72.7-5.9-109.5,3.8-4.2,18.6-17.8,23.2-20.1s5.5-1.8,6.4,1.3c1.5,5-4,6.1-7.1,8.8-90.5,78.5-5.1,131.8,74.1,154,29.6,8.3,87.4,14.7,114.8,0,45.5-24.5,37.6-100.3,8-134.5-3.6-4.1-15.7-9.5-14.9-14.8,1.1-7.4,12.5,2.1,15.3,4.5,32.6,29.2,44.6,101.9,14.5,136-14.6,16.5-35.4,25.7-57.6,24.8,1.5,4.3,2.6,8.8,3.3,13.3,2,12.7,5.1,50.4-2.4,60.1-2.8,3.6-5.2,3-7.7,4.9-4.5,3.5-9.3,13.1-14.8,17.6-14.6,11.9-17.4-2-21.7-14-6.2,3.5-15-.2-22.1,0-12.5.2-10.8,6.3-18.5,12.2s-10.6,6-15.1-1c-1.1-1.7-4.7-11.8-4.7-13.4,0-3.1-.6-12.3,0-14.4Z"/>
  <path class="st0" d="M310.7,169.8c0-3.5-5.8-4.9-5.4-8.5s3.3-3.9,5.7-3c13,12,25.6,23.6,40,33.9,13.5,9.7,45,34.6,54.8,8.3,10.2-27.4-4.5-59.8-29.3-73.5-51.6-28.5-124.8,14.4-158.6,54.1-13.2,15.5-24.3,32.8-34.2,50.5-1.7,2.1-4.1,1.3-6.2.3-.5-2.4-.3-4.6.6-6.8,2.4-6.6,14.6-23.8,19.3-30.3,35.3-49.3,105-99.4,168.8-80.8,35.1,10.3,57.8,47.9,48.7,83.8-11.6,46.1-57.6,9.3-78.8-6.9-3.7-2.8-12.8-11.7-15.8-13-5.7-2.5-22.8,2.3-29.4,4.1-29.5,8.3-59.1,23.2-82.9,42.3-4.4,1.9-6.5-.8-5.2-5.2,1.9-6.2,40.2-27.1,47.9-30.5,18.7-8.5,39.7-16,60.1-18.8Z"/>
  <path class="st0" d="M97.8.5c7.6-.3,15.1,5.9,19.5,11.6,29.9,38.2,21.3,146.2,11.1,192.1-.7,3.1-2.5,12.8-4.6,14.3s-4.4,1.6-5.5,0c-1.8-2.6,3.1-18.9,3.8-23.3,7.3-42.8,16.9-144.2-11.6-179-13.4-16.3-25.7-1.4-32.8,12-23.5,44.8-15.1,113.2-1.6,160.3s7.7,18.6,9,25.2.6,3.3-.2,4.8c-2.5,2.8-5.4.7-7.1-1.9-7.9-12.2-15.8-51.1-18.3-66.4-6.4-38.8-8-76,6-113.4C70.3,24.1,82.3,1.1,97.8.5Z"/>
  <path class="st0" d="M108.6,197.5c-11.8,5.8-4.9-16.4-4.3-22.8s1.4-13.9,1.8-20.7c.8-12.7-.8-30.8,1-42.3s3.9-6,6.7-3.2,1.5,23.1,1.4,27.6c-.4,12.6-1.4,26.1-2.7,38.7s-2.7,21.4-3.8,22.8Z"/>
  <path class="st0" d="M130.6,206c3.7-3.6,22.3-1.7,27.6-.5,4.7,1.1,19.2,5.4,17.1,11.4s-10.6-1.1-13.8-2.1c-9.2-3.2-19-3.3-28.6-1.9-3.4-.3-4.5-4.7-2.3-6.9Z"/>
  <path class="st0" d="M169.8,282.7c4.3-.4,4.3,4.1,3.7,7.2s-7.7,19.6-8.4,20.5c-1.5,1.9-2.9,2.2-5.3,1.7-2.6-.9-1.4-5.8-.9-7.9s6.5-17.5,7.7-19.4,1.7-2.1,3.1-2.2Z"/>
  <path class="st0" d="M104.9,270c1.2-.4,2.8-.3,3.9.3,1.2,1.2,1.8,2.6,1.6,4.3s-6.5,18.8-7.4,20.6c-1.9,3.7-6.3,5.5-7.6,1.1s7.1-25.5,9.5-26.3Z"/>
  <path class="st0" d="M126.6,334.1c1.2,1.3,1.3,4.1.3,5.5-1.8,2.5-21.5-1.4-15.4-8,2.3-2.6,13.2.5,15.1,2.5Z"/>
</svg>