<?xml version="1.0" encoding="UTF-8"?>
<svg id="_图层_2" xmlns="http://www.w3.org/2000/svg" version="1.1" viewBox="0 0 294.8 301">
  <!-- Generator: Adobe Illustrator 29.5.0, SVG Export Plug-In . SVG Version: 2.1.0 Build 137)  -->
  <defs>
    <style>
      .st0 {
        fill: #363636;
      }
    </style>
  </defs>
  <path class="st0" d="M239.5,96.9c-.1.3-1,.3-1.4.4v1.7c19.2,10.2,39.2,24.5,49.9,44.1,6.3,11.6,11.8,25.4-.9,35.1s-30.7,1.5-44.5-1.8c7.3,12.4,13.5,25.5,17.2,39.5,31.2,1.8,29.7,20.9,18.9,43.9-8.5,18.3-23.8,41.9-47,38.6s-14.5-5.7-16.5-5.8c-4-.2-13.2,2.2-18.1,2.6-18.5,1.5-37.3,3.4-55.8,4.5-20,1.2-39.7-.6-59.4.9-11.2.8-20.9-1.7-30.7-7-24.2-13.3-49.9-54-10.3-66l6.4-31.3c-11.7,4.1-32.5,10.4-41.8-1s1.2-28.7,8.6-38.9,19-20.8,28.6-30.8c-17.9-18.4-7-46.2,4.2-65.2C82.5-.5,172.8-21.8,221.4,36c9.2,10.9,25,48.3,18.1,60.9ZM232.6,95.4c1-42.6-25.9-75.2-67.5-83.3-41.4-8.1-84.4,11.6-107.7,46.3-11.1,16.5-25.1,45-8.9,62.2l34.9-27.2,4.3-.3c3.9,4.1,0,6.7-3.2,9.5-16.2,14.5-34.3,25.6-49.9,41.9-10.8,11.3-46.3,53-6.8,49,21.7-2.2,51.3-26.5,65.8-42.2,11.6-12.6,20.7-27.4,29.5-42,12.7-4.3,4.9,7,1.9,12.3-16.8,29.3-40.4,51.5-68.1,70.5-3.5,12.4-8.2,26.8-8.6,39.8s.8,2.9.8,4.5c0,4.2,1.7,17.2-3.2,17.6-4.5.4-3.6-4-4.3-6.5s-2.4-6.2-1.5-10.6c-21.2,5.1-9.1,28.6.9,39.2,4.2,4.5,14.7,12.1,20.5,13.7s2.3.7,2.1-.7c-3.7-1.1-11.4-6.5-7.9-10.6s10.6,3.6,13.5,5.3c24.4,14.4,69.9,7.4,97.4,5.2,18.3-1.5,41.4-.7,58.5-7.2,5.3-2,9.7-6.5,15.6-5.3l.6,7-12.1,6.3c13,4,22.8-3.5,30.4-13.2,6.8-8.6,21.7-35.4,17.5-46s-10.7-7-13.2-6.4.3,14-8.7,10.3c-2.2-9.4-3.3-18.4-6.5-27.7s-11.7-23-17.1-34.6c-23.5-8.9-43-24.9-59.6-43.4-3.6-4-16.6-19.1-18.5-22.9-2.4-5-.8-9.9,5-6.8,19.2,26.3,40.2,50.1,70.6,63.5,16.9,7.4,72.9,28.2,53.9-12.5-9.9-21.2-37.3-38.9-57.5-49.6-4.9-2.6-33.5-15.2-34.7-17.5-1.7-3.5.5-6.5,4.1-5.9l37.8,18.5Z"/>
  <path class="st0" d="M156.4,259.9c-1.6-1.5-1.6-4.7.3-6,3.5-2.5,11.2,2.4,17.9-3.7,9.8-8.8-.9-22.9-13.7-17.3s-5.8,7.7-10.4,6.3.9-9.6,4.1-11.7c23.3-15.1,43.9,16.1,23.1,30.3-4.5,3-17.2,6.1-21.3,2.1Z"/>
  <path class="st0" d="M95.6,38.9c1.8,1.8,3.7,12,.7,14.3-7.2,5.3-9.9-13.9-5.3-15.3s3.8.2,4.6,1Z"/>
  <path class="st0" d="M177.5,43c-6.4,6.5-10.3-10.4-4.6-13.2,6-1.2,7.2,10.5,4.6,13.2Z"/>
</svg>