<?xml version="1.0" encoding="UTF-8"?>
<svg id="_图层_2" xmlns="http://www.w3.org/2000/svg" version="1.1" viewBox="0 0 186.4 237.4">
  <!-- Generator: Adobe Illustrator 29.5.0, SVG Export Plug-In . SVG Version: 2.1.0 Build 137)  -->
  <defs>
    <style>
      .st0 {
        fill: #363636;
      }
    </style>
  </defs>
  <path class="st0" d="M148.1,170.2c5.9,11,21.4,11.6,28.7,21.9,8.8,12.5-10.8,18.8-20.7,17.1-5.4-.9-7.9-4.5-14-2.5-2.7.9-11.2,7.2-12.8,9.6-3.2,4.9-2.2,12.9-7.7,17.4s-17.8,2.1-19.6-6.1c-2.8-12.7-.2-28.1-8.9-39.5-3.1-.7-19,25.2-28.7,12.6-4.2-5.4-.3-10.8-1.3-17.1-12.4,1.8-23.3,2.3-34.8-3.2C3.6,168.5,3,139.8,6.8,116.2s3.9-19.4,6.9-20.9,3.1-.7,4.5,0c2.7,1.9-2.8,17.3-3.4,20.9-7.4,43.8,8.8,71.8,56,56,30.3-10.2,100.8-40.3,105.7-76.2,2.1-15.4-3.6-21.3-16.8-26.7-14.3-5.8-28.7-6.5-43.6-9.2-8.5-11.3,19.6-5.3,24.9-4.3,14.4,2.6,37.1,8.7,42.1,24.2,9.4,28.7-18.7,52.2-39.4,66.4,16.1,7.3,39.1,22.5,4.5,23.8ZM154.3,162.1l-19-10.6c-19.3,14.4-42.2,20.3-64.3,29l-.8.9c1.6,4.6.6,8.8,0,13.3l1.8,1c.8-.2,8.1-6.5,9.4-7.7,3.7-3.5,8.1-12.1,13.8-9.4,7.4,3.4,12.2,24.8,13.3,32.4.7,4.9-1.4,19.6,6.6,17.2,3.6-1.1,5-13.7,8.7-18.2,2.5-3,14-11.2,17.6-11.9,9.7-2,15.7,7.3,26.7,1.6s2-3.5-.6-5.8c-8.4-7.5-17.7-7.8-26.4-18.4-10.7-13.3,2.2-12.7,13-13.5Z"/>
  <path class="st0" d="M47.6,90.6c15.2-1.4,27.5,10.5,31.5,24.5,5.9,20.8-9.9,47.4-33.3,44.1-4.3-.6-8.6-2-6.8-7.3s8.2-.5,11.1-.5c10.9-.2,17.9-8.8,21.1-18.4,7.5-22.9-17.2-46.7-36.7-27.7-8.3,8.1-6.1,25.3-2.5,35.5s9.1,12.9,2.5,14.7-7-5.2-8.3-8c-9.9-21.5-7.4-54.2,21.5-56.9Z"/>
  <path class="st0" d="M115.8,122.7c-10-2.7-12.6-21.1-11.5-30,2.4-21.2,31.7-35.1,46-17.5,16.5,20.4,6.4,57-21.7,58.9-6.4.4-19-3.3-12.7-11.4ZM118.5,123.6c10.5,6.8,25.8-2.2,30-12.5,4.6-11.2.1-35.9-15.2-35.9-19,0-25.9,21.4-18.6,36.6,2.1,4.3,9.1,5.8,3.8,11.9Z"/>
  <path class="st0" d="M15.3,29.6c7.9-1.3,14.2,2.4,19.5,7.8s15.6,20.9,16.8,24.5-1.6,8-5.7,4.7c-8-6.5-17.2-36-32.2-27.9-9.2,4.9-2.3,18.1,1.5,24.6s9.6,9.4.9,11.8c-14.5-8.7-23.5-41.7-.7-45.6Z"/>
  <path class="st0" d="M89.7,9.9c-2-1.2-4.6.8-5.4,2.8-2.2,5.2-.2,15.9,1.6,21.2,1.4,4.1,8.4,13.3,2.2,14.9s-11.9-18.6-12.5-23.5c-.8-6.7-.4-16.1,4.8-21,16-14.8,28.1,25.8,29,36.4.2,2.6.9,7.4-2.3,8.3l-3-.3-1.6-2c-1.7-8.1-3.4-16.3-6.5-24s-5.1-12-6.4-12.8Z"/>
  <path class="st0" d="M64.5,54.7c12.5-2.1,9.1,7.1-2.4,9.2-9.5,1.7-7.3-7.6,2.4-9.2Z"/>
  <path class="st0" d="M48.3,121c6.2-2.1,12.4,9.5,7.5,12s-12-10.5-7.5-12Z"/>
  <path class="st0" d="M83.9,106.8c2.5-3,10.2-5.1,10.3,1-.2,2.5-5.9,6.2-8.3,6l-3-2.5c-.4-1.5,0-3.3,1-4.5Z"/>
  <path class="st0" d="M129.9,95.2c1.4,1.1,2.6,4.5,1.9,6.3-2.8,6-9.9-.5-8.7-5,.8-3,4.7-3,6.8-1.3Z"/>
</svg>