<?xml version="1.0" encoding="UTF-8"?>
<svg id="_图层_2" xmlns="http://www.w3.org/2000/svg" version="1.1" viewBox="0 0 352.1 290.2">
  <!-- Generator: Adobe Illustrator 29.5.0, SVG Export Plug-In . SVG Version: 2.1.0 Build 137)  -->
  <defs>
    <style>
      .st0 {
        fill: #363636;
      }
    </style>
  </defs>
  <path class="st0" d="M312.1,74.4c-.8,1.1,10,5.7,11.2,6.5,13.9,8.8,25.4,36.1,26.9,52.1,12,125.2-169.6,170.8-264.9,149.7-37.8-8.4-67.2-35.6-65.4-76.4.4-9.5,4-34.3,6.6-43.3s7.9-4.2,8,2.5-4.3,21.8-5.3,31c-9,76.9,67.3,85.8,125.9,82.9,60.1-2.9,157.8-35.3,180.4-96.9,10.1-27.5,10.5-74.6-15.3-94-4.6-3.5-12.2-4-12.7-9.6l-5.9,2.7c-4.3-1.4-4-4.7-1.4-7.7s17.1-13.7,21-10.9c3.9,2.8-6.3,10.4-9.2,11.4h.1Z"/>
  <path class="st0" d="M236.4,72.8c6.3-.8,22.2-.3,30.5,2.7,60.6,22.2,44.4,112.4-29.8,106.8-67.2-5.1-63.6-102-.7-109.5h0ZM236.4,81c-33.7,4.6-45.1,34.6-37.3,64.9,9.4,36.8,66,36.5,87.2,10.2,20.3-25.1,6.5-65.2-24.1-73.9-5.2-1.5-20.2-1.9-25.7-1.2h0Z"/>
  <path class="st0" d="M100.8,100.9c6.3-.8,22.2-.3,30.5,2.7,60.6,22.2,44.4,112.4-29.8,106.8-67.2-5.1-63.6-102-.7-109.5h0ZM100.8,109.1c-33.7,4.6-45.1,34.6-37.3,64.9,9.4,36.8,66,36.5,87.2,10.2,20.3-25.1,6.5-65.2-24.1-73.9-5.2-1.5-20.2-1.9-25.7-1.2h0Z"/>
  <path class="st0" d="M277.6,43.5c6.4.8,8-8.7,13.2-9,12.1-.7-8.1,23.8-14,14.8s1.2-4.2-4.6-3.5c-12.3-11.3-42.3-38.2-59.5-36.8-10.4.9-16,18.2-18.8,26.7s-5.4,24.8-8.6,26.8-5.3.7-6-2.4c4-15.9,7.5-34,16.2-48.2,16.8-27.4,59.1,6.1,74.8,21,15.7,14.9,7.3,6,7.3,10.4v.2Z"/>
  <path class="st0" d="M69.5,46.6c-5.7,5.3-11.4,32.6-13.5,41.4s-1.1,12.7-4.1,14.1c-2.1.8-4.4,0-5-2.2-1.6-5.7,2.8-20.2,4.4-26.6,5.9-23.8,10-42.8,40.1-39.6s35.8,18,47,28.5,13.6,10.8,5.5,14.6c-4.6,0-5.8-4.3-8.2-6.4-10.8-9.5-30.7-27.1-45.1-28.5-6.6-.7-16,0-21.1,4.8h0Z"/>
  <path class="st0" d="M147.1,210.7c21.6,6.1,44,5.7,66.3,5.2,5-.1,13.1-2.8,17.7.4s.8,5-2.4,5.7-13,1-17.1,1.1c-11.4.5-24.1.3-35.6,0s-6.4-1.6-10-.9-6.4,12.2-14.6,11.8-9-8.1-9.4-12.6,1.9-8.8,2.1-9.3c.4-.7,2-1.5,2.9-1.5h.1ZM155.6,219.5l-5.5-.9c-.2,2.4.4,4.7,2.3,6.3,1.7-1.6,3.6-2.8,3.2-5.4h0Z"/>
  <path class="st0" d="M114.4,68.3c.8.8,1.3,2.6,1,3.7-5.9,7-13.9-2.5-23.3,1.3s-6.3,19.4-14.3,12.9c-2.2-9,7.5-20.7,16.4-21.8s17.6,1,20.2,3.9Z"/>
  <path class="st0" d="M207.7,46.9c-2.9-2.9.8-9.9,3-12.4,5.9-6.6,14.4-5.7,22-3s16.6,7.3,7.2,11.9c-6.9-1.5-16.3-10.2-22.9-3.6s-4.8,11.7-9.3,7.1Z"/>
  <path class="st0" d="M151.2,81.5l.7-5.8c4.6-.4,8.6-.7,12.8-2.7s12.9-11.8,16-5.9c2.5,4.9-9.9,11.8-13.8,13.5s-10.4,4.3-15.6.9h0Z"/>
  <path class="st0" d="M16.1,96.3c1.4-.5,2.8-.2,4.2,0s16,6.2,17.4,7.2c3.3,2.2,3.7,6.6-.3,7.7s-18.7-6.2-20.7-7.6-4.1-6.1-.5-7.3h0Z"/>
  <path class="st0" d="M5.2,149c3.2-.7,7.3,0,10.6,0,5.6,7.1-5.5,9.5-11.3,7.6-4.2-1.4-3.8-6.6.7-7.6Z"/>
  <path class="st0" d="M299.1,54.6c1.4-.4,4.4-.6,5.3.7,1.8,15.6-16.4,2.6-5.3-.7Z"/>
  <path class="st0" d="M18.8,115.4c6.8-2,8.9,9.4.8,8s-4.3-6.9-.8-8Z"/>
  <path class="st0" d="M108.6,122.6c3.1.8,3.9,13.4,4.7,17.1,2.9,12.1,6.9,23.9,12.1,35.2,0,6.3-4.5,6.1-7.9,1.4-5.2-7.3-14.5-39.9-14.5-48.8s4.4-5.2,5.6-4.9Z"/>
  <path class="st0" d="M258.2,160.3c-.9.9-3.1,1.4-4.3.7-4.3-3.4-2.2-8.8-2.9-13.5-2-15.3-5.5-28.8-11.5-42.9-1.4-3.3-5.3-6.4-3.4-10.3s3.1-2.2,5-1.4c3.7,1.7,10.9,21.2,12.3,25.9,2,6.7,9,37.2,4.8,41.5h0Z"/>
</svg>