<?xml version="1.0" encoding="UTF-8"?>
<svg id="_图层_2" xmlns="http://www.w3.org/2000/svg" version="1.1" viewBox="0 0 331.2 271.7">
  <!-- Generator: Adobe Illustrator 29.5.0, SVG Export Plug-In . SVG Version: 2.1.0 Build 137)  -->
  <defs>
    <style>
      .st0 {
        fill: #363636;
      }
    </style>
  </defs>
  <path class="st0" d="M305.1,160.4c-1.1-17.5-4.7-34.5-12.1-50.5-1.5-3.2-6.6-13.5-9.7-13.9-3.2-.5-5.5,1.6-4.8,4.8,10.8,16.2,16.7,35.6,18,55-3.6.3-10.6-5.1-13.1-.9-3.6,6,7.3,7.6,10.7,9.2,26.5,12.7,39.7,42.3,10.8,61.3-41.4,27.2-112.5,32.3-161.2,35.6-35.1,2.3-67.5,4.1-102-5.6-36.3-10.2-39.2-32.7-22.4-64,2.4-4.4,15.4-21.4,15.6-23.5,0-2-1.2-3.9-3.2-4-3-.3-3.2,2.9-5.8,2.8.1-8.6-1.6-17.1-.9-25.8.5-6,5.5-19.9,5.2-23.4-.3-2.9-2.8-4-5.5-3.1-2.9.9-6,14.5-6.6,17.9-1.2,6.9-1.6,14.3-1.3,21.3.2,5.4,3.3,18.3,2.5,22.4-.6,3.1-9.3,16.2-11.4,21.3-31.5,76.4,71.3,74.2,118.9,72.8s54.9-3.6,78.5-6.4c41.8-5,69.3-10.7,102-30.4,32.7-19.7,26.1-53.1-2.2-72.8h0Z"/>
  <path class="st0" d="M152.5,47.6c1.9-16.4,17.2-38.2,32.9-44.1,32.2-12,77.1,23.5,81.7,55.4.7,4.7-3.6,7.2-6.6,4.3s-7-17.6-9.5-21.8c-12.8-21.5-48.3-43.9-71.4-25.6-7.1,5.6-19,22.7-19,31.7v13.1c6.2-1,11.4,1,6.6,7.1l-47.7,6.4c-6.5-7.3,4-7.4,8.9-8.9s1.4.7,1.4-1.4c-.4-13.5-19.4-28-31.7-30.8-31-7.1-48.4,14.8-60,39.7-1.9,4.1-4.2,13.5-6.1,16.3s-3.5,1.8-4.9,1.4c-5.3-1.6.4-13,1.7-16.2,5.6-14.3,15.3-31.9,28.2-40.6,30.7-20.9,70.8-6.8,81,28.7l14.4-.8c.4-4.5-.5-9.7,0-14h.1Z"/>
  <path class="st0" d="M258.2,144.7c-24.8,25.2-82.3,19.2-94.1-18.9-8.9-28.6,15.1-83.1,50.1-74.6,5.8,1.4,22,9.4,26.7,13.2,19.7,15.8,38,59.3,17.4,80.3h-.1ZM204.9,58.2c-23.7,2.3-38.5,42.2-34,62.6,7.4,33.6,56.5,39.1,79.4,20.1,21.7-18-.6-66.4-22.6-75.1-3.4-1.3-7.7-1.6-10.6-3s-2.6-2.7-3.9-3.3c-1.9-.9-6.1-1.4-8.3-1.2h0Z"/>
  <path class="st0" d="M89.9,71.5c.6-.4.9-3.5,4.4-4.2,12.9-2.7,37.5,20.8,43.3,31.5,27.4,51.5-51.9,98.1-87.4,53.9-21.2-26.5-10-79.6,27.6-82,2.6-.2,11.6,1.1,12.1.8h0ZM92,75.4c-.3.3,0,1.9-.6,2.5-1.8,2.4-10.9.6-14.5,1-29.1,2.8-36.3,44.7-22.6,66,24.9,38.8,93.8,6.5,78.7-37-3.8-10.9-16.9-23.7-27-29.2-2.6-1.4-11.9-5.4-14.1-3.3h0Z"/>
  <path class="st0" d="M171.3,202.7c-3.2,3.5-11.7,6.1-16.4,5.6-3-.3-11.5-3.7-12.6-6.5-4.3-10.4,6.1-24.4,17.1-24.1s9.3,3.3,5.9,7.6-4.6.3-7.3.7c-12.1,1.8-11.4,20.4,3.4,14.4,8-3.3,1.8-15,9.7-13.8s3.1,12.8.2,16.1h0Z"/>
  <path class="st0" d="M98.9,47.4c1.8,1.8,1.7,5.1-.9,6.4s-9.4-4.1-16.1-2.6-12.2,16.8-18.4,16c-7.9-1.1,1.5-12.2,4-14.9,6.9-7.6,13.9-11.4,24.4-8.2s6.7,3,7,3.4h0Z"/>
  <path class="st0" d="M221.2,38.9c-2.2,3.5-12.7-4.2-17.5-4.5-6.7-.3-5.9,2.4-9.3,3.5-6.9,2.2-7.2-4.2-2.1-8.4s8.7-3.8,14-3.1,18.6,6.6,14.9,12.5h0Z"/>
  <path class="st0" d="M221.1,133l-4.6,1c-1.4-.4-2.1-2.7-2.4-4-1.3-8.2.4-20.1,0-29-.2-3.9-3.1-17.1-1.5-19.5,1.5-2.1,5.5-.8,6.7,1.5s2.6,15.1,2.9,18.9c.4,7.5.5,18,0,25.4-.5,7.4,0,3.9-1.2,5.6h.1Z"/>
  <path class="st0" d="M87.8,92.8c.9,0,2.1.8,2.7,1.5,2.3,2.9,2.6,17.9,3.5,22.8s4.8,17.3,5,23.2-5.7,6.6-7.7,2.2c-2.1-4.6-4.7-20.4-5.5-26.2s-2.8-19.3-1.1-21.7,2.4-1.9,3.2-1.9h0Z"/>
</svg>