<?xml version="1.0" encoding="UTF-8"?>
<svg id="_图层_1" xmlns="http://www.w3.org/2000/svg" version="1.1" viewBox="0 0 853.2 730.7">
  <!-- Generator: Adobe Illustrator 29.5.0, SVG Export Plug-In . SVG Version: 2.1.0 Build 137)  -->
  <defs>
    <style>
      .st0 {
        fill: #faf9f6;
      }

      .st1, .st2 {
        fill: #363636;
      }

      .st2, .st3 {
        isolation: isolate;
      }
    </style>
  </defs>
  <g id="_图层_11">
    <g>
      <g>
        <path class="st0" d="M13.4,620.6c1.4.3,3,.4,4.5.6,1.6.2,3.3.3,4.7.6h807.7c1.3-.2,2.5-.4,3.7-.6,3.4-.4,7-.9,10.4-2.3v79.3c.2,6.5-2.4,12.6-6.9,17.2-4.6,4.6-10.7,7.1-17.2,7.1H32.5c-13.3,0-24.2-10.9-24.2-24.2v-79.7h0c1.1.5,2.2,1,3.4,1.3h0l1.6.4v.3h.1Z"/>
        <path class="st0" d="M61.5,501.3c1.9.2,4.2-1.1,4.8-4.4l.4-2.4h-.3C78.2,347.4,100.8,35.3,103.4,27.1c4.2-12.6,6.4-17.8,17.8-19h610.8c10.8.8,16.1,5.6,18.4,16.5,2.7,12.9,10.6,121,10.6,122.1l25.8,350.1c.2,2,1.5,3.8,3.2,4.4.4.2.9.2,1.3.2s.2,0,.3,0c-.2.1-.4.2-.6.4-2,1.8-1.8,5.8-1.2,9.8v.3c.9,6.1,2.8,14.9,4.8,21.6,4.3,14.7,18.1,30,30.2,43.4,4.2,4.6,8.1,9,11.4,13l.3.3c3.8,4.7,11,13.6,7.5,19.3-1.8,2.9-6.3,3.1-10.7,3.3-2.8.2-5.4.3-7.6,1.1H27.4c-2-.7-4.6-.9-7.3-1-6-.4-10.3-.9-11.4-4.3-1.8-5.7,2.3-11,5.9-15.7v-.2c4.1-5.2,9.1-10.7,14.3-16.5,11.8-13.1,25.3-27.9,29.6-42.6,1.9-6.5,3.8-15.2,4.7-21.2v-1c.4-2.4.7-4.6.5-5.9-.2-1.6-1.2-3.5-2.9-4.2.2,0,.3,0,.5.1h.2Z"/>
      </g>
      <g>
        <path class="st1" d="M96.8,496.1h659.9c9.4-.2,17.5-10.1,20.3-18.5,2.8-8.2,1.1-17,1-25.5-9.9-86-19.4-306.8-29-392.8-1-8.8-1.3-17.7-2.5-26.5-1.4-10.1-3.6-21.6-16.2-21.8l-608.8.2c-3.8.5-7.1,2-9.4,5.1-6.1,8.1-6.3,32.3-7.5,43-9.6,86-19.1,306.9-29,392.8,0,8.3-1.8,17.1.8,25.1,2.8,8.5,10.8,18.6,20.4,18.8h0ZM79.5,457.1c9.8-91.4,19.6-317.9,29.7-409.2.4-9.1,1-26.2,8.3-31.1,3.2-2.1,5.8-.8,9.4-1.6l597.8-.2c6.1,1,11-.9,14.5,5.5,3.8,6.9,4.9,20.4,5.8,28.3,10.1,91.3,19.2,316.9,29,408.3.7,14.3-.7,31.1-17.2,34.8H97.3c-17-3.1-18.4-20.5-17.8-34.8h0Z"/>
        <path class="st1" d="M67.9,512.5c-2.5,8.8-1,18.9-4.5,27.5-12.1,18.3-26.4,34.9-39.9,52.1-2.2,2.8-6.7,7.2-4.5,11,2.1,3.7,12.1,2.5,15.8,2.7,297.7-.9,486.2-.9,783.9,0,5.2-.3,17.9,1.8,16.2-6.7-14.9-19.6-30.8-38.8-44.8-59.2-3.4-8.6-2-18.8-4.5-27.5-1-3.5-2.5-6.4-6.4-7.1H73.9c-3.7.9-5.1,3.8-6,7.1h0ZM777.6,509.4c3.8.2,4.2,5.2,4.8,8.3,1.4,8.4.8,17.3,4.1,25.4,8,9.5,14.7,20,22.2,29.8,7.2,9.4,15.3,18.2,22.2,27.8-2.9,1.8-6.7.7-9.7.7-299.5-.6-480.8.2-780.3.2s-7.6,0-9,0-8.4,0-9-.5c-.8-.4.3-1.9.6-2.4,5-8,15-17.9,21.1-25.9,7.6-9.9,14.5-20.4,22.4-30.1,2.7-6.7,2.5-14,3.4-21,.5-3.4.8-11.7,4.8-12.2,270.5.6,431.7.8,702.2,0h.2Z"/>
        <path class="st1" d="M852.5,600.4c-2.4-8.1-14.5-21.6-24.3-32.5-3.8-4.2-7-7.8-9.2-10.5-13-16.2-16.7-22.7-20.5-44.2,0-.5-.2-1.4-.2-2.4-.3-4.4-.7-8.9-3.7-9.7-.5-.1-.9-.1-1.4-.1.4-.2.7-.4,1-.7,1.1-1.1,1.2-2.8,1.2-3.5h0c-7.2-72.4-17.2-230.3-25.2-328.7-5.5-67-9.8-120-11.3-132.9l-.2-1.4c-1.9-15.2-3.8-29.6-23.1-33.6H117.8c-19.4,4-21.2,18.4-23.1,33.7l-.2,1.4c-4.7,47.6-10.6,155.8-16.8,232.8-6.8,83.7-13.8,170.3-19.6,228.6v.2c0,2.4,1.2,3.8,2.5,4.4-1.2-.3-2.5.1-3.6,1.2-1.3,1.3-1.5,3.9-1.9,7.9,0,1.2-.2,2.3-.3,3-4.3,24.7-9.9,31.5-24.9,49.7-1.6,1.9-3.8,4.4-6.4,7.2C13.6,581.2,0,596.2,0,605.9c0,.8.2,1.6.3,2.2,0,.5.2.9.2,1.3v92.4c0,8.1,6,29.2,33.3,29.2h785.8c20.2,0,33.3-12.3,33.3-31.5v-92.4c0-1.7.3-3.6-.5-6.4v-.3h.2ZM18.1,621.2c1.1.1,2.2.2,3.2.4s2.8.2,4.2.2h805c1.3-.2,2.5-.4,3.7-.6,3.4-.4,7-.9,10.4-2.3v79.3c.2,6.5-2.4,12.6-6.9,17.2-4.6,4.6-10.7,7.1-17.2,7.1H32.7c-13.3,0-24.2-10.9-24.2-24.2v-79.7h0c1.1.5,2.2,1,3.4,1.3h0s4.7,1.1,6.2,1.3ZM61.7,501.3c1.9.2,4.2-1.1,4.8-4.4l.4-2.4h-.3C78.4,347.4,101,35.3,103.6,27.1c4.2-12.6,6.4-17.8,17.8-19h610.8c10.8.8,16.1,5.6,18.4,16.5,2.7,12.9,10.6,121,10.6,122.1l25.8,350.1c.2,2,1.5,3.8,3.2,4.4.4.2.9.2,1.3.2s.2,0,.3,0c-.2.1-.4.2-.6.4-2,1.8-1.8,5.8-1.2,9.8v.3c.9,6.1,2.8,14.9,4.8,21.6,4.3,14.7,18.1,30,30.2,43.4,4.2,4.6,8.1,9,11.4,13l.3.3c3.8,4.7,11,13.6,7.5,19.3-1.8,2.9-6.3,3.1-10.7,3.3-2.8.2-5.4.3-7.6,1.1H27.6c-3.4.1-7.3-.2-10.4-.6-4.4-.5-7.2-1.3-8.3-4.7-1.8-5.7,2.3-11,5.9-15.7v-.2c4.1-5.2,9.1-10.7,14.3-16.5,11.8-13.1,25.3-27.9,29.6-42.6,1.9-6.5,3.8-15.2,4.7-21.2v-1c.4-2.4.7-4.6.5-5.9-.2-1.6-1.2-3.5-2.9-4.2.2,0,.3,0,.5.1h.2Z"/>
        <g>
          <path class="st1" d="M280.5,677.4v2h9.7c.4-2.9-4.2-1.6-4.5-2l.6-3.6c1.7-1.2,6.5,1.2,8.3-2.7,1.5-3.2-.5-7.3-4.1-7.9-2.9-.5-7,.4-10,0v2l2.6.4v12h-2.6v-.2ZM286.4,665.4c3.2-1.6,8,2.5,5.1,5.4-1.1,1.1-4.2.8-5.7.8l.6-6.2h0Z"/>
          <path class="st1" d="M457,677.4v2h9.7c.4-2.9-4.2-1.6-4.5-2l.6-3.6c1.7-1.2,6.5,1.2,8.3-2.7,1.5-3.2-.5-7.3-4.1-7.9-2.9-.5-7,.4-10,0v2l2.6.4v12h-2.6v-.2ZM462.8,665.4c3.2-1.6,8,2.5,5.1,5.4-1.1,1.1-4.2.8-5.7.8l.6-6.2h0Z"/>
          <path class="st1" d="M510.9,669.4c.5.6,4.5,8.8,4.4,9.5-.5,3.1-2.8,4.3-5.7,3.7v2h9.1l-1.9-2.8c3.2-4.3,4.3-10.1,8.3-13.7-1.6-1.8-4.4-.7-6.5-1-.8,2,1.4,1.7,1.3,2.9,0,1-1.1,2.7-1.7,3.6-.4.7,0,1.6-1.3,1.3l-2.9-4.9c-.6-1.8,2.7-.2,1.9-1.9-.7-1.5-7.7-1.9-7.1,1,.7,0,1.5-.2,2,.4h.1Z"/>
          <path class="st1" d="M537.7,679.3c4.9-.6,6.3-4.1,1.5-3-3.4.8-7.5,2.9-8.3-2.8h11c1.2-9-14-8.2-14.3-.3-.2,5.8,5.5,6.7,10,6.1h0ZM538.7,671.6l-7.8-.3c2-2.2,6.9-3.5,7.8.3Z"/>
          <path class="st1" d="M352.5,669l3.3.4v8.1h-3.3v2h11.7v-2h-5.2v-8.4c.4-.4,4.9.9,5.8-1-1-1.9-5.9-.5-6.5-1,0-4,4.3-3.2,7.1-3.2.6-1.8-2.4-2-3.5-2-3.7,0-6.5,1-6.2,5.2h-3.2v2h0Z"/>
          <path class="st1" d="M302.4,679.2c13.8,3.1,14.2-14.1,1.3-12-7.8,1.2-7.1,10.7-1.3,12ZM305,669.1c4.7-.7,7.3,7.7,1.1,8.3-6.3.6-6.2-7.5-1.1-8.3Z"/>
          <path class="st1" d="M373.1,679.2c13.8,3.1,14.2-14.1,1.3-12-7.8,1.2-7.1,10.7-1.3,12ZM375.7,669.1c4.7-.7,7.3,7.7,1.1,8.3-6.3.6-6.2-7.5-1.1-8.3Z"/>
          <path class="st1" d="M426.3,679.2c13.8,3.1,14.2-14.1,1.3-12-7.8,1.2-7.1,10.7-1.3,12ZM428.9,669.1c4.7-.7,7.3,7.7,1.1,8.3-6.3.6-6.2-7.5-1.1-8.3Z"/>
          <path class="st1" d="M506.9,679.4v-2h-1.9c-.2-5.8,1.5-10.7-6.2-10.4-7.5.3-5.6,5.2,1.1,2l2.4,2.5c-4.8-.5-12.1.6-8.9,7,1.8,1.8,10.5-.2,13.5.8h0ZM502.4,673.6c.9,3.8-6.6,5.3-7.1,2.2-.4-2.2,5.4-3.5,7.1-2.2Z"/>
          <path class="st1" d="M343.8,679.4c1.5-.2,7.1-2.4,3.9-3.2-3.3-.8-9.1,6-7.8-5.9.7-1,3.4-.5,4.6-.6,1,0,2.6.6,2.3-1-1-2-6.6-.5-7.1-1v-4.5l-2.3.6-.3,3.9h-3.3v1.9h3.3c0,6.3-1,10.5,6.8,9.7h-.1Z"/>
          <path class="st1" d="M387.6,679.4h13v-2h-5.2v-15.6h-7.1v2c1.4,0,3.9-.6,4.5,1.1v12.6h-5.1v2h0Z"/>
          <path class="st1" d="M475.8,679.4h13v-2h-5.2v-15.6h-7.1v2c1.4,0,3.9-.6,4.5,1.1v12.6h-5.1v2h0Z"/>
          <path class="st1" d="M327.9,677.4h-5.2c-1.1-6.5,2.3-9.1,8.4-7.8l-.4-2c-2.8-1.2-5.4-.5-7.7,1.3l-.7-2c-1.7,0-6.2-.7-5.2,2h2.9v8.4c-1.7,0-4-.4-3.9,2h11.7v-2h.1Z"/>
          <path class="st1" d="M556.9,677.4h-5.2c-1.2-6.5,2.3-9.1,8.4-7.8l-.4-2c-2.8-1.2-5.4-.5-7.7,1.3l-.7-2c-1.7,0-6.2-.7-5.2,2h2.9v8.4c-1.7,0-4-.4-3.9,2h11.7v-2h.1Z"/>
          <path class="st1" d="M405.1,679.4h13v-2h-5.2v-10.4h-6.5v2c1.3,0,3.3-.4,3.8,1.1v7.4h-5.1v2h0Z"/>
          <polygon class="st1" points="412.9 660.6 409.9 661.2 409.6 664.5 412.9 664.5 412.9 660.6"/>
        </g>
        <path class="st1" d="M138,455.1c5.7,4.4,15.7,10.1,27.2,10.8,62.7,3.4,65.2,4.3,128,5.5,14.7.3,29.4,0,44,.5l1,.5c1.4,1.9-2.4,6.1,2,10,6.7,5.8,35.3,5.2,42.5.2.6-.4,2.1-1.6,2.1-2.4v-7.8h11.5c-.4,5-1.4,8.8,4,11.2,8.4,3.8,33,4.2,40.7-1.3.7-.5,1.3-1,1.8-1.7v-8.2h11.5c-.2,4.5-1.4,7.9,3,10.7,7.2,4.5,29.2,4,37.2,1.3,2.2-.7,4.7-2.1,6.2-3.8v-8.8c15.2-.4,30.5-.2,45.8-.5,63.8-1.2,81.2-1.9,144.9-6.1,24.3-1.6,41-25.9,43.7-48.7.7-5.6,2.7-27.2,3.1-33,2.9-122.2,0-262.2-10.1-318.3-3.7-20.8-16-27.3-18.9-28.5-17.9-7.2-49.9-10.1-69.4-10.8-178.8-6.4-248.1-6.4-426.9,0-18.2.6-43,1.6-60.1,6.7-36.3,10.7-36.4,195.6-38.1,226.4-2.6,46.6-1.7,93.5,2,140,1.8,23.2,2,39.6,21,56h.3ZM381.1,478.6c-6.1,4.2-16.4,4.8-23.8,4.3-2.6-.2-15.2-1.9-15.2-5.3v-7.2c12.6,3.8,26.4,4,39,0v8.2ZM342.6,464.4c.2-.3,5.6-2.1,6.5-2.3,7.9-1.9,19.6-1.9,27.4.6,1.6.5,4.2,1,4.6,2.9-.2,1-6.7,2.8-8,3-7.9,1.6-17.7,1.5-25.4-.6-1.1-.3-6.3-1.8-5.1-3.6ZM439.1,478.6c-6.1,4.2-16.5,4.8-23.8,4.3-2.6-.2-15.2-2-15.2-5.3v-7.2c12.6,3.7,26.4,4.1,39,0v8.2ZM431.1,468.6c-8.2,1.6-19,1.6-26.9-1.1-1-.4-4.6-1.5-3.6-3.1.1-.2,4.2-1.6,5-1.8,8.5-2.4,20.5-2.6,28.9.1,1.6.5,4.2,1,4.6,2.9-.3,1.2-6.6,2.8-8,3ZM497.6,471.6c0,2.5-1,5.1-.6,7.7-8.7,3.8-18.8,4.4-28.1,3-2.1-.3-10.8-2-10.8-4.7v-7.2c3.6.8,7.1,2,10.8,2.4,7.6,1,16.3.5,23.8-1.1,1.4-.3,2.9-1.2,4.2-1.3,1.1-.1.7.4.8,1.2h0ZM458.6,465.6c.5-1.9,3-2.4,4.6-2.9,8.4-2.7,20.4-2.5,28.9-.1.7.2,4.8,1.5,5,1.8,1,1.6-2.6,2.8-3.6,3.1-7.9,2.8-18.7,2.7-26.9,1.1-1.4-.3-7.7-1.9-8-3ZM119,255.1c1.9-28.6.7-209.6,37.8-219.5,18.7-4.5,46.3-5.3,65.9-6,176.9-6.8,245.6-7,422.4.5,30,2.5,57,2.5,71.1,16.4,18.4,11.9,18.8,204,19.1,235.6.3,35.1,1,70.4-1.5,105.5-1.9,26.5-2.6,54.1-27.8,69.2-11.5,6.9-25.3,4.9-38.4,5.6-65.8,3.2-83.8,4.8-149.8,6-5.6.1-11.2-.1-16.8,0,.2-3.2.2-5.2-2.5-7.2-7.1-5.2-33.6-5-41.1-.2-4.1,2.6-1.9,4.4-3.6,7.9h-10.8c.2-3.5.4-5.9-2.8-7.9-7.5-4.8-33.9-4.9-41.1.2-3.9,2.8-1.5,4.3-3.3,7.7h-10.8c.2-3.5.4-5.9-2.8-7.9-7.5-4.8-33.9-4.9-41.1.2-2.6,1.9-2.7,3.2-2.6,6.4l-.4.6c-14,0-28.2,0-42.3-.3-57.1-1-48.5-.7-105.6-3.5-19.2-.9-36.6.1-51.7-14.3-9.8-9.3-13.8-20-15.9-33.1-2.8-17.7-3.3-36.5-4.1-54.5-1.6-35.7-1.8-71.7.5-107.5h0Z"/>
        <path class="st1" d="M599.8,560.7c4.4,9.5,7.7,19.9,12.2,29.3.8,1.6,3,6.5,4.7,6.8h199.5c3.3,0,5.1-2.3,5-5.5l-30.7-39.3c-2.9-1.3-5.1,0-7.8,0-56.1.4-112.6-1.1-168.5,0-2.4,0-10.6-1.1-10.8,1.8-.2.7.7,2.1,1.3,2.2h184l28,36-.5,1h-198.5l-14.5-34.5c-1.8-1.6-4.3,0-3.4,2.4h0v-.2Z"/>
        <path class="st1" d="M328.4,595.3l184.6-.3c3.5-1.4,3.9-4.4,3.6-7.8-.4-3.8-4.4-17.5-7.2-19.8-.4-.3-3.3-2-3.5-2h-29.5c-1.3,0-.8,4,.5,4h26.8l-2.6,21.2-1.2.8-160.8-.2-3.5-21.8h132.2c.3,0,1.5-.9,1.7-1.3.4-.7,0-2.7-.7-2.7h-134.5c-.2,0-3.1,1.7-3.5,2-3.2,2.6-7.8,19.2-7.2,23.2.4,2.5,2.3,4.3,4.8,4.8h0ZM507.6,572.8c1.1.5,1.3,2.1,1.6,3.1,1,3,3,9.4,3.3,12.3,0,.8,0,1.9-.5,2.5-1.1,1.1-5.2.4-6.9.6l2.5-18.5h0ZM331.6,573.8l3,17.5c-2-.2-6.6.9-6.9-1.9-.4-3.6,3.4-11.7,3.9-15.6Z"/>
        <path class="st1" d="M622.2,588.8h182.5l5.2-1-.5-3.1c-7.2-6.8-13.8-20.9-21.4-26.6-2.8-2.1-3.3-.8-6.2-.7-56.5.8-113-.7-169.5,0-1.6,0-3.1,1.9-3.2,3.3-.3,2.7,4.6,13.3,6.1,16.4,1.2,2.5,5,11.4,7.2,11.8h-.2,0ZM787,563.3l16.5,21.5h-16.2l-.7-1.1.4-20.4h0ZM613.5,561.3h169v23.5h-158.8c-3.7-7.7-8-15.2-10.2-23.5Z"/>
        <path class="st1" d="M541.2,595.2c10.3-6.1,22-9.3,32.7-14.3,1.8-.8,7.3-3.1,7.7-4.8.2-1.3.6-5.7.5-7-.2-2.8-3.6-3.5-6.2-4.3-16.8-5.2-35.2-8-52.2-12.8-1.8-.3-3.8-.3-5.1,1.1v11.5c0,1.5,13.6,24,15.3,26.2,1.6,2.1,4.5,5.3,7.3,4.4h0ZM577.6,570.3c0,1.4.4,4-.8,5-3.6,1.9-7.4,3.6-11.2,5.2-6.2,2.7-15.3,7.1-21.5,9-.5.2-1,.3-1.5.2v-6l35-13.5h0ZM574.1,567.4l-33.2,13.9-16.7-25.9,50,12h0ZM523.1,561.8c.8.2,1.2,1,1.6,1.6,3,4.1,11.4,16.3,13.1,20.4.7,1.6,0,3.8.3,5.5-1-.5-1.6-1.7-2.2-2.5-2.9-4.2-10.8-16.8-12.4-21.1-.5-1.3-.5-2.5-.4-3.9h0Z"/>
        <path class="st1" d="M266.7,580.9c10.7,5,22.4,8.2,32.7,14.3,2.9.9,5.7-2.4,7.3-4.4,2-2.6,14.5-23.6,15-26,.9-3.4,1.2-14.7-4.9-12.9-17,4.8-35.4,7.6-52.2,12.8-1.6.5-5.9,1.8-6.2,3.3s.3,7.5.6,8.4c.4,1.2,6.1,3.7,7.6,4.4h.1ZM317.6,561.8c0,1.4.1,2.5-.4,3.9-1.6,4.3-9.5,16.9-12.4,21.1-.6.9-1.1,2.1-2.2,2.5.2-1.7-.4-3.9.3-5.5,1.7-4.1,10.1-16.3,13.1-20.4.4-.6.9-1.4,1.6-1.6h0ZM316.6,555.4l-16.7,25.9-33.2-13.4,50-12.5h0ZM263.1,570.3l35,13.5v6c-.5,0-1,0-1.5-.2-7.4-2.3-21.4-8.5-28.5-12-3.7-1.9-5.8-2.4-5-7.2h0Z"/>
        <path class="st1" d="M196.6,584.1c6.9,5.1,28.9,4.3,37,2,3-.8,7.1-2,7.5-5.5.3-2.3.3-11.8-.6-13.5-1.1-2.2-4.3-3.3-6.6-3.9-6.9-2.1-15.8-2.3-23-1.7-6.2.5-16.1,1.4-16.9,9.1-.4,4-.9,10.9,2.5,13.5h.1ZM227.1,565.5c1.1.2,11.4,2.2,9.9,4.3-2.7,1.3-5.4,2.3-8.4,2.9-9.3,1.7-22.6,1.9-30.6-3.6,7.9-4.9,20.1-5,29.1-3.6h0ZM198,574.3c12.6,3.8,26.4,4,39,0,.7,6.8-.6,7.2-6.6,8.7-7.8,1.8-17.6,1.9-25.4,0-5.9-1.4-7.9-2-7-8.8h0Z"/>
        <path class="st1" d="M143.1,586c9.1,2.8,27,2.9,35.7-1,6.1-2.8,3.6-5.5,3.6-10.8s1.9-5.5-1.5-8.5c-5.4-4.6-21.1-4.7-28.1-4.1-4,.3-13.5,1.6-15.8,5.2-1.4,2.2-1.6,12.7-.6,15,1.1,2.6,4.2,3.6,6.7,4.3h0ZM178.2,568.4c.6.4,1,.5.8,1.4-9.8,4.4-22.6,5.1-33,2.3-2.1-.6-4.5-1.3-6-3,7.3-5.5,31.4-5.9,38.2-.7ZM140,574.3c12.6,3.8,26.4,3.9,39,0,.1,5.3.9,6.2-4.2,8-7.9,2.8-23.5,2.8-31.3-.3-4.8-1.9-3.4-3-3.5-7.7h0Z"/>
        <path class="st1" d="M85.2,586c9.1,2.8,27,2.9,35.7-1,5.8-2.6,3.7-4.8,3.6-9.8,0-5.6,2-8.4-4.3-11.2-6.7-2.9-18-3-25.2-2.5-4,.3-13.9,1.7-16.1,5.4-1.2,1.9-1.2,12.7-.3,14.8,1.1,2.6,4.2,3.6,6.7,4.3h0ZM120.2,568.4c.6.4,1,.5.8,1.4-9.8,4.4-22.6,5.1-33,2.3-2.1-.6-4.5-1.3-6-3,7.3-5.5,31.4-5.9,38.2-.7ZM82,574.3c12.6,3.9,26.4,3.9,39,0,0,5.3.9,6.2-4.2,8-7.9,2.8-23.5,2.8-31.3-.3-4.8-1.9-3.4-3-3.5-7.7Z"/>
        <path class="st1" d="M601.5,553.6c-1.8-2.3-4.6,1-2.9,2.7,1.5,1.5,4.7-.5,2.9-2.7Z"/>
      </g>
      <path class="st1" d="M118.3,255.1c1.9-28.7.7-210.3,37.9-220.2,18.8-4.5,46.5-5.3,66.1-6,177.5-6.8,246.4-7,423.8.5,30.1,2.5,57.2,2.5,71.3,16.5,18.5,11.9,18.9,204.7,19.2,236.4.3,35.2,1,70.6-1.5,105.8-1.9,26.6-2.6,54.3-27.9,69.4-11.5,6.9-25.4,4.9-38.5,5.6-66,3.2-84.1,4.8-150.3,6-5.6.1-12.1-.1-17.8,0,.2-3.2.2-5.2-2.5-7.2-7.1-5.2-32.8-5-40.3-.2-4.1,2.6-1.9,4.4-3.6,7.9h-11.7c.2-3.4.4-5.8-2.8-7.8-7.5-4.8-33.1-5-40.3,0-3.9,2.8-1.5,4.3-3.3,7.7h-11.7c.2-3.4.4-5.8-2.8-7.8-7.5-4.8-33.1-5-40.3.1-2.6,1.9-2.7,3.2-2.6,6.4l-.4.6c-14,0-28.3,0-42.4-.3-57.3-1-48.7-.7-105.9-3.5-19.3-.9-36.7.1-51.9-14.3-9.8-9.3-13.8-20.1-16-33.2-2.8-17.8-3.3-36.6-4.1-54.7-1.6-35.8-1.8-71.9.5-107.9h-.2v.2Z"/>
    </g>
    <g>
      <g>
        <rect class="st0" x="704.4" y="530.5" width="8.3" height="54.3"/>
        <path class="st2" d="M715.3,531.4c0,1.1.5,2.1.5,3.2.4,16.7,0,33.5,0,50.2h-4.2c-.2-16.9-.6-33.8,0-50.7,0-.9.4-1.7.5-2.6h-6.1v53.3h-4.1l.2-53.5c0-.4-6.2-2.2-7.4-2.8-18.8-8.8-25-34.4-11.8-50.6,13.3-16.3,37.6-17.1,51.4-1,16.9,19.8,5.5,48.9-18.9,54.5h-.1Z"/>
        <path class="st0" d="M709,527.2c-16,0-28.9-12.9-28.9-28.9s12.9-28.9,28.9-28.9,28.9,12.9,28.9,28.9-12.9,28.9-28.9,28.9Z"/>
      </g>
      <g class="st3">
        <path class="st1" d="M709,523.6c-1.1,0-2-.9-2-2s.9-2,2-2c7.5,0,14.4-3.8,18.4-10.2.6-.9,1.8-1.2,2.8-.6.9.6,1.2,1.8.7,2.8-4.7,7.6-12.8,12.1-21.8,12.1h-.1Z"/>
      </g>
      <g class="st3">
        <path class="st1" d="M732.2,504.1h-.3c-1.1-.2-1.8-1.2-1.6-2.3.2-1.2.3-2.4.3-3.7s.9-2,2-2,2,.9,2,2,0,2.9-.4,4.4c-.2,1-1,1.7-2,1.7h0Z"/>
      </g>
    </g>
  </g>
  <path class="st0" d="M178.7,35.5c0-.6-.5-1.1-1.1-1-17,.6-30.2,15.9-38.1,44.3-5.3,19-7.8,40.6-7.8,40.6l3.4-2c12.3-75.3,37.7-79.9,42.7-80.9s.8-.5.8-1h0Z"/>
  <path class="st0" d="M129.7,155.2c-.2-13.1.2-17.9,1.3-27.3l2.9-2c-2.1,10-2.7,19.7-3.6,29.3h-.6Z"/>
</svg>