<?xml version="1.0" encoding="UTF-8"?>
<svg id="_图层_1" data-name="图层_1" xmlns="http://www.w3.org/2000/svg" version="1.1" viewBox="0 0 171 139">
  <!-- Generator: Adobe Illustrator 29.5.0, SVG Export Plug-In . SVG Version: 2.1.0 Build 137)  -->
  <defs>
    <style>
      .st0 {
        fill: #faf9f6;
      }

      .st1 {
        fill: #363636;
      }
    </style>
  </defs>
  <path class="st0" d="M3.9,115.3c-.8-.8,5-7.9,5.7-9.4s.8-3.3,1.9-4.7c-3.8-5.8-6-11.6-7.1-18.5C-1.6,43.5,19.5,20.3,54.7,8.3c41.1-14,108.9-2.8,112.6,50.4,4.7,68.7-84.2,92.4-135.2,67-3.7-1.8-15.4-10-18.2-10s-2.1.6-3.1.6c-2.1,0-4.7-1-6.9-1Z"/>
  <g>
    <path class="st1" d="M151.7,22.3C132.1,2.7,98-1.9,71.5,2.3,48,6,15.9,21.3,6.6,44.7-.1,61.4-.5,86.6,9.7,101.9c-1.8,3.5-12.1,12.3-6.4,15.5,3.7,2.1,10.3,1.4,14.6,2.8,4.8,1.6,11.3,6.9,16.6,9.3,36.7,16.4,91.9,9.3,119.1-21.9,21.4-24.5,21.3-62.1-1.9-85.3ZM33.3,124.8c-3.6-1.8-15-9.7-17.8-9.7-1.1,0-2.1.6-3,.5-2.1,0-4.6-1-6.7-1-.8-.8,4.9-7.7,5.6-9.1.7-1.3.8-3.2,1.9-4.6-3.7-5.7-5.8-11.3-6.9-18.1C.4,44.5,21,21.8,55.4,10.2c40.2-13.7,106.4-2.7,110,49.2,4.6,67.1-82.2,90.3-132.1,65.5Z"/>
    <path class="st1" d="M62.3,110.3c-1.8-3.3-5.4-9.5-9.8-8.7-1.5.3-1.7,2-3.3,2-.7-2.6-2.7-14.2-4.5-15.3-1.3-.8-2.6,0-2.8,1.5,3,9,4.1,18.8,8.5,27.3.5.7,2.7.3,2.8-.4-1-4-2.8-8,.2-11.7,4,.7,7.4,13.6,10,13.4.8-.6,1.8-1.2,1.5-2.4-.3-1.2-2-4.6-2.7-5.8Z"/>
    <path class="st1" d="M104.7,83.5c-.5,1.1-.5,3.5-1.1,3.9-4.8-1.4-6.8,1.6-7.5,5.9l-1,.3c-.5-2-3.8-5.1-5.8-3.5-2.2,1.7,1.7,3.9,2.8,5.3,1.2,1.6,2.4,5.9,5,5.1,3-.9,1.8-6.8,3.4-9.1,1.9-1.3,3,3.4,5.5,2.6,3.2-1,.1-6.9,2.2-8.8,1.4-1.3,4.7,4.8,6.7,1.7,1.1-3.4-7.7-9-10.3-3.3Z"/>
    <path class="st1" d="M88.1,100.9c-3.5-2.3-5.7-9.2-6.9-13.1-.8-2.8-2.4-13-3.2-14.3-.6-1-1.5-1.1-2.6-.8-1.9.6.2,7.6.5,9.3,1.4,6.6,4.7,19.6,11.3,22.7,1.6.7,6.7,2.5,7.3,0,.6-2.3-4.7-2.9-6.4-3.9Z"/>
    <path class="st1" d="M141.8,75.1c-1.5-.5-4.3-5.2-4.2-6.7,0-.8,3.4-2.6,2.3-4.2l-3.2-.5c-1.3-2-.3-12.6-3.9-11.5-2.8.8.8,10.8.2,13.1-.2.6-3.1,1.3-2.3,2.9.7,1.4,2.8.6,3.5,1.5.4.5.6,2.2,1,3,.8,1.6,3.3,5,4.9,5.6,2.4,1,11.2.9,8.4-3.4-1-.7-4.6.8-6.7.2Z"/>
    <path class="st1" d="M43.7,66.9c-1.7-4.6-5.4,2.5-8.3,2.7-5.7.4-6.4-13-.7-14.8,1.7-.5,6,1,6-1.5,0-2.6-4.9-2.5-6.6-2.1-9.7,2-9.2,23.8,2.9,21.9,1.7-.3,6.9-4.5,6.8-6.2Z"/>
    <path class="st1" d="M121.3,68.8c-5.2,1.2-5.9,9.5-3.3,13.6,1.5,2.3,6.8,6.2,8.8,3-.2-2.7-3.6-2.2-4.9-4.4,2.1-1.3,4.3-2.1,5.4-4.6,2.1-4.9-.6-8.8-6-7.6ZM123.3,76c-.5.4-3,1.5-3.3,1.2-.3-7.2,7.7-5.2,3.3-1.2Z"/>
    <path class="st1" d="M48.5,63.7c.7,2.2,2.1,8.3,4.8,4.2l-9.5-33.5c-.5-.3-1.2-.4-1.7-.2-1.2.4-.8,2.6-.7,3.6,1,6.7,4.9,19.1,7.1,25.9Z"/>
    <path class="st1" d="M85,52.6c.7,1.8,2.5,4.5,3.9,1.6.7-1.4-2.7-9.9-3.4-12.1-1.6-5.4-3-10.8-4.5-16.3h-2.8c-.2,1.3-.1,2.7,0,4,.8,5.6,4.6,17.3,6.7,22.8Z"/>
    <path class="st1" d="M77.6,59.3c-.9-5-4.9,1.2-7.7-2.7-1.5-2-.3-7.2,1.6-8.5,1.7-1.2,5.3-.2,3.5-3.9-7.8-3-12.4,10.9-7.4,15.7,2.6,2.4,8,2.7,9.9-.6Z"/>
    <path class="st1" d="M96.8,46.7v-2.5c-1-.6-3.9-1.1-4.2-2.4-.5-2.1,4.1-3.7,2.7-6.7-1.7-3.5-7.6,4.9-6.6,8.1.6,2,7,5.1,8.2,3.4Z"/>
    <path class="st1" d="M62.1,62.3c.2-.8-3.3-14-3.9-14.4l-1.7-.2c-.7.2-1.2,1.4-1.3,2.2,0,1.1,2.8,11.4,3.5,12.4,1,1.6,2.8,1.9,3.3,0Z"/>
    <path class="st1" d="M52,40.7c1.8.5,2.7-2.2,1.7-3-1.9-1.4-3.6,2.4-1.7,3Z"/>
    <path class="st1" d="M69.2,105.4c2.6-2.2,5.3-3.4,4.4-7.4-.4-1.7-2.5-2.8-4.1-2.7-1.6,0-4.2,2-5,3.4-3.8,6.3,2.2,12.9,8.9,11.4l.8-.7-.2-1.7c-.9-1.5-5.1-.4-4.7-2.2ZM66.4,101s.7-2.6,2.1-3.2c1.4-.6,2.9.4,2.5,1.6-.4,1.2-4.3,4.1-4.6,1.6Z"/>
  </g>
</svg>