<?xml version="1.0" encoding="UTF-8"?>
<svg id="_图层_1" data-name="图层_1" xmlns="http://www.w3.org/2000/svg" version="1.1" viewBox="0 0 218 276">
  <!-- Generator: Adobe Illustrator 29.5.0, SVG Export Plug-In . SVG Version: 2.1.0 Build 137)  -->
  <defs>
    <style>
      .st0 {
        fill: #363636;
      }
    </style>
  </defs>
  <path class="st0" d="M92.7,143.1c-9.7-6.2-25.4-6.8-34.5.7-1.3,1-5.8,5.4-5.5,6.8.1.6,1.7,1.4.1,1.8-.9.2-3,.2-3.9,0-1.7-.3-3.9-2.8-5.3-1.8-3.3,2.5,4.3,5.2,6.3,5.3,1.8,0,8.7-.6,8.6-2.8,0-1.5-1.6-1.8-2.9-1.7,7.2-11.1,23-12.1,33.9-6.3,1.4.7,8.5,6.6,8,2-.1-1.1-3.7-3.5-4.9-4.2Z"/>
  <path class="st0" d="M172.5,150.6c-1.4-.4-7.6,4.4-9.6.9.3,0,.7,0,.9-.1,1.7-1.9-6.5-8.8-8.2-9.8-7.2-4.1-18.7-3.9-26.4-1.1-2,.7-10,5-10.2,6.8-.5,4.9,6.5-1.2,7.7-1.9,10.5-6,27.2-5.1,34.3,5.8-2.5-.1-3.6,2.3-1.5,3.5,3.3,1.9,10.9,1.6,13.7-1.2,1.1-1.1.8-2.6-.6-3Z"/>
  <path class="st0" d="M138.3,153.1c-1,.2-3.1,3.1-3.5,4-1.3,3.1-1.8,13.1,2.9,13.4,7.1.5,6.3-18.3.6-17.5Z"/>
  <path class="st0" d="M80.9,169.9c2-1.7,1.9-8,1.5-10.5-.3-1.7-2.5-6.6-4.5-6.3-5.1.7-5.1,14.7-1.1,17,1.2.7,3,.7,4.1-.2Z"/>
  <path class="st0" d="M124.5,137.3c1.5-1.2,8.7-4.1,8.9-4.6.7-2.3-1.3-2.3-3.1-2.1-4.3.6-11.4,6.5-14.1,9.9-1.3,1.7-3.8,4.5-.6,5.4,3.3-2.3,5.6-6.2,8.9-8.6Z"/>
  <path class="st0" d="M96.7,138.5c-2.8-2.4-11.3-6.6-14.9-5.4-.6.2-.8.6-.9,1.2,0,.6,0,1.1.5,1.5.7.6,7.6,2,9.8,3.2,3.4,1.8,5.2,4.6,8,7h.8c3.7-.9-2.1-6.4-3.4-7.4Z"/>
  <path class="st0" d="M148.7,170.1c-1,.2-1.8,1.3-2.9,1.7-2.8,1-7.3,2.3-10.2,2.3-2.2,0-4.5-1.3-6.5,0-2.7,3.8,8.3,3.2,10,3,2.5-.2,10.4-2.2,11.5-4.5.8-1.7,0-2.8-1.9-2.4Z"/>
  <path class="st0" d="M80.8,174c-1.6,0-5.6-.8-7.2-1.3-1.7-.5-5-2.7-5.8-2.8-1.7-.2-2.8,1.5-1.6,2.9,1.6,1.9,8.5,3.9,11.1,4.1,2,.2,10.3.6,10.7-1.8-1-3.1-4.8-1.1-7.2-1.1Z"/>
  <path class="st0" d="M103,181c3.8.7,2.1-3,4.4-4.7,3.2-2.3,6.3.5,7.5,3.6l2.4-.4c-.2-10.7-17.2-9.4-14.4,1.5Z"/>
</svg>