<?xml version="1.0" encoding="UTF-8"?>
<svg id="_图层_1" data-name="图层_1" xmlns="http://www.w3.org/2000/svg" version="1.1" viewBox="0 0 218 276">
  <!-- Generator: Adobe Illustrator 29.5.0, SVG Export Plug-In . SVG Version: 2.1.0 Build 137)  -->
  <defs>
    <style>
      .st0 {
        fill: #363636;
      }
    </style>
  </defs>
  <path class="st0" d="M156.3,154.5c-.4-.6-1.3-.5-1.9-.4-1.5.3-5.9,3.6-8,4.5-7.6,3.2-16,3.7-24.1,2.5s-1.5,0-2,.5c-2.1,1.5,0,2.5,2.6,2.8,8.2,1.2,17.2.2,24.9-3,1.4-.6,7.6-3.9,8.3-4.7.6-.8.8-1.4.3-2.3Z"/>
  <path class="st0" d="M85.7,164c-8.3.7-18.2-.6-25.7-4.4s-1.2-.2-1.6.2h0c-.7.7-.6,2,.2,2.6,3,2.1,10.8,3.8,12.6,4.1,7.7,1.2,15,1.2,22.4-.9s1.5-1.1,1.6-2h0c0-.6-.4-1.1-1-1.1-2.9,0-5.7,1.3-8.7,1.5Z"/>
  <path class="st0" d="M117,159.8c.9-.2,5.4-3.7,7-4.6,2.9-1.6,6-2.9,9.2-3.9s1.5-1.3,1.1-2.2c-1.1-2.3-5.9.3-8.1,1.3-2.4,1-9.2,4.5-10.7,6.3-1.3,1.6-.6,3.6,1.5,3Z"/>
  <path class="st0" d="M75.8,151.1c-1.4.5-1.1,2.4.3,3.1,1.6.7,4.5.6,6.4,1.1,2.2.6,10.8,4.4,11.7,4.3,1.5-.1,1.6-1.7.8-2.8-1.6-2.2-16.6-6.5-19.2-5.6Z"/>
  <path class="st0" d="M102.8,179.8c.1.8.9,1.3,1.6,1.1,2-.4,1.1-3.3,3-4.7,3-2.2,5.8.1,7.2,2.9s.7.6,1.1.6h.6c.6-.2,1-.7.9-1.3-1.2-9.2-15.9-8-14.5,1.5Z"/>
  <path class="st0" d="M129.4,170.4c-1.4-.3-5.4-2.6-5.9,0-.4,2.6,10.5,4.6,12.4,3.1,1-3.2-4.1-2.6-6.6-3.1Z"/>
  <path class="st0" d="M85.9,172.1c-1.1.2-3,.9-4.3,1.3-1.7.4-3.4-.6-4,1.9.2,2.5,7.4.6,8.9,0,2.8-1.2,2.9-3.6-.6-3.1Z"/>
</svg>