<?xml version="1.0" encoding="UTF-8"?>
<svg id="_图层_1" data-name="图层_1" xmlns="http://www.w3.org/2000/svg" version="1.1" viewBox="0 0 218 276">
  <!-- Generator: Adobe Illustrator 29.5.0, SVG Export Plug-In . SVG Version: 2.1.0 Build 137)  -->
  <defs>
    <style>
      .st0 {
        fill: #faf9f6;
      }

      .st1 {
        fill: #363636;
      }
    </style>
  </defs>
  <path class="st1" d="M103.4,108.6c14.6-1.1,35.9,1.8,48.8,8.9s3.6,3,4.7,3.3,3.6,0,5.3.2c11.3,1.7,20.5,8,24.4,19.1s-.4,24.4-7.4,30.8c-13.1,12.1-48.3,22.8-66,23.5-29.1,1.3-62.8-6.2-81.8-29.8-6.8-8.5-9.7-29.4,1.3-35.7s26.4-9.4,35.8-12.2,22.9-7.3,34.8-8.2ZM158.9,136.1c-6.7-2.8-2.2,6.7-1.5,10.3s.2,7.9,1.9,9.1,2.8.6,3.2-.9c.8-2.7-1.6-16.6-3.5-18.5ZM155.4,153.6c-4.6-3.3-4.9,5.6-2.8,6.5h1.9c2.1-1.6,1.7-4.3.9-6.5Z"/>
  <path class="st0" d="M158.9,136.1c2,1.9,4.3,15.9,3.5,18.5s-2,1.7-3.2.9c-1.7-1.2-1.4-6.9-1.9-9.1-.7-3.5-5.2-13.1,1.5-10.3Z"/>
  <path class="st0" d="M155.4,153.6c.8,2.3,1.2,4.9-.9,6.6h-1.9c-2.2-1-1.8-9.9,2.8-6.6Z"/>
</svg>