<?xml version="1.0" encoding="UTF-8"?>
<svg id="_图层_1" xmlns="http://www.w3.org/2000/svg" version="1.1" viewBox="0 0 218 276">
  <!-- Generator: Adobe Illustrator 29.5.0, SVG Export Plug-In . SVG Version: 2.1.0 Build 137)  -->
  <defs>
    <style>
      .st0 {
        fill: #faf9f6;
      }

      .st1 {
        fill: #363636;
      }
    </style>
  </defs>
  <path class="st0" d="M218,0v150.2h-20.1c-2.4-1.8-4.1-3.8-4.6-5.9-1.8-8.8-11.7-11.1-11.7-11.1l-8.1-7.3-5-3.5-4.5,1.2-6-2.8c-33.7-18.8-75.5-8.2-80.9-6.9-5.5,1.3-29.4,9.7-29.4,9.7l-2.5,3.5-6.3,12.9s-5.5-3.3-6.8,3.3c-.4,2.2-2,4.7-4,6.9H5.2c-2-3-3.7-6.3-5.2-9.3V0h218Z"/>
  <g>
    <path class="st1" d="M215.2,115.1c-1.2-2.2-4.3-3.4-4.5-3.7-.2-.4-.6-4-1.3-5.4-1.3-2.6-3.6-4.3-6.5-3l-.6-.4c-2-18-7.4-34.6-18.5-49-2.1-2.6-4.8-6-7.2-8.3-1.4-1.4-8.3-6.1-8.7-6.8-.4-.8-.2-1.9-.6-2.9-1.5-3.5-22.1-14.6-26.1-15.4-5.8-1.2-8.5,2.9-7,8.2,4.6,1.6,1.5-5.4,5.5-4.8,2.2.3,13.3,6.2,15.9,7.6,1.6.9,8.5,4.9,8.5,6.5,0,2.3-6,5.8-4.3,8.3,1.8,2.6,5-3.4,5.8-3.8.7-.4,1.1,0,1.7.4,8.6,3.9,20.1,21.5,23.9,30.1,5.7,12.9,7.3,26.5,8.9,40.3-6.9-1.9-13.8-4.2-20.8-6-47-12-93.9-12-140.9,0-7,1.8-13.9,4-20.8,6,1.5-13.9,3.3-27.8,9.1-40.7,3.6-8,10.1-18,16.4-24.1,1.1-1,7-5.7,8-6,2.1-.6,3.5,5.6,6.5,4.1,3.1-2.2-5.8-6.8-3.3-9.8s17-10.2,21.1-11.9c5.2-2.1,4.3-1,5.7,3.9h2.4c1.5-4.4-.7-8.9-5.7-8.4-3.9.4-24.9,11.6-27,15-.8,1.4-.5,2.8-1.3,3.7-1.5,1.9-7.3,5.3-9.7,7.8-14.8,14.9-22.2,35.4-24.5,56l-.6.4c-5.5-1.9-7.3,4.4-8,8.6l-.5.4c-4-1.5-4.7,2.4-5.2,5.4-1,6-1.1,17.4,0,23.3.9,4.5,4.2,4.5,4.8,5.4.2.3.4,5.3.9,6.8.6,1.9,1.7,3.6,2.9,5.1,1,1.2,3.7,4.4,5.3,3.3,1.8-2.8-2.2-4.6-3.5-6.5-4-5.6-2.3-23.8-2-31,.2-4.9-.2-10,1.2-14.8.4-1.5.6-3,2.5-3,3.4,0,.8,3.2,1.3,5.7.2,1.1,1.4,1.7,1.4,2,0,.5-2.6,3.1.8,3.3,24.5-8.3,49.8-12.9,75.5-15,16.5-1.4,31.1-.3,47.5,1.5,21,2.4,41,6.9,61,13.5l2.1-1.4c0-.9-.4-1.8-1.4-1.7,2.7-1.6,1.3-4.7,1-7.5,3.1-1.2,3.4-.3,4.2,2.5,2.2,7.2,2.2,25.8,1.8,33.8-.1,2.7-.5,7.8-1.4,10.1-1.4,3.3-6.2,4.9-4.6,8.4,2,1.4,6.3-4.4,7.1-5.9,1.6-3.2,1.2-6.9,2.2-8.8.3-.6,2.4-1.7,3.3-2.7,3.9-4.8,2.9-23.2.1-28.6h.2,0ZM6.1,117.2v24.8c-1.6-.6-1.8-3.2-2-4.8-.2-2.7-.2-21.4,1-22.2l1.5.5c.3.7-.5,1.5-.5,1.7ZM214,137.2c-.2,1.4-.7,4.4-2.4,4.3-.3-8,.4-16.2,0-24.2,0-.2-.5-.5-.5-1l1-.3c1.9,6.4,2.7,14.5,2,21.2h-.1Z"/>
    <path class="st1" d="M199.2,173.3c-13.6,29.5-36,53.8-69,60-52.1,9.7-90.2-13.3-111.7-60-.7-1.6-1.4-5.3-2.8-5.7-3.7-1.3-1.4,4.7-.7,6.2,2.6,6.6,7.1,13.5,11.1,19.4v.7c-5.2.7-4.9,6.4-4.4,10.6.9,6.5,6.1,20.9,8.9,27.1.8,1.7,3.2,7.7,5.5,6.1,1.8-1.3-1.5-5.4-2.1-6.9-2.9-6.8-8.9-22.2-9.4-29.2-.2-3.1.9-3.9,2.7-6.2,6.8,10.4,16,20.2,26.1,27.4,25.5,18.2,65.5,20,94.3,9,17.4-6.7,32.4-21,42.6-36.4,1.8,2.2,2.9,3.1,2.7,6.2-.5,6.9-6.4,22.5-9.4,29.2-.7,1.5-3.9,5.7-2.1,6.9,2.3,1.6,4.7-4.5,5.5-6.1,2.8-6,8.1-20.7,8.9-27.1.5-4,.8-10-4.4-10.6,1.5-3.4,4.2-6.7,6.1-10.2,1.5-2.7,6.2-11.5,6.4-14.1,0-.4-.3-2-.5-2.2-2.5-1.7-3.7,4.3-4.4,5.8h0Z"/>
    <path class="st1" d="M108,44.6c-3.3.2-24,2.5-25.2,4.3-.4.6-.4,1.5,0,2,1,1.4,10.5-1.2,12.6-1.5,15.5-2,48.5-2.5,58.9,11,9,11.6,1,30.9-14.4,29.4-12.8-1.2-22-9.1-36.6-8-14.3,1.1-33.7,19.5-44.1,2.2-7.4-12.3.7-24.7,13.1-28.7,1.9-.6,9.9-.7,7.3-3.8-2.5-3-14.1,2.8-16.9,4.7-19.7,13.2-7.5,45.2,16.8,37.8,11.4-3.5,17.3-9.8,30.9-8.6,15.4,1.3,33.8,17.2,46.5.4,8.1-10.8,6.2-23.9-4.2-32.2-8.8-7.1-33.5-9.7-44.6-9.1h-.1Z"/>
    <path class="st1" d="M195,143.3c-.5-1.6-.9-4.5-3.2-3.7-1,.3-.9,1.8-.8,2.7.4,7.1,3.6,9.1.9,17.4-9.7,29.9-58.2,41-85.6,40.9-28.7-.1-83-13.8-85.3-49.3-.2-3,.6-6.5.5-9-.2-3.1-3.5-3.6-4,1-4.2,41.2,48.7,58.5,81.3,60.2,21,1.1,49.7-2.9,68.1-13.4,17.1-9.8,34.4-25,28.1-46.8Z"/>
    <path class="st1" d="M167.1,243.3c2-1.1,2.2-10,3.2-12.3.3-.7,9.1-8.4,10.7-10.3,2.8-3.4,8.2-11,10.2-14.8.5-1.1.8-1.8.3-2.9-.7-.1-1.5-.2-2.1,0-1.2.4-7,10.2-8.4,12.1-14.4,19.4-44.8,32.5-68.6,33.9s-59.1-12.7-74-31.6c-3.5-4.4-6.2-9.4-9.5-14-2.7-1.4-3.8,0-2.5,2.5,2,3.8,7.4,11.4,10.2,14.8,1.7,2,9.7,8.8,10.2,9.8,1,1.9,1.8,10.3,3.7,11.3,5,2.5.8-5.9.5-7-.2-.8,0-.8.7-.7l5.3,2.7c1.3,2.3.8,5.7,3.3,7.2,2.3-.6,1.6-2.1,1.3-3.8-.2-.8,0-.7.7-.7,9.5,5.8,20.2,9.4,31.1,11.4,25.9,4.5,51-2.8,72.4-17.4,1.3-.1.5.2.4.9-.3,1.4-3.2,11.1.9,8.9h0Z"/>
    <path class="st1" d="M63.2,116.9c-2.2.7-9.1,2.6-8.6,5.3.7.8,2.2.9,3.2.7,2.5-.5,8.2-3.2,11.4-4.2,7.8-2.4,16.8-5.4,24.8-6.7,18.1-3,46.9-1.3,61.9,10.5,3.8,3,2.5,12.2,8.2,14.9l1.7-.7c1.3-1.6-1.7-3.4-2.6-5.4-1-2.3-1.2-4.9-1.9-7.3,1.5-.2,2.8,1.1,4.3,1,1.3,0,1.6-1.1,2.7-1-.4,2.8-1.5,4.9,0,7.7,1.1,2,3.8,3.3,5.2,4.8.7.8,4,7.4,5.2,3.7,1.6-4.9-11.4-10.6-7.5-13.5l27.7,2.7c2.6-.5,6.5-.6,6.3-4.2,0-2.3-3-6.5-5.1-4-1.4,1.6,2.3,3.6,1.5,4.3h-6.7c-5.5-.3-16.4-.9-21.5-2-5.3-1.2-3.5-7-6.1-7s-1.8,3.6-1.3,5c-6.7-1-12.1-4.7-18-7.2-28.1-12-57-6.9-84.9,2.6h.1Z"/>
    <path class="st1" d="M27,142.7c0-1.6,1-3.1,0-4.7l-2.5.2c-5.3,20.2,10,37.6,26.9,46.1,23.6,12,51.9,14.9,77.8,9.9,12.1-2.4,23.6-6.5,34.9-11.2.3-2,0-2.6-2.1-2.6-18.2,6.8-38.4,13.9-58.1,12.9-30.2-1.5-77.6-12.5-76.8-50.8v.2h0Z"/>
    <path class="st1" d="M180.3,241.5l-1.7.2c-4.9,4.9-11.1,8.9-17.2,12.3-39.9,23.1-65.3,23.1-105.2,0-6-3.5-12.2-7.4-17.2-12.3-.5-.2-1.5-.5-1.9-.2-2.2,1.5,2.6,5.5,3.7,6.4,14.3,12.2,45.2,25.8,64,27,21.3,1.4,55.8-13.2,72-27,1-.9,6.4-5.5,3.5-6.4h0Z"/>
    <path class="st1" d="M12.5,125.3c-.3,6.7,13.7,2.7,17.5,3.2l-7.2,4.5c-1,.9-.4,2.9,1,3,.8,0,5.7-3.3,7.1-4,2-.9,5.3-1.7,6.9-2.6.9-.6,1.2-1.7,1.4-1.8.6-.4,2.9,0,3.9-.6-.3,1.7-1.6,3.1-1.9,4.9-.3,1.6,0,3-.4,4.6-.5,1.6-3.4,2.6-3.6,3.8-.7,3.6,4.7.9,6.1-1.3,1.8-2.8.7-4.9,1.5-7.5.6-1.9,2.9-3.1,3.2-3.6.3-.5,0-1.6.4-2.4.3-.7,1.9-1.6,2.5-2.5,1.1-1.6,2.4-6.5-.5-6.5s-.9,5.7-5.6,6.9c-9.5.9-19.1,2.1-28.6,2.1l1.9-3.7c-2.1-3.5-5.4.8-5.5,3.4h-.1Z"/>
    <path class="st1" d="M73.7,62.9c1.9-.9,8.2-1.8,6.3-4.8-.9-1.4-6.4.9-7.6,1.5-2.5,1.2-9.9,6.4-10.2,9.2,0,5.8,2.6,11.9,6.9,16,1,1,5.6,4,6.8,4.2,3.7.6,9.2-4.9,12.4-6.6,1.5-.8,6-1.8,6.3-3.2,0-2.6-3-1.8-4.8-1.3-3.6.9-10.4,7.5-12.8,7.5s-6.7-3.8-6.6-5.1c1.4-1.4,3-3.6,4.7-4.7,1.4-.9,5.7-1.8,6.1-2.9l-.2-1.7c-1.8-2.5-12,3.4-12.3,6.5-5.9-6.2-.9-11.5,5.2-14.6,0,0-.2,0-.2,0Z"/>
    <path class="st1" d="M140.5,61.1c-3.3-1.9-6.5,5.6-7.5,8.1-1.6,3.9-3.3,9-.6,12.8,7.2,10.2,20.9-4.9,21.2-13.2.1-2.9-2.3-3-3.4-.9-2.3,4.4-3.3,11.7-9.6,13.4-7.5,2-6.4-5.5-4.6-10.1.8-2.2,5.5-8.5,4.5-10.1h0Z"/>
    <path class="st1" d="M112.1,74.3c-.8,2.6,5.4,4.7,7.3,5.1,7.5,1.3,11-3.8,6.5-10-2.2-3.1-8.6-6-3.9-9.6,2.8-2.2,5.3-1.2,8.2.2l1.3-1.7c.3-3.1-5.6-3.4-7.7-3.1-4.6.7-9.4,6-6.4,10.6,1.2,1.8,8,6.7,6.8,9.2-1.9,4-11.2-3.9-12.2-.7h0Z"/>
    <path class="st1" d="M87.3,23.5c12.2-3,25.8-4.5,38.2-1.8,1.7.4,4.6,2.4,5.9,1.1,2.5-2.5-3.8-4.2-5.4-4.6-8.5-2.3-22.4-1.7-31.1-.1-2.9.5-5.8,1.5-8.6,2.3-.8.6-.4,3.2,1,3.1Z"/>
    <path class="st1" d="M111.1,55.7c0-.9-.7-1.3-1.4-1.6-3.6-1.7-14.1-.7-18.1,0-1.5.3-7.7,2.3-4,4,1.7.8,10.8-1.9,11.5-1.2,0,2.1,1,3.9,1.4,5.9.5,2.7,1.1,13.8,2.3,15,2,2.2,3-1.1,2.9-3.1-.2-5.6-1.7-12.3-3-17.8,1.9-.7,8.5,1.9,8.5-1.3h-.1Z"/>
    <path class="st1" d="M138.2,211.9c-2.7.7-16.4,3.7-17.5,4.8-1,1.1-.6,2.7.6,3.4,1.4.8,2.9.5,4.4.3,4.6-.5,16.3-3.6,20.5-5.5,1.7-.7,3.8-1.3,3.4-3.6-.6-4.1-9.1,0-11.4.6Z"/>
    <path class="st1" d="M82.5,212.4c-2.8-.7-10.6-4.3-12.8-2.2-3.6,3.5,6.5,5.9,8.5,6.5,3.6,1.1,15.5,4.5,18.5,3.8,3.1-.7,2.3-3.7-.5-4.8-3.7-1.4-9.7-2.2-13.7-3.3Z"/>
    <path class="st1" d="M173.8,174c-.4,1-.5,1.9.6,2.5.8.3,1.3,0,2-.4,2-1.2,9.1-9.4,10.3-11.7,2.7-5.1,4.9-18.6,1.1-23.3-.5-.6-.9-1.2-1.9-1-2.6.7-.4,3.5,0,4.9,1.5,7.1,0,14.9-4.3,20.8-1.5,2-7.2,7-7.7,8.3h-.1Z"/>
    <path class="st1" d="M141.9,27.6c-3.6-4.3-4.6,10.3-2.4,11.6.6.4,2.2.2,3.4.6,2.4.9,8.9,5.7,10.4,5.7s1.6-1.3,2.5-2.1c1.2-1,5.6-3.7,4.3-5.6-1.8-2.6-5.6,2.7-7.3,3.5-1.5-.7-2.8-1.9-4.2-2.6s-5-2.1-5.5-2.5c-1.3-1.1.3-6.9-1.1-8.6h0Z"/>
    <path class="st1" d="M57.7,37.6c-1.7,1.6,2.8,5.2,4.3,5.7.3,0,3.9.9,4.2.9.8,0,4.6-2.4,6-3,1.5-.6,5.5-1.3,6.2-2.3,1.2-1.6,1.4-10.7-.7-11.8-3.8-1.9-1.7,8.5-3,9.5-.5.4-5.7,2-7,2.5-.9.4-1.8,1.4-2.5,1.6-2.2.6-5-5.5-7.4-3.2h0Z"/>
    <path class="st1" d="M40.2,121.9c.9-.2,3.2-.6,3.7-1.3l-.4-2.4c-1-.6-9.3,1.2-11.2,1.4-2.2.2-10-.3-11.3,1.2-.9,1-.3,2.3.9,2.7,2.6.8,15-.8,18.2-1.5h.1Z"/>
    <path class="st1" d="M191.9,122.4c.5,0,1.9-.2,2-.5.3-.5.1-1.9-.2-2.4-.5-.8-13.7-3.9-15.5-4-1.5,0-3.6-.4-4,1.4-.5,2.5,4.4,2.3,6.4,2.7,3.2.7,8.4,2.5,11.3,2.7h0Z"/>
    <path class="st1" d="M51.5,61.7c0-.8-.6-1.3-1.3-1.7-2.4-.6-4,6.5-4.2,8.2-.3,2.4,0,5.5,0,8s1.2,1.3,1.8,1.3c2.6,0,1.6-5.8,1.8-7.7.3-2.1,2-6.8,1.9-8.1Z"/>
    <path class="st1" d="M34.2,142.9c.4-1.2,5.8-7.6,1.5-8.8-2.9-.8-1.9,2.3-2.4,3.9-.4,1.2-2.2,2.7-2.6,4-.3.9-.8,5.6-.2,6,4.2.9,2.8-2.8,3.5-5.1h.2Z"/>
    <path class="st1" d="M188.3,138c5.5-.8-6.6-8.9-8.8-7.3l-.4,2.7c2.7.3,6.9,4.9,9.2,4.6Z"/>
    <path class="st1" d="M158.3,247.5c2,.2,3.7-3.7,2-5.1l-1.4-.4c-1.5.4-3,5.3-.6,5.5Z"/>
    <path class="st1" d="M66,37.2c.3-1.4-2.3-3.4-3.6-3.1-3.6.9,1.6,7.1,3.6,3.1Z"/>
    <path class="st1" d="M70.3,30.2c-2.1,0-2.5,3.2-.8,4.1,3.3,1.6,3.4-4.1.8-4.1Z"/>
    <path class="st1" d="M154.6,37.3l.9-1.6c.2-1.2-.9-2.4-2.1-2.1-2.6.7-2.6,5.4,1.2,3.7h0Z"/>
    <path class="st1" d="M40.8,74c2.2,0,2.5-4.3,0-4.3s-2.2,4.3,0,4.3Z"/>
    <path class="st1" d="M147.4,29.6c-1.7.5-2,3.8,0,4,2.9.2,3.3-4.9,0-4Z"/>
    <path class="st1" d="M171,177.5c-.5-.8-3.8-.2-3.8,1.7,0,3.4,5.4,1,3.8-1.7Z"/>
  </g>
</svg>