<?xml version="1.0" encoding="UTF-8"?>
<svg id="_图层_2" data-name="图层 2" xmlns="http://www.w3.org/2000/svg" xmlns:xlink="http://www.w3.org/1999/xlink" viewBox="0 0 896.42 914.5">
  <defs>
    <style>
      .cls-1 {
        fill: url(#_未命名的渐变_7);
      }

      .cls-2 {
        fill: #d0d5d0;
      }

      .cls-3 {
        fill: #d7d6d7;
      }

      .cls-4 {
        fill: #ffc835;
      }

      .cls-5 {
        fill: url(#_未命名的渐变_7-2);
      }

      .cls-6 {
        fill: #abafb7;
      }

      .cls-7 {
        fill: url(#_未命名的渐变_191);
      }

      .cls-7, .cls-8 {
        opacity: .53;
      }

      .cls-9 {
        fill: #ecefef;
      }

      .cls-8 {
        fill: url(#_未命名的渐变_191-2);
      }
    </style>
    <linearGradient id="_未命名的渐变_7" data-name="未命名的渐变 7" x1="22.47" y1="40.84" x2="76.7" y2="56.42" gradientUnits="userSpaceOnUse">
      <stop offset="0" stop-color="#000" stop-opacity="0"/>
      <stop offset=".72" stop-color="#000" stop-opacity=".58"/>
      <stop offset=".84" stop-color="#000"/>
    </linearGradient>
    <linearGradient id="_未命名的渐变_7-2" data-name="未命名的渐变 7" x1="745.32" y1="40.84" x2="799.55" y2="56.42" gradientTransform="translate(1623.37) rotate(-180) scale(1 -1)" xlink:href="#_未命名的渐变_7"/>
    <linearGradient id="_未命名的渐变_191" data-name="未命名的渐变 191" x1="29.01" y1="473.01" x2="55.08" y2="473.01" gradientUnits="userSpaceOnUse">
      <stop offset="0" stop-color="#abafb7" stop-opacity="0"/>
      <stop offset="1" stop-color="#000"/>
    </linearGradient>
    <linearGradient id="_未命名的渐变_191-2" data-name="未命名的渐变 191" x1="1143.38" x2="1169.45" gradientTransform="translate(-302.05 946.02) scale(1 -1)" xlink:href="#_未命名的渐变_191"/>
  </defs>
  <g id="_图层_13" data-name="图层 13">
    <g>
      <g>
        <g>
          <path class="cls-3" d="M894.81,89.16l-8.95-37.17h0c-.94-5.48-3.81-10.38-7.97-14.13-5.13-4.62-12.22-7.48-20.04-7.48H38.58c-15.65,0-26.78,11.37-29.51,25.6L.38,93.42l9.85-.05v8.61h875.96v-12.79l8.62-.04Z"/>
          <g>
            <rect class="cls-4" x="773.12" y="678.15" width="109.65" height="73.24"/>
            <rect class="cls-4" x="13.65" y="678.15" width="109.65" height="73.24"/>
            <rect class="cls-4" x="13.65" y="194.34" width="71.06" height="159.89"/>
            <rect class="cls-4" x="811.69" y="194.34" width="71.07" height="159.89"/>
          </g>
          <path class="cls-6" d="M841.33,207.42v-12.48s0-9.53,0-9.53h55.08v-88.5c0-16.01-12.99-29-29.01-29H29.01C12.99,67.91,0,80.9,0,96.91v88.5h55.07v159.05H0v341.7h98.65v49.44H0v113.51c0,16.01,12.99,29,29,29h838.4c16.02,0,29.01-12.99,29.01-29l-.02-113.51h-96.31v-49.44h96.3l-.05-335.96v-5.73h-55.08l.08-127.36v-9.67ZM99.76,516.55c-8.31,0-15.04-6.73-15.04-15.04V169.28c0-8.31,6.73-15.04,15.04-15.04h694.65c9.54,0,17.28,6.73,17.28,15.04v332.23c0,8.31-7.74,15.04-17.28,15.04H99.76Z"/>
          <polygon class="cls-1" points="61.12 67.91 28.16 67.91 33.58 30.39 74.64 30.39 61.12 67.91"/>
          <polygon class="cls-5" points="839.4 67.91 872.36 67.91 866.94 30.39 825.88 30.39 839.4 67.91"/>
        </g>
        <g>
          <path class="cls-2" d="M891.57,251.79h-50.24v9.67h50.24c1.34,0,2.55-.54,3.42-1.42.88-.87,1.42-2.08,1.42-3.42,0-.29-.03-.59-.08-.86-.41-2.25-2.37-3.97-4.76-3.97Z"/>
          <path class="cls-2" d="M891.57,229.61h-50.24v9.67h50.24c1.34,0,2.55-.54,3.42-1.42.88-.87,1.42-2.08,1.42-3.42,0-.29-.03-.59-.08-.86-.41-2.25-2.37-3.97-4.76-3.97Z"/>
          <path class="cls-2" d="M889.36,175.95h-48.03V46.7c0-.71-.28-1.38-.78-2-.41-.5-.96-.96-1.63-1.35-.24-.14-.5-.26-.75-.39-.4-.19-.79-.37-1.19-.56-.2-.09-.41-.18-.62-.26-.3-.14-.63-.27-.96-.41-.38-.15-.76-.3-1.16-.44-2.3-.86-4.76-1.57-7.34-2.12-.23-.05-.45-.1-.68-.14-.36-.08-.73-.14-1.08-.2-.18-.03-.35-.08-.53-.09-.23-.05-.48-.1-.72-.14-.32-.05-.63-.1-.94-.15-.51-.08-1.05-.14-1.55-.2-.44-.06-.91-.11-1.37-.17-.33-.03-.66-.06-.99-.09-.32-.03-.66-.06-.99-.08-.51-.04-1.04-.07-1.57-.1-.45-.02-.89-.04-1.33-.05h-.1c-.23,0-.46,0-.69-.02-.36-.02-.71-.02-1.06-.02H79.77c-.17,0-.33,0-.5,0-.15,0-.31,0-.47,0-.2,0-.39,0-.6.02h-.09c-.4.02-.78.03-1.17.05-.47.03-.93.06-1.39.1-.28.02-.57.05-.86.08-.29.03-.58.06-.87.09-.41.05-.81.11-1.21.17-.44.06-.91.13-1.36.2-.28.05-.56.1-.83.15-.38.07-.74.14-1.11.23-.32.06-.64.13-.95.2-2.5.57-4.86,1.33-7.07,2.27-.35.14-.68.29-1.01.44-.29.14-.58.27-.86.41-.18.08-.36.17-.53.26-.35.19-.7.37-1.05.56-.22.13-.44.25-.66.39-.59.39-1.08.85-1.44,1.35-.45.62-.69,1.29-.69,2v129.25H7.05c-3.77,0-6.85,2.96-7.04,6.68,0,.12,0,.24,0,.36v2.64c.05,2.55,1.11,4.84,2.78,6.52,1.67,1.66,3.95,2.71,6.48,2.77h45.81v12.49H4.84c-2.38,0-4.35,1.71-4.76,3.97-.05.27-.08.57-.08.86,0,1.34.54,2.55,1.42,3.42.87.88,2.08,1.42,3.42,1.42h50.23v12.51H4.84c-2.38,0-4.35,1.71-4.76,3.97-.05.27-.08.57-.08.86,0,1.34.54,2.55,1.42,3.42.87.88,2.08,1.42,3.42,1.42h50.23v12.51H4.84c-2.38,0-4.35,1.71-4.76,3.97-.05.27-.08.57-.08.86,0,1.34.54,2.55,1.42,3.42.87.88,2.08,1.42,3.42,1.42h50.23v12.51H4.84c-2.38,0-4.35,1.71-4.76,3.97-.05.27-.08.57-.08.86,0,1.34.54,2.55,1.42,3.42.87.88,2.08,1.42,3.42,1.42h50.23v12.51H4.84c-2.38,0-4.35,1.71-4.76,3.97-.05.27-.08.57-.08.86,0,1.34.54,2.55,1.42,3.42.87.88,2.08,1.42,3.42,1.42h50.23v12.51H4.84c-2.38,0-4.35,1.71-4.76,3.97-.05.27-.08.57-.08.86,0,1.34.54,2.55,1.42,3.42.87.88,2.08,1.42,3.42,1.42h50.23v12.5H4.84c-2.38,0-4.35,1.71-4.76,3.97-.05.27-.08.57-.08.86,0,1.34.54,2.55,1.42,3.42.87.88,2.08,1.42,3.42,1.42h50.23v241.64h786.26V194.93h45.83c2.52-.06,4.8-1.11,6.47-2.77,1.67-1.68,2.73-3.97,2.78-6.52v-2.64c0-3.89-3.16-7.04-7.05-7.04Z"/>
          <path class="cls-2" d="M891.57,318.33h-50.24v9.67h50.24c1.34,0,2.55-.54,3.42-1.42.88-.87,1.42-2.08,1.42-3.42,0-.29-.03-.59-.08-.86-.41-2.25-2.37-3.97-4.76-3.97Z"/>
          <path class="cls-2" d="M891.57,340.5h-50.24v9.67h50.24c1.34,0,2.55-.54,3.42-1.42.88-.87,1.42-2.08,1.42-3.42,0-.29-.03-.59-.08-.86-.41-2.25-2.37-3.97-4.76-3.97Z"/>
          <path class="cls-2" d="M891.57,296.15h-50.24v9.67h50.24c1.34,0,2.55-.54,3.42-1.42.88-.87,1.42-2.08,1.42-3.42,0-.29-.03-.59-.08-.86-.41-2.25-2.37-3.97-4.76-3.97Z"/>
          <path class="cls-2" d="M891.57,273.97h-50.24v9.67h50.24c1.34,0,2.55-.54,3.42-1.42.88-.87,1.42-2.08,1.42-3.42,0-.29-.03-.59-.08-.86-.41-2.25-2.37-3.97-4.76-3.97Z"/>
          <path class="cls-2" d="M891.57,207.43h-50.24v9.67h50.24c1.34,0,2.55-.54,3.42-1.42.88-.87,1.42-2.08,1.42-3.42,0-.29-.03-.59-.08-.86-.41-2.25-2.37-3.97-4.76-3.97Z"/>
        </g>
        <ellipse class="cls-4" cx="173.56" cy="101.98" rx="74.9" ry="31.35"/>
        <path class="cls-9" d="M841.33,46.7H55.08l11.22-39.13c1.29-4.48,5.38-7.57,10.05-7.57h743.72c4.66,0,8.76,3.09,10.05,7.57l11.22,39.13Z"/>
      </g>
      <g>
        <path class="cls-9" d="M896.41,345.33c0,1.34-.54,2.55-1.42,3.42-.87.88-2.08,1.42-3.42,1.42h-50.24v-3.31h44.86s4.62.16,7.06-.64c1.14-.38,2.23-.95,3.07-1.76.05.27.08.57.08.86Z"/>
        <path class="cls-9" d="M0,345.33c0,1.34.54,2.55,1.42,3.42.87.88,2.08,1.42,3.42,1.42h50.24v-3.31H10.22s-4.62.16-7.06-.64c-1.14-.38-2.23-.95-3.07-1.76-.05.27-.08.57-.08.86Z"/>
        <g>
          <g>
            <path class="cls-9" d="M896.41,256.62c0,1.34-.54,2.55-1.42,3.42-.87.88-2.08,1.42-3.42,1.42h-50.24v-3.31h44.86s4.62.16,7.06-.64c1.14-.38,2.23-.95,3.07-1.76.05.27.08.57.08.86Z"/>
            <path class="cls-9" d="M896.41,234.44c0,1.34-.54,2.55-1.42,3.42-.87.88-2.08,1.42-3.42,1.42h-50.24v-3.31h44.86s4.62.16,7.06-.64c1.14-.38,2.23-.95,3.07-1.76.05.27.08.57.08.86Z"/>
            <path class="cls-9" d="M896.41,185.64c-.05,2.55-1.11,4.84-2.78,6.52-1.67,1.66-3.95,2.71-6.47,2.77-.08,0-.17,0-.25,0h-45.58v-5.81h45.52s5.9-.2,9.56-3.5Z"/>
            <path class="cls-9" d="M896.41,323.16c0,1.34-.54,2.55-1.42,3.42-.87.88-2.08,1.42-3.42,1.42h-50.24v-3.31h44.86s4.62.16,7.06-.64c1.14-.38,2.23-.95,3.07-1.76.05.27.08.57.08.86Z"/>
            <path class="cls-9" d="M896.41,300.98c0,1.34-.54,2.55-1.42,3.42-.87.88-2.08,1.42-3.42,1.42h-50.24v-3.31h44.86s4.62.16,7.06-.64c1.14-.38,2.23-.95,3.07-1.76.05.27.08.57.08.86Z"/>
            <path class="cls-9" d="M896.41,278.8c0,1.34-.54,2.55-1.42,3.42-.87.88-2.08,1.42-3.42,1.42h-50.24v-3.31h44.86s4.62.16,7.06-.64c1.14-.38,2.23-.95,3.07-1.76.05.27.08.57.08.86Z"/>
            <path class="cls-9" d="M896.41,212.26c0,1.34-.54,2.55-1.42,3.42-.87.88-2.08,1.42-3.42,1.42h-50.24v-3.31h44.86s4.62.16,7.06-.64c1.14-.38,2.23-.95,3.07-1.76.05.27.08.57.08.86Z"/>
          </g>
          <g>
            <path class="cls-9" d="M0,256.62c0,1.34.54,2.55,1.42,3.42.87.88,2.08,1.42,3.42,1.42h50.24v-3.31H10.22s-4.62.16-7.06-.64c-1.14-.38-2.23-.95-3.07-1.76-.05.27-.08.57-.08.86Z"/>
            <path class="cls-9" d="M0,234.44c0,1.34.54,2.55,1.42,3.42.87.88,2.08,1.42,3.42,1.42h50.24v-3.31H10.22s-4.62.16-7.06-.64c-1.14-.38-2.23-.95-3.07-1.76-.05.27-.08.57-.08.86Z"/>
            <path class="cls-9" d="M55.08,189.13v5.81H9.5c-.08,0-.16,0-.24,0-2.52-.06-4.81-1.11-6.48-2.77-1.67-1.68-2.73-3.97-2.78-6.52,3.66,3.29,9.56,3.5,9.56,3.5h45.52Z"/>
            <path class="cls-9" d="M0,323.16c0,1.34.54,2.55,1.42,3.42.87.88,2.08,1.42,3.42,1.42h50.24v-3.31H10.22s-4.62.16-7.06-.64c-1.14-.38-2.23-.95-3.07-1.76-.05.27-.08.57-.08.86Z"/>
            <path class="cls-9" d="M0,300.98c0,1.34.54,2.55,1.42,3.42.87.88,2.08,1.42,3.42,1.42h50.24v-3.31H10.22s-4.62.16-7.06-.64c-1.14-.38-2.23-.95-3.07-1.76-.05.27-.08.57-.08.86Z"/>
            <path class="cls-9" d="M0,278.8c0,1.34.54,2.55,1.42,3.42.87.88,2.08,1.42,3.42,1.42h50.24v-3.31H10.22s-4.62.16-7.06-.64c-1.14-.38-2.23-.95-3.07-1.76-.05.27-.08.57-.08.86Z"/>
            <path class="cls-9" d="M0,212.26c0,1.34.54,2.55,1.42,3.42.87.88,2.08,1.42,3.42,1.42h50.24v-3.31H10.22s-4.62.16-7.06-.64c-1.14-.38-2.23-.95-3.07-1.76-.05.27-.08.57-.08.86Z"/>
          </g>
        </g>
      </g>
      <rect class="cls-7" x="29.01" y="67.91" width="26.07" height="810.19"/>
      <rect class="cls-8" x="841.34" y="67.91" width="26.07" height="810.19" transform="translate(1708.75 946.02) rotate(180)"/>
      <g>
        <polygon class="cls-2" points="448.21 596.63 394.29 596.63 46.6 596.63 46.6 906.16 394.29 906.16 448.21 906.16 849.82 906.16 849.82 596.63 448.21 596.63"/>
        <polygon class="cls-9" points="841.48 588.29 448.21 588.29 54.94 588.29 46.6 596.63 448.21 596.63 849.82 596.63 841.48 588.29"/>
        <polygon class="cls-6" points="448.21 906.16 46.6 906.16 50.77 910.33 54.94 914.5 448.21 914.5 841.48 914.5 845.65 910.33 849.82 906.16 448.21 906.16"/>
      </g>
    </g>
    <g>
      <path d="M143.44,104.15h-7.44l-2.31,5.58h8.74l-2.44,4.78h-15.02l10.89-26.36h83.45l-1.93,4.81h-76.66l-2.76,6.38h7.44l-1.96,4.81Z"/>
      <path d="M153.44,99.91h-4.61l1.93-4.81h16.27l-1.93,4.81h-4.55l-5.89,14.6h-7.1l5.89-14.6Z"/>
      <path d="M171.63,108.51c-.13.96.02,2.12,1.38,2.12,1.27,0,1.7-.74,1.84-1.5.18-.96-.41-1.39-2.37-2.26-3.26-1.44-4.78-3-4.24-5.83.68-3.57,3.8-6.45,9.46-6.45,5.97,0,7.74,3.17,7.12,6.31h-6.59c.13-.85.06-1.95-1.13-1.95-.82,0-1.34.51-1.47,1.19-.14.74.28,1.08,2.16,1.87,4.4,1.84,5.13,3.82,4.67,6.25-.79,4.16-4.68,6.76-10.28,6.76-6.22,0-7.85-3.2-7.19-6.51h6.65Z"/>
      <path d="M198.49,95.1l-5.2,12.9c-.49,1.22-.52,2.26.73,2.26,1.16,0,1.78-1.02,2.27-2.26l5.2-12.9h7.16l-5.04,12.51c-1.88,4.67-4.64,7.41-10.95,7.41s-8.21-2.77-6.23-7.7l4.9-12.22h7.16Z"/>
      <path d="M204.87,114.48l2.5-6.17h5.6l-2.5,6.17h-5.6Z"/>
    </g>
  </g>
</svg>