<?xml version="1.0" encoding="UTF-8"?>
<svg id="_图层_13" data-name="图层 13" xmlns="http://www.w3.org/2000/svg" viewBox="0 0 180 180">
  <defs>
    <style>
      .cls-1 {
        fill: #fff;
      }
    </style>
  </defs>
  <path d="M144.86,132.74c-.04-.23-.07-.47-.05-.64,0-.01,0-.03,0-.04-.14.41,0,.76.06.68Z"/>
  <path d="M156.42,129.66c-1.07-6.68-5.16-12.79-10.22-17.15-5.29-4.57-11.44-7.76-17.41-11.32-6.31-3.76-12.36-7.96-18.33-12.24-6.11-4.38-12.19-8.81-18.28-13.22l-2.41-1.74c-.45-.32-1.5-.82-1.76-1.28.19.15.38.3.57.45-.21-.16-.42-.33-.62-.5-.3-.26-.6-.52-.88-.8-.18-.18-.35-.37-.52-.56-.08-.13-.17-.26-.25-.39-.04-.05-.06-.09-.09-.12-.12-.41-.26-.81-.36-1.22-.18-.69-.3-1.4-.43-2.1-.29-1.55-.6-3.08-1.04-4.59-3.55-12.35-12.47-23.39-24.14-28.92-6.45-3.05-13.46-4.74-20.61-4.73-6.68,0-14.03,1.32-19.82,4.82-3,1.81-5.75,4.38-7.3,7.57-.44.91-.68,1.92-.71,2.92-.03.18-.08.35-.09.53-1.44,13.27,1.57,26.97,7.97,38.65,3.34,6.09,7.71,12.19,13.35,16.34,3.2,2.36,7.19,3.66,11.18,3.52,4.24-.15,8.16-1.58,11.95-3.4.67-.32,1.34-.67,2-1.02.16-.09.42-.26.67-.41.11-.04.22-.07.32-.11.07.05.13.08.14.09.07.05.1.07.15.11.09.07.18.14.27.22,2.62,2.1,5.15,4.3,7.62,6.57,4.95,4.55,9.65,9.36,14.33,14.18,9.54,9.83,19.11,19.98,30.48,27.73,5.91,4.03,12.69,7.04,19.91,7.43,6.5.35,13.01-1.88,17.97-6.06,5.64-4.75,7.52-12.17,6.38-19.24Z"/>
  <path d="M141.75,125c-.05-.07-.19-.24-.43-.55.07,0,.26.27.43.55Z"/>
  <path d="M41.15,91.15c.15.07.3.13.46.2-.23-.06-.43-.13-.46-.2Z"/>
  <path d="M42.86,91.66c.1.01.21.03.35.04-.05.02-.19,0-.35-.04Z"/>
  <path d="M58.3,98.13s.05.01.11.05c-.04-.02-.07-.03-.11-.05Z"/>
  <path d="M58.87,98.73c.09-.05.17-.09.25-.13.01,0,.02.01.03.02-.09.04-.19.07-.28.11Z"/>
  <path class="cls-1" d="M144.46,136.67s-.02.06-.03.1c-.35.41-.59,1.25-.87,1.68-.09.13-.18.26-.27.39,0,0,0,0,0,0-.39.4-.75.82-1.16,1.19-.17.16-.39.31-.57.48-.02.01-.04.03-.06.04-.56.38-1.14.73-1.74,1.04-.18.09-.36.19-.55.27-.48.09-1.06.4-1.52.54-.66.2-1.34.36-2.02.49-.03,0-.06.01-.09.01.09,0,.19,0,.3,0-.34,0-.69.08-1.04.11-.58.04-1.15.07-1.73.06-.57,0-1.15-.03-1.72-.08h-.03c-.32-.12-.86-.14-1.17-.2-1.52-.31-3-.76-4.45-1.31-.19-.07-.48-.16-.69-.27-.09-.05-.17-.1-.23-.12-.77-.36-1.53-.75-2.28-1.15-2.74-1.49-5.43-3.25-7.85-5.22,1.25,1.01-.5-.4-.83-.68-.68-.55-1.36-1.11-2.03-1.67-1.23-1.03-2.44-2.08-3.64-3.15-4.79-4.28-9.33-8.84-13.82-13.44-4.49-4.61-8.93-9.26-13.53-13.76-4.79-4.69-9.75-9.43-15.21-13.35-1.73-1.24-3.73-1.95-5.86-2.08-2.56-.15-5.01.91-7.22,2.06-.66.34-1.32.7-1.99,1.03-.41.2-.82.38-1.23.58-.03.02-.07.04-.12.06-.72.32-1.51.57-2.26.79-.58.17-1.3.44-1.96.55-.11-.02-.24-.03-.35-.03-.43,0-.87.04-1.3.03-.14,0-.29-.01-.43-.02-.08,0-.16-.01-.21-.02-.17-.05-.33-.09-.36-.1-.08-.02-.4-.08-.69-.16-.13-.06-.26-.12-.38-.19-.3-.15-.6-.32-.88-.49-.12-.07-.46-.25-.72-.39-1.02-.66-1.94-1.8-2.74-2.67-.51-.55-1-1.12-1.48-1.7-.22-.26-.43-.52-.65-.79-.1-.12-.19-.24-.28-.36-.02-.02-.02-.03-.04-.05-1.76-2.43-3.4-4.92-4.81-7.56-.64-1.2-1.24-2.42-1.8-3.66-.09-.21-.2-.43-.3-.64-.02-.06-.04-.13-.06-.18-.32-.82-.64-1.65-.94-2.48-1-2.82-1.79-5.71-2.37-8.65-.14-.73-.28-1.47-.39-2.21-.04-.25-.08-.5-.11-.75,0-.03,0-.05,0-.09-.15-1.49-.3-2.97-.36-4.47-.11-2.54-.04-5.09.18-7.63.11-.14.24-.3.32-.44.19-.2.38-.41.59-.6.17-.16.34-.3.51-.45.62-.39,1.23-.79,1.87-1.13.33-.17.67-.33,1-.49,0,0,0,0,0,0,.56-.2,1.12-.42,1.7-.6,1.42-.45,2.86-.8,4.32-1.07.4-.07.79-.14,1.19-.21.71-.07,1.43-.15,2.14-.19,1.51-.09,3.03-.1,4.54-.03.76.04,1.51.09,2.27.17.25.03.52.04.78.08.11.03.21.06.3.07,1.49.25,2.98.59,4.43,1.01,1.14.32,2.57.65,3.7,1.19.08.06.19.13.31.18.37.18.75.34,1.12.52.74.36,1.48.75,2.19,1.15,1.24.7,2.44,1.48,3.6,2.32.2.15.4.32.61.45-.05-.03-.08-.05-.13-.08.04.03.09.06.12.09.59.48,1.16.98,1.73,1.49,1.03.94,2.01,1.94,2.94,2.98.42.47.82.97,1.23,1.45.01.02.02.02.03.04.22.29.43.58.64.88.81,1.14,1.56,2.32,2.24,3.53.31.55.61,1.11.9,1.68.13.26.74,1.94.96,2.05.09.23.18.47.27.71.24.65.47,1.31.68,1.98.44,1.39.8,2.81,1.08,4.24.76,3.88,1.7,7.3,4.41,10.34,2.35,2.62,5.62,4.54,8.46,6.6,2.94,2.13,5.88,4.25,8.82,6.38,5.74,4.15,11.45,8.35,17.31,12.33,5.59,3.8,11.39,7.16,17.2,10.59,1.23.72,2.44,1.46,3.64,2.23.59.39,1.18.78,1.77,1.18.35.24.69.49,1.04.74.11.08.22.17.33.25,1.13.95,2.24,1.89,3.27,2.95.47.48.92.97,1.35,1.48.08.1.16.2.25.3.13.17.19.24.22.27.15.24.29.49.33.55.14.22,2.12,3.47,1.94,3.58l-.3-.71c.09.24.19.48.27.72.09.24.17.48.24.73.23.72.41,1.45.55,2.2,0-.03.01-.05.02-.07-.01.03,0,.08-.01.12.01.05.02.11.04.16.05.3.04.43.01.47.02.15.05.28.05.37.02.62-.02,1.24-.03,1.86v.02c-.04.2-.08.4-.12.6-.08.36-.18.72-.3,1.08Z"/>
  <path d="M135.57,142.92c-1.23.04-.48.07,0,0h0Z"/>
  <path d="M60.89,48.26c-.37-.26-1.01-.64,0,0h0Z"/>
  <path d="M132.01,123.19c-3.11,0-6.1,2.74-5.95,5.95.14,3.23,2.62,5.95,5.95,5.95,3.11,0,6.1-2.74,5.95-5.95-.14-3.23-2.62-5.95-5.95-5.95Z"/>
</svg>