<?xml version="1.0" encoding="UTF-8"?>
<svg id="_图层_2" xmlns="http://www.w3.org/2000/svg" version="1.1" viewBox="0 0 761.5 443.3">
  <!-- Generator: Adobe Illustrator 29.5.0, SVG Export Plug-In . SVG Version: 2.1.0 Build 137)  -->
  <defs>
    <style>
      .st0 {
        fill: #faf9f6;
      }

      .st1 {
        fill: #363636;
      }
    </style>
  </defs>
  <path class="st1" d="M761.5,328L423.6,19.3h0l-6.2-6.4h0c-3.1-7.6-10.4-12.9-18.8-12.9s-1.4,0-2.1.1L17.6,39.8C7.5,40.8,0,49.3,0,59.5v104.8c0,11.4,9.3,20.6,20.4,20.6s1.4,0,2.1-.1l406,138.7h0l333.1,118.1v-113.5h0Z"/>
  <path class="st0" d="M411.9,20.6v104.8c0,6.6-4.9,12.1-11.3,12.8L21.7,177.8h-1.4c-7.2,0-13.4-6.2-13.4-13.6V59.5c0-6.6,4.9-12.1,11.3-12.8L397.2,7.1h1.4c7.2,0,13.4,6.2,13.4,13.6h-.1Z"/>
</svg>