<?xml version="1.0" encoding="UTF-8"?>
<svg id="_图层_2" data-name="图层 2" xmlns="http://www.w3.org/2000/svg" viewBox="0 0 428.48 323.38">
  <defs>
    <style>
      .cls-1 {
        font-family: STHeitiSC-Medium, 'Heiti SC';
        font-size: 25px;
        font-weight: 500;
        letter-spacing: .06em;
      }

      .cls-2 {
        fill: #f2f2f2;
      }
    </style>
  </defs>
  <g id="_图层_1-2" data-name="图层 1">
    <polygon points="418.91 13.23 428.48 27.4 428.48 323.38 22.44 184.72 418.91 13.23"/>
    <g>
      <path class="cls-2" d="M20.35,181.33c-9.29,0-16.85-7.67-16.85-17.09V59.47c0-8.4,6.21-15.38,14.44-16.24L396.83,3.59c.57-.06,1.15-.09,1.72-.09,9.29,0,16.85,7.67,16.85,17.09v104.77c0,8.4-6.21,15.38-14.44,16.24L22.08,181.24c-.57.06-1.15.09-1.73.09Z"/>
      <path d="M398.56,7c7.24,0,13.35,6.22,13.35,13.59v104.77c0,6.6-4.86,12.08-11.31,12.76L21.71,177.76c-.45.05-.91.07-1.36.07-7.24,0-13.35-6.22-13.35-13.59V59.47c0-6.6,4.86-12.08,11.31-12.76L397.2,7.07c.45-.05.91-.07,1.36-.07M398.56,0C397.87,0,397.17.04,396.47.11L17.58,39.75C7.54,40.8,0,49.26,0,59.47v104.77c0,11.42,9.31,20.59,20.35,20.59.69,0,1.39-.04,2.09-.11l378.89-39.64c10.04-1.05,17.58-9.51,17.58-19.72V20.59C418.91,9.17,409.6,0,398.56,0h0Z"/>
    </g>
    <text class="cls-1" transform="translate(178.09 145.51) rotate(-5.87) scale(1.12 .99) skewX(-5.23)"><tspan x="0" y="0">Etsu. portfolio</tspan></text>
  </g>
</svg>