<?xml version="1.0" encoding="UTF-8"?>
<svg id="_图层_2" xmlns="http://www.w3.org/2000/svg" version="1.1" viewBox="0 0 119.5 166.5">
  <!-- Generator: Adobe Illustrator 29.5.0, SVG Export Plug-In . SVG Version: 2.1.0 Build 137)  -->
  <defs>
    <style>
      .st0 {
        fill: #faf9f6;
      }

      .st1 {
        fill: gray;
      }

      .st2 {
        fill: #363636;
      }

      .st3 {
        fill: #363637;
      }
    </style>
  </defs>
  <path class="st1" d="M23,149.6c4,11.3,13,13.2,17.4,7.8s.8-14.8.8-14.8c0,0,32.4-7.4,39.3,0s.4,19.6.4,19.6c0,0,7.6,8.6,18.8,1.4,5.1-3.3,7-14.4,0-31.1l-70.5-2.3-6.3,19.5h.1Z"/>
  <g>
    <g>
      <path class="st0" d="M12.3,41.6c4.7,6.9,10.2,13.2,16.5,18.8.3.3.5.7.5,1,3.1-1.5,6.2-2.7,9.4-3.8-.3-.2-.5-.6-.4-1.1.7-9,1.3-18.1.2-27.2-.5-3.9-1.4-7.8-2.7-11.5-.7-1.9-1.5-3.7-2.4-5.4-1-1.8-2-2.6-4.1-2.5-7.4.5-15.4,4-19.4,10.4-1.9,3.1-3,6.8-2.5,10.4.5,4,2.9,7.5,5.1,10.8h-.2Z"/>
      <path class="st0" d="M93.4,119.4c11.2-13.5,24.5-35,11.7-51.7-5.2-6.8-13.4-10.9-21.6-12.4-11.1-2.1-22.5,0-33.3,2.3-8.9,1.9-17.7,5.1-25.6,9.7-9.7,5.8-18.2,14.5-19.8,26.1-.9,6.5,0,14.1,3.7,19.7,4.6,7.2,12.9,11.4,20.9,13.7h.2c.5.2,1,.3,1.6.3,1.3,0,2.6,0,3.9,0,1.9,0,1.9,3.1,0,3l-15.3-.6c-1,0-2.4-.3-3.3.2-.8.4-1.2,1.6-1.6,2.3-.9,2.1-1.6,4.3-1.9,6.6-1,6.7,2.1,15,9.5,16.4,3,.5,6.1-.8,8.1-3,2.4-2.7,1.5-5.9,1.1-9.2-.4-3.6.8-6.7,4.3-8,1.8-.7,3.8-.9,5.7-1.2,2.2-.4,4.4-.7,6.7-.9,8.9-1,17.8-1.1,26.7-.3.5,0,1.1.2,1.3.7,3.2,6.9,4.8,14.5,4.7,22.1,0,2,1.5,3.8,3.5,3.9,3,.1,6.1-.2,8.6-2.1,6.3-4.8,6.1-14.6,4-21.3-1.2-3.8-2.2-7.1-3.9-10.7-.9-1.9-1.8-3.6-.4-5.2,0-.2.3-.3.4-.5h0Z"/>
      <path class="st0" d="M114.8,13.1c-.8-3.6-3.1-6.9-6.6-8.2-3.5-1.3-7.1,0-9.9,2.2-3.1,2.4-5.3,5.6-7.2,9-2,3.6-3.6,7.5-4.7,11.5-2.2,7.9-2.4,16.3-.7,24.3v.8c2.1.5,4.2,1.1,6.2,1.9.4.2.7.3,1.1.5,4.1-5.7,8-11.5,11.8-17.4,2.5-3.8,5.2-7.7,7.4-11.7,2.1-3.9,3.5-8.4,2.6-12.8h0Z"/>
    </g>
    <path class="st3" d="M38.3,81c-.3,5.1.3,10.2,1.5,15.2.5,1.9,3.4,1.1,2.9-.8-1.2-4.7-1.7-9.5-1.4-14.3,0-1.9-2.9-1.9-3,0h0Z"/>
    <path class="st3" d="M72.4,79c-.4,5.2,0,10.5,1.1,15.6.4,1.9,3.3,1.1,2.9-.8-1.1-4.9-1.4-9.8-1-14.8,0-.8-.7-1.5-1.5-1.5s-1.4.7-1.5,1.5h0Z"/>
    <path class="st3" d="M39.8,112.4c15.1,1.7,30.5-3.3,41.8-13.4,1.4-1.3-.7-3.4-2.1-2.1-10.7,9.6-25.4,14.2-39.7,12.5-1.9-.2-1.9,2.8,0,3h0Z"/>
    <path class="st3" d="M69.7,109c2.4,2.3,5.2,4.7,8.7,5.2,3.2.4,6.4-1.3,7.9-4.2s1-6.3-1.1-8.8-6.2-3.9-8.7-1.4-1.7,3.3-1.2,5c.6,1.8,2,3.2,3.7,4,.7.3,1.6.2,2.1-.5.4-.6.2-1.7-.5-2.1-1.5-.7-3.4-2.5-2-4.2.6-.7,1.7-.5,2.4-.2.9.3,1.7.9,2.2,1.7,1.2,1.6,1.4,3.6.4,5.3s-3,2.7-5,2.4c-2.7-.4-4.9-2.5-6.8-4.3-1.4-1.3-3.5.8-2.1,2.1h0Z"/>
    <g>
      <path class="st2" d="M29.8,125.3c-7.6-2.2-15.4-6.1-19.9-12.8-3.5-5.2-4.4-12.5-3.6-18.6,1.3-10.8,9-19,17.9-24.6,7.2-4.5,15.2-7.6,23.4-9.6,16.2-4,35.8-7.2,50.3,3.2,8.6,6.1,12.2,16,10.2,26.4-2.1,10.9-8.9,20-15.4,28.7-2.3,3.1,2.9,6.1,5.2,3,11.6-15.5,24.8-37.3,10.9-55.7-12.9-17.1-36.1-16.7-55.1-13C32.3,56.4,4.7,67.1.6,91.5c-1.3,7.7-.4,16.8,3.7,23.5,5.2,8.5,14.6,13.4,23.9,16.1,3.7,1.1,5.3-4.7,1.6-5.8h0Z"/>
      <path class="st2" d="M35.1,125.8c-5.9-.2-13-1.6-18.8-.5-4.5.9-6.2,6-7.1,9.9-2.4,9.6,1.1,21.9,12,24.2,9.1,1.9,16.4-5.6,15.4-14.4,0-.9-.7-2.6-.4-3.6.9-2.9,3.9-2.9,6.2-3.3,3.7-.6,7.5-1.1,11.3-1.3,7.2-.5,14.3-.4,21.5.2l-2.6-1.5c2,4.5,3.3,9.2,3.8,14.1.3,3.1-.3,6.5,1.2,9.4,2.5,5,8.6,5.4,13.4,4.1,19.2-5.5,11-32.4,6.4-43.5-1.4-3.5-7.2-2-5.8,1.6,3.3,8.1,12.5,33.7-4,36.5-6.2.8-4.9-6.3-5.6-10.6-.7-5.1-2.3-9.9-4.3-14.5-.4-1-1.6-1.4-2.6-1.5-10.1-.9-20.2-.7-30.3.7-7.2,1-15.2,2-14.6,11.1.3,4.5,1.2,9.2-4.5,10.7-5.1,1.4-9.7-3.3-11-7.9-.8-2.9-.5-5.9.1-8.8.8-3.3,1.1-5.4,4.5-5.6,5.1-.3,10.5.4,15.6.6,3.9.1,3.9-5.9,0-6h.2Z"/>
      <path class="st2" d="M29.8,59.4c-7.1-6.5-13.8-13.8-18.6-22.2-5.3-9.4-.9-19,8.7-23.2,1.9-.8,3.9-1.4,5.9-1.9,3.5-.7,5.1-.4,7,3,2.2,4,3.3,9,3.9,13.5,1.3,9.2.6,18.7,0,27.9-.3,3.8,5.7,3.8,6,0,.9-12.5,1.8-25.5-1.9-37.6-1.4-4.4-3.4-11.1-8.1-12.9-4.5-1.7-11,.6-15,2.4C8.1,12.5.6,22.4,3.1,33.2c1.3,5.8,5.2,10.8,8.7,15.4,4.1,5.4,8.7,10.4,13.8,15,2.9,2.6,7.1-1.6,4.2-4.2h0Z"/>
      <path class="st2" d="M87.2,51.5c-1.8-8.8-1.3-17.8,1.5-26.2,2.3-6.8,7.2-18,15.4-19.2,5.5-.8,9.3,4.4,9.5,9.4.2,4.6-2,8.7-4.4,12.5-4.9,7.9-10.2,15.6-15.4,23.3-2.2,3.2,3,6.2,5.2,3,3.9-5.7,7.7-11.4,11.4-17.2,3.3-5,7.2-10.2,8.6-16.2,2.1-9-2.6-20.5-13.3-20.9-10.6-.4-17.3,10.3-20.9,18.7-4.8,10.9-5.8,22.8-3.5,34.5.8,3.8,6.6,2.2,5.8-1.6h0Z"/>
    </g>
  </g>
</svg>