<?xml version="1.0" encoding="UTF-8"?>
<svg id="_图层_2" xmlns="http://www.w3.org/2000/svg" version="1.1" viewBox="0 0 761.54 443.32">
  <!-- Generator: Adobe Illustrator 29.5.0, SVG Export Plug-In . SVG Version: 2.1.0 Build 137)  -->
  <defs>
    <style>
      .st0 {
        fill: #f2f2f2;
      }
    </style>
  </defs>
  <path d="M761.54,328.04L423.58,19.28h0s-6.17-6.4-6.17-6.4h0c-3.06-7.57-10.44-12.88-18.84-12.88-.69,0-1.39.04-2.09.11L17.58,39.75C7.54,40.8,0,49.26,0,59.47v104.77c0,11.42,9.31,20.59,20.35,20.59.69,0,1.39-.04,2.09-.11l406.04,138.66h0s333.06,118.14,333.06,118.14v-113.48Z"/>
  <path class="st0" d="M411.91,20.59v104.77c0,6.6-4.86,12.08-11.31,12.76L21.71,177.76c-.45.05-.91.07-1.36.07-7.24,0-13.35-6.22-13.35-13.59V59.47c0-6.6,4.86-12.08,11.31-12.76L397.2,7.07c.45-.05.91-.07,1.36-.07,7.24,0,13.35,6.22,13.35,13.59Z"/>
</svg>