<?xml version="1.0" encoding="UTF-8"?>
<svg id="_图层_2" xmlns="http://www.w3.org/2000/svg" version="1.1" viewBox="0 0 122.43 85.28">
  <!-- Generator: Adobe Illustrator 29.5.0, SVG Export Plug-In . SVG Version: 2.1.0 Build 137)  -->
  <defs>
    <style>
      .st0 {
        fill: #fff;
      }
    </style>
  </defs>
  <rect width="122.43" height="85.28" rx="8.61" ry="8.61"/>
  <g>
    <path class="st0" d="M48.13,62.92c-.5,0-.98-.25-1.27-.7-.44-.7-.23-1.63.47-2.07l13.66-8.63c.51-.32,1.16-.31,1.65.03l12.52,8.63c.68.47.85,1.41.38,2.09-.47.68-1.41.85-2.09.38l-11.7-8.07-12.82,8.1c-.25.16-.53.23-.8.23Z"/>
    <path class="st0" d="M48.13,73.45c-.5,0-.98-.25-1.27-.7-.44-.7-.23-1.63.47-2.07l13.66-8.63c.51-.32,1.16-.31,1.65.03l12.52,8.63c.68.47.85,1.41.38,2.09-.47.68-1.41.85-2.09.38l-11.7-8.07-12.82,8.1c-.25.16-.53.23-.8.23Z"/>
  </g>
</svg>