<?xml version="1.0" encoding="UTF-8"?>
<svg id="_图层_2" xmlns="http://www.w3.org/2000/svg" version="1.1" viewBox="0 0 122.4 85.3">
  <!-- Generator: Adobe Illustrator 29.5.0, SVG Export Plug-In . SVG Version: 2.1.0 Build 137)  -->
  <defs>
    <style>
      .st0 {
        fill: #faf9f6;
      }

      .st1 {
        fill: #363636;
      }
    </style>
  </defs>
  <rect class="st1" width="122.4" height="85.3" rx="8.6" ry="8.6"/>
  <g>
    <path class="st0" d="M48.1,62.9c-.5,0-1-.2-1.3-.7-.4-.7-.2-1.6.5-2.1l13.7-8.6c.5-.3,1.2-.3,1.7,0l12.5,8.6c.7.5.8,1.4.4,2.1s-1.4.8-2.1.4l-11.7-8.1-12.8,8.1c-.2.2-.5.2-.8.2h-.1Z"/>
    <path class="st0" d="M48.1,73.4c-.5,0-1-.2-1.3-.7-.4-.7-.2-1.6.5-2.1l13.7-8.6c.5-.3,1.2-.3,1.7,0l12.5,8.6c.7.5.8,1.4.4,2.1-.5.7-1.4.8-2.1.4l-11.7-8.1-12.8,8.1c-.2.2-.5.2-.8.2h-.1Z"/>
  </g>
</svg>