<?xml version="1.0" encoding="UTF-8"?>
<svg id="_图层_2" xmlns="http://www.w3.org/2000/svg" version="1.1" viewBox="0 0 662.71 365.72">
  <!-- Generator: Adobe Illustrator 29.5.0, SVG Export Plug-In . SVG Version: 2.1.0 Build 137)  -->
  <defs>
    <style>
      .st0 {
        fill: #91ff85;
      }
    </style>
  </defs>
  <path d="M324.02,68.54h0S231.62,8.08,231.62,8.08l-.11.05C230.1,3.42,225.74,0,220.73,0c-.39,0-.77.02-1.16.06L9.73,22.01c-5.56.58-9.73,5.27-9.73,10.92v58.02c0,6.21,4.98,11.21,10.95,11.38l-.97.42,336.59,135.93,313.71,128.21,2.14-78.51L324.02,68.54Z"/>
  <path class="st0" d="M225,11.4v58.02c0,2.08-1.46,3.75-3.46,3.96L11.7,95.34c-.14.01-.29.02-.43.02-2.32,0-4.27-2.02-4.27-4.4v-58.02c0-2.08,1.46-3.75,3.46-3.96L220.3,7.02c.14-.01.29-.02.43-.02,2.32,0,4.27,2.02,4.27,4.4Z"/>
  <path d="M34.78,72.44c2.11-.21,4.07-.86,5.91-1.93v5.21c-1.91.81-3.88,1.31-5.91,1.52-4.89.49-9.07-.66-12.54-3.44-3.47-2.79-5.2-6.39-5.2-10.81s1.73-8.37,5.2-11.86c3.47-3.48,7.65-5.47,12.54-5.96,2.03-.2,3.99-.1,5.91.31v5.23c-1.83-.72-3.8-.98-5.91-.77-3.43.34-6.37,1.75-8.8,4.2-2.43,2.44-3.64,5.21-3.64,8.32s1.21,5.63,3.64,7.58,5.36,2.76,8.8,2.41h0Z"/>
  <path d="M48.41,71.16c-3.47-2.79-5.2-6.39-5.2-10.81s1.73-8.38,5.2-11.86,7.65-5.47,12.54-5.96c4.89-.49,9.07.66,12.54,3.44,3.47,2.78,5.2,6.39,5.2,10.81s-1.73,8.37-5.2,11.86c-3.47,3.48-7.65,5.47-12.54,5.96s-9.07-.66-12.54-3.44ZM52.15,51.5c-2.43,2.44-3.64,5.21-3.64,8.32s1.21,5.63,3.64,7.58c2.43,1.95,5.36,2.76,8.8,2.41,3.43-.34,6.37-1.74,8.8-4.18,2.43-2.44,3.64-5.21,3.64-8.32s-1.21-5.63-3.64-7.59c-2.43-1.95-5.36-2.75-8.8-2.41-3.43.34-6.37,1.74-8.8,4.18h0Z"/>
  <path d="M108.08,38.13v31.43l-5.52.55-14.87-20.97v22.47l-5.27.53v-31.43l5.52-.55,14.85,20.98v-22.47l5.3-.53h-.01Z"/>
  <path d="M132.38,35.68v4.77l-7.36.74v26.66l-5.3.53v-26.66l-7.36.74v-4.77s20.02-2.01,20.02-2.01Z"/>
  <path d="M162.73,32.64v31.43l-5.3.53v-7.34l-11.81,1.19-5.13,7.85-6.25.63,21.99-33.64,6.49-.65h0ZM148.95,53.35l8.48-.85v-12.1s-8.48,12.95-8.48,12.95Z"/>
  <path d="M184.87,57.36c2.11-.21,4.07-.86,5.9-1.93v5.21c-1.91.81-3.88,1.31-5.9,1.52-4.89.49-9.07-.66-12.54-3.44-3.47-2.79-5.2-6.39-5.2-10.81s1.73-8.38,5.2-11.86,7.65-5.47,12.54-5.96c2.02-.2,3.99-.1,5.9.31v5.23c-1.83-.72-3.8-.98-5.9-.77-3.43.35-6.37,1.75-8.8,4.2-2.43,2.44-3.64,5.21-3.64,8.32s1.21,5.63,3.64,7.58,5.36,2.76,8.8,2.41h0Z"/>
  <path d="M213.95,27.49v4.77l-7.36.74v26.66l-5.3.53v-26.66l-7.36.74v-4.77l20.02-2.01Z"/>
</svg>