<?xml version="1.0" encoding="UTF-8"?>
<svg id="_图层_2" xmlns="http://www.w3.org/2000/svg" version="1.1" viewBox="0 0 662.7 365.7">
  <!-- Generator: Adobe Illustrator 29.5.0, SVG Export Plug-In . SVG Version: 2.1.0 Build 137)  -->
  <defs>
    <style>
      .st0 {
        fill: #faf9f6;
      }

      .st1 {
        fill: #363636;
      }
    </style>
  </defs>
  <path class="st1" d="M324,68.5h0L231.6,8.1h-.1c-1.4-4.7-5.8-8.1-10.8-8.1s-.8,0-1.2,0L9.7,22c-5.6.6-9.7,5.3-9.7,10.9v58c0,6.2,5,11.2,10.9,11.4l-1,.4,336.6,135.9,313.7,128.2,2.1-78.5L324,68.5Z"/>
  <path class="st0" d="M225,11.4v58c0,2.1-1.5,3.8-3.5,4L11.7,95.3h-.4c-2.3,0-4.3-2-4.3-4.4v-58c0-2.1,1.5-3.8,3.5-4L220.3,7h.4c2.3,0,4.3,2,4.3,4.4Z"/>
  <g>
    <path class="st1" d="M40,54.6l-6.4,2.1c-.3-1.4-1.1-2.4-2.2-3.2-1.1-.8-2.5-1-4-.9-2.3.3-4.1,1.4-5.4,3.4-1.2,1.8-1.8,4.1-1.8,6.8s.7,5.3,2.2,6.9c1.4,1.5,3.1,2.1,5.1,1.9,3.6-.4,5.8-2.8,6.4-7.1l6.4,1.3c-.7,3.3-2.1,6-4.3,8s-5,3.2-8.6,3.6c-4.4.5-8-.5-10.5-3.1-2.5-2.5-3.8-6-3.8-10.6s1.3-8.3,4-11.3c2.6-3,6.1-4.8,10.3-5.2,3.3-.4,6.1.2,8.4,1.8,2.1,1.4,3.5,3.3,4.2,5.8,0,0,0-.2,0-.2Z"/>
    <path class="st1" d="M71.6,57.3c0,4.5-1.4,8.4-4.1,11.5-2.7,3.1-6.2,4.9-10.6,5.3-4.3.4-7.8-.6-10.5-3s-4.1-5.9-4.2-10.5c0-4.5,1.3-8.2,3.8-11.3,2.7-3.2,6.3-5,10.9-5.5,4.4-.5,8,.6,10.8,3.3,2.6,2.6,3.9,6,3.9,10.2ZM64.2,58.1c0-2.9-.7-5.2-2-6.7-1.3-1.6-3.1-2.2-5.5-2-2.2.3-4.1,1.3-5.5,3.2s-2.1,4.3-2.1,7.2.7,5.2,2.2,6.8c1.4,1.4,3.1,2,5.3,1.8,2.4-.3,4.2-1.3,5.5-3.1,1.3-1.8,2-4.2,2-7.1h0Z"/>
    <path class="st1" d="M100.8,68.6l-6.8.8-11.7-17.1c-.5-.8-1.1-1.7-1.6-2.6h0c0,1.1.2,2.7.2,5v16.2l-6.3.7v-29.4l7.2-.8,11.3,16.6c.6.9,1.1,1.8,1.5,2.7h0c0-1.7-.2-3.2-.2-4.5v-16.3l6.3-.7v29.4h0Z"/>
    <path class="st1" d="M129.7,41.4l-9.6,1.1v24l-6.8.8v-24l-9.6,1.1v-5.4l26-2.9v5.4h0Z"/>
    <path class="st1" d="M160.4,62l-7.4.8-2.2-6.3-11.3,1.3-2.1,6.8-7.2.8,11.1-30.6,8-.9,11.1,28.1h0ZM149.5,51.6l-3.7-9.6c-.3-.7-.5-1.5-.7-2.4h0c-.2.8-.4,1.7-.7,2.7l-3.4,10.3,8.6-1h-.1Z"/>
    <path class="st1" d="M187.8,38.1l-6.4,2.1c-.3-1.4-1.1-2.4-2.2-3.2-1.1-.8-2.5-1-4-.9-2.3.3-4.1,1.4-5.4,3.4-1.2,1.8-1.8,4.1-1.8,6.8s.7,5.3,2.2,6.9c1.4,1.5,3.1,2.1,5.1,1.9,3.6-.4,5.8-2.8,6.4-7.1l6.4,1.3c-.7,3.3-2.1,6-4.3,8s-5,3.2-8.6,3.6c-4.4.5-8-.5-10.5-3.1-2.5-2.5-3.8-6-3.8-10.6s1.3-8.3,4-11.3c2.6-3,6.1-4.8,10.3-5.2,3.3-.4,6.1.2,8.4,1.8,2.1,1.4,3.5,3.3,4.2,5.8v-.2h0Z"/>
    <path class="st1" d="M215.9,31.8l-9.6,1.1v24l-6.8.8v-24l-9.6,1.1v-5.4l26-2.9v5.4h0Z"/>
  </g>
</svg>