<?xml version="1.0" encoding="UTF-8"?>
<svg id="_图层_2" xmlns="http://www.w3.org/2000/svg" version="1.1" viewBox="0 0 662.4 366.9">
  <!-- Generator: Adobe Illustrator 29.5.0, SVG Export Plug-In . SVG Version: 2.1.0 Build 137)  -->
  <defs>
    <style>
      .st0 {
        fill: #f2f2f2;
      }
    </style>
  </defs>
  <path d="M319.1,64v.04S231.6,6.9,231.6,6.9l-.45.19C229.46,2.93,225.4,0,220.7,0h-1.2L9.7,22c-5.6.6-9.7,5.3-9.7,10.9v58c0,6.3,5.2,11.4,11.3,11.4h.42l344.38,140.5-.32-3.44.72,3.44,303.8,124.1,2.1-78.5L319.1,64Z"/>
  <path class="st0" d="M225,11.4v58c0,2.1-1.5,3.8-3.5,4L11.7,95.3h-.4c-2.3,0-4.3-2-4.3-4.4v-58c0-2.1,1.5-3.8,3.5-4L220.3,7h.4c2.3,0,4.3,2,4.3,4.4Z"/>
  <path d="M77.7,38v31.4l-5.3.5v-13.3l-14.1,1.4v13.3l-5.3.5v-31.4l5.3-.5v13.3l14.1-1.4v-13.3l5.3-.5Z"/>
  <path d="M86.6,64.2c-3.5-2.8-5.2-6.4-5.2-10.8s1.7-8.4,5.2-11.9,7.7-5.5,12.5-6c4.9-.5,9.1.7,12.5,3.4s5.2,6.4,5.2,10.8-1.7,8.4-5.2,11.9-7.7,5.5-12.5,6-9.1-.7-12.5-3.4h0ZM90.4,44.5c-2.4,2.4-3.6,5.2-3.6,8.3s1.2,5.6,3.6,7.6,5.4,2.8,8.8,2.4c3.4-.3,6.4-1.7,8.8-4.2s3.6-5.2,3.6-8.3-1.2-5.6-3.6-7.6-5.4-2.8-8.8-2.4c-3.4.3-6.4,1.7-8.8,4.2Z"/>
  <path d="M157,30v31.4l-5.3.5v-20l-9.7,20.9-5.9.6-9.5-18.9v19.8l-5.3.5v-31.4l5.5-.5,12.2,24.4,12.4-26.9,5.5-.5h0l.1.1Z"/>
  <path d="M180.6,27.7v4.8l-12.5,1.2v8.5l9.6-1v4.8l-9.6,1v8.6l12.5-1.2v4.8l-17.7,1.8v-31.4l17.7-1.8h0v-.1Z"/>
</svg>