<?xml version="1.0" encoding="UTF-8"?>
<svg id="_图层_2" xmlns="http://www.w3.org/2000/svg" version="1.1" viewBox="0 0 662.4 366.9">
  <!-- Generator: Adobe Illustrator 29.5.0, SVG Export Plug-In . SVG Version: 2.1.0 Build 137)  -->
  <defs>
    <style>
      .st0 {
        fill: #faf9f6;
      }

      .st1 {
        fill: #363636;
      }
    </style>
  </defs>
  <path class="st1" d="M319.1,64h0L231.6,6.9l-.4.2c-1.7-4.2-5.8-7.1-10.5-7.1h-1.2L9.7,22c-5.6.6-9.7,5.3-9.7,10.9v58c0,6.3,5.2,11.4,11.3,11.4h.4l344.4,140.5-.3-3.4.7,3.4,303.8,124.1,2.1-78.5L319.1,64Z"/>
  <path class="st0" d="M225,11.4v58c0,2.1-1.5,3.8-3.5,4L11.7,95.3h-.4c-2.3,0-4.3-2-4.3-4.4v-58c0-2.1,1.5-3.8,3.5-4L220.3,7h.4c2.3,0,4.3,2,4.3,4.4Z"/>
  <g>
    <path class="st1" d="M80.5,70.6l-6.7.7v-11.9l-12.9,1.4v11.9l-6.7.7v-29.4l6.7-.7v11.7l12.9-1.4v-11.7l6.7-.7v29.4Z"/>
    <path class="st1" d="M113.5,52.3c0,4.5-1.4,8.4-4.1,11.5s-6.2,4.9-10.6,5.3c-4.3.4-7.8-.6-10.5-3s-4.1-5.9-4.2-10.5c0-4.5,1.3-8.2,3.8-11.3,2.7-3.2,6.3-5,10.9-5.5,4.4-.5,8,.6,10.8,3.3,2.6,2.6,3.9,6,3.9,10.2h0ZM106.1,53.2c0-2.9-.7-5.2-2-6.7-1.3-1.6-3.1-2.2-5.5-2-2.2.3-4.1,1.3-5.5,3.2s-2.1,4.3-2.1,7.2.7,5.2,2.2,6.8c1.4,1.4,3.1,2,5.3,1.8,2.4-.3,4.2-1.3,5.5-3.1s2-4.2,2-7.1h0Z"/>
    <path class="st1" d="M148.3,63.1l-6.4.7v-17.6c0-2.1,0-4.3.2-6.6h-.1c-.3,2.1-.7,3.8-1,5.1l-5.5,19.7-5.7.6-5.5-19.1c-.4-1.2-.7-2.7-1.1-4.3h0c.2,2.9.3,5.5.3,7.9v16.2l-6.4.7v-29.4l10-1.1,5.2,18.5c.2.7.3,1.7.4,3.1h0c0-1.5.2-2.6.4-3.2l5.3-19.7,10-1.1v29.6h0Z"/>
    <path class="st1" d="M176.1,60l-23.3,2.6v-29.4l22.8-2.5v5.4l-16.1,1.8v6.3l15.1-1.7v5.3l-15.1,1.7v6.9l16.5-1.8v5.3h.1Z"/>
  </g>
</svg>