<?xml version="1.0" encoding="UTF-8"?>
<svg id="_图层_2" xmlns="http://www.w3.org/2000/svg" version="1.1" viewBox="0 0 662.4 366.9">
  <!-- Generator: Adobe Illustrator 30.5.1, SVG Export Plug-In . SVG Version: 2.1.4 Build 3)  -->
  <defs>
    <style>
      .st0 {
        fill: #f2f2f2;
      }
    </style>
  </defs>
  <g id="_图层_1-2">
    <g>
      <polygon points="231.6 6.9 340.8 78.2 356.1 242.8 10 101.6 231.6 6.9"/>
      <g>
        <path class="st0" d="M11.3,98.9c-4.2,0-7.8-3.6-7.8-7.9v-58c0-3.9,2.8-7,6.6-7.4L219.9,3.5c.3,0,.5,0,.8,0,4.3,0,7.8,3.6,7.8,7.9v58c0,3.8-2.8,7.1-6.6,7.4L12.1,98.8c-.3,0-.5,0-.8,0Z"/>
        <path d="M220.7,7c2.3,0,4.3,2,4.3,4.4v58c0,2.1-1.5,3.8-3.5,4L11.7,95.3c-.1,0-.3,0-.4,0-2.3,0-4.3-2-4.3-4.4v-58c0-2.1,1.5-3.8,3.5-4L220.3,7c.1,0,.3,0,.4,0M220.7,0c-.4,0-.8,0-1.2,0L9.7,22c-5.6.6-9.7,5.3-9.7,10.9v58c0,6.3,5.2,11.4,11.3,11.4s.8,0,1.2,0l209.8-22c5.6-.6,9.7-5.3,9.7-10.9V11.4c0-6.3-5.1-11.4-11.3-11.4h0Z"/>
      </g>
      <g>
        <path d="M77.7,38v31.4l-5.3.5v-13.3l-14.1,1.4v13.3l-5.3.5v-31.4l5.3-.5v13.3l14.1-1.4v-13.3s5.3-.5,5.3-.5Z"/>
        <path d="M86.6,64.2c-3.5-2.8-5.2-6.4-5.2-10.8s1.7-8.4,5.2-11.9c3.5-3.5,7.7-5.5,12.5-6,4.9-.5,9.1.7,12.5,3.4s5.2,6.4,5.2,10.8-1.7,8.4-5.2,11.9c-3.5,3.5-7.7,5.5-12.5,6s-9.1-.7-12.5-3.4h0ZM90.4,44.5c-2.4,2.4-3.6,5.2-3.6,8.3s1.2,5.6,3.6,7.6c2.4,2,5.4,2.8,8.8,2.4,3.4-.3,6.4-1.7,8.8-4.2s3.6-5.2,3.6-8.3-1.2-5.6-3.6-7.6-5.4-2.8-8.8-2.4c-3.4.3-6.4,1.7-8.8,4.2Z"/>
        <path d="M157,30v31.4l-5.3.5v-20l-9.7,20.9-5.9.6-9.5-18.9v19.8l-5.3.5v-31.4l5.5-.5,12.2,24.4,12.4-26.9,5.5-.5h0Z"/>
        <path d="M180.6,27.7v4.8l-12.5,1.2v8.5l9.6-1v4.8l-9.6,1v8.6l12.5-1.2v4.8l-17.7,1.8v-31.4l17.7-1.8h0Z"/>
      </g>
    </g>
    <polygon points="319.1 64 662.4 288.4 660.3 366.9 356.5 242.8 319.1 64"/>
  </g>
</svg>