<?xml version="1.0" encoding="UTF-8"?>
<svg id="_图层_2" xmlns="http://www.w3.org/2000/svg" version="1.1" viewBox="0 0 652.49 356.24">
  <!-- Generator: Adobe Illustrator 29.5.0, SVG Export Plug-In . SVG Version: 2.1.0 Build 137)  -->
  <defs>
    <style>
      .st0 {
        fill: #91ff85;
      }
    </style>
  </defs>
  <g id="_图层_1-2">
    <g>
      <polygon points="231.62 6.88 340.8 78.2 340.8 231.17 9.98 101.55 231.62 6.88"/>
      <g>
        <path class="st0" d="M11.27,98.86c-4.21,0-7.77-3.62-7.77-7.9v-58.02c0-3.85,2.84-7.05,6.6-7.44L219.93,3.54c.27-.03.53-.04.79-.04,4.29,0,7.77,3.55,7.77,7.9v58.02c0,3.85-2.84,7.05-6.6,7.44L12.06,98.82c-.27.03-.53.04-.79.04Z"/>
        <path d="M220.73,7c2.32,0,4.27,2.02,4.27,4.4v58.02c0,2.08-1.46,3.75-3.46,3.96L11.7,95.34c-.14.01-.29.02-.43.02-2.32,0-4.27-2.02-4.27-4.4v-58.02c0-2.08,1.46-3.75,3.46-3.96L220.3,7.02c.14-.01.29-.02.43-.02M220.73,0c-.39,0-.77.02-1.16.06L9.73,22.01c-5.56.58-9.73,5.27-9.73,10.92v58.02c0,6.32,5.16,11.4,11.27,11.4.38,0,.77-.02,1.16-.06l209.83-21.95c5.56-.58,9.73-5.27,9.73-10.92V11.4c0-6.32-5.15-11.4-11.26-11.4h0Z"/>
      </g>
      <g>
        <path d="M77.74,38.01v31.43l-5.27.53v-13.35l-14.14,1.42v13.35l-5.27.53v-31.39l5.27-.53v13.27l14.14-1.42v-13.31s5.27-.53,5.27-.53Z"/>
        <path d="M86.63,64.15c-3.47-2.79-5.2-6.39-5.2-10.81s1.73-8.37,5.2-11.86c3.47-3.48,7.65-5.47,12.54-5.96,4.89-.49,9.07.66,12.54,3.44s5.2,6.39,5.2,10.81-1.73,8.37-5.2,11.85c-3.47,3.48-7.65,5.47-12.54,5.96s-9.07-.66-12.54-3.44h0ZM90.38,44.49c-2.43,2.44-3.64,5.21-3.64,8.32s1.21,5.63,3.64,7.58c2.43,1.95,5.36,2.76,8.8,2.41,3.43-.34,6.37-1.74,8.8-4.18s3.64-5.21,3.64-8.32-1.21-5.63-3.64-7.58-5.36-2.76-8.8-2.41c-3.43.35-6.37,1.74-8.8,4.18Z"/>
        <path d="M156.98,30.05v31.43l-5.27.53v-19.96l-9.67,20.94-5.95.6-9.5-18.88v19.83l-5.27.53v-31.43l5.52-.55,12.25,24.42,12.39-26.9,5.52-.55h-.02Z"/>
        <path d="M180.6,27.68v4.77l-12.47,1.25v8.52l9.62-.97v4.77l-9.62.97v8.61l12.47-1.25v4.77l-17.74,1.78v-31.43l17.74-1.78h0Z"/>
      </g>
    </g>
    <polygon points="319.11 64.03 652.49 282.59 650.39 356.24 341.23 231.17 319.11 64.03"/>
  </g>
</svg>