<?xml version="1.0" encoding="UTF-8"?>
<svg id="_图层_2" xmlns="http://www.w3.org/2000/svg" version="1.1" viewBox="0 0 662.7 366.2">
  <!-- Generator: Adobe Illustrator 29.5.0, SVG Export Plug-In . SVG Version: 2.1.0 Build 137)  -->
  <defs>
    <style>
      .st0 {
        fill: #faf9f6;
      }

      .st1 {
        fill: #363636;
      }
    </style>
  </defs>
  <path class="st0" d="M225,11.4v58c0,2.1-1.5,3.8-3.5,4L29.9,93.4l-18.2,1.9h-.4c-2.3,0-4.3-2-4.3-4.4v-58c0-2.1,1.5-3.8,3.5-4L220.3,7h.4c1.9,0,3.6,1.4,4.1,3.2.1.4.2.8.2,1.2h0Z"/>
  <path class="st1" d="M340.8,78.6h0l-3.9-2.6-12.1-8h0L231.7,7.3l-.4.2C229.7,3.1,225.5,0,220.7,0S219.9,0,219.5,0L9.7,22c-5.6.6-9.7,5.3-9.7,10.9v58c0,6.2,5,11.2,10.9,11.4l335.6,136.8,314,127,2.1-74.6L340.8,78.6ZM7,91v-58c0-2.1,1.5-3.8,3.5-4L220.3,7h.4c1.9,0,3.6,1.4,4.1,3.2.1.4.2.8.2,1.2v58c0,2.1-1.5,3.8-3.5,4L29.9,93.4l-18.2,1.9h-.4c-2.3,0-4.3-2-4.3-4.4h0Z"/>
  <g>
    <path class="st1" d="M72.6,42l-6.4,30.1-7.5.8-4.6-18.3c-.2-.9-.4-2-.5-3.3h0c0,1.3-.3,2.4-.5,3.4l-4.7,19.3-7.8.9-6.4-28.7,6.8-.8,3.3,19.1c.2,1,.3,2.2.5,3.4h0c.2-1.5.4-2.7.5-3.6l4.5-20,7.2-.8,4.8,19.2c.2,1,.4,2,.5,3.1h0c0-1.3.3-2.4.4-3.4l3.2-20,6.7-.7s0,.3,0,.3Z"/>
    <path class="st1" d="M103.4,53.3c0,4.5-1.4,8.4-4.1,11.5-2.7,3.1-6.2,4.9-10.6,5.3-4.3.4-7.8-.6-10.5-3s-4.1-5.9-4.2-10.5c0-4.5,1.3-8.2,3.8-11.3,2.7-3.2,6.3-5,10.9-5.5,4.4-.5,8,.6,10.8,3.3,2.6,2.6,3.9,6,3.9,10.2h0ZM96.1,54.1c0-2.9-.7-5.2-2-6.7-1.3-1.6-3.1-2.2-5.5-2-2.2.3-4.1,1.3-5.5,3.2s-2.1,4.3-2.1,7.2.7,5.2,2.2,6.8c1.4,1.4,3.1,2,5.3,1.8,2.4-.3,4.2-1.3,5.5-3.1s2-4.2,2-7.1h0Z"/>
    <path class="st1" d="M133.4,64.5l-8.5,1-7.2-10.7-3.8.4v11.5l-6.7.8v-29.4l13.5-1.5c3.6-.4,6.4,0,8.5,1.5,1.9,1.3,2.9,3.3,2.9,5.9s-.5,4.4-1.6,5.9c-1.2,1.7-3.1,2.9-5.7,3.7l8.8,10.9h-.2ZM119.5,41.8l-5.7.6v7.8l5.7-.6c1.9-.2,3.2-.7,4.1-1.4.8-.7,1.2-1.7,1.2-3s-.4-2.3-1.1-2.8c-.8-.6-2.2-.8-4.2-.6Z"/>
    <path class="st1" d="M163.8,61.1l-8.5.9-8.6-11.7-4.5,5.2v7.9l-6.7.7v-29.4l6.7-.7v13.3l12.3-14.6,8.3-.9-11.9,13.6,12.8,15.6h0Z"/>
    <path class="st1" d="M164.8,51.6l6.6-2c.6,4,2.8,5.8,6.7,5.3,1.5-.2,2.7-.6,3.5-1.4.8-.7,1.2-1.6,1.2-2.6s-.2-1.5-.6-2c-.5-.6-1.3-1-2.5-1.3-1.4-.4-3.4-.8-5.8-1-2.9-.3-4.9-1.1-6.2-2.3-1.2-1.2-1.8-2.9-1.8-5.1s1-4.2,3-5.9c2-1.8,4.7-2.9,7.9-3.2,3.7-.4,6.5,0,8.5,1.1,1.9,1.1,3.2,3,3.8,5.7l-6.6,2c-.2-1.3-.7-2.3-1.5-2.9-.9-.7-2.2-.9-3.9-.7-1.3,0-2.4.6-3.2,1.2-.7.6-1,1.2-1,2s.4,1.6,1.1,2c.7.5,2.1.8,4.1,1,2.8.3,5.1.8,7,1.6,1.6.7,2.9,1.6,3.7,3,.8,1.2,1.1,2.5,1.1,3.9,0,2.6-.9,4.9-2.8,6.6-2.1,2-5,3.2-8.8,3.6-4,.4-7.1,0-9.2-1.5-2.1-1.3-3.5-3.7-4.2-7h-.1Z"/>
  </g>
</svg>