<?xml version="1.0" encoding="UTF-8"?>
<svg id="_图层_2" xmlns="http://www.w3.org/2000/svg" version="1.1" viewBox="0 0 662.71 366.19">
  <!-- Generator: Adobe Illustrator 29.5.0, SVG Export Plug-In . SVG Version: 2.1.0 Build 137)  -->
  <defs>
    <style>
      .st0 {
        fill: #91ff85;
      }
    </style>
  </defs>
  <g id="_图层_1-2">
    <g>
      <g>
        <polygon points="231.62 7.28 340.8 78.6 346.57 239.15 9.98 101.95 231.62 7.28"/>
        <g>
          <path class="st0" d="M11.27,98.86c-4.29,0-7.77-3.55-7.77-7.9v-58.02c0-3.85,2.84-7.05,6.6-7.44L219.93,3.54c.27-.03.53-.04.79-.04,4.29,0,7.77,3.55,7.77,7.9v58.02c0,3.85-2.84,7.05-6.6,7.44L12.06,98.82c-.27.03-.53.04-.79.04Z"/>
          <path d="M220.73,7c2.32,0,4.27,2.02,4.27,4.4v58.02c0,2.08-1.46,3.75-3.46,3.96L11.7,95.34c-.14.01-.29.02-.43.02-2.32,0-4.27-2.02-4.27-4.4v-58.02c0-2.08,1.46-3.75,3.46-3.96L220.3,7.02c.14-.01.29-.02.43-.02M220.73,0c-.39,0-.77.02-1.16.06L9.73,22.01c-5.56.58-9.73,5.27-9.73,10.92v58.02c0,6.32,5.16,11.4,11.27,11.4.38,0,.77-.02,1.16-.06l209.83-21.95c5.56-.58,9.73-5.27,9.73-10.92V11.4c0-6.32-5.15-11.4-11.26-11.4h0Z"/>
        </g>
        <g>
          <path d="M38.41,42.84v23.83l15.53-25.39,6.37-.64v23.83l15.53-25.39,6.12-.61-20.48,33.49-6.46.65v-23.65l-15.4,25.2-6.46.65v-31.43l5.27-.53h-.02Z"/>
          <path d="M88.25,64.87c-3.47-2.79-5.2-6.39-5.2-10.81s1.73-8.37,5.2-11.86c3.47-3.48,7.65-5.47,12.54-5.96,4.89-.49,9.07.66,12.54,3.44s5.2,6.39,5.2,10.81-1.73,8.37-5.2,11.86c-3.47,3.48-7.65,5.47-12.54,5.96-4.89.49-9.07-.66-12.54-3.44ZM91.99,45.21c-2.43,2.44-3.65,5.21-3.65,8.32s1.21,5.63,3.65,7.58c2.43,1.95,5.36,2.76,8.8,2.41,3.43-.35,6.37-1.74,8.8-4.18s3.65-5.21,3.65-8.32-1.22-5.63-3.65-7.59c-2.43-1.95-5.36-2.76-8.8-2.41-3.43.34-6.37,1.74-8.8,4.18h0Z"/>
          <path d="M147.12,63.35l-5.95.6-7.6-12.48-5.95.6v13.24l-5.27.53v-31.43l12.83-1.29c2.77-.28,5.13.38,7.09,1.97,1.98,1.57,2.96,3.62,2.96,6.14,0,1.84-.57,3.59-1.72,5.22-1.12,1.61-2.58,2.85-4.4,3.74l8.02,13.16h-.01ZM135.17,46.54c1.31-.13,2.44-.67,3.38-1.61.92-.93,1.38-1.98,1.38-3.17s-.46-2.18-1.38-2.94c-.94-.75-2.07-1.07-3.38-.93l-7.56.76v8.65s7.56-.76,7.56-.76Z"/>
          <path d="M174.53,29.16l-13.9,17.03,14.38,14.35-6.85.69-10.91-10.9-1.63,1.99v10.17l-5.27.53v-31.43l5.27-.53v13.64l12.15-14.86,6.76-.68h0Z"/>
          <path d="M188.43,59.48c-2.3.14-4.42-.2-6.37-1.03-2.2-.93-3.7-2.34-4.5-4.2l4.96-2.15c.4.93,1.24,1.63,2.5,2.1,1.12.4,2.33.56,3.65.49,2.02-.13,3.7-.75,5.03-1.85,1.12-.93,1.71-1.93,1.77-2.99.1-2.02-2.23-3.39-6.97-4.11-7.43-1.14-11.04-3.98-10.81-8.51.15-3.18,1.64-5.69,4.5-7.55,2.17-1.42,4.78-2.22,7.83-2.39,3.69-.22,6.66.64,8.89,2.6l-3.86,3.64c-1.26-1.1-3.02-1.59-5.27-1.45-1.59.1-2.94.42-4.06.96-1.75.85-2.67,2.14-2.75,3.88-.1,1.99,2.23,3.34,6.97,4.07,4.28.65,7.31,1.95,9.09,3.88,1.23,1.34,1.81,2.9,1.73,4.68-.13,2.5-1.38,4.74-3.74,6.7-2.2,1.82-4.84,2.88-7.92,3.19-.23.02-.45.04-.66.04h0Z"/>
        </g>
      </g>
      <polygon points="324.77 68.03 662.71 291.54 660.57 366.19 346.57 239.15 324.77 68.03"/>
    </g>
  </g>
</svg>