<?xml version="1.0" encoding="UTF-8"?>
<svg id="_图层_2" xmlns="http://www.w3.org/2000/svg" version="1.1" viewBox="0 0 1031.9 892.6">
  <!-- Generator: Adobe Illustrator 29.5.0, SVG Export Plug-In . SVG Version: 2.1.0 Build 137)  -->
  <defs>
    <style>
      .st0 {
        fill: #faf9f6;
      }

      .st1 {
        fill: #363636;
      }

      .st2 {
        isolation: isolate;
      }

      .st3 {
        fill: #363637;
      }
    </style>
  </defs>
  <path class="st0" d="M18.7,887.6c-3.5,0-6.8-1.4-9.5-3.8-2.7-2.6-4.2-6.2-4.2-10V18.8c0-3.9,1.7-7.7,4.6-10.4,2.5-2.2,5.7-3.4,9.2-3.4s1.1,0,1.6,0l994.3,117.6h0c6.9.8,12.2,6.7,12.2,13.6v684.2c0,7.4-5.7,13.4-13.1,13.8L19.6,887.6h-.9Z"/>
  <path class="st1" d="M1015.4,117.7L21,.1c-5.3-.6-10.7,1-14.7,4.6C2.3,8.3,0,13.4,0,18.8v855c0,5.2,2.1,10,5.8,13.6,3.5,3.3,8.1,5.2,12.9,5.2s.7,0,1,0l994.4-53.3c10-.5,17.8-8.8,17.8-18.8V136.3c0-9.5-7.1-17.5-16.6-18.6h0ZM1025.9,820.5c0,6.8-5.3,12.4-12.1,12.8L19.5,886.5c-3.5.2-6.9-1-9.5-3.5s-4-5.7-4-9.3V18.8c0-3.6,1.6-7.1,4.3-9.5,2.4-2.1,5.4-3.2,8.5-3.2s1,0,1.5,0l361.3,42.7,37,62.5c4.4,7.4,12,12.4,20.6,13.3l239.3,26.8c10.6,1.2,21-3.9,26.5-13l29.3-47.9,280.4,33.2c6.4.8,11.3,6.2,11.3,12.7v684.1h0Z"/>
  <g>
    <g>
      <g class="st2">
        <path class="st0" d="M490.9,95.2l-5.5-.7-3.2,6.2,6.5.8-3.2,4.8-12.4-1.5,13.8-26,12.3,1.5-2.6,4.9-5.7-.7-2.7,5,5.5.7-2.6,4.9h-.2,0Z"/>
        <path class="st0" d="M501.5,85.8l-3.4-.4,2.6-4.9,13.4,1.6-2.6,4.9-3.5-.4-11.2,21.1-6.5-.8,11.2-21.1h0Z"/>
        <path class="st0" d="M513,100.7l-1.2,2.2c-.8,1.6-.7,2,0,2.1.6,0,1-.4,1.7-1.8,1-1.9.8-3.3-.4-5.6-1.6-3.1-2.8-5.2-.4-9.8,2.2-4.2,4.9-5.8,9.3-5.2,6.8.8,5.7,5,3.7,8.8l-.4.7-5.8-.7,1-1.9c.8-1.4.9-2.1,0-2.2-.4,0-.9,0-1.5,1.2-1.1,2-.8,2.5.3,4.8,2.2,4.5,2.8,6.3.5,10.8-2.4,4.6-5.4,6-10.1,5.4-5.6-.7-6.4-3.8-3.7-8.7l.6-1,6.3.8h.1Z"/>
        <path class="st0" d="M539.1,85.1l-10.8,20.2c-.5.9-.5,1.5.2,1.6.8,0,1.1-.4,1.7-1.3l10.8-20.2,6.7.8-10.3,19.5c-2.5,4.8-5,6.7-10.8,6s-6.5-3.6-4.2-8.1l10.2-19.2,6.6.8h-.1Z"/>
      </g>
      <g>
        <polygon class="st0" points="476.9 88.1 475.5 90.9 457.4 88.8 459.5 86 476.9 88.1"/>
        <polygon class="st0" points="479 83.6 477.6 86.5 466 85.1 468.2 82.3 479 83.6"/>
        <polygon class="st0" points="474.6 92.5 473.2 95.4 444.3 91.9 446.5 89.2 474.6 92.5"/>
        <polygon class="st0" points="472.3 97 470.9 99.8 434.5 95.5 436.7 92.8 472.3 97"/>
        <polygon class="st0" points="470 101.4 468.6 104.3 438.5 100.7 440.7 97.9 470 101.4"/>
      </g>
    </g>
    <polygon class="st0" points="568.6 121.9 565.8 121.6 565.8 80.3 568.6 80.6 568.6 121.9"/>
  </g>
  <g>
    <path class="st3" d="M232.3,287.6c-28.3,20.2-56.1,41.2-82.3,63.9-13.5,11.7-27.9,24.7-40.8,37-2.5,2.4-16,15.3-16.2,17.1,0,3.5,3.4,5.6,6.3,3.3,43-41.9,89.1-80.4,137.6-115.8,1.6-3.3-1-6.4-4.5-5.5h-.1Z"/>
    <path class="st3" d="M582.3,382.4c-5.6-18.6-13.6-38.8-23.1-55.7-1.8-3.3-4.8-10.9-9-9.7-.8.2-1.8,1-2.1,1.8-1.8,3.7,6.9,16.3,8.9,20.5,6.9,14.6,13,29.5,17.7,44.9,2.3,7.6,6.1,29.5,9.2,34.5,1.7,2.7,5.5,2.3,6.8-.6.6-.9.4-1.7.3-2.6-.6-7.7-6.2-25.1-8.6-33.2h-.1Z"/>
    <path class="st3" d="M486.4,264.8c-1-1.6-3.4-4.3-5.4-3.8-6,1.5,0,10,1,12.9,9,25.5,14.6,51.9,20.4,78.3l1.6,2.2c6.2,1.9,6.1-1.4,5.5-6.4-1.9-15.3-15.5-71.3-23.1-83.2h0Z"/>
    <path class="st3" d="M275.5,246.5c.5-.9.8-1.8.6-2.9-.9-2-2.7-3-4.8-2.4-12.3,7.2-24.7,14.4-36.7,22.2-5.3,3.4-36.1,23.8-37.5,27-2,4.5.9,7.1,5.2,5.2,13.2-9.6,26.6-19.1,40.4-28,5.3-3.4,31.5-18,33-21.1h-.2Z"/>
    <path class="st3" d="M351.5,235.5c-21,10.7-42.8,21-62.9,33.6-2.4,1.5-12,6.9-13.1,8.3-3.1,3.7-.3,8.3,4.2,6.6,23.6-15.6,49.1-28.1,74-41.3,2.1-3.1,1.7-6.2-2.2-7.1h0Z"/>
    <path class="st3" d="M419.1,242.9c-1.1-1.6-2.6-2.3-4.6-1.8l-37.1,32.2c-3.3,3.3-3.8,8,1.8,8.5l40.2-35.8-.3-3.1h0Z"/>
    <path class="st3" d="M126.8,268.6l2.9-.9,38.4-28.9c2.6-4.6,0-7.6-5.1-6-5.1,5.1-38.3,26.6-39.5,30.8-.7,2.5.8,4.6,3.2,5.1h.1Z"/>
    <path class="st3" d="M318.8,240.4c.4-1.1.3-2.3,0-3.5l-2.3-1.6c-.9-.1-1.7,0-2.6.2l-40.5,22.1c-3.1,2-3,7.4,1.4,7.2,6-2.6,42.9-20.9,44-24.4Z"/>
    <path class="st3" d="M517,282.1c-2.6-2.2-6.3-2-6.5,2.1-.2,4,2.2,5.1,3.4,8.1,1.8,4.3,11.1,29.5,13.4,30.2,1.1.4,2.4.3,3.5,0,2.7-.9,1.4-5.2.9-7.3-1-4-12.6-31.3-14.8-33.1h0Z"/>
    <path class="st3" d="M461,259.1c-5.3,1.3-1,18.1-.7,22.2.3,3.8.5,20.2,1.9,21.8,2.4,2.8,6,.2,6.6-2.9.9-4.7-1.7-32.6-3.3-37.5-.6-1.8-2.4-4.2-4.6-3.6h.1Z"/>
    <path class="st3" d="M119.4,245.9c-1.6.3-15.8,9.6-17.3,11.2-4.2,4.5-1.9,9,3.3,7.1,1-.4,17-11,17.7-11.8,1.3-1.6,2-2.7.9-4.8-1.1-1.7-2.5-2.2-4.5-1.8h-.1Z"/>
    <path class="st3" d="M427.4,259.2c-.8-.3-1.6-.2-2.4,0-1.8.3-13.7,11.6-14.5,13.2-1.7,3.6,1.5,6.9,5.2,5.2.9-.4,13.6-12.8,13.9-13.7.7-2.3,0-3.6-2.2-4.6h0Z"/>
    <path class="st3" d="M587,332.4c-7.4,0,.7,15.8,2.9,18.6,1.9,2.4,5.8,3.9,7,.3,1.1-3.2-5.8-18.9-9.8-18.9h-.1Z"/>
  </g>
  <path class="st3" d="M5.8,161.3c120.4,4,239.8,27.1,356.8,53.8,193.5,44.1,382.5,123.8,556,219.8,3.6,2,50.6,27.9,113.3,68.5v10.6c-48.1-34.5-108.6-67.2-111.9-68.9-263.2-138.4-351.4-160.7-448.3-193.5l-10-2.5c-2.4.3-15.3,16.6-18.9,18.7s-6.1,1.5-6.2-2.5,10.9-12.8,13.7-16.5,1.8-1.2,1.4-2.8c-9.5-1.6-53.2-14.1-53.2-14.1-.9-1.1-110.5-22-112-21.8s-5.2.6-7.1,1.1c-8.9,2.2-15.9,4.9-24.9,7.7s-27.5,11.4-29.5,11-3.4-4.5-2.1-6.5,24-10.2,27.5-11.4c6-2,12.3-3.5,18.5-4.7-.3-1.7-1.9-1.8-3.2-2-14-2.9-70.6-15.3-96.8-19.9-62.1-11.1-136.4-14.5-163.4-16.2v-7.6l.3-.3h0Z"/>
</svg>