<?xml version="1.0" encoding="UTF-8"?>
<svg id="_图层_2" xmlns="http://www.w3.org/2000/svg" version="1.1" viewBox="0 0 1031.9 892.6">
  <!-- Generator: Adobe Illustrator 29.5.0, SVG Export Plug-In . SVG Version: 2.1.0 Build 137)  -->
  <defs>
    <style>
      .st0 {
        fill: #faf9f6;
      }

      .st1 {
        fill: #363636;
      }

      .st2 {
        isolation: isolate;
      }

      .st3 {
        fill: #363637;
      }
    </style>
  </defs>
  <path class="st0" d="M18.7,887.6c-3.5,0-6.8-1.4-9.5-3.8-2.7-2.6-4.2-6.2-4.2-10V18.8c0-3.9,1.7-7.7,4.6-10.4,2.5-2.2,5.7-3.4,9.2-3.4s1.1,0,1.6,0l994.3,117.6h0c6.9.8,12.2,6.7,12.2,13.6v684.2c0,7.4-5.7,13.4-13.1,13.8L19.6,887.6h-.9Z"/>
  <path class="st1" d="M1015.4,117.7L21,.1c-5.3-.6-10.7,1-14.7,4.6C2.3,8.3,0,13.4,0,18.8v855c0,5.2,2.1,10,5.8,13.6,3.5,3.3,8.1,5.2,12.9,5.2s.7,0,1,0l994.4-53.3c10-.5,17.8-8.8,17.8-18.8V136.3c0-9.5-7.1-17.5-16.6-18.6h0ZM1025.9,820.5c0,6.8-5.3,12.4-12.1,12.8L19.5,886.5c-3.5.2-6.9-1-9.5-3.5s-4-5.7-4-9.3V18.8c0-3.6,1.6-7.1,4.3-9.5,2.4-2.1,5.4-3.2,8.5-3.2s1,0,1.5,0l361.3,42.7,37,62.5c4.4,7.4,12,12.4,20.6,13.3l239.3,26.8c10.6,1.2,21-3.9,26.5-13l29.3-47.9,280.4,33.2c6.4.8,11.3,6.2,11.3,12.7v684.1h0Z"/>
  <g>
    <g>
      <g class="st2">
        <path class="st0" d="M490.9,95.2l-5.5-.7-3.2,6.2,6.5.8-3.2,4.8-12.4-1.5,13.8-26,12.3,1.5-2.6,4.9-5.7-.7-2.7,5,5.5.7-2.6,4.9h-.2,0Z"/>
        <path class="st0" d="M501.5,85.8l-3.4-.4,2.6-4.9,13.4,1.6-2.6,4.9-3.5-.4-11.2,21.1-6.5-.8,11.2-21.1h0Z"/>
        <path class="st0" d="M513,100.7l-1.2,2.2c-.8,1.6-.7,2,0,2.1.6,0,1-.4,1.7-1.8,1-1.9.8-3.3-.4-5.6-1.6-3.1-2.8-5.2-.4-9.8,2.2-4.2,4.9-5.8,9.3-5.2,6.8.8,5.7,5,3.7,8.8l-.4.7-5.8-.7,1-1.9c.8-1.4.9-2.1,0-2.2-.4,0-.9,0-1.5,1.2-1.1,2-.8,2.5.3,4.8,2.2,4.5,2.8,6.3.5,10.8-2.4,4.6-5.4,6-10.1,5.4-5.6-.7-6.4-3.8-3.7-8.7l.6-1,6.3.8h.1Z"/>
        <path class="st0" d="M539.1,85.1l-10.8,20.2c-.5.9-.5,1.5.2,1.6.8,0,1.1-.4,1.7-1.3l10.8-20.2,6.7.8-10.3,19.5c-2.5,4.8-5,6.7-10.8,6s-6.5-3.6-4.2-8.1l10.2-19.2,6.6.8h-.1Z"/>
      </g>
      <g>
        <polygon class="st0" points="476.9 88.1 475.5 90.9 457.4 88.8 459.5 86 476.9 88.1"/>
        <polygon class="st0" points="479 83.6 477.6 86.5 466 85.1 468.2 82.3 479 83.6"/>
        <polygon class="st0" points="474.6 92.5 473.2 95.4 444.3 91.9 446.5 89.2 474.6 92.5"/>
        <polygon class="st0" points="472.3 97 470.9 99.8 434.5 95.5 436.7 92.8 472.3 97"/>
        <polygon class="st0" points="470 101.4 468.6 104.3 438.5 100.7 440.7 97.9 470 101.4"/>
      </g>
    </g>
    <polygon class="st0" points="568.6 121.9 565.8 121.6 565.8 80.3 568.6 80.6 568.6 121.9"/>
  </g>
  <g>
    <path class="st3" d="M5.8,148c130.4,11.5,259.6,34.8,387.2,63.1,168.9,37.4,365.1,94.7,518.3,177.5,3.4,1.9,6.9,3.7,10.3,5.6s101.6,54.8,107.7,60.9c.3.3,1.2,9.2-1.2,8.4-7.8-7.5-111.7-63-117.9-66.2-132.2-68.2-274-116.9-418.1-154.3-141.7-36.8-298.8-68.5-445-83.5-13.7-1.4-27.6-1.8-41.3-3.8v-7.6h0Z"/>
    <path class="st3" d="M5.8,463v-10.4c34.2-32.5,68.9-65.6,105.8-94.9,36.9-29.3,25.4-21,34.6-25.2s8.6,0,5.8,4.8-24.2,17.7-29,21.3c-41.2,32.2-79.1,68.6-117.2,104.3h0Z"/>
    <path class="st3" d="M308.3,250.7c1.6-.2,4.5-.8,5.5.7l-.5,5.3c-22.2,9.4-42.2,23.1-62,36.7-56.6,38.8-112.3,81.2-162.9,127.4-7.4,2.3-7-4.2-2.9-8.6,8.6-9,22.1-19.7,31.9-27.9,40.9-34.5,87.4-68.7,131.7-98.9,11.4-7.8,47.6-32.9,59.3-34.7h-.1Z"/>
    <path class="st3" d="M49.2,745.6c-2.5,2-6,1.3-6.4-2.2s12.8-28.2,15.7-33.6c24.5-46.4,54.2-93.8,84.2-136.9,8.6-12.3,21.4-32.4,31.2-42.8s8.8-3.2,6.8,4c-49.7,66.6-94.8,136.9-131.4,211.6h-.1Z"/>
    <path class="st3" d="M467.6,307.5c1.2-.3,2.3-.3,3.5,0,3.3,1,8.2,17.9,9.5,21.9,12,38.4,17.2,85.2,20.6,125.5,1.8,21.1,5.2,53.7,2.9,74-.8,6.8-6.6,6.9-7.6,1.9-1.5-8.1.4-23.1,0-32.3-2-46.8-7.5-104.9-18.7-150.2-2.6-10.4-10.3-27.3-11.5-36-.2-1.7-.8-4.1,1.4-4.9h0Z"/>
    <path class="st3" d="M351.5,321c1.4-1.2,3.7-1.7,5.5-.8,4.7,3.4-5.4,13.3-7.5,16.4-31,45-51.2,97.1-81,142.9-.8,1.3-2.5,4.4-3.6,4.9-5.3,2.6-7.3-2.3-4.7-6.6,28.6-43.2,48.5-93.7,76.8-136.8,2.9-4.4,11.2-17.4,14.5-20.1h0Z"/>
    <path class="st3" d="M266.5,432.8c3.7-1,6.5,2.8,4.1,6.1-9.4,11.8-19.1,23.4-28,35.6s-14.7,23.9-17.3,24.4c-3.5-.4-4.8-2.2-3.9-5.8s9.2-14.8,11.4-18.1c3.7-5.5,30.4-41.4,33.7-42.3h0Z"/>
    <path class="st3" d="M160.3,306.6c.2,1.7.8,4.2-.5,5.6s-10.6,5.8-13.2,7.5c-11.8,7.7-23.4,15.7-34.7,24.2-5.6,2.3-8.9-1.4-5.1-6.1s17.2-12.4,21.6-15.4,23.1-16.1,28-16.7,2.7.3,3.9.9Z"/>
    <path class="st3" d="M510.4,351.4c4.5,3.8,10.5,25.5,12.1,32s4.9,18.9,4.9,23.5-5.4,7.4-7.8,1.2c-3.3-8.4-4.5-23.2-7.6-33.2s-3-8.9-4.8-13.3-2.7-3.5-3.1-5.4c-1.3-5.4,2.1-8.1,6.2-4.7h0Z"/>
    <path class="st3" d="M529.4,303c1.3,1.1,7.7,11.9,9,14.3,2.7,5.1,11.8,24.3,9.6,28.8s-.9,1.8-1.8,2.1c-1.1.4-2.1.2-3.2-.4-2.2-1.1-6.8-17.7-8.7-21.7-2.3-4.9-11.5-16.9-11.4-21s0-2.2,1-2.9c1.4-1,4.3-.2,5.5.8h0Z"/>
    <path class="st3" d="M10.7,376.5l-.9-2.3c0-3.4,7-8.4,9.8-10.8,4.1-3.5,19.8-16.8,23.5-18.3,6.3-2.6,8.7,1.8,4.5,6.4l-33.7,26-3.1-1.1h0Z"/>
  </g>
</svg>