<?xml version="1.0" encoding="UTF-8"?>
<svg id="_图层_2" xmlns="http://www.w3.org/2000/svg" version="1.1" viewBox="0 0 1031.9 892.6">
  <!-- Generator: Adobe Illustrator 29.5.0, SVG Export Plug-In . SVG Version: 2.1.0 Build 137)  -->
  <defs>
    <style>
      .st0 {
        fill: #faf9f6;
      }

      .st1 {
        fill: #363636;
      }

      .st2 {
        isolation: isolate;
      }

      .st3 {
        fill: #363637;
      }
    </style>
  </defs>
  <path class="st0" d="M18.7,887.6c-3.5,0-6.8-1.4-9.5-3.8-2.7-2.6-4.2-6.2-4.2-10V18.8c0-3.9,1.7-7.7,4.6-10.4,2.5-2.2,5.7-3.4,9.2-3.4s1.1,0,1.6,0l994.3,117.6h0c6.9.8,12.2,6.7,12.2,13.6v684.2c0,7.4-5.7,13.4-13.1,13.8L19.6,887.6h-.9Z"/>
  <path class="st1" d="M1015.4,117.7L21,.1c-5.3-.6-10.7,1-14.7,4.6C2.3,8.3,0,13.4,0,18.8v855c0,5.2,2.1,10,5.8,13.6,3.5,3.3,8.1,5.2,12.9,5.2s.7,0,1,0l994.4-53.3c10-.5,17.8-8.8,17.8-18.8V136.3c0-9.5-7.1-17.5-16.6-18.6h0ZM1025.9,820.5c0,6.8-5.3,12.4-12.1,12.8L19.5,886.5c-3.5.2-6.9-1-9.5-3.5s-4-5.7-4-9.3V18.8c0-3.6,1.6-7.1,4.3-9.5,2.4-2.1,5.4-3.2,8.5-3.2s1,0,1.5,0l361.3,42.7,37,62.5c4.4,7.4,12,12.4,20.6,13.3l239.3,26.8c10.6,1.2,21-3.9,26.5-13l29.3-47.9,280.4,33.2c6.4.8,11.3,6.2,11.3,12.7v684.1h0Z"/>
  <g>
    <g>
      <g class="st2">
        <path class="st0" d="M490.9,95.2l-5.5-.7-3.2,6.2,6.5.8-3.2,4.8-12.4-1.5,13.8-26,12.3,1.5-2.6,4.9-5.7-.7-2.7,5,5.5.7-2.6,4.9h-.2,0Z"/>
        <path class="st0" d="M501.5,85.8l-3.4-.4,2.6-4.9,13.4,1.6-2.6,4.9-3.5-.4-11.2,21.1-6.5-.8,11.2-21.1h0Z"/>
        <path class="st0" d="M513,100.7l-1.2,2.2c-.8,1.6-.7,2,0,2.1.6,0,1-.4,1.7-1.8,1-1.9.8-3.3-.4-5.6-1.6-3.1-2.8-5.2-.4-9.8,2.2-4.2,4.9-5.8,9.3-5.2,6.8.8,5.7,5,3.7,8.8l-.4.7-5.8-.7,1-1.9c.8-1.4.9-2.1,0-2.2-.4,0-.9,0-1.5,1.2-1.1,2-.8,2.5.3,4.8,2.2,4.5,2.8,6.3.5,10.8-2.4,4.6-5.4,6-10.1,5.4-5.6-.7-6.4-3.8-3.7-8.7l.6-1,6.3.8h.1Z"/>
        <path class="st0" d="M539.1,85.1l-10.8,20.2c-.5.9-.5,1.5.2,1.6.8,0,1.1-.4,1.7-1.3l10.8-20.2,6.7.8-10.3,19.5c-2.5,4.8-5,6.7-10.8,6s-6.5-3.6-4.2-8.1l10.2-19.2,6.6.8h-.1Z"/>
      </g>
      <g>
        <polygon class="st0" points="476.9 88.1 475.5 90.9 457.4 88.8 459.5 86 476.9 88.1"/>
        <polygon class="st0" points="479 83.6 477.6 86.5 466 85.1 468.2 82.3 479 83.6"/>
        <polygon class="st0" points="474.6 92.5 473.2 95.4 444.3 91.9 446.5 89.2 474.6 92.5"/>
        <polygon class="st0" points="472.3 97 470.9 99.8 434.5 95.5 436.7 92.8 472.3 97"/>
        <polygon class="st0" points="470 101.4 468.6 104.3 438.5 100.7 440.7 97.9 470 101.4"/>
      </g>
    </g>
    <polygon class="st0" points="568.6 121.9 565.8 121.6 565.8 80.3 568.6 80.6 568.6 121.9"/>
  </g>
  <g>
    <path class="st3" d="M5.8,147.1l72.5,6.8c196.7,24.3,390.7,67.6,579.3,127.7,88.9,28.3,177.9,60.8,260.1,105,3.5,1.9,58.5,32.6,111.1,67.6,2.5,1.5,2.4,7.2,2,9.9s-1.7.5-3.7.2c-89.7-59.1-107.7-67.7-112.5-70.4-38.3-21.7-79.4-39.3-120.2-55.7-92.6-37.3-188.9-65.4-285.2-91.5l-1.3,1.4,15,34.4-.3,4c-2.4,3.3-5.9,2.2-7.3-1.2l-17.5-41.5-54.9-14c-8.4,3-16.8,6.3-24.8,10.1s-18.2,11.1-23.1,12.1-6.1-3.7-3.6-7l37.7-19.2c-61.2-14.8-122.6-29.5-184.7-39.7-54.9-9-112.8-17.9-168-24.7-23.4-2.9-47-4.8-70.6-5.8v-8.5h0Z"/>
    <path class="st3" d="M5.8,547.5v-12.3c38-39.1,76.5-77.7,118.2-112.9,20.9-17.7,43.5-36.2,66.2-51.5,3-2,13.1-9.5,15.6-10,5.7-1.3,6.7,3.4,3.2,7-75.1,50.8-142,113.1-203.1,179.8h0Z"/>
    <path class="st3" d="M5.8,472.5c24.3-23.7,49.6-46.5,76.4-67.3,4.4-3.4,16.6-13.9,20.7-15.5,5.8-2.3,7.2,3,4,6.9-24.9,18.4-49.5,37.7-72.2,58.8-7.1,6.5-17.1,19.4-24.1,24.3-1.7,1.2-2.6,1.8-4.8,1.4v-8.5h0Z"/>
    <path class="st3" d="M257.9,294.4c1.8,0,4,1.1,4.2,3.1.2,2.6-1.8,3.6-3.6,5-11.9,9.4-31.4,18.6-44.8,27.3-23.7,15.2-46.4,31.9-69,48.6-5.1,3.3-9.5-1.6-5-5.9,37.6-28.7,76.8-55.3,118.2-78.1Z"/>
    <path class="st3" d="M596.3,400.2c-1.7-1.6-8.8-29.6-10.4-34.6-9.2-28.6-20.2-57.5-35-83.7-.7-2.2,0-4.8,2.4-5.3,4.5-.8,7.2,5.8,9.1,9.1,12.2,21.4,23.7,54.3,31.1,78.1,1.7,5.4,10,31.8,9.1,35.1s-4.2,3.3-6.2,1.4h0Z"/>
    <path class="st3" d="M366.2,239.3c3.5-.9,6.2,2.3,4.5,5.5l-64.5,38c-9.5-4.1,4.3-11.1,8.7-14.1,16.2-11.1,34-20.1,51.3-29.4h0Z"/>
    <path class="st3" d="M634.2,407.8c-5.7-16.3-9.5-33.3-15.4-49.6s-7.6-14.8-6.2-17.5c3.6-7.2,9.1,3.9,10.4,6.7,5,10.6,15.8,43.5,17.4,54.8.3,2.2.7,4.3-1.1,6l-5.1-.3h0Z"/>
    <path class="st3" d="M247.9,287.4c-.4-2.1-.6-4.3.8-6s16.8-9.7,19.9-11.4c9.1-5,25.1-13.7,34.6-16.6s10.1,3,4,6.9-20.6,9.2-29.2,13.5c-6.1,3.1-20.5,13.1-25.6,14.3s-3,.1-4.6-.7h.1Z"/>
    <path class="st3" d="M109.8,490.3c-8.4,10.1-23.2,22-32.9,32.1s-11.9,16.9-16.2,11.5.6-5.9,2.4-8.2c11.6-14.4,29.6-27.3,41.7-41.8,5.5-3.2,8.9,1.7,5,6.4h0Z"/>
    <path class="st3" d="M100.4,293.4c2.8-.7,6.2.5,5.5,3.7s-12.7,11-15.7,13.7-19.9,19.4-21.4,19.5c-3.8-.2-5.3-2.9-3.3-6.3,2-3.4,14.1-14.3,17.1-17s14.8-12.8,17.8-13.5h0Z"/>
    <path class="st3" d="M166.9,322.8c4.3-.2,6.8,3.3,3.6,6.6l-34.2,23.7c-2.5-.4-3.9-2.5-3.2-5.1,1.2-4.4,28.7-21.1,33.8-25.2h0Z"/>
    <path class="st3" d="M614.2,308.5c6.2-2,8.7,5,11.6,9.4s14.5,23.4,14.4,26-5.1,4.8-7.1,1.8l-19.7-32.6.7-4.6h0Z"/>
    <path class="st3" d="M556.8,333.2c4.1-.3,12.4,18.7,11.5,21.9s-3.5,3.2-5.6,2.1-8.5-15.7-9-17.6c-.8-2.9-.7-6.2,3.1-6.5h0Z"/>
    <path class="st3" d="M372.9,228.8c.6.9.2,3.5-.3,4.6-1,2-15.7,8.5-18.5,7.1-8.7-4.3,16.2-15.9,18.8-11.7h0Z"/>
    <path class="st3" d="M532,267c3.6,0,10.4,11.4,9.8,15.1-3.1,11.3-19.7-15.2-9.8-15.1Z"/>
    <path class="st3" d="M58.7,306.6c4-.8,6.2,2.2,3.9,5.9s-11.5,10.1-13,3.7,6.5-9.1,9.1-9.6Z"/>
  </g>
</svg>