<?xml version="1.0" encoding="UTF-8"?>
<svg id="_图层_2" xmlns="http://www.w3.org/2000/svg" version="1.1" viewBox="0 0 1031.9 892.6">
  <!-- Generator: Adobe Illustrator 29.5.0, SVG Export Plug-In . SVG Version: 2.1.0 Build 137)  -->
  <defs>
    <style>
      .st0 {
        fill: #faf9f6;
      }

      .st1 {
        fill: #363636;
      }

      .st2 {
        isolation: isolate;
      }
    </style>
  </defs>
  <path class="st0" d="M18.7,887.6c-3.5,0-6.8-1.4-9.5-3.8-2.7-2.6-4.2-6.2-4.2-10V18.8c0-3.9,1.7-7.7,4.6-10.4,2.5-2.2,5.7-3.4,9.2-3.4s1.1,0,1.6,0l994.3,117.6h0c6.9.8,12.2,6.7,12.2,13.6v684.2c0,7.4-5.7,13.4-13.1,13.8L19.6,887.6h-.9Z"/>
  <path class="st1" d="M1015.4,117.7L21,.1c-5.3-.6-10.7,1-14.7,4.6C2.3,8.3,0,13.4,0,18.8v855c0,5.2,2.1,10,5.8,13.6,3.5,3.3,8.1,5.2,12.9,5.2s.7,0,1,0l994.4-53.3c10-.5,17.8-8.8,17.8-18.8V136.3c0-9.5-7.1-17.5-16.6-18.6h0ZM1025.9,820.5c0,6.8-5.3,12.4-12.1,12.8L19.5,886.5c-3.5.2-6.9-1-9.5-3.5s-4-5.7-4-9.3V18.8c0-3.6,1.6-7.1,4.3-9.5,2.4-2.1,5.4-3.2,8.5-3.2s1,0,1.5,0l361.3,42.7,37,62.5c4.4,7.4,12,12.4,20.6,13.3l239.3,26.8c10.6,1.2,21-3.9,26.5-13l29.3-47.9,280.4,33.2c6.4.8,11.3,6.2,11.3,12.7v684.1h0Z"/>
  <g>
    <path class="st1" d="M6,163.6c24.2.9,48.4,3.2,72.5,5.8,187.3,20.4,375.2,42,556.9,92.2,100.5,27.8,298.7,98.9,392,145.6,2.6,1.9,1.7,6.7,1.1,9.4-105.9-53.2-319.1-128.4-433.9-157.9-33-8.5-69.8-18.3-103.2-23.9-2.3-.4-1.2.3-.4,1.4,2.9,3.8,8.8,7.1,12.4,10.4s12.4,10.8,11.2,15l-1.8,2.2c-.7.5-1.4.4-2.1.3-2.1-.3-17.6-15.9-21.1-18.8-5.5-4.6-12.4-8.2-16.6-13.8l-40.8-8.1,12.5,24c4.3,13.4,14,29.2,17.2,42.6s1.4,11.5-4.6,7.5-10.2-24.4-12.3-29.4c-6.8-16-13.8-32.3-23.9-46.3l-31.9-4.8c-3,3-6.6,5.5-9.7,8.3-6.9,6.2-14.9,16.9-21.8,21.8s-6.8,3-7.2-1.5,24.6-24.8,28.5-30.8l-61.1-8.6-2.4,4.4-37.1,29.3c-4.8,2-7.4-1.2-4.8-5.7l35.2-28.9-232.2-28.4-70.6-5.8v-7.6h0Z"/>
    <path class="st1" d="M6,540.3v-15.2c5.4-8.1,10.4-16.5,15.7-24.6s20-32.1,27.4-39,5.9-2.6,7.2,1.5l-50.3,77.3Z"/>
    <path class="st1" d="M240.5,676.8c-.6-.9-.2-5.3,0-6.7,2-11.3,8.2-27.9,11.6-39.6,23.2-78.8,48.1-150.5,84.1-224.3,1.7-3.6,11.5-24,13.1-24.8s4.5-.2,5.6,2.1l-.3,3.1c-48.1,91.1-79.1,188.8-107.1,287.7-.5,3-5.8,4.7-7.2,2.5h.2,0Z"/>
    <path class="st1" d="M31.3,767.8c-1.3,1.1-4.8,2-6,.3l.3-6.4c26.8-46.3,55.2-91.5,85.6-135.5,8.2-4.2,7.6,1.5,4.6,7.4-8.7,17.3-27.1,39.4-38.2,56.7-16.2,25.3-31,51.6-46.4,77.4h.1Z"/>
    <path class="st1" d="M560.8,368.7c4.5-1.2,5.8,2.2,7.7,5.3,17.3,27.4,25.7,67.1,38.7,97,.7,2.6,1.2,5.8-1.7,7-2.1,1-4.3-1-5.2-2.9-9.7-27-18.8-54.4-30.4-80.6-2-4.6-11.2-20.1-10.7-23.5.2-1.1.4-1.9,1.6-2.3h0Z"/>
    <path class="st1" d="M279.2,434.2c.8,1.3,0,4.7-.6,6.3-2,5.7-9.8,15.9-13.1,22.1-6,11.4-11.8,23.2-17.4,34.8s-7.2,19-10.7,24.4-8.7,2.2-7-4.2c3.2-12.1,17.4-38.2,23.7-50.3,2.6-5,17.7-33.2,21.1-34s3.6.5,3.9,1h.1Z"/>
    <path class="st1" d="M65.5,419c.8-.1,1.5-.2,2.1.3l1.8,2.2c.6,2-.3,3.4-1.3,5-2.9,4.5-12,12.2-16.1,17.1-6.9,8.1-13.6,18.1-20.9,25.6s-4.9,6.2-8.1,4.3.2-7.1,1.9-9.5c8.3-11.3,21.1-26.4,30.8-36.6,2-2,7.4-8.1,9.7-8.4h.1Z"/>
    <path class="st1" d="M195.1,228.4c1.2-1.5,11.4-7,13.9-8.4,7.8-4.2,16-7.2,23.7-11.5,4.3-1,7.7,3.5,3.2,7.1s-20.8,10.2-27.9,13.9-6.6,5.5-10.9,5.3-4.3-3.8-2.1-6.5h.1Z"/>
    <path class="st1" d="M339.7,241.1c-1.7,2-5.5,4.5-7.7,7s-10.8,14.1-14.3,14.3-4.2-1.9-4-4.1,18.6-21.8,21.7-23.8c5.8-3.8,8.7,1.6,4.4,6.7h-.1Z"/>
    <path class="st1" d="M247.7,594.5c1.9-.5,3.5.2,4.6,1.8,1,1.6.2,3-.2,4.6s-8.5,19.4-9.3,20.1c-1.4,1.3-2.9,1.2-4.6.8-1.2-.3-1.4-1.2-1.6-2.3-.6-3.5,8.2-24.2,11.1-25h0Z"/>
    <path class="st1" d="M39.4,705.2c-3.2-3.2,5-15,7.3-18.3s7.3-9.3,9.1-2.4-10.1,20.6-12.9,21.5-2.8,0-3.6-.8h0Z"/>
    <path class="st1" d="M609.3,406.3c-.7.7-2,1-2.9.9-3.1-.4-11.8-15-13.9-18.3-.3-4.3,5-4.2,7.6-1.9s12.6,15.7,9.2,19.2h0Z"/>
    <path class="st1" d="M461.2,241.7c1.4,1.1,8.8,12.2,9.4,13.9,1.2,3.9-1.5,7-5.3,5.3s-11-14.5-11.2-15.4c-.4-1.4-.5-3.7.7-4.6,2-.9,4.8-.5,6.4.8Z"/>
    <path class="st1" d="M183.1,216c3.2-.1,5,2.5,3.6,5.4s-19.1,13-17.6,3.4,11.2-8.7,13.9-8.8h.1Z"/>
    <path class="st1" d="M529.4,250.3c1.6,0,5.9,2,6.7,3.4,3.3,11.9-13.4,4.5-9.5-1.9.7-.8,1.8-1.5,2.9-1.5h-.1Z"/>
    <path class="st1" d="M256.7,209.3c1.7-2.7,8.8.2,6.1,4.6s-8.3-1.1-6.1-4.6Z"/>
  </g>
  <g>
    <g>
      <g class="st2">
        <path class="st0" d="M490.9,95.2l-5.5-.7-3.2,6.2,6.5.8-3.2,4.8-12.4-1.5,13.8-26,12.3,1.5-2.6,4.9-5.7-.7-2.7,5,5.5.7-2.6,4.9h-.2,0Z"/>
        <path class="st0" d="M501.5,85.8l-3.4-.4,2.6-4.9,13.4,1.6-2.6,4.9-3.5-.4-11.2,21.1-6.5-.8,11.2-21.1h0Z"/>
        <path class="st0" d="M513,100.7l-1.2,2.2c-.8,1.6-.7,2,0,2.1.6,0,1-.4,1.7-1.8,1-1.9.8-3.3-.4-5.6-1.6-3.1-2.8-5.2-.4-9.8,2.2-4.2,4.9-5.8,9.3-5.2,6.8.8,5.7,5,3.7,8.8l-.4.7-5.8-.7,1-1.9c.8-1.4.9-2.1,0-2.2-.4,0-.9,0-1.5,1.2-1.1,2-.8,2.5.3,4.8,2.2,4.5,2.8,6.3.5,10.8-2.4,4.6-5.4,6-10.1,5.4-5.6-.7-6.4-3.8-3.7-8.7l.6-1,6.3.8h.1Z"/>
        <path class="st0" d="M539.1,85.1l-10.8,20.2c-.5.9-.5,1.5.2,1.6.8,0,1.1-.4,1.7-1.3l10.8-20.2,6.7.8-10.3,19.5c-2.5,4.8-5,6.7-10.8,6s-6.5-3.6-4.2-8.1l10.2-19.2,6.6.8h-.1Z"/>
      </g>
      <g>
        <polygon class="st0" points="476.9 88.1 475.5 90.9 457.4 88.8 459.5 86 476.9 88.1"/>
        <polygon class="st0" points="479 83.6 477.6 86.5 466 85.1 468.2 82.3 479 83.6"/>
        <polygon class="st0" points="474.6 92.5 473.2 95.4 444.3 91.9 446.5 89.2 474.6 92.5"/>
        <polygon class="st0" points="472.3 97 470.9 99.8 434.5 95.5 436.7 92.8 472.3 97"/>
        <polygon class="st0" points="470 101.4 468.6 104.3 438.5 100.7 440.7 97.9 470 101.4"/>
      </g>
    </g>
    <polygon class="st0" points="568.6 121.9 565.8 121.6 565.8 80.3 568.6 80.6 568.6 121.9"/>
  </g>
</svg>