<?xml version="1.0" encoding="UTF-8"?>
<svg id="_图层_2" xmlns="http://www.w3.org/2000/svg" version="1.1" viewBox="0 0 1031.9 892.6">
  <!-- Generator: Adobe Illustrator 29.5.0, SVG Export Plug-In . SVG Version: 2.1.0 Build 137)  -->
  <defs>
    <style>
      .st0 {
        fill: #faf9f6;
      }

      .st1 {
        fill: #363636;
      }

      .st2 {
        isolation: isolate;
      }

      .st3 {
        fill: #363637;
      }
    </style>
  </defs>
  <path class="st0" d="M18.7,887.6c-3.5,0-6.8-1.4-9.5-3.8-2.7-2.6-4.2-6.2-4.2-10V18.8c0-3.9,1.7-7.7,4.6-10.4,2.5-2.2,5.7-3.4,9.2-3.4s1.1,0,1.6,0l994.3,117.6h0c6.9.8,12.2,6.7,12.2,13.6v684.2c0,7.4-5.7,13.4-13.1,13.8L19.6,887.6h-.9Z"/>
  <path class="st1" d="M1015.4,117.7L21,.1c-5.3-.6-10.7,1-14.7,4.6C2.3,8.3,0,13.4,0,18.8v855c0,5.2,2.1,10,5.8,13.6,3.5,3.3,8.1,5.2,12.9,5.2s.7,0,1,0l994.4-53.3c10-.5,17.8-8.8,17.8-18.8V136.3c0-9.5-7.1-17.5-16.6-18.6h0ZM1025.9,820.5c0,6.8-5.3,12.4-12.1,12.8L19.5,886.5c-3.5.2-6.9-1-9.5-3.5s-4-5.7-4-9.3V18.8c0-3.6,1.6-7.1,4.3-9.5,2.4-2.1,5.4-3.2,8.5-3.2s1,0,1.5,0l361.3,42.7,37,62.5c4.4,7.4,12,12.4,20.6,13.3l239.3,26.8c10.6,1.2,21-3.9,26.5-13l29.3-47.9,280.4,33.2c6.4.8,11.3,6.2,11.3,12.7v684.1h0Z"/>
  <g>
    <g>
      <g class="st2">
        <path class="st0" d="M490.9,95.2l-5.5-.7-3.2,6.2,6.5.8-3.2,4.8-12.4-1.5,13.8-26,12.3,1.5-2.6,4.9-5.7-.7-2.7,5,5.5.7-2.6,4.9h-.2,0Z"/>
        <path class="st0" d="M501.5,85.8l-3.4-.4,2.6-4.9,13.4,1.6-2.6,4.9-3.5-.4-11.2,21.1-6.5-.8,11.2-21.1h0Z"/>
        <path class="st0" d="M513,100.7l-1.2,2.2c-.8,1.6-.7,2,0,2.1.6,0,1-.4,1.7-1.8,1-1.9.8-3.3-.4-5.6-1.6-3.1-2.8-5.2-.4-9.8,2.2-4.2,4.9-5.8,9.3-5.2,6.8.8,5.7,5,3.7,8.8l-.4.7-5.8-.7,1-1.9c.8-1.4.9-2.1,0-2.2-.4,0-.9,0-1.5,1.2-1.1,2-.8,2.5.3,4.8,2.2,4.5,2.8,6.3.5,10.8-2.4,4.6-5.4,6-10.1,5.4-5.6-.7-6.4-3.8-3.7-8.7l.6-1,6.3.8h.1Z"/>
        <path class="st0" d="M539.1,85.1l-10.8,20.2c-.5.9-.5,1.5.2,1.6.8,0,1.1-.4,1.7-1.3l10.8-20.2,6.7.8-10.3,19.5c-2.5,4.8-5,6.7-10.8,6s-6.5-3.6-4.2-8.1l10.2-19.2,6.6.8h-.1Z"/>
      </g>
      <g>
        <polygon class="st0" points="476.9 88.1 475.5 90.9 457.4 88.8 459.5 86 476.9 88.1"/>
        <polygon class="st0" points="479 83.6 477.6 86.5 466 85.1 468.2 82.3 479 83.6"/>
        <polygon class="st0" points="474.6 92.5 473.2 95.4 444.3 91.9 446.5 89.2 474.6 92.5"/>
        <polygon class="st0" points="472.3 97 470.9 99.8 434.5 95.5 436.7 92.8 472.3 97"/>
        <polygon class="st0" points="470 101.4 468.6 104.3 438.5 100.7 440.7 97.9 470 101.4"/>
      </g>
    </g>
    <polygon class="st0" points="568.6 121.9 565.8 121.6 565.8 80.3 568.6 80.6 568.6 121.9"/>
  </g>
  <g>
    <path class="st3" d="M5.8,161.3c120.4,4,239.8,23.1,356.8,49.8,193.5,44.1,382.5,112.8,556,208.8,3.6,2,50.6,27.9,113.3,68.5v10.6c-48.1-34.5-108.7-67.1-111.9-68.9-110.2-62.4-227.3-112.5-347.7-152l15,25.3c1.1,4-.8,6-4.8,4.8s-7.7-11.7-9.8-14.9c-4.2-6.5-8.9-12.7-12.8-19.5-1.4-1.2-32.2-10.8-34.6-11s-1.7-.2-1.3,1.3c4.1,10.9,8.2,21.9,11.5,33.1s4.8,14.1,5.2,18.6-5.1,7.8-7.5,2.7c-3.8-8.1-6.6-24.2-9.9-33.7-2.9-8.6-6.1-17.3-10.2-25.4l-12.1-3.1c.5,5.3,9.4,34,5.8,36.6-3.1,1.1-5.1.7-6.3-2.4-3.7-10-3.7-25.1-7.8-34.9s-5.6-3.6-9.8-4.9c-.6,4.6,3.8,13-.4,16.2-7.6,5.8-6.5-16.2-7.6-18.1l-16-4.8c-2.3.5-2.6,15.6-7,17-11.2,3.4,0-18.1-1.3-19.7l-10-2.5c-2.4.3-15.3,16.6-18.9,18.7-3.6,2.1-6.1,1.5-6.2-2.5s10.9-12.8,13.7-16.5,1.8-1.2,1.4-2.8c-5,.2-12-3.7-16.6-3.7s-18.1,8.7-18.3,1.1l2.6-5.1c-.9-1.1-26.5-6.8-28-6.6s-3,2.1-5,2.6c-8.9,2.2-18.1,3.3-27,6.2s-27.5,11.4-29.5,11-3.4-4.5-2.1-6.5,24-10.2,27.5-11.4c6-2,12.3-3.5,18.5-4.7-.3-1.7-1.9-1.6-3.2-2-24.6-7.8-59.8-12.8-85.8-17.6-58-10.7-118.4-19.9-177.2-25-27-2.3-54.2-3.1-81.1-4.8v-7.6l.4-.3h0Z"/>
    <path class="st3" d="M298.7,286.3c-2,2.4-15.6,8.8-19.6,11.3-39.6,24.8-73.3,57.4-105.8,90.6-2.6,2.2-7.6.7-7-3.2s24-25.5,27.8-29.2c23.5-22.4,49-44.7,76.5-62s18.2-12,22.7-13.4,8.8,2,5.4,5.9h0Z"/>
    <path class="st3" d="M551.2,294.2c3.7-.9,6.7,7,8,9.7,20,40.2,30.8,87.1,45.2,129.5.5,1.8-.5,5.2-2.4,5.8-2.3.6-4-.4-4.8-2.5-11.9-38.7-23.4-77.5-38.7-115s-10.9-21.1-9.8-25,1.4-2.2,2.4-2.5h0Z"/>
    <path class="st3" d="M560.7,382.5c1.1-.3,2.1-.3,3.1.3,2.5,1.3,1.7,4.8,2.3,7.2,8.5,30.5,24.3,74.9,25.2,105.8.2,6-3.9,8.8-7.4,3.5-2.6-16.7-5.3-33.3-9.1-49.8-4.2-18.1-13.9-41.4-16.6-58.4-.4-2.7-1-7.7,2.3-8.7h.2Z"/>
    <path class="st3" d="M352.9,232.6c5.6-1.2,8.1,3.6,3.4,7.3-25.7,11.8-51.1,24.3-74.4,40.4-4.8,2.3-9-1.2-5.7-5.7s12-7.8,14.4-9.3c19.9-12.6,41.3-22.2,62.3-32.6h0Z"/>
    <path class="st3" d="M413.6,242.1c3.5-.7,4.4.9,4.1,4.1s-3.1,3.8-5.3,6.1c-11.2,11.3-22.5,22.4-33.1,34.2-11.4,3-4.9-5.8-1-10.5,6.8-8.1,16.8-18.6,24.7-25.6s8.9-8,10.7-8.4h-.1Z"/>
    <path class="st3" d="M243.7,298.1c5.4-1.2,6.6,2.7,3.7,6.5-7.1,4.9-14.2,9.8-20.9,15.1s-19.9,18-22.8,18-3.9-5.1-1.3-8c4.7-5.1,16.9-14.4,22.8-19s15.8-12.1,18.6-12.7h-.1Z"/>
    <path class="st3" d="M392.7,236l-39.1,18.4-3.4.5c-2.1-.4-2.9-2.5-2.4-4.4l2.1-2.7,37.3-17.7c4.4-2,8.8,2,5.4,5.9h.1Z"/>
    <path class="st3" d="M605.2,300.1c4.1-.4,12.6,15.3,14.7,19.1s11.1,18.6,7.5,21.1c-2.3,1-4,.7-5.8-1s-9.2-17.6-11.5-21.7-14.1-16.7-4.9-17.5Z"/>
    <path class="st3" d="M183,200.4c1.8,1.8.8,5.1-1.3,6.3-7.3,2.9-14.3,6.5-21.3,10.1s-10.7,7.2-13.8,7.2-4.4-3.6-2.4-6.3,32.3-18.2,35.7-18.3,2.4.4,3.1,1.1h0Z"/>
    <path class="st3" d="M704.9,368.3c1.3-.4,1.9,0,3.1.4,1.6.6,19,17.1,20,18.9s1.6,4.6-.4,6.3-4.7-.5-6.7-2-16.5-15.5-17.6-17.5-1.1-5.3,1.7-6.1h0Z"/>
    <path class="st3" d="M305.4,218.5c1.6-.2,4.5-.8,5.5.7.8,1.8.8,3.8-.5,5.3s-18.1,8.5-19.7,8.8c-5.4,1.1-6.8-3.1-3.6-6.5s16.1-7.9,18.3-8.3h0Z"/>
    <path class="st3" d="M765.3,393.5c-1.4-1.1-3.9-5-6-6.8s-8.5-5-8.5-8.6c-.3-12.4,21.9,9.4,21.8,13.4s-4.8,4.1-7.3,2.1h0Z"/>
    <path class="st3" d="M331,256.4c3.6-.6,5.9,2.3,4.1,5.1s-15.6,12.5-16.9,12.7-1.9,0-2.7-.7c-1.8-1.8-1.9-4.3-.5-6.3s14.1-10.4,16-10.7h0Z"/>
    <path class="st3" d="M598.2,358.9c2.7-1.9,5-.8,6.6,1.9s6.1,15.5,5,17.7c-1.3,1.9-3.1,2.5-5.3,1.5s-9.1-18.3-6.4-21.1h.1Z"/>
    <path class="st3" d="M142.2,200.3c3.6-.5,5,3.5,3.6,6.5s-13.9,11.2-13.8,3.3,8-9.5,10.3-9.8h-.1Z"/>
    <path class="st3" d="M479,274.3c8.5-3.2,9.8,20,1.3,15.6s-4.4-14.5-1.3-15.6Z"/>
    <path class="st3" d="M653.2,471.3c-2-2-3.2-11.3-1.2-13.5,5.6-6.4,10.8,13.2,5,14.6-1.2.2-3-.2-3.8-1h0Z"/>
    <path class="st3" d="M432.5,255.4c8.7-2.9,4.9,11.5-1,11s-1.7-10.1,1-11Z"/>
  </g>
</svg>