<?xml version="1.0" encoding="UTF-8"?>
<svg id="_图层_2" xmlns="http://www.w3.org/2000/svg" version="1.1" viewBox="0 0 1031.9 892.6">
  <!-- Generator: Adobe Illustrator 29.5.0, SVG Export Plug-In . SVG Version: 2.1.0 Build 137)  -->
  <defs>
    <style>
      .st0 {
        fill: #faf9f6;
      }

      .st1 {
        fill: #363636;
      }

      .st2 {
        isolation: isolate;
      }

      .st3 {
        fill: #363637;
      }
    </style>
  </defs>
  <path class="st0" d="M18.7,887.6c-3.5,0-6.8-1.4-9.5-3.8-2.7-2.6-4.2-6.2-4.2-10V18.8c0-3.9,1.7-7.7,4.6-10.4,2.5-2.2,5.7-3.4,9.2-3.4s1.1,0,1.6,0l994.3,117.6h0c6.9.8,12.2,6.7,12.2,13.6v684.2c0,7.4-5.7,13.4-13.1,13.8L19.6,887.6h-.9Z"/>
  <path class="st1" d="M1015.4,117.7L21,.1c-5.3-.6-10.7,1-14.7,4.6C2.3,8.3,0,13.4,0,18.8v855c0,5.2,2.1,10,5.8,13.6,3.5,3.3,8.1,5.2,12.9,5.2s.7,0,1,0l994.4-53.3c10-.5,17.8-8.8,17.8-18.8V136.3c0-9.5-7.1-17.5-16.6-18.6h0ZM1025.9,820.5c0,6.8-5.3,12.4-12.1,12.8L19.5,886.5c-3.5.2-6.9-1-9.5-3.5s-4-5.7-4-9.3V18.8c0-3.6,1.6-7.1,4.3-9.5,2.4-2.1,5.4-3.2,8.5-3.2s1,0,1.5,0l361.3,42.7,37,62.5c4.4,7.4,12,12.4,20.6,13.3l239.3,26.8c10.6,1.2,21-3.9,26.5-13l29.3-47.9,280.4,33.2c6.4.8,11.3,6.2,11.3,12.7v684.1h0Z"/>
  <g>
    <g>
      <g class="st2">
        <path class="st0" d="M490.9,95.2l-5.5-.7-3.2,6.2,6.5.8-3.2,4.8-12.4-1.5,13.8-26,12.3,1.5-2.6,4.9-5.7-.7-2.7,5,5.5.7-2.6,4.9h-.2,0Z"/>
        <path class="st0" d="M501.5,85.8l-3.4-.4,2.6-4.9,13.4,1.6-2.6,4.9-3.5-.4-11.2,21.1-6.5-.8,11.2-21.1h0Z"/>
        <path class="st0" d="M513,100.7l-1.2,2.2c-.8,1.6-.7,2,0,2.1.6,0,1-.4,1.7-1.8,1-1.9.8-3.3-.4-5.6-1.6-3.1-2.8-5.2-.4-9.8,2.2-4.2,4.9-5.8,9.3-5.2,6.8.8,5.7,5,3.7,8.8l-.4.7-5.8-.7,1-1.9c.8-1.4.9-2.1,0-2.2-.4,0-.9,0-1.5,1.2-1.1,2-.8,2.5.3,4.8,2.2,4.5,2.8,6.3.5,10.8-2.4,4.6-5.4,6-10.1,5.4-5.6-.7-6.4-3.8-3.7-8.7l.6-1,6.3.8h.1Z"/>
        <path class="st0" d="M539.1,85.1l-10.8,20.2c-.5.9-.5,1.5.2,1.6.8,0,1.1-.4,1.7-1.3l10.8-20.2,6.7.8-10.3,19.5c-2.5,4.8-5,6.7-10.8,6s-6.5-3.6-4.2-8.1l10.2-19.2,6.6.8h-.1Z"/>
      </g>
      <g>
        <polygon class="st0" points="476.9 88.1 475.5 90.9 457.4 88.8 459.5 86 476.9 88.1"/>
        <polygon class="st0" points="479 83.6 477.6 86.5 466 85.1 468.2 82.3 479 83.6"/>
        <polygon class="st0" points="474.6 92.5 473.2 95.4 444.3 91.9 446.5 89.2 474.6 92.5"/>
        <polygon class="st0" points="472.3 97 470.9 99.8 434.5 95.5 436.7 92.8 472.3 97"/>
        <polygon class="st0" points="470 101.4 468.6 104.3 438.5 100.7 440.7 97.9 470 101.4"/>
      </g>
    </g>
    <polygon class="st0" points="568.6 121.9 565.8 121.6 565.8 80.3 568.6 80.6 568.6 121.9"/>
  </g>
  <g>
    <path class="st3" d="M1027.9,418.1v8.9s-20.3-12.3-49.4-26.4-77-37.4-83.1-40.2c-205.5-94.2-426.8-137.2-648.7-175.1-55-9.4-110.2-18.4-165.8-24-24.7-2.5-49.9-3-74.4-6.8.2-1.5-1.5-7.7,1.3-7.5,7.7.5,16,2.2,23.7,2.9,151.8,12.6,306.2,41.2,455.2,72.4,147.5,30.9,292.3,75.9,429,138.9s107,54.6,111.9,56.9h.3Z"/>
    <path class="st3" d="M196,241.7c-47.3,32.6-89.4,71.9-129.7,112.7L6.5,419.4c-.2-6.8-1.1-9.7,3.3-15.2,11.1-13.8,26.1-29.3,38.4-42.2,43.6-45.7,90.1-89.3,141.8-125.8,2.5-1.9,6.9-1,7.1,2.4l-1.2,3.1h0Z"/>
    <path class="st3" d="M271.5,509.3c-2.4-2.4,0-6.8.9-9.5,14.1-44.2,33.9-94.5,52.7-137s20.2-47.6,30.4-62.6,3.2-4.9,7.2-4c2.4.8,1.6,3.8,1.1,5.6-2,7.3-13.4,25.3-17.5,33.8-26.6,55.7-47,114-68.3,171.8-1,2.5-4.6,4-6.6,1.9h.1Z"/>
    <path class="st3" d="M520.5,282.9c1.7-.6,4.1-.3,5.6.8s10.8,14.5,13,17.4c32.5,45.4,54,99.4,71.9,152,1.1,3.2,4.6,11.8,4.7,14.4.2,5-5.3,5.9-8.1.4-8.9-18.3-15.5-44.8-23.5-64.8-13.2-33.1-28.3-63.5-48.3-93.1s-17.2-21.6-17-24.8.5-1.9,1.6-2.2h0Z"/>
    <path class="st3" d="M149.5,514.4c6.8-2.3,5.1,4.7,3.9,8.7-8.4,27.4-28.9,61.8-40.8,89.2-5.5,12.7-10.7,25.5-15.7,38.4s-10.9,32.7-13.5,33.9-6.4-1-5.5-4.5c6.5-18,13-36.1,20.3-53.8,14.2-34.4,31.3-72.7,47.7-106,.8-1.6,2.1-5.4,3.6-5.9h0Z"/>
    <path class="st3" d="M195.2,219.3c1.2.8,1.3,5.7-.6,6.5l-49.6,32.6c-4.2,1.5-8,.5-6.4-4.5s45.1-29.2,51.1-34.3c1.3-.5,4.4-1.1,5.5-.4h0Z"/>
    <path class="st3" d="M257.7,481.2c2.4-.7,4,.4,4.6,2.7,1.2,4.7-17,44.9-17.8,53.4-4.8,5.4-8.3,3.1-6.9-4.1s12.4-39.6,16.6-47.9c4.2-8.3,1.8-3.6,3.6-4.1h-.1Z"/>
    <path class="st3" d="M565.2,274.3c3-.8,7.7,4.8,9.8,7,6.8,7,14.8,16.1,20.8,23.8s6,7.1,6.5,8.8c.7,2.9-.6,6.2-3.7,5.5s-20.5-23-24.1-27.1-18.5-15.6-9.3-17.9h0Z"/>
    <path class="st3" d="M589.8,355.9c5.6-1.9,12.4,10.2,15,14.2,2.3,3.6,10.3,17.1,10.1,20.3s0,2.3-1,2.9c-1.3.6-2.8.7-4.2.2-2.3-.7-8.3-14-10.3-17.2s-10.5-13.9-11-15.6-.6-4.2,1.4-4.9h0Z"/>
    <path class="st3" d="M82.1,605.5c3.8-1.1,5.6,2.2,4.8,5.8s-9.1,27.2-11.4,31.3-8.2,3.8-7.2-3.4,8.8-26.2,10.7-30.1,1.5-3.2,3-3.7h0Z"/>
    <path class="st3" d="M619.2,295.2c3.5-1.2,16.9,9.1,17.3,12,1.8,12.4-26.8-8.8-17.3-12Z"/>
    <path class="st3" d="M107.8,255.4c2.9-.6,5.3,1.2,5,4.1s-14.6,15.1-16,7.5,8.5-11.1,11-11.6Z"/>
  </g>
</svg>