<?xml version="1.0" encoding="UTF-8"?>
<svg id="_图层_3" data-name="图层 3" xmlns="http://www.w3.org/2000/svg" viewBox="0 0 153.44 153.44">
  <defs>
    <style>
      .cls-1 {
        fill: #d0d5d0;
      }

      .cls-2 {
        fill: #71787f;
      }

      .cls-3 {
        fill: #f5f5f1;
      }
    </style>
  </defs>
  <g>
    <path class="cls-3" d="M152.69,76.72c0,6.7-.87,13.2-2.5,19.38-.52,2.02-1.14,4.01-1.83,5.96-10.43,29.5-38.56,50.63-71.63,50.63-4.63,0-9.17-.41-13.57-1.22-.21-.03-.42-.07-.63-.11-2.29-.43-4.55-.96-6.76-1.6-.03,0-.06-.01-.09-.03C26.57,141.36,4.64,116.07,1.22,85.19c0-.03,0-.07-.01-.1-.23-2-.36-4.03-.42-6.08,0-.26-.02-.52-.02-.79-.01-.5-.02-.99-.02-1.49,0-17.56,5.96-33.72,15.96-46.59.63-.82,1.29-1.62,1.95-2.42,7.75-9.18,17.64-16.49,28.9-21.17,2.03-.85,4.11-1.61,6.22-2.28,7.24-2.29,14.94-3.52,22.94-3.52,1.59,0,3.17.05,4.74.15,2.09.12,4.16.34,6.19.63,16.64,2.39,31.55,10.2,42.87,21.56,1.84,1.85,3.58,3.79,5.23,5.82,10.59,13.06,16.93,29.7,16.93,47.81Z"/>
    <path class="cls-2" d="M76.72.75c1.59,0,3.17.05,4.74.15,2.09.12,4.16.34,6.19.63,16.64,2.39,31.55,10.2,42.87,21.56,1.84,1.85,3.58,3.79,5.23,5.82,10.59,13.06,16.93,29.7,16.93,47.81,0,6.7-.87,13.2-2.5,19.38-.52,2.02-1.14,4.01-1.83,5.96-10.43,29.5-38.56,50.63-71.63,50.63-4.63,0-9.17-.41-13.57-1.22-.21-.03-.42-.07-.63-.11-2.29-.43-4.55-.96-6.76-1.6-.03,0-.06-.01-.09-.03C26.57,141.36,4.64,116.07,1.22,85.19c0-.03,0-.07-.01-.1-.23-2-.36-4.02-.42-6.08,0-.26-.02-.52-.02-.79-.01-.5-.02-.99-.02-1.49,0-17.56,5.96-33.72,15.96-46.59.63-.82,1.29-1.62,1.95-2.42,7.75-9.18,17.64-16.49,28.9-21.17,2.03-.85,4.11-1.61,6.22-2.28,7.24-2.29,14.94-3.52,22.94-3.52M76.72,0c-7.91,0-15.71,1.2-23.17,3.56-2.1.66-4.21,1.44-6.28,2.3-11.21,4.66-21.3,12.05-29.18,21.38-.7.83-1.36,1.65-1.97,2.44C5.57,43.24,0,59.51,0,76.72c0,.51,0,1.01.02,1.51,0,.17,0,.35.01.54v.25c.06,2.09.21,4.15.43,6.14v.03s0,.03,0,.03c0,.01,0,.03,0,.06,1.68,15.2,7.83,29.41,17.76,41.1,9.83,11.56,22.69,19.88,37.18,24.05.06.02.12.04.15.04,2.23.64,4.53,1.19,6.81,1.61.21.04.42.08.64.11,4.44.81,9.05,1.23,13.69,1.23,32.45,0,61.53-20.55,72.34-51.13.7-1.97,1.33-4,1.85-6.02,1.68-6.34,2.53-12.92,2.53-19.57,0-17.54-6.07-34.68-17.1-48.28-1.63-2.01-3.41-3.99-5.28-5.88C119.23,10.69,104.25,3.16,87.76.79c-2.07-.3-4.18-.52-6.25-.64-1.54-.1-3.15-.15-4.78-.15h0Z"/>
    <path class="cls-1" d="M131.46,87.74c-9.77-4.36-21.39-1.8-28.43,6.23v-27.73c0-6.69-3.03-12.89-8.32-17l-14.9-11.57,1-4.64,54.94-4.11c-1.64-2.03-3.39-3.97-5.23-5.82l-48.34,3.63,5.47-25.18c-2.04-.3-4.1-.51-6.19-.63l-11.01,50.65c-8.14-.43-13.1-2.92-15.19-7.65v-.08s-.04,0-.04,0c-.61-1.42-.99-3.03-1.1-4.85-.47-7.46-.46-22.07-.34-34.68-2.11.67-4.19,1.43-6.22,2.28-.1,12.12-.08,25.55.37,32.79.11,1.72.4,3.51.96,5.26l-4.62,30.92-26.7,2.14,15.47-25.75c3.2-5.33,2.34-12.1-2.1-16.46l-10.11-9.94-2.17,2.21-2.17,2.21.21.21,9.9,9.73c2.38,2.35,2.85,5.99,1.12,8.86l-17.74,29.54-9.2.74c.06,2.08.2,4.14.43,6.18l22.86-1.83,49.9,44.9-18.21,21.5c2.22.64,4.47,1.18,6.76,1.6l44.95-53.08c5.24-6.19,14.05-8.19,21.45-4.89l19.42,8.68c.69-1.95,1.31-3.94,1.83-5.96l-18.73-8.37ZM54,52.38c3.23,2.73,8.04,4.74,15.13,5.28l-3.51,16.16-15.01,1.2,3.39-22.64ZM96.83,100.21l-18.85,23.32-22.19-19.96,41.04-24.76v21.4ZM96.83,71.58l-45.85,27.65-18.4-16.55,31.36-2.51c1.36-.1,8.16-7.03,8.45-8.36l5.96-27.43,12.55,9.75c3.77,2.93,5.93,7.35,5.93,12.12v5.34Z"/>
    <path class="cls-2" d="M103.88,96.46c.04,3.63-1.2,7.19-3.52,9.99l-37.2,45.22c-.22-.03-.42-.07-.63-.11-2.31-.43-4.59-.97-6.83-1.62-.03,0-.06-.01-.09-.03l39.39-47.88c1.27-1.54,1.96-3.49,1.93-5.49l-.37-29.64c-.06-4.61-2.11-8.98-5.62-11.97l-11.99-10.17s-.13-.11-.28-.06c-.16.05-.19.16-.2.22l-6.03,26.69c-1.14,5.05-5.37,8.7-10.53,9.08L.45,85.23c-.23-2.02-.37-4.07-.42-6.14,0-.26-.02-.53-.02-.8l61.4-4.53c2.09-.15,3.8-1.63,4.26-3.67l6.03-26.7c.56-2.49,2.34-4.47,4.77-5.28,2.43-.81,5.04-.31,6.99,1.35l11.99,10.17c5.05,4.29,8,10.55,8.07,17.17l.37,29.65Z"/>
  </g>
  <polygon class="cls-2" points="9.35 124.66 5.25 137.83 18.91 135.35 9.35 124.66"/>
</svg>