<?xml version="1.0" encoding="UTF-8"?>
<svg id="_图层_3" data-name="图层 3" xmlns="http://www.w3.org/2000/svg" viewBox="0 0 92 92">
  <defs>
    <style>
      .cls-1 {
        fill: #363636;
      }
    </style>
  </defs>
  <path class="cls-1" d="M44.75,92c-.66,0-1.33-.22-1.89-.67L1.12,57.58c-1.03-.83-1.39-2.24-.89-3.47.5-1.23,1.76-1.98,3.07-1.85l36.35,3.49L17.7,19.42c-.73-1.21-.52-2.76.5-3.73,1.02-.97,2.58-1.1,3.75-.31l32.71,22.1L75.56,1.5c.67-1.15,2.01-1.72,3.31-1.41,1.29.31,2.23,1.44,2.29,2.77l2.98,58.85c.08,1.66-1.19,3.07-2.85,3.15-1.65.09-3.07-1.19-3.15-2.85l-2.46-48.73-17.41,30c-.42.72-1.12,1.23-1.93,1.42-.81.19-1.66.03-2.35-.44l-24.07-16.26,17.97,29.74c.59.97.58,2.19-.03,3.15-.6.96-1.7,1.5-2.83,1.39l-32.35-3.1,33.98,27.47c1.29,1.04,1.49,2.93.45,4.23-.59.73-1.46,1.12-2.34,1.12Z"/>
</svg>