<?xml version="1.0" encoding="UTF-8"?>
<svg id="_图层_3" data-name="图层 3" xmlns="http://www.w3.org/2000/svg" viewBox="0 0 92 92">
  <defs>
    <style>
      .cls-1 {
        fill: #363636;
      }
    </style>
  </defs>
  <path class="cls-1" d="M47.88,87.67c-.33,0-.66-.05-.99-.17L2.01,71.76c-1.26-.44-2.08-1.67-2-3s1.02-2.46,2.33-2.76l36.48-8.34-18.07-15.71c-.97-.84-1.3-2.21-.81-3.4.49-1.19,1.68-1.94,2.96-1.86l30.36,1.92L62.04,2.36c.3-1.26,1.38-2.18,2.67-2.28,1.29-.1,2.5.63,3.01,1.82l21.85,51.46c.65,1.52-.06,3.29-1.59,3.93-1.53.65-3.29-.06-3.93-1.59l-18.31-43.12-7.24,29.9c-.34,1.41-1.64,2.38-3.1,2.29l-24.02-1.52,15.84,13.77c.85.74,1.22,1.9.94,2.99-.27,1.1-1.14,1.94-2.24,2.2l-32.1,7.34,35.07,12.3c1.56.55,2.39,2.26,1.84,3.82-.43,1.23-1.59,2.01-2.83,2.01Z"/>
</svg>