<?xml version="1.0" encoding="UTF-8"?>
<svg id="_图层_3" data-name="图层 3" xmlns="http://www.w3.org/2000/svg" viewBox="0 0 497.06 542.2">
  <defs>
    <style>
      .cls-1 {
        fill: #363636;
      }
    </style>
  </defs>
  <g>
    <path class="cls-1" d="M155.16,406.56l-6.35-30.61c-.9-4.38-4.81-7.56-9.28-7.56H32.19c-3.02,0-5.79,1.39-7.6,3.81-1.8,2.42-2.35,5.48-1.49,8.37l9.06,30.61c1.19,3.99,4.93,6.79,9.1,6.79h104.61c2.87,0,5.55-1.28,7.36-3.5,1.81-2.22,2.51-5.11,1.93-7.91ZM35.09,399.95l-6.24-21.08c-.31-1.07-.11-2.19.55-3.08.67-.89,1.68-1.4,2.79-1.4h107.34c1.64,0,3.08,1.17,3.41,2.78l4.72,22.78H35.09Z"/>
    <path class="cls-1" d="M452.64,372.91c-2.18-2.87-5.5-4.52-9.1-4.52h-89.65c-5.55,0-10.29,3.97-11.25,9.45l-1.59,9c-1.96,11.15,4.78,21.85,15.68,24.9,12.07,3.38,24.46,5.06,36.86,5.06s25.83-1.83,38.37-5.49l4.26-1.25c7.32-2.14,12.91-7.79,14.96-15.13l3.36-12.04c.97-3.47.28-7.11-1.9-9.98ZM448.76,381.28l-3.36,12.03c-1.49,5.33-5.55,9.44-10.86,10.99l-4.26,1.25c-23.49,6.86-48.37,7.01-71.93.41-7.92-2.21-12.81-9.99-11.39-18.08l1.59-9c.46-2.6,2.7-4.49,5.34-4.49h89.65c1.71,0,3.29.79,4.32,2.15s1.36,3.09.9,4.74Z"/>
    <path class="cls-1" d="M496.7,295l-8.87-67.76-.5-3.86-22.11-170.25-.08-.58c-.07-.63-.16-1.25-.25-1.86l-.02-.17c-2.23-14.49-9.56-27.13-20.04-36.13-10.49-9.01-24.12-14.39-38.94-14.39-30.36,0-55.74,22.62-59.25,52.69l-7.24,40.15H87.56c-10.63,0-20.8,3.31-29.4,9.55l-25.52,17.06c-9.18,6.49-12.26,10.66-13.62,24.08L.37,295.01c-.24,1.9-.37,3.79-.37,5.64v62.95c0,3.63.46,7.23,1.35,10.7l11.89,46.96c2.35,9.35,3.59,18.95,3.68,28.51l.22,37.95c.29,30.04,24.96,54.48,55,54.48h352.78c30.04,0,54.72-24.44,55-54.49l.22-37.93c.09-9.57,1.33-19.17,3.69-28.52l11.89-46.95c.89-3.49,1.34-7.09,1.34-10.71v-62.95c0-1.85-.12-3.75-.36-5.65ZM6.32,295.75l18.66-151.56c1.19-11.64,3.3-14.31,11.06-19.79l25.5-17.05.1-.07c7.58-5.52,16.55-8.44,25.92-8.44h250.76l-10.65,59.1c-.3,1.63.79,3.19,2.42,3.48.18.04.36.05.53.05,1.43,0,2.69-1.02,2.95-2.47l10.85-60.16,7.63-42.32h.21l.29-2.68c2.95-27.27,25.88-47.84,53.34-47.84s50.41,20.57,53.36,47.84l.3,2.68h.06l21.77,167.63,9.37,71.61c.06.51.1,1.01.14,1.51-6.12-8.66-16.2-14.34-27.59-14.34H33.77c-11.4,0-21.48,5.68-27.6,14.34.05-.5.09-1.01.15-1.52ZM473.92,487.67c-.25,26.76-22.24,48.53-49,48.53H72.14c-26.76,0-48.74-21.77-49-48.52l-.05-14.65c5.66,20.8,24.35,36.55,45.83,36.55h359.23c21.48,0,40.17-15.76,45.82-36.52l-.05,14.61ZM24.1,459.96h.23c0,.66.01,1.33.05,1.99,3.73,23.28,23.48,41.67,46.45,41.67h355.41c22.97,0,42.71-18.39,46.44-41.6.03-.67.05-1.33.05-2h.23c-.08.68-.17,1.34-.28,2-.5,11.11-5.19,22.12-13.04,30.47-8.56,9.12-19.74,14.14-31.49,14.14H68.92c-11.75,0-22.94-5.02-31.5-14.14-7.85-8.35-12.54-19.37-13.04-30.54-.11-.66-.2-1.32-.28-1.99ZM491.06,358.58c-.37-.52-.77-1.03-1.2-1.52-3.78-4.29-9.36-6.85-14.93-6.85h-195.21v6h195.21c2.31,0,4.69.69,6.79,1.89.72.56,1.4,1.17,2,1.85,2.38,2.7,3.49,5.92,3.12,9.09l-13.69,52.75c-.91,3.53-1.43,7.17-1.55,10.77l-1.27,21.45c0,11.78-4.72,23.62-12.95,32.48-8.47,9.11-19.53,14.13-31.14,14.13H70.83c-11.62,0-22.68-5.02-31.14-14.13-8.23-8.86-12.96-20.7-12.96-32.57l-1.26-21.32c-.12-3.64-.64-7.28-1.56-10.81l-13.69-52.75c-.36-3.17.74-6.39,3.13-9.08.6-.69,1.28-1.3,1.99-1.86,2.1-1.2,4.48-1.89,6.8-1.89h195.21v-6H22.14c-5.57,0-11.15,2.56-14.93,6.85-.44.49-.83,1-1.21,1.52v-41.89c0-15.3,12.46-27.76,27.77-27.76h429.53c15.31,0,27.76,12.46,27.76,27.76v41.89Z"/>
    <path class="cls-1" d="M157.44,118.93h-82.35c-5.69,0-11.28,1.48-16.22,4.29l-6.37,3.62c-1.36.77-.81,2.85.75,2.85h83.53c6.18,0,12.25-1.6,17.63-4.66l4.04-2.3c1.81-1.03,1.08-3.8-1-3.8Z"/>
    <path class="cls-1" d="M420.79,517.77H72.83c-2.74,0-4.96,2.22-4.96,4.96s2.22,4.96,4.96,4.96h347.96c2.74,0,4.96-2.22,4.96-4.96s-2.22-4.96-4.96-4.96Z"/>
  </g>
  <path class="cls-1" d="M276.53,363.48c-8.36-2.03-17.85-3.17-28-3.17s-19.63,1.14-27.99,3.17c-27.95,5.25-47.27,18.21-47.27,33.75,0,20.33,33.06,36.26,75.26,36.26s75.26-15.93,75.26-36.26c0-15.54-19.32-28.5-47.26-33.75ZM241.03,367.16c2.47-.13,4.97-.19,7.5-.19s5.04.07,7.51.19c4.49,1.1,7.06,3.01,7.06,4.23,0,1.8-5.53,5.09-14.57,5.09s-14.57-3.29-14.57-5.09c0-1.22,2.57-3.13,7.07-4.23ZM228.11,370.08c-.09.43-.15.87-.15,1.31,0,6.32,8.85,11.09,20.57,11.09s20.57-4.77,20.57-11.09c0-.44-.05-.88-.14-1.31,4.68,1.98,7.81,4.62,7.81,7.61,0,6.51-14.91,11.38-28.24,11.38s-28.24-4.87-28.24-11.38c0-2.99,3.14-5.63,7.82-7.61ZM215.22,373.51c-.61,1.33-.93,2.73-.93,4.18,0,9.91,14.72,17.38,34.24,17.38s34.24-7.47,34.24-17.38c0-1.45-.32-2.85-.92-4.18,5.25,2.85,8.6,6.42,8.6,10.47,0,10.42-22.09,17.68-41.92,17.68s-41.91-7.26-41.91-17.68c0-4.05,3.35-7.62,8.6-10.47ZM202.72,376.91c-1.37,2.22-2.1,4.6-2.1,7.07,0,13.28,21.04,23.68,47.91,23.68s47.92-10.4,47.92-23.68c0-2.47-.74-4.85-2.1-7.08,6.14,3.85,9.77,8.47,9.77,13.38,0,12.99-25.46,23.96-55.59,23.96s-55.59-10.97-55.59-23.96c0-4.91,3.64-9.53,9.78-13.37ZM248.53,427.49c-37.54,0-69.26-13.86-69.26-30.26,0-5.63,3.73-10.95,10.15-15.52-1.6,2.7-2.48,5.58-2.48,8.57,0,16.8,27.06,29.96,61.59,29.96s61.59-13.16,61.59-29.96c0-2.99-.87-5.86-2.47-8.57,6.41,4.57,10.14,9.89,10.14,15.52,0,16.4-31.71,30.26-69.26,30.26Z"/>
</svg>