<?xml version="1.0" encoding="UTF-8"?>
<svg id="_图层_3" data-name="图层 3" xmlns="http://www.w3.org/2000/svg" viewBox="0 0 497.06 542.2">
  <defs>
    <style>
      .cls-1 {
        fill: #ed1e37;
      }

      .cls-2 {
        fill: #f70;
      }

      .cls-3 {
        fill: #d1d7de;
      }

      .cls-4 {
        fill: #e83533;
      }

      .cls-5 {
        fill: #f9b200;
      }

      .cls-6 {
        fill: #4b4a4e;
      }

      .cls-7 {
        fill: #9fd832;
      }

      .cls-8 {
        fill: #eeefec;
      }

      .cls-9 {
        fill: #b1ada5;
      }

      .cls-10 {
        fill: #459ee7;
      }

      .cls-11 {
        fill: #dae3ec;
      }

      .cls-12 {
        fill: #adb2b5;
      }
    </style>
  </defs>
  <path class="cls-8" d="M168.18,207.32c0,.89-.03,1.78-.14,2.65-1.72,18.47-21.48,33.03-45.59,33.03s-45.73-15.98-45.73-35.68c0-4.88,1.25-9.53,3.54-13.78,6.92-12.86,23.21-21.9,42.19-21.9,25.26,0,45.73,15.98,45.73,35.68Z"/>
  <path class="cls-8" d="M232.94,209.47c0,.47-.02.94-.07,1.4-.91,9.78-11.38,17.5-24.16,17.5s-24.23-8.46-24.23-18.9c0-2.58.66-5.05,1.87-7.3,3.66-6.81,12.3-11.6,22.36-11.6,13.38,0,24.23,8.46,24.23,18.9Z"/>
  <path class="cls-3" d="M230.83,209.47c0,.43-.02.86-.07,1.28-.83,8.94-10.39,15.98-22.06,15.98s-22.13-7.73-22.13-17.26c0-2.36.61-4.61,1.71-6.67,3.35-6.22,11.23-10.6,20.42-10.6,12.22,0,22.13,7.73,22.13,17.26Z"/>
  <path class="cls-9" d="M166.02,207.32c0,.85-.03,1.69-.13,2.52-1.64,17.59-20.46,31.46-43.43,31.46s-43.56-15.22-43.56-33.99c0-4.65,1.19-9.08,3.37-13.13,6.59-12.25,22.1-20.86,40.19-20.86,24.06,0,43.56,15.22,43.56,33.99Z"/>
  <path class="cls-4" d="M156.64,207.32c0,.66-.03,1.33-.1,1.98-1.29,13.8-16.06,24.69-34.08,24.69s-34.19-11.94-34.19-26.67c0-3.65.94-7.12,2.64-10.3,5.17-9.61,17.35-16.37,31.54-16.37,18.88,0,34.19,11.94,34.19,26.67Z"/>
  <path class="cls-6" d="M156.64,211.32c0,15.64-15.8,28.31-35.29,28.31s-35.28-12.67-35.28-28.31c0-5.22,1.76-10.11,4.84-14.3-1.71,3.18-2.64,6.65-2.64,10.3,0,14.73,15.3,26.67,34.19,26.67s32.79-10.89,34.08-24.69c.08.66.1,1.34.1,2.02Z"/>
  <path class="cls-11" d="M226.07,209.47c0,.34-.01.67-.05,1.01-.65,7.01-8.16,12.54-17.31,12.54s-17.37-6.07-17.37-13.55c0-1.85.48-3.62,1.34-5.23,2.63-4.88,8.81-8.32,16.02-8.32,9.59,0,17.37,6.07,17.37,13.55Z"/>
  <path class="cls-12" d="M226.07,211.5c0,7.95-8.02,14.38-17.93,14.38s-17.92-6.44-17.92-14.38c0-2.65.89-5.13,2.46-7.26-.87,1.61-1.34,3.38-1.34,5.23,0,7.48,7.77,13.55,17.37,13.55s16.66-5.53,17.31-12.54c.04.34.05.68.05,1.03Z"/>
  <g>
    <g>
      <rect class="cls-1" x="217.35" y="288.16" width="12.47" height="68.86"/>
      <rect class="cls-2" x="229.82" y="288.16" width="12.47" height="68.86"/>
      <rect class="cls-5" x="242.3" y="288.16" width="12.47" height="68.86"/>
      <rect class="cls-7" x="254.77" y="288.16" width="12.47" height="68.86"/>
      <rect class="cls-10" x="267.24" y="288.16" width="12.47" height="68.86"/>
    </g>
    <g>
      <path class="cls-1" d="M229.82,356.59v5.08c-3.22.49-6.32,1.1-9.28,1.81-1.08.2-2.14.42-3.19.65v-7.54h12.47Z"/>
      <path class="cls-2" d="M242.3,356.59v3.87c-4.32.2-8.49.61-12.48,1.21v-5.08h12.48Z"/>
      <path class="cls-5" d="M254.77,356.59v3.87c-2.05-.1-4.13-.15-6.24-.15s-4.19.05-6.23.15v-3.87h12.47Z"/>
      <path class="cls-7" d="M267.25,356.59v5.08c-3.99-.6-8.16-1.01-12.48-1.21v-3.87h12.48Z"/>
      <path class="cls-10" d="M279.72,356.59v7.54c-1.05-.23-2.11-.45-3.19-.65-2.96-.71-6.06-1.32-9.28-1.81v-5.08h12.47Z"/>
    </g>
  </g>
  <path d="M276.15,366.49c-8.23-2.03-17.63-3.18-27.62-3.18s-19.38,1.15-27.61,3.18c-26.21,4.99-44.65,16.87-44.65,30.74,0,18.37,32.35,33.26,72.26,33.26s72.26-14.89,72.26-33.26c0-13.87-18.44-25.75-44.65-30.74Z"/>
</svg>