<?xml version="1.0" encoding="UTF-8"?>
<svg id="_图层_3" data-name="图层 3" xmlns="http://www.w3.org/2000/svg" viewBox="0 0 344.01 336.65">
  <defs>
    <style>
      .cls-1 {
        fill: #363636;
      }
    </style>
  </defs>
  <path class="cls-1" d="M0,8.82v319.01c0,4.87,3.95,8.82,8.82,8.82h326.38c4.87,0,8.82-3.95,8.82-8.82V8.82c0-4.87-3.95-8.82-8.82-8.82H8.82C3.95,0,0,3.95,0,8.82ZM337.8,15.03v259.6c0,4.87-3.95,8.82-8.82,8.82H15.03c-4.87,0-8.82-3.95-8.82-8.82V15.03c0-4.87,3.95-8.82,8.82-8.82h313.95c4.87,0,8.82,3.95,8.82,8.82Z"/>
</svg>