<?xml version="1.0" encoding="UTF-8"?>
<svg id="_图层_3" xmlns="http://www.w3.org/2000/svg" version="1.1" viewBox="0 0 688 415.7">
  <!-- Generator: Adobe Illustrator 29.5.0, SVG Export Plug-In . SVG Version: 2.1.0 Build 137)  -->
  <defs>
    <style>
      .st0 {
        fill: #363636;
      }
    </style>
  </defs>
  <path class="st0" d="M0,8.8v398c0,4.9,4,8.8,8.8,8.8h670.4c4.9,0,8.8-4,8.8-8.8V8.8c0-4.9-4-8.8-8.8-8.8H8.8C4,0,0,4,0,8.8ZM681.8,15v338.6c0,4.9-4,8.8-8.8,8.8H15c-4.9,0-8.8-4-8.8-8.8V15c0-4.9,3.9-8.8,8.8-8.8h658c4.9,0,8.8,3.9,8.8,8.8h0Z"/>
</svg>