<?xml version="1.0" encoding="UTF-8"?>
<svg id="_图层_1" xmlns="http://www.w3.org/2000/svg" version="1.1" viewBox="0 0 63.6 63.6">
  <!-- Generator: Adobe Illustrator 29.5.0, SVG Export Plug-In . SVG Version: 2.1.0 Build 137)  -->
  <defs>
    <style>
      .st0 {
        fill: #363636;
      }
    </style>
  </defs>
  <path class="st0" d="M46.9,27.9h-2.9v5h2.6c.6,0,1.2-.1,1.7-.4.5-.3.9-.6,1.2-1,.2-.4.4-.8.4-1.2,0-.6-.3-1.2-.8-1.7-.6-.5-1.2-.8-2.1-.8Z"/>
  <path class="st0" d="M31.8,27.6c-1.2,0-2.2.5-3,1.5-.8,1-1.3,2.3-1.3,3.8s.4,2.9,1.3,3.9c.9,1,1.8,1.5,2.9,1.5s2.3-.5,3-1.6c.8-1.1,1.2-2.4,1.2-3.7s-.4-2.6-1.2-3.7c-.8-1.1-1.8-1.6-3-1.6Z"/>
  <path class="st0" d="M31.8,0C14.2,0,0,14.2,0,31.8s14.2,31.8,31.8,31.8,31.8-14.2,31.8-31.8S49.4,0,31.8,0ZM23.2,30.7c0,.3,0,.5-.2.6-.3.3-.8.3-1,0-.1-.1-.2-.3-.2-.6v-2.8h-3.1v10.1h2c.3,0,.5,0,.6.2.1.1.2.3.2.5s0,.4-.2.5c-.1.1-.3.2-.6.2h-5.5c-.3,0-.5,0-.6-.2-.1-.1-.2-.3-.2-.5s0-.4.2-.5c.1-.1.3-.2.6-.2h2v-10.1h-3.1v2.8c0,.3,0,.5-.2.6-.2.3-.7.3-1,0-.1-.1-.2-.3-.2-.6v-4.2h10.4v4.2ZM36.7,36.4c-.5,1-1.2,1.9-2.1,2.5-.9.6-1.8.9-2.8.9-1.5,0-2.8-.6-4-1.9-1.1-1.3-1.7-2.9-1.7-4.8s.6-3.6,1.7-4.8c1.1-1.3,2.5-1.9,4-1.9s2,.3,2.8.9c.9.6,1.6,1.4,2.1,2.5.5,1,.7,2.2.7,3.4s-.2,2.4-.7,3.4ZM50.8,32c-.3.5-.6.9-1,1.2-.5.4-1.1.7-1.7.9-.4.1-1,.2-1.6.2h-2.5v3.7h2.8c.3,0,.5,0,.6.2.1.1.2.3.2.5s0,.4-.2.5c-.1.1-.3.2-.6.2h-5.1c-.3,0-.5,0-.6-.2-.1-.1-.2-.3-.2-.5s0-.4.2-.5c.1-.1.3-.2.6-.2h.9v-10.1h-.9c-.3,0-.5,0-.6-.2-.1-.1-.2-.3-.2-.5s0-.4.2-.5c.1-.1.3-.2.6-.2h5.1c1.3,0,2.3.4,3.2,1.1.8.8,1.2,1.7,1.2,2.7s-.1,1.2-.4,1.7Z"/>
</svg>