<?xml version="1.0" encoding="UTF-8"?>
<svg id="_图层_1" data-name="图层 1" xmlns="http://www.w3.org/2000/svg" viewBox="0 0 63.61 63.61">
  <defs>
    <style>
      .cls-1 {
        fill: #363636;
      }
    </style>
  </defs>
  <path class="cls-1" d="M31.8,0C14.24,0,0,14.24,0,31.8s14.24,31.8,31.8,31.8,31.8-14.24,31.8-31.8S49.37,0,31.8,0ZM47.51,29.13c-.39.44-.94.66-1.49.66-.48,0-.95-.17-1.34-.51l-10.88-9.79v31.97c0,1.1-.9,2-2,2s-2-.9-2-2v-31.86l-10.34,9.65c-.81.75-2.07.71-2.83-.1-.75-.81-.71-2.07.1-2.83l13.7-12.8s.08-.06.13-.1c.05-.04.1-.08.15-.11.06-.04.12-.07.18-.1.05-.03.1-.05.15-.08.08-.03.15-.05.23-.07.04-.01.09-.03.13-.04.13-.02.25-.04.38-.04,0,0,0,0,0,0,.03,0,.06,0,.09,0,.09,0,.19.01.28.03.05.01.11.03.16.04.07.02.14.04.2.06.06.02.11.05.16.08.06.03.12.06.18.1.05.03.1.07.15.11.04.03.08.05.11.09l14.22,12.8c.82.74.89,2,.15,2.82Z"/>
</svg>