<?xml version="1.0" encoding="UTF-8"?>
<svg id="_图层_1" xmlns="http://www.w3.org/2000/svg" version="1.1" viewBox="0 0 36.9 109">
  <!-- Generator: Adobe Illustrator 29.5.0, SVG Export Plug-In . SVG Version: 2.1.0 Build 137)  -->
  <defs>
    <style>
      .st0 {
        fill: #363636;
      }

      .st1 {
        fill: #f7f6f0;
      }

      .st2 {
        fill: #ff840a;
      }
    </style>
  </defs>
  <rect class="st0" width="31.4" height="109" rx="4.8" ry="4.8"/>
  <g>
    <path class="st2" d="M6.8,104.6c-1.4,0-2.6-1.2-2.6-2.6V6.4c0-1.1.9-2.1,2.1-2.1h18.3c1.8,0,3.6.5,5.1,1.4l4.7,2.7h0c.4.2.7.4.9.7.4.5.6,1.2.5,1.9l-8.9,43.4v47.6c0,1.4-1.2,2.6-2.6,2.6H6.8Z"/>
    <path class="st1" d="M36.2,8.5c-.3-.4-.8-.7-1.3-.9l-4.7-2.7c-1.7-1-3.7-1.5-5.6-1.5H6.3c-1.7,0-3.1,1.4-3.1,3.1v95.5c0,2,1.6,3.6,3.6,3.6h17.5c2,0,3.6-1.6,3.6-3.6v-47.5l8.9-43.3c.2-1,0-2-.7-2.7,0,0,0,0,.1,0ZM24.6,4.4c1.8,0,3.6.5,5.1,1.4l2.7,1.6H15.1c-.6,0-1.2.2-1.7.4-.4.2-1,.3-1.4,0l-5.7-3s-.2,0-.2-.2,0-.2.3-.2h18.3s-.1,0-.1,0ZM4.3,6.4c0-.3,0-.7.2-.9s0-.2.3-.2h.3l6.1,3.3c.4.2.6.7.4,1.2,0,.2-.1.3-.1.5l-7.2,38.8V6.4ZM24.4,104.6H6.8c-1.4,0-2.6-1.2-2.6-2.6v-44.1c0-1.6,1.3-2.9,2.9-2.9h16.9c1.6,0,2.9,1.3,2.9,2.9v44.1c0,1.4-1.2,2.6-2.6,2.6h.1ZM35.9,11.1l-8.4,40.9c-.2,1.2-1.2,2-2.4,2H7.3c-1.5,0-2.7-1.4-2.4-2.9L12.5,10.4c.2-1.2,1.3-2.1,2.5-2.1h18.6c.3,0,.5,0,.8.2l.7.4s.2.2.3.3c.4.5.6,1.2.5,1.9h0Z"/>
    <rect class="st1" x="3.7" y="55" width="23.8" height="50.1" rx="2.3" ry="2.3"/>
  </g>
  <g>
    <path class="st0" d="M15,68.1v-3.7h-1.5v4.1l-1.8-.3v-6.2h8.1v6.1h-1.8v-3.8h-1.3v3.7h-1.8,0Z"/>
    <path class="st0" d="M18.1,72.7v-2.3h1.8v7h-1.8v-2.3h-6.4v-2.4s6.4,0,6.4,0Z"/>
    <path class="st0" d="M14.2,80.9c-.7,0-1,.6-1,1.4s.2,1.1.7,1.1.7-.4,1-1.6c.6-2.4,1.4-2.9,2.5-2.9s2.5,1,2.5,3.3-1.2,3.3-2.5,3.4v-2.3c.4,0,.9-.3.9-1.1s-.2-.9-.6-.9-.6.3-.9,1.6c-.6,2.5-1.5,3-2.7,3s-2.6-1.2-2.6-3.6,1.1-3.4,2.6-3.6v2.3h0Z"/>
    <path class="st0" d="M19.8,89.7h-5c-1.2,0-1.6.6-1.6,1.3s.5,1.2,1.6,1.2h5v2.4h-4.8c-2.7,0-3.5-1.6-3.5-3.7s.9-3.6,3.5-3.6h4.8v2.4h0Z"/>
    <path class="st0" d="M11.7,95.6h2.5v2.3h-2.5v-2.3Z"/>
  </g>
</svg>