<?xml version="1.0" encoding="UTF-8"?>
<svg id="_图层_1" xmlns="http://www.w3.org/2000/svg" version="1.1" viewBox="0 0 36.9 109">
  <!-- Generator: Adobe Illustrator 29.5.0, SVG Export Plug-In . SVG Version: 2.1.0 Build 137)  -->
  <defs>
    <style>
      .st0 {
        fill: #faf9f6;
      }

      .st1 {
        fill: #363636;
      }

      .st2 {
        fill: #ff840a;
      }
    </style>
  </defs>
  <rect class="st0" width="31.4" height="109" rx="4.8" ry="4.8"/>
  <path class="st2" d="M32.8,97.5l-4.8-42.8V7.9c0-2-1.6-3.5-3.5-3.5H7.1c-2,0-3.5,1.6-3.5,3.5v94.1c0,1.7,1.4,3,3,3h14.1c1.9,0,3.8-.5,5.5-1.5l4.6-2.6c.4-.2.9-.4,1.2-.8h0c.7-.7.9-1.7.7-2.6h0Z"/>
  <path class="st1" d="M33,97.8l-4.9-43.3V7c0-2-1.6-3.6-3.6-3.6H7c-2,0-3.6,1.6-3.6,3.6v95.4c0,1.7,1.4,3.1,3.1,3.1h14.3c1.9,0,3.9-.5,5.6-1.5l4.7-2.7c.5-.2.9-.5,1.2-.8h0c.7-.7.9-1.7.7-2.7ZM4.8,103.2c0,0-.2-.5-.2-.7v-42.6l3.2,38.7c0,.6.2,1,.3,1.2.3.4.1.6,0,.7,0,0-2.1,2.1-2.9,2.7h-.5,0ZM25.9,103.2c-1.5.9-3.3,1.4-5.1,1.4H6.6c-.4,0-.7,0-.7-.3s.2-.2.2-.2l2.8-2.7c.2-.2.3-.2.6,0,.6.3,1.3.3,1.8.3h17.3l-2.7,1.6h0ZM31.6,99.7l-.3.3-.7.4c-.3.2-.5.2-.8.2H11.2c-1.2,0-2.3-.9-2.5-2.1l-3.6-40.6c-.3-1.5.9-2.9,2.4-2.9h17.8c1.2,0,2.2.8,2.4,2l4.4,40.9h0c0,.6,0,1.3-.5,1.8Z"/>
  <g>
    <path class="st0" d="M14.9,17.8v-3.7h-1.5v4.1l-1.8-.3v-6.1h8.1v6.1h-1.8v-3.9h-1.3v3.7h-1.8,0Z"/>
    <path class="st0" d="M18,22.4v-2.3h1.8v7h-1.8v-2.3h-6.4v-2.4s6.4,0,6.4,0Z"/>
    <path class="st0" d="M14.1,30.6c-.7.1-1,.6-1,1.4s.2,1,.7,1,.7-.4,1-1.6c.6-2.4,1.4-2.9,2.5-2.9s2.5,1,2.5,3.3-1.2,3.3-2.5,3.4v-2.3c.4,0,.9-.3.9-1.1s-.2-.9-.6-.9-.6.3-.9,1.5c-.6,2.5-1.5,3-2.7,3s-2.6-1.2-2.6-3.6,1.1-3.4,2.6-3.6v2.3h.1Z"/>
    <path class="st0" d="M19.8,39.4h-5c-1.2,0-1.6.6-1.6,1.3s.5,1.2,1.6,1.2h5v2.4h-4.8c-2.7,0-3.5-1.6-3.5-3.7s.9-3.6,3.5-3.6h4.8v2.4h0Z"/>
    <path class="st0" d="M11.7,45.3h2.5v2.3h-2.5v-2.3Z"/>
  </g>
</svg>