<?xml version="1.0" encoding="UTF-8"?>
<svg id="_图层_1" xmlns="http://www.w3.org/2000/svg" version="1.1" viewBox="0 0 36.9 109">
  <!-- Generator: Adobe Illustrator 29.5.0, SVG Export Plug-In . SVG Version: 2.1.0 Build 137)  -->
  <defs>
    <style>
      .st0 {
        fill: #363636;
      }

      .st1 {
        fill: #f7f6f0;
      }

      .st2 {
        fill: #ff840a;
      }
    </style>
  </defs>
  <rect class="st1" width="31.4" height="109" rx="4.8" ry="4.8"/>
  <g>
    <path class="st2" d="M6.8,4.4c-1.4,0-2.6,1.2-2.6,2.6v95.5c0,1.1.9,2.1,2.1,2.1h18.3c1.8,0,3.6-.5,5.1-1.4l4.7-2.7h0c.4-.2.7-.4.9-.7.4-.5.6-1.2.5-1.9l-8.9-43.4V7c0-1.4-1.2-2.6-2.6-2.6,0,0-17.5,0-17.5,0Z"/>
    <path class="st0" d="M36.2,100.4c-.3.4-.8.7-1.3.9l-4.7,2.7c-1.7,1-3.7,1.5-5.6,1.5H6.3c-1.7,0-3.1-1.4-3.1-3.1V7c0-2,1.6-3.6,3.6-3.6h17.5c2,0,3.6,1.6,3.6,3.6v47.5l8.9,43.3c.2,1,0,2-.7,2.7h.1ZM24.6,104.6c1.8,0,3.6-.5,5.1-1.4l2.7-1.6H15.1c-.6,0-1.2-.2-1.7-.4-.4-.2-1-.3-1.4,0l-5.7,3s-.2,0-.2.2,0,.2.3.2h18.3s-.1,0-.1,0ZM4.3,102.5c0,.3,0,.7.2.9,0,0,0,.2.3.2h.3l6.1-3.3c.4-.2.6-.7.4-1.2,0-.2-.1-.3-.1-.5l-7.2-38.7v42.6ZM24.4,4.4H6.8c-1.4,0-2.6,1.2-2.6,2.6v44.1c0,1.6,1.3,2.9,2.9,2.9h16.9c1.6,0,2.9-1.3,2.9-2.9V7c0-1.4-1.2-2.6-2.6-2.6h.1ZM35.9,97.9l-8.4-40.9c-.2-1.2-1.2-2-2.4-2H7.3c-1.5,0-2.7,1.4-2.4,2.9l7.6,40.6c.2,1.2,1.3,2.1,2.5,2.1h18.6c.3,0,.5,0,.8-.2l.7-.4s.2-.2.3-.3c.4-.5.6-1.2.5-1.9h0Z"/>
    <rect class="st0" x="3.7" y="4.1" width="23.3" height="50.1" rx="2.3" ry="2.3"/>
  </g>
  <g>
    <path class="st1" d="M14.9,17.8v-3.7h-1.5v4.1l-1.8-.3v-6.1h8.1v6.1h-1.8v-3.9h-1.3v3.7h-1.8,0Z"/>
    <path class="st1" d="M18,22.4v-2.3h1.8v7h-1.8v-2.3h-6.4v-2.4s6.4,0,6.4,0Z"/>
    <path class="st1" d="M14.1,30.6c-.7.1-1,.6-1,1.4s.2,1,.7,1,.7-.4,1-1.6c.6-2.4,1.4-2.9,2.5-2.9s2.5,1,2.5,3.3-1.2,3.3-2.5,3.4v-2.3c.4,0,.9-.3.9-1.1s-.2-.9-.6-.9-.6.3-.9,1.5c-.6,2.5-1.5,3-2.7,3s-2.6-1.2-2.6-3.6,1.1-3.4,2.6-3.6v2.3h.1Z"/>
    <path class="st1" d="M19.8,39.4h-5c-1.2,0-1.6.6-1.6,1.3s.5,1.2,1.6,1.2h5v2.4h-4.8c-2.7,0-3.5-1.6-3.5-3.7s.9-3.6,3.5-3.6h4.8v2.4h0Z"/>
    <path class="st1" d="M11.7,45.3h2.5v2.3h-2.5v-2.3Z"/>
  </g>
</svg>